  0
SECTION
  2
HEADER
  9
$ACADVER
  1
AC1021
  9
$ACADMAINTVER
 70
    25
  9
$DWGCODEPAGE
  3
ANSI_1252
  9
$LASTSAVEDBY
  1
DarkWing_2
  9
$INSBASE
 10
0.0
 20
0.0
 30
0.0
  9
$EXTMIN
 10
80.0
 20
-71.22480937432641
 30
0.0
  9
$EXTMAX
 10
608.0
 20
292.0000000032401
 30
0.0
  9
$LIMMIN
 10
0.0
 20
-71.22480937432641
  9
$LIMMAX
 10
608.0
 20
297.0
  9
$ORTHOMODE
 70
     0
  9
$REGENMODE
 70
     1
  9
$FILLMODE
 70
     1
  9
$QTEXTMODE
 70
     0
  9
$MIRRTEXT
 70
     1
  9
$LTSCALE
 40
10.0
  9
$ATTMODE
 70
     1
  9
$TEXTSIZE
 40
0.2
  9
$TRACEWID
 40
0.05
  9
$TEXTSTYLE
  7
STANDARD
  9
$CLAYER
  8
Layer_1
  9
$CELTYPE
  6
ByBlock
  9
$CECOLOR
 62
   256
  9
$CELTSCALE
 40
1.0
  9
$DISPSILH
 70
     0
  9
$DIMSCALE
 40
1.0
  9
$DIMASZ
 40
0.18
  9
$DIMEXO
 40
0.0625
  9
$DIMDLI
 40
0.38
  9
$DIMRND
 40
0.0
  9
$DIMDLE
 40
0.0
  9
$DIMEXE
 40
0.18
  9
$DIMTP
 40
0.0
  9
$DIMTM
 40
0.0
  9
$DIMTXT
 40
0.18
  9
$DIMCEN
 40
0.09
  9
$DIMTSZ
 40
0.0
  9
$DIMTOL
 70
     0
  9
$DIMLIM
 70
     0
  9
$DIMTIH
 70
     1
  9
$DIMTOH
 70
     1
  9
$DIMSE1
 70
     0
  9
$DIMSE2
 70
     0
  9
$DIMTAD
 70
     0
  9
$DIMZIN
 70
     0
  9
$DIMBLK
  1

  9
$DIMASO
 70
     1
  9
$DIMSHO
 70
     1
  9
$DIMPOST
  1

  9
$DIMAPOST
  1

  9
$DIMALT
 70
     0
  9
$DIMALTD
 70
     2
  9
$DIMALTF
 40
25.4
  9
$DIMLFAC
 40
1.0
  9
$DIMTOFL
 70
     0
  9
$DIMTVP
 40
0.0
  9
$DIMTIX
 70
     0
  9
$DIMSOXD
 70
     0
  9
$DIMSAH
 70
     0
  9
$DIMBLK1
  1

  9
$DIMBLK2
  1

  9
$DIMSTYLE
  2
Standard
  9
$DIMCLRD
 70
     0
  9
$DIMCLRE
 70
     0
  9
$DIMCLRT
 70
     0
  9
$DIMTFAC
 40
1.0
  9
$DIMGAP
 40
0.09
  9
$DIMJUST
 70
     0
  9
$DIMSD1
 70
     0
  9
$DIMSD2
 70
     0
  9
$DIMTOLJ
 70
     1
  9
$DIMTZIN
 70
     0
  9
$DIMALTZ
 70
     0
  9
$DIMALTTZ
 70
     0
  9
$DIMUPT
 70
     0
  9
$DIMDEC
 70
     4
  9
$DIMTDEC
 70
     4
  9
$DIMALTU
 70
     2
  9
$DIMALTTD
 70
     2
  9
$DIMTXSTY
  7
STANDARD
  9
$DIMAUNIT
 70
     0
  9
$DIMADEC
 70
     0
  9
$DIMALTRND
 40
0.0
  9
$DIMAZIN
 70
     0
  9
$DIMDSEP
 70
    46
  9
$DIMATFIT
 70
     3
  9
$DIMFRAC
 70
     0
  9
$DIMLDRBLK
  1

  9
$DIMLUNIT
 70
     2
  9
$DIMLWD
 70
    -2
  9
$DIMLWE
 70
    -2
  9
$DIMTMOVE
 70
     2
  9
$DIMFXL
 40
1.0
  9
$DIMFXLON
 70
     0
  9
$DIMJOGANG
 40
0.7853981633974483
  9
$DIMTFILL
 70
     0
  9
$DIMTFILLCLR
 70
     0
  9
$DIMARCSYM
 70
     0
  9
$DIMLTYPE
  6

  9
$DIMLTEX1
  6

  9
$DIMLTEX2
  6

  9
$LUNITS
 70
     2
  9
$LUPREC
 70
     4
  9
$SKETCHINC
 40
0.1
  9
$FILLETRAD
 40
0.5
  9
$AUNITS
 70
     0
  9
$AUPREC
 70
     0
  9
$MENU
  1
.
  9
$ELEVATION
 40
0.0
  9
$PELEVATION
 40
0.0
  9
$THICKNESS
 40
0.0
  9
$LIMCHECK
 70
     0
  9
$CHAMFERA
 40
10.0
  9
$CHAMFERB
 40
10.0
  9
$CHAMFERC
 40
0.0
  9
$CHAMFERD
 40
0.0
  9
$SKPOLY
 70
     0
  9
$TDCREATE
 40
2456748.70798956
  9
$TDUCREATE
 40
2456748.666322893
  9
$TDUPDATE
 40
2456748.714445718
  9
$TDUUPDATE
 40
2456748.672779051
  9
$TDINDWG
 40
0.0064544907
  9
$TDUSRTIMER
 40
2456748.666324618
  9
$USRTIMER
 70
     1
  9
$ANGBASE
 50
0.0
  9
$ANGDIR
 70
     0
  9
$PDMODE
 70
     0
  9
$PDSIZE
 40
0.0
  9
$PLINEWID
 40
0.0
  9
$SPLFRAME
 70
     0
  9
$SPLINETYPE
 70
     6
  9
$SPLINESEGS
 70
     8
  9
$HANDSEED
  5
9D5
  9
$SURFTAB1
 70
     6
  9
$SURFTAB2
 70
     6
  9
$SURFTYPE
 70
     6
  9
$SURFU
 70
     6
  9
$SURFV
 70
     6
  9
$UCSBASE
  2

  9
$UCSNAME
  2

  9
$UCSORG
 10
0.0
 20
0.0
 30
0.0
  9
$UCSXDIR
 10
1.0
 20
0.0
 30
0.0
  9
$UCSYDIR
 10
0.0
 20
1.0
 30
0.0
  9
$UCSORTHOREF
  2

  9
$UCSORTHOVIEW
 70
     0
  9
$UCSORGTOP
 10
0.0
 20
0.0
 30
0.0
  9
$UCSORGBOTTOM
 10
0.0
 20
0.0
 30
0.0
  9
$UCSORGLEFT
 10
0.0
 20
0.0
 30
0.0
  9
$UCSORGRIGHT
 10
0.0
 20
0.0
 30
0.0
  9
$UCSORGFRONT
 10
0.0
 20
0.0
 30
0.0
  9
$UCSORGBACK
 10
0.0
 20
0.0
 30
0.0
  9
$PUCSBASE
  2

  9
$PUCSNAME
  2

  9
$PUCSORG
 10
0.0
 20
0.0
 30
0.0
  9
$PUCSXDIR
 10
1.0
 20
0.0
 30
0.0
  9
$PUCSYDIR
 10
0.0
 20
1.0
 30
0.0
  9
$PUCSORTHOREF
  2

  9
$PUCSORTHOVIEW
 70
     0
  9
$PUCSORGTOP
 10
0.0
 20
0.0
 30
0.0
  9
$PUCSORGBOTTOM
 10
0.0
 20
0.0
 30
0.0
  9
$PUCSORGLEFT
 10
0.0
 20
0.0
 30
0.0
  9
$PUCSORGRIGHT
 10
0.0
 20
0.0
 30
0.0
  9
$PUCSORGFRONT
 10
0.0
 20
0.0
 30
0.0
  9
$PUCSORGBACK
 10
0.0
 20
0.0
 30
0.0
  9
$USERI1
 70
     0
  9
$USERI2
 70
     0
  9
$USERI3
 70
     0
  9
$USERI4
 70
     0
  9
$USERI5
 70
     0
  9
$USERR1
 40
0.0
  9
$USERR2
 40
0.0
  9
$USERR3
 40
0.0
  9
$USERR4
 40
0.0
  9
$USERR5
 40
0.0
  9
$WORLDVIEW
 70
     1
  9
$SHADEDGE
 70
     3
  9
$SHADEDIF
 70
    70
  9
$TILEMODE
 70
     1
  9
$MAXACTVP
 70
    64
  9
$PINSBASE
 10
0.0
 20
0.0
 30
0.0
  9
$PLIMCHECK
 70
     0
  9
$PEXTMIN
 10
1.000000000000000E+20
 20
1.000000000000000E+20
 30
1.000000000000000E+20
  9
$PEXTMAX
 10
-1.000000000000000E+20
 20
-1.000000000000000E+20
 30
-1.000000000000000E+20
  9
$PLIMMIN
 10
0.0
 20
0.0
  9
$PLIMMAX
 10
0.0
 20
0.0
  9
$UNITMODE
 70
     0
  9
$VISRETAIN
 70
     1
  9
$PLINEGEN
 70
     0
  9
$PSLTSCALE
 70
     1
  9
$TREEDEPTH
 70
  3020
  9
$CMLSTYLE
  2
Standard
  9
$CMLJUST
 70
     0
  9
$CMLSCALE
 40
1.0
  9
$PROXYGRAPHICS
 70
     1
  9
$MEASUREMENT
 70
     0
  9
$CELWEIGHT
370
    -1
  9
$ENDCAPS
280
     0
  9
$JOINSTYLE
280
     0
  9
$LWDISPLAY
290
     0
  9
$INSUNITS
 70
     0
  9
$HYPERLINKBASE
  1

  9
$STYLESHEET
  1

  9
$XEDIT
290
     1
  9
$CEPSNTYPE
380
     0
  9
$PSTYLEMODE
290
     1
  9
$FINGERPRINTGUID
  2
{A5FF2561-E03B-4F70-AD21-33B904F3ECE2}
  9
$VERSIONGUID
  2
{FAEB1C32-E019-11D5-929B-00C0DF256EC4}
  9
$EXTNAMES
290
     1
  9
$PSVPSCALE
 40
0.0
  9
$OLESTARTUP
290
     0
  9
$SORTENTS
280
   127
  9
$INDEXCTL
280
     0
  9
$HIDETEXT
280
     1
  9
$XCLIPFRAME
290
     0
  9
$HALOGAP
280
     0
  9
$OBSCOLOR
 70
   257
  9
$OBSLTYPE
280
     0
  9
$INTERSECTIONDISPLAY
280
     0
  9
$INTERSECTIONCOLOR
 70
   257
  9
$DIMASSOC
280
     2
  9
$PROJECTNAME
  1

  9
$CAMERADISPLAY
290
     0
  9
$LENSLENGTH
 40
50.0
  9
$CAMERAHEIGHT
 40
0.0
  9
$STEPSPERSEC
 40
2.0
  9
$STEPSIZE
 40
6.0
  9
$3DDWFPREC
 40
2.0
  9
$PSOLWIDTH
 40
0.25
  9
$PSOLHEIGHT
 40
4.0
  9
$LOFTANG1
 40
1.570796326794897
  9
$LOFTANG2
 40
1.570796326794897
  9
$LOFTMAG1
 40
0.0
  9
$LOFTMAG2
 40
0.0
  9
$LOFTPARAM
 70
     7
  9
$LOFTNORMALS
280
     1
  9
$LATITUDE
 40
37.795
  9
$LONGITUDE
 40
-122.394
  9
$NORTHDIRECTION
 40
0.0
  9
$TIMEZONE
 70
 -8000
  9
$LIGHTGLYPHDISPLAY
280
     1
  9
$TILEMODELIGHTSYNCH
280
     1
  9
$SOLIDHIST
280
     1
  9
$SHOWHIST
280
     1
  9
$DWFFRAME
280
     2
  9
$DGNFRAME
280
     2
  9
$REALWORLDSCALE
290
     1
  9
$INTERFERECOLOR
 62
   256
  9
$CSHADOW
280
     0
  9
$SHADOWPLANELOCATION
 40
0.0
  0
ENDSEC
  0
SECTION
  2
CLASSES
  0
CLASS
  1
ACDBDICTIONARYWDFLT
  2
AcDbDictionaryWithDefault
  3
ObjectDBX Classes
 90
        0
 91
        9
280
     0
281
     0
  0
CLASS
  1
MATERIAL
  2
AcDbMaterial
  3
ObjectDBX Classes
 90
     1153
 91
        9
280
     0
281
     0
  0
CLASS
  1
SCALE
  2
AcDbScale
  3
ObjectDBX Classes
 90
     1153
 91
        9
280
     0
281
     0
  0
CLASS
  1
VISUALSTYLE
  2
AcDbVisualStyle
  3
ObjectDBX Classes
 90
     4095
 91
        9
280
     0
281
     0
  0
CLASS
  1
TABLESTYLE
  2
AcDbTableStyle
  3
ObjectDBX Classes
 90
     4095
 91
        9
280
     0
281
     0
  0
CLASS
  1
SUN
  2
AcDbSun
  3
SCENEOE
 90
     1153
 91
        9
280
     0
281
     0
  0
CLASS
  1
RASTERVARIABLES
  2
AcDbRasterVariables
  3
ISM
 90
        0
 91
        9
280
     0
281
     0
  0
CLASS
  1
DIMASSOC
  2
AcDbDimAssoc
  3
"AcDbDimAssoc|Product Desc:     AcDim ARX App For Dimension|Company:          Autodesk, Inc.|WEB Address:      www.autodesk.com"
 90
        0
 91
        5
280
     0
281
     0
  0
CLASS
  1
DICTIONARYVAR
  2
AcDbDictionaryVar
  3
ObjectDBX Classes
 90
        0
 91
        6
280
     0
281
     0
  0
CLASS
  1
CELLSTYLEMAP
  2
AcDbCellStyleMap
  3
ObjectDBX Classes
 90
     1152
 91
        5
280
     0
281
     0
  0
ENDSEC
  0
SECTION
  2
TABLES
  0
TABLE
  2
VPORT
  5
8
330
0
100
AcDbSymbolTable
 70
     1
  0
VPORT
  5
84B
330
8
100
AcDbSymbolTableRecord
100
AcDbViewportTableRecord
  2
*Active
 70
     0
 10
0.0
 20
0.0
 11
1.0
 21
1.0
 12
267.3878159738351
 22
117.8413266730019
 13
0.0
 23
0.0
 14
0.5
 24
0.5
 15
0.5
 25
0.5
 16
0.0
 26
0.0
 36
1.0
 17
0.0
 27
0.0
 37
0.0
 40
415.3437747721316
 41
1.898568019093078
 42
50.0
 43
0.0
 44
0.0
 50
0.0
 51
0.0
 71
    16
 72
   100
 73
     1
 74
     3
 75
     0
 76
     0
 77
     0
 78
     0
281
     0
 65
     1
110
0.0
120
0.0
130
0.0
111
1.0
121
0.0
131
0.0
112
0.0
122
1.0
132
0.0
 79
     0
146
0.0
348
877
 60
     3
 61
     5
292
     1
282
     1
141
0.0
142
0.0
 63
   250
361
88E
  0
ENDTAB
  0
TABLE
  2
LTYPE
  5
5
330
0
100
AcDbSymbolTable
 70
    13
  0
LTYPE
  5
14
330
5
100
AcDbSymbolTableRecord
100
AcDbLinetypeTableRecord
  2
ByBlock
 70
     0
  3

 72
    65
 73
     0
 40
0.0
  0
LTYPE
  5
15
330
5
100
AcDbSymbolTableRecord
100
AcDbLinetypeTableRecord
  2
ByLayer
 70
     0
  3

 72
    65
 73
     0
 40
0.0
  0
LTYPE
  5
16
330
5
100
AcDbSymbolTableRecord
100
AcDbLinetypeTableRecord
  2
CONTINUOUS
 70
     0
  3
Solid line
 72
    65
 73
     0
 40
0.0
  0
LTYPE
  5
22
330
5
100
AcDbSymbolTableRecord
100
AcDbLinetypeTableRecord
  2
DOT
 70
     0
  3
............................................
 72
    65
 73
     2
 40
0.25
 49
0.0
 74
     0
 49
-0.25
 74
     0
  0
LTYPE
  5
23
330
5
100
AcDbSymbolTableRecord
100
AcDbLinetypeTableRecord
  2
HIDDEN
 70
     0
  3
_ _ _ _ _ _ _ _ _ _ _ _ _ _ _ _ _ _ _ _ _ _ 
 72
    65
 73
     2
 40
0.375
 49
0.25
 74
     0
 49
-0.125
 74
     0
  0
LTYPE
  5
24
330
5
100
AcDbSymbolTableRecord
100
AcDbLinetypeTableRecord
  2
TSLONGDASH
 70
     0
  3
__ __ __ __ __ __ __ __ __ __ __ __ __ __ _ 
 72
    65
 73
     2
 40
1.28
 49
1.0
 74
     0
 49
-0.28
 74
     0
  0
LTYPE
  5
25
330
5
100
AcDbSymbolTableRecord
100
AcDbLinetypeTableRecord
  2
TSDASHDOT
 70
     0
  3
______ . ______ . ______ . ______ . ______ .
 72
    65
 73
     4
 40
1.28
 49
1.0
 74
     0
 49
-0.14
 74
     0
 49
0.0
 74
     0
 49
-0.14
 74
     0
  0
LTYPE
  5
26
330
5
100
AcDbSymbolTableRecord
100
AcDbLinetypeTableRecord
  2
TSCENTER
 70
     0
  3
______ _ ______ _ ______ _ ______ _ ______ _
 72
    65
 73
     4
 40
2.0
 49
1.5
 74
     0
 49
-0.18
 74
     0
 49
0.14
 74
     0
 49
-0.18
 74
     0
  0
LTYPE
  5
27
330
5
100
AcDbSymbolTableRecord
100
AcDbLinetypeTableRecord
  2
TSPHANTOM
 70
     0
  3
_____ _ _ _____ _ _ _____ _ _ _____ _ _ ____
 72
    65
 73
     6
 40
2.5
 49
1.63
 74
     0
 49
-0.19
 74
     0
 49
0.15
 74
     0
 49
-0.19
 74
     0
 49
0.15
 74
     0
 49
-0.19
 74
     0
  0
LTYPE
  5
28
330
5
100
AcDbSymbolTableRecord
100
AcDbLinetypeTableRecord
  2
DASHED
 70
     0
  3
__ __ __ __ __ __ __ __ __ __ __ __ __ __ __
 72
    65
 73
     2
 40
0.75
 49
0.5
 74
     0
 49
-0.25
 74
     0
  0
LTYPE
  5
29
330
5
100
AcDbSymbolTableRecord
100
AcDbLinetypeTableRecord
  2
CENTER
 70
     0
  3
____ _ ____ _ ____ _ ____ _ ____ _ ____ _ __
 72
    65
 73
     4
 40
2.0
 49
1.25
 74
     0
 49
-0.25
 74
     0
 49
0.25
 74
     0
 49
-0.25
 74
     0
  0
LTYPE
  5
2A
330
5
100
AcDbSymbolTableRecord
100
AcDbLinetypeTableRecord
  2
PHANTOM
 70
     0
  3
_____ _ _ _____ _ _ _____ _ _ _____ _ _ ____
 72
    65
 73
     6
 40
2.5
 49
1.25
 74
     0
 49
-0.25
 74
     0
 49
0.25
 74
     0
 49
-0.25
 74
     0
 49
0.25
 74
     0
 49
-0.25
 74
     0
  0
LTYPE
  5
2B
330
5
100
AcDbSymbolTableRecord
100
AcDbLinetypeTableRecord
  2
DASHDOT
 70
     0
  3
__ . __ . __ . __ . __ . __ . __ . __ . __ .
 72
    65
 73
     4
 40
1.0
 49
0.5
 74
     0
 49
-0.25
 74
     0
 49
0.0
 74
     0
 49
-0.25
 74
     0
  0
LTYPE
  5
2C
330
5
100
AcDbSymbolTableRecord
100
AcDbLinetypeTableRecord
  2
BORDER
 70
     0
  3
__ __ . __ __ . __ __ . __ __ . __ __ . __ _
 72
    65
 73
     6
 40
1.75
 49
0.5
 74
     0
 49
-0.25
 74
     0
 49
0.5
 74
     0
 49
-0.25
 74
     0
 49
0.0
 74
     0
 49
-0.25
 74
     0
  0
LTYPE
  5
2D
330
5
100
AcDbSymbolTableRecord
100
AcDbLinetypeTableRecord
  2
DIVIDE
 70
     0
  3
__ . . __ . . __ . . __ . . __ . . __ . . __
 72
    65
 73
     6
 40
1.25
 49
0.5
 74
     0
 49
-0.25
 74
     0
 49
0.0
 74
     0
 49
-0.25
 74
     0
 49
0.0
 74
     0
 49
-0.25
 74
     0
  0
ENDTAB
  0
TABLE
  2
LAYER
  5
2
330
0
100
AcDbSymbolTable
 70
     5
  0
LAYER
  5
10
330
2
100
AcDbSymbolTableRecord
100
AcDbLayerTableRecord
  2
0
 70
     0
 62
     7
  6
CONTINUOUS
370
    -3
390
F
347
35
  0
LAYER
  5
2E
330
2
100
AcDbSymbolTableRecord
100
AcDbLayerTableRecord
  2
Layer_1
 70
     0
 62
     7
  6
CONTINUOUS
370
    -3
390
F
347
35
  0
LAYER
  5
2F
330
2
100
AcDbSymbolTableRecord
100
AcDbLayerTableRecord
  2
Layer_2
 70
     0
 62
     7
  6
CONTINUOUS
370
    -3
390
F
347
35
  0
LAYER
  5
30
330
2
100
AcDbSymbolTableRecord
100
AcDbLayerTableRecord
  2
Layer_3
 70
     0
 62
     7
  6
CONTINUOUS
370
    -3
390
F
347
35
  0
LAYER
  5
890
330
2
100
AcDbSymbolTableRecord
100
AcDbLayerTableRecord
  2
Defpoints
 70
     0
 62
     7
  6
CONTINUOUS
290
     0
370
    -3
390
F
347
35
  0
ENDTAB
  0
TABLE
  2
STYLE
  5
3
330
0
100
AcDbSymbolTable
 70
     1
  0
STYLE
  5
11
330
3
100
AcDbSymbolTableRecord
100
AcDbTextStyleTableRecord
  2
STANDARD
 70
     0
 40
0.0
 41
1.0
 50
0.0
 71
     0
 42
0.2
  3
txt
  4

  0
ENDTAB
  0
TABLE
  2
VIEW
  5
6
330
0
100
AcDbSymbolTable
 70
     0
  0
ENDTAB
  0
TABLE
  2
UCS
  5
7
330
0
100
AcDbSymbolTable
 70
     0
  0
ENDTAB
  0
TABLE
  2
APPID
  5
9
330
0
100
AcDbSymbolTable
 70
     1
  0
APPID
  5
12
330
9
100
AcDbSymbolTableRecord
100
AcDbRegAppTableRecord
  2
ACAD
 70
     0
  0
ENDTAB
  0
TABLE
  2
DIMSTYLE
  5
A
330
0
100
AcDbSymbolTable
 70
     1
100
AcDbDimStyleTable
  0
DIMSTYLE
105
36
330
A
100
AcDbSymbolTableRecord
100
AcDbDimStyleTableRecord
  2
Standard
 70
     0
178
     0
340
11
  0
ENDTAB
  0
TABLE
  2
BLOCK_RECORD
  5
1
330
0
100
AcDbSymbolTable
 70
     1
  0
BLOCK_RECORD
  5
1D
330
1
100
AcDbSymbolTableRecord
100
AcDbBlockTableRecord
  2
*Model_Space
340
1E
 70
     0
280
     1
281
     0
  0
BLOCK_RECORD
  5
1B
330
1
100
AcDbSymbolTableRecord
100
AcDbBlockTableRecord
  2
*Paper_Space
340
1C
 70
     0
280
     1
281
     0
  0
BLOCK_RECORD
  5
894
330
1
100
AcDbSymbolTableRecord
100
AcDbBlockTableRecord
  2
*D0
340
0
 70
     0
280
     1
281
     0
  0
ENDTAB
  0
ENDSEC
  0
SECTION
  2
BLOCKS
  0
BLOCK
  5
86E
330
1D
100
AcDbEntity
  8
0
100
AcDbBlockBegin
  2
*Model_Space
 70
     0
 10
0.0
 20
0.0
 30
0.0
  3
*Model_Space
  1
*Model_Space
  0
ENDBLK
  5
86F
330
1D
100
AcDbEntity
  8
0
100
AcDbBlockEnd
  0
BLOCK
  5
870
330
1B
100
AcDbEntity
 67
     1
  8
0
100
AcDbBlockBegin
  2
*Paper_Space
 70
     0
 10
0.0
 20
0.0
 30
0.0
  3
*Paper_Space
  1
*Paper_Space
  0
ENDBLK
  5
871
330
1B
100
AcDbEntity
 67
     1
  8
0
100
AcDbBlockEnd
  0
BLOCK
  5
895
330
894
100
AcDbEntity
  8
0
100
AcDbBlockBegin
  2
*D0
 70
     1
 10
0.0
 20
0.0
 30
0.0
  3
*D0
  1
*D0
  0
LINE
  5
897
330
894
100
AcDbEntity
  8
Layer_1
  6
ByBlock
 62
     0
370
    -2
100
AcDbLine
 10
89.9375
 20
197.4999999999999
 30
0.0
 11
49.42971194533012
 21
197.4999999999999
 31
0.0
  0
LINE
  5
898
330
894
100
AcDbEntity
  8
Layer_1
  6
ByBlock
 62
     0
370
    -2
100
AcDbLine
 10
89.9375
 20
72.5
 30
0.0
 11
49.42971194533012
 21
72.5
 31
0.0
  0
LINE
  5
899
330
894
100
AcDbEntity
  8
Layer_1
  6
ByBlock
 62
     0
370
    -2
100
AcDbLine
 10
49.60971194533012
 20
197.3199999999999
 30
0.0
 11
49.60971194533012
 21
135.1799999999999
 31
0.0
  0
LINE
  5
89A
330
894
100
AcDbEntity
  8
Layer_1
  6
ByBlock
 62
     0
370
    -2
100
AcDbLine
 10
49.60971194533012
 20
72.68
 30
0.0
 11
49.60971194533012
 21
134.8199999999999
 31
0.0
  0
SOLID
  5
89B
330
894
100
AcDbEntity
  8
Layer_1
 62
     0
100
AcDbTrace
 10
49.63971194533012
 20
197.3199999999999
 30
0.0
 11
49.57971194533012
 21
197.3199999999999
 31
0.0
 12
49.60971194533012
 22
197.4999999999999
 32
0.0
 13
49.60971194533012
 23
197.4999999999999
 33
0.0
  0
SOLID
  5
89C
330
894
100
AcDbEntity
  8
Layer_1
 62
     0
100
AcDbTrace
 10
49.57971194533012
 20
72.68
 30
0.0
 11
49.63971194533012
 21
72.68
 31
0.0
 12
49.60971194533012
 22
72.5
 32
0.0
 13
49.60971194533012
 23
72.5
 33
0.0
  0
MTEXT
  5
89D
330
894
100
AcDbEntity
  8
Layer_1
  6
ByBlock
 62
     0
100
AcDbMText
 10
49.60971194533012
 20
134.9999999999999
 30
0.0
 40
0.18
 41
0.0
 46
0.0
 71
     5
 72
     1
  1
\A1;125.0000
 73
     1
 44
1.0
  0
POINT
  5
89E
330
894
100
AcDbEntity
  8
Defpoints
 62
     0
100
AcDbPoint
 10
90.0
 20
197.4999999999999
 30
0.0
  0
POINT
  5
89F
330
894
100
AcDbEntity
  8
Defpoints
 62
     0
100
AcDbPoint
 10
90.0
 20
72.5
 30
0.0
  0
POINT
  5
8A0
330
894
100
AcDbEntity
  8
Defpoints
 62
     0
100
AcDbPoint
 10
49.60971194533012
 20
72.5
 30
0.0
  0
ENDBLK
  5
896
330
894
100
AcDbEntity
  8
0
100
AcDbBlockEnd
  0
ENDSEC
  0
SECTION
  2
ENTITIES
  0
CIRCLE
  5
37
102
{ACAD_REACTORS
330
893
102
}
330
1D
100
AcDbEntity
  8
0
  6
Continuous
 62
     7
100
AcDbCircle
 10
90.0
 20
72.5
 30
0.0
 40
3.0
  0
CIRCLE
  5
38
102
{ACAD_REACTORS
330
893
102
}
330
1D
100
AcDbEntity
  8
0
  6
Continuous
 62
     7
100
AcDbCircle
 10
90.0
 20
197.4999999999999
 30
0.0
 40
3.0
  0
CIRCLE
  5
39
330
1D
100
AcDbEntity
  8
0
  6
Continuous
 62
     7
100
AcDbCircle
 10
330.0
 20
135.0
 30
0.0
 40
3.0
  0
CIRCLE
  5
3A
330
1D
100
AcDbEntity
  8
0
  6
Continuous
 62
     7
100
AcDbCircle
 10
210.0
 20
138.4726794847789
 30
0.0
 40
3.0
  0
LWPOLYLINE
  5
3B
330
1D
100
AcDbEntity
  8
Layer_1
  6
Continuous
 62
     7
100
AcDbPolyline
 90
        5
 70
   129
 43
0.0
 10
200.0
 20
276.0
 10
220.0
 20
276.0
 10
220.0
 20
281.0
 10
200.0
 20
281.0
 10
200.0
 20
276.0
  0
LWPOLYLINE
  5
42
330
1D
100
AcDbEntity
  8
Layer_1
  6
Continuous
 62
     7
100
AcDbPolyline
 90
        5
 70
   129
 43
0.0
 10
200.0
 20
264.0
 10
220.0
 20
264.0
 10
220.0
 20
269.0
 10
200.0
 20
269.0
 10
200.0
 20
264.0
  0
LWPOLYLINE
  5
5A3
330
1D
100
AcDbEntity
  8
Layer_1
  6
Continuous
 62
     7
100
AcDbPolyline
 90
        4
 70
   129
 43
0.0
 10
157.9979205701088
 20
199.999678594544
 10
157.984748553209
 20
178.0603723173592
 10
138.9913379835536
 20
189.0414327583437
 10
157.9979205701088
 20
199.999678594544
  0
LWPOLYLINE
  5
5A9
330
1D
100
AcDbEntity
  8
Layer_1
  6
Continuous
 62
     7
100
AcDbPolyline
 90
        4
 70
   129
 43
0.0
 10
136.9934181363642
 20
192.5067345178166
 10
137.0065901552322
 20
214.4460407920071
 10
156.0000007213118
 20
203.46498035309
 10
136.9934181363642
 20
192.5067345178166
  0
LWPOLYLINE
  5
5AF
330
1D
100
AcDbEntity
  8
Layer_1
  6
Continuous
 62
     7
100
AcDbPolyline
 90
        4
 70
   129
 43
0.0
 10
139.0086695873274
 20
217.9089410140147
 10
158.0152521712895
 20
228.8671868487199
 10
158.0020801543915
 20
206.9278805745285
 10
139.0086695873274
 20
217.9089410140147
  0
LWPOLYLINE
  5
5B5
330
1D
100
AcDbEntity
  8
Layer_1
  6
Continuous
 62
     7
100
AcDbPolyline
 90
        4
 70
   129
 43
0.0
 10
162.0152514503667
 20
228.8647853112549
 10
181.0086620161352
 20
217.8837248725177
 10
162.0020794334696
 20
206.9254790385599
 10
162.0152514503667
 20
228.8647853112549
  0
LWPOLYLINE
  5
5BB
330
1D
100
AcDbEntity
  8
Layer_1
  6
Continuous
 62
     7
100
AcDbPolyline
 90
        4
 70
   129
 43
0.0
 10
183.0065818636359
 20
214.4184231132241
 10
182.9934098467378
 20
192.4791168390325
 10
163.9999992796738
 20
203.4601772785188
 10
183.0065818636359
 20
214.4184231132241
  0
LWPOLYLINE
  5
5C1
330
1D
100
AcDbEntity
  8
Layer_1
  6
Continuous
 62
     7
100
AcDbPolyline
 90
        4
 70
   129
 43
0.0
 10
180.9913304152646
 20
189.0162166166652
 10
161.9847478322864
 20
178.0579707802533
 10
161.997919849185
 20
199.9972770555823
 10
180.9913304152646
 20
189.0162166166652
  0
LWPOLYLINE
  5
5C7
330
1D
100
AcDbEntity
  8
Layer_1
  6
Continuous
 62
     7
100
AcDbPolyline
 90
        4
 70
   129
 43
0.0
 10
112.0152514503667
 20
228.8647853112549
 10
131.0086620161352
 20
217.8837248725177
 10
112.0020794334696
 20
206.9254790385599
 10
112.0152514503667
 20
228.8647853112549
  0
LWPOLYLINE
  5
5CD
330
1D
100
AcDbEntity
  8
Layer_1
  6
Continuous
 62
     7
100
AcDbPolyline
 90
        4
 70
   129
 43
0.0
 10
133.0065818636359
 20
214.4184231132241
 10
132.9934098467378
 20
192.4791168390325
 10
113.9999992796738
 20
203.4601772785188
 10
133.0065818636359
 20
214.4184231132241
  0
LWPOLYLINE
  5
5D3
330
1D
100
AcDbEntity
  8
Layer_1
  6
Continuous
 62
     7
100
AcDbPolyline
 90
        4
 70
   129
 43
0.0
 10
130.9913304152646
 20
189.0162166166652
 10
111.9847478322864
 20
178.0579707802533
 10
111.997919849185
 20
199.9972770555823
 10
130.9913304152646
 20
189.0162166166652
  0
LWPOLYLINE
  5
5D9
330
1D
100
AcDbEntity
  8
Layer_1
  6
Continuous
 62
     7
100
AcDbPolyline
 90
        4
 70
   129
 43
0.0
 10
133.361736576562
 20
156.7198799351285
 10
133.3485645596622
 20
134.7805736579438
 10
114.3551539900068
 20
145.7616340989283
 10
133.361736576562
 20
156.7198799351285
  0
LWPOLYLINE
  5
5DF
330
1D
100
AcDbEntity
  8
Layer_1
  6
Continuous
 62
     7
100
AcDbPolyline
 90
        4
 70
   129
 43
0.0
 10
112.3572341428174
 20
149.2269358584012
 10
112.3704061616854
 20
171.1662421325916
 10
131.363816727765
 20
160.1851816936746
 10
112.3572341428174
 20
149.2269358584012
  0
LWPOLYLINE
  5
5E5
330
1D
100
AcDbEntity
  8
Layer_1
  6
Continuous
 62
     7
100
AcDbPolyline
 90
        4
 70
   129
 43
0.0
 10
114.3724855937806
 20
174.6291423545993
 10
133.3790681777427
 20
185.5873881893044
 10
133.3658961608447
 20
163.6480819151131
 10
114.3724855937806
 20
174.6291423545993
  0
LWPOLYLINE
  5
5EB
330
1D
100
AcDbEntity
  8
Layer_1
  6
Continuous
 62
     7
100
AcDbPolyline
 90
        4
 70
   129
 43
0.0
 10
137.3790674568199
 20
185.5849866518395
 10
156.3724780225884
 20
174.6039262131022
 10
137.3658954399228
 20
163.6456803791444
 10
137.3790674568199
 20
185.5849866518395
  0
LWPOLYLINE
  5
5F1
330
1D
100
AcDbEntity
  8
Layer_1
  6
Continuous
 62
     7
100
AcDbPolyline
 90
        4
 70
   129
 43
0.0
 10
158.3703978700891
 20
171.1386244538087
 10
158.357225853191
 20
149.1993181796171
 10
139.363815286127
 20
160.1803786191033
 10
158.3703978700891
 20
171.1386244538087
  0
LWPOLYLINE
  5
5F7
330
1D
100
AcDbEntity
  8
Layer_1
  6
Continuous
 62
     7
100
AcDbPolyline
 90
        4
 70
   129
 43
0.0
 10
156.3551464217178
 20
145.7364179572497
 10
137.3485638387396
 20
134.7781721208379
 10
137.3617358556382
 20
156.7174783961669
 10
156.3551464217178
 20
145.7364179572497
  0
LWPOLYLINE
  5
5FD
330
1D
100
AcDbEntity
  8
Layer_1
  6
Continuous
 62
     7
100
AcDbPolyline
 90
        4
 70
   129
 43
0.0
 10
157.9979205701088
 20
113.299678594544
 10
157.984748553209
 20
91.36037231735922
 10
138.9913379835536
 20
102.3414327583437
 10
157.9979205701088
 20
113.299678594544
  0
LWPOLYLINE
  5
603
330
1D
100
AcDbEntity
  8
Layer_1
  6
Continuous
 62
     7
100
AcDbPolyline
 90
        4
 70
   129
 43
0.0
 10
136.9934181363642
 20
105.8067345178166
 10
137.0065901552322
 20
127.7460407920071
 10
156.0000007213118
 20
116.76498035309
 10
136.9934181363642
 20
105.8067345178166
  0
LWPOLYLINE
  5
609
330
1D
100
AcDbEntity
  8
Layer_1
  6
Continuous
 62
     7
100
AcDbPolyline
 90
        4
 70
   129
 43
0.0
 10
139.0086695873274
 20
131.2089410140147
 10
158.0152521712895
 20
142.1671868487199
 10
158.0020801543915
 20
120.2278805745285
 10
139.0086695873274
 20
131.2089410140147
  0
LWPOLYLINE
  5
60F
330
1D
100
AcDbEntity
  8
Layer_1
  6
Continuous
 62
     7
100
AcDbPolyline
 90
        4
 70
   129
 43
0.0
 10
162.0152514503667
 20
142.1647853112549
 10
181.0086620161352
 20
131.1837248725177
 10
162.0020794334696
 20
120.2254790385599
 10
162.0152514503667
 20
142.1647853112549
  0
LWPOLYLINE
  5
615
330
1D
100
AcDbEntity
  8
Layer_1
  6
Continuous
 62
     7
100
AcDbPolyline
 90
        4
 70
   129
 43
0.0
 10
183.0065818636359
 20
127.7184231132241
 10
182.9934098467378
 20
105.7791168390325
 10
163.9999992796738
 20
116.7601772785188
 10
183.0065818636359
 20
127.7184231132241
  0
LWPOLYLINE
  5
61B
330
1D
100
AcDbEntity
  8
Layer_1
  6
Continuous
 62
     7
100
AcDbPolyline
 90
        4
 70
   129
 43
0.0
 10
180.9913304152646
 20
102.3162166166652
 10
161.9847478322864
 20
91.3579707802533
 10
161.997919849185
 20
113.2972770555823
 10
180.9913304152646
 20
102.3162166166652
  0
LWPOLYLINE
  5
621
330
1D
100
AcDbEntity
  8
Layer_1
  6
Continuous
 62
     7
100
AcDbPolyline
 90
        4
 70
   129
 43
0.0
 10
112.0152514503667
 20
142.1647853112549
 10
131.0086620161352
 20
131.1837248725177
 10
112.0020794334696
 20
120.2254790385599
 10
112.0152514503667
 20
142.1647853112549
  0
LWPOLYLINE
  5
627
330
1D
100
AcDbEntity
  8
Layer_1
  6
Continuous
 62
     7
100
AcDbPolyline
 90
        4
 70
   129
 43
0.0
 10
133.0065818636359
 20
127.7184231132241
 10
132.9934098467378
 20
105.7791168390325
 10
113.9999992796738
 20
116.7601772785188
 10
133.0065818636359
 20
127.7184231132241
  0
LWPOLYLINE
  5
62D
330
1D
100
AcDbEntity
  8
Layer_1
  6
Continuous
 62
     7
100
AcDbPolyline
 90
        4
 70
   129
 43
0.0
 10
130.9913304152646
 20
102.3162166166652
 10
111.9847478322864
 20
91.3579707802533
 10
111.997919849185
 20
113.2972770555823
 10
130.9913304152646
 20
102.3162166166652
  0
LWPOLYLINE
  5
633
330
1D
100
AcDbEntity
  8
Layer_1
  6
Continuous
 62
     7
100
AcDbPolyline
 90
        4
 70
   129
 43
0.0
 10
133.361736576562
 20
70.01987993512856
 10
133.3485645596622
 20
48.08057365794377
 10
114.3551539900068
 20
59.06163409892827
 10
133.361736576562
 20
70.01987993512856
  0
LWPOLYLINE
  5
639
330
1D
100
AcDbEntity
  8
Layer_1
  6
Continuous
 62
     7
100
AcDbPolyline
 90
        4
 70
   129
 43
0.0
 10
112.3572341428174
 20
62.52693585840117
 10
112.3704061616854
 20
84.46624213259165
 10
131.363816727765
 20
73.48518169367458
 10
112.3572341428174
 20
62.52693585840117
  0
LWPOLYLINE
  5
63F
330
1D
100
AcDbEntity
  8
Layer_1
  6
Continuous
 62
     7
100
AcDbPolyline
 90
        4
 70
   129
 43
0.0
 10
114.3724855937806
 20
87.92914235459926
 10
133.3790681777427
 20
98.88738818930446
 10
133.3658961608447
 20
76.94808191511305
 10
114.3724855937806
 20
87.92914235459926
  0
LWPOLYLINE
  5
645
330
1D
100
AcDbEntity
  8
Layer_1
  6
Continuous
 62
     7
100
AcDbPolyline
 90
        4
 70
   129
 43
0.0
 10
137.3790674568199
 20
98.88498665183948
 10
156.3724780225884
 20
87.90392621310221
 10
137.3658954399228
 20
76.94568037914442
 10
137.3790674568199
 20
98.88498665183948
  0
LWPOLYLINE
  5
64B
330
1D
100
AcDbEntity
  8
Layer_1
  6
Continuous
 62
     7
100
AcDbPolyline
 90
        4
 70
   129
 43
0.0
 10
158.3703978700891
 20
84.43862445380864
 10
158.357225853191
 20
62.49931817961709
 10
139.363815286127
 20
73.48037861910333
 10
158.3703978700891
 20
84.43862445380864
  0
LWPOLYLINE
  5
651
330
1D
100
AcDbEntity
  8
Layer_1
  6
Continuous
 62
     7
100
AcDbPolyline
 90
        4
 70
   129
 43
0.0
 10
156.3551464217178
 20
59.03641795724971
 10
137.3485638387396
 20
48.07817212083785
 10
137.3617358556382
 20
70.01747839616687
 10
156.3551464217178
 20
59.03641795724971
  0
LWPOLYLINE
  5
657
330
1D
100
AcDbEntity
  8
Layer_1
  6
Continuous
 62
     7
100
AcDbPolyline
 90
        4
 70
   129
 43
0.0
 10
150.9270371973031
 20
37.618324154918
 10
139.0086695873274
 20
44.50894101401471
 10
158.0152521712895
 20
55.4671868487199
 10
158.0045359928431
 20
37.61832415396473
  0
LWPOLYLINE
  5
663
330
1D
100
AcDbEntity
  8
Layer_1
  6
Continuous
 62
     7
100
AcDbPolyline
 90
        4
 70
   129
 43
0.0
 10
112.0045367137695
 20
37.61832416016046
 10
112.0152514503667
 20
55.46478531125493
 10
131.0086620161352
 20
44.48372487251766
 10
119.1009344840228
 20
37.61832415920465
  0
LWPOLYLINE
  5
669
330
1D
100
AcDbEntity
  8
Layer_1
  6
Continuous
 62
     7
100
AcDbPolyline
 90
        4
 70
   129
 43
0.0
 10
208.3592792962673
 20
37.61832414718247
 10
208.3485645596621
 20
55.46478531161401
 10
189.3551539900068
 20
44.48372487062952
 10
201.2628815380384
 20
37.61832414813828
  0
LWPOLYLINE
  5
66F
330
1D
100
AcDbEntity
  8
Layer_1
  6
Continuous
 62
     7
100
AcDbPolyline
 90
        4
 70
   129
 43
0.0
 10
219.4367787987336
 20
37.61832414569044
 10
231.3551464217178
 20
44.50894101230807
 10
212.3485638387396
 20
55.46718684871993
 10
212.3592800171903
 20
37.61832414664371
  0
LWPOLYLINE
  5
675
330
1D
100
AcDbEntity
  8
Layer_1
  6
Continuous
 62
     7
100
AcDbPolyline
 90
        4
 70
   129
 43
0.0
 10
232.9979205701087
 20
76.94568037501378
 10
232.984748553209
 20
98.88498665219856
 10
213.9913379835535
 20
87.90392621121407
 10
232.9979205701087
 20
76.94568037501378
  0
LWPOLYLINE
  5
67B
330
1D
100
AcDbEntity
  8
Layer_1
  6
Continuous
 62
     7
100
AcDbPolyline
 90
        4
 70
   129
 43
0.0
 10
211.9934181363642
 20
84.43862445174116
 10
212.0065901552322
 20
62.49931817755069
 10
231.0000007213118
 20
73.48037861646776
 10
211.9934181363642
 20
84.43862445174116
  0
LWPOLYLINE
  5
681
330
1D
100
AcDbEntity
  8
Layer_1
  6
Continuous
 62
     7
100
AcDbPolyline
 90
        4
 70
   129
 43
0.0
 10
214.0086695873274
 20
59.03641795554307
 10
233.0152521712895
 20
48.07817212083788
 10
233.0020801543915
 20
70.01747839502929
 10
214.0086695873274
 20
59.03641795554307
  0
LWPOLYLINE
  5
687
330
1D
100
AcDbEntity
  8
Layer_1
  6
Continuous
 62
     7
100
AcDbPolyline
 90
        4
 70
   129
 43
0.0
 10
237.0152514503667
 20
48.08057365830285
 10
256.0086620161352
 20
59.06163409704013
 10
237.0020794334696
 20
70.01987993099792
 10
237.0152514503667
 20
48.08057365830285
  0
LWPOLYLINE
  5
68D
330
1D
100
AcDbEntity
  8
Layer_1
  6
Continuous
 62
     7
100
AcDbPolyline
 90
        4
 70
   129
 43
0.0
 10
258.0065818636358
 20
62.52693585633369
 10
257.9934098467378
 20
84.46624213052525
 10
238.9999992796737
 20
73.485181691039
 10
258.0065818636358
 20
62.52693585633369
  0
LWPOLYLINE
  5
693
330
1D
100
AcDbEntity
  8
Layer_1
  6
Continuous
 62
     7
100
AcDbPolyline
 90
        4
 70
   129
 43
0.0
 10
255.9913304152645
 20
87.92914235289263
 10
236.9847478322863
 20
98.88738818930449
 10
236.997919849185
 20
76.94808191397547
 10
255.9913304152645
 20
87.92914235289263
  0
LWPOLYLINE
  5
699
330
1D
100
AcDbEntity
  8
Layer_1
  6
Continuous
 62
     7
100
AcDbPolyline
 90
        4
 70
   129
 43
0.0
 10
182.9979205701087
 20
76.94568037501378
 10
182.984748553209
 20
98.88498665219856
 10
163.9913379835536
 20
87.90392621121407
 10
182.9979205701087
 20
76.94568037501378
  0
LWPOLYLINE
  5
69F
330
1D
100
AcDbEntity
  8
Layer_1
  6
Continuous
 62
     7
100
AcDbPolyline
 90
        4
 70
   129
 43
0.0
 10
161.9934181363642
 20
84.43862445174116
 10
162.0065901552322
 20
62.49931817755069
 10
181.0000007213118
 20
73.48037861646776
 10
161.9934181363642
 20
84.43862445174116
  0
LWPOLYLINE
  5
6A5
330
1D
100
AcDbEntity
  8
Layer_1
  6
Continuous
 62
     7
100
AcDbPolyline
 90
        4
 70
   129
 43
0.0
 10
164.0086695873274
 20
59.03641795554307
 10
183.0152521712895
 20
48.07817212083788
 10
183.0020801543915
 20
70.01747839502929
 10
164.0086695873274
 20
59.03641795554307
  0
LWPOLYLINE
  5
6AB
330
1D
100
AcDbEntity
  8
Layer_1
  6
Continuous
 62
     7
100
AcDbPolyline
 90
        4
 70
   129
 43
0.0
 10
187.0152514503667
 20
48.08057365830285
 10
206.0086620161352
 20
59.06163409704013
 10
187.0020794334696
 20
70.01987993099792
 10
187.0152514503667
 20
48.08057365830285
  0
LWPOLYLINE
  5
6B1
330
1D
100
AcDbEntity
  8
Layer_1
  6
Continuous
 62
     7
100
AcDbPolyline
 90
        4
 70
   129
 43
0.0
 10
208.0065818636358
 20
62.52693585633369
 10
207.9934098467378
 20
84.46624213052525
 10
188.9999992796737
 20
73.485181691039
 10
208.0065818636358
 20
62.52693585633369
  0
LWPOLYLINE
  5
6B7
330
1D
100
AcDbEntity
  8
Layer_1
  6
Continuous
 62
     7
100
AcDbPolyline
 90
        4
 70
   129
 43
0.0
 10
205.9913304152645
 20
87.92914235289263
 10
186.9847478322863
 20
98.88738818930449
 10
186.997919849185
 20
76.94808191397547
 10
205.9913304152645
 20
87.92914235289263
  0
LWPOLYLINE
  5
6C3
330
1D
100
AcDbEntity
  8
Layer_1
  6
Continuous
 62
     7
100
AcDbPolyline
 90
        4
 70
   129
 43
0.0
 10
187.3572341428173
 20
127.7184231111566
 10
187.3704061616854
 20
105.7791168369662
 10
206.363816727765
 20
116.7601772758832
 10
187.3572341428173
 20
127.7184231111566
  0
LWPOLYLINE
  5
6C9
330
1D
100
AcDbEntity
  8
Layer_1
  6
Continuous
 62
     7
100
AcDbPolyline
 90
        4
 70
   129
 43
0.0
 10
189.3724855937805
 20
102.3162166149585
 10
208.3790681777427
 20
91.35797078025334
 10
208.3658961608447
 20
113.2972770544447
 10
189.3724855937805
 20
102.3162166149585
  0
LWPOLYLINE
  5
6CF
330
1D
100
AcDbEntity
  8
Layer_1
  6
Continuous
 62
     7
100
AcDbPolyline
 90
        4
 70
   129
 43
0.0
 10
212.3790674568198
 20
91.36037231771829
 10
231.3724780225884
 20
102.3414327564556
 10
212.3658954399227
 20
113.2996785904134
 10
212.3790674568198
 20
91.36037231771829
  0
LWPOLYLINE
  5
6D5
330
1D
100
AcDbEntity
  8
Layer_1
  6
Continuous
 62
     7
100
AcDbPolyline
 90
        4
 70
   129
 43
0.0
 10
233.3703978700891
 20
105.8067345157491
 10
233.357225853191
 20
127.7460407899407
 10
214.363815286127
 20
116.7649803504545
 10
233.3703978700891
 20
105.8067345157491
  0
LWPOLYLINE
  5
6E1
330
1D
100
AcDbEntity
  8
Layer_1
  6
Continuous
 62
     7
100
AcDbPolyline
 90
        4
 70
   129
 43
0.0
 10
232.9979205701087
 20
163.6456803750138
 10
232.984748553209
 20
185.5849866521986
 10
213.9913379835535
 20
174.6039262112141
 10
232.9979205701087
 20
163.6456803750138
  0
LWPOLYLINE
  5
6E7
330
1D
100
AcDbEntity
  8
Layer_1
  6
Continuous
 62
     7
100
AcDbPolyline
 90
        4
 70
   129
 43
0.0
 10
211.9934181363642
 20
171.1386244517412
 10
212.0065901552322
 20
149.1993181775507
 10
231.0000007213118
 20
160.1803786164678
 10
211.9934181363642
 20
171.1386244517412
  0
LWPOLYLINE
  5
6F3
330
1D
100
AcDbEntity
  8
Layer_1
  6
Continuous
 62
     7
100
AcDbPolyline
 90
        4
 70
   129
 43
0.0
 10
237.0152514503667
 20
134.7805736583029
 10
256.0086620161352
 20
145.7616340970401
 10
237.0020794334696
 20
156.7198799309979
 10
237.0152514503667
 20
134.7805736583029
  0
LWPOLYLINE
  5
6F9
330
1D
100
AcDbEntity
  8
Layer_1
  6
Continuous
 62
     7
100
AcDbPolyline
 90
        4
 70
   129
 43
0.0
 10
258.0065818636358
 20
149.2269358563337
 10
257.9934098467378
 20
171.1662421305253
 10
238.9999992796737
 20
160.185181691039
 10
258.0065818636358
 20
149.2269358563337
  0
LWPOLYLINE
  5
6FF
330
1D
100
AcDbEntity
  8
Layer_1
  6
Continuous
 62
     7
100
AcDbPolyline
 90
        4
 70
   129
 43
0.0
 10
255.9913304152645
 20
174.6291423528926
 10
236.9847478322863
 20
185.5873881893045
 10
236.997919849185
 20
163.6480819139755
 10
255.9913304152645
 20
174.6291423528926
  0
LWPOLYLINE
  5
705
330
1D
100
AcDbEntity
  8
Layer_1
  6
Continuous
 62
     7
100
AcDbPolyline
 90
        4
 70
   129
 43
0.0
 10
182.9979205701087
 20
163.6456803750138
 10
182.984748553209
 20
185.5849866521986
 10
163.9913379835536
 20
174.6039262112141
 10
182.9979205701087
 20
163.6456803750138
  0
LWPOLYLINE
  5
70B
330
1D
100
AcDbEntity
  8
Layer_1
  6
Continuous
 62
     7
100
AcDbPolyline
 90
        4
 70
   129
 43
0.0
 10
161.9934181363642
 20
171.1386244517412
 10
162.0065901552322
 20
149.1993181775507
 10
181.0000007213118
 20
160.1803786164678
 10
161.9934181363642
 20
171.1386244517412
  0
LWPOLYLINE
  5
711
330
1D
100
AcDbEntity
  8
Layer_1
  6
Continuous
 62
     7
100
AcDbPolyline
 90
        4
 70
   129
 43
0.0
 10
164.0086695873274
 20
145.7364179555431
 10
183.0152521712895
 20
134.7781721208379
 10
183.0020801543915
 20
156.7174783950293
 10
164.0086695873274
 20
145.7364179555431
  0
LWPOLYLINE
  5
71D
330
1D
100
AcDbEntity
  8
Layer_1
  6
Continuous
 62
     7
100
AcDbPolyline
 90
        4
 70
   129
 43
0.0
 10
208.0065818636358
 20
149.2269358563337
 10
207.9934098467378
 20
171.1662421305253
 10
188.9999992796737
 20
160.185181691039
 10
208.0065818636358
 20
149.2269358563337
  0
LWPOLYLINE
  5
723
330
1D
100
AcDbEntity
  8
Layer_1
  6
Continuous
 62
     7
100
AcDbPolyline
 90
        4
 70
   129
 43
0.0
 10
205.9913304152645
 20
174.6291423528926
 10
186.9847478322863
 20
185.5873881893045
 10
186.997919849185
 20
163.6480819139755
 10
205.9913304152645
 20
174.6291423528926
  0
LWPOLYLINE
  5
729
330
1D
100
AcDbEntity
  8
Layer_1
  6
Continuous
 62
     7
100
AcDbPolyline
 90
        4
 70
   129
 43
0.0
 10
189.3724855937805
 20
189.0162166149585
 10
208.3790681777427
 20
178.0579707802533
 10
208.3658961608447
 20
199.9972770544447
 10
189.3724855937805
 20
189.0162166149585
  0
LWPOLYLINE
  5
72F
330
1D
100
AcDbEntity
  8
Layer_1
  6
Continuous
 62
     7
100
AcDbPolyline
 90
        4
 70
   129
 43
0.0
 10
212.3790674568198
 20
178.0603723177183
 10
231.3724780225884
 20
189.0414327564556
 10
212.3658954399227
 20
199.9996785904134
 10
212.3790674568198
 20
178.0603723177183
  0
LWPOLYLINE
  5
749
330
1D
100
AcDbEntity
  8
Layer_1
  6
Continuous
 62
     7
100
AcDbPolyline
 90
        4
 70
   129
 43
0.0
 10
307.9979205701087
 20
199.999678594544
 10
307.984748553209
 20
178.0603723173592
 10
288.9913379835535
 20
189.0414327583437
 10
307.9979205701087
 20
199.999678594544
  0
LWPOLYLINE
  5
74F
330
1D
100
AcDbEntity
  8
Layer_1
  6
Continuous
 62
     7
100
AcDbPolyline
 90
        4
 70
   129
 43
0.0
 10
286.9934181363642
 20
192.5067345178166
 10
287.0065901552322
 20
214.4460407920071
 10
306.0000007213118
 20
203.46498035309
 10
286.9934181363642
 20
192.5067345178166
  0
LWPOLYLINE
  5
755
330
1D
100
AcDbEntity
  8
Layer_1
  6
Continuous
 62
     7
100
AcDbPolyline
 90
        4
 70
   129
 43
0.0
 10
289.0086695873274
 20
217.9089410140147
 10
308.0152521712895
 20
228.8671868487199
 10
308.0020801543915
 20
206.9278805745285
 10
289.0086695873274
 20
217.9089410140147
  0
LWPOLYLINE
  5
75B
330
1D
100
AcDbEntity
  8
Layer_1
  6
Continuous
 62
     7
100
AcDbPolyline
 90
        4
 70
   129
 43
0.0
 10
257.9979205701087
 20
199.999678594544
 10
257.984748553209
 20
178.0603723173592
 10
238.9913379835535
 20
189.0414327583437
 10
257.9979205701087
 20
199.999678594544
  0
LWPOLYLINE
  5
761
330
1D
100
AcDbEntity
  8
Layer_1
  6
Continuous
 62
     7
100
AcDbPolyline
 90
        4
 70
   129
 43
0.0
 10
236.9934181363642
 20
192.5067345178166
 10
237.0065901552322
 20
214.4460407920071
 10
256.0000007213118
 20
203.46498035309
 10
236.9934181363642
 20
192.5067345178166
  0
LWPOLYLINE
  5
767
330
1D
100
AcDbEntity
  8
Layer_1
  6
Continuous
 62
     7
100
AcDbPolyline
 90
        4
 70
   129
 43
0.0
 10
239.0086695873274
 20
217.9089410140147
 10
258.0152521712895
 20
228.8671868487199
 10
258.0020801543915
 20
206.9278805745285
 10
239.0086695873274
 20
217.9089410140147
  0
LWPOLYLINE
  5
76D
330
1D
100
AcDbEntity
  8
Layer_1
  6
Continuous
 62
     7
100
AcDbPolyline
 90
        4
 70
   129
 43
0.0
 10
262.0152514503667
 20
228.8647853112549
 10
281.0086620161352
 20
217.8837248725177
 10
262.0020794334696
 20
206.9254790385599
 10
262.0152514503667
 20
228.8647853112549
  0
LWPOLYLINE
  5
773
330
1D
100
AcDbEntity
  8
Layer_1
  6
Continuous
 62
     7
100
AcDbPolyline
 90
        4
 70
   129
 43
0.0
 10
283.0065818636358
 20
214.4184231132241
 10
282.9934098467378
 20
192.4791168390325
 10
263.9999992796737
 20
203.4601772785188
 10
283.0065818636358
 20
214.4184231132241
  0
LWPOLYLINE
  5
779
330
1D
100
AcDbEntity
  8
Layer_1
  6
Continuous
 62
     7
100
AcDbPolyline
 90
        4
 70
   129
 43
0.0
 10
280.9913304152645
 20
189.0162166166652
 10
261.9847478322863
 20
178.0579707802533
 10
261.997919849185
 20
199.9972770555823
 10
280.9913304152645
 20
189.0162166166652
  0
LWPOLYLINE
  5
77F
330
1D
100
AcDbEntity
  8
Layer_1
  6
Continuous
 62
     7
100
AcDbPolyline
 90
        4
 70
   129
 43
0.0
 10
283.361736576562
 20
156.7198799351285
 10
283.3485645596621
 20
134.7805736579438
 10
264.3551539900068
 20
145.7616340989283
 10
283.361736576562
 20
156.7198799351285
  0
LWPOLYLINE
  5
785
330
1D
100
AcDbEntity
  8
Layer_1
  6
Continuous
 62
     7
100
AcDbPolyline
 90
        4
 70
   129
 43
0.0
 10
262.3572341428173
 20
149.2269358584012
 10
262.3704061616854
 20
171.1662421325916
 10
281.363816727765
 20
160.1851816936746
 10
262.3572341428173
 20
149.2269358584012
  0
LWPOLYLINE
  5
78B
330
1D
100
AcDbEntity
  8
Layer_1
  6
Continuous
 62
     7
100
AcDbPolyline
 90
        4
 70
   129
 43
0.0
 10
264.3724855937805
 20
174.6291423545993
 10
283.3790681777427
 20
185.5873881893044
 10
283.3658961608447
 20
163.6480819151131
 10
264.3724855937805
 20
174.6291423545993
  0
LWPOLYLINE
  5
791
330
1D
100
AcDbEntity
  8
Layer_1
  6
Continuous
 62
     7
100
AcDbPolyline
 90
        4
 70
   129
 43
0.0
 10
287.3790674568198
 20
185.5849866518395
 10
306.3724780225884
 20
174.6039262131022
 10
287.3658954399227
 20
163.6456803791444
 10
287.3790674568198
 20
185.5849866518395
  0
LWPOLYLINE
  5
797
330
1D
100
AcDbEntity
  8
Layer_1
  6
Continuous
 62
     7
100
AcDbPolyline
 90
        4
 70
   129
 43
0.0
 10
308.3703978700891
 20
171.1386244538087
 10
308.357225853191
 20
149.1993181796171
 10
289.363815286127
 20
160.1803786191033
 10
308.3703978700891
 20
171.1386244538087
  0
LWPOLYLINE
  5
79D
330
1D
100
AcDbEntity
  8
Layer_1
  6
Continuous
 62
     7
100
AcDbPolyline
 90
        4
 70
   129
 43
0.0
 10
306.3551464217178
 20
145.7364179572497
 10
287.3485638387396
 20
134.7781721208379
 10
287.3617358556381
 20
156.7174783961669
 10
306.3551464217178
 20
145.7364179572497
  0
LWPOLYLINE
  5
7A3
330
1D
100
AcDbEntity
  8
Layer_1
  6
Continuous
 62
     7
100
AcDbPolyline
 90
        4
 70
   129
 43
0.0
 10
307.9979205701087
 20
113.299678594544
 10
307.984748553209
 20
91.36037231735921
 10
288.9913379835535
 20
102.3414327583437
 10
307.9979205701087
 20
113.299678594544
  0
LWPOLYLINE
  5
7A9
330
1D
100
AcDbEntity
  8
Layer_1
  6
Continuous
 62
     7
100
AcDbPolyline
 90
        4
 70
   129
 43
0.0
 10
286.9934181363642
 20
105.8067345178166
 10
287.0065901552322
 20
127.7460407920071
 10
306.0000007213118
 20
116.76498035309
 10
286.9934181363642
 20
105.8067345178166
  0
LWPOLYLINE
  5
7AF
330
1D
100
AcDbEntity
  8
Layer_1
  6
Continuous
 62
     7
100
AcDbPolyline
 90
        4
 70
   129
 43
0.0
 10
289.0086695873274
 20
131.2089410140147
 10
308.0152521712895
 20
142.1671868487199
 10
308.0020801543915
 20
120.2278805745285
 10
289.0086695873274
 20
131.2089410140147
  0
LWPOLYLINE
  5
7B5
330
1D
100
AcDbEntity
  8
Layer_1
  6
Continuous
 62
     7
100
AcDbPolyline
 90
        4
 70
   129
 43
0.0
 10
257.9979205701087
 20
113.299678594544
 10
257.984748553209
 20
91.36037231735921
 10
238.9913379835535
 20
102.3414327583437
 10
257.9979205701087
 20
113.299678594544
  0
LWPOLYLINE
  5
7BB
330
1D
100
AcDbEntity
  8
Layer_1
  6
Continuous
 62
     7
100
AcDbPolyline
 90
        4
 70
   129
 43
0.0
 10
236.9934181363642
 20
105.8067345178166
 10
237.0065901552322
 20
127.7460407920071
 10
256.0000007213118
 20
116.76498035309
 10
236.9934181363642
 20
105.8067345178166
  0
LWPOLYLINE
  5
7C1
330
1D
100
AcDbEntity
  8
Layer_1
  6
Continuous
 62
     7
100
AcDbPolyline
 90
        4
 70
   129
 43
0.0
 10
239.0086695873274
 20
131.2089410140147
 10
258.0152521712895
 20
142.1671868487199
 10
258.0020801543915
 20
120.2278805745285
 10
239.0086695873274
 20
131.2089410140147
  0
LWPOLYLINE
  5
7C7
330
1D
100
AcDbEntity
  8
Layer_1
  6
Continuous
 62
     7
100
AcDbPolyline
 90
        4
 70
   129
 43
0.0
 10
262.0152514503667
 20
142.1647853112549
 10
281.0086620161352
 20
131.1837248725177
 10
262.0020794334696
 20
120.2254790385599
 10
262.0152514503667
 20
142.1647853112549
  0
LWPOLYLINE
  5
7CD
330
1D
100
AcDbEntity
  8
Layer_1
  6
Continuous
 62
     7
100
AcDbPolyline
 90
        4
 70
   129
 43
0.0
 10
283.0065818636358
 20
127.7184231132241
 10
282.9934098467378
 20
105.7791168390325
 10
263.9999992796737
 20
116.7601772785188
 10
283.0065818636358
 20
127.7184231132241
  0
LWPOLYLINE
  5
7D3
330
1D
100
AcDbEntity
  8
Layer_1
  6
Continuous
 62
     7
100
AcDbPolyline
 90
        4
 70
   129
 43
0.0
 10
280.9913304152645
 20
102.3162166166652
 10
261.9847478322863
 20
91.35797078025328
 10
261.997919849185
 20
113.2972770555823
 10
280.9913304152645
 20
102.3162166166652
  0
LWPOLYLINE
  5
7D9
330
1D
100
AcDbEntity
  8
Layer_1
  6
Continuous
 62
     7
100
AcDbPolyline
 90
        4
 70
   129
 43
0.0
 10
283.361736576562
 20
70.01987993512856
 10
283.3485645596621
 20
48.08057365794377
 10
264.3551539900068
 20
59.06163409892827
 10
283.361736576562
 20
70.01987993512856
  0
LWPOLYLINE
  5
7DF
330
1D
100
AcDbEntity
  8
Layer_1
  6
Continuous
 62
     7
100
AcDbPolyline
 90
        4
 70
   129
 43
0.0
 10
262.3572341428173
 20
62.52693585840117
 10
262.3704061616854
 20
84.46624213259165
 10
281.363816727765
 20
73.48518169367458
 10
262.3572341428173
 20
62.52693585840117
  0
LWPOLYLINE
  5
7E5
330
1D
100
AcDbEntity
  8
Layer_1
  6
Continuous
 62
     7
100
AcDbPolyline
 90
        4
 70
   129
 43
0.0
 10
264.3724855937805
 20
87.92914235459926
 10
283.3790681777427
 20
98.88738818930446
 10
283.3658961608447
 20
76.94808191511305
 10
264.3724855937805
 20
87.92914235459926
  0
LWPOLYLINE
  5
7EB
330
1D
100
AcDbEntity
  8
Layer_1
  6
Continuous
 62
     7
100
AcDbPolyline
 90
        4
 70
   129
 43
0.0
 10
287.3790674568198
 20
98.88498665183948
 10
306.3724780225884
 20
87.90392621310221
 10
287.3658954399227
 20
76.94568037914442
 10
287.3790674568198
 20
98.88498665183948
  0
LWPOLYLINE
  5
7F1
330
1D
100
AcDbEntity
  8
Layer_1
  6
Continuous
 62
     7
100
AcDbPolyline
 90
        4
 70
   129
 43
0.0
 10
308.3703978700891
 20
84.43862445380864
 10
308.357225853191
 20
62.49931817961709
 10
289.363815286127
 20
73.48037861910333
 10
308.3703978700891
 20
84.43862445380864
  0
LWPOLYLINE
  5
7F7
330
1D
100
AcDbEntity
  8
Layer_1
  6
Continuous
 62
     7
100
AcDbPolyline
 90
        4
 70
   129
 43
0.0
 10
306.3551464217178
 20
59.03641795724971
 10
287.3485638387396
 20
48.07817212083785
 10
287.3617358556381
 20
70.01747839616687
 10
306.3551464217178
 20
59.03641795724971
  0
LWPOLYLINE
  5
7FD
330
1D
100
AcDbEntity
  8
Layer_1
  6
Continuous
 62
     7
100
AcDbPolyline
 90
        4
 70
   129
 43
0.0
 10
300.927037232248
 20
37.61832413471453
 10
289.0086695873274
 20
44.50894101401471
 10
308.0152521712895
 20
55.4671868487199
 10
308.0045359928309
 20
37.61832413376126
  0
LWPOLYLINE
  5
803
330
1D
100
AcDbEntity
  8
Layer_1
  6
Continuous
 62
     7
100
AcDbPolyline
 90
        4
 70
   129
 43
0.0
 10
250.9270372205997
 20
37.61832414144902
 10
239.0086695873274
 20
44.50894101401471
 10
258.0152521712895
 20
55.4671868487199
 10
258.0045359928349
 20
37.61832414049575
  0
LWPOLYLINE
  5
809
330
1D
100
AcDbEntity
  8
Layer_1
  6
Continuous
 62
     7
100
AcDbPolyline
 90
        4
 70
   129
 43
0.0
 10
262.0045367137574
 20
37.61832413995699
 10
262.0152514503667
 20
55.46478531125493
 10
281.0086620161352
 20
44.48372487251766
 10
269.1009344489808
 20
37.61832413900118
  0
LWPOLYLINE
  5
823
330
1D
100
AcDbEntity
  8
Layer_1
  6
Continuous
 62
     7
100
AcDbPolyline
 90
        4
 70
   129
 43
0.0
 10
169.1009344723421
 20
37.61832415247016
 10
162.0045367137655
 20
37.61832415342597
 10
162.0152514503667
 20
55.46478531125493
 10
181.0086620161352
 20
44.48372487251766
  0
LWPOLYLINE
  5
82F
330
1D
100
AcDbEntity
  8
Layer_1
  6
Continuous
 62
     7
100
AcDbPolyline
 90
        4
 70
   129
 43
0.0
 10
114.724808420927
 20
232.2479179981086
 10
133.3550291050671
 20
232.2479179955994
 10
133.3485645596622
 20
221.4805736579438
 10
114.724808420927
 20
232.2479179981086
  0
LWPOLYLINE
  5
833
330
1D
100
AcDbEntity
  8
Layer_1
  6
Continuous
 62
     7
100
AcDbPolyline
 90
        4
 70
   128
 43
0.0
 10
156.3551464217178
 20
232.4364179572497
 10
137.3485638387396
 20
221.4781721208379
 10
137.3550298259895
 20
232.2479179950606
 10
156.0282017446661
 20
232.2479179925455
  0
LWPOLYLINE
  5
837
330
1D
100
AcDbEntity
  8
Layer_1
  6
Continuous
 62
     7
100
AcDbPolyline
 90
        4
 70
   128
 43
0.0
 10
164.3356142634277
 20
232.2479179914265
 10
183.0087861840432
 20
232.2479179889114
 10
183.0152521712895
 20
221.4781721208379
 10
164.0086695873274
 20
232.4364179555431
  0
LWPOLYLINE
  5
83B
330
1D
100
AcDbEntity
  8
Layer_1
  6
Continuous
 62
     7
100
AcDbPolyline
 90
        4
 70
   128
 43
0.0
 10
256.0086620161352
 20
232.4616340970401
 10
237.0152514503667
 20
221.4805736583029
 10
237.0087869049703
 20
232.2479179816383
 10
255.6390075556525
 20
232.2479179791289
  0
LWPOLYLINE
  5
83F
330
1D
100
AcDbEntity
  8
Layer_1
  6
Continuous
 62
     7
100
AcDbPolyline
 90
        4
 70
   128
 43
0.0
 10
264.7248084558719
 20
232.2479179779052
 10
283.3550291050549
 20
232.2479179753959
 10
283.3485645596621
 20
221.4805736579438
 10
264.3551539900068
 20
232.4616340989283
  0
LWPOLYLINE
  5
843
330
1D
100
AcDbEntity
  8
Layer_1
  6
Continuous
 62
     7
100
AcDbPolyline
 90
        4
 70
   128
 43
0.0
 10
306.3551464217178
 20
232.4364179572497
 10
287.3485638387396
 20
221.4781721208379
 10
287.3550298259773
 20
232.2479179748571
 10
306.028201709624
 20
232.247917972342
  0
LWPOLYLINE
  5
8A2
330
1D
100
AcDbEntity
  8
Layer_1
  6
Continuous
 62
     7
100
AcDbPolyline
 90
        6
 70
     1
 43
0.0
 10
230.0
 20
270.0
 10
230.0
 20
265.0
 10
230.0
 20
209.9999999999999
 10
190.0
 20
209.9999999999999
 10
190.0
 20
265.0
 10
190.0
 20
270.0
 42
-0.9999999999999999
  0
LWPOLYLINE
  5
8D9
330
1D
100
AcDbEntity
  8
Layer_1
  6
Continuous
 62
     7
100
AcDbPolyline
 90
       16
 70
     1
 43
0.0
 10
335.0
 20
259.9999999999999
 10
235.0
 20
259.9999999999999
 42
-0.414213562373095
 10
230.0
 20
264.9999999999999
 10
230.0
 20
270.0
 42
0.9999999999999999
 10
190.0
 20
270.0
 10
190.0
 20
264.9999999999999
 42
-0.414213562373095
 10
185.0
 20
259.9999999999999
 10
85.0
 20
259.9999999999999
 10
85.0
 20
206.1602540378443
 42
0.5773502690699017
 10
84.99999999688947
 20
188.8397459639514
 10
85.0
 20
81.16025403784438
 42
0.5773502690699012
 10
84.99999999688947
 20
63.83974596395149
 10
85.0
 20
10.0
 10
335.0
 20
10.0
 10
335.0
 20
126.3397459621555
 42
0.5773502691896262
 10
335.0000000031105
 20
143.6602540360485
  0
LWPOLYLINE
  5
91A
330
1D
100
AcDbEntity
  8
Layer_1
  6
Continuous
 62
     7
100
AcDbPolyline
 90
        5
 70
     0
 43
0.0
 10
200.0606363960875
 20
137.3731108651748
 42
0.3357061562119754
 10
208.3567034663114
 20
128.6086247149408
 10
208.361736576562
 20
120.2254790344292
 10
189.3551539900068
 20
131.1837248706295
 10
200.0606363961828
 20
137.3731108643136
  0
LWPOLYLINE
  5
91B
330
1D
100
AcDbEntity
  8
Layer_1
  6
Continuous
 62
     7
100
AcDbPolyline
 90
        5
 70
     0
 43
0.0
 10
204.3455197838014
 20
146.7205188069664
 42
0.1290798572060522
 10
201.0232856392051
 20
142.8793334631058
 10
187.0152514503667
 20
134.7805736583029
 10
187.0020794334696
 20
156.7198799309979
 10
204.3455197843133
 20
146.7205188073174
  0
LWPOLYLINE
  5
91C
330
1D
100
AcDbEntity
  8
Layer_1
  6
Continuous
 62
     7
100
AcDbPolyline
 90
        5
 70
     0
 43
0.0
 10
218.9816629345137
 20
142.8692384723039
 42
0.1285719170133184
 10
215.6802094262616
 20
146.7028204844103
 10
233.0020801543915
 20
156.7174783950293
 10
233.0152521712895
 20
134.7781721208379
 10
218.9816629345709
 20
142.869238472187
  0
LWPOLYLINE
  5
91D
330
1D
100
AcDbEntity
  8
Layer_1
  6
Continuous
 62
     7
100
AcDbPolyline
 90
        5
 70
     0
 43
0.0
 10
212.356616709441
 20
128.7543278917983
 42
0.3265606733976734
 10
219.9752816965403
 20
137.7700024076845
 10
231.3551464217178
 20
131.2089410123081
 10
212.3617358556381
 20
120.2278805733909
 10
212.3566167098112
 20
128.7543278918884
  0
ENDSEC
  0
SECTION
  2
OBJECTS
  0
DICTIONARY
  5
C
330
0
100
AcDbDictionary
281
     1
  3
ACAD_DETAILVIEWSTYLE
350
9D3
  3
ACAD_GROUP
350
D
  3
ACAD_IMAGE_VARS
350
88F
  3
ACAD_LAYOUT
350
1A
  3
ACAD_MATERIAL
350
32
  3
ACAD_MLEADERSTYLE
350
9D1
  3
ACAD_MLINESTYLE
350
17
  3
ACAD_PLOTSETTINGS
350
19
  3
ACAD_PLOTSTYLENAME
350
E
  3
ACAD_SCALELIST
350
84C
  3
ACAD_SECTIONVIEWSTYLE
350
9D4
  3
ACAD_TABLESTYLE
350
88B
  3
ACAD_VISUALSTYLE
350
872
  3
ACDB_RECOMPOSE_DATA
350
9CF
  3
AcDbVariableDictionary
350
9CA
  3
APPDATA
350
88D
  0
SUN
  5
88E
330
84B
100
AcDbSun
 90
        1
290
     0
 63
     7
421
 16777215
 40
1.0
291
     1
 91
  2455826
 92
 54000000
292
     0
 70
     2
 71
   256
280
     1
  0
DICTIONARY
  5
9D3
102
{ACAD_REACTORS
330
C
102
}
330
C
100
AcDbDictionary
281
     1
  0
DICTIONARY
  5
D
102
{ACAD_REACTORS
330
C
102
}
330
C
100
AcDbDictionary
281
     1
  0
RASTERVARIABLES
  5
88F
102
{ACAD_REACTORS
330
C
102
}
330
C
100
AcDbRasterVariables
 90
        0
 70
     1
 71
     1
 72
     0
  0
DICTIONARY
  5
1A
102
{ACAD_REACTORS
330
C
102
}
330
C
100
AcDbDictionary
281
     1
  3
Model
350
1E
  3
Sheet 1
350
1C
  0
DICTIONARY
  5
32
102
{ACAD_REACTORS
330
C
102
}
330
C
100
AcDbDictionary
281
     1
  3
ByBlock
350
34
  3
ByLayer
350
33
  3
Global
350
35
  0
DICTIONARY
  5
9D1
102
{ACAD_REACTORS
330
C
102
}
330
C
100
AcDbDictionary
281
     1
  0
DICTIONARY
  5
17
102
{ACAD_REACTORS
330
C
102
}
330
C
100
AcDbDictionary
281
     1
  3
Standard
350
18
  0
DICTIONARY
  5
19
102
{ACAD_REACTORS
330
C
102
}
330
C
100
AcDbDictionary
281
     1
  0
ACDBDICTIONARYWDFLT
  5
E
102
{ACAD_REACTORS
330
C
102
}
330
C
100
AcDbDictionary
281
     1
  3
Normal
350
F
100
AcDbDictionaryWithDefault
340
F
  0
DICTIONARY
  5
84C
102
{ACAD_REACTORS
330
C
102
}
330
C
100
AcDbDictionary
281
     1
  3
A0
350
84D
  3
A1
350
84E
  3
A2
350
84F
  3
A3
350
850
  3
A4
350
851
  3
A5
350
852
  3
A6
350
853
  3
A7
350
854
  3
A8
350
855
  3
A9
350
856
  3
B0
350
857
  3
B1
350
858
  3
B2
350
859
  3
B3
350
85A
  3
B4
350
85B
  3
B5
350
85C
  3
B6
350
85D
  3
B7
350
85E
  3
B8
350
85F
  3
B9
350
860
  3
C0
350
861
  3
C1
350
862
  3
C2
350
863
  3
C3
350
864
  3
C4
350
865
  3
C5
350
866
  3
C6
350
867
  3
C7
350
868
  3
C8
350
869
  3
C9
350
86A
  3
D0
350
86B
  3
D1
350
86C
  3
D2
350
86D
  0
DICTIONARY
  5
9D4
102
{ACAD_REACTORS
330
C
102
}
330
C
100
AcDbDictionary
281
     1
  0
DICTIONARY
  5
88B
102
{ACAD_REACTORS
330
C
102
}
330
C
100
AcDbDictionary
281
     1
  3
Standard
350
88C
  0
DICTIONARY
  5
872
102
{ACAD_REACTORS
330
C
102
}
330
C
100
AcDbDictionary
281
     1
  3
2dWireframe
350
877
  3
Basic
350
87A
  3
Brighten
350
87E
  3
ColorChange
350
882
  3
Conceptual
350
87C
  3
Dim
350
87D
  3
EdgeColorOff
350
885
  3
Facepattern
350
881
  3
Flat
350
873
  3
FlatWithEdges
350
874
  3
Gouraud
350
875
  3
GouraudWithEdges
350
876
  3
Hidden
350
879
  3
JitterOff
350
883
  3
Linepattern
350
880
  3
OverhangOff
350
884
  3
Realistic
350
87B
  3
Shaded
350
88A
  3
Shaded with edges
350
889
  3
Shades of Gray
350
886
  3
Sketchy
350
887
  3
Thicken
350
87F
  3
Wireframe
350
878
  3
X-Ray
350
888
  0
XRECORD
  5
9CF
102
{ACAD_REACTORS
330
C
102
}
330
C
100
AcDbXrecord
280
     1
 90
        1
330
88C
  0
DICTIONARY
  5
9CA
102
{ACAD_REACTORS
330
C
102
}
330
C
100
AcDbDictionary
281
     1
  3
CANNOSCALE
350
9CB
  3
CTABLESTYLE
350
9D0
  3
LIGHTINGUNITS
350
9CC
  3
MSLTSCALE
350
9D2
  0
DICTIONARY
  5
88D
102
{ACAD_REACTORS
330
C
102
}
330
C
100
AcDbDictionary
281
     1
  0
LAYOUT
  5
1E
102
{ACAD_REACTORS
330
1A
102
}
330
1A
100
AcDbPlotSettings
  1

  2
none_device
  4
Letter_(8.50_x_11.00_Inches)
  6

 40
6.35
 41
6.35
 42
6.35
 43
6.35
 44
215.9
 45
279.4
 46
0.0
 47
0.0
 48
0.0
 49
0.0
140
0.0
141
0.0
142
1.0
143
1.0
 70
  1712
 72
     0
 73
     0
 74
     0
  7

 75
     0
 76
     0
 77
     2
 78
   300
147
1.0
148
0.0
149
0.0
100
AcDbLayout
  1
Model
 70
     1
 71
     0
 10
0.0
 20
0.0
 11
12.0
 21
9.0
 12
0.0
 22
0.0
 32
0.0
 14
80.0
 24
-71.22480937432641
 34
0.0
 15
608.0
 25
292.0000000032401
 35
0.0
146
0.0
 13
0.0
 23
0.0
 33
0.0
 16
1.0
 26
0.0
 36
0.0
 17
0.0
 27
1.0
 37
0.0
 76
     0
330
1D
331
84B
  0
LAYOUT
  5
1C
102
{ACAD_REACTORS
330
1A
102
}
330
1A
100
AcDbPlotSettings
  1

  2
none_device
  4

  6

 40
0.0
 41
0.0
 42
0.0
 43
0.0
 44
0.0
 45
0.0
 46
0.0
 47
0.0
 48
0.0
 49
0.0
140
0.0
141
0.0
142
1.0
143
1.0
 70
   688
 72
     0
 73
     0
 74
     5
  7

 75
    16
 76
     0
 77
     2
 78
   300
147
1.0
148
0.0
149
0.0
100
AcDbLayout
  1
Sheet 1
 70
     1
 71
     1
 10
0.0
 20
0.0
 11
0.0
 21
0.0
 12
0.0
 22
0.0
 32
0.0
 14
1.000000000000000E+20
 24
1.000000000000000E+20
 34
1.000000000000000E+20
 15
-1.000000000000000E+20
 25
-1.000000000000000E+20
 35
-1.000000000000000E+20
146
0.0
 13
0.0
 23
0.0
 33
0.0
 16
1.0
 26
0.0
 36
0.0
 17
0.0
 27
1.0
 37
0.0
 76
     0
330
1B
  0
MATERIAL
  5
34
102
{ACAD_REACTORS
330
32
102
}
330
32
100
AcDbMaterial
  1
ByBlock
 72
     1
 94
      127
  0
MATERIAL
  5
33
102
{ACAD_REACTORS
330
32
102
}
330
32
100
AcDbMaterial
  1
ByLayer
 72
     1
 94
      127
  0
MATERIAL
  5
35
102
{ACAD_REACTORS
330
32
102
}
330
32
100
AcDbMaterial
  1
Global
 72
     1
 94
      127
  0
MLINESTYLE
  5
18
102
{ACAD_REACTORS
330
17
102
}
330
17
100
AcDbMlineStyle
  2
Standard
 70
     0
  3

 62
   256
 51
90.0
 52
90.0
 71
     2
 49
0.5
 62
   256
  6
BYLAYER
 49
-0.5
 62
   256
  6
BYLAYER
  0
ACDBPLACEHOLDER
  5
F
102
{ACAD_REACTORS
330
E
102
}
330
E
  0
SCALE
  5
84D
102
{ACAD_REACTORS
330
84C
102
}
330
84C
100
AcDbScale
 70
     0
300
1:1
140
1.0
141
1.0
290
     1
  0
SCALE
  5
84E
102
{ACAD_REACTORS
330
84C
102
}
330
84C
100
AcDbScale
 70
     0
300
1:2
140
1.0
141
2.0
290
     0
  0
SCALE
  5
84F
102
{ACAD_REACTORS
330
84C
102
}
330
84C
100
AcDbScale
 70
     0
300
1:4
140
1.0
141
4.0
290
     0
  0
SCALE
  5
850
102
{ACAD_REACTORS
330
84C
102
}
330
84C
100
AcDbScale
 70
     0
300
1:5
140
1.0
141
5.0
290
     0
  0
SCALE
  5
851
102
{ACAD_REACTORS
330
84C
102
}
330
84C
100
AcDbScale
 70
     0
300
1:8
140
1.0
141
8.0
290
     0
  0
SCALE
  5
852
102
{ACAD_REACTORS
330
84C
102
}
330
84C
100
AcDbScale
 70
     0
300
1:10
140
1.0
141
10.0
290
     0
  0
SCALE
  5
853
102
{ACAD_REACTORS
330
84C
102
}
330
84C
100
AcDbScale
 70
     0
300
1:16
140
1.0
141
16.0
290
     0
  0
SCALE
  5
854
102
{ACAD_REACTORS
330
84C
102
}
330
84C
100
AcDbScale
 70
     0
300
1:20
140
1.0
141
20.0
290
     0
  0
SCALE
  5
855
102
{ACAD_REACTORS
330
84C
102
}
330
84C
100
AcDbScale
 70
     0
300
1:30
140
1.0
141
30.0
290
     0
  0
SCALE
  5
856
102
{ACAD_REACTORS
330
84C
102
}
330
84C
100
AcDbScale
 70
     0
300
1:40
140
1.0
141
40.0
290
     0
  0
SCALE
  5
857
102
{ACAD_REACTORS
330
84C
102
}
330
84C
100
AcDbScale
 70
     0
300
1:50
140
1.0
141
50.0
290
     0
  0
SCALE
  5
858
102
{ACAD_REACTORS
330
84C
102
}
330
84C
100
AcDbScale
 70
     0
300
1:100
140
1.0
141
100.0
290
     0
  0
SCALE
  5
859
102
{ACAD_REACTORS
330
84C
102
}
330
84C
100
AcDbScale
 70
     0
300
2:1
140
2.0
141
1.0
290
     0
  0
SCALE
  5
85A
102
{ACAD_REACTORS
330
84C
102
}
330
84C
100
AcDbScale
 70
     0
300
4:1
140
4.0
141
1.0
290
     0
  0
SCALE
  5
85B
102
{ACAD_REACTORS
330
84C
102
}
330
84C
100
AcDbScale
 70
     0
300
8:1
140
8.0
141
1.0
290
     0
  0
SCALE
  5
85C
102
{ACAD_REACTORS
330
84C
102
}
330
84C
100
AcDbScale
 70
     0
300
10:1
140
10.0
141
1.0
290
     0
  0
SCALE
  5
85D
102
{ACAD_REACTORS
330
84C
102
}
330
84C
100
AcDbScale
 70
     0
300
100:1
140
100.0
141
1.0
290
     0
  0
SCALE
  5
85E
102
{ACAD_REACTORS
330
84C
102
}
330
84C
100
AcDbScale
 70
     0
300
1/128" = 1'-0"
140
0.0078125
141
12.0
290
     0
  0
SCALE
  5
85F
102
{ACAD_REACTORS
330
84C
102
}
330
84C
100
AcDbScale
 70
     0
300
1/64" = 1'-0"
140
0.015625
141
12.0
290
     0
  0
SCALE
  5
860
102
{ACAD_REACTORS
330
84C
102
}
330
84C
100
AcDbScale
 70
     0
300
1/32" = 1'-0"
140
0.03125
141
12.0
290
     0
  0
SCALE
  5
861
102
{ACAD_REACTORS
330
84C
102
}
330
84C
100
AcDbScale
 70
     0
300
1/16" = 1'-0"
140
0.0625
141
12.0
290
     0
  0
SCALE
  5
862
102
{ACAD_REACTORS
330
84C
102
}
330
84C
100
AcDbScale
 70
     0
300
3/32" = 1'-0"
140
0.09375
141
12.0
290
     0
  0
SCALE
  5
863
102
{ACAD_REACTORS
330
84C
102
}
330
84C
100
AcDbScale
 70
     0
300
1/8" = 1'-0"
140
0.125
141
12.0
290
     0
  0
SCALE
  5
864
102
{ACAD_REACTORS
330
84C
102
}
330
84C
100
AcDbScale
 70
     0
300
3/16" = 1'-0"
140
0.1875
141
12.0
290
     0
  0
SCALE
  5
865
102
{ACAD_REACTORS
330
84C
102
}
330
84C
100
AcDbScale
 70
     0
300
1/4" = 1'-0"
140
0.25
141
12.0
290
     0
  0
SCALE
  5
866
102
{ACAD_REACTORS
330
84C
102
}
330
84C
100
AcDbScale
 70
     0
300
3/8" = 1'-0"
140
0.375
141
12.0
290
     0
  0
SCALE
  5
867
102
{ACAD_REACTORS
330
84C
102
}
330
84C
100
AcDbScale
 70
     0
300
1/2" = 1'-0"
140
0.5
141
12.0
290
     0
  0
SCALE
  5
868
102
{ACAD_REACTORS
330
84C
102
}
330
84C
100
AcDbScale
 70
     0
300
3/4" = 1'-0"
140
0.75
141
12.0
290
     0
  0
SCALE
  5
869
102
{ACAD_REACTORS
330
84C
102
}
330
84C
100
AcDbScale
 70
     0
300
1" = 1'-0"
140
1.0
141
12.0
290
     0
  0
SCALE
  5
86A
102
{ACAD_REACTORS
330
84C
102
}
330
84C
100
AcDbScale
 70
     0
300
1-1/2" = 1'-0"
140
1.5
141
12.0
290
     0
  0
SCALE
  5
86B
102
{ACAD_REACTORS
330
84C
102
}
330
84C
100
AcDbScale
 70
     0
300
3" = 1'-0"
140
3.0
141
12.0
290
     0
  0
SCALE
  5
86C
102
{ACAD_REACTORS
330
84C
102
}
330
84C
100
AcDbScale
 70
     0
300
6" = 1'-0"
140
6.0
141
12.0
290
     0
  0
SCALE
  5
86D
102
{ACAD_REACTORS
330
84C
102
}
330
84C
100
AcDbScale
 70
     0
300
1'-0" = 1'-0"
140
12.0
141
12.0
290
     0
  0
TABLESTYLE
  5
88C
102
{ACAD_REACTORS
330
88B
102
}
102
{ACAD_XDICTIONARY
360
9CD
102
}
330
88B
100
AcDbTableStyle
  3
Standard
 70
     0
 71
     0
 40
0.06
 41
0.06
280
     0
281
     0
  7
STANDARD
140
0.18
170
     2
 62
     0
 63
   257
283
     0
 90
        4
 91
        0
  1

274
    -2
284
     1
 64
     0
275
    -2
285
     1
 65
     0
276
    -2
286
     1
 66
     0
277
    -2
287
     1
 67
     0
278
    -2
288
     1
 68
     0
279
    -2
289
     1
 69
     0
  7
STANDARD
140
0.25
170
     5
 62
     0
 63
   257
283
     0
 90
        4
 91
        0
  1

274
    -2
284
     1
 64
     0
275
    -2
285
     1
 65
     0
276
    -2
286
     1
 66
     0
277
    -2
287
     1
 67
     0
278
    -2
288
     1
 68
     0
279
    -2
289
     1
 69
     0
  7
STANDARD
140
0.18
170
     5
 62
     0
 63
   257
283
     0
 90
        4
 91
        0
  1

274
    -2
284
     1
 64
     0
275
    -2
285
     1
 65
     0
276
    -2
286
     1
 66
     0
277
    -2
287
     1
 67
     0
278
    -2
288
     1
 68
     0
279
    -2
289
     1
 69
     0
  0
VISUALSTYLE
  5
877
102
{ACAD_REACTORS
330
872
102
}
330
872
100
AcDbVisualStyle
  2
2dWireframe
 70
     4
 71
     0
 72
     2
 73
     0
 90
        0
 40
0.6
 41
30.0
 62
     5
 63
     7
421
 16777215
 74
     1
 91
        4
 64
     7
 65
   257
 75
     1
175
     1
 42
1.0
 92
        0
 66
   257
 43
1.0
 76
     1
 77
     6
 78
     2
 67
     7
 79
     5
170
     0
171
     0
290
     0
174
     0
 93
        1
 44
0.0
173
     0
291
     0
 45
0.0
  0
VISUALSTYLE
  5
87A
102
{ACAD_REACTORS
330
872
102
}
330
872
100
AcDbVisualStyle
  2
Basic
 70
     7
 71
     1
 72
     0
 73
     1
 90
        0
 40
0.6
 41
30.0
 62
     5
 63
     7
421
 16777215
 74
     0
 91
        4
 64
     7
 65
   257
 75
     1
175
     1
 42
1.0
 92
        8
 66
     7
 43
1.0
 76
     1
 77
     6
 78
     2
 67
     7
 79
     5
170
     0
171
     0
290
     0
174
     0
 93
        1
 44
0.0
173
     0
291
     1
 45
0.0
  0
VISUALSTYLE
  5
87E
102
{ACAD_REACTORS
330
872
102
}
330
872
100
AcDbVisualStyle
  2
Brighten
 70
    12
 71
     2
 72
     2
 73
     0
 90
        0
 40
0.6
 41
30.0
 62
     5
 63
     7
421
 16777215
 74
     1
 91
        4
 64
     7
 65
   257
 75
     1
175
     1
 42
1.0
 92
        8
 66
     7
 43
1.0
 76
     1
 77
     6
 78
     2
 67
     7
 79
     5
170
     0
171
     0
290
     0
174
     0
 93
        1
 44
50.0
173
     0
291
     1
 45
0.0
  0
VISUALSTYLE
  5
882
102
{ACAD_REACTORS
330
872
102
}
330
872
100
AcDbVisualStyle
  2
ColorChange
 70
    16
 71
     2
 72
     2
 73
     3
 90
        0
 40
0.6
 41
30.0
 62
     5
 63
     8
421
  8421504
 74
     1
 91
        4
 64
     7
 65
   257
 75
     1
175
     1
 42
1.0
 92
        8
 66
     8
424
  8421504
 43
1.0
 76
     1
 77
     6
 78
     2
 67
     7
 79
     5
170
     0
171
     0
290
     0
174
     0
 93
        1
 44
0.0
173
     0
291
     1
 45
0.0
  0
VISUALSTYLE
  5
87C
102
{ACAD_REACTORS
330
872
102
}
330
872
100
AcDbVisualStyle
  2
Conceptual
 70
     9
 71
     3
 72
     2
 73
     0
 90
        0
 40
0.6
 41
30.0
 62
     5
 63
     7
421
 16777215
 74
     2
 91
        2
 64
     7
 65
   257
 75
     1
175
     1
 42
179.0
 92
        8
 66
     7
 43
1.0
 76
     1
 77
     6
 78
     2
 67
     7
 79
     3
170
     0
171
     0
290
     0
174
     0
 93
        1
 44
0.0
173
     0
291
     0
 45
0.0
  0
VISUALSTYLE
  5
87D
102
{ACAD_REACTORS
330
872
102
}
330
872
100
AcDbVisualStyle
  2
Dim
 70
    11
 71
     2
 72
     2
 73
     0
 90
        0
 40
0.6
 41
30.0
 62
     5
 63
     7
421
 16777215
 74
     1
 91
        4
 64
     7
 65
   257
 75
     1
175
     1
 42
1.0
 92
        8
 66
     7
 43
1.0
 76
     1
 77
     6
 78
     2
 67
     7
 79
     5
170
     0
171
     0
290
     0
174
     0
 93
        1
 44
-50.0
173
     0
291
     1
 45
0.0
  0
VISUALSTYLE
  5
885
102
{ACAD_REACTORS
330
872
102
}
330
872
100
AcDbVisualStyle
  2
EdgeColorOff
 70
    22
 71
     2
 72
     2
 73
     0
 90
        0
 40
0.6
 41
30.0
 62
     5
 63
     7
421
 16777215
 74
     1
 91
        4
 64
     7
 65
   257
 75
     1
175
     1
 42
1.0
 92
        8
 66
     7
 43
1.0
 76
     1
 77
     6
 78
     2
 67
     7
 79
     5
170
     0
171
     0
290
     0
174
     0
 93
        1
 44
0.0
173
     0
291
     1
 45
0.0
  0
VISUALSTYLE
  5
881
102
{ACAD_REACTORS
330
872
102
}
330
872
100
AcDbVisualStyle
  2
Facepattern
 70
    15
 71
     2
 72
     2
 73
     0
 90
        0
 40
0.6
 41
30.0
 62
     5
 63
     7
421
 16777215
 74
     1
 91
        4
 64
     7
 65
   257
 75
     1
175
     1
 42
1.0
 92
        8
 66
     7
 43
1.0
 76
     1
 77
     6
 78
     2
 67
     7
 79
     5
170
     0
171
     0
290
     0
174
     0
 93
        1
 44
0.0
173
     0
291
     1
 45
0.0
  0
VISUALSTYLE
  5
873
102
{ACAD_REACTORS
330
872
102
}
330
872
100
AcDbVisualStyle
  2
Flat
 70
     0
 71
     2
 72
     1
 73
     1
 90
        2
 40
0.6
 41
30.0
 62
     5
 63
     7
421
 16777215
 74
     0
 91
        0
 64
     7
 65
   257
 75
     1
175
     1
 42
1.0
 92
        8
 66
     7
 43
1.0
 76
     1
 77
     6
 78
     2
 67
     7
 79
     5
170
     0
171
     0
290
     0
174
     0
 93
       13
 44
0.0
173
     0
291
     1
 45
0.0
  0
VISUALSTYLE
  5
874
102
{ACAD_REACTORS
330
872
102
}
330
872
100
AcDbVisualStyle
  2
FlatWithEdges
 70
     1
 71
     2
 72
     1
 73
     1
 90
        2
 40
0.6
 41
30.0
 62
     5
 63
     7
421
 16777215
 74
     1
 91
        0
 64
     7
 65
   257
 75
     1
175
     1
 42
1.0
 92
        0
 66
   257
 43
1.0
 76
     1
 77
     6
 78
     2
 67
     7
 79
     5
170
     0
171
     0
290
     0
174
     0
 93
       13
 44
0.0
173
     0
291
     1
 45
0.0
  0
VISUALSTYLE
  5
875
102
{ACAD_REACTORS
330
872
102
}
330
872
100
AcDbVisualStyle
  2
Gouraud
 70
     2
 71
     2
 72
     2
 73
     1
 90
        2
 40
0.6
 41
30.0
 62
     5
 63
     7
421
 16777215
 74
     0
 91
        0
 64
     7
 65
   257
 75
     1
175
     1
 42
1.0
 92
        0
 66
     7
 43
1.0
 76
     1
 77
     6
 78
     2
 67
     7
 79
     5
170
     0
171
     0
290
     0
174
     0
 93
       13
 44
0.0
173
     0
291
     1
 45
0.0
  0
VISUALSTYLE
  5
876
102
{ACAD_REACTORS
330
872
102
}
330
872
100
AcDbVisualStyle
  2
GouraudWithEdges
 70
     3
 71
     2
 72
     2
 73
     1
 90
        2
 40
0.6
 41
30.0
 62
     5
 63
     7
421
 16777215
 74
     1
 91
        0
 64
     7
 65
   257
 75
     1
175
     1
 42
1.0
 92
        0
 66
   257
 43
1.0
 76
     1
 77
     6
 78
     2
 67
     7
 79
     5
170
     0
171
     0
290
     0
174
     0
 93
       13
 44
0.0
173
     0
291
     1
 45
0.0
  0
VISUALSTYLE
  5
879
102
{ACAD_REACTORS
330
872
102
}
330
872
100
AcDbVisualStyle
  2
Hidden
 70
     6
 71
     1
 72
     2
 73
     2
 90
        0
 40
0.6
 41
30.0
 62
     5
 63
     7
421
 16777215
 74
     2
 91
        2
 64
     7
 65
   257
 75
     2
175
     1
 42
40.0
 92
        0
 66
   257
 43
1.0
 76
     1
 77
     6
 78
     2
 67
     7
 79
     3
170
     0
171
     0
290
     0
174
     0
 93
        1
 44
0.0
173
     0
291
     0
 45
0.0
  0
VISUALSTYLE
  5
883
102
{ACAD_REACTORS
330
872
102
}
330
872
100
AcDbVisualStyle
  2
JitterOff
 70
    20
 71
     2
 72
     2
 73
     0
 90
        0
 40
0.6
 41
30.0
 62
     5
 63
     7
421
 16777215
 74
     1
 91
        4
 64
     7
 65
   257
 75
     1
175
     1
 42
1.0
 92
       10
 66
     7
 43
1.0
 76
     1
 77
     6
 78
     2
 67
     7
 79
     5
170
     0
171
     0
290
     0
174
     0
 93
        1
 44
0.0
173
     0
291
     1
 45
0.0
  0
VISUALSTYLE
  5
880
102
{ACAD_REACTORS
330
872
102
}
330
872
100
AcDbVisualStyle
  2
Linepattern
 70
    14
 71
     2
 72
     2
 73
     0
 90
        0
 40
0.6
 41
30.0
 62
     5
 63
     7
421
 16777215
 74
     1
 91
        4
 64
     7
 65
   257
 75
     7
175
     7
 42
1.0
 92
        8
 66
     7
 43
1.0
 76
     1
 77
     6
 78
     2
 67
     7
 79
     5
170
     0
171
     0
290
     0
174
     0
 93
        1
 44
0.0
173
     0
291
     1
 45
0.0
  0
VISUALSTYLE
  5
884
102
{ACAD_REACTORS
330
872
102
}
330
872
100
AcDbVisualStyle
  2
OverhangOff
 70
    21
 71
     2
 72
     2
 73
     0
 90
        0
 40
0.6
 41
30.0
 62
     5
 63
     7
421
 16777215
 74
     1
 91
        4
 64
     7
 65
   257
 75
     1
175
     1
 42
1.0
 92
        9
 66
     7
 43
1.0
 76
     1
 77
     6
 78
     2
 67
     7
 79
     5
170
     0
171
     0
290
     0
174
     0
 93
        1
 44
0.0
173
     0
291
     1
 45
0.0
  0
VISUALSTYLE
  5
87B
102
{ACAD_REACTORS
330
872
102
}
330
872
100
AcDbVisualStyle
  2
Realistic
 70
     8
 71
     2
 72
     3
 73
     0
 90
        2
 40
0.6
 41
30.0
 62
     5
 63
     7
421
 16777215
 74
     0
 91
        0
 64
     7
 65
   257
 75
     1
175
     1
 42
1.0
 92
        8
 66
   257
 43
1.0
 76
     1
 77
     6
 78
     2
 67
     7
 79
     3
170
     0
171
     0
290
     0
174
     0
 93
       13
 44
0.0
173
     0
291
     0
 45
0.0
  0
VISUALSTYLE
  5
88A
102
{ACAD_REACTORS
330
872
102
}
330
872
100
AcDbVisualStyle
  2
Shaded
 70
    27
 71
     2
 72
     2
 73
     1
 90
        2
 40
0.6
 41
30.0
 62
     5
 63
     7
421
 16777215
 74
     0
 91
        4
 64
     7
 65
   257
 75
     1
175
     1
 42
1.0
 92
        8
 66
   257
 43
1.0
 76
     1
 77
     6
 78
     2
 67
     8
425
  7895160
 79
     3
170
     0
171
     0
290
     0
174
     0
 93
        5
 44
0.0
173
     0
291
     0
 45
0.0
  0
VISUALSTYLE
  5
889
102
{ACAD_REACTORS
330
872
102
}
330
872
100
AcDbVisualStyle
  2
Shaded with edges
 70
    26
 71
     2
 72
     2
 73
     1
 90
        2
 40
0.6
 41
30.0
 62
     5
 63
     7
421
 16777215
 74
     1
 91
       10
 64
     7
 65
   257
 75
     2
175
     1
 42
1.0
 92
        8
 66
   257
 43
1.0
 76
     1
 77
     6
 78
     2
 67
     7
 79
     3
170
     0
171
     0
290
     0
174
     0
 93
        5
 44
0.0
173
     0
291
     0
 45
0.0
  0
VISUALSTYLE
  5
886
102
{ACAD_REACTORS
330
872
102
}
330
872
100
AcDbVisualStyle
  2
Shades of Gray
 70
    23
 71
     2
 72
     2
 73
     3
 90
        0
 40
0.6
 41
30.0
 62
     5
 63
     7
421
 16777215
 74
     2
 91
        2
 64
     7
 65
     7
 75
     1
175
     1
 42
40.0
 92
        8
 66
     7
 43
1.0
 76
     1
 77
     6
 78
     2
 67
     7
 79
     3
170
     0
171
     0
290
     0
174
     0
 93
        1
 44
0.0
173
     0
291
     0
 45
0.0
  0
VISUALSTYLE
  5
887
102
{ACAD_REACTORS
330
872
102
}
330
872
100
AcDbVisualStyle
  2
Sketchy
 70
    24
 71
     1
 72
     2
 73
     2
 90
        0
 40
0.6
 41
30.0
 62
     5
 63
     7
421
 16777215
 74
     2
 91
        2
 64
     7
 65
     7
 75
     1
175
     1
 42
40.0
 92
       11
 66
     7
 43
1.0
 76
     1
 77
     6
 78
     2
 67
     7
 79
     6
170
     0
171
     0
290
     0
174
     0
 93
        1
 44
0.0
173
     0
291
     0
 45
0.0
  0
VISUALSTYLE
  5
87F
102
{ACAD_REACTORS
330
872
102
}
330
872
100
AcDbVisualStyle
  2
Thicken
 70
    13
 71
     2
 72
     2
 73
     0
 90
        0
 40
0.6
 41
30.0
 62
     5
 63
     7
421
 16777215
 74
     1
 91
        4
 64
     7
 65
   257
 75
     1
175
     1
 42
1.0
 92
       12
 66
     7
 43
1.0
 76
     1
 77
     6
 78
     2
 67
     7
 79
     5
170
     0
171
     0
290
     0
174
     0
 93
        1
 44
0.0
173
     0
291
     1
 45
0.0
  0
VISUALSTYLE
  5
878
102
{ACAD_REACTORS
330
872
102
}
330
872
100
AcDbVisualStyle
  2
Wireframe
 70
     5
 71
     0
 72
     2
 73
     0
 90
        0
 40
0.6
 41
30.0
 62
     5
 63
     7
421
 16777215
 74
     1
 91
        4
 64
     7
 65
   257
 75
     1
175
     1
 42
1.0
 92
        0
 66
   257
 43
1.0
 76
     1
 77
     6
 78
     2
 67
     7
 79
     3
170
     0
171
     0
290
     0
174
     0
 93
        1
 44
0.0
173
     0
291
     0
 45
0.0
  0
VISUALSTYLE
  5
888
102
{ACAD_REACTORS
330
872
102
}
330
872
100
AcDbVisualStyle
  2
X-Ray
 70
    25
 71
     2
 72
     2
 73
     1
 90
        1
 40
0.5
 41
30.0
 62
     5
 63
     7
421
 16777215
 74
     1
 91
        0
 64
     7
 65
   257
 75
     1
175
     1
 42
1.0
 92
        8
 66
     7
 43
1.0
 76
     1
 77
     6
 78
     2
 67
     7
 79
     3
170
     0
171
     0
290
     0
174
     0
 93
       13
 44
0.0
173
     0
291
     0
 45
0.0
  0
DICTIONARYVAR
  5
9CB
102
{ACAD_REACTORS
330
9CA
102
}
330
9CA
100
DictionaryVariables
280
     0
  1
1:1
  0
DICTIONARYVAR
  5
9D0
102
{ACAD_REACTORS
330
9CA
102
}
330
9CA
100
DictionaryVariables
280
     0
  1
Standard
  0
DICTIONARYVAR
  5
9CC
102
{ACAD_REACTORS
330
9CA
102
}
330
9CA
100
DictionaryVariables
280
     0
  1
0
  0
DICTIONARYVAR
  5
9D2
102
{ACAD_REACTORS
330
9CA
102
}
330
9CA
100
DictionaryVariables
280
     0
  1
0
  0
DICTIONARY
  5
9CD
330
88C
100
AcDbDictionary
280
     1
281
     1
  3
ACAD_ROUNDTRIP_2008_TABLESTYLE_CELLSTYLEMAP
360
9CE
  0
CELLSTYLEMAP
  5
9CE
102
{ACAD_REACTORS
330
9CD
102
}
330
9CD
100
AcDbCellStyleMap
 90
        3
300
CELLSTYLE
  1
TABLEFORMAT_BEGIN
 90
        5
170
     1
 91
        0
 92
        0
 62
   257
 93
        1
300
CONTENTFORMAT
  1
CONTENTFORMAT_BEGIN
 90
        0
 91
        0
 92
        4
 93
        0
300

 40
0.0
140
1.0
 94
        5
 62
     0
340
11
144
0.25
309
CONTENTFORMAT_END
171
     1
301
MARGIN
  1
CELLMARGIN_BEGIN
 40
0.06
 40
0.06
 40
0.06
 40
0.06
 40
0.06
 40
0.06
309
CELLMARGIN_END
 94
        6
 95
        1
302
GRIDFORMAT
  1
GRIDFORMAT_BEGIN
 90
        0
 91
        1
 62
     0
 92
       -2
340
14
 93
        0
 40
0.045
309
GRIDFORMAT_END
 95
        2
302
GRIDFORMAT
  1
GRIDFORMAT_BEGIN
 90
        0
 91
        1
 62
     0
 92
       -2
340
14
 93
        0
 40
0.045
309
GRIDFORMAT_END
 95
        4
302
GRIDFORMAT
  1
GRIDFORMAT_BEGIN
 90
        0
 91
        1
 62
     0
 92
       -2
340
14
 93
        0
 40
0.045
309
GRIDFORMAT_END
 95
        8
302
GRIDFORMAT
  1
GRIDFORMAT_BEGIN
 90
        0
 91
        1
 62
     0
 92
       -2
340
14
 93
        0
 40
0.045
309
GRIDFORMAT_END
 95
       16
302
GRIDFORMAT
  1
GRIDFORMAT_BEGIN
 90
        0
 91
        1
 62
     0
 92
       -2
340
14
 93
        0
 40
0.045
309
GRIDFORMAT_END
 95
       32
302
GRIDFORMAT
  1
GRIDFORMAT_BEGIN
 90
        0
 91
        1
 62
     0
 92
       -2
340
14
 93
        0
 40
0.045
309
GRIDFORMAT_END
309
TABLEFORMAT_END
  1
CELLSTYLE_BEGIN
 90
        1
 91
        1
300
_TITLE
309
CELLSTYLE_END
300
CELLSTYLE
  1
TABLEFORMAT_BEGIN
 90
        5
170
     1
 91
        0
 92
        0
 62
   257
 93
        1
300
CONTENTFORMAT
  1
CONTENTFORMAT_BEGIN
 90
        0
 91
        0
 92
        4
 93
        0
300

 40
0.0
140
1.0
 94
        5
 62
     0
340
11
144
0.18
309
CONTENTFORMAT_END
171
     1
301
MARGIN
  1
CELLMARGIN_BEGIN
 40
0.06
 40
0.06
 40
0.06
 40
0.06
 40
0.06
 40
0.06
309
CELLMARGIN_END
 94
        6
 95
        1
302
GRIDFORMAT
  1
GRIDFORMAT_BEGIN
 90
        0
 91
        1
 62
     0
 92
       -2
340
14
 93
        0
 40
0.045
309
GRIDFORMAT_END
 95
        2
302
GRIDFORMAT
  1
GRIDFORMAT_BEGIN
 90
        0
 91
        1
 62
     0
 92
       -2
340
14
 93
        0
 40
0.045
309
GRIDFORMAT_END
 95
        4
302
GRIDFORMAT
  1
GRIDFORMAT_BEGIN
 90
        0
 91
        1
 62
     0
 92
       -2
340
14
 93
        0
 40
0.045
309
GRIDFORMAT_END
 95
        8
302
GRIDFORMAT
  1
GRIDFORMAT_BEGIN
 90
        0
 91
        1
 62
     0
 92
       -2
340
14
 93
        0
 40
0.045
309
GRIDFORMAT_END
 95
       16
302
GRIDFORMAT
  1
GRIDFORMAT_BEGIN
 90
        0
 91
        1
 62
     0
 92
       -2
340
14
 93
        0
 40
0.045
309
GRIDFORMAT_END
 95
       32
302
GRIDFORMAT
  1
GRIDFORMAT_BEGIN
 90
        0
 91
        1
 62
     0
 92
       -2
340
14
 93
        0
 40
0.045
309
GRIDFORMAT_END
309
TABLEFORMAT_END
  1
CELLSTYLE_BEGIN
 90
        2
 91
        1
300
_HEADER
309
CELLSTYLE_END
300
CELLSTYLE
  1
TABLEFORMAT_BEGIN
 90
        5
170
     1
 91
        0
 92
        0
 62
   257
 93
        1
300
CONTENTFORMAT
  1
CONTENTFORMAT_BEGIN
 90
        0
 91
        0
 92
        4
 93
        0
300

 40
0.0
140
1.0
 94
        2
 62
     0
340
11
144
0.18
309
CONTENTFORMAT_END
171
     1
301
MARGIN
  1
CELLMARGIN_BEGIN
 40
0.06
 40
0.06
 40
0.06
 40
0.06
 40
0.06
 40
0.06
309
CELLMARGIN_END
 94
        6
 95
        1
302
GRIDFORMAT
  1
GRIDFORMAT_BEGIN
 90
        0
 91
        1
 62
     0
 92
       -2
340
14
 93
        0
 40
0.045
309
GRIDFORMAT_END
 95
        2
302
GRIDFORMAT
  1
GRIDFORMAT_BEGIN
 90
        0
 91
        1
 62
     0
 92
       -2
340
14
 93
        0
 40
0.045
309
GRIDFORMAT_END
 95
        4
302
GRIDFORMAT
  1
GRIDFORMAT_BEGIN
 90
        0
 91
        1
 62
     0
 92
       -2
340
14
 93
        0
 40
0.045
309
GRIDFORMAT_END
 95
        8
302
GRIDFORMAT
  1
GRIDFORMAT_BEGIN
 90
        0
 91
        1
 62
     0
 92
       -2
340
14
 93
        0
 40
0.045
309
GRIDFORMAT_END
 95
       16
302
GRIDFORMAT
  1
GRIDFORMAT_BEGIN
 90
        0
 91
        1
 62
     0
 92
       -2
340
14
 93
        0
 40
0.045
309
GRIDFORMAT_END
 95
       32
302
GRIDFORMAT
  1
GRIDFORMAT_BEGIN
 90
        0
 91
        1
 62
     0
 92
       -2
340
14
 93
        0
 40
0.045
309
GRIDFORMAT_END
309
TABLEFORMAT_END
  1
CELLSTYLE_BEGIN
 90
        3
 91
        2
300
_DATA
309
CELLSTYLE_END
  0
ENDSEC
  0
EOF
