  0
SECTION
  2
HEADER
  9
$ACADVER
  1
AC1015
  9
$ACADMAINTVER
 70
     6
  9
$DWGCODEPAGE
  3
ANSI_1252
  9
$INSBASE
 10
0.0
 20
0.0
 30
0.0
  9
$EXTMIN
 10
1.000000000000000E+20
 20
1.000000000000000E+20
 30
1.000000000000000E+20
  9
$EXTMAX
 10
-1.000000000000000E+20
 20
-1.000000000000000E+20
 30
-1.000000000000000E+20
  9
$LIMMIN
 10
0.0
 20
0.0
  9
$LIMMAX
 10
12.0
 20
9.0
  9
$ORTHOMODE
 70
     0
  9
$REGENMODE
 70
     1
  9
$FILLMODE
 70
     1
  9
$QTEXTMODE
 70
     0
  9
$MIRRTEXT
 70
     0
  9
$LTSCALE
 40
1.0
  9
$ATTMODE
 70
     1
  9
$TEXTSIZE
 40
0.2
  9
$TRACEWID
 40
0.05
  9
$TEXTSTYLE
  7
Standard
  9
$CLAYER
  8
0
  9
$CELTYPE
  6
ByLayer
  9
$CECOLOR
 62
   256
  9
$CELTSCALE
 40
1.0
  9
$DISPSILH
 70
     0
  9
$DIMSCALE
 40
1.0
  9
$DIMASZ
 40
0.18
  9
$DIMEXO
 40
0.0625
  9
$DIMDLI
 40
0.38
  9
$DIMRND
 40
0.0
  9
$DIMDLE
 40
0.0
  9
$DIMEXE
 40
0.18
  9
$DIMTP
 40
0.0
  9
$DIMTM
 40
0.0
  9
$DIMTXT
 40
5.0
  9
$DIMCEN
 40
0.09
  9
$DIMTSZ
 40
0.0
  9
$DIMTOL
 70
     0
  9
$DIMLIM
 70
     0
  9
$DIMTIH
 70
     1
  9
$DIMTOH
 70
     1
  9
$DIMSE1
 70
     0
  9
$DIMSE2
 70
     0
  9
$DIMTAD
 70
     0
  9
$DIMZIN
 70
     0
  9
$DIMBLK
  1

  9
$DIMASO
 70
     1
  9
$DIMSHO
 70
     1
  9
$DIMPOST
  1

  9
$DIMAPOST
  1

  9
$DIMALT
 70
     0
  9
$DIMALTD
 70
     2
  9
$DIMALTF
 40
25.4
  9
$DIMLFAC
 40
1.0
  9
$DIMTOFL
 70
     0
  9
$DIMTVP
 40
0.0
  9
$DIMTIX
 70
     0
  9
$DIMSOXD
 70
     0
  9
$DIMSAH
 70
     0
  9
$DIMBLK1
  1

  9
$DIMBLK2
  1

  9
$DIMSTYLE
  2
Standard
  9
$DIMCLRD
 70
     0
  9
$DIMCLRE
 70
     0
  9
$DIMCLRT
 70
     0
  9
$DIMTFAC
 40
1.0
  9
$DIMGAP
 40
0.09
  9
$DIMJUST
 70
     0
  9
$DIMSD1
 70
     0
  9
$DIMSD2
 70
     0
  9
$DIMTOLJ
 70
     1
  9
$DIMTZIN
 70
     0
  9
$DIMALTZ
 70
     0
  9
$DIMALTTZ
 70
     0
  9
$DIMUPT
 70
     0
  9
$DIMDEC
 70
     4
  9
$DIMTDEC
 70
     4
  9
$DIMALTU
 70
     2
  9
$DIMALTTD
 70
     2
  9
$DIMTXSTY
  7
Standard
  9
$DIMAUNIT
 70
     0
  9
$DIMADEC
 70
     0
  9
$DIMALTRND
 40
0.0
  9
$DIMAZIN
 70
     0
  9
$DIMDSEP
 70
    46
  9
$DIMATFIT
 70
     3
  9
$DIMFRAC
 70
     0
  9
$DIMLDRBLK
  1

  9
$DIMLUNIT
 70
     2
  9
$DIMLWD
 70
    -2
  9
$DIMLWE
 70
    -2
  9
$DIMTMOVE
 70
     0
  9
$LUNITS
 70
     2
  9
$LUPREC
 70
     4
  9
$SKETCHINC
 40
0.1
  9
$FILLETRAD
 40
0.0
  9
$AUNITS
 70
     0
  9
$AUPREC
 70
     0
  9
$MENU
  1
.
  9
$ELEVATION
 40
0.0
  9
$PELEVATION
 40
0.0
  9
$THICKNESS
 40
0.0
  9
$LIMCHECK
 70
     0
  9
$CHAMFERA
 40
0.0
  9
$CHAMFERB
 40
0.0
  9
$CHAMFERC
 40
0.0
  9
$CHAMFERD
 40
0.0
  9
$SKPOLY
 70
     0
  9
$TDCREATE
 40
2452643.063384271
  9
$TDUCREATE
 40
2452643.063384271
  9
$TDUPDATE
 40
2456742.751571458
  9
$TDUUPDATE
 40
2456742.751571458
  9
$TDINDWG
 40
0.0188690509
  9
$TDUSRTIMER
 40
2456742.732702454
  9
$USRTIMER
 70
     1
  9
$ANGBASE
 50
0.0
  9
$ANGDIR
 70
     0
  9
$PDMODE
 70
     0
  9
$PDSIZE
 40
0.0
  9
$PLINEWID
 40
0.0
  9
$SPLFRAME
 70
     0
  9
$SPLINETYPE
 70
     6
  9
$SPLINESEGS
 70
     8
  9
$HANDSEED
  5
352
  9
$SURFTAB1
 70
     6
  9
$SURFTAB2
 70
     6
  9
$SURFTYPE
 70
     6
  9
$SURFU
 70
     6
  9
$SURFV
 70
     6
  9
$UCSBASE
  2

  9
$UCSNAME
  2

  9
$UCSORG
 10
0.0
 20
0.0
 30
0.0
  9
$UCSXDIR
 10
1.0
 20
0.0
 30
0.0
  9
$UCSYDIR
 10
0.0
 20
1.0
 30
0.0
  9
$UCSORTHOREF
  2

  9
$UCSORTHOVIEW
 70
     0
  9
$UCSORGTOP
 10
0.0
 20
0.0
 30
0.0
  9
$UCSORGBOTTOM
 10
0.0
 20
0.0
 30
0.0
  9
$UCSORGLEFT
 10
0.0
 20
0.0
 30
0.0
  9
$UCSORGRIGHT
 10
0.0
 20
0.0
 30
0.0
  9
$UCSORGFRONT
 10
0.0
 20
0.0
 30
0.0
  9
$UCSORGBACK
 10
0.0
 20
0.0
 30
0.0
  9
$PUCSBASE
  2

  9
$PUCSNAME
  2

  9
$PUCSORG
 10
0.0
 20
0.0
 30
0.0
  9
$PUCSXDIR
 10
1.0
 20
0.0
 30
0.0
  9
$PUCSYDIR
 10
0.0
 20
1.0
 30
0.0
  9
$PUCSORTHOREF
  2

  9
$PUCSORTHOVIEW
 70
     0
  9
$PUCSORGTOP
 10
0.0
 20
0.0
 30
0.0
  9
$PUCSORGBOTTOM
 10
0.0
 20
0.0
 30
0.0
  9
$PUCSORGLEFT
 10
0.0
 20
0.0
 30
0.0
  9
$PUCSORGRIGHT
 10
0.0
 20
0.0
 30
0.0
  9
$PUCSORGFRONT
 10
0.0
 20
0.0
 30
0.0
  9
$PUCSORGBACK
 10
0.0
 20
0.0
 30
0.0
  9
$USERI1
 70
     0
  9
$USERI2
 70
     0
  9
$USERI3
 70
     0
  9
$USERI4
 70
     0
  9
$USERI5
 70
     0
  9
$USERR1
 40
0.0
  9
$USERR2
 40
0.0
  9
$USERR3
 40
0.0
  9
$USERR4
 40
0.0
  9
$USERR5
 40
0.0
  9
$WORLDVIEW
 70
     1
  9
$SHADEDGE
 70
     3
  9
$SHADEDIF
 70
    70
  9
$TILEMODE
 70
     1
  9
$MAXACTVP
 70
    64
  9
$PINSBASE
 10
0.0
 20
0.0
 30
0.0
  9
$PLIMCHECK
 70
     0
  9
$PEXTMIN
 10
0.0
 20
0.0
 30
0.0
  9
$PEXTMAX
 10
0.0
 20
0.0
 30
0.0
  9
$PLIMMIN
 10
0.0
 20
0.0
  9
$PLIMMAX
 10
0.0
 20
0.0
  9
$UNITMODE
 70
     0
  9
$VISRETAIN
 70
     1
  9
$PLINEGEN
 70
     0
  9
$PSLTSCALE
 70
     1
  9
$TREEDEPTH
 70
  3020
  9
$CMLSTYLE
  2
Standard
  9
$CMLJUST
 70
     0
  9
$CMLSCALE
 40
1.0
  9
$PROXYGRAPHICS
 70
     1
  9
$MEASUREMENT
 70
     0
  9
$CELWEIGHT
370
    -1
  9
$ENDCAPS
280
     0
  9
$JOINSTYLE
280
     0
  9
$LWDISPLAY
290
     0
  9
$INSUNITS
 70
     1
  9
$HYPERLINKBASE
  1

  9
$STYLESHEET
  1

  9
$XEDIT
290
     1
  9
$CEPSNTYPE
380
     0
  9
$PSTYLEMODE
290
     1
  9
$FINGERPRINTGUID
  2
{FDEAD576-A652-11D2-9A35-0060089B3A3F}
  9
$VERSIONGUID
  2
{FBC2AE19-5C5C-49EC-81BC-71B1A3362A02}
  9
$EXTNAMES
290
     1
  9
$PSVPSCALE
 40
0.0
  9
$OLESTARTUP
290
     0
  0
ENDSEC
  0
SECTION
  2
CLASSES
  0
CLASS
  1
ACDBDICTIONARYWDFLT
  2
AcDbDictionaryWithDefault
  3
ObjectDBX Classes
 90
        0
280
     0
281
     0
  0
CLASS
  1
ACDBPLACEHOLDER
  2
AcDbPlaceHolder
  3
ObjectDBX Classes
 90
        0
280
     0
281
     0
  0
CLASS
  1
LAYOUT
  2
AcDbLayout
  3
ObjectDBX Classes
 90
        0
280
     0
281
     0
  0
CLASS
  1
DICTIONARYVAR
  2
AcDbDictionaryVar
  3
ObjectDBX Classes
 90
        0
280
     0
281
     0
  0
CLASS
  1
TABLESTYLE
  2
AcDbTableStyle
  3
ObjectDBX Classes
 90
     4095
280
     0
281
     0
  0
CLASS
  1
MATERIAL
  2
AcDbMaterial
  3
ObjectDBX Classes
 90
     1153
280
     0
281
     0
  0
CLASS
  1
VISUALSTYLE
  2
AcDbVisualStyle
  3
ObjectDBX Classes
 90
     4095
280
     0
281
     0
  0
CLASS
  1
SCALE
  2
AcDbScale
  3
ObjectDBX Classes
 90
     1153
280
     0
281
     0
  0
CLASS
  1
CELLSTYLEMAP
  2
AcDbCellStyleMap
  3
ObjectDBX Classes
 90
     1152
280
     0
281
     0
  0
CLASS
  1
RASTERVARIABLES
  2
AcDbRasterVariables
  3
ISM
 90
        0
280
     0
281
     0
  0
CLASS
  1
SUN
  2
AcDbSun
  3
SCENEOE
 90
     1153
280
     0
281
     0
  0
CLASS
  1
DIMASSOC
  2
AcDbDimAssoc
  3
"AcDbDimAssoc|Product Desc:     AcDim ARX App For Dimension|Company:          Autodesk, Inc.|WEB Address:      www.autodesk.com"
 90
        0
280
     0
281
     0
  0
ENDSEC
  0
SECTION
  2
TABLES
  0
TABLE
  2
VPORT
  5
8
330
0
100
AcDbSymbolTable
 70
     1
  0
VPORT
  5
94
330
8
100
AcDbSymbolTableRecord
100
AcDbViewportTableRecord
  2
*Active
 70
     0
 10
0.0
 20
0.0
 11
1.0
 21
1.0
 12
165.478186387779
 22
136.5901802957659
 13
0.0
 23
0.0
 14
0.5
 24
0.5
 15
0.5
 25
0.5
 16
0.0
 26
0.0
 36
1.0
 17
-27.66959356597977
 27
-19.53870295786209
 37
0.0
 40
312.8012135026178
 41
1.969059405940594
 42
50.0
 43
0.0
 44
0.0
 50
0.0
 51
0.0
 71
    16
 72
  1000
 73
     1
 74
     3
 75
     0
 76
     0
 77
     0
 78
     0
281
     0
 65
     1
110
0.0
120
0.0
130
0.0
111
1.0
121
0.0
131
0.0
112
0.0
122
1.0
132
0.0
 79
     0
146
0.0
  0
ENDTAB
  0
TABLE
  2
LTYPE
  5
5
330
0
100
AcDbSymbolTable
 70
     1
  0
LTYPE
  5
14
330
5
100
AcDbSymbolTableRecord
100
AcDbLinetypeTableRecord
  2
ByBlock
 70
     0
  3

 72
    65
 73
     0
 40
0.0
  0
LTYPE
  5
15
330
5
100
AcDbSymbolTableRecord
100
AcDbLinetypeTableRecord
  2
ByLayer
 70
     0
  3

 72
    65
 73
     0
 40
0.0
  0
LTYPE
  5
16
330
5
100
AcDbSymbolTableRecord
100
AcDbLinetypeTableRecord
  2
Continuous
 70
     0
  3
Solid line
 72
    65
 73
     0
 40
0.0
  0
ENDTAB
  0
TABLE
  2
LAYER
  5
2
330
0
100
AcDbSymbolTable
 70
     2
  0
LAYER
  5
10
330
2
100
AcDbSymbolTableRecord
100
AcDbLayerTableRecord
  2
0
 70
     0
 62
     7
  6
Continuous
370
    -3
390
F
  0
LAYER
  5
1E2
330
2
100
AcDbSymbolTableRecord
100
AcDbLayerTableRecord
  2
Defpoints
 70
     0
 62
     7
  6
Continuous
290
     0
370
    -3
390
F
  0
ENDTAB
  0
TABLE
  2
STYLE
  5
3
330
0
100
AcDbSymbolTable
 70
     1
  0
STYLE
  5
11
330
3
100
AcDbSymbolTableRecord
100
AcDbTextStyleTableRecord
  2
Standard
 70
     0
 40
0.0
 41
1.0
 50
0.0
 71
     0
 42
0.2
  3
arial.ttf
  4

1001
ACAD
1000
Arial
1071
        0
  0
ENDTAB
  0
TABLE
  2
VIEW
  5
6
330
0
100
AcDbSymbolTable
 70
     0
  0
ENDTAB
  0
TABLE
  2
UCS
  5
7
330
0
100
AcDbSymbolTable
 70
     0
  0
ENDTAB
  0
TABLE
  2
APPID
  5
9
330
0
100
AcDbSymbolTable
 70
     1
  0
APPID
  5
12
330
9
100
AcDbSymbolTableRecord
100
AcDbRegAppTableRecord
  2
ACAD
 70
     0
  0
ENDTAB
  0
TABLE
  2
DIMSTYLE
  5
A
330
0
100
AcDbSymbolTable
 70
     2
100
AcDbDimStyleTable
  0
DIMSTYLE
105
27
330
A
100
AcDbSymbolTableRecord
100
AcDbDimStyleTableRecord
  2
Standard
 70
     0
140
5.0
178
     0
340
11
  0
DIMSTYLE
105
E1
330
A
100
AcDbSymbolTableRecord
100
AcDbDimStyleTableRecord
  2
Ansi1
 70
     0
178
     0
340
11
  0
ENDTAB
  0
TABLE
  2
BLOCK_RECORD
  5
1
330
0
100
AcDbSymbolTable
 70
     7
  0
BLOCK_RECORD
  5
1F
330
1
100
AcDbSymbolTableRecord
100
AcDbBlockTableRecord
  2
*Model_Space
340
22
  0
BLOCK_RECORD
  5
58
330
1
100
AcDbSymbolTableRecord
100
AcDbBlockTableRecord
  2
*Paper_Space
340
59
  0
BLOCK_RECORD
  5
5D
330
1
100
AcDbSymbolTableRecord
100
AcDbBlockTableRecord
  2
*Paper_Space0
340
5E
  0
BLOCK_RECORD
  5
31E
330
1
100
AcDbSymbolTableRecord
100
AcDbBlockTableRecord
  2
*D5
340
0
  0
BLOCK_RECORD
  5
32E
330
1
100
AcDbSymbolTableRecord
100
AcDbBlockTableRecord
  2
*D6
340
0
  0
ENDTAB
  0
ENDSEC
  0
SECTION
  2
BLOCKS
  0
BLOCK
  5
20
330
1F
100
AcDbEntity
  8
0
100
AcDbBlockBegin
  2
*Model_Space
 70
     0
 10
0.0
 20
0.0
 30
0.0
  3
*Model_Space
  1
*Model_Space
  0
ENDBLK
  5
21
330
1F
100
AcDbEntity
  8
0
100
AcDbBlockEnd
  0
BLOCK
  5
5A
330
58
100
AcDbEntity
 67
     1
  8
0
100
AcDbBlockBegin
  2
*Paper_Space
 70
     0
 10
0.0
 20
0.0
 30
0.0
  3
*Paper_Space
  1
*Paper_Space
  0
ENDBLK
  5
5B
330
58
100
AcDbEntity
 67
     1
  8
0
100
AcDbBlockEnd
  0
BLOCK
  5
5F
330
5D
100
AcDbEntity
  8
0
100
AcDbBlockBegin
  2
*Paper_Space0
 70
     0
 10
0.0
 20
0.0
 30
0.0
  3
*Paper_Space0
  1
*Paper_Space0
  0
ENDBLK
  5
60
330
5D
100
AcDbEntity
  8
0
100
AcDbBlockEnd
  0
BLOCK
  5
31F
330
31E
100
AcDbEntity
  8
0
100
AcDbBlockBegin
  2
*D5
 70
     1
 10
0.0
 20
0.0
 30
0.0
  3
*D5
  1
*D5
  0
LINE
  5
321
330
31E
100
AcDbEntity
  8
0
 62
     0
370
    -2
100
AcDbLine
 10
29.9375
 20
232.9903810567666
 30
0.0
 11
-32.12217580536548
 21
232.9903810567666
 31
0.0
  0
LINE
  5
322
330
31E
100
AcDbEntity
  8
0
 62
     0
370
    -2
100
AcDbLine
 10
-0.0625
 20
249.9999999999999
 30
0.0
 11
-32.12217580536548
 21
249.9999999999999
 31
0.0
  0
LINE
  5
323
330
31E
100
AcDbEntity
  8
0
 62
     0
370
    -2
100
AcDbLine
 10
-31.94217580536548
 20
233.1703810567666
 30
0.0
 11
-31.94217580536548
 21
238.8526905283832
 31
0.0
  0
LINE
  5
324
330
31E
100
AcDbEntity
  8
0
 62
     0
370
    -2
100
AcDbLine
 10
-31.94217580536548
 20
249.8199999999999
 30
0.0
 11
-31.94217580536548
 21
244.1376905283833
 31
0.0
  0
SOLID
  5
325
330
31E
100
AcDbEntity
  8
0
 62
     0
100
AcDbTrace
 10
-31.97217580536548
 20
233.1703810567666
 30
0.0
 11
-31.91217580536548
 21
233.1703810567666
 31
0.0
 12
-31.94217580536548
 22
232.9903810567666
 32
0.0
 13
-31.94217580536548
 23
232.9903810567666
 33
0.0
  0
SOLID
  5
326
330
31E
100
AcDbEntity
  8
0
 62
     0
100
AcDbTrace
 10
-31.91217580536548
 20
249.8199999999999
 30
0.0
 11
-31.97217580536548
 21
249.8199999999999
 31
0.0
 12
-31.94217580536548
 22
249.9999999999999
 32
0.0
 13
-31.94217580536548
 23
249.9999999999999
 33
0.0
  0
MTEXT
  5
327
330
31E
100
AcDbEntity
  8
0
 62
     0
100
AcDbMText
 10
-31.94217580536548
 20
241.4951905283833
 30
0.0
 40
5.0
 41
0.0
 71
     5
 72
     1
  1
\A1;17.0096
 73
     1
 44
1.0
  0
POINT
  5
328
330
31E
100
AcDbEntity
  8
Defpoints
 62
     0
100
AcDbPoint
 10
30.0
 20
232.9903810567666
 30
0.0
  0
POINT
  5
329
330
31E
100
AcDbEntity
  8
Defpoints
 62
     0
100
AcDbPoint
 10
0.0
 20
249.9999999999999
 30
0.0
  0
POINT
  5
32A
330
31E
100
AcDbEntity
  8
Defpoints
 62
     0
100
AcDbPoint
 10
-31.94217580536548
 20
249.9999999999999
 30
0.0
  0
ENDBLK
  5
320
330
31E
100
AcDbEntity
  8
0
100
AcDbBlockEnd
  0
BLOCK
  5
32F
330
32E
100
AcDbEntity
  8
0
100
AcDbBlockBegin
  2
*D6
 70
     1
 10
0.0
 20
0.0
 30
0.0
  3
*D6
  1
*D6
  0
LINE
  5
331
330
32E
100
AcDbEntity
  8
0
 62
     0
370
    -2
100
AcDbLine
 10
44.93750000000004
 20
17.00961894323338
 30
0.0
 11
-35.9934779526751
 21
17.00961894323338
 31
0.0
  0
LINE
  5
332
330
32E
100
AcDbEntity
  8
0
 62
     0
370
    -2
100
AcDbLine
 10
-0.0625
 20
0.0
 30
0.0
 11
-35.9934779526751
 21
0.0000000000000022
 31
0.0
  0
LINE
  5
333
330
32E
100
AcDbEntity
  8
0
 62
     0
370
    -2
100
AcDbLine
 10
-35.8134779526751
 20
16.82961894323338
 30
0.0
 11
-35.8134779526751
 21
11.14730947161669
 31
0.0
  0
LINE
  5
334
330
32E
100
AcDbEntity
  8
0
 62
     0
370
    -2
100
AcDbLine
 10
-35.8134779526751
 20
0.1800000000000022
 30
0.0
 11
-35.8134779526751
 21
5.862309471616694
 31
0.0
  0
SOLID
  5
335
330
32E
100
AcDbEntity
  8
0
 62
     0
100
AcDbTrace
 10
-35.7834779526751
 20
16.82961894323338
 30
0.0
 11
-35.8434779526751
 21
16.82961894323338
 31
0.0
 12
-35.8134779526751
 22
17.00961894323338
 32
0.0
 13
-35.8134779526751
 23
17.00961894323338
 33
0.0
  0
SOLID
  5
336
330
32E
100
AcDbEntity
  8
0
 62
     0
100
AcDbTrace
 10
-35.8434779526751
 20
0.1800000000000022
 30
0.0
 11
-35.7834779526751
 21
0.1800000000000022
 31
0.0
 12
-35.8134779526751
 22
0.0000000000000022
 32
0.0
 13
-35.8134779526751
 23
0.0000000000000022
 33
0.0
  0
MTEXT
  5
337
330
32E
100
AcDbEntity
  8
0
 62
     0
100
AcDbMText
 10
-35.8134779526751
 20
8.504809471616692
 30
0.0
 40
5.0
 41
0.0
 71
     5
 72
     1
  1
\A1;17.0096
 73
     1
 44
1.0
  0
POINT
  5
338
330
32E
100
AcDbEntity
  8
Defpoints
 62
     0
100
AcDbPoint
 10
45.00000000000004
 20
17.00961894323338
 30
0.0
  0
POINT
  5
339
330
32E
100
AcDbEntity
  8
Defpoints
 62
     0
100
AcDbPoint
 10
0.0
 20
0.0
 30
0.0
  0
POINT
  5
33A
330
32E
100
AcDbEntity
  8
Defpoints
 62
     0
100
AcDbPoint
 10
-35.8134779526751
 20
0.0000000000000022
 30
0.0
  0
ENDBLK
  5
330
330
32E
100
AcDbEntity
  8
0
100
AcDbBlockEnd
  0
ENDSEC
  0
SECTION
  2
ENTITIES
  0
LWPOLYLINE
  5
126
102
{ACAD_REACTORS
102
}
330
1F
100
AcDbEntity
  8
0
100
AcDbPolyline
 90
        4
 70
     0
 43
0.0
 10
0.0
 20
198.6602540378444
 10
0.0
 20
249.9999999999999
 10
250.0
 20
249.9999999999999
 10
250.0
 20
133.6602540378444
  0
CIRCLE
  5
127
330
1F
100
AcDbEntity
  8
0
100
AcDbCircle
 10
0.0
 20
0.0
 30
0.0
 40
0.0
  0
CIRCLE
  5
128
330
1F
100
AcDbEntity
  8
0
100
AcDbCircle
 10
5.0
 20
60.0
 30
0.0
 40
3.0
  0
CIRCLE
  5
14E
330
1F
100
AcDbEntity
  8
0
100
AcDbCircle
 10
5.0
 20
189.9999999999999
 30
0.0
 40
3.0
  0
CIRCLE
  5
19A
330
1F
100
AcDbEntity
  8
0
100
AcDbCircle
 10
245.0
 20
125.0
 30
0.0
 40
3.0
  0
LWPOLYLINE
  5
19B
330
1F
100
AcDbEntity
  8
0
100
AcDbPolyline
 90
        4
 70
     1
 43
0.0
 10
105.0
 20
199.9999999999999
 10
105.0
 20
249.9999999999999
 10
145.0
 20
249.9999999999999
 10
145.0
 20
199.9999999999999
  0
CIRCLE
  5
19C
330
1F
100
AcDbEntity
  8
0
100
AcDbCircle
 10
125.0
 20
128.4726794847789
 30
0.0
 40
3.0
  0
LWPOLYLINE
  5
19D
330
1F
100
AcDbEntity
  8
0
100
AcDbPolyline
 90
        3
 70
     1
 43
0.0
 10
30.00000000000004
 20
35.66987298107777
 10
45.00000000000004
 20
44.33012701892217
 10
30.00000000000004
 20
52.99038105676657
  0
LWPOLYLINE
  5
1C3
102
{ACAD_REACTORS
102
}
330
1F
100
AcDbEntity
  8
0
100
AcDbPolyline
 90
        3
 70
     1
 43
0.0
 10
45.00000000000004
 20
17.00961894323338
 10
30.00000000000004
 20
25.66987298107777
 10
45.00000000000004
 20
34.33012701892217
  0
LWPOLYLINE
  5
2B9
330
1F
100
AcDbEntity
  8
0
100
AcDbPolyline
 90
        3
 70
     1
 43
0.0
 10
70.00000000000003
 20
35.66987298107776
 10
55.00000000000003
 20
44.33012701892215
 10
70.00000000000001
 20
52.99038105676655
  0
LWPOLYLINE
  5
2BA
330
1F
100
AcDbEntity
  8
0
100
AcDbPolyline
 90
        3
 70
     1
 43
0.0
 10
55.00000000000004
 20
17.00961894323336
 10
70.00000000000004
 20
25.66987298107776
 10
55.00000000000003
 20
34.33012701892216
  0
LWPOLYLINE
  5
2BB
330
1F
100
AcDbEntity
  8
0
100
AcDbPolyline
 90
        3
 70
     1
 43
0.0
 10
80.00000000000004
 20
35.66987298107779
 10
95.00000000000004
 20
44.33012701892218
 10
80.00000000000004
 20
52.99038105676658
  0
LWPOLYLINE
  5
2BC
330
1F
100
AcDbEntity
  8
0
100
AcDbPolyline
 90
        3
 70
     1
 43
0.0
 10
95.00000000000004
 20
17.00961894323339
 10
80.00000000000004
 20
25.66987298107778
 10
95.00000000000004
 20
34.33012701892218
  0
LWPOLYLINE
  5
2BD
330
1F
100
AcDbEntity
  8
0
100
AcDbPolyline
 90
        3
 70
     1
 43
0.0
 10
220.0
 20
35.66987298107779
 10
205.0
 20
44.33012701892219
 10
220.0
 20
52.99038105676659
  0
LWPOLYLINE
  5
2BE
330
1F
100
AcDbEntity
  8
0
100
AcDbPolyline
 90
        3
 70
     1
 43
0.0
 10
205.0
 20
17.0096189432334
 10
220.0
 20
25.66987298107779
 10
205.0
 20
34.33012701892218
  0
LWPOLYLINE
  5
2BF
330
1F
100
AcDbEntity
  8
0
100
AcDbPolyline
 90
        3
 70
     1
 43
0.0
 10
130.0000000000001
 20
35.6698729810778
 10
145.0000000000001
 20
44.33012701892219
 10
130.0000000000001
 20
52.99038105676659
  0
LWPOLYLINE
  5
2C0
330
1F
100
AcDbEntity
  8
0
100
AcDbPolyline
 90
        3
 70
     1
 43
0.0
 10
145.0000000000001
 20
17.0096189432334
 10
130.0000000000001
 20
25.6698729810778
 10
145.0000000000001
 20
34.3301270189222
  0
LWPOLYLINE
  5
2C1
330
1F
100
AcDbEntity
  8
0
100
AcDbPolyline
 90
        3
 70
     1
 43
0.0
 10
170.0
 20
35.6698729810778
 10
155.0
 20
44.3301270189222
 10
170.0
 20
52.99038105676659
  0
LWPOLYLINE
  5
2C2
330
1F
100
AcDbEntity
  8
0
100
AcDbPolyline
 90
        3
 70
     1
 43
0.0
 10
155.0
 20
17.00961894323341
 10
170.0
 20
25.66987298107781
 10
155.0
 20
34.3301270189222
  0
LWPOLYLINE
  5
2C3
330
1F
100
AcDbEntity
  8
0
100
AcDbPolyline
 90
        3
 70
     1
 43
0.0
 10
180.0000000000001
 20
35.66987298107781
 10
195.0000000000001
 20
44.33012701892221
 10
180.0000000000001
 20
52.9903810567666
  0
LWPOLYLINE
  5
2C4
330
1F
100
AcDbEntity
  8
0
100
AcDbPolyline
 90
        3
 70
     1
 43
0.0
 10
195.0000000000001
 20
17.00961894323341
 10
180.0000000000001
 20
25.66987298107781
 10
195.0000000000001
 20
34.33012701892221
  0
LWPOLYLINE
  5
2C5
330
1F
100
AcDbEntity
  8
0
100
AcDbPolyline
 90
        3
 70
     1
 43
0.0
 10
120.0
 20
35.66987298107782
 10
105.0
 20
44.33012701892221
 10
120.0
 20
52.99038105676661
  0
LWPOLYLINE
  5
2C6
330
1F
100
AcDbEntity
  8
0
100
AcDbPolyline
 90
        3
 70
     1
 43
0.0
 10
105.0
 20
17.00961894323342
 10
120.0
 20
25.66987298107782
 10
105.0
 20
34.33012701892221
  0
LWPOLYLINE
  5
2C7
330
1F
100
AcDbEntity
  8
0
100
AcDbPolyline
 90
        3
 70
     1
 43
0.0
 10
30.00000000000004
 20
71.66987298107777
 10
45.00000000000004
 20
80.33012701892217
 10
30.00000000000004
 20
88.99038105676657
  0
LWPOLYLINE
  5
2C8
330
1F
100
AcDbEntity
  8
0
100
AcDbPolyline
 90
        3
 70
     1
 43
0.0
 10
45.00000000000004
 20
53.00961894323338
 10
30.00000000000004
 20
61.66987298107777
 10
45.00000000000004
 20
70.33012701892217
  0
LWPOLYLINE
  5
2C9
330
1F
100
AcDbEntity
  8
0
100
AcDbPolyline
 90
        3
 70
     1
 43
0.0
 10
70.00000000000001
 20
71.66987298107776
 10
55.00000000000001
 20
80.33012701892214
 10
70.00000000000001
 20
88.99038105676655
  0
LWPOLYLINE
  5
2CA
330
1F
100
AcDbEntity
  8
0
100
AcDbPolyline
 90
        3
 70
     1
 43
0.0
 10
55.00000000000003
 20
53.00961894323336
 10
70.00000000000003
 20
61.66987298107776
 10
55.00000000000001
 20
70.33012701892214
  0
LWPOLYLINE
  5
2CB
330
1F
100
AcDbEntity
  8
0
100
AcDbPolyline
 90
        3
 70
     1
 43
0.0
 10
80.00000000000004
 20
71.66987298107779
 10
95.00000000000004
 20
80.33012701892218
 10
80.00000000000004
 20
88.99038105676658
  0
LWPOLYLINE
  5
2CC
330
1F
100
AcDbEntity
  8
0
100
AcDbPolyline
 90
        3
 70
     1
 43
0.0
 10
95.00000000000004
 20
53.00961894323339
 10
80.00000000000004
 20
61.66987298107779
 10
95.00000000000004
 20
70.33012701892218
  0
LWPOLYLINE
  5
2CD
330
1F
100
AcDbEntity
  8
0
100
AcDbPolyline
 90
        3
 70
     1
 43
0.0
 10
220.0
 20
71.6698729810778
 10
205.0
 20
80.3301270189222
 10
220.0
 20
88.9903810567666
  0
LWPOLYLINE
  5
2CE
330
1F
100
AcDbEntity
  8
0
100
AcDbPolyline
 90
        3
 70
     1
 43
0.0
 10
205.0
 20
53.0096189432334
 10
220.0
 20
61.66987298107779
 10
205.0
 20
70.3301270189222
  0
LWPOLYLINE
  5
2CF
330
1F
100
AcDbEntity
  8
0
100
AcDbPolyline
 90
        3
 70
     1
 43
0.0
 10
130.0
 20
71.6698729810778
 10
145.0
 20
80.3301270189222
 10
130.0
 20
88.9903810567666
  0
LWPOLYLINE
  5
2D0
330
1F
100
AcDbEntity
  8
0
100
AcDbPolyline
 90
        3
 70
     1
 43
0.0
 10
145.0
 20
53.0096189432334
 10
130.0
 20
61.66987298107779
 10
145.0
 20
70.3301270189222
  0
LWPOLYLINE
  5
2D1
330
1F
100
AcDbEntity
  8
0
100
AcDbPolyline
 90
        3
 70
     1
 43
0.0
 10
170.0
 20
71.6698729810778
 10
155.0
 20
80.3301270189222
 10
170.0
 20
88.9903810567666
  0
LWPOLYLINE
  5
2D2
330
1F
100
AcDbEntity
  8
0
100
AcDbPolyline
 90
        3
 70
     1
 43
0.0
 10
155.0
 20
53.00961894323341
 10
170.0
 20
61.6698729810778
 10
155.0
 20
70.3301270189222
  0
LWPOLYLINE
  5
2D3
330
1F
100
AcDbEntity
  8
0
100
AcDbPolyline
 90
        3
 70
     1
 43
0.0
 10
180.0000000000001
 20
71.6698729810778
 10
195.0000000000001
 20
80.3301270189222
 10
180.0000000000001
 20
88.9903810567666
  0
LWPOLYLINE
  5
2D4
330
1F
100
AcDbEntity
  8
0
100
AcDbPolyline
 90
        3
 70
     1
 43
0.0
 10
195.0000000000001
 20
53.00961894323341
 10
180.0000000000001
 20
61.66987298107781
 10
195.0000000000001
 20
70.3301270189222
  0
LWPOLYLINE
  5
2D5
330
1F
100
AcDbEntity
  8
0
100
AcDbPolyline
 90
        3
 70
     1
 43
0.0
 10
120.0
 20
71.66987298107782
 10
105.0
 20
80.33012701892221
 10
120.0
 20
88.99038105676661
  0
LWPOLYLINE
  5
2D6
330
1F
100
AcDbEntity
  8
0
100
AcDbPolyline
 90
        3
 70
     1
 43
0.0
 10
105.0
 20
53.00961894323342
 10
120.0
 20
61.66987298107782
 10
105.0
 20
70.33012701892221
  0
LWPOLYLINE
  5
2D7
330
1F
100
AcDbEntity
  8
0
100
AcDbPolyline
 90
        3
 70
     1
 43
0.0
 10
30.00000000000002
 20
107.6698729810778
 10
45.00000000000003
 20
116.3301270189222
 10
30.00000000000002
 20
124.9903810567666
  0
LWPOLYLINE
  5
2D8
330
1F
100
AcDbEntity
  8
0
100
AcDbPolyline
 90
        3
 70
     1
 43
0.0
 10
45.00000000000003
 20
89.00961894323338
 10
30.00000000000002
 20
97.66987298107777
 10
45.00000000000003
 20
106.3301270189222
  0
LWPOLYLINE
  5
2D9
330
1F
100
AcDbEntity
  8
0
100
AcDbPolyline
 90
        3
 70
     1
 43
0.0
 10
70.00000000000001
 20
107.6698729810778
 10
55.00000000000001
 20
116.3301270189221
 10
70.00000000000001
 20
124.9903810567666
  0
LWPOLYLINE
  5
2DA
330
1F
100
AcDbEntity
  8
0
100
AcDbPolyline
 90
        3
 70
     1
 43
0.0
 10
55.00000000000003
 20
89.00961894323335
 10
70.00000000000001
 20
97.66987298107776
 10
55.00000000000001
 20
106.3301270189221
  0
LWPOLYLINE
  5
2DB
330
1F
100
AcDbEntity
  8
0
100
AcDbPolyline
 90
        3
 70
     1
 43
0.0
 10
80.00000000000003
 20
107.6698729810778
 10
95.00000000000003
 20
116.3301270189222
 10
80.00000000000003
 20
124.9903810567666
  0
LWPOLYLINE
  5
2DC
330
1F
100
AcDbEntity
  8
0
100
AcDbPolyline
 90
        3
 70
     1
 43
0.0
 10
95.00000000000003
 20
89.00961894323339
 10
80.00000000000003
 20
97.66987298107779
 10
95.00000000000003
 20
106.3301270189222
  0
LWPOLYLINE
  5
2DD
330
1F
100
AcDbEntity
  8
0
100
AcDbPolyline
 90
        3
 70
     1
 43
0.0
 10
220.0
 20
107.6698729810778
 10
205.0
 20
116.3301270189222
 10
220.0
 20
124.9903810567666
  0
LWPOLYLINE
  5
2DE
330
1F
100
AcDbEntity
  8
0
100
AcDbPolyline
 90
        3
 70
     1
 43
0.0
 10
205.0
 20
89.00961894323339
 10
220.0
 20
97.66987298107779
 10
205.0
 20
106.3301270189222
  0
LWPOLYLINE
  5
2DF
330
1F
100
AcDbEntity
  8
0
100
AcDbPolyline
 90
        4
 70
     0
 43
0.0
 10
130.0
 20
119.8124254469345
 10
130.0
 20
107.6698729810778
 10
145.0
 20
116.3301270189222
 10
133.3908484649544
 20
123.032673782744
  0
LWPOLYLINE
  5
2E0
330
1F
100
AcDbEntity
  8
0
100
AcDbPolyline
 90
        3
 70
     1
 43
0.0
 10
145.0
 20
89.0096189432334
 10
130.0
 20
97.6698729810778
 10
145.0
 20
106.3301270189222
  0
LWPOLYLINE
  5
2E1
330
1F
100
AcDbEntity
  8
0
100
AcDbPolyline
 90
        3
 70
     1
 43
0.0
 10
170.0
 20
107.6698729810778
 10
155.0
 20
116.3301270189222
 10
170.0
 20
124.9903810567666
  0
LWPOLYLINE
  5
2E2
330
1F
100
AcDbEntity
  8
0
100
AcDbPolyline
 90
        3
 70
     1
 43
0.0
 10
155.0
 20
89.0096189432334
 10
170.0
 20
97.6698729810778
 10
155.0
 20
106.3301270189222
  0
LWPOLYLINE
  5
2E3
330
1F
100
AcDbEntity
  8
0
100
AcDbPolyline
 90
        3
 70
     1
 43
0.0
 10
180.0
 20
107.6698729810778
 10
195.0
 20
116.3301270189222
 10
180.0
 20
124.9903810567666
  0
LWPOLYLINE
  5
2E4
330
1F
100
AcDbEntity
  8
0
100
AcDbPolyline
 90
        3
 70
     1
 43
0.0
 10
195.0
 20
89.00961894323342
 10
180.0
 20
97.66987298107782
 10
195.0
 20
106.3301270189222
  0
LWPOLYLINE
  5
2E5
330
1F
100
AcDbEntity
  8
0
100
AcDbPolyline
 90
        4
 70
     0
 43
0.0
 10
120.0
 20
119.8124254469345
 10
120.0
 20
107.6698729810778
 10
105.0
 20
116.3301270189222
 10
116.6091515350456
 20
123.0326737827439
  0
LWPOLYLINE
  5
2E6
330
1F
100
AcDbEntity
  8
0
100
AcDbPolyline
 90
        3
 70
     1
 43
0.0
 10
105.0
 20
89.00961894323342
 10
120.0
 20
97.66987298107782
 10
105.0
 20
106.3301270189222
  0
LWPOLYLINE
  5
2E7
330
1F
100
AcDbEntity
  8
0
100
AcDbPolyline
 90
        3
 70
     1
 43
0.0
 10
30.00000000000002
 20
143.6698729810778
 10
45.00000000000001
 20
152.3301270189222
 10
30.00000000000002
 20
160.9903810567666
  0
LWPOLYLINE
  5
2E8
330
1F
100
AcDbEntity
  8
0
100
AcDbPolyline
 90
        3
 70
     1
 43
0.0
 10
45.00000000000001
 20
125.0096189432334
 10
30.00000000000002
 20
133.6698729810778
 10
45.00000000000001
 20
142.3301270189222
  0
LWPOLYLINE
  5
2E9
330
1F
100
AcDbEntity
  8
0
100
AcDbPolyline
 90
        3
 70
     1
 43
0.0
 10
70.00000000000001
 20
143.6698729810777
 10
55.00000000000001
 20
152.3301270189222
 10
70.00000000000001
 20
160.9903810567665
  0
LWPOLYLINE
  5
2EA
330
1F
100
AcDbEntity
  8
0
100
AcDbPolyline
 90
        3
 70
     1
 43
0.0
 10
55.00000000000003
 20
125.0096189432333
 10
70.00000000000001
 20
133.6698729810778
 10
55.00000000000001
 20
142.3301270189222
  0
LWPOLYLINE
  5
2EB
330
1F
100
AcDbEntity
  8
0
100
AcDbPolyline
 90
        3
 70
     1
 43
0.0
 10
80.00000000000001
 20
143.6698729810778
 10
95.00000000000001
 20
152.3301270189222
 10
80.00000000000001
 20
160.9903810567666
  0
LWPOLYLINE
  5
2EC
330
1F
100
AcDbEntity
  8
0
100
AcDbPolyline
 90
        3
 70
     1
 43
0.0
 10
95.00000000000001
 20
125.0096189432334
 10
80.00000000000001
 20
133.6698729810778
 10
95.00000000000001
 20
142.3301270189222
  0
LWPOLYLINE
  5
2ED
330
1F
100
AcDbEntity
  8
0
100
AcDbPolyline
 90
        3
 70
     1
 43
0.0
 10
220.0
 20
143.6698729810778
 10
205.0
 20
152.3301270189222
 10
220.0
 20
160.9903810567666
  0
LWPOLYLINE
  5
2EE
330
1F
100
AcDbEntity
  8
0
100
AcDbPolyline
 90
        3
 70
     1
 43
0.0
 10
205.0
 20
125.0096189432334
 10
220.0
 20
133.6698729810778
 10
205.0
 20
142.3301270189222
  0
LWPOLYLINE
  5
2EF
330
1F
100
AcDbEntity
  8
0
100
AcDbPolyline
 90
        3
 70
     1
 43
0.0
 10
130.0
 20
143.6698729810778
 10
145.0
 20
152.3301270189222
 10
130.0
 20
160.9903810567666
  0
LWPOLYLINE
  5
2F0
330
1F
100
AcDbEntity
  8
0
100
AcDbPolyline
 90
        4
 70
     0
 43
0.0
 10
132.4846711575347
 20
135.1043985427281
 10
145.0
 20
142.3301270189222
 10
145.0
 20
125.0096189432334
 10
134.6843437976867
 20
130.9653658285066
  0
LWPOLYLINE
  5
2F1
330
1F
100
AcDbEntity
  8
0
100
AcDbPolyline
 90
        3
 70
     1
 43
0.0
 10
170.0
 20
143.6698729810778
 10
155.0
 20
152.3301270189222
 10
170.0
 20
160.9903810567666
  0
LWPOLYLINE
  5
2F2
330
1F
100
AcDbEntity
  8
0
100
AcDbPolyline
 90
        3
 70
     1
 43
0.0
 10
155.0
 20
125.0096189432334
 10
170.0
 20
133.6698729810778
 10
155.0
 20
142.3301270189222
  0
LWPOLYLINE
  5
2F3
330
1F
100
AcDbEntity
  8
0
100
AcDbPolyline
 90
        3
 70
     1
 43
0.0
 10
180.0
 20
143.6698729810778
 10
195.0
 20
152.3301270189222
 10
180.0
 20
160.9903810567666
  0
LWPOLYLINE
  5
2F4
330
1F
100
AcDbEntity
  8
0
100
AcDbPolyline
 90
        3
 70
     1
 43
0.0
 10
195.0
 20
125.0096189432334
 10
180.0
 20
133.6698729810778
 10
195.0
 20
142.3301270189222
  0
LWPOLYLINE
  5
2F5
330
1F
100
AcDbEntity
  8
0
100
AcDbPolyline
 90
        3
 70
     1
 43
0.0
 10
120.0
 20
143.6698729810778
 10
105.0
 20
152.3301270189222
 10
120.0
 20
160.9903810567666
  0
LWPOLYLINE
  5
2F6
330
1F
100
AcDbEntity
  8
0
100
AcDbPolyline
 90
        4
 70
     0
 43
0.0
 10
117.5153288424653
 20
135.1043985427282
 10
105.0
 20
142.3301270189222
 10
105.0
 20
125.0096189432334
 10
115.3156562023132
 20
130.9653658285066
  0
LWPOLYLINE
  5
2F7
330
1F
100
AcDbEntity
  8
0
100
AcDbPolyline
 90
        3
 70
     1
 43
0.0
 10
30.00000000000001
 20
179.6698729810778
 10
45.00000000000001
 20
188.3301270189222
 10
30.00000000000001
 20
196.9903810567666
  0
LWPOLYLINE
  5
2F8
330
1F
100
AcDbEntity
  8
0
100
AcDbPolyline
 90
        3
 70
     1
 43
0.0
 10
45.00000000000001
 20
161.0096189432334
 10
30.00000000000001
 20
169.6698729810778
 10
45.00000000000001
 20
178.3301270189222
  0
LWPOLYLINE
  5
2F9
330
1F
100
AcDbEntity
  8
0
100
AcDbPolyline
 90
        3
 70
     1
 43
0.0
 10
70.00000000000001
 20
179.6698729810777
 10
55.0
 20
188.3301270189222
 10
70.0
 20
196.9903810567665
  0
LWPOLYLINE
  5
2FA
330
1F
100
AcDbEntity
  8
0
100
AcDbPolyline
 90
        3
 70
     1
 43
0.0
 10
55.00000000000001
 20
161.0096189432334
 10
70.00000000000001
 20
169.6698729810777
 10
55.0
 20
178.3301270189222
  0
LWPOLYLINE
  5
2FB
330
1F
100
AcDbEntity
  8
0
100
AcDbPolyline
 90
        3
 70
     1
 43
0.0
 10
80.00000000000001
 20
179.6698729810778
 10
95.00000000000001
 20
188.3301270189222
 10
80.00000000000001
 20
196.9903810567666
  0
LWPOLYLINE
  5
2FC
330
1F
100
AcDbEntity
  8
0
100
AcDbPolyline
 90
        3
 70
     1
 43
0.0
 10
95.00000000000001
 20
161.0096189432334
 10
80.00000000000001
 20
169.6698729810778
 10
95.00000000000001
 20
178.3301270189222
  0
LWPOLYLINE
  5
2FD
330
1F
100
AcDbEntity
  8
0
100
AcDbPolyline
 90
        3
 70
     1
 43
0.0
 10
220.0
 20
179.6698729810778
 10
205.0
 20
188.3301270189222
 10
220.0
 20
196.9903810567666
  0
LWPOLYLINE
  5
2FE
330
1F
100
AcDbEntity
  8
0
100
AcDbPolyline
 90
        3
 70
     1
 43
0.0
 10
205.0
 20
161.0096189432334
 10
220.0
 20
169.6698729810778
 10
205.0
 20
178.3301270189222
  0
LWPOLYLINE
  5
300
330
1F
100
AcDbEntity
  8
0
100
AcDbPolyline
 90
        3
 70
     1
 43
0.0
 10
145.0
 20
161.0096189432334
 10
130.0
 20
169.6698729810778
 10
145.0
 20
178.3301270189222
  0
LWPOLYLINE
  5
301
330
1F
100
AcDbEntity
  8
0
100
AcDbPolyline
 90
        3
 70
     1
 43
0.0
 10
170.0
 20
179.6698729810778
 10
155.0
 20
188.3301270189222
 10
170.0
 20
196.9903810567666
  0
LWPOLYLINE
  5
302
330
1F
100
AcDbEntity
  8
0
100
AcDbPolyline
 90
        3
 70
     1
 43
0.0
 10
155.0
 20
161.0096189432334
 10
170.0
 20
169.6698729810778
 10
155.0
 20
178.3301270189222
  0
LWPOLYLINE
  5
303
330
1F
100
AcDbEntity
  8
0
100
AcDbPolyline
 90
        3
 70
     1
 43
0.0
 10
180.0
 20
179.6698729810778
 10
195.0
 20
188.3301270189222
 10
180.0
 20
196.9903810567666
  0
LWPOLYLINE
  5
304
330
1F
100
AcDbEntity
  8
0
100
AcDbPolyline
 90
        3
 70
     1
 43
0.0
 10
195.0
 20
161.0096189432334
 10
180.0
 20
169.6698729810778
 10
195.0
 20
178.3301270189222
  0
LWPOLYLINE
  5
306
330
1F
100
AcDbEntity
  8
0
100
AcDbPolyline
 90
        3
 70
     1
 43
0.0
 10
105.0
 20
161.0096189432334
 10
120.0
 20
169.6698729810778
 10
105.0
 20
178.3301270189222
  0
LWPOLYLINE
  5
307
102
{ACAD_REACTORS
102
}
330
1F
100
AcDbEntity
  8
0
100
AcDbPolyline
 90
        3
 70
     1
 43
0.0
 10
30.0
 20
215.6698729810778
 10
45.0
 20
224.3301270189222
 10
30.0
 20
232.9903810567666
  0
LWPOLYLINE
  5
308
330
1F
100
AcDbEntity
  8
0
100
AcDbPolyline
 90
        3
 70
     1
 43
0.0
 10
45.0
 20
197.0096189432334
 10
30.0
 20
205.6698729810778
 10
45.0
 20
214.3301270189222
  0
LWPOLYLINE
  5
309
330
1F
100
AcDbEntity
  8
0
100
AcDbPolyline
 90
        3
 70
     1
 43
0.0
 10
70.0
 20
215.6698729810777
 10
55.0
 20
224.3301270189222
 10
69.99999999999999
 20
232.9903810567665
  0
LWPOLYLINE
  5
30A
330
1F
100
AcDbEntity
  8
0
100
AcDbPolyline
 90
        3
 70
     1
 43
0.0
 10
55.00000000000001
 20
197.0096189432334
 10
70.00000000000001
 20
205.6698729810777
 10
55.0
 20
214.3301270189222
  0
LWPOLYLINE
  5
30B
330
1F
100
AcDbEntity
  8
0
100
AcDbPolyline
 90
        3
 70
     1
 43
0.0
 10
80.0
 20
215.6698729810778
 10
95.0
 20
224.3301270189222
 10
80.0
 20
232.9903810567666
  0
LWPOLYLINE
  5
30C
330
1F
100
AcDbEntity
  8
0
100
AcDbPolyline
 90
        3
 70
     1
 43
0.0
 10
95.0
 20
197.0096189432334
 10
80.0
 20
205.6698729810778
 10
95.0
 20
214.3301270189222
  0
LWPOLYLINE
  5
30D
330
1F
100
AcDbEntity
  8
0
100
AcDbPolyline
 90
        3
 70
     1
 43
0.0
 10
220.0
 20
215.6698729810778
 10
205.0
 20
224.3301270189222
 10
220.0
 20
232.9903810567666
  0
LWPOLYLINE
  5
30E
330
1F
100
AcDbEntity
  8
0
100
AcDbPolyline
 90
        3
 70
     1
 43
0.0
 10
205.0
 20
197.0096189432334
 10
220.0
 20
205.6698729810778
 10
205.0
 20
214.3301270189222
  0
LWPOLYLINE
  5
311
330
1F
100
AcDbEntity
  8
0
100
AcDbPolyline
 90
        3
 70
     1
 43
0.0
 10
170.0
 20
215.6698729810778
 10
155.0
 20
224.3301270189222
 10
170.0
 20
232.9903810567666
  0
LWPOLYLINE
  5
312
330
1F
100
AcDbEntity
  8
0
100
AcDbPolyline
 90
        3
 70
     1
 43
0.0
 10
155.0
 20
197.0096189432334
 10
170.0
 20
205.6698729810778
 10
155.0
 20
214.3301270189222
  0
LWPOLYLINE
  5
313
330
1F
100
AcDbEntity
  8
0
100
AcDbPolyline
 90
        3
 70
     1
 43
0.0
 10
180.0
 20
215.6698729810778
 10
195.0
 20
224.3301270189222
 10
180.0
 20
232.9903810567666
  0
LWPOLYLINE
  5
314
330
1F
100
AcDbEntity
  8
0
100
AcDbPolyline
 90
        3
 70
     1
 43
0.0
 10
195.0
 20
197.0096189432334
 10
180.0
 20
205.6698729810778
 10
195.0
 20
214.3301270189222
  0
ARC
  5
33D
330
1F
100
AcDbEntity
  8
0
100
AcDbCircle
 10
125.0
 20
128.4726794847789
 30
0.0
 40
10.0
100
AcDbArc
 50
212.9563925266011
 51
240.0000000000002
  0
ARC
  5
33E
330
1F
100
AcDbEntity
  8
0
100
AcDbCircle
 10
125.0
 20
128.4726794847789
 30
0.0
 40
10.0
100
AcDbArc
 50
138.4577686302398
 51
165.5657620328863
  0
ARC
  5
33F
330
1F
100
AcDbEntity
  8
0
100
AcDbCircle
 10
125.0
 20
128.4726794847789
 30
0.0
 40
10.0
100
AcDbArc
 50
14.43423796711376
 51
41.54223136975974
  0
ARC
  5
340
330
1F
100
AcDbEntity
  8
0
100
AcDbCircle
 10
125.0
 20
128.4726794847789
 30
0.0
 40
10.0
100
AcDbArc
 50
300.0000000000004
 51
327.043607473399
  0
LWPOLYLINE
  5
343
330
1F
100
AcDbEntity
  8
0
100
AcDbPolyline
 90
        3
 70
     1
 43
0.0
 10
130.0
 20
178.3301270189222
 10
145.0
 20
186.9903810567666
 10
130.0
 20
195.6506350946109
  0
LWPOLYLINE
  5
344
330
1F
100
AcDbEntity
  8
0
100
AcDbPolyline
 90
        3
 70
     1
 43
0.0
 10
120.0
 20
178.3301270189222
 10
105.0
 20
186.9903810567666
 10
120.0
 20
195.650635094611
  0
ARC
  5
345
330
1F
100
AcDbEntity
  8
0
100
AcDbCircle
 10
5.0
 20
189.9999999999999
 30
0.0
 40
10.0
100
AcDbArc
 50
120.0
 51
240.0
  0
ARC
  5
349
330
1F
100
AcDbEntity
  8
0
100
AcDbCircle
 10
5.0
 20
60.0
 30
0.0
 40
10.0
100
AcDbArc
 50
120.0
 51
240.0
  0
ARC
  5
34D
330
1F
100
AcDbEntity
  8
0
100
AcDbCircle
 10
245.0
 20
125.0
 30
0.0
 40
10.0
100
AcDbArc
 50
300.0
 51
60.00000000000004
  0
LWPOLYLINE
  5
34E
330
1F
100
AcDbEntity
  8
0
100
AcDbPolyline
 90
        2
 70
     0
 43
0.0
 10
0.0
 20
68.6602540378443
 10
0.0
 20
181.3397459621555
  0
LWPOLYLINE
  5
34F
330
1F
100
AcDbEntity
  8
0
100
AcDbPolyline
 90
        4
 70
     0
 43
0.0
 10
250.0
 20
116.3397459621555
 10
250.0
 20
0.0
 10
0.0
 20
0.0
 10
0.0
 20
51.33974596215563
  0
ENDSEC
  0
SECTION
  2
OBJECTS
  0
DICTIONARY
  5
C
330
0
100
AcDbDictionary
281
     1
  3
ACAD_DETAILVIEWSTYLE
350
124
  3
ACAD_GROUP
350
D
  3
ACAD_IMAGE_VARS
350
DC
  3
ACAD_LAYOUT
350
1A
  3
ACAD_MLINESTYLE
350
17
  3
ACAD_PLOTSETTINGS
350
19
  3
ACAD_PLOTSTYLENAME
350
E
  3
ACAD_SCALELIST
350
B6
  3
ACAD_SECTIONVIEWSTYLE
350
125
  3
AcDbVariableDictionary
350
66
  3
APPDATA
350
E3
  3
DWGPROPS
350
351
  0
DICTIONARY
  5
124
102
{ACAD_REACTORS
330
C
102
}
330
C
100
AcDbDictionary
281
     1
  0
DICTIONARY
  5
D
102
{ACAD_REACTORS
330
C
102
}
330
C
100
AcDbDictionary
281
     1
  0
RASTERVARIABLES
  5
DC
102
{ACAD_REACTORS
330
C
102
}
330
C
100
AcDbRasterVariables
 90
        0
 70
     1
 71
     1
 72
     5
  0
DICTIONARY
  5
1A
102
{ACAD_REACTORS
330
C
102
}
330
C
100
AcDbDictionary
281
     1
  3
Model
350
22
  3
Sheet1
350
59
  3
Sheet2
350
5E
  0
DICTIONARY
  5
17
102
{ACAD_REACTORS
330
C
102
}
330
C
100
AcDbDictionary
281
     1
  3
Standard
350
18
  0
DICTIONARY
  5
19
102
{ACAD_REACTORS
330
C
102
}
330
C
100
AcDbDictionary
281
     1
  0
ACDBDICTIONARYWDFLT
  5
E
102
{ACAD_REACTORS
330
C
102
}
330
C
100
AcDbDictionary
281
     1
  3
Normal
350
F
100
AcDbDictionaryWithDefault
340
F
  0
DICTIONARY
  5
B6
102
{ACAD_REACTORS
330
C
102
}
330
C
100
AcDbDictionary
281
     1
  3
A0
350
B7
  3
A1
350
B8
  3
A2
350
B9
  3
A3
350
BA
  3
A4
350
BB
  3
A5
350
BC
  3
A6
350
BD
  3
A7
350
BE
  3
A8
350
BF
  3
A9
350
C0
  3
B0
350
C1
  3
B1
350
C2
  3
B2
350
C3
  3
B3
350
C4
  3
B4
350
C5
  3
B5
350
C6
  3
B6
350
C7
  3
B7
350
C8
  3
B8
350
C9
  3
B9
350
CA
  3
C0
350
CB
  3
C1
350
CC
  3
C2
350
CD
  3
C3
350
CE
  3
C4
350
CF
  3
C5
350
D0
  3
C6
350
D1
  3
C7
350
D2
  3
C8
350
D3
  3
C9
350
D4
  3
D0
350
D5
  3
D1
350
D6
  3
D2
350
D7
  0
DICTIONARY
  5
125
102
{ACAD_REACTORS
330
C
102
}
330
C
100
AcDbDictionary
281
     1
  0
DICTIONARY
  5
66
102
{ACAD_REACTORS
330
C
102
}
330
C
100
AcDbDictionary
281
     1
  3
DIMASSOC
350
67
  3
HIDETEXT
350
6B
  0
DICTIONARY
  5
E3
102
{ACAD_REACTORS
330
C
102
}
330
C
100
AcDbDictionary
281
     1
  0
XRECORD
  5
351
102
{ACAD_REACTORS
330
C
102
}
330
C
100
AcDbXrecord
280
     1
  1
DWGPROPS COOKIE
  2

  3

  4

  6

  7

  8
DarkWing_2
  9

300
=
301
=
302
=
303
=
304
=
305
=
306
=
307
=
308
=
309
=
 40
0.0
 41
2452643.063384271
 42
2456742.751571458
  1

 90
        0
  0
LAYOUT
  5
22
102
{ACAD_REACTORS
330
1A
102
}
330
1A
100
AcDbPlotSettings
  1

  2
none_device
  4
ANSI_A_(8.50_x_11.00_Inches)
  6

 40
6.35
 41
19.05
 42
6.35
 43
19.05
 44
215.9
 45
279.4
 46
11.11250000000003
 47
0.0000000000000142
 48
0.0
 49
0.0
140
0.0
141
0.0
142
1.0
143
1.263157894736842
 70
 11444
 72
     0
 73
     1
 74
     1
  7
monochrome.ctb
 75
     0
147
0.7916666666666665
148
-702.8076765758875
149
-496.2830551296954
100
AcDbLayout
  1
Model
 70
     1
 71
     0
 10
0.0
 20
0.0
 11
12.0
 21
9.0
 12
0.0
 22
0.0
 32
0.0
 14
0.0
 24
0.0
 34
0.0
 15
0.0
 25
0.0
 35
0.0
146
0.0
 13
0.0
 23
0.0
 33
0.0
 16
1.0
 26
0.0
 36
0.0
 17
0.0
 27
1.0
 37
0.0
 76
     0
330
1F
331
94
  0
LAYOUT
  5
59
102
{ACAD_REACTORS
330
1A
102
}
330
1A
100
AcDbPlotSettings
  1

  2
None
  4

  6

 40
0.0
 41
0.0
 42
0.0
 43
0.0
 44
0.0
 45
0.0
 46
0.0
 47
0.0
 48
0.0
 49
0.0
140
0.0
141
0.0
142
1.0
143
1.0
 70
   688
 72
     0
 73
     0
 74
     5
  7

 75
    16
147
1.0
148
0.0
149
0.0
100
AcDbLayout
  1
Sheet1
 70
     1
 71
     1
 10
0.0
 20
0.0
 11
12.0
 21
9.0
 12
0.0
 22
0.0
 32
0.0
 14
0.0
 24
0.0
 34
0.0
 15
0.0
 25
0.0
 35
0.0
146
0.0
 13
0.0
 23
0.0
 33
0.0
 16
1.0
 26
0.0
 36
0.0
 17
0.0
 27
1.0
 37
0.0
 76
     0
330
58
  0
LAYOUT
  5
5E
102
{ACAD_REACTORS
330
1A
102
}
330
1A
100
AcDbPlotSettings
  1

  2
None
  4

  6

 40
0.0
 41
0.0
 42
0.0
 43
0.0
 44
0.0
 45
0.0
 46
0.0
 47
0.0
 48
0.0
 49
0.0
140
0.0
141
0.0
142
1.0
143
1.0
 70
   688
 72
     0
 73
     0
 74
     5
  7

 75
    16
147
1.0
148
0.0
149
0.0
100
AcDbLayout
  1
Sheet2
 70
     1
 71
     2
 10
0.0
 20
0.0
 11
12.0
 21
9.0
 12
0.0
 22
0.0
 32
0.0
 14
0.0
 24
0.0
 34
0.0
 15
0.0
 25
0.0
 35
0.0
146
0.0
 13
0.0
 23
0.0
 33
0.0
 16
1.0
 26
0.0
 36
0.0
 17
0.0
 27
1.0
 37
0.0
 76
     0
330
5D
  0
MLINESTYLE
  5
18
102
{ACAD_REACTORS
330
17
102
}
330
17
100
AcDbMlineStyle
  2
STANDARD
 70
     0
  3

 62
   256
 51
90.0
 52
90.0
 71
     2
 49
0.5
 62
   256
  6
BYLAYER
 49
-0.5
 62
   256
  6
BYLAYER
  0
ACDBPLACEHOLDER
  5
F
102
{ACAD_REACTORS
330
E
102
}
330
E
  0
SCALE
  5
B7
102
{ACAD_REACTORS
330
B6
102
}
330
B6
100
AcDbScale
 70
     0
300
1:1
140
1.0
141
1.0
290
     1
  0
SCALE
  5
B8
102
{ACAD_REACTORS
330
B6
102
}
330
B6
100
AcDbScale
 70
     0
300
1:2
140
1.0
141
2.0
290
     0
  0
SCALE
  5
B9
102
{ACAD_REACTORS
330
B6
102
}
330
B6
100
AcDbScale
 70
     0
300
1:4
140
1.0
141
4.0
290
     0
  0
SCALE
  5
BA
102
{ACAD_REACTORS
330
B6
102
}
330
B6
100
AcDbScale
 70
     0
300
1:5
140
1.0
141
5.0
290
     0
  0
SCALE
  5
BB
102
{ACAD_REACTORS
330
B6
102
}
330
B6
100
AcDbScale
 70
     0
300
1:8
140
1.0
141
8.0
290
     0
  0
SCALE
  5
BC
102
{ACAD_REACTORS
330
B6
102
}
330
B6
100
AcDbScale
 70
     0
300
1:10
140
1.0
141
10.0
290
     0
  0
SCALE
  5
BD
102
{ACAD_REACTORS
330
B6
102
}
330
B6
100
AcDbScale
 70
     0
300
1:16
140
1.0
141
16.0
290
     0
  0
SCALE
  5
BE
102
{ACAD_REACTORS
330
B6
102
}
330
B6
100
AcDbScale
 70
     0
300
1:20
140
1.0
141
20.0
290
     0
  0
SCALE
  5
BF
102
{ACAD_REACTORS
330
B6
102
}
330
B6
100
AcDbScale
 70
     0
300
1:30
140
1.0
141
30.0
290
     0
  0
SCALE
  5
C0
102
{ACAD_REACTORS
330
B6
102
}
330
B6
100
AcDbScale
 70
     0
300
1:40
140
1.0
141
40.0
290
     0
  0
SCALE
  5
C1
102
{ACAD_REACTORS
330
B6
102
}
330
B6
100
AcDbScale
 70
     0
300
1:50
140
1.0
141
50.0
290
     0
  0
SCALE
  5
C2
102
{ACAD_REACTORS
330
B6
102
}
330
B6
100
AcDbScale
 70
     0
300
1:100
140
1.0
141
100.0
290
     0
  0
SCALE
  5
C3
102
{ACAD_REACTORS
330
B6
102
}
330
B6
100
AcDbScale
 70
     0
300
2:1
140
2.0
141
1.0
290
     0
  0
SCALE
  5
C4
102
{ACAD_REACTORS
330
B6
102
}
330
B6
100
AcDbScale
 70
     0
300
4:1
140
4.0
141
1.0
290
     0
  0
SCALE
  5
C5
102
{ACAD_REACTORS
330
B6
102
}
330
B6
100
AcDbScale
 70
     0
300
8:1
140
8.0
141
1.0
290
     0
  0
SCALE
  5
C6
102
{ACAD_REACTORS
330
B6
102
}
330
B6
100
AcDbScale
 70
     0
300
10:1
140
10.0
141
1.0
290
     0
  0
SCALE
  5
C7
102
{ACAD_REACTORS
330
B6
102
}
330
B6
100
AcDbScale
 70
     0
300
100:1
140
100.0
141
1.0
290
     0
  0
SCALE
  5
C8
102
{ACAD_REACTORS
330
B6
102
}
330
B6
100
AcDbScale
 70
     0
300
1/128" = 1'-0"
140
0.0078125
141
12.0
290
     0
  0
SCALE
  5
C9
102
{ACAD_REACTORS
330
B6
102
}
330
B6
100
AcDbScale
 70
     0
300
1/64" = 1'-0"
140
0.015625
141
12.0
290
     0
  0
SCALE
  5
CA
102
{ACAD_REACTORS
330
B6
102
}
330
B6
100
AcDbScale
 70
     0
300
1/32" = 1'-0"
140
0.03125
141
12.0
290
     0
  0
SCALE
  5
CB
102
{ACAD_REACTORS
330
B6
102
}
330
B6
100
AcDbScale
 70
     0
300
1/16" = 1'-0"
140
0.0625
141
12.0
290
     0
  0
SCALE
  5
CC
102
{ACAD_REACTORS
330
B6
102
}
330
B6
100
AcDbScale
 70
     0
300
3/32" = 1'-0"
140
0.09375
141
12.0
290
     0
  0
SCALE
  5
CD
102
{ACAD_REACTORS
330
B6
102
}
330
B6
100
AcDbScale
 70
     0
300
1/8" = 1'-0"
140
0.125
141
12.0
290
     0
  0
SCALE
  5
CE
102
{ACAD_REACTORS
330
B6
102
}
330
B6
100
AcDbScale
 70
     0
300
3/16" = 1'-0"
140
0.1875
141
12.0
290
     0
  0
SCALE
  5
CF
102
{ACAD_REACTORS
330
B6
102
}
330
B6
100
AcDbScale
 70
     0
300
1/4" = 1'-0"
140
0.25
141
12.0
290
     0
  0
SCALE
  5
D0
102
{ACAD_REACTORS
330
B6
102
}
330
B6
100
AcDbScale
 70
     0
300
3/8" = 1'-0"
140
0.375
141
12.0
290
     0
  0
SCALE
  5
D1
102
{ACAD_REACTORS
330
B6
102
}
330
B6
100
AcDbScale
 70
     0
300
1/2" = 1'-0"
140
0.5
141
12.0
290
     0
  0
SCALE
  5
D2
102
{ACAD_REACTORS
330
B6
102
}
330
B6
100
AcDbScale
 70
     0
300
3/4" = 1'-0"
140
0.75
141
12.0
290
     0
  0
SCALE
  5
D3
102
{ACAD_REACTORS
330
B6
102
}
330
B6
100
AcDbScale
 70
     0
300
1" = 1'-0"
140
1.0
141
12.0
290
     0
  0
SCALE
  5
D4
102
{ACAD_REACTORS
330
B6
102
}
330
B6
100
AcDbScale
 70
     0
300
1-1/2" = 1'-0"
140
1.5
141
12.0
290
     0
  0
SCALE
  5
D5
102
{ACAD_REACTORS
330
B6
102
}
330
B6
100
AcDbScale
 70
     0
300
3" = 1'-0"
140
3.0
141
12.0
290
     0
  0
SCALE
  5
D6
102
{ACAD_REACTORS
330
B6
102
}
330
B6
100
AcDbScale
 70
     0
300
6" = 1'-0"
140
6.0
141
12.0
290
     0
  0
SCALE
  5
D7
102
{ACAD_REACTORS
330
B6
102
}
330
B6
100
AcDbScale
 70
     0
300
1'-0" = 1'-0"
140
12.0
141
12.0
290
     0
  0
DICTIONARYVAR
  5
67
102
{ACAD_REACTORS
330
66
102
}
330
66
100
DictionaryVariables
280
     0
  1
2
  0
DICTIONARYVAR
  5
6B
102
{ACAD_REACTORS
330
66
102
}
330
66
100
DictionaryVariables
280
     0
  1
1
  0
ENDSEC
  0
EOF
