solid Main Design
facet normal -0.976635735328162 -0.214901466909886 4.31191381389684e-015
outer loop
vertex 171.947136387414 602.433286498397 437.500000767953
vertex 171.4872919401 603.866400992176 417.500000767953
vertex 171.947136387414 602.433286498397 417.500000767953
endloop
endfacet
facet normal -0.923879532511282 -0.382683432365102 4.07961574095922e-015
outer loop
vertex 171.4872919401 603.866400992176 417.500000767953
vertex 171.947136387414 602.433286498397 437.500000767953
vertex 171.4872919401 603.866400992176 437.500000767953
endloop
endfacet
facet normal 2.20753432314639e-015 -0.866025403784464 0.499999999999957
outer loop
vertex 172.108612283659 706.029016193383 426.400000767953
vertex 177.10860912474 705.679395223668 425.944365849343
vertex 177.10860912474 706.029016193383 426.400000767953
endloop
endfacet
facet normal 3.12192497919801e-015 -0.707106781186548 0.707106781186548
outer loop
vertex 177.10860912474 705.679395223668 425.944365849343
vertex 172.108612283659 706.029016193383 426.400000767953
vertex 172.108612283659 705.679395223668 425.944365849343
endloop
endfacet
facet normal 0.842544012623866 -0.53862750281774 -3.71926482446992e-015
outer loop
vertex 175.799082489968 690.971524064325 437.500000767953
vertex 174.987288302107 689.93136851164 417.500000767953
vertex 175.799082489968 690.971524064325 417.500000767953
endloop
endfacet
facet normal 0.788328478819184 -0.615254589160155 -3.48052434981457e-015
outer loop
vertex 174.987288302107 689.93136851164 417.500000767953
vertex 175.799082489968 690.971524064325 437.500000767953
vertex 174.987288302107 689.93136851164 437.500000767953
endloop
endfacet
facet normal -3.82356160714209e-015 -0.499999999999988 -0.866025403784446
outer loop
vertex 172.108612283659 705.223760305057 429.405256656279
vertex 177.10860912474 704.693162204283 429.625037585789
vertex 172.108612283659 704.693162204283 429.625037585789
endloop
endfacet
facet normal -4.26462883029368e-015 -0.258819045102523 -0.965925826289068
outer loop
vertex 177.10860912474 704.693162204283 429.625037585789
vertex 172.108612283659 705.223760305057 429.405256656279
vertex 177.10860912474 705.223760305057 429.405256656279
endloop
endfacet
facet normal 0.992483102574524 0.122381743344534 -4.38188102815255e-015
outer loop
vertex 157.108612283659 629.194828116922 437.500000767953
vertex 157.270088179904 627.885301923582 417.500000767953
vertex 157.108612283659 629.194828116922 417.500000767953
endloop
endfacet
facet normal 0.976635735328162 0.214901466909886 -4.31191381389684e-015
outer loop
vertex 157.270088179904 627.885301923582 417.500000767953
vertex 157.108612283659 629.194828116922 437.500000767953
vertex 157.270088179904 627.885301923582 437.500000767953
endloop
endfacet
facet normal 3.82356160714209e-015 -0.499999999999988 0.866025403784446
outer loop
vertex 177.10860912474 705.223760305057 425.594744879627
vertex 172.108612283659 704.693162204283 425.374963950117
vertex 177.10860912474 704.693162204283 425.374963950117
endloop
endfacet
facet normal 4.26462883029368e-015 -0.258819045102523 0.965925826289068
outer loop
vertex 172.108612283659 704.693162204283 425.374963950117
vertex 177.10860912474 705.223760305057 425.594744879627
vertex 172.108612283659 705.223760305057 425.594744879627
endloop
endfacet
facet normal -3.12192497919801e-015 -0.707106781186548 -0.707106781186548
outer loop
vertex 172.108612283659 705.679395223668 429.055635686563
vertex 177.10860912474 705.223760305057 429.405256656279
vertex 172.108612283659 705.223760305057 429.405256656279
endloop
endfacet
facet normal -3.82356160714209e-015 -0.499999999999988 -0.866025403784446
outer loop
vertex 177.10860912474 705.223760305057 429.405256656279
vertex 172.108612283659 705.679395223668 429.055635686563
vertex 177.10860912474 705.679395223668 429.055635686563
endloop
endfacet
facet normal 0.976635735328162 0.214901466909886 -4.31191381389684e-015
outer loop
vertex 157.270088179904 627.885301923582 437.500000767953
vertex 157.729932627219 626.452187429803 417.500000767953
vertex 157.270088179904 627.885301923582 417.500000767953
endloop
endfacet
facet normal 0.923879532511282 0.382683432365102 -4.07961574095922e-015
outer loop
vertex 157.729932627219 626.452187429803 417.500000767953
vertex 157.270088179904 627.885301923582 437.500000767953
vertex 157.729932627219 626.452187429803 437.500000767953
endloop
endfacet
facet normal -1.0 0.0 4.41506864629317e-015
outer loop
vertex 172.108612283659 584.123760305057 417.500000767953
vertex 172.108612283659 592.568125386447 425.944365849343
vertex 172.108612283659 601.123760305057 417.500000767953
endloop
endfacet
facet normal -1.0 0.0 4.41506864629317e-015
outer loop
vertex 172.108612283659 592.568125386447 425.944365849343
vertex 172.108612283659 584.123760305057 417.500000767953
vertex 172.108612283659 592.218504416731 426.400000767953
endloop
endfacet
facet normal -1.0 0.0 4.41506864629317e-015
outer loop
vertex 172.108612283659 592.218504416731 426.400000767953
vertex 172.108612283659 584.123760305057 417.500000767953
vertex 172.108612283659 584.123760305057 437.500000767953
endloop
endfacet
facet normal -1.0 0.0 4.41506864629317e-015
outer loop
vertex 172.108612283659 601.123760305057 417.500000767953
vertex 172.108612283659 592.568125386447 425.944365849343
vertex 172.108612283659 593.023760305057 425.594744879627
endloop
endfacet
facet normal -1.0 0.0 4.41506864629317e-015
outer loop
vertex 172.108612283659 601.123760305057 417.500000767953
vertex 172.108612283659 593.023760305057 425.594744879627
vertex 172.108612283659 593.554358405832 425.374963950117
endloop
endfacet
facet normal -1.0 0.0 4.41506864629317e-015
outer loop
vertex 172.108612283659 601.123760305057 417.500000767953
vertex 172.108612283659 593.554358405832 425.374963950117
vertex 172.108612283659 594.123760305057 425.300000767953
endloop
endfacet
facet normal -1.0 0.0 4.41506864629317e-015
outer loop
vertex 172.108612283659 592.218504416731 426.400000767953
vertex 172.108612283659 584.123760305057 437.500000767953
vertex 172.108612283659 591.998723487221 426.930598868727
endloop
endfacet
facet normal -1.0 0.0 4.41506864629317e-015
outer loop
vertex 172.108612283659 591.998723487221 426.930598868727
vertex 172.108612283659 584.123760305057 437.500000767953
vertex 172.108612283659 591.923760305057 427.500000767953
endloop
endfacet
facet normal -1.0 0.0 4.41506864629317e-015
outer loop
vertex 172.108612283659 591.923760305057 427.500000767953
vertex 172.108612283659 584.123760305057 437.500000767953
vertex 172.108612283659 591.998723487221 428.069402667179
endloop
endfacet
facet normal -1.0 0.0 4.41506864629317e-015
outer loop
vertex 172.108612283659 591.998723487221 428.069402667179
vertex 172.108612283659 584.123760305057 437.500000767953
vertex 172.108612283659 592.218504416731 428.600000767953
endloop
endfacet
facet normal -1.0 0.0 4.41506864629317e-015
outer loop
vertex 172.108612283659 592.218504416731 428.600000767953
vertex 172.108612283659 584.123760305057 437.500000767953
vertex 172.108612283659 592.568125386447 429.055635686563
endloop
endfacet
facet normal -1.0 0.0 4.41506864629317e-015
outer loop
vertex 172.108612283659 592.568125386447 429.055635686563
vertex 172.108612283659 584.123760305057 437.500000767953
vertex 172.108612283659 593.023760305057 429.405256656279
endloop
endfacet
facet normal -1.0 0.0 4.41506864629317e-015
outer loop
vertex 172.108612283659 593.023760305057 429.405256656279
vertex 172.108612283659 584.123760305057 437.500000767953
vertex 172.108612283659 593.554358405832 429.625037585789
endloop
endfacet
facet normal -1.0 0.0 4.41506864629317e-015
outer loop
vertex 172.108612283659 593.554358405832 429.625037585789
vertex 172.108612283659 584.123760305057 437.500000767953
vertex 172.108612283659 594.123760305057 429.700000767953
endloop
endfacet
facet normal -1.0 0.0 4.41506864629317e-015
outer loop
vertex 172.108612283659 601.123760305057 417.500000767953
vertex 172.108612283659 596.029016193383 426.400000767953
vertex 172.108612283659 601.123760305057 437.500000767953
endloop
endfacet
facet normal -1.0 0.0 4.41506864629317e-015
outer loop
vertex 172.108612283659 596.029016193383 426.400000767953
vertex 172.108612283659 601.123760305057 417.500000767953
vertex 172.108612283659 595.679395223668 425.944365849343
endloop
endfacet
facet normal -1.0 0.0 4.41506864629317e-015
outer loop
vertex 172.108612283659 595.679395223668 425.944365849343
vertex 172.108612283659 601.123760305057 417.500000767953
vertex 172.108612283659 595.223760305057 425.594744879627
endloop
endfacet
facet normal -1.0 0.0 4.41506864629317e-015
outer loop
vertex 172.108612283659 595.223760305057 425.594744879627
vertex 172.108612283659 601.123760305057 417.500000767953
vertex 172.108612283659 594.693162204283 425.374963950117
endloop
endfacet
facet normal -1.0 0.0 4.41506864629317e-015
outer loop
vertex 172.108612283659 594.693162204283 425.374963950117
vertex 172.108612283659 601.123760305057 417.500000767953
vertex 172.108612283659 594.123760305057 425.300000767953
endloop
endfacet
facet normal -1.0 0.0 4.41506864629317e-015
outer loop
vertex 172.108612283659 601.123760305057 437.500000767953
vertex 172.108612283659 596.029016193383 426.400000767953
vertex 172.108612283659 596.248797122893 426.930598868727
endloop
endfacet
facet normal -1.0 0.0 4.41506864629317e-015
outer loop
vertex 172.108612283659 601.123760305057 437.500000767953
vertex 172.108612283659 596.248797122893 426.930598868727
vertex 172.108612283659 596.323760305057 427.500000767953
endloop
endfacet
facet normal -1.0 0.0 4.41506864629317e-015
outer loop
vertex 172.108612283659 601.123760305057 437.500000767953
vertex 172.108612283659 596.323760305057 427.500000767953
vertex 172.108612283659 596.248797122893 428.069402667179
endloop
endfacet
facet normal -1.0 0.0 4.41506864629317e-015
outer loop
vertex 172.108612283659 601.123760305057 437.500000767953
vertex 172.108612283659 596.248797122893 428.069402667179
vertex 172.108612283659 596.029016193383 428.600000767953
endloop
endfacet
facet normal -1.0 0.0 4.41506864629317e-015
outer loop
vertex 172.108612283659 601.123760305057 437.500000767953
vertex 172.108612283659 596.029016193383 428.600000767953
vertex 172.108612283659 595.679395223668 429.055635686563
endloop
endfacet
facet normal -1.0 0.0 4.41506864629317e-015
outer loop
vertex 172.108612283659 601.123760305057 437.500000767953
vertex 172.108612283659 595.679395223668 429.055635686563
vertex 172.108612283659 595.223760305057 429.405256656279
endloop
endfacet
facet normal -1.0 0.0 4.41506864629317e-015
outer loop
vertex 172.108612283659 601.123760305057 437.500000767953
vertex 172.108612283659 595.223760305057 429.405256656279
vertex 172.108612283659 594.693162204283 429.625037585789
endloop
endfacet
facet normal -1.0 0.0 4.41506864629317e-015
outer loop
vertex 172.108612283659 601.123760305057 437.500000767953
vertex 172.108612283659 594.693162204283 429.625037585789
vertex 172.108612283659 594.123760305057 429.700000767953
endloop
endfacet
facet normal -1.0 0.0 4.41506864629317e-015
outer loop
vertex 172.108612283659 601.123760305057 437.500000767953
vertex 172.108612283659 594.123760305057 429.700000767953
vertex 172.108612283659 584.123760305057 437.500000767953
endloop
endfacet
facet normal 3.82356160714209e-015 0.499999999999988 0.866025403784446
outer loop
vertex 177.10860912474 703.023760305057 425.594744879627
vertex 172.108612283659 702.568125386447 425.944365849343
vertex 177.10860912474 702.568125386447 425.944365849343
endloop
endfacet
facet normal 3.12192497919801e-015 0.707106781186548 0.707106781186548
outer loop
vertex 172.108612283659 702.568125386447 425.944365849343
vertex 177.10860912474 703.023760305057 425.594744879627
vertex 172.108612283659 703.023760305057 425.594744879627
endloop
endfacet
facet normal 0.707106781186548 0.707106781186548 -3.12192497919801e-015
outer loop
vertex 159.229932627219 624.073507773363 417.500000767953
vertex 174.9872919401 608.316148460482 437.500000767953
vertex 174.9872919401 608.316148460482 417.500000767953
endloop
endfacet
facet normal 0.707106781186548 0.707106781186548 -3.12192497919801e-015
outer loop
vertex 174.9872919401 608.316148460482 437.500000767953
vertex 159.229932627219 624.073507773363 417.500000767953
vertex 159.229932627219 624.073507773363 437.500000767953
endloop
endfacet
facet normal 1.14270385109579e-015 -0.965925826289062 0.258819045102547
outer loop
vertex 172.108612283659 706.248797122893 426.930598868727
vertex 177.10860912474 706.029016193383 426.400000767953
vertex 177.10860912474 706.248797122893 426.930598868727
endloop
endfacet
facet normal 2.20753432314639e-015 -0.866025403784464 0.499999999999957
outer loop
vertex 177.10860912474 706.029016193383 426.400000767953
vertex 172.108612283659 706.248797122893 426.930598868727
vertex 172.108612283659 706.029016193383 426.400000767953
endloop
endfacet
facet normal 3.12192497919801e-015 0.707106781186548 0.707106781186548
outer loop
vertex 172.108612283659 702.568125386447 425.944365849343
vertex 177.10860912474 702.218504416731 426.400000767953
vertex 177.10860912474 702.568125386447 425.944365849343
endloop
endfacet
facet normal 2.20753432314639e-015 0.866025403784464 0.499999999999957
outer loop
vertex 177.10860912474 702.218504416731 426.400000767953
vertex 172.108612283659 702.568125386447 425.944365849343
vertex 172.108612283659 702.218504416731 426.400000767953
endloop
endfacet
facet normal -0.976635735328162 0.214901466909886 4.31191381389685e-015
outer loop
vertex 171.947136387414 695.814234111717 437.500000767953
vertex 172.108612283659 697.123760305057 417.500000767953
vertex 171.947136387414 695.814234111717 417.500000767953
endloop
endfacet
facet normal -0.992483102574524 0.122381743344534 4.38188102815255e-015
outer loop
vertex 172.108612283659 697.123760305057 417.500000767953
vertex 171.947136387414 695.814234111717 437.500000767953
vertex 172.108612283659 697.123760305057 437.500000767953
endloop
endfacet
facet normal 0.0 1.0 0.0
outer loop
vertex 172.108612283659 714.123760305057 417.500000767953
vertex 177.108612283659 714.123760305057 437.500000767953
vertex 177.108612283659 714.123760305057 417.500000767953
endloop
endfacet
facet normal 0.0 1.0 0.0
outer loop
vertex 177.108612283659 714.123760305057 437.500000767953
vertex 172.108612283659 714.123760305057 417.500000767953
vertex 172.108612283659 714.123760305057 437.500000767953
endloop
endfacet
facet normal 0.923879500972273 -0.382683508506996 -4.07879610553563e-015
outer loop
vertex 176.487288446941 692.31004816808 437.500000767953
vertex 175.799082489968 690.971524064325 417.500000767953
vertex 176.487288446941 692.31004816808 417.500000767953
endloop
endfacet
facet normal 0.842544012623866 -0.53862750281774 -3.71926482446992e-015
outer loop
vertex 175.799082489968 690.971524064325 417.500000767953
vertex 176.487288446941 692.31004816808 437.500000767953
vertex 175.799082489968 690.971524064325 437.500000767953
endloop
endfacet
facet normal 4.41506864629317e-015 0.0 1.0
outer loop
vertex 177.10860912474 704.123760305057 425.300000767953
vertex 172.108612283659 703.554358405832 425.374963950117
vertex 177.10860912474 703.554358405832 425.374963950117
endloop
endfacet
facet normal 4.26462883029368e-015 0.258819045102523 0.965925826289068
outer loop
vertex 172.108612283659 703.554358405832 425.374963950117
vertex 177.10860912474 704.123760305057 425.300000767953
vertex 172.108612283659 704.123760305057 425.300000767953
endloop
endfacet
facet normal -0.976635735328162 0.214901466909886 4.31191381389684e-015
outer loop
vertex 152.270088179904 672.433286498398 437.500000767953
vertex 152.729932627219 673.866400992177 417.500000767953
vertex 152.270088179904 672.433286498398 417.500000767953
endloop
endfacet
facet normal -0.923879532511282 0.382683432365102 4.07836737292588e-015
outer loop
vertex 152.729932627219 673.866400992177 417.500000767953
vertex 152.270088179904 672.433286498398 437.500000767953
vertex 152.729932627219 673.866400992177 437.500000767953
endloop
endfacet
facet normal -0.788328492655874 0.615254571431142 3.4805244109045e-015
outer loop
vertex 169.9872919401 692.002439961498 437.500000767953
vertex 170.799086090319 693.042595514183 417.500000767953
vertex 169.9872919401 692.002439961498 417.500000767953
endloop
endfacet
facet normal -0.842544035738568 0.538627466660739 3.72051458411996e-015
outer loop
vertex 170.799086090319 693.042595514183 417.500000767953
vertex 169.9872919401 692.002439961498 437.500000767953
vertex 170.799086090319 693.042595514183 437.500000767953
endloop
endfacet
facet normal 0.0 -1.0 0.0
outer loop
vertex 172.108612283659 584.123760305057 437.500000767953
vertex 177.108612283659 584.123760305057 417.500000767953
vertex 177.108612283659 584.123760305057 437.500000767953
endloop
endfacet
facet normal 0.0 -1.0 0.0
outer loop
vertex 177.108612283659 584.123760305057 417.500000767953
vertex 172.108612283659 584.123760305057 437.500000767953
vertex 172.108612283659 584.123760305057 417.500000767953
endloop
endfacet
facet normal 3.12192497919801e-015 -0.707106781186548 0.707106781186548
outer loop
vertex 177.10860912474 705.679395223668 425.944365849343
vertex 172.108612283659 705.223760305057 425.594744879627
vertex 177.10860912474 705.223760305057 425.594744879627
endloop
endfacet
facet normal 3.82356160714209e-015 -0.499999999999988 0.866025403784446
outer loop
vertex 172.108612283659 705.223760305057 425.594744879627
vertex 177.10860912474 705.679395223668 425.944365849343
vertex 172.108612283659 705.679395223668 425.944365849343
endloop
endfacet
facet normal 0.923879532511282 -0.382683432365102 -4.07961574095923e-015
outer loop
vertex 157.729932627219 671.795333180311 437.500000767953
vertex 157.270088179904 670.362218686532 417.500000767953
vertex 157.729932627219 671.795333180311 417.500000767953
endloop
endfacet
facet normal 0.976635735328162 -0.214901466909886 -4.31191381389684e-015
outer loop
vertex 157.270088179904 670.362218686532 417.500000767953
vertex 157.729932627219 671.795333180311 437.500000767953
vertex 157.270088179904 670.362218686532 437.500000767953
endloop
endfacet
facet normal 4.26462883029368e-015 -0.258819045102523 0.965925826289068
outer loop
vertex 177.10860912474 704.693162204283 425.374963950117
vertex 172.108612283659 704.123760305057 425.300000767953
vertex 177.10860912474 704.123760305057 425.300000767953
endloop
endfacet
facet normal 4.41506864629317e-015 0.0 1.0
outer loop
vertex 172.108612283659 704.123760305057 425.300000767953
vertex 177.10860912474 704.693162204283 425.374963950117
vertex 172.108612283659 704.693162204283 425.374963950117
endloop
endfacet
facet normal 0.923879532511282 0.382683432365102 -4.07856268524221e-015
outer loop
vertex 176.4872919401 605.937468804042 437.500000767953
vertex 176.947136387414 604.504354310263 417.500000767953
vertex 176.4872919401 605.937468804042 417.500000767953
endloop
endfacet
facet normal 0.976635735328162 0.214901466909886 -4.31148449916479e-015
outer loop
vertex 176.947136387414 604.504354310263 417.500000767953
vertex 176.4872919401 605.937468804042 437.500000767953
vertex 176.947136387414 604.504354310263 437.500000767953
endloop
endfacet
facet normal 0.999999999999986 -1.64830802880165e-007 -4.41506864108928e-015
outer loop
vertex 177.108612283659 714.123760305057 417.500000767953
vertex 177.10860912474 705.679395223668 425.944365849343
vertex 177.108609140159 695.052688855199 417.500000767953
endloop
endfacet
facet normal 0.999999999999986 -1.64830802880165e-007 -4.41506864108928e-015
outer loop
vertex 177.10860912474 705.679395223668 425.944365849343
vertex 177.108612283659 714.123760305057 417.500000767953
vertex 177.10860912474 706.029016193383 426.400000767953
endloop
endfacet
facet normal 0.999999999999986 -1.64830802880165e-007 -4.41506864108928e-015
outer loop
vertex 177.10860912474 706.029016193383 426.400000767953
vertex 177.108612283659 714.123760305057 417.500000767953
vertex 177.108612283659 714.123760305057 437.500000767953
endloop
endfacet
facet normal 0.999999999999986 -1.64830802880165e-007 -4.41506864108928e-015
outer loop
vertex 177.108609140159 695.052688855199 417.500000767953
vertex 177.10860912474 705.679395223668 425.944365849343
vertex 177.10860912474 705.223760305057 425.594744879627
endloop
endfacet
facet normal 0.999999999999986 -1.64830802880165e-007 -4.41506864108928e-015
outer loop
vertex 177.108609140159 695.052688855199 417.500000767953
vertex 177.10860912474 705.223760305057 425.594744879627
vertex 177.10860912474 704.693162204283 425.374963950117
endloop
endfacet
facet normal 0.999999999999986 -1.64830802880165e-007 -4.41506864108928e-015
outer loop
vertex 177.108609140159 695.052688855199 417.500000767953
vertex 177.10860912474 704.693162204283 425.374963950117
vertex 177.10860912474 704.123760305057 425.300000767953
endloop
endfacet
facet normal 0.999999999999986 -1.64830802880165e-007 -4.41506864108928e-015
outer loop
vertex 177.10860912474 706.029016193383 426.400000767953
vertex 177.108612283659 714.123760305057 437.500000767953
vertex 177.10860912474 706.248797122893 426.930598868727
endloop
endfacet
facet normal 0.999999999999986 -1.64830802880165e-007 -4.41506864108928e-015
outer loop
vertex 177.10860912474 706.248797122893 426.930598868727
vertex 177.108612283659 714.123760305057 437.500000767953
vertex 177.10860912474 706.323760305057 427.500000767953
endloop
endfacet
facet normal 0.999999999999986 -1.64830802880165e-007 -4.41506864108928e-015
outer loop
vertex 177.10860912474 706.323760305057 427.500000767953
vertex 177.108612283659 714.123760305057 437.500000767953
vertex 177.10860912474 706.248797122893 428.069402667179
endloop
endfacet
facet normal 0.999999999999986 -1.64830802880165e-007 -4.41506864108928e-015
outer loop
vertex 177.10860912474 706.248797122893 428.069402667179
vertex 177.108612283659 714.123760305057 437.500000767953
vertex 177.10860912474 706.029016193383 428.600000767953
endloop
endfacet
facet normal 0.999999999999986 -1.64830802880165e-007 -4.41506864108928e-015
outer loop
vertex 177.10860912474 706.029016193383 428.600000767953
vertex 177.108612283659 714.123760305057 437.500000767953
vertex 177.10860912474 705.679395223668 429.055635686563
endloop
endfacet
facet normal 0.999999999999986 -1.64830802880165e-007 -4.41506864108928e-015
outer loop
vertex 177.10860912474 705.679395223668 429.055635686563
vertex 177.108612283659 714.123760305057 437.500000767953
vertex 177.10860912474 705.223760305057 429.405256656279
endloop
endfacet
facet normal 0.999999999999986 -1.64830802880165e-007 -4.41506864108928e-015
outer loop
vertex 177.10860912474 705.223760305057 429.405256656279
vertex 177.108612283659 714.123760305057 437.500000767953
vertex 177.10860912474 704.693162204283 429.625037585789
endloop
endfacet
facet normal 0.999999999999986 -1.64830802880165e-007 -4.41506864108928e-015
outer loop
vertex 177.10860912474 704.693162204283 429.625037585789
vertex 177.108612283659 714.123760305057 437.500000767953
vertex 177.10860912474 704.123760305057 429.700000767953
endloop
endfacet
facet normal 0.999999999999986 -1.64830802880165e-007 -4.41506864108928e-015
outer loop
vertex 177.10860912474 704.123760305057 429.700000767953
vertex 177.108612283659 714.123760305057 437.500000767953
vertex 177.108609140159 695.052688855199 437.500000767953
endloop
endfacet
facet normal 0.999999999999986 -1.64830802880165e-007 -4.41506864108928e-015
outer loop
vertex 177.108609140159 695.052688855199 417.500000767953
vertex 177.10860912474 702.218504416731 426.400000767953
vertex 177.108609140159 695.052688855199 437.500000767953
endloop
endfacet
facet normal 0.999999999999986 -1.64830802880165e-007 -4.41506864108928e-015
outer loop
vertex 177.10860912474 702.218504416731 426.400000767953
vertex 177.108609140159 695.052688855199 417.500000767953
vertex 177.10860912474 702.568125386447 425.944365849343
endloop
endfacet
facet normal 0.999999999999986 -1.64830802880165e-007 -4.41506864108928e-015
outer loop
vertex 177.10860912474 702.568125386447 425.944365849343
vertex 177.108609140159 695.052688855199 417.500000767953
vertex 177.10860912474 703.023760305057 425.594744879627
endloop
endfacet
facet normal 0.999999999999986 -1.64830802880165e-007 -4.41506864108928e-015
outer loop
vertex 177.10860912474 703.023760305057 425.594744879627
vertex 177.108609140159 695.052688855199 417.500000767953
vertex 177.10860912474 703.554358405832 425.374963950117
endloop
endfacet
facet normal 0.999999999999986 -1.64830802880165e-007 -4.41506864108928e-015
outer loop
vertex 177.10860912474 703.554358405832 425.374963950117
vertex 177.108609140159 695.052688855199 417.500000767953
vertex 177.10860912474 704.123760305057 425.300000767953
endloop
endfacet
facet normal 0.999999999999986 -1.64830802880165e-007 -4.41506864108928e-015
outer loop
vertex 177.108609140159 695.052688855199 437.500000767953
vertex 177.10860912474 702.218504416731 426.400000767953
vertex 177.10860912474 701.998723487221 426.930598868727
endloop
endfacet
facet normal 0.999999999999986 -1.64830802880165e-007 -4.41506864108928e-015
outer loop
vertex 177.108609140159 695.052688855199 437.500000767953
vertex 177.10860912474 701.998723487221 426.930598868727
vertex 177.10860912474 701.923760305057 427.500000767953
endloop
endfacet
facet normal 0.999999999999986 -1.64830802880165e-007 -4.41506864108928e-015
outer loop
vertex 177.108609140159 695.052688855199 437.500000767953
vertex 177.10860912474 701.923760305057 427.500000767953
vertex 177.10860912474 701.998723487221 428.069402667179
endloop
endfacet
facet normal 0.999999999999986 -1.64830802880165e-007 -4.41506864108928e-015
outer loop
vertex 177.108609140159 695.052688855199 437.500000767953
vertex 177.10860912474 701.998723487221 428.069402667179
vertex 177.10860912474 702.218504416731 428.600000767953
endloop
endfacet
facet normal 0.999999999999986 -1.64830802880165e-007 -4.41506864108928e-015
outer loop
vertex 177.108609140159 695.052688855199 437.500000767953
vertex 177.10860912474 702.218504416731 428.600000767953
vertex 177.10860912474 702.568125386447 429.055635686563
endloop
endfacet
facet normal 0.999999999999986 -1.64830802880165e-007 -4.41506864108928e-015
outer loop
vertex 177.108609140159 695.052688855199 437.500000767953
vertex 177.10860912474 702.568125386447 429.055635686563
vertex 177.10860912474 703.023760305057 429.405256656279
endloop
endfacet
facet normal 0.999999999999986 -1.64830802880165e-007 -4.41506864108928e-015
outer loop
vertex 177.108609140159 695.052688855199 437.500000767953
vertex 177.10860912474 703.023760305057 429.405256656279
vertex 177.10860912474 703.554358405832 429.625037585789
endloop
endfacet
facet normal 0.999999999999986 -1.64830802880165e-007 -4.41506864108928e-015
outer loop
vertex 177.108609140159 695.052688855199 437.500000767953
vertex 177.10860912474 703.554358405832 429.625037585789
vertex 177.10860912474 704.123760305057 429.700000767953
endloop
endfacet
facet normal -1.0 0.0 4.41506864629317e-015
outer loop
vertex 152.108612283659 627.123760305057 437.500000767953
vertex 152.108612283659 671.123760305057 417.500000767953
vertex 152.108612283659 627.123760305057 417.500000767953
endloop
endfacet
facet normal -1.0 0.0 4.41506864629317e-015
outer loop
vertex 152.108612283659 671.123760305057 417.500000767953
vertex 152.108612283659 627.123760305057 437.500000767953
vertex 152.108612283659 671.123760305057 437.500000767953
endloop
endfacet
facet normal -1.0 0.0 4.41506864629317e-015
outer loop
vertex 172.108612283659 697.123760305057 417.500000767953
vertex 172.108612283659 703.023760305057 425.594744879627
vertex 172.108612283659 714.123760305057 417.500000767953
endloop
endfacet
facet normal -1.0 0.0 4.41506864629317e-015
outer loop
vertex 172.108612283659 703.023760305057 425.594744879627
vertex 172.108612283659 697.123760305057 417.500000767953
vertex 172.108612283659 702.568125386447 425.944365849343
endloop
endfacet
facet normal -1.0 0.0 4.41506864629317e-015
outer loop
vertex 172.108612283659 702.568125386447 425.944365849343
vertex 172.108612283659 697.123760305057 417.500000767953
vertex 172.108612283659 702.218504416731 426.400000767953
endloop
endfacet
facet normal -1.0 0.0 4.41506864629317e-015
outer loop
vertex 172.108612283659 702.218504416731 426.400000767953
vertex 172.108612283659 697.123760305057 417.500000767953
vertex 172.108612283659 697.123760305057 437.500000767953
endloop
endfacet
facet normal -1.0 0.0 4.41506864629317e-015
outer loop
vertex 172.108612283659 714.123760305057 417.500000767953
vertex 172.108612283659 703.023760305057 425.594744879627
vertex 172.108612283659 703.554358405832 425.374963950117
endloop
endfacet
facet normal -1.0 0.0 4.41506864629317e-015
outer loop
vertex 172.108612283659 714.123760305057 417.500000767953
vertex 172.108612283659 703.554358405832 425.374963950117
vertex 172.108612283659 704.123760305057 425.300000767953
endloop
endfacet
facet normal -1.0 0.0 4.41506864629317e-015
outer loop
vertex 172.108612283659 702.218504416731 426.400000767953
vertex 172.108612283659 697.123760305057 437.500000767953
vertex 172.108612283659 701.998723487221 426.930598868727
endloop
endfacet
facet normal -1.0 0.0 4.41506864629317e-015
outer loop
vertex 172.108612283659 701.998723487221 426.930598868727
vertex 172.108612283659 697.123760305057 437.500000767953
vertex 172.108612283659 701.923760305057 427.500000767953
endloop
endfacet
facet normal -1.0 0.0 4.41506864629317e-015
outer loop
vertex 172.108612283659 701.923760305057 427.500000767953
vertex 172.108612283659 697.123760305057 437.500000767953
vertex 172.108612283659 701.998723487221 428.069402667179
endloop
endfacet
facet normal -1.0 0.0 4.41506864629317e-015
outer loop
vertex 172.108612283659 701.998723487221 428.069402667179
vertex 172.108612283659 697.123760305057 437.500000767953
vertex 172.108612283659 702.218504416731 428.600000767953
endloop
endfacet
facet normal -1.0 0.0 4.41506864629317e-015
outer loop
vertex 172.108612283659 702.218504416731 428.600000767953
vertex 172.108612283659 697.123760305057 437.500000767953
vertex 172.108612283659 702.568125386447 429.055635686563
endloop
endfacet
facet normal -1.0 0.0 4.41506864629317e-015
outer loop
vertex 172.108612283659 702.568125386447 429.055635686563
vertex 172.108612283659 697.123760305057 437.500000767953
vertex 172.108612283659 703.023760305057 429.405256656279
endloop
endfacet
facet normal -1.0 0.0 4.41506864629317e-015
outer loop
vertex 172.108612283659 703.023760305057 429.405256656279
vertex 172.108612283659 697.123760305057 437.500000767953
vertex 172.108612283659 703.554358405832 429.625037585789
endloop
endfacet
facet normal -1.0 0.0 4.41506864629317e-015
outer loop
vertex 172.108612283659 703.554358405832 429.625037585789
vertex 172.108612283659 697.123760305057 437.500000767953
vertex 172.108612283659 704.123760305057 429.700000767953
endloop
endfacet
facet normal -1.0 0.0 4.41506864629317e-015
outer loop
vertex 172.108612283659 714.123760305057 417.500000767953
vertex 172.108612283659 706.029016193383 426.400000767953
vertex 172.108612283659 714.123760305057 437.500000767953
endloop
endfacet
facet normal -1.0 0.0 4.41506864629317e-015
outer loop
vertex 172.108612283659 706.029016193383 426.400000767953
vertex 172.108612283659 714.123760305057 417.500000767953
vertex 172.108612283659 705.679395223668 425.944365849343
endloop
endfacet
facet normal -1.0 0.0 4.41506864629317e-015
outer loop
vertex 172.108612283659 705.679395223668 425.944365849343
vertex 172.108612283659 714.123760305057 417.500000767953
vertex 172.108612283659 705.223760305057 425.594744879627
endloop
endfacet
facet normal -1.0 0.0 4.41506864629317e-015
outer loop
vertex 172.108612283659 705.223760305057 425.594744879627
vertex 172.108612283659 714.123760305057 417.500000767953
vertex 172.108612283659 704.693162204283 425.374963950117
endloop
endfacet
facet normal -1.0 0.0 4.41506864629317e-015
outer loop
vertex 172.108612283659 704.693162204283 425.374963950117
vertex 172.108612283659 714.123760305057 417.500000767953
vertex 172.108612283659 704.123760305057 425.300000767953
endloop
endfacet
facet normal -1.0 0.0 4.41506864629317e-015
outer loop
vertex 172.108612283659 714.123760305057 437.500000767953
vertex 172.108612283659 706.029016193383 426.400000767953
vertex 172.108612283659 706.248797122893 426.930598868727
endloop
endfacet
facet normal -1.0 0.0 4.41506864629317e-015
outer loop
vertex 172.108612283659 714.123760305057 437.500000767953
vertex 172.108612283659 706.248797122893 426.930598868727
vertex 172.108612283659 706.323760305057 427.500000767953
endloop
endfacet
facet normal -1.0 0.0 4.41506864629317e-015
outer loop
vertex 172.108612283659 714.123760305057 437.500000767953
vertex 172.108612283659 706.323760305057 427.500000767953
vertex 172.108612283659 706.248797122893 428.069402667179
endloop
endfacet
facet normal -1.0 0.0 4.41506864629317e-015
outer loop
vertex 172.108612283659 714.123760305057 437.500000767953
vertex 172.108612283659 706.248797122893 428.069402667179
vertex 172.108612283659 706.029016193383 428.600000767953
endloop
endfacet
facet normal -1.0 0.0 4.41506864629317e-015
outer loop
vertex 172.108612283659 714.123760305057 437.500000767953
vertex 172.108612283659 706.029016193383 428.600000767953
vertex 172.108612283659 705.679395223668 429.055635686563
endloop
endfacet
facet normal -1.0 0.0 4.41506864629317e-015
outer loop
vertex 172.108612283659 714.123760305057 437.500000767953
vertex 172.108612283659 705.679395223668 429.055635686563
vertex 172.108612283659 705.223760305057 429.405256656279
endloop
endfacet
facet normal -1.0 0.0 4.41506864629317e-015
outer loop
vertex 172.108612283659 714.123760305057 437.500000767953
vertex 172.108612283659 705.223760305057 429.405256656279
vertex 172.108612283659 704.693162204283 429.625037585789
endloop
endfacet
facet normal -1.0 0.0 4.41506864629317e-015
outer loop
vertex 172.108612283659 714.123760305057 437.500000767953
vertex 172.108612283659 704.693162204283 429.625037585789
vertex 172.108612283659 704.123760305057 429.700000767953
endloop
endfacet
facet normal -1.0 0.0 4.41506864629317e-015
outer loop
vertex 172.108612283659 714.123760305057 437.500000767953
vertex 172.108612283659 704.123760305057 429.700000767953
vertex 172.108612283659 697.123760305057 437.500000767953
endloop
endfacet
facet normal 0.992483085154525 -0.122381884615968 -4.38188095124205e-015
outer loop
vertex 177.108609140159 695.052688855199 437.500000767953
vertex 176.94713305468 693.743162661859 417.500000767953
vertex 177.108609140159 695.052688855199 417.500000767953
endloop
endfacet
facet normal 0.976635709128077 -0.214901585978091 -4.31234301308869e-015
outer loop
vertex 176.94713305468 693.743162661859 417.500000767953
vertex 177.108609140159 695.052688855199 437.500000767953
vertex 176.94713305468 693.743162661859 437.500000767953
endloop
endfacet
facet normal 0.976635709128077 -0.214901585978091 -4.31234301308869e-015
outer loop
vertex 176.94713305468 693.743162661859 437.500000767953
vertex 176.487288446941 692.31004816808 417.500000767953
vertex 176.94713305468 693.743162661859 417.500000767953
endloop
endfacet
facet normal 0.923879500972273 -0.382683508506996 -4.07879610553563e-015
outer loop
vertex 176.487288446941 692.31004816808 417.500000767953
vertex 176.94713305468 693.743162661859 437.500000767953
vertex 176.487288446941 692.31004816808 437.500000767953
endloop
endfacet
facet normal 0.0 -1.0 0.0
outer loop
vertex 172.108612283659 706.323760305057 427.500000767953
vertex 177.10860912474 706.248797122893 426.930598868727
vertex 177.10860912474 706.323760305057 427.500000767953
endloop
endfacet
facet normal 1.14270385109579e-015 -0.965925826289062 0.258819045102547
outer loop
vertex 177.10860912474 706.248797122893 426.930598868727
vertex 172.108612283659 706.323760305057 427.500000767953
vertex 172.108612283659 706.248797122893 426.930598868727
endloop
endfacet
facet normal -4.41506864629317e-015 0.0 -1.0
outer loop
vertex 172.108612283659 704.123760305057 429.700000767953
vertex 177.10860912474 703.554358405832 429.625037585789
vertex 172.108612283659 703.554358405832 429.625037585789
endloop
endfacet
facet normal -4.26462883029368e-015 0.258819045102523 -0.965925826289068
outer loop
vertex 177.10860912474 703.554358405832 429.625037585789
vertex 172.108612283659 704.123760305057 429.700000767953
vertex 177.10860912474 704.123760305057 429.700000767953
endloop
endfacet
facet normal -0.992483102574524 -0.122381743344534 4.38188102815255e-015
outer loop
vertex 172.108612283659 601.123760305057 437.500000767953
vertex 171.947136387414 602.433286498397 417.500000767953
vertex 172.108612283659 601.123760305057 417.500000767953
endloop
endfacet
facet normal -0.976635735328162 -0.214901466909886 4.31191381389684e-015
outer loop
vertex 171.947136387414 602.433286498397 417.500000767953
vertex 172.108612283659 601.123760305057 437.500000767953
vertex 171.947136387414 602.433286498397 437.500000767953
endloop
endfacet
facet normal 0.976635735328162 -0.214901466909886 -4.31191381389684e-015
outer loop
vertex 157.270088179904 670.362218686532 437.500000767953
vertex 157.108612283659 669.052692493192 417.500000767953
vertex 157.270088179904 670.362218686532 417.500000767953
endloop
endfacet
facet normal 0.992483102574524 -0.122381743344534 -4.38188102815255e-015
outer loop
vertex 157.108612283659 669.052692493192 417.500000767953
vertex 157.270088179904 670.362218686532 437.500000767953
vertex 157.108612283659 669.052692493192 437.500000767953
endloop
endfacet
facet normal 4.26462883029368e-015 0.258819045102523 0.965925826289068
outer loop
vertex 177.10860912474 703.554358405832 425.374963950117
vertex 172.108612283659 703.023760305057 425.594744879627
vertex 177.10860912474 703.023760305057 425.594744879627
endloop
endfacet
facet normal 3.82356160714209e-015 0.499999999999988 0.866025403784446
outer loop
vertex 172.108612283659 703.023760305057 425.594744879627
vertex 177.10860912474 703.554358405832 425.374963950117
vertex 172.108612283659 703.554358405832 425.374963950117
endloop
endfacet
facet normal 0.976635735328162 0.214901466909886 -4.31148449916479e-015
outer loop
vertex 176.947136387414 604.504354310263 437.500000767953
vertex 177.108612283659 603.194828116923 417.500000767953
vertex 176.947136387414 604.504354310263 417.500000767953
endloop
endfacet
facet normal 0.992483102574524 0.122381743344534 -4.38188102815255e-015
outer loop
vertex 177.108612283659 603.194828116923 417.500000767953
vertex 176.947136387414 604.504354310263 437.500000767953
vertex 177.108612283659 603.194828116923 437.500000767953
endloop
endfacet
facet normal 0.842544035738568 0.538627466660739 -3.72051458411996e-015
outer loop
vertex 158.418138477 625.113663326048 437.500000767953
vertex 159.229932627219 624.073507773363 417.500000767953
vertex 158.418138477 625.113663326048 417.500000767953
endloop
endfacet
facet normal 0.788328492655874 0.615254571431142 -3.4805244109045e-015
outer loop
vertex 159.229932627219 624.073507773363 417.500000767953
vertex 158.418138477 625.113663326048 437.500000767953
vertex 159.229932627219 624.073507773363 437.500000767953
endloop
endfacet
facet normal -0.842544035738568 0.538627466660739 3.71926492650137e-015
outer loop
vertex 153.418138477 675.204925095931 437.500000767953
vertex 154.229932627219 676.245080648617 417.500000767953
vertex 153.418138477 675.204925095931 417.500000767953
endloop
endfacet
facet normal -0.788328492655874 0.615254571431142 3.4805244109045e-015
outer loop
vertex 154.229932627219 676.245080648617 417.500000767953
vertex 153.418138477 675.204925095931 437.500000767953
vertex 154.229932627219 676.245080648617 437.500000767953
endloop
endfacet
facet normal 0.923879532511282 0.382683432365102 -4.07961574095922e-015
outer loop
vertex 157.729932627219 626.452187429803 437.500000767953
vertex 158.418138477 625.113663326048 417.500000767953
vertex 157.729932627219 626.452187429803 417.500000767953
endloop
endfacet
facet normal 0.842544035738568 0.538627466660739 -3.72051458411996e-015
outer loop
vertex 158.418138477 625.113663326048 417.500000767953
vertex 157.729932627219 626.452187429803 437.500000767953
vertex 158.418138477 625.113663326048 437.500000767953
endloop
endfacet
facet normal 0.788328492655874 -0.615254571431142 -3.4805244109045e-015
outer loop
vertex 159.229932627219 674.174012836751 437.500000767953
vertex 158.418138477 673.133857284066 417.500000767953
vertex 159.229932627219 674.174012836751 417.500000767953
endloop
endfacet
facet normal 0.842544035738568 -0.538627466660739 -3.72051458411996e-015
outer loop
vertex 158.418138477 673.133857284066 417.500000767953
vertex 159.229932627219 674.174012836751 437.500000767953
vertex 158.418138477 673.133857284066 437.500000767953
endloop
endfacet
facet normal -0.992483102574524 0.122381743344534 4.38188102815255e-015
outer loop
vertex 152.108612283659 671.123760305057 437.500000767953
vertex 152.270088179904 672.433286498398 417.500000767953
vertex 152.108612283659 671.123760305057 417.500000767953
endloop
endfacet
facet normal -0.976635735328162 0.214901466909886 4.31191381389684e-015
outer loop
vertex 152.270088179904 672.433286498398 417.500000767953
vertex 152.108612283659 671.123760305057 437.500000767953
vertex 152.270088179904 672.433286498398 437.500000767953
endloop
endfacet
facet normal -0.707106781186548 0.707106781186548 3.12192497919801e-015
outer loop
vertex 154.229932627219 676.245080648617 417.500000767953
vertex 169.9872919401 692.002439961498 437.500000767953
vertex 169.9872919401 692.002439961498 417.500000767953
endloop
endfacet
facet normal -0.707106781186548 0.707106781186548 3.12192497919801e-015
outer loop
vertex 169.9872919401 692.002439961498 437.500000767953
vertex 154.229932627219 676.245080648617 417.500000767953
vertex 154.229932627219 676.245080648617 437.500000767953
endloop
endfacet
facet normal 0.707106781186548 -0.707106781186548 -3.12192497919801e-015
outer loop
vertex 159.229932627219 674.174012836751 437.500000767953
vertex 174.987288302107 689.93136851164 417.500000767953
vertex 174.987288302107 689.93136851164 437.500000767953
endloop
endfacet
facet normal 0.707106781186548 -0.707106781186548 -3.12192497919801e-015
outer loop
vertex 174.987288302107 689.93136851164 417.500000767953
vertex 159.229932627219 674.174012836751 437.500000767953
vertex 159.229932627219 674.174012836751 417.500000767953
endloop
endfacet
facet normal 1.0 0.0 -4.41506864629317e-015
outer loop
vertex 157.108612283659 669.052692493192 437.500000767953
vertex 157.108612283659 629.194828116922 417.500000767953
vertex 157.108612283659 669.052692493192 417.500000767953
endloop
endfacet
facet normal 1.0 0.0 -4.41506864629317e-015
outer loop
vertex 157.108612283659 629.194828116922 417.500000767953
vertex 157.108612283659 669.052692493192 437.500000767953
vertex 157.108612283659 629.194828116922 437.500000767953
endloop
endfacet
facet normal -0.923879532511282 -0.382683432365102 4.07961574095922e-015
outer loop
vertex 171.4872919401 603.866400992176 437.500000767953
vertex 170.799086090319 605.204925095931 417.500000767953
vertex 171.4872919401 603.866400992176 417.500000767953
endloop
endfacet
facet normal -0.842544035738568 -0.538627466660739 3.72051458411996e-015
outer loop
vertex 170.799086090319 605.204925095931 417.500000767953
vertex 171.4872919401 603.866400992176 437.500000767953
vertex 170.799086090319 605.204925095931 437.500000767953
endloop
endfacet
facet normal -0.923879532511282 0.382683432365102 4.07836737292588e-015
outer loop
vertex 152.729932627219 673.866400992177 437.500000767953
vertex 153.418138477 675.204925095931 417.500000767953
vertex 152.729932627219 673.866400992177 417.500000767953
endloop
endfacet
facet normal -0.842544035738568 0.538627466660739 3.71926492650137e-015
outer loop
vertex 153.418138477 675.204925095931 417.500000767953
vertex 152.729932627219 673.866400992177 437.500000767953
vertex 153.418138477 675.204925095931 437.500000767953
endloop
endfacet
facet normal 1.0 0.0 -4.41506864629317e-015
outer loop
vertex 177.108612283659 603.194828116923 417.500000767953
vertex 177.108612283659 594.693162204283 425.374963950117
vertex 177.108612283659 594.123760305057 425.300000767953
endloop
endfacet
facet normal 1.0 0.0 -4.41506864629317e-015
outer loop
vertex 177.108612283659 594.693162204283 425.374963950117
vertex 177.108612283659 603.194828116923 417.500000767953
vertex 177.108612283659 595.223760305057 425.594744879627
endloop
endfacet
facet normal 1.0 0.0 -4.41506864629317e-015
outer loop
vertex 177.108612283659 595.223760305057 425.594744879627
vertex 177.108612283659 603.194828116923 417.500000767953
vertex 177.108612283659 595.679395223668 425.944365849343
endloop
endfacet
facet normal 1.0 0.0 -4.41506864629317e-015
outer loop
vertex 177.108612283659 595.679395223668 425.944365849343
vertex 177.108612283659 603.194828116923 417.500000767953
vertex 177.108612283659 596.029016193383 426.400000767953
endloop
endfacet
facet normal 1.0 0.0 -4.41506864629317e-015
outer loop
vertex 177.108612283659 596.029016193383 426.400000767953
vertex 177.108612283659 603.194828116923 417.500000767953
vertex 177.108612283659 603.194828116923 437.500000767953
endloop
endfacet
facet normal 1.0 0.0 -4.41506864629317e-015
outer loop
vertex 177.108612283659 596.029016193383 426.400000767953
vertex 177.108612283659 603.194828116923 437.500000767953
vertex 177.108612283659 596.248797122893 426.930598868727
endloop
endfacet
facet normal 1.0 0.0 -4.41506864629317e-015
outer loop
vertex 177.108612283659 596.248797122893 426.930598868727
vertex 177.108612283659 603.194828116923 437.500000767953
vertex 177.108612283659 596.323760305057 427.500000767953
endloop
endfacet
facet normal 1.0 0.0 -4.41506864629317e-015
outer loop
vertex 177.108612283659 596.323760305057 427.500000767953
vertex 177.108612283659 603.194828116923 437.500000767953
vertex 177.108612283659 596.248797122893 428.069402667179
endloop
endfacet
facet normal 1.0 0.0 -4.41506864629317e-015
outer loop
vertex 177.108612283659 596.248797122893 428.069402667179
vertex 177.108612283659 603.194828116923 437.500000767953
vertex 177.108612283659 596.029016193383 428.600000767953
endloop
endfacet
facet normal 1.0 0.0 -4.41506864629317e-015
outer loop
vertex 177.108612283659 596.029016193383 428.600000767953
vertex 177.108612283659 603.194828116923 437.500000767953
vertex 177.108612283659 595.679395223668 429.055635686563
endloop
endfacet
facet normal 1.0 0.0 -4.41506864629317e-015
outer loop
vertex 177.108612283659 595.679395223668 429.055635686563
vertex 177.108612283659 603.194828116923 437.500000767953
vertex 177.108612283659 595.223760305057 429.405256656279
endloop
endfacet
facet normal 1.0 0.0 -4.41506864629317e-015
outer loop
vertex 177.108612283659 595.223760305057 429.405256656279
vertex 177.108612283659 603.194828116923 437.500000767953
vertex 177.108612283659 594.693162204283 429.625037585789
endloop
endfacet
facet normal 1.0 0.0 -4.41506864629317e-015
outer loop
vertex 177.108612283659 594.693162204283 429.625037585789
vertex 177.108612283659 603.194828116923 437.500000767953
vertex 177.108612283659 594.123760305057 429.700000767953
endloop
endfacet
facet normal 1.0 0.0 -4.41506864629317e-015
outer loop
vertex 177.108612283659 584.123760305057 417.500000767953
vertex 177.108612283659 592.218504416731 426.400000767953
vertex 177.108612283659 584.123760305057 437.500000767953
endloop
endfacet
facet normal 1.0 0.0 -4.41506864629317e-015
outer loop
vertex 177.108612283659 592.218504416731 426.400000767953
vertex 177.108612283659 584.123760305057 417.500000767953
vertex 177.108612283659 592.568125386447 425.944365849343
endloop
endfacet
facet normal 1.0 0.0 -4.41506864629317e-015
outer loop
vertex 177.108612283659 592.568125386447 425.944365849343
vertex 177.108612283659 584.123760305057 417.500000767953
vertex 177.108612283659 603.194828116923 417.500000767953
endloop
endfacet
facet normal 1.0 0.0 -4.41506864629317e-015
outer loop
vertex 177.108612283659 592.568125386447 425.944365849343
vertex 177.108612283659 603.194828116923 417.500000767953
vertex 177.108612283659 593.023760305057 425.594744879627
endloop
endfacet
facet normal 1.0 0.0 -4.41506864629317e-015
outer loop
vertex 177.108612283659 593.023760305057 425.594744879627
vertex 177.108612283659 603.194828116923 417.500000767953
vertex 177.108612283659 593.554358405832 425.374963950117
endloop
endfacet
facet normal 1.0 0.0 -4.41506864629317e-015
outer loop
vertex 177.108612283659 593.554358405832 425.374963950117
vertex 177.108612283659 603.194828116923 417.500000767953
vertex 177.108612283659 594.123760305057 425.300000767953
endloop
endfacet
facet normal 1.0 0.0 -4.41506864629317e-015
outer loop
vertex 177.108612283659 584.123760305057 437.500000767953
vertex 177.108612283659 592.218504416731 426.400000767953
vertex 177.108612283659 591.998723487221 426.930598868727
endloop
endfacet
facet normal 1.0 0.0 -4.41506864629317e-015
outer loop
vertex 177.108612283659 584.123760305057 437.500000767953
vertex 177.108612283659 591.998723487221 426.930598868727
vertex 177.108612283659 591.923760305057 427.500000767953
endloop
endfacet
facet normal 1.0 0.0 -4.41506864629317e-015
outer loop
vertex 177.108612283659 584.123760305057 437.500000767953
vertex 177.108612283659 591.923760305057 427.500000767953
vertex 177.108612283659 591.998723487221 428.069402667179
endloop
endfacet
facet normal 1.0 0.0 -4.41506864629317e-015
outer loop
vertex 177.108612283659 584.123760305057 437.500000767953
vertex 177.108612283659 591.998723487221 428.069402667179
vertex 177.108612283659 592.218504416731 428.600000767953
endloop
endfacet
facet normal 1.0 0.0 -4.41506864629317e-015
outer loop
vertex 177.108612283659 584.123760305057 437.500000767953
vertex 177.108612283659 592.218504416731 428.600000767953
vertex 177.108612283659 592.568125386447 429.055635686563
endloop
endfacet
facet normal 1.0 0.0 -4.41506864629317e-015
outer loop
vertex 177.108612283659 584.123760305057 437.500000767953
vertex 177.108612283659 592.568125386447 429.055635686563
vertex 177.108612283659 593.023760305057 429.405256656279
endloop
endfacet
facet normal 1.0 0.0 -4.41506864629317e-015
outer loop
vertex 177.108612283659 584.123760305057 437.500000767953
vertex 177.108612283659 593.023760305057 429.405256656279
vertex 177.108612283659 593.554358405832 429.625037585789
endloop
endfacet
facet normal 1.0 0.0 -4.41506864629317e-015
outer loop
vertex 177.108612283659 584.123760305057 437.500000767953
vertex 177.108612283659 593.554358405832 429.625037585789
vertex 177.108612283659 594.123760305057 429.700000767953
endloop
endfacet
facet normal 1.0 0.0 -4.41506864629317e-015
outer loop
vertex 177.108612283659 584.123760305057 437.500000767953
vertex 177.108612283659 594.123760305057 429.700000767953
vertex 177.108612283659 603.194828116923 437.500000767953
endloop
endfacet
facet normal -4.26462883029368e-015 -0.258819045102523 -0.965925826289068
outer loop
vertex 172.108612283659 704.693162204283 429.625037585789
vertex 177.10860912474 704.123760305057 429.700000767953
vertex 172.108612283659 704.123760305057 429.700000767953
endloop
endfacet
facet normal -4.41506864629317e-015 0.0 -1.0
outer loop
vertex 177.10860912474 704.123760305057 429.700000767953
vertex 172.108612283659 704.693162204283 429.625037585789
vertex 177.10860912474 704.693162204283 429.625037585789
endloop
endfacet
facet normal -0.707106781186548 -0.707106781186548 3.12192497919801e-015
outer loop
vertex 154.229932627219 622.002439961497 437.500000767953
vertex 169.9872919401 606.245080648617 417.500000767953
vertex 169.9872919401 606.245080648617 437.500000767953
endloop
endfacet
facet normal -0.707106781186548 -0.707106781186548 3.12192497919801e-015
outer loop
vertex 169.9872919401 606.245080648617 417.500000767953
vertex 154.229932627219 622.002439961497 437.500000767953
vertex 154.229932627219 622.002439961497 417.500000767953
endloop
endfacet
facet normal 0.842544035738568 -0.538627466660739 -3.72051458411996e-015
outer loop
vertex 158.418138477 673.133857284066 437.500000767953
vertex 157.729932627219 671.795333180311 417.500000767953
vertex 158.418138477 673.133857284066 417.500000767953
endloop
endfacet
facet normal 0.923879532511282 -0.382683432365102 -4.07961574095923e-015
outer loop
vertex 157.729932627219 671.795333180311 417.500000767953
vertex 158.418138477 673.133857284066 437.500000767953
vertex 157.729932627219 671.795333180311 437.500000767953
endloop
endfacet
facet normal 0.842544035738568 0.538627466660739 -3.71988975531067e-015
outer loop
vertex 175.799086090319 607.275992907797 437.500000767953
vertex 176.4872919401 605.937468804042 417.500000767953
vertex 175.799086090319 607.275992907797 417.500000767953
endloop
endfacet
facet normal 0.923879532511282 0.382683432365102 -4.07856268524221e-015
outer loop
vertex 176.4872919401 605.937468804042 417.500000767953
vertex 175.799086090319 607.275992907797 437.500000767953
vertex 176.4872919401 605.937468804042 437.500000767953
endloop
endfacet
facet normal -3.12192497919801e-015 -0.707106781186548 -0.707106781186548
outer loop
vertex 172.108612283659 705.679395223668 429.055635686563
vertex 177.10860912474 706.029016193383 428.600000767953
vertex 177.10860912474 705.679395223668 429.055635686563
endloop
endfacet
facet normal -2.20753432314639e-015 -0.866025403784464 -0.499999999999957
outer loop
vertex 177.10860912474 706.029016193383 428.600000767953
vertex 172.108612283659 705.679395223668 429.055635686563
vertex 172.108612283659 706.029016193383 428.600000767953
endloop
endfacet
facet normal -2.20753432314639e-015 -0.866025403784464 -0.499999999999957
outer loop
vertex 172.108612283659 706.029016193383 428.600000767953
vertex 177.10860912474 706.248797122893 428.069402667179
vertex 177.10860912474 706.029016193383 428.600000767953
endloop
endfacet
facet normal -1.14270385109579e-015 -0.965925826289062 -0.258819045102547
outer loop
vertex 177.10860912474 706.248797122893 428.069402667179
vertex 172.108612283659 706.029016193383 428.600000767953
vertex 172.108612283659 706.248797122893 428.069402667179
endloop
endfacet
facet normal 0.0 1.0 0.0
outer loop
vertex 172.108612283659 591.923760305057 427.500000767953
vertex 177.108612283659 591.998723487221 428.069402667179
vertex 177.108612283659 591.923760305057 427.500000767953
endloop
endfacet
facet normal -1.14270385109546e-015 0.965925826289082 -0.258819045102471
outer loop
vertex 177.108612283659 591.998723487221 428.069402667179
vertex 172.108612283659 591.923760305057 427.500000767953
vertex 172.108612283659 591.998723487221 428.069402667179
endloop
endfacet
facet normal -0.842544035738568 -0.538627466660739 3.72051458411996e-015
outer loop
vertex 170.799086090319 605.204925095931 437.500000767953
vertex 169.9872919401 606.245080648617 417.500000767953
vertex 170.799086090319 605.204925095931 417.500000767953
endloop
endfacet
facet normal -0.788328492655874 -0.615254571431142 3.4805244109045e-015
outer loop
vertex 169.9872919401 606.245080648617 417.500000767953
vertex 170.799086090319 605.204925095931 437.500000767953
vertex 169.9872919401 606.245080648617 437.500000767953
endloop
endfacet
facet normal -0.842544035738568 0.538627466660739 3.72051458411996e-015
outer loop
vertex 170.799086090319 693.042595514183 437.500000767953
vertex 171.4872919401 694.381119617938 417.500000767953
vertex 170.799086090319 693.042595514183 417.500000767953
endloop
endfacet
facet normal -0.923879532511282 0.382683432365102 4.07961574095923e-015
outer loop
vertex 171.4872919401 694.381119617938 417.500000767953
vertex 170.799086090319 693.042595514183 437.500000767953
vertex 171.4872919401 694.381119617938 437.500000767953
endloop
endfacet
facet normal 2.20753432314639e-015 0.866025403784464 0.499999999999957
outer loop
vertex 172.108612283659 702.218504416731 426.400000767953
vertex 177.10860912474 701.998723487221 426.930598868727
vertex 177.10860912474 702.218504416731 426.400000767953
endloop
endfacet
facet normal 1.14270385109579e-015 0.965925826289062 0.258819045102547
outer loop
vertex 177.10860912474 701.998723487221 426.930598868727
vertex 172.108612283659 702.218504416731 426.400000767953
vertex 172.108612283659 701.998723487221 426.930598868727
endloop
endfacet
facet normal 1.14270385109579e-015 0.965925826289062 0.258819045102547
outer loop
vertex 172.108612283659 701.998723487221 426.930598868727
vertex 177.10860912474 701.923760305057 427.500000767953
vertex 177.10860912474 701.998723487221 426.930598868727
endloop
endfacet
facet normal 0.0 1.0 0.0
outer loop
vertex 177.10860912474 701.923760305057 427.500000767953
vertex 172.108612283659 701.998723487221 426.930598868727
vertex 172.108612283659 701.923760305057 427.500000767953
endloop
endfacet
facet normal -1.14270385109546e-015 0.965925826289082 -0.258819045102471
outer loop
vertex 172.108612283659 591.998723487221 428.069402667179
vertex 177.108612283659 592.218504416731 428.600000767953
vertex 177.108612283659 591.998723487221 428.069402667179
endloop
endfacet
facet normal -2.20753432314639e-015 0.866025403784464 -0.499999999999957
outer loop
vertex 177.108612283659 592.218504416731 428.600000767953
vertex 172.108612283659 591.998723487221 428.069402667179
vertex 172.108612283659 592.218504416731 428.600000767953
endloop
endfacet
facet normal -0.923879532511282 -0.382683432365102 4.07836737292588e-015
outer loop
vertex 152.729932627219 624.381119617938 437.500000767953
vertex 152.270088179904 625.814234111717 417.500000767953
vertex 152.729932627219 624.381119617938 417.500000767953
endloop
endfacet
facet normal -0.976635735328162 -0.214901466909886 4.31191381389684e-015
outer loop
vertex 152.270088179904 625.814234111717 417.500000767953
vertex 152.729932627219 624.381119617938 437.500000767953
vertex 152.270088179904 625.814234111717 437.500000767953
endloop
endfacet
facet normal 1.14270385109546e-015 0.965925826289082 0.258819045102471
outer loop
vertex 172.108612283659 591.998723487221 426.930598868727
vertex 177.108612283659 591.923760305057 427.500000767953
vertex 177.108612283659 591.998723487221 426.930598868727
endloop
endfacet
facet normal 0.0 1.0 0.0
outer loop
vertex 177.108612283659 591.923760305057 427.500000767953
vertex 172.108612283659 591.998723487221 426.930598868727
vertex 172.108612283659 591.923760305057 427.500000767953
endloop
endfacet
facet normal -1.14270385109579e-015 -0.965925826289062 -0.258819045102547
outer loop
vertex 172.108612283659 706.248797122893 428.069402667179
vertex 177.10860912474 706.323760305057 427.500000767953
vertex 177.10860912474 706.248797122893 428.069402667179
endloop
endfacet
facet normal 0.0 -1.0 0.0
outer loop
vertex 177.10860912474 706.323760305057 427.500000767953
vertex 172.108612283659 706.248797122893 428.069402667179
vertex 172.108612283659 706.323760305057 427.500000767953
endloop
endfacet
facet normal 4.26462883029368e-015 0.258819045102523 0.965925826289068
outer loop
vertex 177.108612283659 593.554358405832 425.374963950117
vertex 172.108612283659 593.023760305057 425.594744879627
vertex 177.108612283659 593.023760305057 425.594744879627
endloop
endfacet
facet normal 3.82356160714205e-015 0.500000000000002 0.866025403784438
outer loop
vertex 172.108612283659 593.023760305057 425.594744879627
vertex 177.108612283659 593.554358405832 425.374963950117
vertex 172.108612283659 593.554358405832 425.374963950117
endloop
endfacet
facet normal -0.923879532511282 0.382683432365102 4.07961574095923e-015
outer loop
vertex 171.4872919401 694.381119617938 437.500000767953
vertex 171.947136387414 695.814234111717 417.500000767953
vertex 171.4872919401 694.381119617938 417.500000767953
endloop
endfacet
facet normal -0.976635735328162 0.214901466909886 4.31191381389685e-015
outer loop
vertex 171.947136387414 695.814234111717 417.500000767953
vertex 171.4872919401 694.381119617938 437.500000767953
vertex 171.947136387414 695.814234111717 437.500000767953
endloop
endfacet
facet normal 2.20753432314644e-015 0.866025403784458 0.499999999999967
outer loop
vertex 172.108612283659 592.218504416731 426.400000767953
vertex 177.108612283659 591.998723487221 426.930598868727
vertex 177.108612283659 592.218504416731 426.400000767953
endloop
endfacet
facet normal 1.14270385109546e-015 0.965925826289082 0.258819045102471
outer loop
vertex 177.108612283659 591.998723487221 426.930598868727
vertex 172.108612283659 592.218504416731 426.400000767953
vertex 172.108612283659 591.998723487221 426.930598868727
endloop
endfacet
facet normal 3.121924979198e-015 0.70710678118655 0.707106781186545
outer loop
vertex 172.108612283659 592.568125386447 425.944365849343
vertex 177.108612283659 592.218504416731 426.400000767953
vertex 177.108612283659 592.568125386447 425.944365849343
endloop
endfacet
facet normal 2.20753432314644e-015 0.866025403784458 0.499999999999967
outer loop
vertex 177.108612283659 592.218504416731 426.400000767953
vertex 172.108612283659 592.568125386447 425.944365849343
vertex 172.108612283659 592.218504416731 426.400000767953
endloop
endfacet
facet normal 3.82356160714205e-015 0.500000000000002 0.866025403784438
outer loop
vertex 177.108612283659 593.023760305057 425.594744879627
vertex 172.108612283659 592.568125386447 425.944365849343
vertex 177.108612283659 592.568125386447 425.944365849343
endloop
endfacet
facet normal 3.121924979198e-015 0.70710678118655 0.707106781186545
outer loop
vertex 172.108612283659 592.568125386447 425.944365849343
vertex 177.108612283659 593.023760305057 425.594744879627
vertex 172.108612283659 593.023760305057 425.594744879627
endloop
endfacet
facet normal 0.0 1.0 0.0
outer loop
vertex 172.108612283659 701.923760305057 427.500000767953
vertex 177.10860912474 701.998723487221 428.069402667179
vertex 177.10860912474 701.923760305057 427.500000767953
endloop
endfacet
facet normal -1.14270385109579e-015 0.965925826289062 -0.258819045102547
outer loop
vertex 177.10860912474 701.998723487221 428.069402667179
vertex 172.108612283659 701.923760305057 427.500000767953
vertex 172.108612283659 701.998723487221 428.069402667179
endloop
endfacet
facet normal -1.14270385109579e-015 0.965925826289062 -0.258819045102547
outer loop
vertex 172.108612283659 701.998723487221 428.069402667179
vertex 177.10860912474 702.218504416731 428.600000767953
vertex 177.10860912474 701.998723487221 428.069402667179
endloop
endfacet
facet normal -2.20753432314639e-015 0.866025403784464 -0.499999999999957
outer loop
vertex 177.10860912474 702.218504416731 428.600000767953
vertex 172.108612283659 701.998723487221 428.069402667179
vertex 172.108612283659 702.218504416731 428.600000767953
endloop
endfacet
facet normal -0.842544035738568 -0.538627466660739 3.71926492650137e-015
outer loop
vertex 153.418138477 623.042595514183 437.500000767953
vertex 152.729932627219 624.381119617938 417.500000767953
vertex 153.418138477 623.042595514183 417.500000767953
endloop
endfacet
facet normal -0.923879532511282 -0.382683432365102 4.07836737292588e-015
outer loop
vertex 152.729932627219 624.381119617938 417.500000767953
vertex 153.418138477 623.042595514183 437.500000767953
vertex 152.729932627219 624.381119617938 437.500000767953
endloop
endfacet
facet normal -2.20753432314639e-015 0.866025403784464 -0.499999999999957
outer loop
vertex 172.108612283659 702.218504416731 428.600000767953
vertex 177.10860912474 702.568125386447 429.055635686563
vertex 177.10860912474 702.218504416731 428.600000767953
endloop
endfacet
facet normal -3.12192497919801e-015 0.707106781186548 -0.707106781186548
outer loop
vertex 177.10860912474 702.568125386447 429.055635686563
vertex 172.108612283659 702.218504416731 428.600000767953
vertex 172.108612283659 702.568125386447 429.055635686563
endloop
endfacet
facet normal -3.82356160714209e-015 0.499999999999988 -0.866025403784446
outer loop
vertex 172.108612283659 703.023760305057 429.405256656279
vertex 177.10860912474 702.568125386447 429.055635686563
vertex 172.108612283659 702.568125386447 429.055635686563
endloop
endfacet
facet normal -3.12192497919801e-015 0.707106781186548 -0.707106781186548
outer loop
vertex 177.10860912474 702.568125386447 429.055635686563
vertex 172.108612283659 703.023760305057 429.405256656279
vertex 177.10860912474 703.023760305057 429.405256656279
endloop
endfacet
facet normal -4.26462883029368e-015 0.258819045102523 -0.965925826289068
outer loop
vertex 172.108612283659 703.554358405832 429.625037585789
vertex 177.10860912474 703.023760305057 429.405256656279
vertex 172.108612283659 703.023760305057 429.405256656279
endloop
endfacet
facet normal -3.82356160714209e-015 0.499999999999988 -0.866025403784446
outer loop
vertex 177.10860912474 703.023760305057 429.405256656279
vertex 172.108612283659 703.554358405832 429.625037585789
vertex 177.10860912474 703.554358405832 429.625037585789
endloop
endfacet
facet normal -0.976635735328162 -0.214901466909886 4.31191381389684e-015
outer loop
vertex 152.270088179904 625.814234111717 437.500000767953
vertex 152.108612283659 627.123760305057 417.500000767953
vertex 152.270088179904 625.814234111717 417.500000767953
endloop
endfacet
facet normal -0.992483102574524 -0.122381743344534 4.38188102815255e-015
outer loop
vertex 152.108612283659 627.123760305057 417.500000767953
vertex 152.270088179904 625.814234111717 437.500000767953
vertex 152.108612283659 627.123760305057 437.500000767953
endloop
endfacet
facet normal -2.20753432314639e-015 0.866025403784464 -0.499999999999957
outer loop
vertex 172.108612283659 592.218504416731 428.600000767953
vertex 177.108612283659 592.568125386447 429.055635686563
vertex 177.108612283659 592.218504416731 428.600000767953
endloop
endfacet
facet normal -3.12192497919801e-015 0.707106781186548 -0.707106781186548
outer loop
vertex 177.108612283659 592.568125386447 429.055635686563
vertex 172.108612283659 592.218504416731 428.600000767953
vertex 172.108612283659 592.568125386447 429.055635686563
endloop
endfacet
facet normal -3.82356160714209e-015 0.499999999999988 -0.866025403784446
outer loop
vertex 172.108612283659 593.023760305057 429.405256656279
vertex 177.108612283659 592.568125386447 429.055635686563
vertex 172.108612283659 592.568125386447 429.055635686563
endloop
endfacet
facet normal -3.12192497919801e-015 0.707106781186548 -0.707106781186548
outer loop
vertex 177.108612283659 592.568125386447 429.055635686563
vertex 172.108612283659 593.023760305057 429.405256656279
vertex 177.108612283659 593.023760305057 429.405256656279
endloop
endfacet
facet normal -4.26462883029368e-015 0.258819045102523 -0.965925826289068
outer loop
vertex 172.108612283659 593.554358405832 429.625037585789
vertex 177.108612283659 593.023760305057 429.405256656279
vertex 172.108612283659 593.023760305057 429.405256656279
endloop
endfacet
facet normal -3.82356160714209e-015 0.499999999999988 -0.866025403784446
outer loop
vertex 177.108612283659 593.023760305057 429.405256656279
vertex 172.108612283659 593.554358405832 429.625037585789
vertex 177.108612283659 593.554358405832 429.625037585789
endloop
endfacet
facet normal -4.41506864629317e-015 0.0 -1.0
outer loop
vertex 172.108612283659 594.123760305057 429.700000767953
vertex 177.108612283659 593.554358405832 429.625037585789
vertex 172.108612283659 593.554358405832 429.625037585789
endloop
endfacet
facet normal -4.26462883029368e-015 0.258819045102523 -0.965925826289068
outer loop
vertex 177.108612283659 593.554358405832 429.625037585789
vertex 172.108612283659 594.123760305057 429.700000767953
vertex 177.108612283659 594.123760305057 429.700000767953
endloop
endfacet
facet normal -4.26462883029368e-015 -0.258819045102523 -0.965925826289068
outer loop
vertex 172.108612283659 594.693162204283 429.625037585789
vertex 177.108612283659 594.123760305057 429.700000767953
vertex 172.108612283659 594.123760305057 429.700000767953
endloop
endfacet
facet normal -4.41506864629317e-015 0.0 -1.0
outer loop
vertex 177.108612283659 594.123760305057 429.700000767953
vertex 172.108612283659 594.693162204283 429.625037585789
vertex 177.108612283659 594.693162204283 429.625037585789
endloop
endfacet
facet normal -3.82356160714205e-015 -0.500000000000002 -0.866025403784438
outer loop
vertex 172.108612283659 595.223760305057 429.405256656279
vertex 177.108612283659 594.693162204283 429.625037585789
vertex 172.108612283659 594.693162204283 429.625037585789
endloop
endfacet
facet normal -4.26462883029368e-015 -0.258819045102523 -0.965925826289068
outer loop
vertex 177.108612283659 594.693162204283 429.625037585789
vertex 172.108612283659 595.223760305057 429.405256656279
vertex 177.108612283659 595.223760305057 429.405256656279
endloop
endfacet
facet normal -3.121924979198e-015 -0.70710678118655 -0.707106781186545
outer loop
vertex 172.108612283659 595.679395223668 429.055635686563
vertex 177.108612283659 595.223760305057 429.405256656279
vertex 172.108612283659 595.223760305057 429.405256656279
endloop
endfacet
facet normal -3.82356160714205e-015 -0.500000000000002 -0.866025403784438
outer loop
vertex 177.108612283659 595.223760305057 429.405256656279
vertex 172.108612283659 595.679395223668 429.055635686563
vertex 177.108612283659 595.679395223668 429.055635686563
endloop
endfacet
facet normal -3.121924979198e-015 -0.70710678118655 -0.707106781186545
outer loop
vertex 172.108612283659 595.679395223668 429.055635686563
vertex 177.108612283659 596.029016193383 428.600000767953
vertex 177.108612283659 595.679395223668 429.055635686563
endloop
endfacet
facet normal -2.20753432314644e-015 -0.866025403784458 -0.499999999999967
outer loop
vertex 177.108612283659 596.029016193383 428.600000767953
vertex 172.108612283659 595.679395223668 429.055635686563
vertex 172.108612283659 596.029016193383 428.600000767953
endloop
endfacet
facet normal -2.20753432314644e-015 -0.866025403784458 -0.499999999999967
outer loop
vertex 172.108612283659 596.029016193383 428.600000767953
vertex 177.108612283659 596.248797122893 428.069402667179
vertex 177.108612283659 596.029016193383 428.600000767953
endloop
endfacet
facet normal -1.14270385109546e-015 -0.965925826289082 -0.258819045102471
outer loop
vertex 177.108612283659 596.248797122893 428.069402667179
vertex 172.108612283659 596.029016193383 428.600000767953
vertex 172.108612283659 596.248797122893 428.069402667179
endloop
endfacet
facet normal -1.14270385109546e-015 -0.965925826289082 -0.258819045102471
outer loop
vertex 172.108612283659 596.248797122893 428.069402667179
vertex 177.108612283659 596.323760305057 427.500000767953
vertex 177.108612283659 596.248797122893 428.069402667179
endloop
endfacet
facet normal 0.0 -1.0 0.0
outer loop
vertex 177.108612283659 596.323760305057 427.500000767953
vertex 172.108612283659 596.248797122893 428.069402667179
vertex 172.108612283659 596.323760305057 427.500000767953
endloop
endfacet
facet normal 0.0 -1.0 0.0
outer loop
vertex 172.108612283659 596.323760305057 427.500000767953
vertex 177.108612283659 596.248797122893 426.930598868727
vertex 177.108612283659 596.323760305057 427.500000767953
endloop
endfacet
facet normal 1.14270385109546e-015 -0.965925826289082 0.258819045102471
outer loop
vertex 177.108612283659 596.248797122893 426.930598868727
vertex 172.108612283659 596.323760305057 427.500000767953
vertex 172.108612283659 596.248797122893 426.930598868727
endloop
endfacet
facet normal 1.14270385109546e-015 -0.965925826289082 0.258819045102471
outer loop
vertex 172.108612283659 596.248797122893 426.930598868727
vertex 177.108612283659 596.029016193383 426.400000767953
vertex 177.108612283659 596.248797122893 426.930598868727
endloop
endfacet
facet normal 2.20753432314639e-015 -0.866025403784464 0.499999999999957
outer loop
vertex 177.108612283659 596.029016193383 426.400000767953
vertex 172.108612283659 596.248797122893 426.930598868727
vertex 172.108612283659 596.029016193383 426.400000767953
endloop
endfacet
facet normal 2.20753432314639e-015 -0.866025403784464 0.499999999999957
outer loop
vertex 172.108612283659 596.029016193383 426.400000767953
vertex 177.108612283659 595.679395223668 425.944365849343
vertex 177.108612283659 596.029016193383 426.400000767953
endloop
endfacet
facet normal 3.12192497919801e-015 -0.707106781186548 0.707106781186548
outer loop
vertex 177.108612283659 595.679395223668 425.944365849343
vertex 172.108612283659 596.029016193383 426.400000767953
vertex 172.108612283659 595.679395223668 425.944365849343
endloop
endfacet
facet normal 3.12192497919801e-015 -0.707106781186548 0.707106781186548
outer loop
vertex 177.108612283659 595.679395223668 425.944365849343
vertex 172.108612283659 595.223760305057 425.594744879627
vertex 177.108612283659 595.223760305057 425.594744879627
endloop
endfacet
facet normal 3.82356160714209e-015 -0.499999999999988 0.866025403784446
outer loop
vertex 172.108612283659 595.223760305057 425.594744879627
vertex 177.108612283659 595.679395223668 425.944365849343
vertex 172.108612283659 595.679395223668 425.944365849343
endloop
endfacet
facet normal 3.82356160714209e-015 -0.499999999999988 0.866025403784446
outer loop
vertex 177.108612283659 595.223760305057 425.594744879627
vertex 172.108612283659 594.693162204283 425.374963950117
vertex 177.108612283659 594.693162204283 425.374963950117
endloop
endfacet
facet normal 4.26462883029368e-015 -0.258819045102523 0.965925826289068
outer loop
vertex 172.108612283659 594.693162204283 425.374963950117
vertex 177.108612283659 595.223760305057 425.594744879627
vertex 172.108612283659 595.223760305057 425.594744879627
endloop
endfacet
facet normal 4.26462883029368e-015 -0.258819045102523 0.965925826289068
outer loop
vertex 177.108612283659 594.693162204283 425.374963950117
vertex 172.108612283659 594.123760305057 425.300000767953
vertex 177.108612283659 594.123760305057 425.300000767953
endloop
endfacet
facet normal 4.41506864629317e-015 0.0 1.0
outer loop
vertex 172.108612283659 594.123760305057 425.300000767953
vertex 177.108612283659 594.693162204283 425.374963950117
vertex 172.108612283659 594.693162204283 425.374963950117
endloop
endfacet
facet normal 4.41506864629317e-015 0.0 1.0
outer loop
vertex 177.108612283659 594.123760305057 425.300000767953
vertex 172.108612283659 593.554358405832 425.374963950117
vertex 177.108612283659 593.554358405832 425.374963950117
endloop
endfacet
facet normal 4.26462883029368e-015 0.258819045102523 0.965925826289068
outer loop
vertex 172.108612283659 593.554358405832 425.374963950117
vertex 177.108612283659 594.123760305057 425.300000767953
vertex 172.108612283659 594.123760305057 425.300000767953
endloop
endfacet
facet normal -0.788328492655874 -0.615254571431142 3.48052441090451e-015
outer loop
vertex 154.229932627219 622.002439961497 437.500000767953
vertex 153.418138477 623.042595514183 417.500000767953
vertex 154.229932627219 622.002439961497 417.500000767953
endloop
endfacet
facet normal -0.842544035738568 -0.538627466660739 3.71926492650137e-015
outer loop
vertex 153.418138477 623.042595514183 417.500000767953
vertex 154.229932627219 622.002439961497 437.500000767953
vertex 153.418138477 623.042595514183 437.500000767953
endloop
endfacet
facet normal 0.788328492655874 0.615254571431142 -3.4805244109045e-015
outer loop
vertex 174.9872919401 608.316148460482 437.500000767953
vertex 175.799086090319 607.275992907797 417.500000767953
vertex 174.9872919401 608.316148460482 417.500000767953
endloop
endfacet
facet normal 0.842544035738568 0.538627466660739 -3.71988975531067e-015
outer loop
vertex 175.799086090319 607.275992907797 417.500000767953
vertex 174.9872919401 608.316148460482 437.500000767953
vertex 175.799086090319 607.275992907797 437.500000767953
endloop
endfacet
facet normal 5.0186228240858e-015 1.44629503766737e-016 1.0
outer loop
vertex 177.108612283659 603.194828116923 437.500000767953
vertex 172.108612283659 584.123760305057 437.500000767953
vertex 177.108612283659 584.123760305057 437.500000767953
endloop
endfacet
facet normal 5.0186228240858e-015 1.44629503766737e-016 1.0
outer loop
vertex 172.108612283659 584.123760305057 437.500000767953
vertex 177.108612283659 603.194828116923 437.500000767953
vertex 172.108612283659 601.123760305057 437.500000767953
endloop
endfacet
facet normal 5.0186228240858e-015 1.44629503766737e-016 1.0
outer loop
vertex 172.108612283659 601.123760305057 437.500000767953
vertex 177.108612283659 603.194828116923 437.500000767953
vertex 171.947136387414 602.433286498397 437.500000767953
endloop
endfacet
facet normal 5.0186228240858e-015 1.44629503766737e-016 1.0
outer loop
vertex 171.947136387414 602.433286498397 437.500000767953
vertex 177.108612283659 603.194828116923 437.500000767953
vertex 171.4872919401 603.866400992176 437.500000767953
endloop
endfacet
facet normal 5.0186228240858e-015 1.44629503766737e-016 1.0
outer loop
vertex 171.4872919401 603.866400992176 437.500000767953
vertex 177.108612283659 603.194828116923 437.500000767953
vertex 176.947136387414 604.504354310263 437.500000767953
endloop
endfacet
facet normal 5.0186228240858e-015 1.44629503766737e-016 1.0
outer loop
vertex 171.4872919401 603.866400992176 437.500000767953
vertex 176.947136387414 604.504354310263 437.500000767953
vertex 170.799086090319 605.204925095931 437.500000767953
endloop
endfacet
facet normal 5.0186228240858e-015 1.44629503766737e-016 1.0
outer loop
vertex 170.799086090319 605.204925095931 437.500000767953
vertex 176.947136387414 604.504354310263 437.500000767953
vertex 176.4872919401 605.937468804042 437.500000767953
endloop
endfacet
facet normal 5.0186228240858e-015 1.44629503766737e-016 1.0
outer loop
vertex 170.799086090319 605.204925095931 437.500000767953
vertex 176.4872919401 605.937468804042 437.500000767953
vertex 169.9872919401 606.245080648617 437.500000767953
endloop
endfacet
facet normal 5.0186228240858e-015 1.44629503766737e-016 1.0
outer loop
vertex 169.9872919401 606.245080648617 437.500000767953
vertex 176.4872919401 605.937468804042 437.500000767953
vertex 175.799086090319 607.275992907797 437.500000767953
endloop
endfacet
facet normal 5.0186228240858e-015 1.44629503766737e-016 1.0
outer loop
vertex 169.9872919401 606.245080648617 437.500000767953
vertex 175.799086090319 607.275992907797 437.500000767953
vertex 154.229932627219 622.002439961497 437.500000767953
endloop
endfacet
facet normal 5.0186228240858e-015 1.44629503766737e-016 1.0
outer loop
vertex 154.229932627219 622.002439961497 437.500000767953
vertex 175.799086090319 607.275992907797 437.500000767953
vertex 174.9872919401 608.316148460482 437.500000767953
endloop
endfacet
facet normal 5.0186228240858e-015 1.44629503766737e-016 1.0
outer loop
vertex 154.229932627219 622.002439961497 437.500000767953
vertex 174.9872919401 608.316148460482 437.500000767953
vertex 159.229932627219 624.073507773363 437.500000767953
endloop
endfacet
facet normal 5.0186228240858e-015 1.44629503766737e-016 1.0
outer loop
vertex 154.229932627219 622.002439961497 437.500000767953
vertex 159.229932627219 624.073507773363 437.500000767953
vertex 153.418138477 623.042595514183 437.500000767953
endloop
endfacet
facet normal 5.0186228240858e-015 1.44629503766737e-016 1.0
outer loop
vertex 153.418138477 623.042595514183 437.500000767953
vertex 159.229932627219 624.073507773363 437.500000767953
vertex 152.729932627219 624.381119617938 437.500000767953
endloop
endfacet
facet normal 5.0186228240858e-015 1.44629503766737e-016 1.0
outer loop
vertex 152.729932627219 624.381119617938 437.500000767953
vertex 159.229932627219 624.073507773363 437.500000767953
vertex 158.418138477 625.113663326048 437.500000767953
endloop
endfacet
facet normal 5.0186228240858e-015 1.44629503766737e-016 1.0
outer loop
vertex 152.729932627219 624.381119617938 437.500000767953
vertex 158.418138477 625.113663326048 437.500000767953
vertex 152.270088179904 625.814234111717 437.500000767953
endloop
endfacet
facet normal 5.0186228240858e-015 1.44629503766737e-016 1.0
outer loop
vertex 152.270088179904 625.814234111717 437.500000767953
vertex 158.418138477 625.113663326048 437.500000767953
vertex 157.729932627219 626.452187429803 437.500000767953
endloop
endfacet
facet normal 5.0186228240858e-015 1.44629503766737e-016 1.0
outer loop
vertex 152.270088179904 625.814234111717 437.500000767953
vertex 157.729932627219 626.452187429803 437.500000767953
vertex 152.108612283659 627.123760305057 437.500000767953
endloop
endfacet
facet normal 5.0186228240858e-015 1.44629503766737e-016 1.0
outer loop
vertex 152.108612283659 627.123760305057 437.500000767953
vertex 157.729932627219 626.452187429803 437.500000767953
vertex 157.270088179904 627.885301923582 437.500000767953
endloop
endfacet
facet normal 5.0186228240858e-015 1.44629503766737e-016 1.0
outer loop
vertex 152.108612283659 627.123760305057 437.500000767953
vertex 157.270088179904 627.885301923582 437.500000767953
vertex 157.108612283659 629.194828116922 437.500000767953
endloop
endfacet
facet normal 5.0186228240858e-015 1.44629503766737e-016 1.0
outer loop
vertex 152.108612283659 627.123760305057 437.500000767953
vertex 157.108612283659 629.194828116922 437.500000767953
vertex 152.108612283659 671.123760305057 437.500000767953
endloop
endfacet
facet normal 5.0186228240858e-015 1.44629503766737e-016 1.0
outer loop
vertex 152.108612283659 671.123760305057 437.500000767953
vertex 157.108612283659 629.194828116922 437.500000767953
vertex 157.108612283659 669.052692493192 437.500000767953
endloop
endfacet
facet normal 5.0186228240858e-015 1.44629503766737e-016 1.0
outer loop
vertex 152.108612283659 671.123760305057 437.500000767953
vertex 157.108612283659 669.052692493192 437.500000767953
vertex 157.270088179904 670.362218686532 437.500000767953
endloop
endfacet
facet normal 5.0186228240858e-015 1.44629503766737e-016 1.0
outer loop
vertex 152.108612283659 671.123760305057 437.500000767953
vertex 157.270088179904 670.362218686532 437.500000767953
vertex 157.729932627219 671.795333180311 437.500000767953
endloop
endfacet
facet normal 5.0186228240858e-015 1.44629503766737e-016 1.0
outer loop
vertex 152.108612283659 671.123760305057 437.500000767953
vertex 157.729932627219 671.795333180311 437.500000767953
vertex 152.270088179904 672.433286498398 437.500000767953
endloop
endfacet
facet normal 5.0186228240858e-015 1.44629503766737e-016 1.0
outer loop
vertex 152.270088179904 672.433286498398 437.500000767953
vertex 157.729932627219 671.795333180311 437.500000767953
vertex 158.418138477 673.133857284066 437.500000767953
endloop
endfacet
facet normal 5.0186228240858e-015 1.44629503766737e-016 1.0
outer loop
vertex 152.270088179904 672.433286498398 437.500000767953
vertex 158.418138477 673.133857284066 437.500000767953
vertex 152.729932627219 673.866400992177 437.500000767953
endloop
endfacet
facet normal 5.0186228240858e-015 1.44629503766737e-016 1.0
outer loop
vertex 152.729932627219 673.866400992177 437.500000767953
vertex 158.418138477 673.133857284066 437.500000767953
vertex 159.229932627219 674.174012836751 437.500000767953
endloop
endfacet
facet normal 5.0186228240858e-015 1.44629503766737e-016 1.0
outer loop
vertex 152.729932627219 673.866400992177 437.500000767953
vertex 159.229932627219 674.174012836751 437.500000767953
vertex 153.418138477 675.204925095931 437.500000767953
endloop
endfacet
facet normal 5.0186228240858e-015 1.44629503766737e-016 1.0
outer loop
vertex 153.418138477 675.204925095931 437.500000767953
vertex 159.229932627219 674.174012836751 437.500000767953
vertex 174.987288302107 689.93136851164 437.500000767953
endloop
endfacet
facet normal 5.0186228240858e-015 1.44629503766737e-016 1.0
outer loop
vertex 153.418138477 675.204925095931 437.500000767953
vertex 174.987288302107 689.93136851164 437.500000767953
vertex 154.229932627219 676.245080648617 437.500000767953
endloop
endfacet
facet normal 5.0186228240858e-015 1.44629503766737e-016 1.0
outer loop
vertex 154.229932627219 676.245080648617 437.500000767953
vertex 174.987288302107 689.93136851164 437.500000767953
vertex 169.9872919401 692.002439961498 437.500000767953
endloop
endfacet
facet normal 5.0186228240858e-015 1.44629503766737e-016 1.0
outer loop
vertex 169.9872919401 692.002439961498 437.500000767953
vertex 174.987288302107 689.93136851164 437.500000767953
vertex 175.799082489968 690.971524064325 437.500000767953
endloop
endfacet
facet normal 5.0186228240858e-015 1.44629503766737e-016 1.0
outer loop
vertex 169.9872919401 692.002439961498 437.500000767953
vertex 175.799082489968 690.971524064325 437.500000767953
vertex 176.487288446941 692.31004816808 437.500000767953
endloop
endfacet
facet normal 5.0186228240858e-015 1.44629503766737e-016 1.0
outer loop
vertex 169.9872919401 692.002439961498 437.500000767953
vertex 176.487288446941 692.31004816808 437.500000767953
vertex 170.799086090319 693.042595514183 437.500000767953
endloop
endfacet
facet normal 5.0186228240858e-015 1.44629503766737e-016 1.0
outer loop
vertex 170.799086090319 693.042595514183 437.500000767953
vertex 176.487288446941 692.31004816808 437.500000767953
vertex 176.94713305468 693.743162661859 437.500000767953
endloop
endfacet
facet normal 5.0186228240858e-015 1.44629503766737e-016 1.0
outer loop
vertex 170.799086090319 693.042595514183 437.500000767953
vertex 176.94713305468 693.743162661859 437.500000767953
vertex 171.4872919401 694.381119617938 437.500000767953
endloop
endfacet
facet normal 5.0186228240858e-015 1.44629503766737e-016 1.0
outer loop
vertex 171.4872919401 694.381119617938 437.500000767953
vertex 176.94713305468 693.743162661859 437.500000767953
vertex 177.108609140159 695.052688855199 437.500000767953
endloop
endfacet
facet normal 5.0186228240858e-015 1.44629503766737e-016 1.0
outer loop
vertex 171.4872919401 694.381119617938 437.500000767953
vertex 177.108609140159 695.052688855199 437.500000767953
vertex 171.947136387414 695.814234111717 437.500000767953
endloop
endfacet
facet normal 5.0186228240858e-015 1.44629503766737e-016 1.0
outer loop
vertex 171.947136387414 695.814234111717 437.500000767953
vertex 177.108609140159 695.052688855199 437.500000767953
vertex 177.108612283659 714.123760305057 437.500000767953
endloop
endfacet
facet normal 5.0186228240858e-015 1.44629503766737e-016 1.0
outer loop
vertex 171.947136387414 695.814234111717 437.500000767953
vertex 177.108612283659 714.123760305057 437.500000767953
vertex 172.108612283659 697.123760305057 437.500000767953
endloop
endfacet
facet normal 5.0186228240858e-015 1.44629503766737e-016 1.0
outer loop
vertex 172.108612283659 697.123760305057 437.500000767953
vertex 177.108612283659 714.123760305057 437.500000767953
vertex 172.108612283659 714.123760305057 437.500000767953
endloop
endfacet
facet normal -3.20796010218869e-015 -1.4462949268411e-016 -1.0
outer loop
vertex 172.108612283659 601.123760305057 417.500000767953
vertex 177.108612283659 584.123760305057 417.500000767953
vertex 172.108612283659 584.123760305057 417.500000767953
endloop
endfacet
facet normal -3.20796010218869e-015 -1.4462949268411e-016 -1.0
outer loop
vertex 177.108612283659 584.123760305057 417.500000767953
vertex 172.108612283659 601.123760305057 417.500000767953
vertex 177.108612283659 603.194828116923 417.500000767953
endloop
endfacet
facet normal -3.20796010218869e-015 -1.4462949268411e-016 -1.0
outer loop
vertex 177.108612283659 603.194828116923 417.500000767953
vertex 172.108612283659 601.123760305057 417.500000767953
vertex 171.947136387414 602.433286498397 417.500000767953
endloop
endfacet
facet normal -3.20796010218869e-015 -1.4462949268411e-016 -1.0
outer loop
vertex 177.108612283659 603.194828116923 417.500000767953
vertex 171.947136387414 602.433286498397 417.500000767953
vertex 171.4872919401 603.866400992176 417.500000767953
endloop
endfacet
facet normal -3.20796010218869e-015 -1.4462949268411e-016 -1.0
outer loop
vertex 177.108612283659 603.194828116923 417.500000767953
vertex 171.4872919401 603.866400992176 417.500000767953
vertex 176.947136387414 604.504354310263 417.500000767953
endloop
endfacet
facet normal -3.20796010218869e-015 -1.4462949268411e-016 -1.0
outer loop
vertex 176.947136387414 604.504354310263 417.500000767953
vertex 171.4872919401 603.866400992176 417.500000767953
vertex 170.799086090319 605.204925095931 417.500000767953
endloop
endfacet
facet normal -3.20796010218869e-015 -1.4462949268411e-016 -1.0
outer loop
vertex 176.947136387414 604.504354310263 417.500000767953
vertex 170.799086090319 605.204925095931 417.500000767953
vertex 176.4872919401 605.937468804042 417.500000767953
endloop
endfacet
facet normal -3.20796010218869e-015 -1.4462949268411e-016 -1.0
outer loop
vertex 176.4872919401 605.937468804042 417.500000767953
vertex 170.799086090319 605.204925095931 417.500000767953
vertex 169.9872919401 606.245080648617 417.500000767953
endloop
endfacet
facet normal -3.20796010218869e-015 -1.4462949268411e-016 -1.0
outer loop
vertex 176.4872919401 605.937468804042 417.500000767953
vertex 169.9872919401 606.245080648617 417.500000767953
vertex 175.799086090319 607.275992907797 417.500000767953
endloop
endfacet
facet normal -3.20796010218869e-015 -1.4462949268411e-016 -1.0
outer loop
vertex 175.799086090319 607.275992907797 417.500000767953
vertex 169.9872919401 606.245080648617 417.500000767953
vertex 154.229932627219 622.002439961497 417.500000767953
endloop
endfacet
facet normal -3.20796010218869e-015 -1.4462949268411e-016 -1.0
outer loop
vertex 175.799086090319 607.275992907797 417.500000767953
vertex 154.229932627219 622.002439961497 417.500000767953
vertex 174.9872919401 608.316148460482 417.500000767953
endloop
endfacet
facet normal -3.20796010218869e-015 -1.4462949268411e-016 -1.0
outer loop
vertex 174.9872919401 608.316148460482 417.500000767953
vertex 154.229932627219 622.002439961497 417.500000767953
vertex 159.229932627219 624.073507773363 417.500000767953
endloop
endfacet
facet normal -3.20796010218869e-015 -1.4462949268411e-016 -1.0
outer loop
vertex 159.229932627219 624.073507773363 417.500000767953
vertex 154.229932627219 622.002439961497 417.500000767953
vertex 153.418138477 623.042595514183 417.500000767953
endloop
endfacet
facet normal -3.20796010218869e-015 -1.4462949268411e-016 -1.0
outer loop
vertex 159.229932627219 624.073507773363 417.500000767953
vertex 153.418138477 623.042595514183 417.500000767953
vertex 152.729932627219 624.381119617938 417.500000767953
endloop
endfacet
facet normal -3.20796010218869e-015 -1.4462949268411e-016 -1.0
outer loop
vertex 159.229932627219 624.073507773363 417.500000767953
vertex 152.729932627219 624.381119617938 417.500000767953
vertex 158.418138477 625.113663326048 417.500000767953
endloop
endfacet
facet normal -3.20796010218869e-015 -1.4462949268411e-016 -1.0
outer loop
vertex 158.418138477 625.113663326048 417.500000767953
vertex 152.729932627219 624.381119617938 417.500000767953
vertex 152.270088179904 625.814234111717 417.500000767953
endloop
endfacet
facet normal -3.20796010218869e-015 -1.4462949268411e-016 -1.0
outer loop
vertex 158.418138477 625.113663326048 417.500000767953
vertex 152.270088179904 625.814234111717 417.500000767953
vertex 157.729932627219 626.452187429803 417.500000767953
endloop
endfacet
facet normal -3.20796010218869e-015 -1.4462949268411e-016 -1.0
outer loop
vertex 157.729932627219 626.452187429803 417.500000767953
vertex 152.270088179904 625.814234111717 417.500000767953
vertex 152.108612283659 627.123760305057 417.500000767953
endloop
endfacet
facet normal -3.20796010218869e-015 -1.4462949268411e-016 -1.0
outer loop
vertex 157.729932627219 626.452187429803 417.500000767953
vertex 152.108612283659 627.123760305057 417.500000767953
vertex 157.270088179904 627.885301923582 417.500000767953
endloop
endfacet
facet normal -3.20796010218869e-015 -1.4462949268411e-016 -1.0
outer loop
vertex 157.270088179904 627.885301923582 417.500000767953
vertex 152.108612283659 627.123760305057 417.500000767953
vertex 157.108612283659 629.194828116922 417.500000767953
endloop
endfacet
facet normal -3.20796010218869e-015 -1.4462949268411e-016 -1.0
outer loop
vertex 157.108612283659 629.194828116922 417.500000767953
vertex 152.108612283659 627.123760305057 417.500000767953
vertex 152.108612283659 671.123760305057 417.500000767953
endloop
endfacet
facet normal -3.20796010218869e-015 -1.4462949268411e-016 -1.0
outer loop
vertex 157.108612283659 629.194828116922 417.500000767953
vertex 152.108612283659 671.123760305057 417.500000767953
vertex 157.108612283659 669.052692493192 417.500000767953
endloop
endfacet
facet normal -3.20796010218869e-015 -1.4462949268411e-016 -1.0
outer loop
vertex 157.108612283659 669.052692493192 417.500000767953
vertex 152.108612283659 671.123760305057 417.500000767953
vertex 157.270088179904 670.362218686532 417.500000767953
endloop
endfacet
facet normal -3.20796010218869e-015 -1.4462949268411e-016 -1.0
outer loop
vertex 157.270088179904 670.362218686532 417.500000767953
vertex 152.108612283659 671.123760305057 417.500000767953
vertex 157.729932627219 671.795333180311 417.500000767953
endloop
endfacet
facet normal -3.20796010218869e-015 -1.4462949268411e-016 -1.0
outer loop
vertex 157.729932627219 671.795333180311 417.500000767953
vertex 152.108612283659 671.123760305057 417.500000767953
vertex 152.270088179904 672.433286498398 417.500000767953
endloop
endfacet
facet normal -3.20796010218869e-015 -1.4462949268411e-016 -1.0
outer loop
vertex 157.729932627219 671.795333180311 417.500000767953
vertex 152.270088179904 672.433286498398 417.500000767953
vertex 158.418138477 673.133857284066 417.500000767953
endloop
endfacet
facet normal -3.20796010218869e-015 -1.4462949268411e-016 -1.0
outer loop
vertex 158.418138477 673.133857284066 417.500000767953
vertex 152.270088179904 672.433286498398 417.500000767953
vertex 152.729932627219 673.866400992177 417.500000767953
endloop
endfacet
facet normal -3.20796010218869e-015 -1.4462949268411e-016 -1.0
outer loop
vertex 158.418138477 673.133857284066 417.500000767953
vertex 152.729932627219 673.866400992177 417.500000767953
vertex 159.229932627219 674.174012836751 417.500000767953
endloop
endfacet
facet normal -3.20796010218869e-015 -1.4462949268411e-016 -1.0
outer loop
vertex 159.229932627219 674.174012836751 417.500000767953
vertex 152.729932627219 673.866400992177 417.500000767953
vertex 153.418138477 675.204925095931 417.500000767953
endloop
endfacet
facet normal -3.20796010218869e-015 -1.4462949268411e-016 -1.0
outer loop
vertex 159.229932627219 674.174012836751 417.500000767953
vertex 153.418138477 675.204925095931 417.500000767953
vertex 174.987288302107 689.93136851164 417.500000767953
endloop
endfacet
facet normal -3.20796010218869e-015 -1.4462949268411e-016 -1.0
outer loop
vertex 174.987288302107 689.93136851164 417.500000767953
vertex 153.418138477 675.204925095931 417.500000767953
vertex 154.229932627219 676.245080648617 417.500000767953
endloop
endfacet
facet normal -3.20796010218869e-015 -1.4462949268411e-016 -1.0
outer loop
vertex 174.987288302107 689.93136851164 417.500000767953
vertex 154.229932627219 676.245080648617 417.500000767953
vertex 169.9872919401 692.002439961498 417.500000767953
endloop
endfacet
facet normal -3.20796010218869e-015 -1.4462949268411e-016 -1.0
outer loop
vertex 174.987288302107 689.93136851164 417.500000767953
vertex 169.9872919401 692.002439961498 417.500000767953
vertex 175.799082489968 690.971524064325 417.500000767953
endloop
endfacet
facet normal -3.20796010218869e-015 -1.4462949268411e-016 -1.0
outer loop
vertex 175.799082489968 690.971524064325 417.500000767953
vertex 169.9872919401 692.002439961498 417.500000767953
vertex 176.487288446941 692.31004816808 417.500000767953
endloop
endfacet
facet normal -3.20796010218869e-015 -1.4462949268411e-016 -1.0
outer loop
vertex 176.487288446941 692.31004816808 417.500000767953
vertex 169.9872919401 692.002439961498 417.500000767953
vertex 170.799086090319 693.042595514183 417.500000767953
endloop
endfacet
facet normal -3.20796010218869e-015 -1.4462949268411e-016 -1.0
outer loop
vertex 176.487288446941 692.31004816808 417.500000767953
vertex 170.799086090319 693.042595514183 417.500000767953
vertex 176.94713305468 693.743162661859 417.500000767953
endloop
endfacet
facet normal -3.20796010218869e-015 -1.4462949268411e-016 -1.0
outer loop
vertex 176.94713305468 693.743162661859 417.500000767953
vertex 170.799086090319 693.042595514183 417.500000767953
vertex 171.4872919401 694.381119617938 417.500000767953
endloop
endfacet
facet normal -3.20796010218869e-015 -1.4462949268411e-016 -1.0
outer loop
vertex 176.94713305468 693.743162661859 417.500000767953
vertex 171.4872919401 694.381119617938 417.500000767953
vertex 177.108609140159 695.052688855199 417.500000767953
endloop
endfacet
facet normal -3.20796010218869e-015 -1.4462949268411e-016 -1.0
outer loop
vertex 177.108609140159 695.052688855199 417.500000767953
vertex 171.4872919401 694.381119617938 417.500000767953
vertex 171.947136387414 695.814234111717 417.500000767953
endloop
endfacet
facet normal -3.20796010218869e-015 -1.4462949268411e-016 -1.0
outer loop
vertex 177.108609140159 695.052688855199 417.500000767953
vertex 171.947136387414 695.814234111717 417.500000767953
vertex 177.108612283659 714.123760305057 417.500000767953
endloop
endfacet
facet normal -3.20796010218869e-015 -1.4462949268411e-016 -1.0
outer loop
vertex 177.108612283659 714.123760305057 417.500000767953
vertex 171.947136387414 695.814234111717 417.500000767953
vertex 172.108612283659 697.123760305057 417.500000767953
endloop
endfacet
facet normal -3.20796010218869e-015 -1.4462949268411e-016 -1.0
outer loop
vertex 177.108612283659 714.123760305057 417.500000767953
vertex 172.108612283659 697.123760305057 417.500000767953
vertex 172.108612283659 714.123760305057 417.500000767953
endloop
endfacet
endsolid Main Design
