solid Extruder Clamp (repaired)
 facet normal -0.991445 -0.130524 0.000008
  outer loop
   vertex 214.611023 41.655281 161.162827
   vertex 214.610977 41.655041 151.562820
   vertex 214.679123 41.137413 151.562836
  endloop
 endfacet
 facet normal -0.991445 -0.130524 0.000008
  outer loop
   vertex 214.679123 41.137413 151.562836
   vertex 214.679169 41.137653 161.162827
   vertex 214.611023 41.655281 161.162827
  endloop
 endfacet
 facet normal -0.793357 -0.608756 0.000019
  outer loop
   vertex 214.093353 42.551594 151.562836
   vertex 214.411179 42.137390 151.562836
   vertex 214.411224 42.137634 161.162827
  endloop
 endfacet
 facet normal -0.793357 -0.608756 0.000019
  outer loop
   vertex 214.411224 42.137634 161.162827
   vertex 214.093399 42.551838 161.162827
   vertex 214.093353 42.551594 151.562836
  endloop
 endfacet
 facet normal 0.793354 -0.608761 -0.000002
  outer loop
   vertex 207.266541 68.262428 157.158981
   vertex 207.266510 68.262405 151.558853
   vertex 208.259750 69.556824 151.558853
  endloop
 endfacet
 facet normal 0.793354 -0.608761 -0.000002
  outer loop
   vertex 208.259750 69.556824 151.558853
   vertex 208.259781 69.556847 157.158981
   vertex 207.266541 68.262428 157.158981
  endloop
 endfacet
 facet normal 0.382685 -0.923879 0.000022
  outer loop
   vertex 211.679230 42.869667 161.162857
   vertex 211.679199 42.869427 151.562851
   vertex 212.161545 43.069221 151.562851
  endloop
 endfacet
 facet normal 0.382680 -0.923881 0.000022
  outer loop
   vertex 212.161545 43.069221 151.562851
   vertex 212.161591 43.069466 161.162842
   vertex 211.679230 42.869667 161.162857
  endloop
 endfacet
 facet normal 0.608761 -0.793354 0.000000
  outer loop
   vertex 208.259781 69.556847 157.158981
   vertex 208.259750 69.556824 151.558853
   vertex 209.554169 70.550064 151.558853
  endloop
 endfacet
 facet normal 0.608761 -0.793354 0.000000
  outer loop
   vertex 209.554169 70.550064 151.558853
   vertex 209.554199 70.550087 157.158981
   vertex 208.259781 69.556847 157.158981
  endloop
 endfacet
 facet normal 0.991445 -0.130524 -0.000001
  outer loop
   vertex 210.679214 41.137413 151.562866
   vertex 210.747360 41.655041 151.562866
   vertex 210.747406 41.655281 161.162872
  endloop
 endfacet
 facet normal 0.991445 -0.130524 -0.000001
  outer loop
   vertex 210.747406 41.655281 161.162872
   vertex 210.679260 41.137653 161.162872
   vertex 210.679214 41.137413 151.562866
  endloop
 endfacet
 facet normal -0.923871 0.382705 -0.000006
  outer loop
   vertex 214.611053 90.620010 161.154846
   vertex 214.611023 90.619774 151.554855
   vertex 214.411209 90.137413 151.554855
  endloop
 endfacet
 facet normal -0.923879 0.382686 -0.000005
  outer loop
   vertex 214.411209 90.137413 151.554855
   vertex 214.411255 90.137657 161.154846
   vertex 214.611053 90.620010 161.154846
  endloop
 endfacet
 facet normal 0.991445 0.130524 -0.000008
  outer loop
   vertex 210.747360 40.619785 151.562866
   vertex 210.679214 41.137413 151.562866
   vertex 210.679260 41.137653 161.162872
  endloop
 endfacet
 facet normal 0.991445 0.130525 -0.000008
  outer loop
   vertex 210.679260 41.137653 161.162872
   vertex 210.747406 40.620029 161.162872
   vertex 210.747360 40.619785 151.562866
  endloop
 endfacet
 facet normal 0.000000 1.000000 -0.000004
  outer loop
   vertex 218.679169 58.887413 151.560501
   vertex 212.679169 58.887413 151.558853
   vertex 212.679199 58.887436 157.158981
  endloop
 endfacet
 facet normal 0.000000 1.000000 -0.000004
  outer loop
   vertex 212.679199 58.887436 157.158981
   vertex 218.679184 58.887436 157.160629
   vertex 218.679169 58.887413 151.560501
  endloop
 endfacet
 facet normal -0.130525 -0.991445 0.000026
  outer loop
   vertex 212.679214 43.137611 161.162842
   vertex 212.679169 43.137367 151.562836
   vertex 213.196793 43.069221 151.562836
  endloop
 endfacet
 facet normal -0.130525 -0.991445 0.000026
  outer loop
   vertex 213.196793 43.069221 151.562836
   vertex 213.196838 43.069466 161.162842
   vertex 212.679214 43.137611 161.162842
  endloop
 endfacet
 facet normal 1.000000 0.000000 -0.000003
  outer loop
   vertex 218.679169 34.871735 151.564529
   vertex 218.679169 58.887413 151.560501
   vertex 218.679184 58.887436 157.160629
  endloop
 endfacet
 facet normal 1.000000 0.000006 -0.000026
  outer loop
   vertex 218.679184 58.887436 157.160629
   vertex 218.679199 56.137424 157.163879
   vertex 218.679169 34.871735 151.564529
  endloop
 endfacet
 facet normal 1.000000 0.000000 -0.000005
  outer loop
   vertex 218.679199 56.137424 157.163879
   vertex 218.679214 34.871979 161.164536
   vertex 218.679169 34.871735 151.564529
  endloop
 endfacet
 facet normal 1.000000 0.000000 -0.000004
  outer loop
   vertex 218.679199 56.137424 157.163879
   vertex 218.679214 56.137646 161.163742
   vertex 218.679214 34.871979 161.164536
  endloop
 endfacet
 facet normal -0.991445 0.130523 0.000000
  outer loop
   vertex 214.679199 91.137650 161.154846
   vertex 214.679169 91.137405 151.554840
   vertex 214.611023 90.619774 151.554855
  endloop
 endfacet
 facet normal -0.991446 0.130521 0.000000
  outer loop
   vertex 214.611023 90.619774 151.554855
   vertex 214.611053 90.620010 161.154846
   vertex 214.679199 91.137650 161.154846
  endloop
 endfacet
 facet normal -0.382680 -0.923881 0.000025
  outer loop
   vertex 213.196854 93.069496 161.154861
   vertex 213.196808 93.069252 151.554855
   vertex 213.679169 92.869453 151.554855
  endloop
 endfacet
 facet normal -0.382693 -0.923876 0.000025
  outer loop
   vertex 213.679169 92.869453 151.554855
   vertex 213.679214 92.869690 161.154846
   vertex 213.196854 93.069496 161.154861
  endloop
 endfacet
 facet normal 0.923878 -0.382688 0.000005
  outer loop
   vertex 210.747360 41.655041 151.562866
   vertex 210.947159 42.137390 151.562866
   vertex 210.947205 42.137634 161.162857
  endloop
 endfacet
 facet normal 0.923879 -0.382686 0.000005
  outer loop
   vertex 210.947205 42.137634 161.162857
   vertex 210.747406 41.655281 161.162872
   vertex 210.747360 41.655041 151.562866
  endloop
 endfacet
 facet normal -0.130521 -0.991445 0.000026
  outer loop
   vertex 212.679214 93.137642 161.154861
   vertex 212.679169 93.137398 151.554855
   vertex 213.196808 93.069252 151.554855
  endloop
 endfacet
 facet normal -0.130521 -0.991445 0.000026
  outer loop
   vertex 213.196808 93.069252 151.554855
   vertex 213.196854 93.069496 161.154861
   vertex 212.679214 93.137642 161.154861
  endloop
 endfacet
 facet normal 0.130525 -0.991445 0.000025
  outer loop
   vertex 212.161591 43.069466 161.162842
   vertex 212.161545 43.069221 151.562851
   vertex 212.679169 43.137367 151.562836
  endloop
 endfacet
 facet normal 0.130525 -0.991445 0.000025
  outer loop
   vertex 212.679169 43.137367 151.562836
   vertex 212.679214 43.137611 161.162842
   vertex 212.161591 43.069466 161.162842
  endloop
 endfacet
 facet normal 0.923881 -0.382680 0.000005
  outer loop
   vertex 210.747330 91.655045 151.554886
   vertex 210.947128 92.137405 151.554886
   vertex 210.947174 92.137650 161.154877
  endloop
 endfacet
 facet normal 0.923881 -0.382680 0.000005
  outer loop
   vertex 210.947174 92.137650 161.154877
   vertex 210.747375 91.655289 161.154877
   vertex 210.747330 91.655045 151.554886
  endloop
 endfacet
 facet normal 0.130532 0.991444 -0.000025
  outer loop
   vertex 212.679169 39.137455 151.562851
   vertex 212.161545 39.205605 151.562851
   vertex 212.161591 39.205845 161.162857
  endloop
 endfacet
 facet normal 0.130525 0.991445 -0.000026
  outer loop
   vertex 212.161591 39.205845 161.162857
   vertex 212.679214 39.137699 161.162857
   vertex 212.679169 39.137455 151.562851
  endloop
 endfacet
 facet normal 0.991446 -0.130521 -0.000001
  outer loop
   vertex 210.679184 91.137405 151.554886
   vertex 210.747330 91.655045 151.554886
   vertex 210.747375 91.655289 161.154877
  endloop
 endfacet
 facet normal 0.991445 -0.130521 -0.000001
  outer loop
   vertex 210.747375 91.655289 161.154877
   vertex 210.679230 91.137650 161.154892
   vertex 210.679184 91.137405 151.554886
  endloop
 endfacet
 facet normal 0.130535 0.991444 -0.000025
  outer loop
   vertex 212.679169 89.137413 151.554871
   vertex 212.161530 89.205566 151.554871
   vertex 212.161575 89.205803 161.154877
  endloop
 endfacet
 facet normal 0.130521 0.991445 -0.000026
  outer loop
   vertex 212.161575 89.205803 161.154877
   vertex 212.679214 89.137657 161.154877
   vertex 212.679169 89.137413 151.554871
  endloop
 endfacet
 facet normal 0.793360 0.608753 -0.000019
  outer loop
   vertex 211.265030 39.723473 161.162857
   vertex 211.264984 39.723228 151.562866
   vertex 210.947159 40.137436 151.562866
  endloop
 endfacet
 facet normal 0.793357 0.608756 -0.000019
  outer loop
   vertex 210.947159 40.137436 151.562866
   vertex 210.947205 40.137676 161.162872
   vertex 211.265030 39.723473 161.162857
  endloop
 endfacet
 facet normal 0.793351 0.608764 -0.000018
  outer loop
   vertex 211.264999 89.723442 161.154877
   vertex 211.264969 89.723198 151.554886
   vertex 210.947128 90.137413 151.554886
  endloop
 endfacet
 facet normal 0.793365 0.608746 -0.000019
  outer loop
   vertex 210.947128 90.137413 151.554886
   vertex 210.947174 90.137657 161.154892
   vertex 211.264999 89.723442 161.154877
  endloop
 endfacet
 facet normal 0.382685 0.923879 -0.000025
  outer loop
   vertex 212.161545 39.205605 151.562851
   vertex 211.679199 39.405399 151.562866
   vertex 211.679230 39.405643 161.162857
  endloop
 endfacet
 facet normal 0.382680 0.923881 -0.000025
  outer loop
   vertex 211.679230 39.405643 161.162857
   vertex 212.161591 39.205845 161.162857
   vertex 212.161545 39.205605 151.562851
  endloop
 endfacet
 facet normal -0.923878 0.382688 -0.000005
  outer loop
   vertex 214.611023 40.620029 161.162827
   vertex 214.610977 40.619785 151.562836
   vertex 214.411179 40.137436 151.562836
  endloop
 endfacet
 facet normal -0.923879 0.382686 -0.000005
  outer loop
   vertex 214.411179 40.137436 151.562836
   vertex 214.411224 40.137676 161.162827
   vertex 214.611023 40.620029 161.162827
  endloop
 endfacet
 facet normal -0.793365 0.608746 -0.000012
  outer loop
   vertex 214.411255 90.137657 161.154846
   vertex 214.411209 90.137413 151.554855
   vertex 214.093384 89.723198 151.554855
  endloop
 endfacet
 facet normal -0.793351 0.608764 -0.000013
  outer loop
   vertex 214.093384 89.723198 151.554855
   vertex 214.093414 89.723442 161.154861
   vertex 214.411255 90.137657 161.154846
  endloop
 endfacet
 facet normal 0.000722 0.005483 0.999985
  outer loop
   vertex 206.315186 58.773464 157.164200
   vertex 212.679199 58.887436 157.158981
   vertex 211.061569 59.100399 157.158981
  endloop
 endfacet
 facet normal 0.001023 0.001105 0.999999
  outer loop
   vertex 211.061569 59.100399 157.158981
   vertex 204.884918 60.637428 157.163605
   vertex 206.315186 58.773464 157.164200
  endloop
 endfacet
 facet normal 0.001875 0.004526 0.999988
  outer loop
   vertex 211.061569 59.100399 157.158981
   vertex 209.554199 59.724777 157.158981
   vertex 204.884918 60.637428 157.163605
  endloop
 endfacet
 facet normal 0.001329 0.001731 0.999998
  outer loop
   vertex 209.554199 59.724777 157.158981
   vertex 208.259781 60.718018 157.158981
   vertex 204.884918 60.637428 157.163605
  endloop
 endfacet
 facet normal 0.001349 0.000882 0.999999
  outer loop
   vertex 208.259781 60.718018 157.158981
   vertex 203.985809 62.808056 157.162903
   vertex 204.884918 60.637428 157.163605
  endloop
 endfacet
 facet normal 0.001469 0.001127 0.999998
  outer loop
   vertex 208.259781 60.718018 157.158981
   vertex 207.266541 62.012436 157.158981
   vertex 203.985809 62.808056 157.162903
  endloop
 endfacet
 facet normal 0.001329 0.000550 0.999999
  outer loop
   vertex 207.266541 62.012436 157.158981
   vertex 206.642151 63.519814 157.158981
   vertex 203.985809 62.808056 157.162903
  endloop
 endfacet
 facet normal 0.001345 0.000491 0.999999
  outer loop
   vertex 206.642151 63.519814 157.158981
   vertex 203.679153 65.137428 157.162170
   vertex 203.985809 62.808056 157.162903
  endloop
 endfacet
 facet normal 0.001160 0.000153 0.999999
  outer loop
   vertex 206.642151 63.519814 157.158981
   vertex 206.429199 65.137436 157.158981
   vertex 203.679153 65.137428 157.162170
  endloop
 endfacet
 facet normal 0.001160 0.000168 0.999999
  outer loop
   vertex 206.429199 65.137436 157.158981
   vertex 203.985809 67.466797 157.161423
   vertex 203.679153 65.137428 157.162170
  endloop
 endfacet
 facet normal 0.000888 -0.000117 1.000000
  outer loop
   vertex 206.429199 65.137436 157.158981
   vertex 206.642151 66.755051 157.158981
   vertex 203.985809 67.466797 157.161423
  endloop
 endfacet
 facet normal 0.000827 -0.000343 1.000000
  outer loop
   vertex 206.642151 66.755051 157.158981
   vertex 207.266541 68.262428 157.158981
   vertex 203.985809 67.466797 157.161423
  endloop
 endfacet
 facet normal 0.000740 0.000017 1.000000
  outer loop
   vertex 207.266541 68.262428 157.158981
   vertex 204.884918 69.637428 157.160721
   vertex 203.985809 67.466797 157.161423
  endloop
 endfacet
 facet normal 0.000506 -0.000388 1.000000
  outer loop
   vertex 207.266541 68.262428 157.158981
   vertex 208.259781 69.556847 157.158981
   vertex 204.884918 69.637428 157.160721
  endloop
 endfacet
 facet normal 0.000500 -0.000651 1.000000
  outer loop
   vertex 208.259781 69.556847 157.158981
   vertex 209.554199 70.550087 157.158981
   vertex 204.884918 69.637428 157.160721
  endloop
 endfacet
 facet normal 0.000365 0.000039 1.000000
  outer loop
   vertex 209.554199 70.550087 157.158981
   vertex 206.315186 71.501389 157.160126
   vertex 204.884918 69.637428 157.160721
  endloop
 endfacet
 facet normal 0.000207 -0.000499 1.000000
  outer loop
   vertex 209.554199 70.550087 157.158981
   vertex 211.061569 71.174469 157.158981
   vertex 206.315186 71.501389 157.160126
  endloop
 endfacet
 facet normal 0.000158 -0.001202 0.999999
  outer loop
   vertex 211.061569 71.174469 157.158981
   vertex 212.679199 71.387428 157.158981
   vertex 206.315186 71.501389 157.160126
  endloop
 endfacet
 facet normal 0.000498 -0.001088 0.999999
  outer loop
   vertex 212.679199 71.387428 157.158981
   vertex 218.679184 71.387428 157.155991
   vertex 218.679184 74.137428 157.158981
  endloop
 endfacet
 facet normal 0.000173 -0.000378 1.000000
  outer loop
   vertex 218.679184 74.137428 157.158981
   vertex 206.315186 71.501389 157.160126
   vertex 212.679199 71.387428 157.158981
  endloop
 endfacet
 facet normal 0.000037 0.000261 1.000000
  outer loop
   vertex 218.679184 74.137428 157.158981
   vertex 208.179153 72.931656 157.159683
   vertex 206.315186 71.501389 157.160126
  endloop
 endfacet
 facet normal 0.000041 0.000223 1.000000
  outer loop
   vertex 218.679184 74.137428 157.158981
   vertex 210.349777 73.830757 157.159393
   vertex 208.179153 72.931656 157.159683
  endloop
 endfacet
 facet normal 0.000051 -0.000038 1.000000
  outer loop
   vertex 218.679184 74.137428 157.158981
   vertex 212.679153 74.137428 157.159286
   vertex 210.349777 73.830757 157.159393
  endloop
 endfacet
 facet normal 0.000193 0.001182 0.999999
  outer loop
   vertex 212.679138 56.137424 157.165039
   vertex 218.679199 56.137424 157.163879
   vertex 218.679184 58.887436 157.160629
  endloop
 endfacet
 facet normal 0.000133 0.001312 0.999999
  outer loop
   vertex 218.679184 58.887436 157.160629
   vertex 210.349777 56.444092 157.164948
   vertex 212.679138 56.137424 157.165039
  endloop
 endfacet
 facet normal 0.000248 0.000921 1.000000
  outer loop
   vertex 218.679184 58.887436 157.160629
   vertex 208.179138 57.343197 157.164658
   vertex 210.349777 56.444092 157.164948
  endloop
 endfacet
 facet normal 0.000282 0.000688 1.000000
  outer loop
   vertex 218.679184 58.887436 157.160629
   vertex 206.315186 58.773464 157.164200
   vertex 208.179138 57.343197 157.164658
  endloop
 endfacet
 facet normal -0.000274 0.061010 0.998137
  outer loop
   vertex 218.679184 58.887436 157.160629
   vertex 212.679199 58.887436 157.158981
   vertex 206.315186 58.773464 157.164200
  endloop
 endfacet
 facet normal 0.923878 0.382688 -0.000014
  outer loop
   vertex 210.947205 40.137676 161.162872
   vertex 210.947159 40.137436 151.562866
   vertex 210.747360 40.619785 151.562866
  endloop
 endfacet
 facet normal 0.923879 0.382686 -0.000014
  outer loop
   vertex 210.747360 40.619785 151.562866
   vertex 210.747406 40.620029 161.162872
   vertex 210.947205 40.137676 161.162872
  endloop
 endfacet
 facet normal -0.608755 0.793358 -0.000017
  outer loop
   vertex 214.093384 89.723198 151.554855
   vertex 213.679169 89.405365 151.554855
   vertex 213.679214 89.405609 161.154861
  endloop
 endfacet
 facet normal -0.608769 0.793348 -0.000018
  outer loop
   vertex 213.679214 89.405609 161.154861
   vertex 214.093414 89.723442 161.154861
   vertex 214.093384 89.723198 151.554855
  endloop
 endfacet
 facet normal -0.923871 -0.382705 0.000013
  outer loop
   vertex 214.411209 92.137405 151.554840
   vertex 214.611023 91.655045 151.554840
   vertex 214.611053 91.655289 161.154846
  endloop
 endfacet
 facet normal -0.923881 -0.382680 0.000014
  outer loop
   vertex 214.611053 91.655289 161.154846
   vertex 214.411255 92.137650 161.154846
   vertex 214.411209 92.137405 151.554840
  endloop
 endfacet
 facet normal 0.991445 0.130528 -0.000003
  outer loop
   vertex 206.642151 63.519814 157.158981
   vertex 206.642136 63.519791 151.558853
   vertex 206.429169 65.137413 151.558853
  endloop
 endfacet
 facet normal 0.991446 0.130519 -0.000006
  outer loop
   vertex 206.429169 65.137413 151.558853
   vertex 206.429199 65.137436 157.158981
   vertex 206.642151 63.519814 157.158981
  endloop
 endfacet
 facet normal 0.608750 0.793362 -0.000023
  outer loop
   vertex 211.679199 39.405399 151.562866
   vertex 211.264984 39.723228 151.562866
   vertex 211.265030 39.723473 161.162857
  endloop
 endfacet
 facet normal 0.608764 0.793351 -0.000022
  outer loop
   vertex 211.265030 39.723473 161.162857
   vertex 211.679230 39.405643 161.162857
   vertex 211.679199 39.405399 151.562866
  endloop
 endfacet
 facet normal 0.793354 0.608761 -0.000007
  outer loop
   vertex 208.259781 60.718018 157.158981
   vertex 208.259750 60.717995 151.558853
   vertex 207.266510 62.012413 151.558853
  endloop
 endfacet
 facet normal 0.793354 0.608761 -0.000007
  outer loop
   vertex 207.266510 62.012413 151.558853
   vertex 207.266541 62.012436 157.158981
   vertex 208.259781 60.718018 157.158981
  endloop
 endfacet
 facet normal -0.793360 0.608753 -0.000011
  outer loop
   vertex 214.411224 40.137676 161.162827
   vertex 214.411179 40.137436 151.562836
   vertex 214.093353 39.723228 151.562836
  endloop
 endfacet
 facet normal -0.793357 0.608756 -0.000012
  outer loop
   vertex 214.093353 39.723228 151.562836
   vertex 214.093399 39.723473 161.162842
   vertex 214.411224 40.137676 161.162827
  endloop
 endfacet
 facet normal 0.923880 0.382682 -0.000004
  outer loop
   vertex 207.266510 62.012413 151.558853
   vertex 206.642136 63.519791 151.558853
   vertex 206.642151 63.519814 157.158981
  endloop
 endfacet
 facet normal 0.923877 0.382690 -0.000007
  outer loop
   vertex 206.642151 63.519814 157.158981
   vertex 207.266541 62.012436 157.158981
   vertex 207.266510 62.012413 151.558853
  endloop
 endfacet
 facet normal 0.000000 -1.000000 0.000025
  outer loop
   vertex 202.679214 34.871979 161.164536
   vertex 202.679169 34.871735 151.564529
   vertex 218.679169 34.871735 151.564529
  endloop
 endfacet
 facet normal 0.000000 -1.000000 0.000025
  outer loop
   vertex 218.679169 34.871735 151.564529
   vertex 218.679214 34.871979 161.164536
   vertex 202.679214 34.871979 161.164536
  endloop
 endfacet
 facet normal -0.130532 0.991444 -0.000025
  outer loop
   vertex 213.196793 39.205605 151.562851
   vertex 212.679169 39.137455 151.562851
   vertex 212.679214 39.137699 161.162857
  endloop
 endfacet
 facet normal -0.130525 0.991445 -0.000024
  outer loop
   vertex 212.679214 39.137699 161.162857
   vertex 213.196838 39.205845 161.162842
   vertex 213.196793 39.205605 151.562851
  endloop
 endfacet
 facet normal -1.000000 0.000000 0.000006
  outer loop
   vertex 202.679199 107.002075 156.364288
   vertex 202.679169 107.001953 151.564285
   vertex 202.679169 34.871735 151.564529
  endloop
 endfacet
 facet normal -1.000000 0.000000 0.000006
  outer loop
   vertex 202.679169 34.871735 151.564529
   vertex 202.679199 101.002075 156.364441
   vertex 202.679199 107.002075 156.364288
  endloop
 endfacet
 facet normal -1.000000 0.000000 0.000005
  outer loop
   vertex 202.679169 34.871735 151.564529
   vertex 202.679214 34.871979 161.164536
   vertex 202.679199 101.002075 156.364441
  endloop
 endfacet
 facet normal -1.000000 0.000000 0.000003
  outer loop
   vertex 202.679214 34.871979 161.164536
   vertex 202.679214 101.002197 161.164444
   vertex 202.679199 101.002075 156.364441
  endloop
 endfacet
 facet normal -0.608764 0.793351 -0.000017
  outer loop
   vertex 214.093353 39.723228 151.562836
   vertex 213.679153 39.405399 151.562836
   vertex 213.679199 39.405643 161.162842
  endloop
 endfacet
 facet normal -0.608764 0.793351 -0.000017
  outer loop
   vertex 213.679199 39.405643 161.162842
   vertex 214.093399 39.723473 161.162842
   vertex 214.093353 39.723228 151.562836
  endloop
 endfacet
 facet normal -0.382674 0.923883 -0.000021
  outer loop
   vertex 213.679153 39.405399 151.562836
   vertex 213.196793 39.205605 151.562851
   vertex 213.196838 39.205845 161.162842
  endloop
 endfacet
 facet normal -0.382680 0.923881 -0.000022
  outer loop
   vertex 213.196838 39.205845 161.162842
   vertex 213.679199 39.405643 161.162842
   vertex 213.679153 39.405399 151.562836
  endloop
 endfacet
 facet normal 0.000000 -1.000000 0.000004
  outer loop
   vertex 212.679199 71.387428 157.158981
   vertex 212.679169 71.387405 151.558853
   vertex 218.679169 71.387405 151.555862
  endloop
 endfacet
 facet normal 0.000000 -1.000000 0.000004
  outer loop
   vertex 218.679169 71.387405 151.555862
   vertex 218.679184 71.387428 157.155991
   vertex 212.679199 71.387428 157.158981
  endloop
 endfacet
 facet normal 1.000000 0.000000 -0.000003
  outer loop
   vertex 218.679184 71.387428 157.155991
   vertex 218.679169 71.387405 151.555862
   vertex 218.679169 107.001953 151.564285
  endloop
 endfacet
 facet normal 1.000000 -0.000001 -0.000007
  outer loop
   vertex 218.679169 107.001953 151.564285
   vertex 218.679199 101.002075 156.364441
   vertex 218.679184 71.387428 157.155991
  endloop
 endfacet
 facet normal 1.000000 0.000000 -0.000006
  outer loop
   vertex 218.679169 107.001953 151.564285
   vertex 218.679199 107.002075 156.364288
   vertex 218.679199 101.002075 156.364441
  endloop
 endfacet
 facet normal 1.000000 0.000000 0.000019
  outer loop
   vertex 218.679199 101.002075 156.364441
   vertex 218.679184 74.137428 157.158981
   vertex 218.679184 71.387428 157.155991
  endloop
 endfacet
 facet normal 1.000000 -0.000001 -0.000003
  outer loop
   vertex 218.679199 101.002075 156.364441
   vertex 218.679214 101.002197 161.164444
   vertex 218.679184 74.137428 157.158981
  endloop
 endfacet
 facet normal 1.000000 0.000000 -0.000008
  outer loop
   vertex 218.679214 101.002197 161.164444
   vertex 218.679214 74.137642 161.158859
   vertex 218.679184 74.137428 157.158981
  endloop
 endfacet
 facet normal 0.608763 0.793352 -0.000046
  outer loop
   vertex 208.179138 57.343197 157.164658
   vertex 206.315186 58.773464 157.164200
   vertex 206.315201 58.773685 161.164063
  endloop
 endfacet
 facet normal 0.608760 0.793354 -0.000049
  outer loop
   vertex 206.315201 58.773685 161.164063
   vertex 208.179169 57.343418 161.164520
   vertex 208.179138 57.343197 157.164658
  endloop
 endfacet
 facet normal -0.793360 -0.608753 0.000019
  outer loop
   vertex 214.093384 92.551613 151.554855
   vertex 214.411209 92.137405 151.554840
   vertex 214.411255 92.137650 161.154846
  endloop
 endfacet
 facet normal -0.793346 -0.608771 0.000018
  outer loop
   vertex 214.411255 92.137650 161.154846
   vertex 214.093414 92.551857 161.154846
   vertex 214.093384 92.551613 151.554855
  endloop
 endfacet
 facet normal -0.608764 -0.793351 0.000022
  outer loop
   vertex 213.679214 92.869690 161.154846
   vertex 213.679169 92.869453 151.554855
   vertex 214.093384 92.551613 151.554855
  endloop
 endfacet
 facet normal -0.608769 -0.793348 0.000022
  outer loop
   vertex 214.093384 92.551613 151.554855
   vertex 214.093414 92.551857 161.154846
   vertex 213.679214 92.869690 161.154846
  endloop
 endfacet
 facet normal 0.991445 -0.130529 -0.000002
  outer loop
   vertex 206.429169 65.137413 151.558853
   vertex 206.642136 66.755028 151.558853
   vertex 206.642151 66.755051 157.158981
  endloop
 endfacet
 facet normal 0.991446 -0.130519 -0.000005
  outer loop
   vertex 206.642151 66.755051 157.158981
   vertex 206.429199 65.137436 157.158981
   vertex 206.429169 65.137413 151.558853
  endloop
 endfacet
 facet normal 0.923880 -0.382682 -0.000001
  outer loop
   vertex 206.642151 66.755051 157.158981
   vertex 206.642136 66.755028 151.558853
   vertex 207.266510 68.262405 151.558853
  endloop
 endfacet
 facet normal 0.923877 -0.382690 -0.000003
  outer loop
   vertex 207.266510 68.262405 151.558853
   vertex 207.266541 68.262428 157.158981
   vertex 206.642151 66.755051 157.158981
  endloop
 endfacet
 facet normal 0.382683 0.923880 -0.000006
  outer loop
   vertex 211.061554 59.100376 151.558853
   vertex 209.554169 59.724754 151.558853
   vertex 209.554199 59.724777 157.158981
  endloop
 endfacet
 facet normal 0.382686 0.923878 -0.000005
  outer loop
   vertex 209.554199 59.724777 157.158981
   vertex 211.061569 59.100399 157.158981
   vertex 211.061554 59.100376 151.558853
  endloop
 endfacet
 facet normal 0.608778 -0.793341 0.000018
  outer loop
   vertex 211.264999 92.551857 161.154877
   vertex 211.264969 92.551613 151.554871
   vertex 211.679169 92.869453 151.554871
  endloop
 endfacet
 facet normal 0.608755 -0.793358 0.000017
  outer loop
   vertex 211.679169 92.869453 151.554871
   vertex 211.679214 92.869690 161.154877
   vertex 211.264999 92.551857 161.154877
  endloop
 endfacet
 facet normal 0.382680 -0.923881 0.000021
  outer loop
   vertex 211.679214 92.869690 161.154877
   vertex 211.679169 92.869453 151.554871
   vertex 212.161530 93.069252 151.554871
  endloop
 endfacet
 facet normal 0.382693 -0.923876 0.000022
  outer loop
   vertex 212.161530 93.069252 151.554871
   vertex 212.161575 93.069496 161.154861
   vertex 211.679214 92.869690 161.154877
  endloop
 endfacet
 facet normal 0.130521 -0.991446 0.000025
  outer loop
   vertex 212.161575 93.069496 161.154861
   vertex 212.161530 93.069252 151.554871
   vertex 212.679169 93.137398 151.554855
  endloop
 endfacet
 facet normal 0.130521 -0.991445 0.000025
  outer loop
   vertex 212.679169 93.137398 151.554855
   vertex 212.679214 93.137642 161.154861
   vertex 212.161575 93.069496 161.154861
  endloop
 endfacet
 facet normal 0.608755 -0.793358 0.000017
  outer loop
   vertex 211.265030 42.551838 161.162857
   vertex 211.264984 42.551594 151.562851
   vertex 211.679199 42.869427 151.562851
  endloop
 endfacet
 facet normal 0.608764 -0.793351 0.000018
  outer loop
   vertex 211.679199 42.869427 151.562851
   vertex 211.679230 42.869667 161.162857
   vertex 211.265030 42.551838 161.162857
  endloop
 endfacet
 facet normal -0.382674 -0.923883 0.000025
  outer loop
   vertex 213.196838 43.069466 161.162842
   vertex 213.196793 43.069221 151.562836
   vertex 213.679153 42.869427 151.562836
  endloop
 endfacet
 facet normal -0.382680 -0.923881 0.000025
  outer loop
   vertex 213.679153 42.869427 151.562836
   vertex 213.679199 42.869667 161.162827
   vertex 213.196838 43.069466 161.162842
  endloop
 endfacet
 facet normal 0.793357 -0.608756 0.000012
  outer loop
   vertex 210.947159 42.137390 151.562866
   vertex 211.264984 42.551594 151.562851
   vertex 211.265030 42.551838 161.162857
  endloop
 endfacet
 facet normal 0.793357 -0.608756 0.000012
  outer loop
   vertex 211.265030 42.551838 161.162857
   vertex 210.947205 42.137634 161.162857
   vertex 210.947159 42.137390 151.562866
  endloop
 endfacet
 facet normal 0.608769 0.793348 -0.000022
  outer loop
   vertex 211.679169 89.405365 151.554886
   vertex 211.264969 89.723198 151.554886
   vertex 211.264999 89.723442 161.154877
  endloop
 endfacet
 facet normal 0.608755 0.793358 -0.000023
  outer loop
   vertex 211.264999 89.723442 161.154877
   vertex 211.679214 89.405609 161.154877
   vertex 211.679169 89.405365 151.554886
  endloop
 endfacet
 facet normal -0.382680 0.923881 -0.000021
  outer loop
   vertex 213.679169 89.405365 151.554855
   vertex 213.196808 89.205566 151.554871
   vertex 213.196854 89.205803 161.154861
  endloop
 endfacet
 facet normal -0.382693 0.923876 -0.000022
  outer loop
   vertex 213.196854 89.205803 161.154861
   vertex 213.679214 89.405609 161.154861
   vertex 213.679169 89.405365 151.554855
  endloop
 endfacet
 facet normal 0.382680 0.923881 -0.000025
  outer loop
   vertex 212.161530 89.205566 151.554871
   vertex 211.679169 89.405365 151.554886
   vertex 211.679214 89.405609 161.154877
  endloop
 endfacet
 facet normal 0.382693 0.923876 -0.000025
  outer loop
   vertex 211.679214 89.405609 161.154877
   vertex 212.161575 89.205803 161.154877
   vertex 212.161530 89.205566 151.554871
  endloop
 endfacet
 facet normal 0.923881 0.382680 -0.000014
  outer loop
   vertex 210.947174 90.137657 161.154892
   vertex 210.947128 90.137413 151.554886
   vertex 210.747330 90.619774 151.554886
  endloop
 endfacet
 facet normal 0.923879 0.382686 -0.000014
  outer loop
   vertex 210.747330 90.619774 151.554886
   vertex 210.747375 90.620010 161.154892
   vertex 210.947174 90.137657 161.154892
  endloop
 endfacet
 facet normal 0.991445 0.130523 -0.000008
  outer loop
   vertex 210.747330 90.619774 151.554886
   vertex 210.679184 91.137405 151.554886
   vertex 210.679230 91.137650 161.154892
  endloop
 endfacet
 facet normal 0.991445 0.130521 -0.000008
  outer loop
   vertex 210.679230 91.137650 161.154892
   vertex 210.747375 90.620010 161.154892
   vertex 210.747330 90.619774 151.554886
  endloop
 endfacet
 facet normal 0.793346 -0.608771 0.000013
  outer loop
   vertex 210.947128 92.137405 151.554886
   vertex 211.264969 92.551613 151.554871
   vertex 211.264999 92.551857 161.154877
  endloop
 endfacet
 facet normal 0.793360 -0.608753 0.000012
  outer loop
   vertex 211.264999 92.551857 161.154877
   vertex 210.947174 92.137650 161.154877
   vertex 210.947128 92.137405 151.554886
  endloop
 endfacet
 facet normal 0.130524 -0.991445 0.000004
  outer loop
   vertex 211.061569 71.174469 157.158981
   vertex 211.061554 71.174446 151.558853
   vertex 212.679169 71.387405 151.558853
  endloop
 endfacet
 facet normal 0.130523 -0.991445 0.000003
  outer loop
   vertex 212.679169 71.387405 151.558853
   vertex 212.679199 71.387428 157.158981
   vertex 211.061569 71.174469 157.158981
  endloop
 endfacet
 facet normal 0.382685 -0.923879 0.000002
  outer loop
   vertex 209.554199 70.550087 157.158981
   vertex 209.554169 70.550064 151.558853
   vertex 211.061554 71.174446 151.558853
  endloop
 endfacet
 facet normal 0.382688 -0.923878 0.000003
  outer loop
   vertex 211.061554 71.174446 151.558853
   vertex 211.061569 71.174469 157.158981
   vertex 209.554199 70.550087 157.158981
  endloop
 endfacet
 facet normal -0.991445 -0.130521 0.000006
  outer loop
   vertex 214.611053 91.655289 161.154846
   vertex 214.611023 91.655045 151.554840
   vertex 214.679169 91.137405 151.554840
  endloop
 endfacet
 facet normal -0.991445 -0.130521 0.000006
  outer loop
   vertex 214.679169 91.137405 151.554840
   vertex 214.679199 91.137650 161.154846
   vertex 214.611053 91.655289 161.154846
  endloop
 endfacet
 facet normal -0.991445 0.130524 0.000001
  outer loop
   vertex 214.679169 41.137653 161.162827
   vertex 214.679123 41.137413 151.562836
   vertex 214.610977 40.619785 151.562836
  endloop
 endfacet
 facet normal -0.991445 0.130525 0.000001
  outer loop
   vertex 214.610977 40.619785 151.562836
   vertex 214.611023 40.620029 161.162827
   vertex 214.679169 41.137653 161.162827
  endloop
 endfacet
 facet normal -0.923878 -0.382688 0.000014
  outer loop
   vertex 214.411179 42.137390 151.562836
   vertex 214.610977 41.655041 151.562820
   vertex 214.611023 41.655281 161.162827
  endloop
 endfacet
 facet normal -0.923879 -0.382686 0.000014
  outer loop
   vertex 214.611023 41.655281 161.162827
   vertex 214.411224 42.137634 161.162827
   vertex 214.411179 42.137390 151.562836
  endloop
 endfacet
 facet normal 0.793354 0.608761 -0.000036
  outer loop
   vertex 206.315186 58.773464 157.164200
   vertex 204.884918 60.637428 157.163605
   vertex 204.884933 60.637646 161.163467
  endloop
 endfacet
 facet normal 0.793353 0.608761 -0.000037
  outer loop
   vertex 204.884933 60.637646 161.163467
   vertex 206.315201 58.773685 161.164063
   vertex 206.315186 58.773464 157.164200
  endloop
 endfacet
 facet normal -0.130535 0.991444 -0.000025
  outer loop
   vertex 213.196808 89.205566 151.554871
   vertex 212.679169 89.137413 151.554871
   vertex 212.679214 89.137657 161.154877
  endloop
 endfacet
 facet normal -0.130521 0.991446 -0.000024
  outer loop
   vertex 212.679214 89.137657 161.154877
   vertex 213.196854 89.205803 161.154861
   vertex 213.196808 89.205566 151.554871
  endloop
 endfacet
 facet normal 0.923879 0.382685 -0.000028
  outer loop
   vertex 204.884918 60.637428 157.163605
   vertex 203.985809 62.808056 157.162903
   vertex 203.985840 62.808273 161.162781
  endloop
 endfacet
 facet normal 0.923881 0.382680 -0.000024
  outer loop
   vertex 203.985840 62.808273 161.162781
   vertex 204.884933 60.637646 161.163467
   vertex 204.884918 60.637428 157.163605
  endloop
 endfacet
 facet normal 0.991446 0.130521 -0.000011
  outer loop
   vertex 203.985809 62.808056 157.162903
   vertex 203.679153 65.137428 157.162170
   vertex 203.679169 65.137650 161.162033
  endloop
 endfacet
 facet normal 0.991445 0.130527 -0.000015
  outer loop
   vertex 203.679169 65.137650 161.162033
   vertex 203.985840 62.808273 161.162781
   vertex 203.985809 62.808056 157.162903
  endloop
 endfacet
 facet normal 0.991446 -0.130521 0.000000
  outer loop
   vertex 203.679153 65.137428 157.162170
   vertex 203.985809 67.466797 157.161423
   vertex 203.985840 67.467018 161.161301
  endloop
 endfacet
 facet normal 0.991445 -0.130528 0.000003
  outer loop
   vertex 203.985840 67.467018 161.161301
   vertex 203.679169 65.137650 161.162033
   vertex 203.679153 65.137428 157.162170
  endloop
 endfacet
 facet normal 0.923879 -0.382685 0.000014
  outer loop
   vertex 203.985809 67.466797 157.161423
   vertex 204.884918 69.637428 157.160721
   vertex 204.884949 69.637650 161.160599
  endloop
 endfacet
 facet normal 0.923879 -0.382685 0.000014
  outer loop
   vertex 204.884949 69.637650 161.160599
   vertex 203.985840 67.467018 161.161301
   vertex 203.985809 67.466797 157.161423
  endloop
 endfacet
 facet normal 0.793353 -0.608761 0.000028
  outer loop
   vertex 204.884918 69.637428 157.160721
   vertex 206.315186 71.501389 157.160126
   vertex 206.315216 71.501610 161.160004
  endloop
 endfacet
 facet normal 0.793353 -0.608761 0.000028
  outer loop
   vertex 206.315216 71.501610 161.160004
   vertex 204.884949 69.637650 161.160599
   vertex 204.884918 69.637428 157.160721
  endloop
 endfacet
 facet normal 0.608760 -0.793355 0.000039
  outer loop
   vertex 206.315216 71.501610 161.160004
   vertex 206.315186 71.501389 157.160126
   vertex 208.179153 72.931656 157.159683
  endloop
 endfacet
 facet normal 0.608763 -0.793352 0.000042
  outer loop
   vertex 208.179153 72.931656 157.159683
   vertex 208.179169 72.931877 161.159546
   vertex 206.315216 71.501610 161.160004
  endloop
 endfacet
 facet normal 0.382683 -0.923880 0.000050
  outer loop
   vertex 208.179169 72.931877 161.159546
   vertex 208.179153 72.931656 157.159683
   vertex 210.349777 73.830757 157.159393
  endloop
 endfacet
 facet normal 0.382683 -0.923880 0.000050
  outer loop
   vertex 210.349777 73.830757 157.159393
   vertex 210.349792 73.830978 161.159256
   vertex 208.179169 72.931877 161.159546
  endloop
 endfacet
 facet normal 0.130527 -0.991445 0.000054
  outer loop
   vertex 210.349792 73.830978 161.159256
   vertex 210.349777 73.830757 157.159393
   vertex 212.679153 74.137428 157.159286
  endloop
 endfacet
 facet normal 0.130524 -0.991445 0.000052
  outer loop
   vertex 212.679153 74.137428 157.159286
   vertex 212.679169 74.137642 161.159164
   vertex 210.349792 73.830978 161.159256
  endloop
 endfacet
 facet normal 0.000000 -1.000000 0.000053
  outer loop
   vertex 212.679169 74.137642 161.159164
   vertex 212.679153 74.137428 157.159286
   vertex 218.679184 74.137428 157.158981
  endloop
 endfacet
 facet normal 0.000000 -1.000000 0.000053
  outer loop
   vertex 218.679184 74.137428 157.158981
   vertex 218.679214 74.137642 161.158859
   vertex 212.679169 74.137642 161.159164
  endloop
 endfacet
 facet normal -0.000367 0.000037 1.000000
  outer loop
   vertex 218.679214 34.871979 161.164536
   vertex 218.679214 56.137646 161.163742
   vertex 214.611023 40.620029 161.162827
  endloop
 endfacet
 facet normal -0.000265 0.000110 1.000000
  outer loop
   vertex 214.611023 40.620029 161.162827
   vertex 214.411224 40.137676 161.162827
   vertex 218.679214 34.871979 161.164536
  endloop
 endfacet
 facet normal -0.000182 0.000177 1.000000
  outer loop
   vertex 214.411224 40.137676 161.162827
   vertex 214.093399 39.723473 161.162842
   vertex 218.679214 34.871979 161.164536
  endloop
 endfacet
 facet normal -0.000155 0.000202 1.000000
  outer loop
   vertex 214.093399 39.723473 161.162842
   vertex 213.679199 39.405643 161.162842
   vertex 218.679214 34.871979 161.164536
  endloop
 endfacet
 facet normal -0.000106 0.000256 1.000000
  outer loop
   vertex 213.679199 39.405643 161.162842
   vertex 213.196838 39.205845 161.162842
   vertex 218.679214 34.871979 161.164536
  endloop
 endfacet
 facet normal -0.000019 0.000367 1.000000
  outer loop
   vertex 213.196838 39.205845 161.162842
   vertex 212.679214 39.137699 161.162857
   vertex 218.679214 34.871979 161.164536
  endloop
 endfacet
 facet normal -0.000452 0.000060 1.000000
  outer loop
   vertex 218.679214 56.137646 161.163742
   vertex 214.679169 41.137653 161.162827
   vertex 214.611023 40.620029 161.162827
  endloop
 endfacet
 facet normal -0.000153 -0.000020 1.000000
  outer loop
   vertex 218.679214 56.137646 161.163742
   vertex 214.611023 41.655281 161.162827
   vertex 214.679169 41.137653 161.162827
  endloop
 endfacet
 facet normal -0.000091 -0.000038 1.000000
  outer loop
   vertex 218.679214 56.137646 161.163742
   vertex 214.411224 42.137634 161.162827
   vertex 214.611023 41.655281 161.162827
  endloop
 endfacet
 facet normal -0.000061 -0.000047 1.000000
  outer loop
   vertex 218.679214 56.137646 161.163742
   vertex 214.093399 42.551838 161.162827
   vertex 214.411224 42.137634 161.162827
  endloop
 endfacet
 facet normal -0.000041 -0.000054 1.000000
  outer loop
   vertex 218.679214 56.137646 161.163742
   vertex 213.679199 42.869667 161.162827
   vertex 214.093399 42.551838 161.162827
  endloop
 endfacet
 facet normal 0.000003 -0.000070 1.000000
  outer loop
   vertex 218.679214 56.137646 161.163742
   vertex 213.196838 43.069466 161.162842
   vertex 213.679199 42.869667 161.162827
  endloop
 endfacet
 facet normal -0.000009 -0.000065 1.000000
  outer loop
   vertex 218.679214 56.137646 161.163742
   vertex 212.679214 43.137611 161.162842
   vertex 213.196838 43.069466 161.162842
  endloop
 endfacet
 facet normal 0.000000 0.000370 1.000000
  outer loop
   vertex 202.679214 34.871979 161.164536
   vertex 218.679214 34.871979 161.164536
   vertex 211.679230 39.405643 161.162857
  endloop
 endfacet
 facet normal 0.000113 0.000147 1.000000
  outer loop
   vertex 211.679230 39.405643 161.162857
   vertex 211.265030 39.723473 161.162857
   vertex 202.679214 34.871979 161.164536
  endloop
 endfacet
 facet normal 0.000151 0.000079 1.000000
  outer loop
   vertex 211.265030 39.723473 161.162857
   vertex 210.947205 40.137676 161.162872
   vertex 202.679214 34.871979 161.164536
  endloop
 endfacet
 facet normal 0.000159 0.000066 1.000000
  outer loop
   vertex 210.947205 40.137676 161.162872
   vertex 210.747406 40.620029 161.162872
   vertex 202.679214 34.871979 161.164536
  endloop
 endfacet
 facet normal 0.000167 0.000055 1.000000
  outer loop
   vertex 210.747406 40.620029 161.162872
   vertex 203.985840 62.808273 161.162781
   vertex 202.679214 34.871979 161.164536
  endloop
 endfacet
 facet normal -0.001447 0.000130 0.999999
  outer loop
   vertex 203.985840 62.808273 161.162781
   vertex 203.679169 65.137650 161.162033
   vertex 202.679214 34.871979 161.164536
  endloop
 endfacet
 facet normal 0.002461 0.000001 0.999997
  outer loop
   vertex 203.679169 65.137650 161.162033
   vertex 202.679214 101.002197 161.164444
   vertex 202.679214 34.871979 161.164536
  endloop
 endfacet
 facet normal 0.000425 0.001027 0.999999
  outer loop
   vertex 218.679214 34.871979 161.164536
   vertex 212.161591 39.205845 161.162857
   vertex 211.679230 39.405643 161.162857
  endloop
 endfacet
 facet normal 0.000064 0.000483 1.000000
  outer loop
   vertex 218.679214 34.871979 161.164536
   vertex 212.679214 39.137699 161.162857
   vertex 212.161591 39.205845 161.162857
  endloop
 endfacet
 facet normal -0.000024 -0.000003 1.000000
  outer loop
   vertex 210.747406 40.620029 161.162872
   vertex 210.679260 41.137653 161.162872
   vertex 203.985840 62.808273 161.162781
  endloop
 endfacet
 facet normal -0.000010 0.000001 1.000000
  outer loop
   vertex 210.679260 41.137653 161.162872
   vertex 210.747406 41.655281 161.162872
   vertex 203.985840 62.808273 161.162781
  endloop
 endfacet
 facet normal 0.000037 0.000016 1.000000
  outer loop
   vertex 210.747406 41.655281 161.162872
   vertex 210.947205 42.137634 161.162857
   vertex 203.985840 62.808273 161.162781
  endloop
 endfacet
 facet normal -0.000003 0.000003 1.000000
  outer loop
   vertex 210.947205 42.137634 161.162857
   vertex 211.265030 42.551838 161.162857
   vertex 203.985840 62.808273 161.162781
  endloop
 endfacet
 facet normal -0.000002 0.000003 1.000000
  outer loop
   vertex 211.265030 42.551838 161.162857
   vertex 211.679230 42.869667 161.162857
   vertex 203.985840 62.808273 161.162781
  endloop
 endfacet
 facet normal 0.000026 0.000014 1.000000
  outer loop
   vertex 211.679230 42.869667 161.162857
   vertex 212.161591 43.069466 161.162842
   vertex 203.985840 62.808273 161.162781
  endloop
 endfacet
 facet normal -0.923280 -0.382419 0.036190
  outer loop
   vertex 212.161591 43.069466 161.162842
   vertex 204.884933 60.637646 161.163467
   vertex 203.985840 62.808273 161.162781
  endloop
 endfacet
 facet normal 0.000004 -0.000034 1.000000
  outer loop
   vertex 212.161591 43.069466 161.162842
   vertex 212.679214 43.137611 161.162842
   vertex 204.884933 60.637646 161.163467
  endloop
 endfacet
 facet normal -0.001103 -0.000527 0.999999
  outer loop
   vertex 212.679214 43.137611 161.162842
   vertex 206.315201 58.773685 161.164063
   vertex 204.884933 60.637646 161.163467
  endloop
 endfacet
 facet normal -0.000444 -0.000259 1.000000
  outer loop
   vertex 212.679214 43.137611 161.162842
   vertex 208.179169 57.343418 161.164520
   vertex 206.315201 58.773685 161.164063
  endloop
 endfacet
 facet normal -0.000210 -0.000185 1.000000
  outer loop
   vertex 212.679214 43.137611 161.162842
   vertex 210.349792 56.444313 161.164810
   vertex 208.179169 57.343418 161.164520
  endloop
 endfacet
 facet normal -0.000067 -0.000160 1.000000
  outer loop
   vertex 212.679214 43.137611 161.162842
   vertex 212.679169 56.137646 161.164917
   vertex 210.349792 56.444313 161.164810
  endloop
 endfacet
 facet normal 0.000196 -0.000160 1.000000
  outer loop
   vertex 212.679214 43.137611 161.162842
   vertex 218.679214 56.137646 161.163742
   vertex 212.679169 56.137646 161.164917
  endloop
 endfacet
 facet normal 0.002392 -0.000001 0.999997
  outer loop
   vertex 203.679169 65.137650 161.162033
   vertex 203.985840 67.467018 161.161301
   vertex 202.679214 101.002197 161.164444
  endloop
 endfacet
 facet normal 0.000920 -0.000058 1.000000
  outer loop
   vertex 203.985840 67.467018 161.161301
   vertex 204.884949 69.637650 161.160599
   vertex 202.679214 101.002197 161.164444
  endloop
 endfacet
 facet normal 0.000527 -0.000086 1.000000
  outer loop
   vertex 204.884949 69.637650 161.160599
   vertex 206.315216 71.501610 161.160004
   vertex 202.679214 101.002197 161.164444
  endloop
 endfacet
 facet normal 0.000330 -0.000110 1.000000
  outer loop
   vertex 206.315216 71.501610 161.160004
   vertex 208.179169 72.931877 161.159546
   vertex 202.679214 101.002197 161.164444
  endloop
 endfacet
 facet normal 0.000190 -0.000137 1.000000
  outer loop
   vertex 208.179169 72.931877 161.159546
   vertex 210.349792 73.830978 161.159256
   vertex 202.679214 101.002197 161.164444
  endloop
 endfacet
 facet normal 0.000062 -0.000173 1.000000
  outer loop
   vertex 210.349792 73.830978 161.159256
   vertex 212.679169 74.137642 161.159164
   vertex 202.679214 101.002197 161.164444
  endloop
 endfacet
 facet normal 0.000051 -0.000178 1.000000
  outer loop
   vertex 212.679169 74.137642 161.159164
   vertex 218.679214 74.137642 161.158859
   vertex 202.679214 101.002197 161.164444
  endloop
 endfacet
 facet normal 0.004058 0.002209 0.999989
  outer loop
   vertex 218.679214 74.137642 161.158859
   vertex 210.947174 90.137657 161.154892
   vertex 202.679214 101.002197 161.164444
  endloop
 endfacet
 facet normal 0.001003 0.000732 0.999999
  outer loop
   vertex 218.679214 74.137642 161.158859
   vertex 211.264999 89.723442 161.154877
   vertex 210.947174 90.137657 161.154892
  endloop
 endfacet
 facet normal 0.000309 0.000402 1.000000
  outer loop
   vertex 218.679214 74.137642 161.158859
   vertex 211.679214 89.405609 161.154877
   vertex 211.264999 89.723442 161.154877
  endloop
 endfacet
 facet normal 0.000133 0.000322 1.000000
  outer loop
   vertex 218.679214 74.137642 161.158859
   vertex 212.161575 89.205803 161.154877
   vertex 211.679214 89.405609 161.154877
  endloop
 endfacet
 facet normal 0.000037 0.000280 1.000000
  outer loop
   vertex 218.679214 74.137642 161.158859
   vertex 212.679214 89.137657 161.154877
   vertex 212.161575 89.205803 161.154877
  endloop
 endfacet
 facet normal 0.002535 0.001050 0.999996
  outer loop
   vertex 210.947174 90.137657 161.154892
   vertex 210.747375 90.620010 161.154892
   vertex 202.679214 101.002197 161.164444
  endloop
 endfacet
 facet normal 0.001425 0.000188 0.999999
  outer loop
   vertex 210.747375 90.620010 161.154892
   vertex 210.679230 91.137650 161.154892
   vertex 202.679214 101.002197 161.164444
  endloop
 endfacet
 facet normal 0.001059 -0.000110 0.999999
  outer loop
   vertex 210.679230 91.137650 161.154892
   vertex 210.747375 91.655289 161.154877
   vertex 202.679214 101.002197 161.164444
  endloop
 endfacet
 facet normal 0.000801 -0.000332 1.000000
  outer loop
   vertex 210.747375 91.655289 161.154877
   vertex 210.947174 92.137650 161.154877
   vertex 202.679214 101.002197 161.164444
  endloop
 endfacet
 facet normal 0.000635 -0.000487 1.000000
  outer loop
   vertex 210.947174 92.137650 161.154877
   vertex 211.264999 92.551857 161.154877
   vertex 202.679214 101.002197 161.164444
  endloop
 endfacet
 facet normal 0.000488 -0.000636 1.000000
  outer loop
   vertex 211.264999 92.551857 161.154877
   vertex 211.679214 92.869690 161.154877
   vertex 202.679214 101.002197 161.164444
  endloop
 endfacet
 facet normal 0.000356 -0.000783 1.000000
  outer loop
   vertex 211.679214 92.869690 161.154877
   vertex 212.161575 93.069496 161.154861
   vertex 202.679214 101.002197 161.164444
  endloop
 endfacet
 facet normal 0.000137 -0.001044 1.000000
  outer loop
   vertex 212.161575 93.069496 161.154861
   vertex 212.679214 93.137642 161.154861
   vertex 202.679214 101.002197 161.164444
  endloop
 endfacet
 facet normal -0.001829 -0.000208 0.999998
  outer loop
   vertex 218.679214 74.137642 161.158859
   vertex 218.679214 101.002197 161.164444
   vertex 214.611053 90.620010 161.154846
  endloop
 endfacet
 facet normal -0.000368 0.000153 1.000000
  outer loop
   vertex 214.611053 90.620010 161.154846
   vertex 214.411255 90.137657 161.154846
   vertex 218.679214 74.137642 161.158859
  endloop
 endfacet
 facet normal -0.000207 0.000196 1.000000
  outer loop
   vertex 214.411255 90.137657 161.154846
   vertex 214.093414 89.723442 161.154861
   vertex 218.679214 74.137642 161.158859
  endloop
 endfacet
 facet normal -0.000161 0.000209 1.000000
  outer loop
   vertex 214.093414 89.723442 161.154861
   vertex 213.679214 89.405609 161.154861
   vertex 218.679214 74.137642 161.158859
  endloop
 endfacet
 facet normal -0.000096 0.000231 1.000000
  outer loop
   vertex 213.679214 89.405609 161.154861
   vertex 213.196854 89.205803 161.154861
   vertex 218.679214 74.137642 161.158859
  endloop
 endfacet
 facet normal -0.000005 0.000263 1.000000
  outer loop
   vertex 213.196854 89.205803 161.154861
   vertex 212.679214 89.137657 161.154877
   vertex 218.679214 74.137642 161.158859
  endloop
 endfacet
 facet normal -0.003553 0.000468 0.999994
  outer loop
   vertex 218.679214 101.002197 161.164444
   vertex 214.679199 91.137650 161.154846
   vertex 214.611053 90.620010 161.154846
  endloop
 endfacet
 facet normal -0.001811 -0.000238 0.999998
  outer loop
   vertex 218.679214 101.002197 161.164444
   vertex 214.611053 91.655289 161.154846
   vertex 214.679199 91.137650 161.154846
  endloop
 endfacet
 facet normal -0.001209 -0.000501 0.999999
  outer loop
   vertex 218.679214 101.002197 161.164444
   vertex 214.411255 92.137650 161.154846
   vertex 214.611053 91.655289 161.154846
  endloop
 endfacet
 facet normal -0.000867 -0.000665 0.999999
  outer loop
   vertex 218.679214 101.002197 161.164444
   vertex 214.093414 92.551857 161.154846
   vertex 214.411255 92.137650 161.154846
  endloop
 endfacet
 facet normal -0.000615 -0.000802 1.000000
  outer loop
   vertex 218.679214 101.002197 161.164444
   vertex 213.679214 92.869690 161.154846
   vertex 214.093414 92.551857 161.154846
  endloop
 endfacet
 facet normal -0.000364 -0.000956 1.000000
  outer loop
   vertex 218.679214 101.002197 161.164444
   vertex 213.196854 93.069496 161.154861
   vertex 213.679214 92.869690 161.154846
  endloop
 endfacet
 facet normal -0.000146 -0.001107 0.999999
  outer loop
   vertex 218.679214 101.002197 161.164444
   vertex 212.679214 93.137642 161.154861
   vertex 213.196854 93.069496 161.154861
  endloop
 endfacet
 facet normal 0.000000 -0.001218 0.999999
  outer loop
   vertex 218.679214 101.002197 161.164444
   vertex 202.679214 101.002197 161.164444
   vertex 212.679214 93.137642 161.154861
  endloop
 endfacet
 facet normal 0.000000 1.000000 -0.000055
  outer loop
   vertex 218.679199 56.137424 157.163879
   vertex 212.679138 56.137424 157.165039
   vertex 212.679169 56.137646 161.164917
  endloop
 endfacet
 facet normal 0.000000 1.000000 -0.000055
  outer loop
   vertex 212.679169 56.137646 161.164917
   vertex 218.679214 56.137646 161.163742
   vertex 218.679199 56.137424 157.163879
  endloop
 endfacet
 facet normal 0.130527 0.991445 -0.000055
  outer loop
   vertex 212.679138 56.137424 157.165039
   vertex 210.349777 56.444092 157.164948
   vertex 210.349792 56.444313 161.164810
  endloop
 endfacet
 facet normal 0.130526 0.991445 -0.000056
  outer loop
   vertex 210.349792 56.444313 161.164810
   vertex 212.679169 56.137646 161.164917
   vertex 212.679138 56.137424 157.165039
  endloop
 endfacet
 facet normal 0.382682 0.923880 -0.000054
  outer loop
   vertex 210.349777 56.444092 157.164948
   vertex 208.179138 57.343197 157.164658
   vertex 208.179169 57.343418 161.164520
  endloop
 endfacet
 facet normal 0.382685 0.923879 -0.000053
  outer loop
   vertex 208.179169 57.343418 161.164520
   vertex 210.349792 56.444313 161.164810
   vertex 210.349777 56.444092 157.164948
  endloop
 endfacet
 facet normal 0.130526 0.991445 -0.000004
  outer loop
   vertex 212.679169 58.887413 151.558853
   vertex 211.061554 59.100376 151.558853
   vertex 211.061569 59.100399 157.158981
  endloop
 endfacet
 facet normal 0.130525 0.991445 -0.000005
  outer loop
   vertex 211.061569 59.100399 157.158981
   vertex 212.679199 58.887436 157.158981
   vertex 212.679169 58.887413 151.558853
  endloop
 endfacet
 facet normal -0.608769 -0.793348 0.000023
  outer loop
   vertex 213.679199 42.869667 161.162827
   vertex 213.679153 42.869427 151.562836
   vertex 214.093353 42.551594 151.562836
  endloop
 endfacet
 facet normal -0.608764 -0.793351 0.000023
  outer loop
   vertex 214.093353 42.551594 151.562836
   vertex 214.093399 42.551838 161.162827
   vertex 213.679199 42.869667 161.162827
  endloop
 endfacet
 facet normal 0.608761 0.793354 -0.000007
  outer loop
   vertex 209.554169 59.724754 151.558853
   vertex 208.259750 60.717995 151.558853
   vertex 208.259781 60.718018 157.158981
  endloop
 endfacet
 facet normal 0.608761 0.793354 -0.000007
  outer loop
   vertex 208.259781 60.718018 157.158981
   vertex 209.554199 59.724777 157.158981
   vertex 209.554169 59.724754 151.558853
  endloop
 endfacet
 facet normal 0.000154 1.000000 0.000167
  outer loop
   vertex 218.679169 107.001953 151.564285
   vertex 212.678024 107.002876 151.563919
   vertex 212.678558 107.002075 156.363419
  endloop
 endfacet
 facet normal 0.000000 1.000000 -0.000025
  outer loop
   vertex 212.678558 107.002075 156.363419
   vertex 218.679199 107.002075 156.364288
   vertex 218.679169 107.001953 151.564285
  endloop
 endfacet
 facet normal 0.000000 0.000025 1.000000
  outer loop
   vertex 212.678558 107.002075 156.363419
   vertex 212.678558 104.002075 156.363495
   vertex 215.678558 104.002075 156.363495
  endloop
 endfacet
 facet normal 0.000544 0.000025 1.000000
  outer loop
   vertex 215.678558 101.002075 156.366074
   vertex 218.679199 101.002075 156.364441
   vertex 218.679199 107.002075 156.364288
  endloop
 endfacet
 facet normal -0.001124 0.000860 0.999999
  outer loop
   vertex 218.679199 107.002075 156.364288
   vertex 215.678558 104.002075 156.363495
   vertex 215.678558 101.002075 156.366074
  endloop
 endfacet
 facet normal -0.000145 -0.000120 1.000000
  outer loop
   vertex 218.679199 107.002075 156.364288
   vertex 212.678558 107.002075 156.363419
   vertex 215.678558 104.002075 156.363495
  endloop
 endfacet
 facet normal 0.000000 -1.000000 0.000432
  outer loop
   vertex 208.679199 104.002075 156.363495
   vertex 205.678558 104.002075 156.363495
   vertex 205.679169 104.000000 151.556854
  endloop
 endfacet
 facet normal 0.000959 -1.000000 -0.000167
  outer loop
   vertex 205.679169 104.000000 151.556854
   vertex 208.678665 104.002876 151.563995
   vertex 208.679199 104.002075 156.363495
  endloop
 endfacet
 facet normal -1.000000 0.000000 -0.000127
  outer loop
   vertex 215.678558 104.002075 156.363495
   vertex 215.679169 104.000000 151.556854
   vertex 215.679169 101.000000 151.559433
  endloop
 endfacet
 facet normal -1.000000 0.000000 -0.000127
  outer loop
   vertex 215.679169 101.000000 151.559433
   vertex 215.678558 101.002075 156.366074
   vertex 215.678558 104.002075 156.363495
  endloop
 endfacet
 facet normal 0.000000 1.000000 -0.000432
  outer loop
   vertex 215.679169 101.000000 151.559433
   vertex 205.679169 101.000000 151.556854
   vertex 215.678558 101.002075 156.366074
  endloop
 endfacet
 facet normal 0.000000 1.000000 -0.000025
  outer loop
   vertex 205.678558 101.002075 156.363495
   vertex 202.679199 101.002075 156.364441
   vertex 202.679214 101.002197 161.164444
  endloop
 endfacet
 facet normal 0.000000 1.000000 -0.000025
  outer loop
   vertex 202.679214 101.002197 161.164444
   vertex 218.679214 101.002197 161.164444
   vertex 205.678558 101.002075 156.363495
  endloop
 endfacet
 facet normal 0.000150 1.000000 -0.000432
  outer loop
   vertex 218.679214 101.002197 161.164444
   vertex 205.679169 101.000000 151.556854
   vertex 205.678558 101.002075 156.363495
  endloop
 endfacet
 facet normal -0.000279 1.000000 0.000149
  outer loop
   vertex 218.679214 101.002197 161.164444
   vertex 215.678558 101.002075 156.366074
   vertex 205.679169 101.000000 151.556854
  endloop
 endfacet
 facet normal 0.000000 1.000000 -0.000025
  outer loop
   vertex 218.679214 101.002197 161.164444
   vertex 218.679199 101.002075 156.364441
   vertex 215.678558 101.002075 156.366074
  endloop
 endfacet
 facet normal 1.000000 0.000000 0.000127
  outer loop
   vertex 205.679169 101.000000 151.556854
   vertex 205.679169 104.000000 151.556854
   vertex 205.678558 104.002075 156.363495
  endloop
 endfacet
 facet normal 1.000000 0.000000 0.000127
  outer loop
   vertex 205.678558 104.002075 156.363495
   vertex 205.678558 101.002075 156.363495
   vertex 205.679169 101.000000 151.556854
  endloop
 endfacet
 facet normal 1.000000 0.000000 -0.000111
  outer loop
   vertex 208.679199 104.002075 156.363495
   vertex 208.678665 104.002876 151.563995
   vertex 208.678665 107.002876 151.564789
  endloop
 endfacet
 facet normal 1.000000 0.000000 -0.000111
  outer loop
   vertex 208.678665 107.002876 151.564789
   vertex 208.679199 107.002075 156.364288
   vertex 208.679199 104.002075 156.363495
  endloop
 endfacet
 facet normal -1.000000 0.000000 0.000111
  outer loop
   vertex 212.678558 107.002075 156.363419
   vertex 212.678024 107.002876 151.563919
   vertex 212.678024 104.002876 151.563995
  endloop
 endfacet
 facet normal -1.000000 0.000000 0.000111
  outer loop
   vertex 212.678024 104.002876 151.563995
   vertex 212.678558 104.002075 156.363495
   vertex 212.678558 107.002075 156.363419
  endloop
 endfacet
 facet normal -0.000154 1.000000 -0.000025
  outer loop
   vertex 208.678665 107.002876 151.564789
   vertex 202.679169 107.001953 151.564285
   vertex 202.679199 107.002075 156.364288
  endloop
 endfacet
 facet normal 0.000000 1.000000 0.000167
  outer loop
   vertex 202.679199 107.002075 156.364288
   vertex 208.679199 107.002075 156.364288
   vertex 208.678665 107.002876 151.564789
  endloop
 endfacet
 facet normal -0.000959 -1.000000 -0.000167
  outer loop
   vertex 212.678558 104.002075 156.363495
   vertex 212.678024 104.002876 151.563995
   vertex 215.679169 104.000000 151.556854
  endloop
 endfacet
 facet normal 0.000000 -1.000000 0.000432
  outer loop
   vertex 215.679169 104.000000 151.556854
   vertex 215.678558 104.002075 156.363495
   vertex 212.678558 104.002075 156.363495
  endloop
 endfacet
 facet normal 0.000000 -0.000387 -1.000000
  outer loop
   vertex 218.679169 34.871735 151.564529
   vertex 202.679169 34.871735 151.564529
   vertex 213.196793 39.205605 151.562851
  endloop
 endfacet
 facet normal 0.000085 -0.000280 -1.000000
  outer loop
   vertex 213.196793 39.205605 151.562851
   vertex 213.679153 39.405399 151.562836
   vertex 218.679169 34.871735 151.564529
  endloop
 endfacet
 facet normal 0.000155 -0.000202 -1.000000
  outer loop
   vertex 213.679153 39.405399 151.562836
   vertex 214.093353 39.723228 151.562836
   vertex 218.679169 34.871735 151.564529
  endloop
 endfacet
 facet normal 0.000204 -0.000156 -1.000000
  outer loop
   vertex 214.093353 39.723228 151.562836
   vertex 214.411179 40.137436 151.562836
   vertex 218.679169 34.871735 151.564529
  endloop
 endfacet
 facet normal 0.000263 -0.000109 -1.000000
  outer loop
   vertex 214.411179 40.137436 151.562836
   vertex 214.610977 40.619785 151.562836
   vertex 218.679169 34.871735 151.564529
  endloop
 endfacet
 facet normal 0.000179 -0.000168 -1.000000
  outer loop
   vertex 214.610977 40.619785 151.562836
   vertex 218.679169 58.887413 151.560501
   vertex 218.679169 34.871735 151.564529
  endloop
 endfacet
 facet normal 0.000075 -0.000569 -1.000000
  outer loop
   vertex 202.679169 34.871735 151.564529
   vertex 212.679169 39.137455 151.562851
   vertex 213.196793 39.205605 151.562851
  endloop
 endfacet
 facet normal -0.001404 0.000185 -0.999999
  outer loop
   vertex 214.610977 40.619785 151.562836
   vertex 214.679123 41.137413 151.562836
   vertex 218.679169 58.887413 151.560501
  endloop
 endfacet
 facet normal -0.000286 -0.000067 -1.000000
  outer loop
   vertex 214.679123 41.137413 151.562836
   vertex 214.610977 41.655041 151.562820
   vertex 218.679169 58.887413 151.560501
  endloop
 endfacet
 facet normal -0.000256 -0.000074 -1.000000
  outer loop
   vertex 214.610977 41.655041 151.562820
   vertex 214.411179 42.137390 151.562836
   vertex 218.679169 58.887413 151.560501
  endloop
 endfacet
 facet normal -0.000136 -0.000105 -1.000000
  outer loop
   vertex 214.411179 42.137390 151.562836
   vertex 214.093353 42.551594 151.562836
   vertex 218.679169 58.887413 151.560501
  endloop
 endfacet
 facet normal -0.000090 -0.000118 -1.000000
  outer loop
   vertex 214.093353 42.551594 151.562836
   vertex 213.679153 42.869427 151.562836
   vertex 218.679169 58.887413 151.560501
  endloop
 endfacet
 facet normal -0.000053 -0.000129 -1.000000
  outer loop
   vertex 213.679153 42.869427 151.562836
   vertex 213.196793 43.069221 151.562836
   vertex 218.679169 58.887413 151.560501
  endloop
 endfacet
 facet normal -0.000019 -0.000141 -1.000000
  outer loop
   vertex 213.196793 43.069221 151.562836
   vertex 212.679169 43.137367 151.562836
   vertex 218.679169 58.887413 151.560501
  endloop
 endfacet
 facet normal 0.000275 -0.000253 -1.000000
  outer loop
   vertex 212.679169 43.137367 151.562836
   vertex 212.679169 58.887413 151.558853
   vertex 218.679169 58.887413 151.560501
  endloop
 endfacet
 facet normal -0.000498 0.000237 -1.000000
  outer loop
   vertex 218.679169 107.001953 151.564285
   vertex 218.679169 71.387405 151.555862
   vertex 212.679169 71.387405 151.558853
  endloop
 endfacet
 facet normal 0.005298 -0.000740 -0.999986
  outer loop
   vertex 212.679169 71.387405 151.558853
   vertex 214.611023 90.619774 151.554855
   vertex 218.679169 107.001953 151.564285
  endloop
 endfacet
 facet normal 0.000662 -0.000274 -1.000000
  outer loop
   vertex 212.679169 71.387405 151.558853
   vertex 214.411209 90.137413 151.554855
   vertex 214.611023 90.619774 151.554855
  endloop
 endfacet
 facet normal 0.000316 -0.000242 -1.000000
  outer loop
   vertex 212.679169 71.387405 151.558853
   vertex 214.093384 89.723198 151.554855
   vertex 214.411209 90.137413 151.554855
  endloop
 endfacet
 facet normal 0.000178 -0.000232 -1.000000
  outer loop
   vertex 212.679169 71.387405 151.558853
   vertex 213.679169 89.405365 151.554855
   vertex 214.093384 89.723198 151.554855
  endloop
 endfacet
 facet normal 0.000062 -0.000225 -1.000000
  outer loop
   vertex 212.679169 71.387405 151.558853
   vertex 213.196808 89.205566 151.554871
   vertex 213.679169 89.405365 151.554855
  endloop
 endfacet
 facet normal 0.000030 -0.000224 -1.000000
  outer loop
   vertex 212.679169 71.387405 151.558853
   vertex 212.679169 89.137413 151.554871
   vertex 213.196808 89.205566 151.554871
  endloop
 endfacet
 facet normal 0.005186 -0.000712 -0.999986
  outer loop
   vertex 214.611023 90.619774 151.554855
   vertex 214.679169 91.137405 151.554840
   vertex 218.679169 107.001953 151.564285
  endloop
 endfacet
 facet normal 0.001551 0.000204 -0.999999
  outer loop
   vertex 214.679169 91.137405 151.554840
   vertex 214.611023 91.655045 151.554840
   vertex 218.679169 107.001953 151.564285
  endloop
 endfacet
 facet normal 0.000906 0.000375 -1.000000
  outer loop
   vertex 214.611023 91.655045 151.554840
   vertex 214.411209 92.137405 151.554840
   vertex 218.679169 107.001953 151.564285
  endloop
 endfacet
 facet normal 0.000568 0.000472 -1.000000
  outer loop
   vertex 214.411209 92.137405 151.554840
   vertex 214.093384 92.551613 151.554855
   vertex 218.679169 107.001953 151.564285
  endloop
 endfacet
 facet normal 0.000403 0.000525 -1.000000
  outer loop
   vertex 214.093384 92.551613 151.554855
   vertex 213.679169 92.869453 151.554855
   vertex 218.679169 107.001953 151.564285
  endloop
 endfacet
 facet normal 0.000241 0.000582 -1.000000
  outer loop
   vertex 213.679169 92.869453 151.554855
   vertex 213.196808 93.069252 151.554855
   vertex 218.679169 107.001953 151.564285
  endloop
 endfacet
 facet normal 0.000085 0.000643 -1.000000
  outer loop
   vertex 213.196808 93.069252 151.554855
   vertex 212.679169 93.137398 151.554855
   vertex 218.679169 107.001953 151.564285
  endloop
 endfacet
 facet normal 0.001913 -0.000148 -0.999998
  outer loop
   vertex 212.679169 93.137398 151.554855
   vertex 215.679169 101.000000 151.559433
   vertex 218.679169 107.001953 151.564285
  endloop
 endfacet
 facet normal 0.000258 0.000484 -1.000000
  outer loop
   vertex 212.679169 93.137398 151.554855
   vertex 205.679169 101.000000 151.556854
   vertex 215.679169 101.000000 151.559433
  endloop
 endfacet
 facet normal 0.003337 -0.000860 -0.999994
  outer loop
   vertex 215.679169 101.000000 151.559433
   vertex 215.679169 104.000000 151.556854
   vertex 218.679169 107.001953 151.564285
  endloop
 endfacet
 facet normal -0.002375 0.004849 -0.999985
  outer loop
   vertex 215.679169 104.000000 151.556854
   vertex 212.678024 104.002876 151.563995
   vertex 218.679169 107.001953 151.564285
  endloop
 endfacet
 facet normal 0.000061 -0.000025 -1.000000
  outer loop
   vertex 212.678024 104.002876 151.563995
   vertex 212.678024 107.002876 151.563919
   vertex 218.679169 107.001953 151.564285
  endloop
 endfacet
 facet normal -0.001486 -0.000003 -0.999999
  outer loop
   vertex 202.679169 34.871735 151.564529
   vertex 202.679169 107.001953 151.564285
   vertex 206.429169 65.137413 151.558853
  endloop
 endfacet
 facet normal -0.000734 -0.000097 -1.000000
  outer loop
   vertex 206.429169 65.137413 151.558853
   vertex 206.642136 63.519791 151.558853
   vertex 202.679169 34.871735 151.564529
  endloop
 endfacet
 facet normal -0.000072 -0.000188 -1.000000
  outer loop
   vertex 206.642136 63.519791 151.558853
   vertex 210.747360 40.619785 151.562866
   vertex 202.679169 34.871735 151.564529
  endloop
 endfacet
 facet normal -0.000159 -0.000066 -1.000000
  outer loop
   vertex 210.747360 40.619785 151.562866
   vertex 210.947159 40.137436 151.562866
   vertex 202.679169 34.871735 151.564529
  endloop
 endfacet
 facet normal -0.000135 -0.000104 -1.000000
  outer loop
   vertex 210.947159 40.137436 151.562866
   vertex 211.264984 39.723228 151.562866
   vertex 202.679169 34.871735 151.564529
  endloop
 endfacet
 facet normal -0.000112 -0.000145 -1.000000
  outer loop
   vertex 211.264984 39.723228 151.562866
   vertex 211.679199 39.405399 151.562866
   vertex 202.679169 34.871735 151.564529
  endloop
 endfacet
 facet normal -0.000101 -0.000167 -1.000000
  outer loop
   vertex 211.679199 39.405399 151.562866
   vertex 212.161545 39.205605 151.562851
   vertex 202.679169 34.871735 151.564529
  endloop
 endfacet
 facet normal -0.000040 -0.000301 -1.000000
  outer loop
   vertex 212.161545 39.205605 151.562851
   vertex 212.679169 39.137455 151.562851
   vertex 202.679169 34.871735 151.564529
  endloop
 endfacet
 facet normal 0.003680 0.000485 -0.999993
  outer loop
   vertex 206.642136 63.519791 151.558853
   vertex 210.679214 41.137413 151.562866
   vertex 210.747360 40.619785 151.562866
  endloop
 endfacet
 facet normal 0.000575 -0.000076 -1.000000
  outer loop
   vertex 206.642136 63.519791 151.558853
   vertex 210.747360 41.655041 151.562866
   vertex 210.679214 41.137413 151.562866
  endloop
 endfacet
 facet normal 0.000305 -0.000126 -1.000000
  outer loop
   vertex 206.642136 63.519791 151.558853
   vertex 210.947159 42.137390 151.562866
   vertex 210.747360 41.655041 151.562866
  endloop
 endfacet
 facet normal 0.000156 -0.000156 -1.000000
  outer loop
   vertex 206.642136 63.519791 151.558853
   vertex 211.264984 42.551594 151.562851
   vertex 210.947159 42.137390 151.562866
  endloop
 endfacet
 facet normal 0.000125 -0.000163 -1.000000
  outer loop
   vertex 206.642136 63.519791 151.558853
   vertex 211.679199 42.869427 151.562851
   vertex 211.264984 42.551594 151.562851
  endloop
 endfacet
 facet normal 0.000073 -0.000176 -1.000000
  outer loop
   vertex 206.642136 63.519791 151.558853
   vertex 212.161545 43.069221 151.562851
   vertex 211.679199 42.869427 151.562851
  endloop
 endfacet
 facet normal -0.000004 -0.000196 -1.000000
  outer loop
   vertex 206.642136 63.519791 151.558853
   vertex 212.679169 43.137367 151.562836
   vertex 212.161545 43.069221 151.562851
  endloop
 endfacet
 facet normal -0.001656 -0.000686 -0.999998
  outer loop
   vertex 206.642136 63.519791 151.558853
   vertex 207.266510 62.012413 151.558853
   vertex 212.679169 43.137367 151.562836
  endloop
 endfacet
 facet normal -0.000439 -0.000337 -1.000000
  outer loop
   vertex 207.266510 62.012413 151.558853
   vertex 208.259750 60.717995 151.558853
   vertex 212.679169 43.137367 151.562836
  endloop
 endfacet
 facet normal -0.000215 -0.000281 -1.000000
  outer loop
   vertex 208.259750 60.717995 151.558853
   vertex 209.554169 59.724754 151.558853
   vertex 212.679169 43.137367 151.562836
  endloop
 endfacet
 facet normal -0.000108 -0.000260 -1.000000
  outer loop
   vertex 209.554169 59.724754 151.558853
   vertex 211.061554 59.100376 151.558853
   vertex 212.679169 43.137367 151.562836
  endloop
 endfacet
 facet normal -0.000033 -0.000253 -1.000000
  outer loop
   vertex 211.061554 59.100376 151.558853
   vertex 212.679169 58.887413 151.558853
   vertex 212.679169 43.137367 151.562836
  endloop
 endfacet
 facet normal -0.000587 0.000077 -1.000000
  outer loop
   vertex 202.679169 107.001953 151.564285
   vertex 206.642136 66.755028 151.558853
   vertex 206.429169 65.137413 151.558853
  endloop
 endfacet
 facet normal -0.000263 0.000109 -1.000000
  outer loop
   vertex 202.679169 107.001953 151.564285
   vertex 207.266510 68.262405 151.558853
   vertex 206.642136 66.755028 151.558853
  endloop
 endfacet
 facet normal -0.000158 0.000121 -1.000000
  outer loop
   vertex 202.679169 107.001953 151.564285
   vertex 208.259750 69.556824 151.558853
   vertex 207.266510 68.262405 151.558853
  endloop
 endfacet
 facet normal -0.000100 0.000130 -1.000000
  outer loop
   vertex 202.679169 107.001953 151.564285
   vertex 209.554169 70.550064 151.558853
   vertex 208.259750 69.556824 151.558853
  endloop
 endfacet
 facet normal -0.000057 0.000138 -1.000000
  outer loop
   vertex 202.679169 107.001953 151.564285
   vertex 211.061554 71.174446 151.558853
   vertex 209.554169 70.550064 151.558853
  endloop
 endfacet
 facet normal -0.000019 0.000147 -1.000000
  outer loop
   vertex 202.679169 107.001953 151.564285
   vertex 212.679169 71.387405 151.558853
   vertex 211.061554 71.174446 151.558853
  endloop
 endfacet
 facet normal -0.001933 -0.000390 -0.999998
  outer loop
   vertex 202.679169 107.001953 151.564285
   vertex 210.947128 90.137413 151.554886
   vertex 212.679169 71.387405 151.558853
  endloop
 endfacet
 facet normal -0.000313 -0.000241 -1.000000
  outer loop
   vertex 210.947128 90.137413 151.554886
   vertex 211.264969 89.723198 151.554886
   vertex 212.679169 71.387405 151.558853
  endloop
 endfacet
 facet normal -0.000176 -0.000230 -1.000000
  outer loop
   vertex 211.264969 89.723198 151.554886
   vertex 211.679169 89.405365 151.554886
   vertex 212.679169 71.387405 151.558853
  endloop
 endfacet
 facet normal -0.000126 -0.000227 -1.000000
  outer loop
   vertex 211.679169 89.405365 151.554886
   vertex 212.161530 89.205566 151.554871
   vertex 212.679169 71.387405 151.558853
  endloop
 endfacet
 facet normal -0.000030 -0.000224 -1.000000
  outer loop
   vertex 212.161530 89.205566 151.554871
   vertex 212.679169 89.137413 151.554871
   vertex 212.679169 71.387405 151.558853
  endloop
 endfacet
 facet normal -0.007329 -0.003036 -0.999969
  outer loop
   vertex 202.679169 107.001953 151.564285
   vertex 210.747330 90.619774 151.554886
   vertex 210.947128 90.137413 151.554886
  endloop
 endfacet
 facet normal -0.090042 -0.043774 -0.994976
  outer loop
   vertex 202.679169 107.001953 151.564285
   vertex 205.679169 101.000000 151.556854
   vertex 210.747330 90.619774 151.554886
  endloop
 endfacet
 facet normal -0.000532 -0.000070 -1.000000
  outer loop
   vertex 205.679169 101.000000 151.556854
   vertex 210.679184 91.137405 151.554886
   vertex 210.747330 90.619774 151.554886
  endloop
 endfacet
 facet normal -0.000313 0.000041 -1.000000
  outer loop
   vertex 205.679169 101.000000 151.556854
   vertex 210.747330 91.655045 151.554886
   vertex 210.679184 91.137405 151.554886
  endloop
 endfacet
 facet normal -0.000220 0.000091 -1.000000
  outer loop
   vertex 205.679169 101.000000 151.556854
   vertex 210.947128 92.137405 151.554886
   vertex 210.747330 91.655045 151.554886
  endloop
 endfacet
 facet normal -0.000190 0.000109 -1.000000
  outer loop
   vertex 205.679169 101.000000 151.556854
   vertex 211.264969 92.551613 151.554871
   vertex 210.947128 92.137405 151.554886
  endloop
 endfacet
 facet normal -0.000120 0.000156 -1.000000
  outer loop
   vertex 205.679169 101.000000 151.556854
   vertex 211.679169 92.869453 151.554871
   vertex 211.264969 92.551613 151.554871
  endloop
 endfacet
 facet normal -0.000077 0.000187 -1.000000
  outer loop
   vertex 205.679169 101.000000 151.556854
   vertex 212.161530 93.069252 151.554871
   vertex 211.679169 92.869453 151.554871
  endloop
 endfacet
 facet normal -0.000056 0.000204 -1.000000
  outer loop
   vertex 205.679169 101.000000 151.556854
   vertex 212.679169 93.137398 151.554855
   vertex 212.161530 93.069252 151.554871
  endloop
 endfacet
 facet normal -0.002477 0.000000 -0.999997
  outer loop
   vertex 202.679169 107.001953 151.564285
   vertex 205.679169 104.000000 151.556854
   vertex 205.679169 101.000000 151.556854
  endloop
 endfacet
 facet normal 0.002376 0.004850 -0.999985
  outer loop
   vertex 202.679169 107.001953 151.564285
   vertex 208.678665 104.002876 151.563995
   vertex 205.679169 104.000000 151.556854
  endloop
 endfacet
 facet normal 0.000084 0.000264 -1.000000
  outer loop
   vertex 202.679169 107.001953 151.564285
   vertex 208.678665 107.002876 151.564789
   vertex 208.678665 104.002876 151.563995
  endloop
 endfacet
 facet normal 0.000315 0.000025 1.000000
  outer loop
   vertex 202.679199 107.002075 156.364288
   vertex 202.679199 101.002075 156.364441
   vertex 205.678558 101.002075 156.363495
  endloop
 endfacet
 facet normal 0.000265 0.000000 1.000000
  outer loop
   vertex 205.678558 101.002075 156.363495
   vertex 205.678558 104.002075 156.363495
   vertex 202.679199 107.002075 156.364288
  endloop
 endfacet
 facet normal 0.000000 -0.000264 1.000000
  outer loop
   vertex 205.678558 104.002075 156.363495
   vertex 208.679199 104.002075 156.363495
   vertex 202.679199 107.002075 156.364288
  endloop
 endfacet
 facet normal 0.000000 -0.000264 1.000000
  outer loop
   vertex 208.679199 104.002075 156.363495
   vertex 208.679199 107.002075 156.364288
   vertex 202.679199 107.002075 156.364288
  endloop
 endfacet
endsolid Extruder Clamp (repaired)
