solid Main Design
facet normal -0.0 -1.0 0.0
outer loop
vertex 406.400000000003 -581.353650773054 16.3686059513652
vertex 413.500000223521 -581.353650773054 1.36860605716337
vertex 413.500000000003 -581.353650773054 16.3686060571634
endloop
endfacet
facet normal -0.0 -1.0 0.0
outer loop
vertex 413.500000223521 -581.353650773054 1.36860605716337
vertex 406.400000000003 -581.353650773054 16.3686059513652
vertex 406.400000223521 -581.353650773054 1.36860595136515
endloop
endfacet
facet normal -1.0 0.0 -1.4901157835423e-008
outer loop
vertex 413.500000000003 -588.453650773054 16.3686060571634
vertex 413.500000223521 -581.353650773054 1.36860605716337
vertex 413.500000223521 -588.453650773054 1.36860605716337
endloop
endfacet
facet normal -1.0 0.0 -1.4901157835423e-008
outer loop
vertex 413.500000223521 -581.353650773054 1.36860605716337
vertex 413.500000000003 -588.453650773054 16.3686060571634
vertex 413.500000000003 -581.353650773054 16.3686060571634
endloop
endfacet
facet normal 0.0 1.0 0.0
outer loop
vertex 411.400000223521 -588.453650773054 1.36860602587094
vertex 413.500000000003 -588.453650773054 16.3686060571634
vertex 413.500000223521 -588.453650773054 1.36860605716337
endloop
endfacet
facet normal 0.0 1.0 0.0
outer loop
vertex 413.500000000003 -588.453650773054 16.3686060571634
vertex 411.400000223521 -588.453650773054 1.36860602587094
vertex 411.400000000003 -588.453650773054 16.368606025871
endloop
endfacet
facet normal -0.707106781186563 -0.707106781186532 -1.05367097529589e-008
outer loop
vertex 413.400000000003 -590.453650773054 16.3686060556733
vertex 411.400000223521 -588.453650773054 1.36860602587094
vertex 413.400000223521 -590.453650773054 1.36860605567325
endloop
endfacet
facet normal -0.707106781186563 -0.707106781186532 -1.05367097529589e-008
outer loop
vertex 411.400000223521 -588.453650773054 1.36860602587094
vertex 413.400000000003 -590.453650773054 16.3686060556733
vertex 411.400000000003 -588.453650773054 16.368606025871
endloop
endfacet
facet normal -1.0 0.0 -1.4901157835423e-008
outer loop
vertex 413.400000000003 -596.453650773054 16.3686060556733
vertex 413.400000223521 -590.453650773054 1.36860605567325
vertex 413.400000223521 -596.453650773054 1.36860605567325
endloop
endfacet
facet normal -1.0 0.0 -1.4901157835423e-008
outer loop
vertex 413.400000223521 -590.453650773054 1.36860605567325
vertex 413.400000000003 -596.453650773054 16.3686060556733
vertex 413.400000000003 -590.453650773054 16.3686060556733
endloop
endfacet
facet normal 1.0 0.0 1.4901157835423e-008
outer loop
vertex 415.500000000003 -579.353650773054 16.3686060869657
vertex 415.500000223521 -594.453650773054 1.36860608696569
vertex 415.500000223521 -579.353650773054 1.36860608696569
endloop
endfacet
facet normal 1.0 0.0 1.4901157835423e-008
outer loop
vertex 415.500000223521 -594.453650773054 1.36860608696569
vertex 415.500000000003 -579.353650773054 16.3686060869657
vertex 415.500000000003 -594.453650773054 16.3686060869657
endloop
endfacet
facet normal 0.0 1.0 0.0
outer loop
vertex 404.400000223521 -579.353650773054 1.36860592156283
vertex 415.500000000003 -579.353650773054 16.3686060869657
vertex 415.500000223521 -579.353650773054 1.36860608696569
endloop
endfacet
facet normal 0.0 1.0 0.0
outer loop
vertex 415.500000000003 -579.353650773054 16.3686060869657
vertex 404.400000223521 -579.353650773054 1.36860592156283
vertex 404.400000000003 -579.353650773054 16.3686059215629
endloop
endfacet
facet normal -1.0 0.0 -1.4901157835423e-008
outer loop
vertex 404.400000000003 -581.453650773054 16.3686059215629
vertex 404.400000223521 -579.353650773054 1.36860592156283
vertex 404.400000223521 -581.453650773054 1.36860592156283
endloop
endfacet
facet normal -1.0 0.0 -1.4901157835423e-008
outer loop
vertex 404.400000223521 -579.353650773054 1.36860592156283
vertex 404.400000000003 -581.453650773054 16.3686059215629
vertex 404.400000000003 -579.353650773054 16.3686059215629
endloop
endfacet
facet normal -1.4901157835423e-008 0.0 1.0
outer loop
vertex 415.500000000003 -594.453650773054 16.3686060869657
vertex 413.400000000003 -590.453650773054 16.3686060556733
vertex 413.400000000003 -596.453650773054 16.3686060556733
endloop
endfacet
facet normal -1.4901157835423e-008 0.0 1.0
outer loop
vertex 413.400000000003 -590.453650773054 16.3686060556733
vertex 415.500000000003 -594.453650773054 16.3686060869657
vertex 415.500000000003 -579.353650773054 16.3686060869657
endloop
endfacet
facet normal -1.4901157835423e-008 0.0 1.0
outer loop
vertex 413.400000000003 -590.453650773054 16.3686060556733
vertex 415.500000000003 -579.353650773054 16.3686060869657
vertex 413.500000000003 -588.453650773054 16.3686060571634
endloop
endfacet
facet normal -1.4901157835423e-008 0.0 1.0
outer loop
vertex 413.500000000003 -588.453650773054 16.3686060571634
vertex 415.500000000003 -579.353650773054 16.3686060869657
vertex 413.500000000003 -581.353650773054 16.3686060571634
endloop
endfacet
facet normal -1.4901157835423e-008 0.0 1.0
outer loop
vertex 413.500000000003 -581.353650773054 16.3686060571634
vertex 415.500000000003 -579.353650773054 16.3686060869657
vertex 406.400000000003 -581.353650773054 16.3686059513652
endloop
endfacet
facet normal -1.4901157835423e-008 0.0 1.0
outer loop
vertex 406.400000000003 -581.353650773054 16.3686059513652
vertex 404.400000000003 -581.453650773054 16.3686059215629
vertex 406.400000000003 -583.453650773054 16.3686059513652
endloop
endfacet
facet normal -1.4901157835423e-008 0.0 1.0
outer loop
vertex 404.400000000003 -581.453650773054 16.3686059215629
vertex 406.400000000003 -581.353650773054 16.3686059513652
vertex 404.400000000003 -579.353650773054 16.3686059215629
endloop
endfacet
facet normal -1.4901157835423e-008 0.0 1.0
outer loop
vertex 404.400000000003 -579.353650773054 16.3686059215629
vertex 406.400000000003 -581.353650773054 16.3686059513652
vertex 415.500000000003 -579.353650773054 16.3686060869657
endloop
endfacet
facet normal -1.4901157835423e-008 0.0 1.0
outer loop
vertex 411.400000000003 -588.453650773054 16.368606025871
vertex 413.400000000003 -590.453650773054 16.3686060556733
vertex 413.500000000003 -588.453650773054 16.3686060571634
endloop
endfacet
facet normal 0.689655172413792 -0.724137931034484 1.02766605781799e-008
outer loop
vertex 413.400000000003 -596.453650773054 16.3686060556733
vertex 415.500000223521 -594.453650773054 1.36860608696569
vertex 415.500000000003 -594.453650773054 16.3686060869657
endloop
endfacet
facet normal 0.689655172413792 -0.724137931034484 1.02766605781799e-008
outer loop
vertex 415.500000223521 -594.453650773054 1.36860608696569
vertex 413.400000000003 -596.453650773054 16.3686060556733
vertex 413.400000223521 -596.453650773054 1.36860605567325
endloop
endfacet
facet normal -0.707106781186547 -0.707106781186548 -1.05367097529587e-008
outer loop
vertex 404.400000000003 -581.453650773054 16.3686059215629
vertex 406.400000223521 -583.453650773054 1.36860595136515
vertex 406.400000000003 -583.453650773054 16.3686059513652
endloop
endfacet
facet normal -0.707106781186547 -0.707106781186548 -1.05367097529587e-008
outer loop
vertex 406.400000223521 -583.453650773054 1.36860595136515
vertex 404.400000000003 -581.453650773054 16.3686059215629
vertex 404.400000223521 -581.453650773054 1.36860592156283
endloop
endfacet
facet normal 1.0 -0.0 1.4901157835423e-008
outer loop
vertex 406.400000000003 -581.353650773054 16.3686059513652
vertex 406.400000223521 -583.453650773054 1.36860595136515
vertex 406.400000223521 -581.353650773054 1.36860595136515
endloop
endfacet
facet normal 1.0 -0.0 1.4901157835423e-008
outer loop
vertex 406.400000223521 -583.453650773054 1.36860595136515
vertex 406.400000000003 -581.353650773054 16.3686059513652
vertex 406.400000000003 -583.453650773054 16.3686059513652
endloop
endfacet
facet normal 1.4901157835423e-008 0.0 -1.0
outer loop
vertex 404.400000223521 -581.453650773054 1.36860592156283
vertex 406.400000223521 -581.353650773054 1.36860595136515
vertex 406.400000223521 -583.453650773054 1.36860595136515
endloop
endfacet
facet normal 1.4901157835423e-008 0.0 -1.0
outer loop
vertex 406.400000223521 -581.353650773054 1.36860595136515
vertex 404.400000223521 -581.453650773054 1.36860592156283
vertex 404.400000223521 -579.353650773054 1.36860592156283
endloop
endfacet
facet normal 1.4901157835423e-008 0.0 -1.0
outer loop
vertex 406.400000223521 -581.353650773054 1.36860595136515
vertex 404.400000223521 -579.353650773054 1.36860592156283
vertex 413.500000223521 -581.353650773054 1.36860605716337
endloop
endfacet
facet normal 1.4901157835423e-008 0.0 -1.0
outer loop
vertex 413.400000223521 -590.453650773054 1.36860605567325
vertex 415.500000223521 -594.453650773054 1.36860608696569
vertex 413.400000223521 -596.453650773054 1.36860605567325
endloop
endfacet
facet normal 1.4901157835423e-008 0.0 -1.0
outer loop
vertex 415.500000223521 -594.453650773054 1.36860608696569
vertex 413.400000223521 -590.453650773054 1.36860605567325
vertex 415.500000223521 -579.353650773054 1.36860608696569
endloop
endfacet
facet normal 1.4901157835423e-008 0.0 -1.0
outer loop
vertex 415.500000223521 -579.353650773054 1.36860608696569
vertex 413.400000223521 -590.453650773054 1.36860605567325
vertex 413.500000223521 -588.453650773054 1.36860605716337
endloop
endfacet
facet normal 1.4901157835423e-008 0.0 -1.0
outer loop
vertex 413.500000223521 -588.453650773054 1.36860605716337
vertex 413.400000223521 -590.453650773054 1.36860605567325
vertex 411.400000223521 -588.453650773054 1.36860602587094
endloop
endfacet
facet normal 1.4901157835423e-008 0.0 -1.0
outer loop
vertex 415.500000223521 -579.353650773054 1.36860608696569
vertex 413.500000223521 -588.453650773054 1.36860605716337
vertex 413.500000223521 -581.353650773054 1.36860605716337
endloop
endfacet
facet normal 1.4901157835423e-008 0.0 -1.0
outer loop
vertex 415.500000223521 -579.353650773054 1.36860608696569
vertex 413.500000223521 -581.353650773054 1.36860605716337
vertex 404.400000223521 -579.353650773054 1.36860592156283
endloop
endfacet
endsolid Main Design
