solid Main Design
facet normal 0.0 -1.0 0.0
outer loop
vertex 413.500000223521 -581.353650773054 1.36860605716337
vertex 406.400000000003 -581.353650773054 16.3686059513651
vertex 406.400000223521 -581.353650773054 1.36860595136515
endloop
endfacet
facet normal 0.0 -1.0 0.0
outer loop
vertex 406.400000000003 -581.353650773054 16.3686059513651
vertex 413.500000223521 -581.353650773054 1.36860605716337
vertex 413.500000000003 -581.353650773054 16.3686060571634
endloop
endfacet
facet normal -1.0 -1.45717097900394e-024 -1.49011601043488e-008
outer loop
vertex 413.400000000003 -590.453650773054 16.3686060556733
vertex 413.400000223521 -603.985701580623 1.36860605567325
vertex 413.400000000003 -603.985701580623 16.3686060556733
endloop
endfacet
facet normal -1.0 -1.45717097900394e-024 -1.49011601043488e-008
outer loop
vertex 413.400000223521 -603.985701580623 1.36860605567325
vertex 413.400000000003 -590.453650773054 16.3686060556733
vertex 413.400000223521 -590.453650773054 1.36860605567325
endloop
endfacet
facet normal 0.0 1.0 0.0
outer loop
vertex 404.400000000004 -579.353650773054 16.3686059215628
vertex 415.500000223521 -579.353650773054 1.36860608696569
vertex 404.400000223521 -579.353650773054 1.36860592156283
endloop
endfacet
facet normal 0.0 1.0 0.0
outer loop
vertex 415.500000223521 -579.353650773054 1.36860608696569
vertex 404.400000000004 -579.353650773054 16.3686059215628
vertex 415.500000000003 -579.353650773054 16.3686060869657
endloop
endfacet
facet normal -0.707106781186562 -0.707106781186533 -1.05367097529589e-008
outer loop
vertex 411.400000000003 -588.453650773054 16.3686060258709
vertex 413.400000223521 -590.453650773054 1.36860605567325
vertex 413.400000000003 -590.453650773054 16.3686060556733
endloop
endfacet
facet normal -0.707106781186562 -0.707106781186533 -1.05367097529589e-008
outer loop
vertex 413.400000223521 -590.453650773054 1.36860605567325
vertex 411.400000000003 -588.453650773054 16.3686060258709
vertex 411.400000223521 -588.453650773054 1.36860602587094
endloop
endfacet
facet normal 0.0 1.0 0.0
outer loop
vertex 411.400000000003 -588.453650773054 16.3686060258709
vertex 413.500000223521 -588.453650773054 1.36860605716337
vertex 411.400000223521 -588.453650773054 1.36860602587094
endloop
endfacet
facet normal 0.0 1.0 0.0
outer loop
vertex 413.500000223521 -588.453650773054 1.36860605716337
vertex 411.400000000003 -588.453650773054 16.3686060258709
vertex 413.500000000003 -588.453650773054 16.3686060571634
endloop
endfacet
facet normal -1.0 0.0 -1.4901157835423e-008
outer loop
vertex 404.400000000004 -579.353650773054 16.3686059215628
vertex 404.400000223521 -581.453650773054 1.36860592156283
vertex 404.400000000004 -581.453650773054 16.3686059215628
endloop
endfacet
facet normal -1.0 0.0 -1.4901157835423e-008
outer loop
vertex 404.400000223521 -581.453650773054 1.36860592156283
vertex 404.400000000004 -579.353650773054 16.3686059215628
vertex 404.400000223521 -579.353650773054 1.36860592156283
endloop
endfacet
facet normal 9.41477485170838e-009 -6.08409475174478e-010 -1.0
outer loop
vertex 415.500000223521 -579.353650773054 1.36860608696569
vertex 404.400000223521 -581.453650773054 1.36860592156283
vertex 404.400000223521 -579.353650773054 1.36860592156283
endloop
endfacet
facet normal 9.41477485170838e-009 -6.08409475174478e-010 -1.0
outer loop
vertex 404.400000223521 -581.453650773054 1.36860592156283
vertex 415.500000223521 -579.353650773054 1.36860608696569
vertex 406.400000223521 -581.353650773054 1.36860595136515
endloop
endfacet
facet normal 9.41477485170838e-009 -6.08409475174478e-010 -1.0
outer loop
vertex 406.400000223521 -581.353650773054 1.36860595136515
vertex 415.500000223521 -579.353650773054 1.36860608696569
vertex 413.500000223521 -581.353650773054 1.36860605716337
endloop
endfacet
facet normal 9.41477485170838e-009 -6.08409475174478e-010 -1.0
outer loop
vertex 413.500000223521 -581.353650773054 1.36860605716337
vertex 415.500000223521 -579.353650773054 1.36860608696569
vertex 413.500000223521 -588.453650773054 1.36860605716337
endloop
endfacet
facet normal 9.41477485170838e-009 -6.08409475174478e-010 -1.0
outer loop
vertex 413.500000223521 -588.453650773054 1.36860605716337
vertex 415.500000223521 -579.353650773054 1.36860608696569
vertex 415.500000223521 -580.853650784631 1.36860608696569
endloop
endfacet
facet normal 9.41477485170838e-009 -6.08409475174478e-010 -1.0
outer loop
vertex 413.500000223521 -588.453650773054 1.36860605716337
vertex 413.400000223521 -590.453650773054 1.36860605567325
vertex 411.400000223521 -588.453650773054 1.36860602587094
endloop
endfacet
facet normal 9.41477485170838e-009 -6.08409475174478e-010 -1.0
outer loop
vertex 413.400000223521 -590.453650773054 1.36860605567325
vertex 413.500000223521 -588.453650773054 1.36860605716337
vertex 413.400000223521 -603.985701580623 1.36860605567325
endloop
endfacet
facet normal 9.41477485170838e-009 -6.08409475174478e-010 -1.0
outer loop
vertex 413.400000223521 -603.985701580623 1.36860605567325
vertex 413.500000223521 -588.453650773054 1.36860605716337
vertex 415.500000223521 -601.985701580623 1.36860608696569
endloop
endfacet
facet normal 9.41477485170838e-009 -6.08409475174478e-010 -1.0
outer loop
vertex 415.500000223521 -601.985701580623 1.36860608696569
vertex 413.500000223521 -588.453650773054 1.36860605716337
vertex 415.500000223521 -580.853650784631 1.36860608696569
endloop
endfacet
facet normal 9.41477485170838e-009 -6.08409475174478e-010 -1.0
outer loop
vertex 415.500000223521 -601.985701580623 1.36860608696569
vertex 415.500000223521 -580.853650784631 1.36860608696569
vertex 415.80000013144 -584.553650781952 1.36860607036672
endloop
endfacet
facet normal 9.41477485170838e-009 -6.08409475174478e-010 -1.0
outer loop
vertex 415.80000013144 -584.553650781952 1.36860607036672
vertex 415.500000223521 -580.853650784631 1.36860608696569
vertex 415.857926226749 -584.113658405278 1.36860607036672
endloop
endfacet
facet normal 9.41477485170838e-009 -6.08409475174478e-010 -1.0
outer loop
vertex 415.857926226749 -584.113658405278 1.36860607036672
vertex 415.500000223521 -580.853650784631 1.36860608696569
vertex 416.027756945007 -583.703650781952 1.36860607036672
endloop
endfacet
facet normal 9.41477485170838e-009 -6.08409475174478e-010 -1.0
outer loop
vertex 416.027756945007 -583.703650781952 1.36860607036672
vertex 415.500000223521 -580.853650784631 1.36860608696569
vertex 416.297918603423 -583.351569253935 1.36860607036672
endloop
endfacet
facet normal 9.41477485170838e-009 -6.08409475174478e-010 -1.0
outer loop
vertex 416.297918603423 -583.351569253935 1.36860607036672
vertex 415.500000223521 -580.853650784631 1.36860608696569
vertex 419.500000107014 -580.85365078463 1.36860610890786
endloop
endfacet
facet normal 9.41477485170838e-009 -6.08409475174478e-010 -1.0
outer loop
vertex 416.297918603423 -583.351569253935 1.36860607036672
vertex 419.500000107014 -580.85365078463 1.36860610890786
vertex 416.65000013144 -583.081407595518 1.36860607036672
endloop
endfacet
facet normal 9.41477485170838e-009 -6.08409475174478e-010 -1.0
outer loop
vertex 416.65000013144 -583.081407595518 1.36860607036672
vertex 419.500000107014 -580.85365078463 1.36860610890786
vertex 417.060007754766 -582.91157687726 1.36860607036672
endloop
endfacet
facet normal 9.41477485170838e-009 -6.08409475174478e-010 -1.0
outer loop
vertex 417.060007754766 -582.91157687726 1.36860607036672
vertex 419.500000107014 -580.85365078463 1.36860610890786
vertex 417.50000013144 -582.853650781952 1.36860607036672
endloop
endfacet
facet normal 9.41477485170838e-009 -6.08409475174478e-010 -1.0
outer loop
vertex 417.50000013144 -582.853650781952 1.36860607036672
vertex 419.500000107014 -580.85365078463 1.36860610890786
vertex 417.939992508114 -582.91157687726 1.36860607036672
endloop
endfacet
facet normal 9.41477485170838e-009 -6.08409475174478e-010 -1.0
outer loop
vertex 417.939992508114 -582.91157687726 1.36860607036672
vertex 419.500000107014 -580.85365078463 1.36860610890786
vertex 418.35000013144 -583.081407595518 1.36860607036672
endloop
endfacet
facet normal 9.41477485170838e-009 -6.08409475174478e-010 -1.0
outer loop
vertex 418.35000013144 -583.081407595518 1.36860607036672
vertex 419.500000107014 -580.85365078463 1.36860610890786
vertex 418.702081659457 -583.351569253935 1.36860607036672
endloop
endfacet
facet normal 9.41477485170838e-009 -6.08409475174478e-010 -1.0
outer loop
vertex 418.702081659457 -583.351569253935 1.36860607036672
vertex 419.500000107014 -580.85365078463 1.36860610890786
vertex 418.857144269677 -583.553650781952 1.36860607036672
endloop
endfacet
facet normal 9.41477485170838e-009 -6.08409475174478e-010 -1.0
outer loop
vertex 418.857144269677 -583.553650781952 1.36860607036672
vertex 419.500000107014 -580.85365078463 1.36860610890786
vertex 419.500000014933 -583.553650781952 1.36860607036672
endloop
endfacet
facet normal 9.41477485170838e-009 -6.08409475174478e-010 -1.0
outer loop
vertex 415.80000013144 -584.553650781952 1.36860607036672
vertex 415.800000223521 -588.553650773054 1.3686060883677
vertex 415.80000013144 -594.285701589521 1.36860606578982
endloop
endfacet
facet normal 9.41477485170838e-009 -6.08409475174478e-010 -1.0
outer loop
vertex 415.800000223521 -588.553650773054 1.3686060883677
vertex 415.80000013144 -584.553650781952 1.36860607036672
vertex 415.857926226749 -584.993643158626 1.36860607036672
endloop
endfacet
facet normal 9.41477485170838e-009 -6.08409475174478e-010 -1.0
outer loop
vertex 415.800000223521 -588.553650773054 1.3686060883677
vertex 415.857926226749 -584.993643158626 1.36860607036672
vertex 415.857926318829 -588.11365839638 1.3686060883677
endloop
endfacet
facet normal 9.41477485170838e-009 -6.08409475174478e-010 -1.0
outer loop
vertex 415.857926318829 -588.11365839638 1.3686060883677
vertex 415.857926226749 -584.993643158626 1.36860607036672
vertex 416.027756945007 -585.403650781952 1.36860607036672
endloop
endfacet
facet normal 9.41477485170838e-009 -6.08409475174478e-010 -1.0
outer loop
vertex 415.857926318829 -588.11365839638 1.3686060883677
vertex 416.027756945007 -585.403650781952 1.36860607036672
vertex 416.027757037087 -587.703650773054 1.3686060883677
endloop
endfacet
facet normal 9.41477485170838e-009 -6.08409475174478e-010 -1.0
outer loop
vertex 416.027757037087 -587.703650773054 1.3686060883677
vertex 416.027756945007 -585.403650781952 1.36860607036672
vertex 416.297918603423 -585.755732309969 1.36860607036672
endloop
endfacet
facet normal 9.41477485170838e-009 -6.08409475174478e-010 -1.0
outer loop
vertex 416.027757037087 -587.703650773054 1.3686060883677
vertex 416.297918603423 -585.755732309969 1.36860607036672
vertex 416.297918695504 -587.351569245037 1.3686060883677
endloop
endfacet
facet normal 9.41477485170838e-009 -6.08409475174478e-010 -1.0
outer loop
vertex 416.297918695504 -587.351569245037 1.3686060883677
vertex 416.297918603423 -585.755732309969 1.36860607036672
vertex 416.65000013144 -586.025893968385 1.36860607036672
endloop
endfacet
facet normal 9.41477485170838e-009 -6.08409475174478e-010 -1.0
outer loop
vertex 416.297918695504 -587.351569245037 1.3686060883677
vertex 416.65000013144 -586.025893968385 1.36860607036672
vertex 416.650000223521 -587.081407586621 1.3686060883677
endloop
endfacet
facet normal 9.41477485170838e-009 -6.08409475174478e-010 -1.0
outer loop
vertex 415.800000223521 -588.553650773054 1.3686060883677
vertex 415.857926226749 -593.845709212846 1.36860606578982
vertex 415.80000013144 -594.285701589521 1.36860606578982
endloop
endfacet
facet normal 9.41477485170838e-009 -6.08409475174478e-010 -1.0
outer loop
vertex 415.857926226749 -593.845709212846 1.36860606578982
vertex 415.800000223521 -588.553650773054 1.3686060883677
vertex 415.857926318829 -588.993643149729 1.3686060883677
endloop
endfacet
facet normal 9.41477485170838e-009 -6.08409475174478e-010 -1.0
outer loop
vertex 415.857926226749 -593.845709212846 1.36860606578982
vertex 415.857926318829 -588.993643149729 1.3686060883677
vertex 416.027756945007 -593.435701589521 1.36860606578982
endloop
endfacet
facet normal 9.41477485170838e-009 -6.08409475174478e-010 -1.0
outer loop
vertex 416.027756945007 -593.435701589521 1.36860606578982
vertex 415.857926318829 -588.993643149729 1.3686060883677
vertex 416.027757037087 -589.403650773054 1.3686060883677
endloop
endfacet
facet normal 9.41477485170838e-009 -6.08409475174478e-010 -1.0
outer loop
vertex 416.027756945007 -593.435701589521 1.36860606578982
vertex 416.027757037087 -589.403650773054 1.3686060883677
vertex 416.297918603423 -593.083620061504 1.36860606578982
endloop
endfacet
facet normal 9.41477485170838e-009 -6.08409475174478e-010 -1.0
outer loop
vertex 416.297918603423 -593.083620061504 1.36860606578982
vertex 416.027757037087 -589.403650773054 1.3686060883677
vertex 416.297918695504 -589.755732301071 1.3686060883677
endloop
endfacet
facet normal 9.41477485170838e-009 -6.08409475174478e-010 -1.0
outer loop
vertex 416.297918603423 -593.083620061504 1.36860606578982
vertex 416.297918695504 -589.755732301071 1.3686060883677
vertex 416.65000013144 -592.813458403087 1.36860606578982
endloop
endfacet
facet normal 9.41477485170838e-009 -6.08409475174478e-010 -1.0
outer loop
vertex 416.65000013144 -592.813458403087 1.36860606578982
vertex 416.297918695504 -589.755732301071 1.3686060883677
vertex 416.650000223521 -590.025893959488 1.3686060883677
endloop
endfacet
facet normal 9.41477485170838e-009 -6.08409475174478e-010 -1.0
outer loop
vertex 416.65000013144 -592.813458403087 1.36860606578982
vertex 416.650000223521 -590.025893959488 1.3686060883677
vertex 417.060007754766 -592.643627684829 1.36860606578982
endloop
endfacet
facet normal 9.41477485170838e-009 -6.08409475174478e-010 -1.0
outer loop
vertex 417.060007754766 -592.643627684829 1.36860606578982
vertex 416.650000223521 -590.025893959488 1.3686060883677
vertex 417.060007846846 -590.195724677746 1.3686060883677
endloop
endfacet
facet normal 9.41477485170838e-009 -6.08409475174478e-010 -1.0
outer loop
vertex 417.060007754766 -592.643627684829 1.36860606578982
vertex 417.060007846846 -590.195724677746 1.3686060883677
vertex 417.50000013144 -592.585701589521 1.36860606578982
endloop
endfacet
facet normal 9.41477485170838e-009 -6.08409475174478e-010 -1.0
outer loop
vertex 417.50000013144 -592.585701589521 1.36860606578982
vertex 417.060007846846 -590.195724677746 1.3686060883677
vertex 417.500000223521 -590.253650773054 1.3686060883677
endloop
endfacet
facet normal 9.41477485170838e-009 -6.08409475174478e-010 -1.0
outer loop
vertex 417.50000013144 -592.585701589521 1.36860606578982
vertex 417.500000223521 -590.253650773054 1.3686060883677
vertex 417.939992508114 -592.643627684829 1.36860606578982
endloop
endfacet
facet normal 9.41477485170838e-009 -6.08409475174478e-010 -1.0
outer loop
vertex 417.939992508114 -592.643627684829 1.36860606578982
vertex 417.500000223521 -590.253650773054 1.3686060883677
vertex 417.939992600195 -590.195724677746 1.3686060883677
endloop
endfacet
facet normal 9.41477485170838e-009 -6.08409475174478e-010 -1.0
outer loop
vertex 417.939992508114 -592.643627684829 1.36860606578982
vertex 417.939992600195 -590.195724677746 1.3686060883677
vertex 418.35000013144 -592.813458403087 1.36860606578982
endloop
endfacet
facet normal 9.41477485170838e-009 -6.08409475174478e-010 -1.0
outer loop
vertex 418.35000013144 -592.813458403087 1.36860606578982
vertex 417.939992600195 -590.195724677746 1.3686060883677
vertex 418.350000223521 -590.025893959488 1.3686060883677
endloop
endfacet
facet normal 9.41477485170838e-009 -6.08409475174478e-010 -1.0
outer loop
vertex 418.35000013144 -592.813458403087 1.36860606578982
vertex 418.350000223521 -590.025893959488 1.3686060883677
vertex 418.702081659457 -593.083620061504 1.36860606578982
endloop
endfacet
facet normal 9.41477485170838e-009 -6.08409475174478e-010 -1.0
outer loop
vertex 418.702081659457 -593.083620061504 1.36860606578982
vertex 418.350000223521 -590.025893959488 1.3686060883677
vertex 418.702081751538 -589.755732301071 1.3686060883677
endloop
endfacet
facet normal 9.41477485170838e-009 -6.08409475174478e-010 -1.0
outer loop
vertex 418.702081659457 -593.083620061504 1.36860606578982
vertex 418.702081751538 -589.755732301071 1.3686060883677
vertex 418.857144269677 -593.285701589521 1.36860606578982
endloop
endfacet
facet normal 9.41477485170838e-009 -6.08409475174478e-010 -1.0
outer loop
vertex 418.857144269677 -593.285701589521 1.36860606578982
vertex 418.702081751538 -589.755732301071 1.3686060883677
vertex 418.857144361757 -589.553650773055 1.3686060883677
endloop
endfacet
facet normal 9.41477485170838e-009 -6.08409475174478e-010 -1.0
outer loop
vertex 418.857144269677 -593.285701589521 1.36860606578982
vertex 418.857144361757 -589.553650773055 1.3686060883677
vertex 419.500000014933 -593.285701589521 1.36860606578982
endloop
endfacet
facet normal 9.41477485170838e-009 -6.08409475174478e-010 -1.0
outer loop
vertex 419.500000014933 -593.285701589521 1.36860606578982
vertex 418.857144361757 -589.553650773055 1.3686060883677
vertex 419.500000107014 -589.553650773055 1.3686060883677
endloop
endfacet
facet normal 9.41477485170838e-009 -6.08409475174478e-010 -1.0
outer loop
vertex 415.857926226749 -594.725693966195 1.36860606578982
vertex 415.800000223521 -598.285701580623 1.3686060837908
vertex 415.80000013144 -594.285701589521 1.36860606578982
endloop
endfacet
facet normal 9.41477485170838e-009 -6.08409475174478e-010 -1.0
outer loop
vertex 415.800000223521 -598.285701580623 1.3686060837908
vertex 415.857926226749 -594.725693966195 1.36860606578982
vertex 415.857926318829 -597.845709203949 1.3686060837908
endloop
endfacet
facet normal 9.41477485170838e-009 -6.08409475174478e-010 -1.0
outer loop
vertex 415.857926318829 -597.845709203949 1.3686060837908
vertex 415.857926226749 -594.725693966195 1.36860606578982
vertex 416.027756945007 -595.135701589521 1.36860606578982
endloop
endfacet
facet normal 9.41477485170838e-009 -6.08409475174478e-010 -1.0
outer loop
vertex 415.857926318829 -597.845709203949 1.3686060837908
vertex 416.027756945007 -595.135701589521 1.36860606578982
vertex 416.027757037087 -597.435701580623 1.3686060837908
endloop
endfacet
facet normal 9.41477485170838e-009 -6.08409475174478e-010 -1.0
outer loop
vertex 416.027757037087 -597.435701580623 1.3686060837908
vertex 416.027756945007 -595.135701589521 1.36860606578982
vertex 416.297918603423 -595.487783117538 1.36860606578982
endloop
endfacet
facet normal 9.41477485170838e-009 -6.08409475174478e-010 -1.0
outer loop
vertex 416.027757037087 -597.435701580623 1.3686060837908
vertex 416.297918603423 -595.487783117538 1.36860606578982
vertex 416.297918695504 -597.083620052606 1.3686060837908
endloop
endfacet
facet normal 9.41477485170838e-009 -6.08409475174478e-010 -1.0
outer loop
vertex 416.297918695504 -597.083620052606 1.3686060837908
vertex 416.297918603423 -595.487783117538 1.36860606578982
vertex 416.65000013144 -595.757944775954 1.36860606578982
endloop
endfacet
facet normal 9.41477485170838e-009 -6.08409475174478e-010 -1.0
outer loop
vertex 416.297918695504 -597.083620052606 1.3686060837908
vertex 416.65000013144 -595.757944775954 1.36860606578982
vertex 416.650000223521 -596.81345839419 1.3686060837908
endloop
endfacet
facet normal 9.41477485170838e-009 -6.08409475174478e-010 -1.0
outer loop
vertex 415.500000223521 -601.985701580623 1.36860608696569
vertex 416.297918695504 -599.48778310864 1.3686060837908
vertex 419.500000107014 -601.985701592199 1.36860610130872
endloop
endfacet
facet normal 9.41477485170838e-009 -6.08409475174478e-010 -1.0
outer loop
vertex 416.297918695504 -599.48778310864 1.3686060837908
vertex 415.500000223521 -601.985701580623 1.36860608696569
vertex 416.027757037087 -599.135701580623 1.3686060837908
endloop
endfacet
facet normal 9.41477485170838e-009 -6.08409475174478e-010 -1.0
outer loop
vertex 416.027757037087 -599.135701580623 1.3686060837908
vertex 415.500000223521 -601.985701580623 1.36860608696569
vertex 415.857926318829 -598.725693957297 1.3686060837908
endloop
endfacet
facet normal 9.41477485170838e-009 -6.08409475174478e-010 -1.0
outer loop
vertex 415.857926318829 -598.725693957297 1.3686060837908
vertex 415.500000223521 -601.985701580623 1.36860608696569
vertex 415.800000223521 -598.285701580623 1.3686060837908
endloop
endfacet
facet normal 9.41477485170838e-009 -6.08409475174478e-010 -1.0
outer loop
vertex 415.800000223521 -598.285701580623 1.3686060837908
vertex 415.500000223521 -601.985701580623 1.36860608696569
vertex 415.80000013144 -594.285701589521 1.36860606578982
endloop
endfacet
facet normal 9.41477485170838e-009 -6.08409475174478e-010 -1.0
outer loop
vertex 415.80000013144 -594.285701589521 1.36860606578982
vertex 415.500000223521 -601.985701580623 1.36860608696569
vertex 415.80000013144 -584.553650781952 1.36860607036672
endloop
endfacet
facet normal 9.41477485170838e-009 -6.08409475174478e-010 -1.0
outer loop
vertex 419.500000107014 -601.985701592199 1.36860610130872
vertex 416.297918695504 -599.48778310864 1.3686060837908
vertex 416.650000223521 -599.757944767057 1.3686060837908
endloop
endfacet
facet normal 9.41477485170838e-009 -6.08409475174478e-010 -1.0
outer loop
vertex 419.500000107014 -601.985701592199 1.36860610130872
vertex 416.650000223521 -599.757944767057 1.3686060837908
vertex 417.060007846846 -599.927775485315 1.3686060837908
endloop
endfacet
facet normal 9.41477485170838e-009 -6.08409475174478e-010 -1.0
outer loop
vertex 419.500000107014 -601.985701592199 1.36860610130872
vertex 417.060007846846 -599.927775485315 1.3686060837908
vertex 417.500000223521 -599.985701580623 1.3686060837908
endloop
endfacet
facet normal 9.41477485170838e-009 -6.08409475174478e-010 -1.0
outer loop
vertex 419.500000107014 -601.985701592199 1.36860610130872
vertex 417.500000223521 -599.985701580623 1.3686060837908
vertex 417.939992600195 -599.927775485315 1.3686060837908
endloop
endfacet
facet normal 9.41477485170838e-009 -6.08409475174478e-010 -1.0
outer loop
vertex 419.500000107014 -601.985701592199 1.36860610130872
vertex 417.939992600195 -599.927775485315 1.3686060837908
vertex 418.350000223521 -599.757944767057 1.3686060837908
endloop
endfacet
facet normal 9.41477485170838e-009 -6.08409475174478e-010 -1.0
outer loop
vertex 419.500000107014 -601.985701592199 1.36860610130872
vertex 418.350000223521 -599.757944767057 1.3686060837908
vertex 418.702081751538 -599.48778310864 1.3686060837908
endloop
endfacet
facet normal 9.41477485170838e-009 -6.08409475174478e-010 -1.0
outer loop
vertex 419.500000107014 -601.985701592199 1.36860610130872
vertex 418.702081751538 -599.48778310864 1.3686060837908
vertex 418.857144361757 -599.285701580623 1.3686060837908
endloop
endfacet
facet normal 9.41477485170838e-009 -6.08409475174478e-010 -1.0
outer loop
vertex 419.500000107014 -601.985701592199 1.36860610130872
vertex 418.857144361757 -599.285701580623 1.3686060837908
vertex 419.500000107014 -599.285701580623 1.3686060837908
endloop
endfacet
facet normal 9.41477485170838e-009 -6.08409475174478e-010 -1.0
outer loop
vertex 406.400000223521 -583.453650773054 1.36860595136515
vertex 404.400000223521 -581.453650773054 1.36860592156283
vertex 406.400000223521 -581.353650773054 1.36860595136515
endloop
endfacet
facet normal 0.689655172413797 -0.724137931034479 1.02766621384695e-008
outer loop
vertex 415.500000223521 -601.985701580623 1.36860608696569
vertex 413.400000000003 -603.985701580623 16.3686060556733
vertex 413.400000223521 -603.985701580623 1.36860605567325
endloop
endfacet
facet normal 0.689655172413797 -0.724137931034479 1.02766621384695e-008
outer loop
vertex 413.400000000003 -603.985701580623 16.3686060556733
vertex 415.500000223521 -601.985701580623 1.36860608696569
vertex 415.500000000003 -601.985701580623 16.3686060869657
endloop
endfacet
facet normal -0.707106781186547 -0.707106781186548 -1.05367097529587e-008
outer loop
vertex 406.400000223521 -583.453650773054 1.36860595136515
vertex 404.400000000004 -581.453650773054 16.3686059215628
vertex 404.400000223521 -581.453650773054 1.36860592156283
endloop
endfacet
facet normal -0.707106781186547 -0.707106781186548 -1.05367097529587e-008
outer loop
vertex 404.400000000004 -581.453650773054 16.3686059215628
vertex 406.400000223521 -583.453650773054 1.36860595136515
vertex 406.400000000003 -583.453650773054 16.3686059513651
endloop
endfacet
facet normal 1.0 0.0 1.4901157835423e-008
outer loop
vertex 406.400000223521 -581.353650773054 1.36860595136515
vertex 406.400000000003 -583.453650773054 16.3686059513651
vertex 406.400000223521 -583.453650773054 1.36860595136515
endloop
endfacet
facet normal 1.0 0.0 1.4901157835423e-008
outer loop
vertex 406.400000000003 -583.453650773054 16.3686059513651
vertex 406.400000223521 -581.353650773054 1.36860595136515
vertex 406.400000000003 -581.353650773054 16.3686059513651
endloop
endfacet
facet normal -1.35047841443954e-008 6.02654456765354e-010 1.0
outer loop
vertex 415.500000000003 -601.985701580623 16.3686060869657
vertex 413.400000000003 -590.453650773054 16.3686060556733
vertex 413.400000000003 -603.985701580623 16.3686060556733
endloop
endfacet
facet normal -1.35047841443954e-008 6.02654456765354e-010 1.0
outer loop
vertex 413.400000000003 -590.453650773054 16.3686060556733
vertex 415.500000000003 -601.985701580623 16.3686060869657
vertex 413.500000000003 -588.453650773054 16.3686060571634
endloop
endfacet
facet normal -1.35047841443954e-008 6.02654456765354e-010 1.0
outer loop
vertex 413.500000000003 -588.453650773054 16.3686060571634
vertex 415.500000000003 -601.985701580623 16.3686060869657
vertex 413.500000000003 -581.353650773054 16.3686060571634
endloop
endfacet
facet normal -1.35047841443954e-008 6.02654456765354e-010 1.0
outer loop
vertex 413.500000000003 -581.353650773054 16.3686060571634
vertex 415.500000000003 -601.985701580623 16.3686060869657
vertex 415.500000000003 -580.853650773054 16.3686060869657
endloop
endfacet
facet normal -1.35047841443954e-008 6.02654456765354e-010 1.0
outer loop
vertex 415.500000000003 -580.853650773054 16.3686060869657
vertex 415.500000000003 -601.985701580623 16.3686060869657
vertex 415.80000011651 -584.55365078463 16.3686061173443
endloop
endfacet
facet normal -1.35047841443954e-008 6.02654456765354e-010 1.0
outer loop
vertex 415.500000000003 -580.853650773054 16.3686060869657
vertex 415.80000011651 -584.55365078463 16.3686061173443
vertex 415.857926211819 -584.113658407956 16.3686061173443
endloop
endfacet
facet normal -1.35047841443954e-008 6.02654456765354e-010 1.0
outer loop
vertex 415.500000000003 -580.853650773054 16.3686060869657
vertex 415.857926211819 -584.113658407956 16.3686061173443
vertex 416.027756930076 -583.70365078463 16.3686061173443
endloop
endfacet
facet normal -1.35047841443954e-008 6.02654456765354e-010 1.0
outer loop
vertex 415.500000000003 -580.853650773054 16.3686060869657
vertex 416.027756930076 -583.70365078463 16.3686061173443
vertex 416.297918588493 -583.351569256613 16.3686061173443
endloop
endfacet
facet normal -1.35047841443954e-008 6.02654456765354e-010 1.0
outer loop
vertex 415.500000000003 -580.853650773054 16.3686060869657
vertex 416.297918588493 -583.351569256613 16.3686061173443
vertex 419.500000000003 -580.853650773054 16.36860613935
endloop
endfacet
facet normal -1.35047841443954e-008 6.02654456765354e-010 1.0
outer loop
vertex 415.80000011651 -584.55365078463 16.3686061173443
vertex 415.500000000003 -601.985701580623 16.3686060869657
vertex 415.80000011651 -594.285701592199 16.3686061127674
endloop
endfacet
facet normal -1.35047841443954e-008 6.02654456765354e-010 1.0
outer loop
vertex 419.500000000003 -580.853650773054 16.36860613935
vertex 416.297918588493 -583.351569256613 16.3686061173443
vertex 416.65000011651 -583.081407598197 16.3686061173443
endloop
endfacet
facet normal -1.35047841443954e-008 6.02654456765354e-010 1.0
outer loop
vertex 419.500000000003 -580.853650773054 16.36860613935
vertex 416.65000011651 -583.081407598197 16.3686061173443
vertex 417.060007739836 -582.911576879939 16.3686061173443
endloop
endfacet
facet normal -1.35047841443954e-008 6.02654456765354e-010 1.0
outer loop
vertex 419.500000000003 -580.853650773054 16.36860613935
vertex 417.060007739836 -582.911576879939 16.3686061173443
vertex 417.50000011651 -582.85365078463 16.3686061173443
endloop
endfacet
facet normal -1.35047841443954e-008 6.02654456765354e-010 1.0
outer loop
vertex 419.500000000003 -580.853650773054 16.36860613935
vertex 417.50000011651 -582.85365078463 16.3686061173443
vertex 417.939992493184 -582.911576879939 16.3686061173443
endloop
endfacet
facet normal -1.35047841443954e-008 6.02654456765354e-010 1.0
outer loop
vertex 419.500000000003 -580.853650773054 16.36860613935
vertex 417.939992493184 -582.911576879939 16.3686061173443
vertex 418.35000011651 -583.081407598197 16.3686061173443
endloop
endfacet
facet normal -1.35047841443954e-008 6.02654456765354e-010 1.0
outer loop
vertex 419.500000000003 -580.853650773054 16.36860613935
vertex 418.35000011651 -583.081407598197 16.3686061173443
vertex 418.702081644527 -583.351569256613 16.3686061173443
endloop
endfacet
facet normal -1.35047841443954e-008 6.02654456765354e-010 1.0
outer loop
vertex 419.500000000003 -580.853650773054 16.36860613935
vertex 418.702081644527 -583.351569256613 16.3686061173443
vertex 418.857144254746 -583.55365078463 16.3686061173443
endloop
endfacet
facet normal -1.35047841443954e-008 6.02654456765354e-010 1.0
outer loop
vertex 419.500000000003 -580.853650773054 16.36860613935
vertex 418.857144254746 -583.55365078463 16.3686061173443
vertex 419.500000000003 -583.55365078463 16.3686061173443
endloop
endfacet
facet normal -1.35047841443954e-008 6.02654456765354e-010 1.0
outer loop
vertex 406.400000000003 -583.453650773054 16.3686059513651
vertex 404.400000000004 -579.353650773054 16.3686059215628
vertex 404.400000000004 -581.453650773054 16.3686059215628
endloop
endfacet
facet normal -1.35047841443954e-008 6.02654456765354e-010 1.0
outer loop
vertex 404.400000000004 -579.353650773054 16.3686059215628
vertex 406.400000000003 -583.453650773054 16.3686059513651
vertex 406.400000000003 -581.353650773054 16.3686059513651
endloop
endfacet
facet normal -1.35047841443954e-008 6.02654456765354e-010 1.0
outer loop
vertex 404.400000000004 -579.353650773054 16.3686059215628
vertex 406.400000000003 -581.353650773054 16.3686059513651
vertex 415.500000000003 -579.353650773054 16.3686060869657
endloop
endfacet
facet normal -1.35047841443954e-008 6.02654456765354e-010 1.0
outer loop
vertex 415.500000000003 -579.353650773054 16.3686060869657
vertex 406.400000000003 -581.353650773054 16.3686059513651
vertex 413.500000000003 -581.353650773054 16.3686060571634
endloop
endfacet
facet normal -1.35047841443954e-008 6.02654456765354e-010 1.0
outer loop
vertex 415.500000000003 -579.353650773054 16.3686060869657
vertex 413.500000000003 -581.353650773054 16.3686060571634
vertex 415.500000000003 -580.853650773054 16.3686060869657
endloop
endfacet
facet normal -1.35047841443954e-008 6.02654456765354e-010 1.0
outer loop
vertex 413.500000000003 -588.453650773054 16.3686060571634
vertex 411.400000000003 -588.453650773054 16.3686060258709
vertex 413.400000000003 -590.453650773054 16.3686060556733
endloop
endfacet
facet normal -1.35047841443954e-008 6.02654456765354e-010 1.0
outer loop
vertex 415.500000000003 -601.985701580623 16.3686060869657
vertex 415.800000208591 -598.285701577945 16.3686061307684
vertex 415.80000011651 -594.285701592199 16.3686061127674
endloop
endfacet
facet normal -1.35047841443954e-008 6.02654456765354e-010 1.0
outer loop
vertex 415.800000208591 -598.285701577945 16.3686061307684
vertex 415.500000000003 -601.985701580623 16.3686060869657
vertex 415.857926303899 -598.725693954619 16.3686061307684
endloop
endfacet
facet normal -1.35047841443954e-008 6.02654456765354e-010 1.0
outer loop
vertex 415.857926303899 -598.725693954619 16.3686061307684
vertex 415.500000000003 -601.985701580623 16.3686060869657
vertex 416.027757022157 -599.135701577945 16.3686061307684
endloop
endfacet
facet normal -1.35047841443954e-008 6.02654456765354e-010 1.0
outer loop
vertex 416.027757022157 -599.135701577945 16.3686061307684
vertex 415.500000000003 -601.985701580623 16.3686060869657
vertex 416.297918680573 -599.487783105962 16.3686061307684
endloop
endfacet
facet normal -1.35047841443954e-008 6.02654456765354e-010 1.0
outer loop
vertex 416.297918680573 -599.487783105962 16.3686061307684
vertex 415.500000000003 -601.985701580623 16.3686060869657
vertex 419.500000000003 -601.985701580623 16.3686061317509
endloop
endfacet
facet normal -1.35047841443954e-008 6.02654456765354e-010 1.0
outer loop
vertex 416.297918680573 -599.487783105962 16.3686061307684
vertex 419.500000000003 -601.985701580623 16.3686061317509
vertex 416.650000208591 -599.757944764379 16.3686061307684
endloop
endfacet
facet normal -1.35047841443954e-008 6.02654456765354e-010 1.0
outer loop
vertex 416.650000208591 -599.757944764379 16.3686061307684
vertex 419.500000000003 -601.985701580623 16.3686061317509
vertex 417.060007831916 -599.927775482636 16.3686061307684
endloop
endfacet
facet normal -1.35047841443954e-008 6.02654456765354e-010 1.0
outer loop
vertex 417.060007831916 -599.927775482636 16.3686061307684
vertex 419.500000000003 -601.985701580623 16.3686061317509
vertex 417.500000208591 -599.985701577945 16.3686061307684
endloop
endfacet
facet normal -1.35047841443954e-008 6.02654456765354e-010 1.0
outer loop
vertex 417.500000208591 -599.985701577945 16.3686061307684
vertex 419.500000000003 -601.985701580623 16.3686061317509
vertex 417.939992585265 -599.927775482636 16.3686061307684
endloop
endfacet
facet normal -1.35047841443954e-008 6.02654456765354e-010 1.0
outer loop
vertex 417.939992585265 -599.927775482636 16.3686061307684
vertex 419.500000000003 -601.985701580623 16.3686061317509
vertex 418.350000208591 -599.757944764379 16.3686061307684
endloop
endfacet
facet normal -1.35047841443954e-008 6.02654456765354e-010 1.0
outer loop
vertex 418.350000208591 -599.757944764379 16.3686061307684
vertex 419.500000000003 -601.985701580623 16.3686061317509
vertex 418.702081736608 -599.487783105962 16.3686061307684
endloop
endfacet
facet normal -1.35047841443954e-008 6.02654456765354e-010 1.0
outer loop
vertex 418.702081736608 -599.487783105962 16.3686061307684
vertex 419.500000000003 -601.985701580623 16.3686061317509
vertex 418.857144346827 -599.285701577945 16.3686061307684
endloop
endfacet
facet normal -1.35047841443954e-008 6.02654456765354e-010 1.0
outer loop
vertex 418.857144346827 -599.285701577945 16.3686061307684
vertex 419.500000000003 -601.985701580623 16.3686061317509
vertex 419.500000092084 -599.285701577945 16.3686061307684
endloop
endfacet
facet normal -1.35047841443954e-008 6.02654456765354e-010 1.0
outer loop
vertex 415.80000011651 -594.285701592199 16.3686061127674
vertex 415.800000208591 -588.553650770376 16.3686061353453
vertex 415.80000011651 -584.55365078463 16.3686061173443
endloop
endfacet
facet normal -1.35047841443954e-008 6.02654456765354e-010 1.0
outer loop
vertex 415.800000208591 -588.553650770376 16.3686061353453
vertex 415.80000011651 -594.285701592199 16.3686061127674
vertex 415.857926211819 -593.845709215525 16.3686061127674
endloop
endfacet
facet normal -1.35047841443954e-008 6.02654456765354e-010 1.0
outer loop
vertex 415.800000208591 -588.553650770376 16.3686061353453
vertex 415.857926211819 -593.845709215525 16.3686061127674
vertex 415.857926303899 -588.993643147051 16.3686061353453
endloop
endfacet
facet normal -1.35047841443954e-008 6.02654456765354e-010 1.0
outer loop
vertex 415.857926303899 -588.993643147051 16.3686061353453
vertex 415.857926211819 -593.845709215525 16.3686061127674
vertex 416.027756930076 -593.435701592199 16.3686061127674
endloop
endfacet
facet normal -1.35047841443954e-008 6.02654456765354e-010 1.0
outer loop
vertex 415.857926303899 -588.993643147051 16.3686061353453
vertex 416.027756930076 -593.435701592199 16.3686061127674
vertex 416.027757022157 -589.403650770376 16.3686061353453
endloop
endfacet
facet normal -1.35047841443954e-008 6.02654456765354e-010 1.0
outer loop
vertex 416.027757022157 -589.403650770376 16.3686061353453
vertex 416.027756930076 -593.435701592199 16.3686061127674
vertex 416.297918588493 -593.083620064182 16.3686061127674
endloop
endfacet
facet normal -1.35047841443954e-008 6.02654456765354e-010 1.0
outer loop
vertex 416.027757022157 -589.403650770376 16.3686061353453
vertex 416.297918588493 -593.083620064182 16.3686061127674
vertex 416.297918680573 -589.755732298393 16.3686061353453
endloop
endfacet
facet normal -1.35047841443954e-008 6.02654456765354e-010 1.0
outer loop
vertex 416.297918680573 -589.755732298393 16.3686061353453
vertex 416.297918588493 -593.083620064182 16.3686061127674
vertex 416.65000011651 -592.813458405765 16.3686061127674
endloop
endfacet
facet normal -1.35047841443954e-008 6.02654456765354e-010 1.0
outer loop
vertex 416.297918680573 -589.755732298393 16.3686061353453
vertex 416.65000011651 -592.813458405765 16.3686061127674
vertex 416.650000208591 -590.02589395681 16.3686061353453
endloop
endfacet
facet normal -1.35047841443954e-008 6.02654456765354e-010 1.0
outer loop
vertex 416.650000208591 -590.02589395681 16.3686061353453
vertex 416.65000011651 -592.813458405765 16.3686061127674
vertex 417.060007739836 -592.643627687508 16.3686061127674
endloop
endfacet
facet normal -1.35047841443954e-008 6.02654456765354e-010 1.0
outer loop
vertex 416.650000208591 -590.02589395681 16.3686061353453
vertex 417.060007739836 -592.643627687508 16.3686061127674
vertex 417.060007831916 -590.195724675067 16.3686061353453
endloop
endfacet
facet normal -1.35047841443954e-008 6.02654456765354e-010 1.0
outer loop
vertex 417.060007831916 -590.195724675067 16.3686061353453
vertex 417.060007739836 -592.643627687508 16.3686061127674
vertex 417.50000011651 -592.585701592199 16.3686061127674
endloop
endfacet
facet normal -1.35047841443954e-008 6.02654456765354e-010 1.0
outer loop
vertex 417.060007831916 -590.195724675067 16.3686061353453
vertex 417.50000011651 -592.585701592199 16.3686061127674
vertex 417.500000208591 -590.253650770376 16.3686061353453
endloop
endfacet
facet normal -1.35047841443954e-008 6.02654456765354e-010 1.0
outer loop
vertex 417.500000208591 -590.253650770376 16.3686061353453
vertex 417.50000011651 -592.585701592199 16.3686061127674
vertex 417.939992493184 -592.643627687508 16.3686061127674
endloop
endfacet
facet normal -1.35047841443954e-008 6.02654456765354e-010 1.0
outer loop
vertex 417.500000208591 -590.253650770376 16.3686061353453
vertex 417.939992493184 -592.643627687508 16.3686061127674
vertex 417.939992585265 -590.195724675067 16.3686061353453
endloop
endfacet
facet normal -1.35047841443954e-008 6.02654456765354e-010 1.0
outer loop
vertex 417.939992585265 -590.195724675067 16.3686061353453
vertex 417.939992493184 -592.643627687508 16.3686061127674
vertex 418.35000011651 -592.813458405765 16.3686061127674
endloop
endfacet
facet normal -1.35047841443954e-008 6.02654456765354e-010 1.0
outer loop
vertex 417.939992585265 -590.195724675067 16.3686061353453
vertex 418.35000011651 -592.813458405765 16.3686061127674
vertex 418.350000208591 -590.02589395681 16.3686061353453
endloop
endfacet
facet normal -1.35047841443954e-008 6.02654456765354e-010 1.0
outer loop
vertex 418.350000208591 -590.02589395681 16.3686061353453
vertex 418.35000011651 -592.813458405765 16.3686061127674
vertex 418.702081644527 -593.083620064182 16.3686061127674
endloop
endfacet
facet normal -1.35047841443954e-008 6.02654456765354e-010 1.0
outer loop
vertex 418.350000208591 -590.02589395681 16.3686061353453
vertex 418.702081644527 -593.083620064182 16.3686061127674
vertex 418.702081736608 -589.755732298393 16.3686061353453
endloop
endfacet
facet normal -1.35047841443954e-008 6.02654456765354e-010 1.0
outer loop
vertex 418.702081736608 -589.755732298393 16.3686061353453
vertex 418.702081644527 -593.083620064182 16.3686061127674
vertex 418.857144254746 -593.285701592199 16.3686061127674
endloop
endfacet
facet normal -1.35047841443954e-008 6.02654456765354e-010 1.0
outer loop
vertex 418.702081736608 -589.755732298393 16.3686061353453
vertex 418.857144254746 -593.285701592199 16.3686061127674
vertex 418.857144346827 -589.553650770376 16.3686061353453
endloop
endfacet
facet normal -1.35047841443954e-008 6.02654456765354e-010 1.0
outer loop
vertex 418.857144346827 -589.553650770376 16.3686061353453
vertex 418.857144254746 -593.285701592199 16.3686061127674
vertex 419.500000000003 -593.285701592199 16.3686061127674
endloop
endfacet
facet normal -1.35047841443954e-008 6.02654456765354e-010 1.0
outer loop
vertex 418.857144346827 -589.553650770376 16.3686061353453
vertex 419.500000000003 -593.285701592199 16.3686061127674
vertex 419.500000092084 -589.553650770376 16.3686061353453
endloop
endfacet
facet normal -1.35047841443954e-008 6.02654456765354e-010 1.0
outer loop
vertex 415.800000208591 -588.553650770376 16.3686061353453
vertex 415.857926211819 -584.993643161304 16.3686061173443
vertex 415.80000011651 -584.55365078463 16.3686061173443
endloop
endfacet
facet normal -1.35047841443954e-008 6.02654456765354e-010 1.0
outer loop
vertex 415.857926211819 -584.993643161304 16.3686061173443
vertex 415.800000208591 -588.553650770376 16.3686061353453
vertex 415.857926303899 -588.113658393702 16.3686061353453
endloop
endfacet
facet normal -1.35047841443954e-008 6.02654456765354e-010 1.0
outer loop
vertex 415.857926211819 -584.993643161304 16.3686061173443
vertex 415.857926303899 -588.113658393702 16.3686061353453
vertex 416.027756930076 -585.40365078463 16.3686061173443
endloop
endfacet
facet normal -1.35047841443954e-008 6.02654456765354e-010 1.0
outer loop
vertex 416.027756930076 -585.40365078463 16.3686061173443
vertex 415.857926303899 -588.113658393702 16.3686061353453
vertex 416.027757022157 -587.703650770376 16.3686061353453
endloop
endfacet
facet normal -1.35047841443954e-008 6.02654456765354e-010 1.0
outer loop
vertex 416.027756930076 -585.40365078463 16.3686061173443
vertex 416.027757022157 -587.703650770376 16.3686061353453
vertex 416.297918588493 -585.755732312647 16.3686061173443
endloop
endfacet
facet normal -1.35047841443954e-008 6.02654456765354e-010 1.0
outer loop
vertex 416.297918588493 -585.755732312647 16.3686061173443
vertex 416.027757022157 -587.703650770376 16.3686061353453
vertex 416.297918680573 -587.351569242359 16.3686061353453
endloop
endfacet
facet normal -1.35047841443954e-008 6.02654456765354e-010 1.0
outer loop
vertex 416.297918588493 -585.755732312647 16.3686061173443
vertex 416.297918680573 -587.351569242359 16.3686061353453
vertex 416.65000011651 -586.025893971064 16.3686061173443
endloop
endfacet
facet normal -1.35047841443954e-008 6.02654456765354e-010 1.0
outer loop
vertex 416.65000011651 -586.025893971064 16.3686061173443
vertex 416.297918680573 -587.351569242359 16.3686061353453
vertex 416.650000208591 -587.081407583943 16.3686061353453
endloop
endfacet
facet normal -1.35047841443954e-008 6.02654456765354e-010 1.0
outer loop
vertex 415.800000208591 -598.285701577945 16.3686061307684
vertex 415.857926211819 -594.725693968873 16.3686061127674
vertex 415.80000011651 -594.285701592199 16.3686061127674
endloop
endfacet
facet normal -1.35047841443954e-008 6.02654456765354e-010 1.0
outer loop
vertex 415.857926211819 -594.725693968873 16.3686061127674
vertex 415.800000208591 -598.285701577945 16.3686061307684
vertex 415.857926303899 -597.845709201271 16.3686061307684
endloop
endfacet
facet normal -1.35047841443954e-008 6.02654456765354e-010 1.0
outer loop
vertex 415.857926211819 -594.725693968873 16.3686061127674
vertex 415.857926303899 -597.845709201271 16.3686061307684
vertex 416.027756930076 -595.135701592199 16.3686061127674
endloop
endfacet
facet normal -1.35047841443954e-008 6.02654456765354e-010 1.0
outer loop
vertex 416.027756930076 -595.135701592199 16.3686061127674
vertex 415.857926303899 -597.845709201271 16.3686061307684
vertex 416.027757022157 -597.435701577945 16.3686061307684
endloop
endfacet
facet normal -1.35047841443954e-008 6.02654456765354e-010 1.0
outer loop
vertex 416.027756930076 -595.135701592199 16.3686061127674
vertex 416.027757022157 -597.435701577945 16.3686061307684
vertex 416.297918588493 -595.487783120216 16.3686061127674
endloop
endfacet
facet normal -1.35047841443954e-008 6.02654456765354e-010 1.0
outer loop
vertex 416.297918588493 -595.487783120216 16.3686061127674
vertex 416.027757022157 -597.435701577945 16.3686061307684
vertex 416.297918680573 -597.083620049928 16.3686061307684
endloop
endfacet
facet normal -1.35047841443954e-008 6.02654456765354e-010 1.0
outer loop
vertex 416.297918588493 -595.487783120216 16.3686061127674
vertex 416.297918680573 -597.083620049928 16.3686061307684
vertex 416.65000011651 -595.757944778632 16.3686061127674
endloop
endfacet
facet normal -1.35047841443954e-008 6.02654456765354e-010 1.0
outer loop
vertex 416.65000011651 -595.757944778632 16.3686061127674
vertex 416.297918680573 -597.083620049928 16.3686061307684
vertex 416.650000208591 -596.813458391512 16.3686061307684
endloop
endfacet
facet normal 1.0 -6.01592846975388e-014 1.49011601043488e-008
outer loop
vertex 415.500000223521 -579.353650773054 1.36860608696569
vertex 415.500000000003 -580.853650773054 16.3686060869657
vertex 415.500000223521 -580.853650784631 1.36860608696569
endloop
endfacet
facet normal 1.0 -6.01592846975388e-014 1.49011601043488e-008
outer loop
vertex 415.500000000003 -580.853650773054 16.3686060869657
vertex 415.500000223521 -579.353650773054 1.36860608696569
vertex 415.500000000003 -579.353650773054 16.3686060869657
endloop
endfacet
facet normal -1.0 0.0 -1.4901157835423e-008
outer loop
vertex 413.500000000003 -581.353650773054 16.3686060571634
vertex 413.500000223521 -588.453650773054 1.36860605716337
vertex 413.500000000003 -588.453650773054 16.3686060571634
endloop
endfacet
facet normal -1.0 0.0 -1.4901157835423e-008
outer loop
vertex 413.500000223521 -588.453650773054 1.36860605716337
vertex 413.500000000003 -581.353650773054 16.3686060571634
vertex 413.500000223521 -581.353650773054 1.36860605716337
endloop
endfacet
facet normal 1.0 -1.48364454862116e-011 9.95344189549535e-010
outer loop
vertex 415.80000013144 -584.553650781952 1.36860607036672
vertex 415.857926211819 -584.113658407956 16.3686061173443
vertex 415.80000011651 -584.55365078463 16.3686061173443
endloop
endfacet
facet normal 0.965925826298308 -0.258819045068039 9.15212147776966e-010
outer loop
vertex 415.857926211819 -584.113658407956 16.3686061173443
vertex 415.80000013144 -584.553650781952 1.36860607036672
vertex 415.857926226749 -584.113658405278 1.36860607036672
endloop
endfacet
facet normal 0.999999999999996 8.72378169970675e-008 9.95347391590737e-010
outer loop
vertex 416.65000013144 -586.025893968385 1.36860607036672
vertex 416.650000208591 -587.081407583943 16.3686061353453
vertex 416.650000223521 -587.081407586621 1.3686060883677
endloop
endfacet
facet normal 0.999999999999996 8.72378169970675e-008 9.95347391590737e-010
outer loop
vertex 416.650000208591 -587.081407583943 16.3686061353453
vertex 416.65000013144 -586.025893968385 1.36860607036672
vertex 416.65000011651 -586.025893971064 16.3686061173443
endloop
endfacet
facet normal 8.27089476951548e-011 -1.0 -1.78566886119181e-010
outer loop
vertex 417.50000011651 -592.585701592199 16.3686061127674
vertex 417.060007754766 -592.643627684829 1.36860606578982
vertex 417.50000013144 -592.585701589521 1.36860606578982
endloop
endfacet
facet normal 0.258819045021681 -0.965925826310729 8.51316655018524e-011
outer loop
vertex 417.060007754766 -592.643627684829 1.36860606578982
vertex 417.50000011651 -592.585701592199 16.3686061127674
vertex 417.060007739836 -592.643627687508 16.3686061127674
endloop
endfacet
facet normal 0.965925826287227 0.258819045109393 1.00764516970822e-009
outer loop
vertex 415.857926226749 -594.725693966195 1.36860606578982
vertex 415.80000011651 -594.285701592199 16.3686061127674
vertex 415.857926211819 -594.725693968873 16.3686061127674
endloop
endfacet
facet normal 1.0 1.4836427666446e-011 9.95344189554834e-010
outer loop
vertex 415.80000011651 -594.285701592199 16.3686061127674
vertex 415.857926226749 -594.725693966195 1.36860606578982
vertex 415.80000013144 -594.285701589521 1.36860606578982
endloop
endfacet
facet normal -0.49999999994434 0.866025403816574 -6.52315554451618e-010
outer loop
vertex 418.350000208591 -599.757944764379 16.3686061307684
vertex 418.702081751538 -599.48778310864 1.3686060837908
vertex 418.350000223521 -599.757944767057 1.3686060837908
endloop
endfacet
facet normal -0.707106781220521 0.707106781152574 -8.30080482203177e-010
outer loop
vertex 418.702081751538 -599.48778310864 1.3686060837908
vertex 418.350000208591 -599.757944764379 16.3686061307684
vertex 418.702081736608 -599.487783105962 16.3686061307684
endloop
endfacet
facet normal 0.707106781220484 0.707106781152611 8.30080482203147e-010
outer loop
vertex 416.297918588493 -595.487783120216 16.3686061127674
vertex 416.65000013144 -595.757944775954 1.36860606578982
vertex 416.297918603423 -595.487783117538 1.36860606578982
endloop
endfacet
facet normal 0.608761429008618 0.793353340291314 7.47593786820595e-010
outer loop
vertex 416.65000013144 -595.757944775954 1.36860606578982
vertex 416.297918588493 -595.487783120216 16.3686061127674
vertex 416.65000011651 -595.757944778632 16.3686061127674
endloop
endfacet
facet normal -0.707106781152648 -0.707106781220447 -8.30080482147741e-010
outer loop
vertex 418.702081644527 -593.083620064182 16.3686061127674
vertex 418.35000013144 -592.813458403087 1.36860606578982
vertex 418.702081659457 -593.083620061504 1.36860606578982
endloop
endfacet
facet normal -0.500000000055555 -0.866025403752364 -6.52315554550849e-010
outer loop
vertex 418.35000013144 -592.813458403087 1.36860606578982
vertex 418.702081644527 -593.083620064182 16.3686061127674
vertex 418.35000011651 -592.813458405765 16.3686061127674
endloop
endfacet
facet normal 0.258819045183436 -0.965925826267387 8.51316656705939e-011
outer loop
vertex 417.060007739836 -592.643627687508 16.3686061127674
vertex 416.65000013144 -592.813458403087 1.36860606578982
vertex 417.060007754766 -592.643627684829 1.36860606578982
endloop
endfacet
facet normal 0.499999999931491 -0.866025403823992 3.43028634975651e-010
outer loop
vertex 416.65000013144 -592.813458403087 1.36860606578982
vertex 417.060007739836 -592.643627687508 16.3686061127674
vertex 416.65000011651 -592.813458405765 16.3686061127674
endloop
endfacet
facet normal -0.707106781152649 0.707106781220447 -8.30080482147741e-010
outer loop
vertex 418.702081736608 -599.487783105962 16.3686061307684
vertex 418.857144361757 -599.285701580623 1.3686060837908
vertex 418.702081751538 -599.48778310864 1.3686060837908
endloop
endfacet
facet normal -0.793353340291378 0.608761429008534 -8.98364270338473e-010
outer loop
vertex 418.857144361757 -599.285701580623 1.3686060837908
vertex 418.702081736608 -599.487783105962 16.3686061307684
vertex 418.857144346827 -599.285701577945 16.3686061307684
endloop
endfacet
facet normal -0.258819045029099 -0.965925826308742 -4.30096399720727e-010
outer loop
vertex 417.939992493184 -592.643627687508 16.3686061127674
vertex 417.50000013144 -592.585701589521 1.36860606578982
vertex 417.939992508114 -592.643627684829 1.36860606578982
endloop
endfacet
facet normal -8.2708947697609e-011 -1.0 -1.78566886283829e-010
outer loop
vertex 417.50000013144 -592.585701589521 1.36860606578982
vertex 417.939992493184 -592.643627687508 16.3686061127674
vertex 417.50000011651 -592.585701592199 16.3686061127674
endloop
endfacet
facet normal 0.965925826279809 0.258819045137078 9.15212147746225e-010
outer loop
vertex 415.857926318829 -598.725693957297 1.3686060837908
vertex 416.027757022157 -599.135701577945 16.3686061307684
vertex 416.027757037087 -599.135701580623 1.3686060837908
endloop
endfacet
facet normal 0.866025403811571 0.499999999953006 7.7270991059607e-010
outer loop
vertex 416.027757022157 -599.135701577945 16.3686061307684
vertex 415.857926318829 -598.725693957297 1.3686060837908
vertex 415.857926303899 -598.725693954619 16.3686061307684
endloop
endfacet
facet normal 0.707106781152611 -0.707106781220484 8.3008048214771e-010
outer loop
vertex 416.297918695504 -597.083620052606 1.3686060837908
vertex 416.027757022157 -597.435701577945 16.3686061307684
vertex 416.027757037087 -597.435701580623 1.3686060837908
endloop
endfacet
facet normal 0.866025403798722 -0.499999999975261 9.51276796771977e-010
outer loop
vertex 416.027757022157 -597.435701577945 16.3686061307684
vertex 416.297918695504 -597.083620052606 1.3686060837908
vertex 416.297918680573 -597.083620049928 16.3686061307684
endloop
endfacet
facet normal 8.27089387840449e-011 1.0 -1.78566886119181e-010
outer loop
vertex 417.500000208591 -599.985701577945 16.3686061307684
vertex 417.939992600195 -599.927775485315 1.3686060837908
vertex 417.500000223521 -599.985701580623 1.3686060837908
endloop
endfacet
facet normal -0.258819045176018 0.965925826269375 -4.30096399859932e-010
outer loop
vertex 417.939992600195 -599.927775485315 1.3686060837908
vertex 417.500000208591 -599.985701577945 16.3686061307684
vertex 417.939992585265 -599.927775482636 16.3686061307684
endloop
endfacet
facet normal 0.707106781152611 0.707106781220484 8.3008048214771e-010
outer loop
vertex 416.297918603423 -595.487783117538 1.36860606578982
vertex 416.027756930076 -595.135701592199 16.3686061127674
vertex 416.297918588493 -595.487783120216 16.3686061127674
endloop
endfacet
facet normal 0.866025403798722 0.499999999975261 9.51276796771977e-010
outer loop
vertex 416.027756930076 -595.135701592199 16.3686061127674
vertex 416.297918603423 -595.487783117538 1.36860606578982
vertex 416.027756945007 -595.135701589521 1.36860606578982
endloop
endfacet
facet normal 0.258819045183436 0.965925826267387 8.5131665670594e-011
outer loop
vertex 417.060007831916 -599.927775482636 16.3686061307684
vertex 417.500000223521 -599.985701580623 1.3686060837908
vertex 417.060007846846 -599.927775485315 1.3686060837908
endloop
endfacet
facet normal -8.27089387864991e-011 1.0 -1.78566886283829e-010
outer loop
vertex 417.500000223521 -599.985701580623 1.3686060837908
vertex 417.060007831916 -599.927775482636 16.3686061307684
vertex 417.500000208591 -599.985701577945 16.3686061307684
endloop
endfacet
facet normal 0.866025403770216 -0.500000000024634 9.51276796752421e-010
outer loop
vertex 416.027757037087 -597.435701580623 1.3686060837908
vertex 415.857926303899 -597.845709201271 16.3686061307684
vertex 415.857926318829 -597.845709203949 1.3686060837908
endloop
endfacet
facet normal 0.96592582629089 -0.258819045095724 1.00764516970942e-009
outer loop
vertex 415.857926303899 -597.845709201271 16.3686061307684
vertex 416.027757037087 -597.435701580623 1.3686060837908
vertex 416.027757022157 -597.435701577945 16.3686061307684
endloop
endfacet
facet normal 0.965925826287227 -0.258819045109393 1.00764516970822e-009
outer loop
vertex 415.857926318829 -597.845709203949 1.3686060837908
vertex 415.800000208591 -598.285701577945 16.3686061307684
vertex 415.800000223521 -598.285701580623 1.3686060837908
endloop
endfacet
facet normal 1.0 -1.48364365775559e-011 9.95344189554834e-010
outer loop
vertex 415.800000208591 -598.285701577945 16.3686061307684
vertex 415.857926318829 -597.845709203949 1.3686060837908
vertex 415.857926303899 -597.845709201271 16.3686061307684
endloop
endfacet
facet normal -0.707106781152648 -0.707106781220447 -8.30080482147741e-010
outer loop
vertex 418.702081644527 -593.083620064182 16.3686061127674
vertex 418.857144269677 -593.285701589521 1.36860606578982
vertex 418.857144254746 -593.285701592199 16.3686061127674
endloop
endfacet
facet normal -0.793353340291378 -0.608761429008534 -8.98364270338472e-010
outer loop
vertex 418.857144269677 -593.285701589521 1.36860606578982
vertex 418.702081644527 -593.083620064182 16.3686061127674
vertex 418.702081659457 -593.083620061504 1.36860606578982
endloop
endfacet
facet normal 0.608761429008618 -0.793353340291314 7.47593786820595e-010
outer loop
vertex 416.650000208591 -596.813458391512 16.3686061307684
vertex 416.297918695504 -597.083620052606 1.3686060837908
vertex 416.650000223521 -596.81345839419 1.3686060837908
endloop
endfacet
facet normal 0.707106781152611 -0.707106781220484 8.3008048214771e-010
outer loop
vertex 416.297918695504 -597.083620052606 1.3686060837908
vertex 416.650000208591 -596.813458391512 16.3686061307684
vertex 416.297918680573 -597.083620049928 16.3686061307684
endloop
endfacet
facet normal 0.70710678123532 0.707106781137775 5.77548769975782e-010
outer loop
vertex 416.297918680573 -599.487783105962 16.3686061307684
vertex 416.650000223521 -599.757944767057 1.3686060837908
vertex 416.297918695504 -599.48778310864 1.3686060837908
endloop
endfacet
facet normal 0.499999999931491 0.866025403823992 3.43028634975651e-010
outer loop
vertex 416.650000223521 -599.757944767057 1.3686060837908
vertex 416.297918680573 -599.487783105962 16.3686061307684
vertex 416.650000208591 -599.757944764379 16.3686061307684
endloop
endfacet
facet normal -2.25525616429717e-014 1.0 -7.71753386339583e-010
outer loop
vertex 415.500000000003 -580.853650773054 16.3686060869657
vertex 419.500000107014 -580.85365078463 1.36860610890786
vertex 415.500000223521 -580.853650784631 1.36860608696569
endloop
endfacet
facet normal -2.25525616429717e-014 1.0 -7.71753386339583e-010
outer loop
vertex 419.500000107014 -580.85365078463 1.36860610890786
vertex 415.500000000003 -580.853650773054 16.3686060869657
vertex 419.500000000003 -580.853650773054 16.36860613935
endloop
endfacet
facet normal -0.258819045029099 0.965925826308742 -4.30096399720727e-010
outer loop
vertex 417.939992585265 -599.927775482636 16.3686061307684
vertex 418.350000223521 -599.757944767057 1.3686060837908
vertex 417.939992600195 -599.927775485315 1.3686060837908
endloop
endfacet
facet normal -0.500000000055555 0.866025403752364 -6.52315554550849e-010
outer loop
vertex 418.350000223521 -599.757944767057 1.3686060837908
vertex 417.939992585265 -599.927775482636 16.3686061307684
vertex 418.350000208591 -599.757944764379 16.3686061307684
endloop
endfacet
facet normal 0.866025403770216 0.500000000024634 9.5127679675242e-010
outer loop
vertex 416.027756945007 -595.135701589521 1.36860606578982
vertex 415.857926211819 -594.725693968873 16.3686061127674
vertex 416.027756930076 -595.135701592199 16.3686061127674
endloop
endfacet
facet normal 0.96592582629089 0.258819045095724 1.00764516970942e-009
outer loop
vertex 415.857926211819 -594.725693968873 16.3686061127674
vertex 416.027756945007 -595.135701589521 1.36860606578982
vertex 415.857926226749 -594.725693966195 1.36860606578982
endloop
endfacet
facet normal 1.0 -1.35068446894507e-008 5.0878231283426e-009
outer loop
vertex 419.500000107014 -599.285701580623 1.3686060837908
vertex 419.500000000003 -601.985701580623 16.3686061317509
vertex 419.500000107014 -601.985701592199 1.36860610130872
endloop
endfacet
facet normal 1.0 -1.35068446894507e-008 5.0878231283426e-009
outer loop
vertex 419.500000000003 -601.985701580623 16.3686061317509
vertex 419.500000107014 -599.285701580623 1.3686060837908
vertex 419.500000092084 -599.285701577945 16.3686061307684
endloop
endfacet
facet normal 0.999999999999996 8.72378169970675e-008 9.95347391590737e-010
outer loop
vertex 416.65000013144 -595.757944775954 1.36860606578982
vertex 416.650000208591 -596.813458391512 16.3686061307684
vertex 416.650000223521 -596.81345839419 1.3686060837908
endloop
endfacet
facet normal 0.999999999999996 8.72378169970675e-008 9.95347391590737e-010
outer loop
vertex 416.650000208591 -596.813458391512 16.3686061307684
vertex 416.65000013144 -595.757944775954 1.36860606578982
vertex 416.65000011651 -595.757944778632 16.3686061127674
endloop
endfacet
facet normal -1.44702632384074e-009 -1.0 3.85873669654214e-010
outer loop
vertex 419.500000107014 -601.985701592199 1.36860610130872
vertex 415.500000000003 -601.985701580623 16.3686060869657
vertex 415.500000223521 -601.985701580623 1.36860608696569
endloop
endfacet
facet normal -1.44702632384074e-009 -1.0 3.85873669654214e-010
outer loop
vertex 415.500000000003 -601.985701580623 16.3686060869657
vertex 419.500000107014 -601.985701592199 1.36860610130872
vertex 419.500000000003 -601.985701580623 16.3686061317509
endloop
endfacet
facet normal 0.0 -1.0 -1.78566886201505e-010
outer loop
vertex 419.500000000003 -593.285701592199 16.3686061127674
vertex 418.857144269677 -593.285701589521 1.36860606578982
vertex 419.500000014933 -593.285701589521 1.36860606578982
endloop
endfacet
facet normal 0.0 -1.0 -1.78566886201505e-010
outer loop
vertex 418.857144269677 -593.285701589521 1.36860606578982
vertex 419.500000000003 -593.285701592199 16.3686061127674
vertex 418.857144254746 -593.285701592199 16.3686061127674
endloop
endfacet
facet normal 1.0 -1.48364454862116e-011 9.95344189549535e-010
outer loop
vertex 415.80000013144 -594.285701589521 1.36860606578982
vertex 415.857926211819 -593.845709215525 16.3686061127674
vertex 415.80000011651 -594.285701592199 16.3686061127674
endloop
endfacet
facet normal 0.965925826298308 -0.258819045068039 9.15212147776966e-010
outer loop
vertex 415.857926211819 -593.845709215525 16.3686061127674
vertex 415.80000013144 -594.285701589521 1.36860606578982
vertex 415.857926226749 -593.845709212846 1.36860606578982
endloop
endfacet
facet normal 1.0 1.48364454862116e-011 9.95344189549535e-010
outer loop
vertex 415.800000223521 -598.285701580623 1.3686060837908
vertex 415.857926303899 -598.725693954619 16.3686061307684
vertex 415.857926318829 -598.725693957297 1.3686060837908
endloop
endfacet
facet normal 0.965925826298308 0.258819045068039 9.15212147776966e-010
outer loop
vertex 415.857926303899 -598.725693954619 16.3686061307684
vertex 415.800000223521 -598.285701580623 1.3686060837908
vertex 415.800000208591 -598.285701577945 16.3686061307684
endloop
endfacet
facet normal 0.866025403757367 -0.500000000046889 7.72709910525354e-010
outer loop
vertex 416.027756945007 -593.435701589521 1.36860606578982
vertex 416.297918588493 -593.083620064182 16.3686061127674
vertex 416.027756930076 -593.435701592199 16.3686061127674
endloop
endfacet
facet normal 0.70710678123532 -0.707106781137775 5.77548769975782e-010
outer loop
vertex 416.297918588493 -593.083620064182 16.3686061127674
vertex 416.027756945007 -593.435701589521 1.36860606578982
vertex 416.297918603423 -593.083620061504 1.36860606578982
endloop
endfacet
facet normal -0.49999999994434 -0.866025403816574 -6.52315554451618e-010
outer loop
vertex 418.35000011651 -592.813458405765 16.3686061127674
vertex 417.939992508114 -592.643627684829 1.36860606578982
vertex 418.35000013144 -592.813458403087 1.36860606578982
endloop
endfacet
facet normal -0.258819045176018 -0.965925826269375 -4.30096399859932e-010
outer loop
vertex 417.939992508114 -592.643627684829 1.36860606578982
vertex 418.35000011651 -592.813458405765 16.3686061127674
vertex 417.939992493184 -592.643627687508 16.3686061127674
endloop
endfacet
facet normal 0.965925826279809 -0.258819045137079 9.15212147746225e-010
outer loop
vertex 415.857926226749 -593.845709212846 1.36860606578982
vertex 416.027756930076 -593.435701592199 16.3686061127674
vertex 415.857926211819 -593.845709215525 16.3686061127674
endloop
endfacet
facet normal 0.866025403811571 -0.499999999953006 7.7270991059607e-010
outer loop
vertex 416.027756930076 -593.435701592199 16.3686061127674
vertex 415.857926226749 -593.845709212846 1.36860606578982
vertex 416.027756945007 -593.435701589521 1.36860606578982
endloop
endfacet
facet normal 0.500000000068403 -0.866025403744946 3.43028635126041e-010
outer loop
vertex 416.65000011651 -592.813458405765 16.3686061127674
vertex 416.297918603423 -593.083620061504 1.36860606578982
vertex 416.65000013144 -592.813458403087 1.36860606578982
endloop
endfacet
facet normal 0.707106781137775 -0.70710678123532 5.77548769861272e-010
outer loop
vertex 416.297918603423 -593.083620061504 1.36860606578982
vertex 416.65000011651 -592.813458405765 16.3686061127674
vertex 416.297918588493 -593.083620064182 16.3686061127674
endloop
endfacet
facet normal 0.500000000068403 0.866025403744946 3.43028635126041e-010
outer loop
vertex 416.650000208591 -599.757944764379 16.3686061307684
vertex 417.060007846846 -599.927775485315 1.3686060837908
vertex 416.650000223521 -599.757944767057 1.3686060837908
endloop
endfacet
facet normal 0.258819045021681 0.965925826310729 8.51316655018524e-011
outer loop
vertex 417.060007846846 -599.927775485315 1.3686060837908
vertex 416.650000208591 -599.757944764379 16.3686061307684
vertex 417.060007831916 -599.927775482636 16.3686061307684
endloop
endfacet
facet normal 0.866025403757368 0.500000000046889 7.72709910525355e-010
outer loop
vertex 416.027757037087 -599.135701580623 1.3686060837908
vertex 416.297918680573 -599.487783105962 16.3686061307684
vertex 416.297918695504 -599.48778310864 1.3686060837908
endloop
endfacet
facet normal 0.70710678123532 0.707106781137775 5.77548769975782e-010
outer loop
vertex 416.297918680573 -599.487783105962 16.3686061307684
vertex 416.027757037087 -599.135701580623 1.3686060837908
vertex 416.027757022157 -599.135701577945 16.3686061307684
endloop
endfacet
facet normal 0.0 1.0 -1.78566886201505e-010
outer loop
vertex 418.857144346827 -599.285701577945 16.3686061307684
vertex 419.500000107014 -599.285701580623 1.3686060837908
vertex 418.857144361757 -599.285701580623 1.3686060837908
endloop
endfacet
facet normal 0.0 1.0 -1.78566886201505e-010
outer loop
vertex 419.500000107014 -599.285701580623 1.3686060837908
vertex 418.857144346827 -599.285701577945 16.3686061307684
vertex 419.500000092084 -599.285701577945 16.3686061307684
endloop
endfacet
facet normal 0.866025403770216 0.500000000024634 9.5127679675242e-010
outer loop
vertex 416.027756945007 -585.403650781952 1.36860607036672
vertex 415.857926211819 -584.993643161304 16.3686061173443
vertex 416.027756930076 -585.40365078463 16.3686061173443
endloop
endfacet
facet normal 0.96592582629089 0.258819045095724 1.00764516970942e-009
outer loop
vertex 415.857926211819 -584.993643161304 16.3686061173443
vertex 416.027756945007 -585.403650781952 1.36860607036672
vertex 415.857926226749 -584.993643158626 1.36860607036672
endloop
endfacet
facet normal 8.27089476951548e-011 -1.0 -1.78566886119181e-010
outer loop
vertex 417.50000011651 -582.85365078463 16.3686061173443
vertex 417.060007754766 -582.91157687726 1.36860607036672
vertex 417.50000013144 -582.853650781952 1.36860607036672
endloop
endfacet
facet normal 0.258819045021681 -0.965925826310729 8.51316655018524e-011
outer loop
vertex 417.060007754766 -582.91157687726 1.36860607036672
vertex 417.50000011651 -582.85365078463 16.3686061173443
vertex 417.060007739836 -582.911576879939 16.3686061173443
endloop
endfacet
facet normal 0.707106781220484 0.707106781152611 8.30080482203147e-010
outer loop
vertex 416.297918588493 -585.755732312647 16.3686061173443
vertex 416.65000013144 -586.025893968385 1.36860607036672
vertex 416.297918603423 -585.755732309969 1.36860607036672
endloop
endfacet
facet normal 0.608761429008618 0.793353340291314 7.47593786820595e-010
outer loop
vertex 416.65000013144 -586.025893968385 1.36860607036672
vertex 416.297918588493 -585.755732312647 16.3686061173443
vertex 416.65000011651 -586.025893971064 16.3686061173443
endloop
endfacet
facet normal 0.965925826287227 0.258819045109393 1.00764516970822e-009
outer loop
vertex 415.857926226749 -584.993643158626 1.36860607036672
vertex 415.80000011651 -584.55365078463 16.3686061173443
vertex 415.857926211819 -584.993643161304 16.3686061173443
endloop
endfacet
facet normal 1.0 1.4836427666446e-011 9.95344189554834e-010
outer loop
vertex 415.80000011651 -584.55365078463 16.3686061173443
vertex 415.857926226749 -584.993643158626 1.36860607036672
vertex 415.80000013144 -584.553650781952 1.36860607036672
endloop
endfacet
facet normal 0.707106781152611 0.707106781220484 8.3008048214771e-010
outer loop
vertex 416.297918603423 -585.755732309969 1.36860607036672
vertex 416.027756930076 -585.40365078463 16.3686061173443
vertex 416.297918588493 -585.755732312647 16.3686061173443
endloop
endfacet
facet normal 0.866025403798722 0.499999999975261 9.51276796771977e-010
outer loop
vertex 416.027756930076 -585.40365078463 16.3686061173443
vertex 416.297918603423 -585.755732309969 1.36860607036672
vertex 416.027756945007 -585.403650781952 1.36860607036672
endloop
endfacet
facet normal 0.965925826279809 0.258819045137078 9.15212147746225e-010
outer loop
vertex 415.857926318829 -588.993643149729 1.3686060883677
vertex 416.027757022157 -589.403650770376 16.3686061353453
vertex 416.027757037087 -589.403650773054 1.3686060883677
endloop
endfacet
facet normal 0.866025403811571 0.499999999953006 7.7270991059607e-010
outer loop
vertex 416.027757022157 -589.403650770376 16.3686061353453
vertex 415.857926318829 -588.993643149729 1.3686060883677
vertex 415.857926303899 -588.993643147051 16.3686061353453
endloop
endfacet
facet normal 0.70710678123532 0.707106781137775 5.77548769975782e-010
outer loop
vertex 416.297918680573 -589.755732298393 16.3686061353453
vertex 416.650000223521 -590.025893959488 1.3686060883677
vertex 416.297918695504 -589.755732301071 1.3686060883677
endloop
endfacet
facet normal 0.499999999931491 0.866025403823992 3.43028634975651e-010
outer loop
vertex 416.650000223521 -590.025893959488 1.3686060883677
vertex 416.297918680573 -589.755732298393 16.3686061353453
vertex 416.650000208591 -590.02589395681 16.3686061353453
endloop
endfacet
facet normal 0.500000000068403 0.866025403744946 3.43028635126041e-010
outer loop
vertex 416.650000208591 -590.02589395681 16.3686061353453
vertex 417.060007846846 -590.195724677746 1.3686060883677
vertex 416.650000223521 -590.025893959488 1.3686060883677
endloop
endfacet
facet normal 0.258819045021681 0.965925826310729 8.51316655018524e-011
outer loop
vertex 417.060007846846 -590.195724677746 1.3686060883677
vertex 416.650000208591 -590.02589395681 16.3686061353453
vertex 417.060007831916 -590.195724675067 16.3686061353453
endloop
endfacet
facet normal -0.49999999994434 0.866025403816574 -6.52315554451618e-010
outer loop
vertex 418.350000208591 -590.02589395681 16.3686061353453
vertex 418.702081751538 -589.755732301071 1.3686060883677
vertex 418.350000223521 -590.025893959488 1.3686060883677
endloop
endfacet
facet normal -0.707106781220521 0.707106781152574 -8.30080482203177e-010
outer loop
vertex 418.702081751538 -589.755732301071 1.3686060883677
vertex 418.350000208591 -590.02589395681 16.3686061353453
vertex 418.702081736608 -589.755732298393 16.3686061353453
endloop
endfacet
facet normal 0.0 1.0 -1.78566886201505e-010
outer loop
vertex 418.857144346827 -589.553650770376 16.3686061353453
vertex 419.500000107014 -589.553650773055 1.3686060883677
vertex 418.857144361757 -589.553650773055 1.3686060883677
endloop
endfacet
facet normal 0.0 1.0 -1.78566886201505e-010
outer loop
vertex 419.500000107014 -589.553650773055 1.3686060883677
vertex 418.857144346827 -589.553650770376 16.3686061353453
vertex 419.500000092084 -589.553650770376 16.3686061353453
endloop
endfacet
facet normal 1.0 -2.19686568724957e-008 3.04158526441289e-009
outer loop
vertex 419.500000014933 -593.285701589521 1.36860606578982
vertex 419.500000092084 -589.553650770376 16.3686061353453
vertex 419.500000000003 -593.285701592199 16.3686061127674
endloop
endfacet
facet normal 1.0 -2.19686568724957e-008 3.04158526441289e-009
outer loop
vertex 419.500000092084 -589.553650770376 16.3686061353453
vertex 419.500000014933 -593.285701589521 1.36860606578982
vertex 419.500000107014 -589.553650773055 1.3686060883677
endloop
endfacet
facet normal -0.707106781152649 0.707106781220447 -8.30080482147741e-010
outer loop
vertex 418.702081736608 -589.755732298393 16.3686061353453
vertex 418.857144361757 -589.553650773055 1.3686060883677
vertex 418.702081751538 -589.755732301071 1.3686060883677
endloop
endfacet
facet normal -0.793353340291378 0.608761429008534 -8.98364270338473e-010
outer loop
vertex 418.857144361757 -589.553650773055 1.3686060883677
vertex 418.702081736608 -589.755732298393 16.3686061353453
vertex 418.857144346827 -589.553650770376 16.3686061353453
endloop
endfacet
facet normal 8.27089387840449e-011 1.0 -1.78566886119181e-010
outer loop
vertex 417.500000208591 -590.253650770376 16.3686061353453
vertex 417.939992600195 -590.195724677746 1.3686060883677
vertex 417.500000223521 -590.253650773054 1.3686060883677
endloop
endfacet
facet normal -0.258819045176018 0.965925826269375 -4.30096399859932e-010
outer loop
vertex 417.939992600195 -590.195724677746 1.3686060883677
vertex 417.500000208591 -590.253650770376 16.3686061353453
vertex 417.939992585265 -590.195724675067 16.3686061353453
endloop
endfacet
facet normal 0.707106781152611 -0.707106781220484 8.3008048214771e-010
outer loop
vertex 416.297918695504 -587.351569245037 1.3686060883677
vertex 416.027757022157 -587.703650770376 16.3686061353453
vertex 416.027757037087 -587.703650773054 1.3686060883677
endloop
endfacet
facet normal 0.866025403798722 -0.499999999975261 9.51276796771977e-010
outer loop
vertex 416.027757022157 -587.703650770376 16.3686061353453
vertex 416.297918695504 -587.351569245037 1.3686060883677
vertex 416.297918680573 -587.351569242359 16.3686061353453
endloop
endfacet
facet normal 0.866025403770216 -0.500000000024634 9.51276796752421e-010
outer loop
vertex 416.027757037087 -587.703650773054 1.3686060883677
vertex 415.857926303899 -588.113658393702 16.3686061353453
vertex 415.857926318829 -588.11365839638 1.3686060883677
endloop
endfacet
facet normal 0.96592582629089 -0.258819045095724 1.00764516970942e-009
outer loop
vertex 415.857926303899 -588.113658393702 16.3686061353453
vertex 416.027757037087 -587.703650773054 1.3686060883677
vertex 416.027757022157 -587.703650770376 16.3686061353453
endloop
endfacet
facet normal 0.258819045183436 0.965925826267387 8.5131665670594e-011
outer loop
vertex 417.060007831916 -590.195724675067 16.3686061353453
vertex 417.500000223521 -590.253650773054 1.3686060883677
vertex 417.060007846846 -590.195724677746 1.3686060883677
endloop
endfacet
facet normal -8.27089387864991e-011 1.0 -1.78566886283829e-010
outer loop
vertex 417.500000223521 -590.253650773054 1.3686060883677
vertex 417.060007831916 -590.195724675067 16.3686061353453
vertex 417.500000208591 -590.253650770376 16.3686061353453
endloop
endfacet
facet normal 0.965925826287227 -0.258819045109393 1.00764516970822e-009
outer loop
vertex 415.857926318829 -588.11365839638 1.3686060883677
vertex 415.800000208591 -588.553650770376 16.3686061353453
vertex 415.800000223521 -588.553650773054 1.3686060883677
endloop
endfacet
facet normal 1.0 -1.48364365775559e-011 9.95344189554834e-010
outer loop
vertex 415.800000208591 -588.553650770376 16.3686061353453
vertex 415.857926318829 -588.11365839638 1.3686060883677
vertex 415.857926303899 -588.113658393702 16.3686061353453
endloop
endfacet
facet normal -0.258819045029099 0.965925826308742 -4.30096399720727e-010
outer loop
vertex 417.939992585265 -590.195724675067 16.3686061353453
vertex 418.350000223521 -590.025893959488 1.3686060883677
vertex 417.939992600195 -590.195724677746 1.3686060883677
endloop
endfacet
facet normal -0.500000000055555 0.866025403752364 -6.52315554550849e-010
outer loop
vertex 418.350000223521 -590.025893959488 1.3686060883677
vertex 417.939992585265 -590.195724675067 16.3686061353453
vertex 418.350000208591 -590.02589395681 16.3686061353453
endloop
endfacet
facet normal 1.0 1.48364454862116e-011 9.95344189549535e-010
outer loop
vertex 415.800000223521 -588.553650773054 1.3686060883677
vertex 415.857926303899 -588.993643147051 16.3686061353453
vertex 415.857926318829 -588.993643149729 1.3686060883677
endloop
endfacet
facet normal 0.965925826298308 0.258819045068039 9.15212147776966e-010
outer loop
vertex 415.857926303899 -588.993643147051 16.3686061353453
vertex 415.800000223521 -588.553650773054 1.3686060883677
vertex 415.800000208591 -588.553650770376 16.3686061353453
endloop
endfacet
facet normal 0.608761429008618 -0.793353340291314 7.47593786820595e-010
outer loop
vertex 416.650000208591 -587.081407583943 16.3686061353453
vertex 416.297918695504 -587.351569245037 1.3686060883677
vertex 416.650000223521 -587.081407586621 1.3686060883677
endloop
endfacet
facet normal 0.707106781152611 -0.707106781220484 8.3008048214771e-010
outer loop
vertex 416.297918695504 -587.351569245037 1.3686060883677
vertex 416.650000208591 -587.081407583943 16.3686061353453
vertex 416.297918680573 -587.351569242359 16.3686061353453
endloop
endfacet
facet normal -0.707106781152648 -0.707106781220447 -8.30080482147741e-010
outer loop
vertex 418.702081644527 -583.351569256613 16.3686061173443
vertex 418.857144269677 -583.553650781952 1.36860607036672
vertex 418.857144254746 -583.55365078463 16.3686061173443
endloop
endfacet
facet normal -0.793353340291378 -0.608761429008534 -8.98364270338472e-010
outer loop
vertex 418.857144269677 -583.553650781952 1.36860607036672
vertex 418.702081644527 -583.351569256613 16.3686061173443
vertex 418.702081659457 -583.351569253935 1.36860607036672
endloop
endfacet
facet normal -0.707106781152648 -0.707106781220447 -8.30080482147741e-010
outer loop
vertex 418.702081644527 -583.351569256613 16.3686061173443
vertex 418.35000013144 -583.081407595518 1.36860607036672
vertex 418.702081659457 -583.351569253935 1.36860607036672
endloop
endfacet
facet normal -0.500000000055555 -0.866025403752364 -6.52315554550849e-010
outer loop
vertex 418.35000013144 -583.081407595518 1.36860607036672
vertex 418.702081644527 -583.351569256613 16.3686061173443
vertex 418.35000011651 -583.081407598197 16.3686061173443
endloop
endfacet
facet normal -0.49999999994434 -0.866025403816574 -6.52315554451618e-010
outer loop
vertex 418.35000011651 -583.081407598197 16.3686061173443
vertex 417.939992508114 -582.91157687726 1.36860607036672
vertex 418.35000013144 -583.081407595518 1.36860607036672
endloop
endfacet
facet normal -0.258819045176018 -0.965925826269375 -4.30096399859932e-010
outer loop
vertex 417.939992508114 -582.91157687726 1.36860607036672
vertex 418.35000011651 -583.081407598197 16.3686061173443
vertex 417.939992493184 -582.911576879939 16.3686061173443
endloop
endfacet
facet normal 1.0 -1.35068447253425e-008 5.08782312266569e-009
outer loop
vertex 419.500000014933 -583.553650781952 1.36860607036672
vertex 419.500000000003 -580.853650773054 16.36860613935
vertex 419.500000000003 -583.55365078463 16.3686061173443
endloop
endfacet
facet normal 1.0 -1.35068447253425e-008 5.08782312266569e-009
outer loop
vertex 419.500000000003 -580.853650773054 16.36860613935
vertex 419.500000014933 -583.553650781952 1.36860607036672
vertex 419.500000107014 -580.85365078463 1.36860610890786
endloop
endfacet
facet normal 0.965925826279809 -0.258819045137079 9.15212147746225e-010
outer loop
vertex 415.857926226749 -584.113658405278 1.36860607036672
vertex 416.027756930076 -583.70365078463 16.3686061173443
vertex 415.857926211819 -584.113658407956 16.3686061173443
endloop
endfacet
facet normal 0.866025403811571 -0.499999999953006 7.7270991059607e-010
outer loop
vertex 416.027756930076 -583.70365078463 16.3686061173443
vertex 415.857926226749 -584.113658405278 1.36860607036672
vertex 416.027756945007 -583.703650781952 1.36860607036672
endloop
endfacet
facet normal 0.258819045183436 -0.965925826267387 8.51316656705939e-011
outer loop
vertex 417.060007739836 -582.911576879939 16.3686061173443
vertex 416.65000013144 -583.081407595518 1.36860607036672
vertex 417.060007754766 -582.91157687726 1.36860607036672
endloop
endfacet
facet normal 0.499999999931491 -0.866025403823992 3.43028634975651e-010
outer loop
vertex 416.65000013144 -583.081407595518 1.36860607036672
vertex 417.060007739836 -582.911576879939 16.3686061173443
vertex 416.65000011651 -583.081407598197 16.3686061173443
endloop
endfacet
facet normal 0.0 -1.0 -1.78566886201505e-010
outer loop
vertex 419.500000000003 -583.55365078463 16.3686061173443
vertex 418.857144269677 -583.553650781952 1.36860607036672
vertex 419.500000014933 -583.553650781952 1.36860607036672
endloop
endfacet
facet normal 0.0 -1.0 -1.78566886201505e-010
outer loop
vertex 418.857144269677 -583.553650781952 1.36860607036672
vertex 419.500000000003 -583.55365078463 16.3686061173443
vertex 418.857144254746 -583.55365078463 16.3686061173443
endloop
endfacet
facet normal -0.258819045029099 -0.965925826308742 -4.30096399720727e-010
outer loop
vertex 417.939992493184 -582.911576879939 16.3686061173443
vertex 417.50000013144 -582.853650781952 1.36860607036672
vertex 417.939992508114 -582.91157687726 1.36860607036672
endloop
endfacet
facet normal -8.2708947697609e-011 -1.0 -1.78566886283829e-010
outer loop
vertex 417.50000013144 -582.853650781952 1.36860607036672
vertex 417.939992493184 -582.911576879939 16.3686061173443
vertex 417.50000011651 -582.85365078463 16.3686061173443
endloop
endfacet
facet normal 0.866025403757367 -0.500000000046889 7.72709910525354e-010
outer loop
vertex 416.027756945007 -583.703650781952 1.36860607036672
vertex 416.297918588493 -583.351569256613 16.3686061173443
vertex 416.027756930076 -583.70365078463 16.3686061173443
endloop
endfacet
facet normal 0.70710678123532 -0.707106781137775 5.77548769975782e-010
outer loop
vertex 416.297918588493 -583.351569256613 16.3686061173443
vertex 416.027756945007 -583.703650781952 1.36860607036672
vertex 416.297918603423 -583.351569253935 1.36860607036672
endloop
endfacet
facet normal 0.866025403757368 0.500000000046889 7.72709910525355e-010
outer loop
vertex 416.027757037087 -589.403650773054 1.3686060883677
vertex 416.297918680573 -589.755732298393 16.3686061353453
vertex 416.297918695504 -589.755732301071 1.3686060883677
endloop
endfacet
facet normal 0.70710678123532 0.707106781137775 5.77548769975782e-010
outer loop
vertex 416.297918680573 -589.755732298393 16.3686061353453
vertex 416.027757037087 -589.403650773054 1.3686060883677
vertex 416.027757022157 -589.403650770376 16.3686061353453
endloop
endfacet
facet normal 0.500000000068403 -0.866025403744946 3.43028635126041e-010
outer loop
vertex 416.65000011651 -583.081407598197 16.3686061173443
vertex 416.297918603423 -583.351569253935 1.36860607036672
vertex 416.65000013144 -583.081407595518 1.36860607036672
endloop
endfacet
facet normal 0.707106781137775 -0.70710678123532 5.77548769861272e-010
outer loop
vertex 416.297918603423 -583.351569253935 1.36860607036672
vertex 416.65000011651 -583.081407598197 16.3686061173443
vertex 416.297918588493 -583.351569256613 16.3686061173443
endloop
endfacet
endsolid Main Design
