solid Main Design
facet normal 0.0 -1.0 0.0
outer loop
vertex 413.500000000003 -552.153650773054 16.3686060869671
vertex 406.499999999993 -552.153650773054 1.3686060869718
vertex 413.499999999993 -552.153650773054 1.36860608696705
endloop
endfacet
facet normal 0.0 -1.0 0.0
outer loop
vertex 406.499999999993 -552.153650773054 1.3686060869718
vertex 413.500000000003 -552.153650773054 16.3686060869671
vertex 406.500000000003 -552.153650773054 16.3686060869718
endloop
endfacet
facet normal -1.0 0.0 6.78609946014319e-013
outer loop
vertex 413.500000000003 -572.353650773054 16.3686060869671
vertex 413.499999999993 -552.153650773054 1.36860608696705
vertex 413.499999999993 -572.353650773054 1.36860608696705
endloop
endfacet
facet normal -1.0 0.0 6.78609946014319e-013
outer loop
vertex 413.499999999993 -552.153650773054 1.36860608696705
vertex 413.500000000003 -572.353650773054 16.3686060869671
vertex 413.500000000003 -552.153650773054 16.3686060869671
endloop
endfacet
facet normal 0.0 1.0 0.0
outer loop
vertex 406.499999999993 -572.353650773054 1.3686060869718
vertex 413.500000000003 -572.353650773054 16.3686060869671
vertex 413.499999999993 -572.353650773054 1.36860608696705
endloop
endfacet
facet normal 0.0 1.0 0.0
outer loop
vertex 413.500000000003 -572.353650773054 16.3686060869671
vertex 406.499999999993 -572.353650773054 1.3686060869718
vertex 406.500000000003 -572.353650773054 16.3686060869718
endloop
endfacet
facet normal 6.78609946014319e-013 0.0 1.0
outer loop
vertex 415.500000000003 -574.353650773054 16.3686060869657
vertex 413.500000000003 -572.353650773054 16.3686060869671
vertex 404.500000000003 -574.353650773054 16.3686060869732
endloop
endfacet
facet normal 6.78609946014319e-013 0.0 1.0
outer loop
vertex 413.500000000003 -572.353650773054 16.3686060869671
vertex 415.500000000003 -574.353650773054 16.3686060869657
vertex 415.500000000003 -550.153650773054 16.3686060869657
endloop
endfacet
facet normal 6.78609946014319e-013 0.0 1.0
outer loop
vertex 413.500000000003 -572.353650773054 16.3686060869671
vertex 415.500000000003 -550.153650773054 16.3686060869657
vertex 413.500000000003 -552.153650773054 16.3686060869671
endloop
endfacet
facet normal 6.78609946014319e-013 0.0 1.0
outer loop
vertex 413.500000000003 -552.153650773054 16.3686060869671
vertex 415.500000000003 -550.153650773054 16.3686060869657
vertex 406.500000000003 -552.153650773054 16.3686060869718
endloop
endfacet
facet normal 6.78609946014319e-013 0.0 1.0
outer loop
vertex 406.500000000003 -552.153650773054 16.3686060869718
vertex 404.500000000003 -552.253650773054 16.3686060869732
vertex 406.500000000003 -554.253650773054 16.3686060869718
endloop
endfacet
facet normal 6.78609946014319e-013 0.0 1.0
outer loop
vertex 404.500000000003 -552.253650773054 16.3686060869732
vertex 406.500000000003 -552.153650773054 16.3686060869718
vertex 404.500000000003 -550.153650773054 16.3686060869732
endloop
endfacet
facet normal 6.78609946014319e-013 0.0 1.0
outer loop
vertex 404.500000000003 -550.153650773054 16.3686060869732
vertex 406.500000000003 -552.153650773054 16.3686060869718
vertex 415.500000000003 -550.153650773054 16.3686060869657
endloop
endfacet
facet normal 6.78609946014319e-013 0.0 1.0
outer loop
vertex 404.500000000003 -574.353650773054 16.3686060869732
vertex 406.500000000003 -572.353650773054 16.3686060869718
vertex 404.500000000003 -572.253650773054 16.3686060869732
endloop
endfacet
facet normal 6.78609946014319e-013 0.0 1.0
outer loop
vertex 406.500000000003 -572.353650773054 16.3686060869718
vertex 404.500000000003 -574.353650773054 16.3686060869732
vertex 413.500000000003 -572.353650773054 16.3686060869671
endloop
endfacet
facet normal 6.78609946014319e-013 0.0 1.0
outer loop
vertex 404.500000000003 -572.253650773054 16.3686060869732
vertex 406.500000000003 -572.353650773054 16.3686060869718
vertex 406.500000000003 -570.253650773054 16.3686060869718
endloop
endfacet
facet normal 1.0 0.0 -6.78609946014319e-013
outer loop
vertex 406.500000000003 -570.253650773054 16.3686060869718
vertex 406.499999999993 -572.353650773054 1.3686060869718
vertex 406.499999999993 -570.253650773054 1.3686060869718
endloop
endfacet
facet normal 1.0 0.0 -6.78609946014319e-013
outer loop
vertex 406.499999999993 -572.353650773054 1.3686060869718
vertex 406.500000000003 -570.253650773054 16.3686060869718
vertex 406.500000000003 -572.353650773054 16.3686060869718
endloop
endfacet
facet normal -0.707106781186547 0.707106781186548 4.79849694607362e-013
outer loop
vertex 404.499999999993 -572.253650773054 1.36860608697316
vertex 406.500000000003 -570.253650773054 16.3686060869718
vertex 406.499999999993 -570.253650773054 1.3686060869718
endloop
endfacet
facet normal -0.707106781186547 0.707106781186548 4.79849694607362e-013
outer loop
vertex 406.500000000003 -570.253650773054 16.3686060869718
vertex 404.499999999993 -572.253650773054 1.36860608697316
vertex 404.500000000003 -572.253650773054 16.3686060869732
endloop
endfacet
facet normal -1.0 0.0 6.78609946014319e-013
outer loop
vertex 404.500000000003 -574.353650773054 16.3686060869732
vertex 404.499999999993 -572.253650773054 1.36860608697316
vertex 404.499999999993 -574.353650773054 1.36860608697316
endloop
endfacet
facet normal -1.0 0.0 6.78609946014319e-013
outer loop
vertex 404.499999999993 -572.253650773054 1.36860608697316
vertex 404.500000000003 -574.353650773054 16.3686060869732
vertex 404.500000000003 -572.253650773054 16.3686060869732
endloop
endfacet
facet normal 0.0 -1.0 0.0
outer loop
vertex 415.500000000003 -574.353650773054 16.3686060869657
vertex 404.499999999993 -574.353650773054 1.36860608697316
vertex 415.499999999993 -574.353650773054 1.36860608696569
endloop
endfacet
facet normal 0.0 -1.0 0.0
outer loop
vertex 404.499999999993 -574.353650773054 1.36860608697316
vertex 415.500000000003 -574.353650773054 16.3686060869657
vertex 404.500000000003 -574.353650773054 16.3686060869732
endloop
endfacet
facet normal 1.0 0.0 -6.78609946014319e-013
outer loop
vertex 415.500000000003 -550.153650773054 16.3686060869657
vertex 415.499999999993 -574.353650773054 1.36860608696569
vertex 415.499999999993 -550.153650773054 1.36860608696569
endloop
endfacet
facet normal 1.0 0.0 -6.78609946014319e-013
outer loop
vertex 415.499999999993 -574.353650773054 1.36860608696569
vertex 415.500000000003 -550.153650773054 16.3686060869657
vertex 415.500000000003 -574.353650773054 16.3686060869657
endloop
endfacet
facet normal 0.0 1.0 0.0
outer loop
vertex 404.499999999993 -550.153650773054 1.36860608697316
vertex 415.500000000003 -550.153650773054 16.3686060869657
vertex 415.499999999993 -550.153650773054 1.36860608696569
endloop
endfacet
facet normal 0.0 1.0 0.0
outer loop
vertex 415.500000000003 -550.153650773054 16.3686060869657
vertex 404.499999999993 -550.153650773054 1.36860608697316
vertex 404.500000000003 -550.153650773054 16.3686060869732
endloop
endfacet
facet normal -1.0 0.0 6.78609946014319e-013
outer loop
vertex 404.500000000003 -552.253650773054 16.3686060869732
vertex 404.499999999993 -550.153650773054 1.36860608697316
vertex 404.499999999993 -552.253650773054 1.36860608697316
endloop
endfacet
facet normal -1.0 0.0 6.78609946014319e-013
outer loop
vertex 404.499999999993 -550.153650773054 1.36860608697316
vertex 404.500000000003 -552.253650773054 16.3686060869732
vertex 404.500000000003 -550.153650773054 16.3686060869732
endloop
endfacet
facet normal -0.707106781186547 -0.707106781186548 4.79849694607362e-013
outer loop
vertex 404.500000000003 -552.253650773054 16.3686060869732
vertex 406.499999999993 -554.253650773054 1.3686060869718
vertex 406.500000000003 -554.253650773054 16.3686060869718
endloop
endfacet
facet normal -0.707106781186547 -0.707106781186548 4.79849694607362e-013
outer loop
vertex 406.499999999993 -554.253650773054 1.3686060869718
vertex 404.500000000003 -552.253650773054 16.3686060869732
vertex 404.499999999993 -552.253650773054 1.36860608697316
endloop
endfacet
facet normal 1.0 0.0 -6.78609946014319e-013
outer loop
vertex 406.500000000003 -552.153650773054 16.3686060869718
vertex 406.499999999993 -554.253650773054 1.3686060869718
vertex 406.499999999993 -552.153650773054 1.3686060869718
endloop
endfacet
facet normal 1.0 0.0 -6.78609946014319e-013
outer loop
vertex 406.499999999993 -554.253650773054 1.3686060869718
vertex 406.500000000003 -552.153650773054 16.3686060869718
vertex 406.500000000003 -554.253650773054 16.3686060869718
endloop
endfacet
facet normal -6.78609946014319e-013 0.0 -1.0
outer loop
vertex 404.499999999993 -572.253650773054 1.36860608697316
vertex 415.499999999993 -574.353650773054 1.36860608696569
vertex 404.499999999993 -574.353650773054 1.36860608697316
endloop
endfacet
facet normal -6.78609946014319e-013 0.0 -1.0
outer loop
vertex 415.499999999993 -574.353650773054 1.36860608696569
vertex 404.499999999993 -572.253650773054 1.36860608697316
vertex 406.499999999993 -572.353650773054 1.3686060869718
endloop
endfacet
facet normal -6.78609946014319e-013 0.0 -1.0
outer loop
vertex 406.499999999993 -572.353650773054 1.3686060869718
vertex 404.499999999993 -572.253650773054 1.36860608697316
vertex 406.499999999993 -570.253650773054 1.3686060869718
endloop
endfacet
facet normal -6.78609946014319e-013 0.0 -1.0
outer loop
vertex 404.499999999993 -552.253650773054 1.36860608697316
vertex 406.499999999993 -552.153650773054 1.3686060869718
vertex 406.499999999993 -554.253650773054 1.3686060869718
endloop
endfacet
facet normal -6.78609946014319e-013 0.0 -1.0
outer loop
vertex 406.499999999993 -552.153650773054 1.3686060869718
vertex 404.499999999993 -552.253650773054 1.36860608697316
vertex 404.499999999993 -550.153650773054 1.36860608697316
endloop
endfacet
facet normal -6.78609946014319e-013 0.0 -1.0
outer loop
vertex 406.499999999993 -552.153650773054 1.3686060869718
vertex 404.499999999993 -550.153650773054 1.36860608697316
vertex 413.499999999993 -552.153650773054 1.36860608696705
endloop
endfacet
facet normal -6.78609946014319e-013 0.0 -1.0
outer loop
vertex 415.499999999993 -574.353650773054 1.36860608696569
vertex 413.499999999993 -572.353650773054 1.36860608696705
vertex 415.499999999993 -550.153650773054 1.36860608696569
endloop
endfacet
facet normal -6.78609946014319e-013 0.0 -1.0
outer loop
vertex 413.499999999993 -572.353650773054 1.36860608696705
vertex 415.499999999993 -574.353650773054 1.36860608696569
vertex 406.499999999993 -572.353650773054 1.3686060869718
endloop
endfacet
facet normal -6.78609946014319e-013 0.0 -1.0
outer loop
vertex 415.499999999993 -550.153650773054 1.36860608696569
vertex 413.499999999993 -572.353650773054 1.36860608696705
vertex 413.499999999993 -552.153650773054 1.36860608696705
endloop
endfacet
facet normal -6.78609946014319e-013 0.0 -1.0
outer loop
vertex 415.499999999993 -550.153650773054 1.36860608696569
vertex 413.499999999993 -552.153650773054 1.36860608696705
vertex 404.499999999993 -550.153650773054 1.36860608697316
endloop
endfacet
endsolid Main Design
