solid Wire Clip Half With Wire (repaired)
 facet normal 0.000000 1.000000 0.000000
  outer loop
   vertex 404.499023 -550.154053 1.368000
   vertex 415.499023 -550.154053 16.368000
   vertex 415.499023 -550.154053 1.368000
  endloop
 endfacet
 facet normal 0.000000 1.000000 0.000000
  outer loop
   vertex 415.499023 -550.154053 16.368000
   vertex 404.499023 -550.154053 1.368000
   vertex 404.499023 -550.154053 16.368000
  endloop
 endfacet
 facet normal 1.000000 0.000000 0.000000
  outer loop
   vertex 406.499023 -570.254028 1.368000
   vertex 406.499023 -572.354004 16.368000
   vertex 406.499023 -572.354004 1.368000
  endloop
 endfacet
 facet normal 1.000000 0.000000 0.000000
  outer loop
   vertex 406.499023 -572.354004 16.368000
   vertex 406.499023 -570.254028 1.368000
   vertex 406.499023 -570.254028 16.368000
  endloop
 endfacet
 facet normal 0.000000 -1.000000 0.000000
  outer loop
   vertex 415.499023 -574.354004 16.368000
   vertex 404.499023 -574.354004 1.368000
   vertex 415.499023 -574.354004 1.368000
  endloop
 endfacet
 facet normal 0.000000 -1.000000 0.000000
  outer loop
   vertex 404.499023 -574.354004 1.368000
   vertex 415.499023 -574.354004 16.368000
   vertex 404.499023 -574.354004 16.368000
  endloop
 endfacet
 facet normal 0.000000 1.000000 0.000000
  outer loop
   vertex 406.499023 -572.354004 1.368000
   vertex 413.499023 -572.354004 16.368000
   vertex 413.499023 -572.354004 1.368000
  endloop
 endfacet
 facet normal 0.000000 1.000000 0.000000
  outer loop
   vertex 413.499023 -572.354004 16.368000
   vertex 406.499023 -572.354004 1.368000
   vertex 406.499023 -572.354004 16.368000
  endloop
 endfacet
 facet normal -1.000000 0.000000 0.000000
  outer loop
   vertex 404.499023 -572.254028 16.368000
   vertex 404.499023 -574.354004 1.368000
   vertex 404.499023 -574.354004 16.368000
  endloop
 endfacet
 facet normal -1.000000 0.000000 0.000000
  outer loop
   vertex 404.499023 -574.354004 1.368000
   vertex 404.499023 -572.254028 16.368000
   vertex 404.499023 -572.254028 1.368000
  endloop
 endfacet
 facet normal -0.707107 0.707107 0.000000
  outer loop
   vertex 404.499023 -572.254028 1.368000
   vertex 406.499023 -570.254028 16.368000
   vertex 406.499023 -570.254028 1.368000
  endloop
 endfacet
 facet normal -0.707107 0.707107 0.000000
  outer loop
   vertex 406.499023 -570.254028 16.368000
   vertex 404.499023 -572.254028 1.368000
   vertex 404.499023 -572.254028 16.368000
  endloop
 endfacet
 facet normal -1.000000 0.000000 0.000000
  outer loop
   vertex 413.499023 -552.154053 16.368000
   vertex 413.499023 -572.354004 1.368000
   vertex 413.499023 -572.354004 16.368000
  endloop
 endfacet
 facet normal -1.000000 0.000000 0.000000
  outer loop
   vertex 413.499023 -572.354004 1.368000
   vertex 413.499023 -552.154053 16.368000
   vertex 413.499023 -552.154053 1.368000
  endloop
 endfacet
 facet normal -1.000000 0.000000 0.000000
  outer loop
   vertex 404.499023 -550.154053 16.368000
   vertex 404.499023 -552.254028 1.368000
   vertex 404.499023 -552.254028 16.368000
  endloop
 endfacet
 facet normal -1.000000 0.000000 0.000000
  outer loop
   vertex 404.499023 -552.254028 1.368000
   vertex 404.499023 -550.154053 16.368000
   vertex 404.499023 -550.154053 1.368000
  endloop
 endfacet
 facet normal -0.707107 -0.707107 0.000000
  outer loop
   vertex 406.499023 -554.254028 16.368000
   vertex 404.499023 -552.254028 1.368000
   vertex 406.499023 -554.254028 1.368000
  endloop
 endfacet
 facet normal -0.707107 -0.707107 0.000000
  outer loop
   vertex 404.499023 -552.254028 1.368000
   vertex 406.499023 -554.254028 16.368000
   vertex 404.499023 -552.254028 16.368000
  endloop
 endfacet
 facet normal 1.000000 0.000000 0.000000
  outer loop
   vertex 406.499023 -552.154053 1.368000
   vertex 406.499023 -554.254028 16.368000
   vertex 406.499023 -554.254028 1.368000
  endloop
 endfacet
 facet normal 1.000000 0.000000 0.000000
  outer loop
   vertex 406.499023 -554.254028 16.368000
   vertex 406.499023 -552.154053 1.368000
   vertex 406.499023 -552.154053 16.368000
  endloop
 endfacet
 facet normal 0.000000 -1.000000 0.000000
  outer loop
   vertex 413.499023 -552.154053 16.368000
   vertex 406.499023 -552.154053 1.368000
   vertex 413.499023 -552.154053 1.368000
  endloop
 endfacet
 facet normal 0.000000 -1.000000 0.000000
  outer loop
   vertex 406.499023 -552.154053 1.368000
   vertex 413.499023 -552.154053 16.368000
   vertex 406.499023 -552.154053 16.368000
  endloop
 endfacet
 facet normal 1.000000 0.000000 0.000000
  outer loop
   vertex 415.499023 -550.154053 1.368000
   vertex 415.499023 -551.688049 16.368000
   vertex 415.499023 -551.688049 1.368000
  endloop
 endfacet
 facet normal 1.000000 0.000000 0.000000
  outer loop
   vertex 415.499023 -551.688049 16.368000
   vertex 415.499023 -550.154053 1.368000
   vertex 415.499023 -550.154053 16.368000
  endloop
 endfacet
 facet normal 0.000000 0.000000 1.000000
  outer loop
   vertex 415.499023 -574.354004 16.368000
   vertex 404.499023 -572.254028 16.368000
   vertex 404.499023 -574.354004 16.368000
  endloop
 endfacet
 facet normal 0.000000 0.000000 1.000000
  outer loop
   vertex 404.499023 -572.254028 16.368000
   vertex 415.499023 -574.354004 16.368000
   vertex 406.499023 -572.354004 16.368000
  endloop
 endfacet
 facet normal 0.000000 0.000000 1.000000
  outer loop
   vertex 406.499023 -572.354004 16.368000
   vertex 415.499023 -574.354004 16.368000
   vertex 413.499023 -572.354004 16.368000
  endloop
 endfacet
 facet normal 0.000000 0.000000 1.000000
  outer loop
   vertex 413.499023 -572.354004 16.368000
   vertex 415.499023 -574.354004 16.368000
   vertex 413.499023 -552.154053 16.368000
  endloop
 endfacet
 facet normal 0.000000 0.000000 1.000000
  outer loop
   vertex 415.499023 -551.688049 16.368000
   vertex 413.499023 -552.154053 16.368000
   vertex 415.499023 -572.820007 16.368000
  endloop
 endfacet
 facet normal 0.000000 0.000000 1.000000
  outer loop
   vertex 415.499023 -551.688049 16.368000
   vertex 415.499023 -572.820007 16.368000
   vertex 415.799011 -555.388000 16.368000
  endloop
 endfacet
 facet normal 0.000000 0.000000 1.000000
  outer loop
   vertex 415.499023 -551.688049 16.368000
   vertex 415.799011 -555.388000 16.368000
   vertex 415.857025 -554.947998 16.368000
  endloop
 endfacet
 facet normal 0.000000 0.000000 1.000000
  outer loop
   vertex 415.499023 -551.688049 16.368000
   vertex 415.857025 -554.947998 16.368000
   vertex 416.027008 -554.538025 16.368000
  endloop
 endfacet
 facet normal 0.000000 0.000000 1.000000
  outer loop
   vertex 415.499023 -551.688049 16.368000
   vertex 416.027008 -554.538025 16.368000
   vertex 416.297028 -554.186035 16.368000
  endloop
 endfacet
 facet normal 0.000000 0.000000 1.000000
  outer loop
   vertex 415.499023 -551.688049 16.368000
   vertex 416.297028 -554.186035 16.368000
   vertex 419.499023 -551.688049 16.368000
  endloop
 endfacet
 facet normal 0.000000 0.000000 1.000000
  outer loop
   vertex 415.799011 -565.120056 16.368000
   vertex 415.799011 -559.388000 16.368000
   vertex 415.499023 -572.820007 16.368000
  endloop
 endfacet
 facet normal 0.000000 0.000000 1.000000
  outer loop
   vertex 419.499023 -551.688049 16.368000
   vertex 416.297028 -554.186035 16.368000
   vertex 416.649017 -553.916016 16.368000
  endloop
 endfacet
 facet normal 0.000000 0.000000 1.000000
  outer loop
   vertex 419.499023 -551.688049 16.368000
   vertex 416.649017 -553.916016 16.368000
   vertex 417.059021 -553.746033 16.368000
  endloop
 endfacet
 facet normal 0.000000 0.000000 1.000000
  outer loop
   vertex 419.499023 -551.688049 16.368000
   vertex 417.059021 -553.746033 16.368000
   vertex 417.499023 -553.688049 16.368000
  endloop
 endfacet
 facet normal 0.000000 0.000000 1.000000
  outer loop
   vertex 419.499023 -551.688049 16.368000
   vertex 417.499023 -553.688049 16.368000
   vertex 417.939026 -553.746033 16.368000
  endloop
 endfacet
 facet normal 0.000000 0.000000 1.000000
  outer loop
   vertex 419.499023 -551.688049 16.368000
   vertex 417.939026 -553.746033 16.368000
   vertex 418.349030 -553.916016 16.368000
  endloop
 endfacet
 facet normal 0.000000 0.000000 1.000000
  outer loop
   vertex 419.499023 -551.688049 16.368000
   vertex 418.349030 -553.916016 16.368000
   vertex 418.702026 -554.186035 16.368000
  endloop
 endfacet
 facet normal 0.000000 0.000000 1.000000
  outer loop
   vertex 419.499023 -551.688049 16.368000
   vertex 418.702026 -554.186035 16.368000
   vertex 418.857025 -554.388000 16.368000
  endloop
 endfacet
 facet normal 0.000000 0.000000 1.000000
  outer loop
   vertex 419.499023 -551.688049 16.368000
   vertex 418.857025 -554.388000 16.368000
   vertex 419.499023 -554.388000 16.368000
  endloop
 endfacet
 facet normal 0.000000 0.000000 1.000000
  outer loop
   vertex 406.499023 -554.254028 16.368000
   vertex 404.499023 -550.154053 16.368000
   vertex 404.499023 -552.254028 16.368000
  endloop
 endfacet
 facet normal 0.000000 0.000000 1.000000
  outer loop
   vertex 404.499023 -550.154053 16.368000
   vertex 406.499023 -554.254028 16.368000
   vertex 406.499023 -552.154053 16.368000
  endloop
 endfacet
 facet normal 0.000000 0.000000 1.000000
  outer loop
   vertex 404.499023 -550.154053 16.368000
   vertex 406.499023 -552.154053 16.368000
   vertex 415.499023 -550.154053 16.368000
  endloop
 endfacet
 facet normal 0.000000 0.000000 1.000000
  outer loop
   vertex 415.499023 -550.154053 16.368000
   vertex 406.499023 -552.154053 16.368000
   vertex 413.499023 -552.154053 16.368000
  endloop
 endfacet
 facet normal 0.000000 0.000000 1.000000
  outer loop
   vertex 415.499023 -574.354004 16.368000
   vertex 415.499023 -572.820007 16.368000
   vertex 413.499023 -552.154053 16.368000
  endloop
 endfacet
 facet normal 0.000000 0.000000 1.000000
  outer loop
   vertex 415.499023 -550.154053 16.368000
   vertex 413.499023 -552.154053 16.368000
   vertex 415.499023 -551.688049 16.368000
  endloop
 endfacet
 facet normal 0.000000 0.000000 1.000000
  outer loop
   vertex 415.499023 -572.820007 16.368000
   vertex 415.799011 -569.120056 16.368000
   vertex 415.799011 -565.120056 16.368000
  endloop
 endfacet
 facet normal 0.000000 0.000000 1.000000
  outer loop
   vertex 415.799011 -569.120056 16.368000
   vertex 415.499023 -572.820007 16.368000
   vertex 415.857025 -569.559998 16.368000
  endloop
 endfacet
 facet normal 0.000000 0.000000 1.000000
  outer loop
   vertex 415.857025 -569.559998 16.368000
   vertex 415.499023 -572.820007 16.368000
   vertex 416.027008 -569.970032 16.368000
  endloop
 endfacet
 facet normal 0.000000 0.000000 1.000000
  outer loop
   vertex 416.027008 -569.970032 16.368000
   vertex 415.499023 -572.820007 16.368000
   vertex 416.297028 -570.322021 16.368000
  endloop
 endfacet
 facet normal 0.000000 0.000000 1.000000
  outer loop
   vertex 416.297028 -570.322021 16.368000
   vertex 415.499023 -572.820007 16.368000
   vertex 419.499023 -572.820007 16.368000
  endloop
 endfacet
 facet normal 0.000000 0.000000 1.000000
  outer loop
   vertex 416.297028 -570.322021 16.368000
   vertex 419.499023 -572.820007 16.368000
   vertex 416.649017 -570.592041 16.368000
  endloop
 endfacet
 facet normal 0.000000 0.000000 1.000000
  outer loop
   vertex 416.649017 -570.592041 16.368000
   vertex 419.499023 -572.820007 16.368000
   vertex 417.059021 -570.762024 16.368000
  endloop
 endfacet
 facet normal 0.000000 0.000000 1.000000
  outer loop
   vertex 417.059021 -570.762024 16.368000
   vertex 419.499023 -572.820007 16.368000
   vertex 417.499023 -570.820007 16.368000
  endloop
 endfacet
 facet normal 0.000000 0.000000 1.000000
  outer loop
   vertex 417.499023 -570.820007 16.368000
   vertex 419.499023 -572.820007 16.368000
   vertex 417.939026 -570.762024 16.368000
  endloop
 endfacet
 facet normal 0.000000 0.000000 1.000000
  outer loop
   vertex 417.939026 -570.762024 16.368000
   vertex 419.499023 -572.820007 16.368000
   vertex 418.349030 -570.592041 16.368000
  endloop
 endfacet
 facet normal 0.000000 0.000000 1.000000
  outer loop
   vertex 418.349030 -570.592041 16.368000
   vertex 419.499023 -572.820007 16.368000
   vertex 418.702026 -570.322021 16.368000
  endloop
 endfacet
 facet normal 0.000000 0.000000 1.000000
  outer loop
   vertex 418.702026 -570.322021 16.368000
   vertex 419.499023 -572.820007 16.368000
   vertex 418.857025 -570.120056 16.368000
  endloop
 endfacet
 facet normal 0.000000 0.000000 1.000000
  outer loop
   vertex 418.857025 -570.120056 16.368000
   vertex 419.499023 -572.820007 16.368000
   vertex 419.499023 -570.120056 16.368000
  endloop
 endfacet
 facet normal 0.000000 0.000000 1.000000
  outer loop
   vertex 415.799011 -555.388000 16.368000
   vertex 415.499023 -572.820007 16.368000
   vertex 415.799011 -559.388000 16.368000
  endloop
 endfacet
 facet normal 0.000000 0.000000 1.000000
  outer loop
   vertex 415.799011 -559.388000 16.368000
   vertex 415.799011 -565.120056 16.368000
   vertex 415.857025 -564.680054 16.368000
  endloop
 endfacet
 facet normal 0.000000 0.000000 1.000000
  outer loop
   vertex 415.799011 -559.388000 16.368000
   vertex 415.857025 -564.680054 16.368000
   vertex 415.857025 -559.828003 16.368000
  endloop
 endfacet
 facet normal 0.000000 0.000000 1.000000
  outer loop
   vertex 415.857025 -559.828003 16.368000
   vertex 415.857025 -564.680054 16.368000
   vertex 416.027008 -564.270020 16.368000
  endloop
 endfacet
 facet normal 0.000000 0.000000 1.000000
  outer loop
   vertex 415.857025 -559.828003 16.368000
   vertex 416.027008 -564.270020 16.368000
   vertex 416.027008 -560.238037 16.368000
  endloop
 endfacet
 facet normal 0.000000 0.000000 1.000000
  outer loop
   vertex 416.027008 -560.238037 16.368000
   vertex 416.027008 -564.270020 16.368000
   vertex 416.297028 -563.918030 16.368000
  endloop
 endfacet
 facet normal 0.000000 0.000000 1.000000
  outer loop
   vertex 416.027008 -560.238037 16.368000
   vertex 416.297028 -563.918030 16.368000
   vertex 416.297028 -560.590027 16.368000
  endloop
 endfacet
 facet normal 0.000000 0.000000 1.000000
  outer loop
   vertex 416.297028 -560.590027 16.368000
   vertex 416.297028 -563.918030 16.368000
   vertex 416.649017 -563.648010 16.368000
  endloop
 endfacet
 facet normal 0.000000 0.000000 1.000000
  outer loop
   vertex 416.297028 -560.590027 16.368000
   vertex 416.649017 -563.648010 16.368000
   vertex 416.649017 -560.860046 16.368000
  endloop
 endfacet
 facet normal 0.000000 0.000000 1.000000
  outer loop
   vertex 416.649017 -560.860046 16.368000
   vertex 416.649017 -563.648010 16.368000
   vertex 417.059021 -563.478027 16.368000
  endloop
 endfacet
 facet normal 0.000000 0.000000 1.000000
  outer loop
   vertex 416.649017 -560.860046 16.368000
   vertex 417.059021 -563.478027 16.368000
   vertex 417.059021 -561.030029 16.368000
  endloop
 endfacet
 facet normal 0.000000 0.000000 1.000000
  outer loop
   vertex 417.059021 -561.030029 16.368000
   vertex 417.059021 -563.478027 16.368000
   vertex 417.499023 -563.420044 16.368000
  endloop
 endfacet
 facet normal 0.000000 0.000000 1.000000
  outer loop
   vertex 417.059021 -561.030029 16.368000
   vertex 417.499023 -563.420044 16.368000
   vertex 417.499023 -561.088013 16.368000
  endloop
 endfacet
 facet normal 0.000000 0.000000 1.000000
  outer loop
   vertex 417.499023 -561.088013 16.368000
   vertex 417.499023 -563.420044 16.368000
   vertex 417.939026 -563.478027 16.368000
  endloop
 endfacet
 facet normal 0.000000 0.000000 1.000000
  outer loop
   vertex 417.499023 -561.088013 16.368000
   vertex 417.939026 -563.478027 16.368000
   vertex 417.939026 -561.030029 16.368000
  endloop
 endfacet
 facet normal 0.000000 0.000000 1.000000
  outer loop
   vertex 417.939026 -561.030029 16.368000
   vertex 417.939026 -563.478027 16.368000
   vertex 418.349030 -563.648010 16.368000
  endloop
 endfacet
 facet normal 0.000000 0.000000 1.000000
  outer loop
   vertex 417.939026 -561.030029 16.368000
   vertex 418.349030 -563.648010 16.368000
   vertex 418.349030 -560.860046 16.368000
  endloop
 endfacet
 facet normal 0.000000 0.000000 1.000000
  outer loop
   vertex 418.349030 -560.860046 16.368000
   vertex 418.349030 -563.648010 16.368000
   vertex 418.702026 -563.918030 16.368000
  endloop
 endfacet
 facet normal 0.000000 0.000000 1.000000
  outer loop
   vertex 418.349030 -560.860046 16.368000
   vertex 418.702026 -563.918030 16.368000
   vertex 418.702026 -560.590027 16.368000
  endloop
 endfacet
 facet normal 0.000000 0.000000 1.000000
  outer loop
   vertex 418.702026 -560.590027 16.368000
   vertex 418.702026 -563.918030 16.368000
   vertex 418.857025 -564.120056 16.368000
  endloop
 endfacet
 facet normal 0.000000 0.000000 1.000000
  outer loop
   vertex 418.702026 -560.590027 16.368000
   vertex 418.857025 -564.120056 16.368000
   vertex 418.857025 -560.388000 16.368000
  endloop
 endfacet
 facet normal 0.000000 0.000000 1.000000
  outer loop
   vertex 418.857025 -560.388000 16.368000
   vertex 418.857025 -564.120056 16.368000
   vertex 419.499023 -564.120056 16.368000
  endloop
 endfacet
 facet normal 0.000000 0.000000 1.000000
  outer loop
   vertex 418.857025 -560.388000 16.368000
   vertex 419.499023 -564.120056 16.368000
   vertex 419.499023 -560.388000 16.368000
  endloop
 endfacet
 facet normal 0.000000 0.000000 1.000000
  outer loop
   vertex 415.799011 -559.388000 16.368000
   vertex 415.857025 -555.828003 16.368000
   vertex 415.799011 -555.388000 16.368000
  endloop
 endfacet
 facet normal 0.000000 0.000000 1.000000
  outer loop
   vertex 415.857025 -555.828003 16.368000
   vertex 415.799011 -559.388000 16.368000
   vertex 415.857025 -558.947998 16.368000
  endloop
 endfacet
 facet normal 0.000000 0.000000 1.000000
  outer loop
   vertex 415.857025 -555.828003 16.368000
   vertex 415.857025 -558.947998 16.368000
   vertex 416.027008 -556.238037 16.368000
  endloop
 endfacet
 facet normal 0.000000 0.000000 1.000000
  outer loop
   vertex 416.027008 -556.238037 16.368000
   vertex 415.857025 -558.947998 16.368000
   vertex 416.027008 -558.538025 16.368000
  endloop
 endfacet
 facet normal 0.000000 0.000000 1.000000
  outer loop
   vertex 416.027008 -556.238037 16.368000
   vertex 416.027008 -558.538025 16.368000
   vertex 416.297028 -556.590027 16.368000
  endloop
 endfacet
 facet normal 0.000000 0.000000 1.000000
  outer loop
   vertex 416.297028 -556.590027 16.368000
   vertex 416.027008 -558.538025 16.368000
   vertex 416.297028 -558.186035 16.368000
  endloop
 endfacet
 facet normal 0.000000 0.000000 1.000000
  outer loop
   vertex 416.297028 -556.590027 16.368000
   vertex 416.297028 -558.186035 16.368000
   vertex 416.649017 -556.860046 16.368000
  endloop
 endfacet
 facet normal 0.000000 0.000000 1.000000
  outer loop
   vertex 416.649017 -556.860046 16.368000
   vertex 416.297028 -558.186035 16.368000
   vertex 416.649017 -557.916016 16.368000
  endloop
 endfacet
 facet normal 0.000000 0.000000 1.000000
  outer loop
   vertex 415.799011 -569.120056 16.368000
   vertex 415.857025 -565.559998 16.368000
   vertex 415.799011 -565.120056 16.368000
  endloop
 endfacet
 facet normal 0.000000 0.000000 1.000000
  outer loop
   vertex 415.857025 -565.559998 16.368000
   vertex 415.799011 -569.120056 16.368000
   vertex 415.857025 -568.680054 16.368000
  endloop
 endfacet
 facet normal 0.000000 0.000000 1.000000
  outer loop
   vertex 415.857025 -565.559998 16.368000
   vertex 415.857025 -568.680054 16.368000
   vertex 416.027008 -565.970032 16.368000
  endloop
 endfacet
 facet normal 0.000000 0.000000 1.000000
  outer loop
   vertex 416.027008 -565.970032 16.368000
   vertex 415.857025 -568.680054 16.368000
   vertex 416.027008 -568.270020 16.368000
  endloop
 endfacet
 facet normal 0.000000 0.000000 1.000000
  outer loop
   vertex 416.027008 -565.970032 16.368000
   vertex 416.027008 -568.270020 16.368000
   vertex 416.297028 -566.322021 16.368000
  endloop
 endfacet
 facet normal 0.000000 0.000000 1.000000
  outer loop
   vertex 416.297028 -566.322021 16.368000
   vertex 416.027008 -568.270020 16.368000
   vertex 416.297028 -567.918030 16.368000
  endloop
 endfacet
 facet normal 0.000000 0.000000 1.000000
  outer loop
   vertex 416.297028 -566.322021 16.368000
   vertex 416.297028 -567.918030 16.368000
   vertex 416.649017 -566.592041 16.368000
  endloop
 endfacet
 facet normal 0.000000 0.000000 1.000000
  outer loop
   vertex 416.649017 -566.592041 16.368000
   vertex 416.297028 -567.918030 16.368000
   vertex 416.649017 -567.648010 16.368000
  endloop
 endfacet
 facet normal 0.000000 0.000000 1.000000
  outer loop
   vertex 406.499023 -570.254028 16.368000
   vertex 404.499023 -572.254028 16.368000
   vertex 406.499023 -572.354004 16.368000
  endloop
 endfacet
 facet normal 1.000000 0.000000 0.000000
  outer loop
   vertex 415.499023 -572.820007 1.368000
   vertex 415.499023 -574.354004 16.368000
   vertex 415.499023 -574.354004 1.368000
  endloop
 endfacet
 facet normal 1.000000 0.000000 0.000000
  outer loop
   vertex 415.499023 -574.354004 16.368000
   vertex 415.499023 -572.820007 1.368000
   vertex 415.499023 -572.820007 16.368000
  endloop
 endfacet
 facet normal 0.382979 0.923757 0.000000
  outer loop
   vertex 416.649017 -570.592041 16.368000
   vertex 417.059021 -570.762024 1.368000
   vertex 416.649017 -570.592041 1.368000
  endloop
 endfacet
 facet normal 0.382979 0.923757 0.000000
  outer loop
   vertex 417.059021 -570.762024 1.368000
   vertex 416.649017 -570.592041 16.368000
   vertex 417.059021 -570.762024 16.368000
  endloop
 endfacet
 facet normal 0.000000 1.000000 0.000000
  outer loop
   vertex 418.857025 -570.120056 16.368000
   vertex 419.499023 -570.120056 1.368000
   vertex 418.857025 -570.120056 1.368000
  endloop
 endfacet
 facet normal 0.000000 1.000000 0.000000
  outer loop
   vertex 419.499023 -570.120056 1.368000
   vertex 418.857025 -570.120056 16.368000
   vertex 419.499023 -570.120056 16.368000
  endloop
 endfacet
 facet normal 0.991420 -0.130718 0.000000
  outer loop
   vertex 415.799011 -565.120056 1.368000
   vertex 415.857025 -564.680054 16.368000
   vertex 415.799011 -565.120056 16.368000
  endloop
 endfacet
 facet normal 0.991420 -0.130718 0.000000
  outer loop
   vertex 415.857025 -564.680054 16.368000
   vertex 415.799011 -565.120056 1.368000
   vertex 415.857025 -564.680054 1.368000
  endloop
 endfacet
 facet normal -0.382979 0.923757 0.000000
  outer loop
   vertex 417.939026 -570.762024 16.368000
   vertex 418.349030 -570.592041 1.368000
   vertex 417.939026 -570.762024 1.368000
  endloop
 endfacet
 facet normal -0.382979 0.923757 0.000000
  outer loop
   vertex 418.349030 -570.592041 1.368000
   vertex 417.939026 -570.762024 16.368000
   vertex 418.349030 -570.592041 16.368000
  endloop
 endfacet
 facet normal 0.793431 -0.608660 0.000000
  outer loop
   vertex 416.027008 -564.270020 1.368000
   vertex 416.297028 -563.918030 16.368000
   vertex 416.027008 -564.270020 16.368000
  endloop
 endfacet
 facet normal 0.793431 -0.608660 0.000000
  outer loop
   vertex 416.297028 -563.918030 16.368000
   vertex 416.027008 -564.270020 1.368000
   vertex 416.297028 -563.918030 1.368000
  endloop
 endfacet
 facet normal 0.000000 1.000000 0.000000
  outer loop
   vertex 415.499023 -551.688049 16.368000
   vertex 419.499023 -551.688049 1.368000
   vertex 415.499023 -551.688049 1.368000
  endloop
 endfacet
 facet normal 0.000000 1.000000 0.000000
  outer loop
   vertex 419.499023 -551.688049 1.368000
   vertex 415.499023 -551.688049 16.368000
   vertex 419.499023 -551.688049 16.368000
  endloop
 endfacet
 facet normal 0.000000 -1.000000 0.000000
  outer loop
   vertex 419.499023 -572.820007 16.368000
   vertex 415.499023 -572.820007 1.368000
   vertex 419.499023 -572.820007 1.368000
  endloop
 endfacet
 facet normal 0.000000 -1.000000 0.000000
  outer loop
   vertex 415.499023 -572.820007 1.368000
   vertex 419.499023 -572.820007 16.368000
   vertex 415.499023 -572.820007 16.368000
  endloop
 endfacet
 facet normal 0.000000 0.000000 -1.000000
  outer loop
   vertex 415.499023 -550.154053 1.368000
   vertex 404.499023 -552.254028 1.368000
   vertex 404.499023 -550.154053 1.368000
  endloop
 endfacet
 facet normal 0.000000 0.000000 -1.000000
  outer loop
   vertex 404.499023 -552.254028 1.368000
   vertex 415.499023 -550.154053 1.368000
   vertex 406.499023 -552.154053 1.368000
  endloop
 endfacet
 facet normal 0.000000 0.000000 -1.000000
  outer loop
   vertex 406.499023 -552.154053 1.368000
   vertex 415.499023 -550.154053 1.368000
   vertex 413.499023 -552.154053 1.368000
  endloop
 endfacet
 facet normal 0.000000 0.000000 -1.000000
  outer loop
   vertex 413.499023 -552.154053 1.368000
   vertex 415.499023 -550.154053 1.368000
   vertex 413.499023 -572.354004 1.368000
  endloop
 endfacet
 facet normal 0.000000 0.000000 -1.000000
  outer loop
   vertex 406.499023 -570.254028 1.368000
   vertex 404.499023 -574.354004 1.368000
   vertex 404.499023 -572.254028 1.368000
  endloop
 endfacet
 facet normal 0.000000 0.000000 -1.000000
  outer loop
   vertex 404.499023 -574.354004 1.368000
   vertex 406.499023 -570.254028 1.368000
   vertex 406.499023 -572.354004 1.368000
  endloop
 endfacet
 facet normal 0.000000 0.000000 -1.000000
  outer loop
   vertex 404.499023 -574.354004 1.368000
   vertex 406.499023 -572.354004 1.368000
   vertex 415.499023 -574.354004 1.368000
  endloop
 endfacet
 facet normal 0.000000 0.000000 -1.000000
  outer loop
   vertex 415.499023 -574.354004 1.368000
   vertex 406.499023 -572.354004 1.368000
   vertex 413.499023 -572.354004 1.368000
  endloop
 endfacet
 facet normal 0.000000 0.000000 -1.000000
  outer loop
   vertex 415.499023 -550.154053 1.368000
   vertex 415.499023 -551.688049 1.368000
   vertex 413.499023 -572.354004 1.368000
  endloop
 endfacet
 facet normal 0.000000 0.000000 -1.000000
  outer loop
   vertex 415.499023 -551.688049 1.368000
   vertex 415.499023 -572.820007 1.368000
   vertex 413.499023 -572.354004 1.368000
  endloop
 endfacet
 facet normal 0.000000 0.000000 -1.000000
  outer loop
   vertex 415.499023 -574.354004 1.368000
   vertex 413.499023 -572.354004 1.368000
   vertex 415.499023 -572.820007 1.368000
  endloop
 endfacet
 facet normal 0.000000 0.000000 -1.000000
  outer loop
   vertex 415.499023 -551.688049 1.368000
   vertex 415.799011 -555.388000 1.368000
   vertex 415.499023 -572.820007 1.368000
  endloop
 endfacet
 facet normal 0.000000 0.000000 -1.000000
  outer loop
   vertex 415.799011 -555.388000 1.368000
   vertex 415.499023 -551.688049 1.368000
   vertex 415.857025 -554.947998 1.368000
  endloop
 endfacet
 facet normal 0.000000 0.000000 -1.000000
  outer loop
   vertex 415.857025 -554.947998 1.368000
   vertex 415.499023 -551.688049 1.368000
   vertex 416.027008 -554.538025 1.368000
  endloop
 endfacet
 facet normal 0.000000 0.000000 -1.000000
  outer loop
   vertex 416.027008 -554.538025 1.368000
   vertex 415.499023 -551.688049 1.368000
   vertex 416.297028 -554.186035 1.368000
  endloop
 endfacet
 facet normal 0.000000 0.000000 -1.000000
  outer loop
   vertex 416.297028 -554.186035 1.368000
   vertex 415.499023 -551.688049 1.368000
   vertex 419.499023 -551.688049 1.368000
  endloop
 endfacet
 facet normal 0.000000 0.000000 -1.000000
  outer loop
   vertex 416.297028 -554.186035 1.368000
   vertex 419.499023 -551.688049 1.368000
   vertex 416.649017 -553.916016 1.368000
  endloop
 endfacet
 facet normal 0.000000 0.000000 -1.000000
  outer loop
   vertex 416.649017 -553.916016 1.368000
   vertex 419.499023 -551.688049 1.368000
   vertex 417.059021 -553.746033 1.368000
  endloop
 endfacet
 facet normal 0.000000 0.000000 -1.000000
  outer loop
   vertex 417.059021 -553.746033 1.368000
   vertex 419.499023 -551.688049 1.368000
   vertex 417.499023 -553.688049 1.368000
  endloop
 endfacet
 facet normal 0.000000 0.000000 -1.000000
  outer loop
   vertex 417.499023 -553.688049 1.368000
   vertex 419.499023 -551.688049 1.368000
   vertex 417.939026 -553.746033 1.368000
  endloop
 endfacet
 facet normal 0.000000 0.000000 -1.000000
  outer loop
   vertex 417.939026 -553.746033 1.368000
   vertex 419.499023 -551.688049 1.368000
   vertex 418.349030 -553.916016 1.368000
  endloop
 endfacet
 facet normal 0.000000 0.000000 -1.000000
  outer loop
   vertex 418.349030 -553.916016 1.368000
   vertex 419.499023 -551.688049 1.368000
   vertex 418.702026 -554.186035 1.368000
  endloop
 endfacet
 facet normal 0.000000 0.000000 -1.000000
  outer loop
   vertex 418.702026 -554.186035 1.368000
   vertex 419.499023 -551.688049 1.368000
   vertex 418.857025 -554.388000 1.368000
  endloop
 endfacet
 facet normal 0.000000 0.000000 -1.000000
  outer loop
   vertex 418.857025 -554.388000 1.368000
   vertex 419.499023 -551.688049 1.368000
   vertex 419.499023 -554.388000 1.368000
  endloop
 endfacet
 facet normal 0.000000 0.000000 -1.000000
  outer loop
   vertex 415.799011 -565.120056 1.368000
   vertex 415.499023 -572.820007 1.368000
   vertex 415.799011 -559.388000 1.368000
  endloop
 endfacet
 facet normal 0.000000 0.000000 -1.000000
  outer loop
   vertex 415.799011 -559.388000 1.368000
   vertex 415.799011 -555.388000 1.368000
   vertex 415.857025 -555.828003 1.368000
  endloop
 endfacet
 facet normal 0.000000 0.000000 -1.000000
  outer loop
   vertex 415.799011 -559.388000 1.368000
   vertex 415.857025 -555.828003 1.368000
   vertex 415.857025 -558.947998 1.368000
  endloop
 endfacet
 facet normal 0.000000 0.000000 -1.000000
  outer loop
   vertex 415.857025 -558.947998 1.368000
   vertex 415.857025 -555.828003 1.368000
   vertex 416.027008 -556.238037 1.368000
  endloop
 endfacet
 facet normal 0.000000 0.000000 -1.000000
  outer loop
   vertex 415.857025 -558.947998 1.368000
   vertex 416.027008 -556.238037 1.368000
   vertex 416.027008 -558.538025 1.368000
  endloop
 endfacet
 facet normal 0.000000 0.000000 -1.000000
  outer loop
   vertex 416.027008 -558.538025 1.368000
   vertex 416.027008 -556.238037 1.368000
   vertex 416.297028 -556.590027 1.368000
  endloop
 endfacet
 facet normal 0.000000 0.000000 -1.000000
  outer loop
   vertex 416.027008 -558.538025 1.368000
   vertex 416.297028 -556.590027 1.368000
   vertex 416.297028 -558.186035 1.368000
  endloop
 endfacet
 facet normal 0.000000 0.000000 -1.000000
  outer loop
   vertex 416.297028 -558.186035 1.368000
   vertex 416.297028 -556.590027 1.368000
   vertex 416.649017 -556.860046 1.368000
  endloop
 endfacet
 facet normal 0.000000 0.000000 -1.000000
  outer loop
   vertex 416.297028 -558.186035 1.368000
   vertex 416.649017 -556.860046 1.368000
   vertex 416.649017 -557.916016 1.368000
  endloop
 endfacet
 facet normal 0.000000 0.000000 -1.000000
  outer loop
   vertex 415.799011 -559.388000 1.368000
   vertex 415.857025 -564.680054 1.368000
   vertex 415.799011 -565.120056 1.368000
  endloop
 endfacet
 facet normal 0.000000 0.000000 -1.000000
  outer loop
   vertex 415.857025 -564.680054 1.368000
   vertex 415.799011 -559.388000 1.368000
   vertex 415.857025 -559.828003 1.368000
  endloop
 endfacet
 facet normal 0.000000 0.000000 -1.000000
  outer loop
   vertex 415.857025 -564.680054 1.368000
   vertex 415.857025 -559.828003 1.368000
   vertex 416.027008 -564.270020 1.368000
  endloop
 endfacet
 facet normal 0.000000 0.000000 -1.000000
  outer loop
   vertex 416.027008 -564.270020 1.368000
   vertex 415.857025 -559.828003 1.368000
   vertex 416.027008 -560.238037 1.368000
  endloop
 endfacet
 facet normal 0.000000 0.000000 -1.000000
  outer loop
   vertex 416.027008 -564.270020 1.368000
   vertex 416.027008 -560.238037 1.368000
   vertex 416.297028 -563.918030 1.368000
  endloop
 endfacet
 facet normal 0.000000 0.000000 -1.000000
  outer loop
   vertex 416.297028 -563.918030 1.368000
   vertex 416.027008 -560.238037 1.368000
   vertex 416.297028 -560.590027 1.368000
  endloop
 endfacet
 facet normal 0.000000 0.000000 -1.000000
  outer loop
   vertex 416.297028 -563.918030 1.368000
   vertex 416.297028 -560.590027 1.368000
   vertex 416.649017 -563.648010 1.368000
  endloop
 endfacet
 facet normal 0.000000 0.000000 -1.000000
  outer loop
   vertex 416.649017 -563.648010 1.368000
   vertex 416.297028 -560.590027 1.368000
   vertex 416.649017 -560.860046 1.368000
  endloop
 endfacet
 facet normal 0.000000 0.000000 -1.000000
  outer loop
   vertex 416.649017 -563.648010 1.368000
   vertex 416.649017 -560.860046 1.368000
   vertex 417.059021 -563.478027 1.368000
  endloop
 endfacet
 facet normal 0.000000 0.000000 -1.000000
  outer loop
   vertex 417.059021 -563.478027 1.368000
   vertex 416.649017 -560.860046 1.368000
   vertex 417.059021 -561.030029 1.368000
  endloop
 endfacet
 facet normal 0.000000 0.000000 -1.000000
  outer loop
   vertex 417.059021 -563.478027 1.368000
   vertex 417.059021 -561.030029 1.368000
   vertex 417.499023 -563.420044 1.368000
  endloop
 endfacet
 facet normal 0.000000 0.000000 -1.000000
  outer loop
   vertex 417.499023 -563.420044 1.368000
   vertex 417.059021 -561.030029 1.368000
   vertex 417.499023 -561.088013 1.368000
  endloop
 endfacet
 facet normal 0.000000 0.000000 -1.000000
  outer loop
   vertex 417.499023 -563.420044 1.368000
   vertex 417.499023 -561.088013 1.368000
   vertex 417.939026 -563.478027 1.368000
  endloop
 endfacet
 facet normal 0.000000 0.000000 -1.000000
  outer loop
   vertex 417.939026 -563.478027 1.368000
   vertex 417.499023 -561.088013 1.368000
   vertex 417.939026 -561.030029 1.368000
  endloop
 endfacet
 facet normal 0.000000 0.000000 -1.000000
  outer loop
   vertex 417.939026 -563.478027 1.368000
   vertex 417.939026 -561.030029 1.368000
   vertex 418.349030 -563.648010 1.368000
  endloop
 endfacet
 facet normal 0.000000 0.000000 -1.000000
  outer loop
   vertex 418.349030 -563.648010 1.368000
   vertex 417.939026 -561.030029 1.368000
   vertex 418.349030 -560.860046 1.368000
  endloop
 endfacet
 facet normal 0.000000 0.000000 -1.000000
  outer loop
   vertex 418.349030 -563.648010 1.368000
   vertex 418.349030 -560.860046 1.368000
   vertex 418.702026 -563.918030 1.368000
  endloop
 endfacet
 facet normal 0.000000 0.000000 -1.000000
  outer loop
   vertex 418.702026 -563.918030 1.368000
   vertex 418.349030 -560.860046 1.368000
   vertex 418.702026 -560.590027 1.368000
  endloop
 endfacet
 facet normal 0.000000 0.000000 -1.000000
  outer loop
   vertex 418.702026 -563.918030 1.368000
   vertex 418.702026 -560.590027 1.368000
   vertex 418.857025 -564.120056 1.368000
  endloop
 endfacet
 facet normal 0.000000 0.000000 -1.000000
  outer loop
   vertex 418.857025 -564.120056 1.368000
   vertex 418.702026 -560.590027 1.368000
   vertex 418.857025 -560.388000 1.368000
  endloop
 endfacet
 facet normal 0.000000 0.000000 -1.000000
  outer loop
   vertex 418.857025 -564.120056 1.368000
   vertex 418.857025 -560.388000 1.368000
   vertex 419.499023 -564.120056 1.368000
  endloop
 endfacet
 facet normal 0.000000 0.000000 -1.000000
  outer loop
   vertex 419.499023 -564.120056 1.368000
   vertex 418.857025 -560.388000 1.368000
   vertex 419.499023 -560.388000 1.368000
  endloop
 endfacet
 facet normal 0.000000 0.000000 -1.000000
  outer loop
   vertex 415.857025 -565.559998 1.368000
   vertex 415.799011 -569.120056 1.368000
   vertex 415.799011 -565.120056 1.368000
  endloop
 endfacet
 facet normal 0.000000 0.000000 -1.000000
  outer loop
   vertex 415.799011 -569.120056 1.368000
   vertex 415.857025 -565.559998 1.368000
   vertex 415.857025 -568.680054 1.368000
  endloop
 endfacet
 facet normal 0.000000 0.000000 -1.000000
  outer loop
   vertex 415.857025 -568.680054 1.368000
   vertex 415.857025 -565.559998 1.368000
   vertex 416.027008 -565.970032 1.368000
  endloop
 endfacet
 facet normal 0.000000 0.000000 -1.000000
  outer loop
   vertex 415.857025 -568.680054 1.368000
   vertex 416.027008 -565.970032 1.368000
   vertex 416.027008 -568.270020 1.368000
  endloop
 endfacet
 facet normal 0.000000 0.000000 -1.000000
  outer loop
   vertex 416.027008 -568.270020 1.368000
   vertex 416.027008 -565.970032 1.368000
   vertex 416.297028 -566.322021 1.368000
  endloop
 endfacet
 facet normal 0.000000 0.000000 -1.000000
  outer loop
   vertex 416.027008 -568.270020 1.368000
   vertex 416.297028 -566.322021 1.368000
   vertex 416.297028 -567.918030 1.368000
  endloop
 endfacet
 facet normal 0.000000 0.000000 -1.000000
  outer loop
   vertex 416.297028 -567.918030 1.368000
   vertex 416.297028 -566.322021 1.368000
   vertex 416.649017 -566.592041 1.368000
  endloop
 endfacet
 facet normal 0.000000 0.000000 -1.000000
  outer loop
   vertex 416.297028 -567.918030 1.368000
   vertex 416.649017 -566.592041 1.368000
   vertex 416.649017 -567.648010 1.368000
  endloop
 endfacet
 facet normal 0.000000 0.000000 -1.000000
  outer loop
   vertex 415.499023 -572.820007 1.368000
   vertex 416.297028 -570.322021 1.368000
   vertex 419.499023 -572.820007 1.368000
  endloop
 endfacet
 facet normal 0.000000 0.000000 -1.000000
  outer loop
   vertex 416.297028 -570.322021 1.368000
   vertex 415.499023 -572.820007 1.368000
   vertex 416.027008 -569.970032 1.368000
  endloop
 endfacet
 facet normal 0.000000 0.000000 -1.000000
  outer loop
   vertex 416.027008 -569.970032 1.368000
   vertex 415.499023 -572.820007 1.368000
   vertex 415.857025 -569.559998 1.368000
  endloop
 endfacet
 facet normal 0.000000 0.000000 -1.000000
  outer loop
   vertex 415.857025 -569.559998 1.368000
   vertex 415.499023 -572.820007 1.368000
   vertex 415.799011 -569.120056 1.368000
  endloop
 endfacet
 facet normal 0.000000 0.000000 -1.000000
  outer loop
   vertex 415.799011 -569.120056 1.368000
   vertex 415.499023 -572.820007 1.368000
   vertex 415.799011 -565.120056 1.368000
  endloop
 endfacet
 facet normal 0.000000 0.000000 -1.000000
  outer loop
   vertex 415.799011 -555.388000 1.368000
   vertex 415.799011 -559.388000 1.368000
   vertex 415.499023 -572.820007 1.368000
  endloop
 endfacet
 facet normal 0.000000 0.000000 -1.000000
  outer loop
   vertex 419.499023 -572.820007 1.368000
   vertex 416.297028 -570.322021 1.368000
   vertex 416.649017 -570.592041 1.368000
  endloop
 endfacet
 facet normal 0.000000 0.000000 -1.000000
  outer loop
   vertex 419.499023 -572.820007 1.368000
   vertex 416.649017 -570.592041 1.368000
   vertex 417.059021 -570.762024 1.368000
  endloop
 endfacet
 facet normal 0.000000 0.000000 -1.000000
  outer loop
   vertex 419.499023 -572.820007 1.368000
   vertex 417.059021 -570.762024 1.368000
   vertex 417.499023 -570.820007 1.368000
  endloop
 endfacet
 facet normal 0.000000 0.000000 -1.000000
  outer loop
   vertex 419.499023 -572.820007 1.368000
   vertex 417.499023 -570.820007 1.368000
   vertex 417.939026 -570.762024 1.368000
  endloop
 endfacet
 facet normal 0.000000 0.000000 -1.000000
  outer loop
   vertex 419.499023 -572.820007 1.368000
   vertex 417.939026 -570.762024 1.368000
   vertex 418.349030 -570.592041 1.368000
  endloop
 endfacet
 facet normal 0.000000 0.000000 -1.000000
  outer loop
   vertex 419.499023 -572.820007 1.368000
   vertex 418.349030 -570.592041 1.368000
   vertex 418.702026 -570.322021 1.368000
  endloop
 endfacet
 facet normal 0.000000 0.000000 -1.000000
  outer loop
   vertex 419.499023 -572.820007 1.368000
   vertex 418.702026 -570.322021 1.368000
   vertex 418.857025 -570.120056 1.368000
  endloop
 endfacet
 facet normal 0.000000 0.000000 -1.000000
  outer loop
   vertex 419.499023 -572.820007 1.368000
   vertex 418.857025 -570.120056 1.368000
   vertex 419.499023 -570.120056 1.368000
  endloop
 endfacet
 facet normal 0.000000 0.000000 -1.000000
  outer loop
   vertex 406.499023 -554.254028 1.368000
   vertex 404.499023 -552.254028 1.368000
   vertex 406.499023 -552.154053 1.368000
  endloop
 endfacet
 facet normal 0.000000 -1.000000 0.000000
  outer loop
   vertex 419.499023 -564.120056 16.368000
   vertex 418.857025 -564.120056 1.368000
   vertex 419.499023 -564.120056 1.368000
  endloop
 endfacet
 facet normal 0.000000 -1.000000 0.000000
  outer loop
   vertex 418.857025 -564.120056 1.368000
   vertex 419.499023 -564.120056 16.368000
   vertex 418.857025 -564.120056 16.368000
  endloop
 endfacet
 facet normal 0.991417 0.130736 0.000000
  outer loop
   vertex 415.799011 -569.120056 1.368000
   vertex 415.857025 -569.559998 16.368000
   vertex 415.857025 -569.559998 1.368000
  endloop
 endfacet
 facet normal 0.991417 0.130736 0.000000
  outer loop
   vertex 415.857025 -569.559998 16.368000
   vertex 415.799011 -569.120056 1.368000
   vertex 415.799011 -569.120056 16.368000
  endloop
 endfacet
 facet normal 0.608660 -0.793431 0.000000
  outer loop
   vertex 416.649017 -563.648010 16.368000
   vertex 416.297028 -563.918030 1.368000
   vertex 416.649017 -563.648010 1.368000
  endloop
 endfacet
 facet normal 0.608660 -0.793431 0.000000
  outer loop
   vertex 416.297028 -563.918030 1.368000
   vertex 416.649017 -563.648010 16.368000
   vertex 416.297028 -563.918030 16.368000
  endloop
 endfacet
 facet normal 0.793431 0.608660 0.000000
  outer loop
   vertex 416.027008 -569.970032 1.368000
   vertex 416.297028 -570.322021 16.368000
   vertex 416.297028 -570.322021 1.368000
  endloop
 endfacet
 facet normal 0.793431 0.608660 0.000000
  outer loop
   vertex 416.297028 -570.322021 16.368000
   vertex 416.027008 -569.970032 1.368000
   vertex 416.027008 -569.970032 16.368000
  endloop
 endfacet
 facet normal 0.923767 0.382955 0.000000
  outer loop
   vertex 416.027008 -565.970032 1.368000
   vertex 415.857025 -565.559998 16.368000
   vertex 416.027008 -565.970032 16.368000
  endloop
 endfacet
 facet normal 0.923767 0.382955 0.000000
  outer loop
   vertex 415.857025 -565.559998 16.368000
   vertex 416.027008 -565.970032 1.368000
   vertex 415.857025 -565.559998 1.368000
  endloop
 endfacet
 facet normal 1.000000 0.000000 0.000000
  outer loop
   vertex 416.649017 -566.592041 1.368000
   vertex 416.649017 -567.648010 16.368000
   vertex 416.649017 -567.648010 1.368000
  endloop
 endfacet
 facet normal 1.000000 0.000000 0.000000
  outer loop
   vertex 416.649017 -567.648010 16.368000
   vertex 416.649017 -566.592041 1.368000
   vertex 416.649017 -566.592041 16.368000
  endloop
 endfacet
 facet normal 1.000000 0.000000 0.000000
  outer loop
   vertex 419.499023 -570.120056 1.368000
   vertex 419.499023 -572.820007 16.368000
   vertex 419.499023 -572.820007 1.368000
  endloop
 endfacet
 facet normal 1.000000 0.000000 0.000000
  outer loop
   vertex 419.499023 -572.820007 16.368000
   vertex 419.499023 -570.120056 1.368000
   vertex 419.499023 -570.120056 16.368000
  endloop
 endfacet
 facet normal 0.923767 -0.382955 0.000000
  outer loop
   vertex 415.857025 -564.680054 1.368000
   vertex 416.027008 -564.270020 16.368000
   vertex 415.857025 -564.680054 16.368000
  endloop
 endfacet
 facet normal 0.923767 -0.382955 0.000000
  outer loop
   vertex 416.027008 -564.270020 16.368000
   vertex 415.857025 -564.680054 1.368000
   vertex 416.027008 -564.270020 1.368000
  endloop
 endfacet
 facet normal -0.382979 -0.923757 0.000000
  outer loop
   vertex 418.349030 -563.648010 16.368000
   vertex 417.939026 -563.478027 1.368000
   vertex 418.349030 -563.648010 1.368000
  endloop
 endfacet
 facet normal -0.382979 -0.923757 0.000000
  outer loop
   vertex 417.939026 -563.478027 1.368000
   vertex 418.349030 -563.648010 16.368000
   vertex 417.939026 -563.478027 16.368000
  endloop
 endfacet
 facet normal 0.608660 0.793431 0.000000
  outer loop
   vertex 416.297028 -570.322021 16.368000
   vertex 416.649017 -570.592041 1.368000
   vertex 416.297028 -570.322021 1.368000
  endloop
 endfacet
 facet normal 0.608660 0.793431 0.000000
  outer loop
   vertex 416.649017 -570.592041 1.368000
   vertex 416.297028 -570.322021 16.368000
   vertex 416.649017 -570.592041 16.368000
  endloop
 endfacet
 facet normal 0.608660 -0.793431 0.000000
  outer loop
   vertex 416.649017 -567.648010 16.368000
   vertex 416.297028 -567.918030 1.368000
   vertex 416.649017 -567.648010 1.368000
  endloop
 endfacet
 facet normal 0.608660 -0.793431 0.000000
  outer loop
   vertex 416.297028 -567.918030 1.368000
   vertex 416.649017 -567.648010 16.368000
   vertex 416.297028 -567.918030 16.368000
  endloop
 endfacet
 facet normal -0.793394 -0.608708 0.000000
  outer loop
   vertex 418.702026 -563.918030 16.368000
   vertex 418.857025 -564.120056 1.368000
   vertex 418.857025 -564.120056 16.368000
  endloop
 endfacet
 facet normal -0.793394 -0.608708 0.000000
  outer loop
   vertex 418.857025 -564.120056 1.368000
   vertex 418.702026 -563.918030 16.368000
   vertex 418.702026 -563.918030 1.368000
  endloop
 endfacet
 facet normal 0.991420 -0.130718 0.000000
  outer loop
   vertex 415.857025 -568.680054 1.368000
   vertex 415.799011 -569.120056 16.368000
   vertex 415.799011 -569.120056 1.368000
  endloop
 endfacet
 facet normal 0.991420 -0.130718 0.000000
  outer loop
   vertex 415.799011 -569.120056 16.368000
   vertex 415.857025 -568.680054 1.368000
   vertex 415.857025 -568.680054 16.368000
  endloop
 endfacet
 facet normal 0.923767 -0.382955 0.000000
  outer loop
   vertex 416.027008 -568.270020 1.368000
   vertex 415.857025 -568.680054 16.368000
   vertex 415.857025 -568.680054 1.368000
  endloop
 endfacet
 facet normal 0.923767 -0.382955 0.000000
  outer loop
   vertex 415.857025 -568.680054 16.368000
   vertex 416.027008 -568.270020 1.368000
   vertex 416.027008 -568.270020 16.368000
  endloop
 endfacet
 facet normal 0.130650 0.991429 0.000000
  outer loop
   vertex 417.059021 -570.762024 16.368000
   vertex 417.499023 -570.820007 1.368000
   vertex 417.059021 -570.762024 1.368000
  endloop
 endfacet
 facet normal 0.130650 0.991429 0.000000
  outer loop
   vertex 417.499023 -570.820007 1.368000
   vertex 417.059021 -570.762024 16.368000
   vertex 417.499023 -570.820007 16.368000
  endloop
 endfacet
 facet normal 0.793431 0.608660 0.000000
  outer loop
   vertex 416.297028 -566.322021 1.368000
   vertex 416.027008 -565.970032 16.368000
   vertex 416.297028 -566.322021 16.368000
  endloop
 endfacet
 facet normal 0.793431 0.608660 0.000000
  outer loop
   vertex 416.027008 -565.970032 16.368000
   vertex 416.297028 -566.322021 1.368000
   vertex 416.027008 -565.970032 1.368000
  endloop
 endfacet
 facet normal -0.130650 0.991429 0.000000
  outer loop
   vertex 417.499023 -570.820007 16.368000
   vertex 417.939026 -570.762024 1.368000
   vertex 417.499023 -570.820007 1.368000
  endloop
 endfacet
 facet normal -0.130650 0.991429 0.000000
  outer loop
   vertex 417.939026 -570.762024 1.368000
   vertex 417.499023 -570.820007 16.368000
   vertex 417.939026 -570.762024 16.368000
  endloop
 endfacet
 facet normal 0.793431 -0.608660 0.000000
  outer loop
   vertex 416.297028 -567.918030 1.368000
   vertex 416.027008 -568.270020 16.368000
   vertex 416.027008 -568.270020 1.368000
  endloop
 endfacet
 facet normal 0.793431 -0.608660 0.000000
  outer loop
   vertex 416.027008 -568.270020 16.368000
   vertex 416.297028 -567.918030 1.368000
   vertex 416.297028 -567.918030 16.368000
  endloop
 endfacet
 facet normal 0.923767 0.382955 0.000000
  outer loop
   vertex 415.857025 -569.559998 1.368000
   vertex 416.027008 -569.970032 16.368000
   vertex 416.027008 -569.970032 1.368000
  endloop
 endfacet
 facet normal 0.923767 0.382955 0.000000
  outer loop
   vertex 416.027008 -569.970032 16.368000
   vertex 415.857025 -569.559998 1.368000
   vertex 415.857025 -569.559998 16.368000
  endloop
 endfacet
 facet normal -0.130650 -0.991429 0.000000
  outer loop
   vertex 417.939026 -563.478027 16.368000
   vertex 417.499023 -563.420044 1.368000
   vertex 417.939026 -563.478027 1.368000
  endloop
 endfacet
 facet normal -0.130650 -0.991429 0.000000
  outer loop
   vertex 417.499023 -563.420044 1.368000
   vertex 417.939026 -563.478027 16.368000
   vertex 417.499023 -563.420044 16.368000
  endloop
 endfacet
 facet normal -0.793305 0.608824 0.000000
  outer loop
   vertex 418.702026 -570.322021 16.368000
   vertex 418.857025 -570.120056 1.368000
   vertex 418.702026 -570.322021 1.368000
  endloop
 endfacet
 facet normal -0.793305 0.608824 0.000000
  outer loop
   vertex 418.857025 -570.120056 1.368000
   vertex 418.702026 -570.322021 16.368000
   vertex 418.857025 -570.120056 16.368000
  endloop
 endfacet
 facet normal 0.382979 -0.923757 0.000000
  outer loop
   vertex 417.059021 -563.478027 16.368000
   vertex 416.649017 -563.648010 1.368000
   vertex 417.059021 -563.478027 1.368000
  endloop
 endfacet
 facet normal 0.382979 -0.923757 0.000000
  outer loop
   vertex 416.649017 -563.648010 1.368000
   vertex 417.059021 -563.478027 16.368000
   vertex 416.649017 -563.648010 16.368000
  endloop
 endfacet
 facet normal -0.607565 -0.794270 0.000000
  outer loop
   vertex 418.702026 -563.918030 16.368000
   vertex 418.349030 -563.648010 1.368000
   vertex 418.702026 -563.918030 1.368000
  endloop
 endfacet
 facet normal -0.607565 -0.794270 0.000000
  outer loop
   vertex 418.349030 -563.648010 1.368000
   vertex 418.702026 -563.918030 16.368000
   vertex 418.349030 -563.648010 16.368000
  endloop
 endfacet
 facet normal 0.608660 0.793431 0.000000
  outer loop
   vertex 416.297028 -566.322021 16.368000
   vertex 416.649017 -566.592041 1.368000
   vertex 416.297028 -566.322021 1.368000
  endloop
 endfacet
 facet normal 0.608660 0.793431 0.000000
  outer loop
   vertex 416.649017 -566.592041 1.368000
   vertex 416.297028 -566.322021 16.368000
   vertex 416.649017 -566.592041 16.368000
  endloop
 endfacet
 facet normal -0.607565 0.794270 0.000000
  outer loop
   vertex 418.349030 -570.592041 16.368000
   vertex 418.702026 -570.322021 1.368000
   vertex 418.349030 -570.592041 1.368000
  endloop
 endfacet
 facet normal -0.607565 0.794270 0.000000
  outer loop
   vertex 418.702026 -570.322021 1.368000
   vertex 418.349030 -570.592041 16.368000
   vertex 418.702026 -570.322021 16.368000
  endloop
 endfacet
 facet normal 0.991417 0.130736 0.000000
  outer loop
   vertex 415.857025 -565.559998 1.368000
   vertex 415.799011 -565.120056 16.368000
   vertex 415.857025 -565.559998 16.368000
  endloop
 endfacet
 facet normal 0.991417 0.130736 0.000000
  outer loop
   vertex 415.799011 -565.120056 16.368000
   vertex 415.857025 -565.559998 1.368000
   vertex 415.799011 -565.120056 1.368000
  endloop
 endfacet
 facet normal 0.130650 -0.991429 0.000000
  outer loop
   vertex 417.499023 -563.420044 16.368000
   vertex 417.059021 -563.478027 1.368000
   vertex 417.499023 -563.420044 1.368000
  endloop
 endfacet
 facet normal 0.130650 -0.991429 0.000000
  outer loop
   vertex 417.059021 -563.478027 1.368000
   vertex 417.499023 -563.420044 16.368000
   vertex 417.059021 -563.478027 16.368000
  endloop
 endfacet
 facet normal 1.000000 0.000000 0.000000
  outer loop
   vertex 416.649017 -556.860046 1.368000
   vertex 416.649017 -557.916016 16.368000
   vertex 416.649017 -557.916016 1.368000
  endloop
 endfacet
 facet normal 1.000000 0.000000 0.000000
  outer loop
   vertex 416.649017 -557.916016 16.368000
   vertex 416.649017 -556.860046 1.368000
   vertex 416.649017 -556.860046 16.368000
  endloop
 endfacet
 facet normal 0.991420 -0.130718 0.000000
  outer loop
   vertex 415.799011 -555.388000 1.368000
   vertex 415.857025 -554.947998 16.368000
   vertex 415.799011 -555.388000 16.368000
  endloop
 endfacet
 facet normal 0.991420 -0.130718 0.000000
  outer loop
   vertex 415.857025 -554.947998 16.368000
   vertex 415.799011 -555.388000 1.368000
   vertex 415.857025 -554.947998 1.368000
  endloop
 endfacet
 facet normal -0.130650 -0.991429 0.000000
  outer loop
   vertex 417.939026 -553.746033 16.368000
   vertex 417.499023 -553.688049 1.368000
   vertex 417.939026 -553.746033 1.368000
  endloop
 endfacet
 facet normal -0.130650 -0.991429 0.000000
  outer loop
   vertex 417.499023 -553.688049 1.368000
   vertex 417.939026 -553.746033 16.368000
   vertex 417.499023 -553.688049 16.368000
  endloop
 endfacet
 facet normal 0.793431 -0.608660 0.000000
  outer loop
   vertex 416.027008 -554.538025 1.368000
   vertex 416.297028 -554.186035 16.368000
   vertex 416.027008 -554.538025 16.368000
  endloop
 endfacet
 facet normal 0.793431 -0.608660 0.000000
  outer loop
   vertex 416.297028 -554.186035 16.368000
   vertex 416.027008 -554.538025 1.368000
   vertex 416.297028 -554.186035 1.368000
  endloop
 endfacet
 facet normal 0.608660 -0.793431 0.000000
  outer loop
   vertex 416.649017 -553.916016 16.368000
   vertex 416.297028 -554.186035 1.368000
   vertex 416.649017 -553.916016 1.368000
  endloop
 endfacet
 facet normal 0.608660 -0.793431 0.000000
  outer loop
   vertex 416.297028 -554.186035 1.368000
   vertex 416.649017 -553.916016 16.368000
   vertex 416.297028 -554.186035 16.368000
  endloop
 endfacet
 facet normal 0.000000 -1.000000 0.000000
  outer loop
   vertex 419.499023 -554.388000 16.368000
   vertex 418.857025 -554.388000 1.368000
   vertex 419.499023 -554.388000 1.368000
  endloop
 endfacet
 facet normal 0.000000 -1.000000 0.000000
  outer loop
   vertex 418.857025 -554.388000 1.368000
   vertex 419.499023 -554.388000 16.368000
   vertex 418.857025 -554.388000 16.368000
  endloop
 endfacet
 facet normal 0.382979 -0.923757 0.000000
  outer loop
   vertex 417.059021 -553.746033 16.368000
   vertex 416.649017 -553.916016 1.368000
   vertex 417.059021 -553.746033 1.368000
  endloop
 endfacet
 facet normal 0.382979 -0.923757 0.000000
  outer loop
   vertex 416.649017 -553.916016 1.368000
   vertex 417.059021 -553.746033 16.368000
   vertex 416.649017 -553.916016 16.368000
  endloop
 endfacet
 facet normal 0.923747 -0.383004 0.000000
  outer loop
   vertex 415.857025 -554.947998 1.368000
   vertex 416.027008 -554.538025 16.368000
   vertex 415.857025 -554.947998 16.368000
  endloop
 endfacet
 facet normal 0.923747 -0.383004 0.000000
  outer loop
   vertex 416.027008 -554.538025 16.368000
   vertex 415.857025 -554.947998 1.368000
   vertex 416.027008 -554.538025 1.368000
  endloop
 endfacet
 facet normal 1.000000 0.000000 0.000000
  outer loop
   vertex 419.499023 -554.388000 1.368000
   vertex 419.499023 -551.688049 16.368000
   vertex 419.499023 -554.388000 16.368000
  endloop
 endfacet
 facet normal 1.000000 0.000000 0.000000
  outer loop
   vertex 419.499023 -551.688049 16.368000
   vertex 419.499023 -554.388000 1.368000
   vertex 419.499023 -551.688049 1.368000
  endloop
 endfacet
 facet normal -0.382979 -0.923757 0.000000
  outer loop
   vertex 418.349030 -553.916016 16.368000
   vertex 417.939026 -553.746033 1.368000
   vertex 418.349030 -553.916016 1.368000
  endloop
 endfacet
 facet normal -0.382979 -0.923757 0.000000
  outer loop
   vertex 417.939026 -553.746033 1.368000
   vertex 418.349030 -553.916016 16.368000
   vertex 417.939026 -553.746033 16.368000
  endloop
 endfacet
 facet normal -0.607565 -0.794270 0.000000
  outer loop
   vertex 418.702026 -554.186035 16.368000
   vertex 418.349030 -553.916016 1.368000
   vertex 418.702026 -554.186035 1.368000
  endloop
 endfacet
 facet normal -0.607565 -0.794270 0.000000
  outer loop
   vertex 418.349030 -553.916016 1.368000
   vertex 418.702026 -554.186035 16.368000
   vertex 418.349030 -553.916016 16.368000
  endloop
 endfacet
 facet normal -0.793305 -0.608824 0.000000
  outer loop
   vertex 418.702026 -554.186035 16.368000
   vertex 418.857025 -554.388000 1.368000
   vertex 418.857025 -554.388000 16.368000
  endloop
 endfacet
 facet normal -0.793305 -0.608824 0.000000
  outer loop
   vertex 418.857025 -554.388000 1.368000
   vertex 418.702026 -554.186035 16.368000
   vertex 418.702026 -554.186035 1.368000
  endloop
 endfacet
 facet normal 0.608660 -0.793431 0.000000
  outer loop
   vertex 416.649017 -557.916016 16.368000
   vertex 416.297028 -558.186035 1.368000
   vertex 416.649017 -557.916016 1.368000
  endloop
 endfacet
 facet normal 0.608660 -0.793431 0.000000
  outer loop
   vertex 416.297028 -558.186035 1.368000
   vertex 416.649017 -557.916016 16.368000
   vertex 416.297028 -558.186035 16.368000
  endloop
 endfacet
 facet normal 0.991420 0.130718 0.000000
  outer loop
   vertex 415.799011 -559.388000 1.368000
   vertex 415.857025 -559.828003 16.368000
   vertex 415.857025 -559.828003 1.368000
  endloop
 endfacet
 facet normal 0.991420 0.130718 0.000000
  outer loop
   vertex 415.857025 -559.828003 16.368000
   vertex 415.799011 -559.388000 1.368000
   vertex 415.799011 -559.388000 16.368000
  endloop
 endfacet
 facet normal -0.382979 0.923757 0.000000
  outer loop
   vertex 417.939026 -561.030029 16.368000
   vertex 418.349030 -560.860046 1.368000
   vertex 417.939026 -561.030029 1.368000
  endloop
 endfacet
 facet normal -0.382979 0.923757 0.000000
  outer loop
   vertex 418.349030 -560.860046 1.368000
   vertex 417.939026 -561.030029 16.368000
   vertex 418.349030 -560.860046 16.368000
  endloop
 endfacet
 facet normal 0.991420 -0.130718 0.000000
  outer loop
   vertex 415.857025 -558.947998 1.368000
   vertex 415.799011 -559.388000 16.368000
   vertex 415.799011 -559.388000 1.368000
  endloop
 endfacet
 facet normal 0.991420 -0.130718 0.000000
  outer loop
   vertex 415.799011 -559.388000 16.368000
   vertex 415.857025 -558.947998 1.368000
   vertex 415.857025 -558.947998 16.368000
  endloop
 endfacet
 facet normal 0.130650 0.991429 0.000000
  outer loop
   vertex 417.059021 -561.030029 16.368000
   vertex 417.499023 -561.088013 1.368000
   vertex 417.059021 -561.030029 1.368000
  endloop
 endfacet
 facet normal 0.130650 0.991429 0.000000
  outer loop
   vertex 417.499023 -561.088013 1.368000
   vertex 417.059021 -561.030029 16.368000
   vertex 417.499023 -561.088013 16.368000
  endloop
 endfacet
 facet normal 0.923747 -0.383004 0.000000
  outer loop
   vertex 416.027008 -558.538025 1.368000
   vertex 415.857025 -558.947998 16.368000
   vertex 415.857025 -558.947998 1.368000
  endloop
 endfacet
 facet normal 0.923747 -0.383004 0.000000
  outer loop
   vertex 415.857025 -558.947998 16.368000
   vertex 416.027008 -558.538025 1.368000
   vertex 416.027008 -558.538025 16.368000
  endloop
 endfacet
 facet normal 0.793431 -0.608660 0.000000
  outer loop
   vertex 416.297028 -558.186035 1.368000
   vertex 416.027008 -558.538025 16.368000
   vertex 416.027008 -558.538025 1.368000
  endloop
 endfacet
 facet normal 0.793431 -0.608660 0.000000
  outer loop
   vertex 416.027008 -558.538025 16.368000
   vertex 416.297028 -558.186035 1.368000
   vertex 416.297028 -558.186035 16.368000
  endloop
 endfacet
 facet normal -0.130650 0.991429 0.000000
  outer loop
   vertex 417.499023 -561.088013 16.368000
   vertex 417.939026 -561.030029 1.368000
   vertex 417.499023 -561.088013 1.368000
  endloop
 endfacet
 facet normal -0.130650 0.991429 0.000000
  outer loop
   vertex 417.939026 -561.030029 1.368000
   vertex 417.499023 -561.088013 16.368000
   vertex 417.939026 -561.030029 16.368000
  endloop
 endfacet
 facet normal -0.793394 0.608708 0.000000
  outer loop
   vertex 418.702026 -560.590027 16.368000
   vertex 418.857025 -560.388000 1.368000
   vertex 418.702026 -560.590027 1.368000
  endloop
 endfacet
 facet normal -0.793394 0.608708 0.000000
  outer loop
   vertex 418.857025 -560.388000 1.368000
   vertex 418.702026 -560.590027 16.368000
   vertex 418.857025 -560.388000 16.368000
  endloop
 endfacet
 facet normal 1.000000 0.000000 0.000000
  outer loop
   vertex 419.499023 -564.120056 1.368000
   vertex 419.499023 -560.388000 16.368000
   vertex 419.499023 -564.120056 16.368000
  endloop
 endfacet
 facet normal 1.000000 0.000000 0.000000
  outer loop
   vertex 419.499023 -560.388000 16.368000
   vertex 419.499023 -564.120056 1.368000
   vertex 419.499023 -560.388000 1.368000
  endloop
 endfacet
 facet normal 0.000000 1.000000 0.000000
  outer loop
   vertex 418.857025 -560.388000 16.368000
   vertex 419.499023 -560.388000 1.368000
   vertex 418.857025 -560.388000 1.368000
  endloop
 endfacet
 facet normal 0.000000 1.000000 0.000000
  outer loop
   vertex 419.499023 -560.388000 1.368000
   vertex 418.857025 -560.388000 16.368000
   vertex 419.499023 -560.388000 16.368000
  endloop
 endfacet
 facet normal -0.607565 0.794270 0.000000
  outer loop
   vertex 418.349030 -560.860046 16.368000
   vertex 418.702026 -560.590027 1.368000
   vertex 418.349030 -560.860046 1.368000
  endloop
 endfacet
 facet normal -0.607565 0.794270 0.000000
  outer loop
   vertex 418.702026 -560.590027 1.368000
   vertex 418.349030 -560.860046 16.368000
   vertex 418.702026 -560.590027 16.368000
  endloop
 endfacet
 facet normal 0.382979 0.923757 0.000000
  outer loop
   vertex 416.649017 -560.860046 16.368000
   vertex 417.059021 -561.030029 1.368000
   vertex 416.649017 -560.860046 1.368000
  endloop
 endfacet
 facet normal 0.382979 0.923757 0.000000
  outer loop
   vertex 417.059021 -561.030029 1.368000
   vertex 416.649017 -560.860046 16.368000
   vertex 417.059021 -561.030029 16.368000
  endloop
 endfacet
 facet normal 0.608660 0.793431 0.000000
  outer loop
   vertex 416.297028 -560.590027 16.368000
   vertex 416.649017 -560.860046 1.368000
   vertex 416.297028 -560.590027 1.368000
  endloop
 endfacet
 facet normal 0.608660 0.793431 0.000000
  outer loop
   vertex 416.649017 -560.860046 1.368000
   vertex 416.297028 -560.590027 16.368000
   vertex 416.649017 -560.860046 16.368000
  endloop
 endfacet
 facet normal 0.923767 0.382955 0.000000
  outer loop
   vertex 415.857025 -559.828003 1.368000
   vertex 416.027008 -560.238037 16.368000
   vertex 416.027008 -560.238037 1.368000
  endloop
 endfacet
 facet normal 0.923767 0.382955 0.000000
  outer loop
   vertex 416.027008 -560.238037 16.368000
   vertex 415.857025 -559.828003 1.368000
   vertex 415.857025 -559.828003 16.368000
  endloop
 endfacet
 facet normal 0.793431 0.608660 0.000000
  outer loop
   vertex 416.027008 -560.238037 1.368000
   vertex 416.297028 -560.590027 16.368000
   vertex 416.297028 -560.590027 1.368000
  endloop
 endfacet
 facet normal 0.793431 0.608660 0.000000
  outer loop
   vertex 416.297028 -560.590027 16.368000
   vertex 416.027008 -560.238037 1.368000
   vertex 416.027008 -560.238037 16.368000
  endloop
 endfacet
 facet normal 0.793431 0.608660 0.000000
  outer loop
   vertex 416.297028 -556.590027 1.368000
   vertex 416.027008 -556.238037 16.368000
   vertex 416.297028 -556.590027 16.368000
  endloop
 endfacet
 facet normal 0.793431 0.608660 0.000000
  outer loop
   vertex 416.027008 -556.238037 16.368000
   vertex 416.297028 -556.590027 1.368000
   vertex 416.027008 -556.238037 1.368000
  endloop
 endfacet
 facet normal 0.991420 0.130718 0.000000
  outer loop
   vertex 415.857025 -555.828003 1.368000
   vertex 415.799011 -555.388000 16.368000
   vertex 415.857025 -555.828003 16.368000
  endloop
 endfacet
 facet normal 0.991420 0.130718 0.000000
  outer loop
   vertex 415.799011 -555.388000 16.368000
   vertex 415.857025 -555.828003 1.368000
   vertex 415.799011 -555.388000 1.368000
  endloop
 endfacet
 facet normal 0.608660 0.793431 0.000000
  outer loop
   vertex 416.297028 -556.590027 16.368000
   vertex 416.649017 -556.860046 1.368000
   vertex 416.297028 -556.590027 1.368000
  endloop
 endfacet
 facet normal 0.608660 0.793431 0.000000
  outer loop
   vertex 416.649017 -556.860046 1.368000
   vertex 416.297028 -556.590027 16.368000
   vertex 416.649017 -556.860046 16.368000
  endloop
 endfacet
 facet normal 0.130650 -0.991429 0.000000
  outer loop
   vertex 417.499023 -553.688049 16.368000
   vertex 417.059021 -553.746033 1.368000
   vertex 417.499023 -553.688049 1.368000
  endloop
 endfacet
 facet normal 0.130650 -0.991429 0.000000
  outer loop
   vertex 417.059021 -553.746033 1.368000
   vertex 417.499023 -553.688049 16.368000
   vertex 417.059021 -553.746033 16.368000
  endloop
 endfacet
 facet normal 0.923767 0.382955 0.000000
  outer loop
   vertex 416.027008 -556.238037 1.368000
   vertex 415.857025 -555.828003 16.368000
   vertex 416.027008 -556.238037 16.368000
  endloop
 endfacet
 facet normal 0.923767 0.382955 0.000000
  outer loop
   vertex 415.857025 -555.828003 16.368000
   vertex 416.027008 -556.238037 1.368000
   vertex 415.857025 -555.828003 1.368000
  endloop
 endfacet
endsolid Wire Clip Half With Wire (repaired)
