solid Main Design
facet normal 0.130526192220052 -0.99144486137381 1.6190212533297e-015
outer loop
vertex 302.597180223598 796.565187485009 162.573857161732
vertex 298.456075501958 796.020000705634 164.573857161732
vertex 298.456075501958 796.020000705634 162.573857161732
endloop
endfacet
facet normal 0.130526192220052 -0.99144486137381 1.6190212533297e-015
outer loop
vertex 298.456075501958 796.020000705634 164.573857161732
vertex 302.597180223598 796.565187485009 162.573857161732
vertex 302.597180223598 796.565187485009 164.573857161732
endloop
endfacet
facet normal -0.130526192220051 -0.99144486137381 -1.61902125332969e-015
outer loop
vertex 298.456075501958 796.020000705634 162.573857161732
vertex 294.314970780318 796.565187485009 164.573857161732
vertex 294.314970780318 796.565187485009 162.573857161732
endloop
endfacet
facet normal -0.130526192220051 -0.99144486137381 -1.61902125332969e-015
outer loop
vertex 294.314970780318 796.565187485009 164.573857161732
vertex 298.456075501958 796.020000705634 162.573857161732
vertex 298.456075501958 796.020000705634 164.573857161732
endloop
endfacet
facet normal -0.382683432365082 -0.92387953251129 -4.74673013713368e-015
outer loop
vertex 294.314970780318 796.565187485009 162.573857161732
vertex 290.456075501958 798.163594245083 164.573857161732
vertex 290.456075501958 798.163594245083 162.573857161732
endloop
endfacet
facet normal -0.382683432365082 -0.92387953251129 -4.74673013713368e-015
outer loop
vertex 290.456075501958 798.163594245083 164.573857161732
vertex 294.314970780318 796.565187485009 162.573857161732
vertex 294.314970780318 796.565187485009 164.573857161732
endloop
endfacet
facet normal -1.24038036028831e-014 0.0 1.0
outer loop
vertex 302.597180223598 796.565187485009 164.573857161732
vertex 294.314970780318 796.565187485009 164.573857161732
vertex 298.456075501958 796.020000705634 164.573857161732
endloop
endfacet
facet normal -1.24038036028831e-014 0.0 1.0
outer loop
vertex 294.314970780318 796.565187485009 164.573857161732
vertex 302.597180223598 796.565187485009 164.573857161732
vertex 306.456075501958 798.163594245083 164.573857161732
endloop
endfacet
facet normal -1.24038036028831e-014 0.0 1.0
outer loop
vertex 294.314970780318 796.565187485009 164.573857161732
vertex 306.456075501958 798.163594245083 164.573857161732
vertex 290.456075501958 798.163594245083 164.573857161732
endloop
endfacet
facet normal -1.24038036028831e-014 0.0 1.0
outer loop
vertex 290.456075501958 798.163594245083 164.573857161732
vertex 306.456075501958 798.163594245083 164.573857161732
vertex 309.769784000943 800.70629220665 164.573857161732
endloop
endfacet
facet normal -1.24038036028831e-014 0.0 1.0
outer loop
vertex 290.456075501958 798.163594245083 164.573857161732
vertex 309.769784000943 800.70629220665 164.573857161732
vertex 287.142367002973 800.70629220665 164.573857161732
endloop
endfacet
facet normal -1.24038036028831e-014 0.0 1.0
outer loop
vertex 287.142367002973 800.70629220665 164.573857161732
vertex 309.769784000943 800.70629220665 164.573857161732
vertex 312.312481962509 804.020000705634 164.573857161732
endloop
endfacet
facet normal -1.24038036028831e-014 0.0 1.0
outer loop
vertex 287.142367002973 800.70629220665 164.573857161732
vertex 312.312481962509 804.020000705634 164.573857161732
vertex 284.599669041407 804.020000705634 164.573857161732
endloop
endfacet
facet normal -1.24038036028831e-014 0.0 1.0
outer loop
vertex 284.599669041407 804.020000705634 164.573857161732
vertex 312.312481962509 804.020000705634 164.573857161732
vertex 298.456075501958 805.520000705634 164.573857161732
endloop
endfacet
facet normal -1.24038036028831e-014 0.0 1.0
outer loop
vertex 298.456075501958 805.520000705634 164.573857161732
vertex 312.312481962509 804.020000705634 164.573857161732
vertex 300.138399295124 805.741482834755 164.573857161732
endloop
endfacet
facet normal -1.24038036028831e-014 0.0 1.0
outer loop
vertex 300.138399295124 805.741482834755 164.573857161732
vertex 312.312481962509 804.020000705634 164.573857161732
vertex 313.910888722583 807.878895983994 164.573857161732
endloop
endfacet
facet normal -1.24038036028831e-014 0.0 1.0
outer loop
vertex 300.138399295124 805.741482834755 164.573857161732
vertex 313.910888722583 807.878895983994 164.573857161732
vertex 301.706075501958 806.390835581035 164.573857161732
endloop
endfacet
facet normal -1.24038036028831e-014 0.0 1.0
outer loop
vertex 301.706075501958 806.390835581035 164.573857161732
vertex 313.910888722583 807.878895983994 164.573857161732
vertex 303.052269579671 807.423806627922 164.573857161732
endloop
endfacet
facet normal -1.24038036028831e-014 0.0 1.0
outer loop
vertex 303.052269579671 807.423806627922 164.573857161732
vertex 313.910888722583 807.878895983994 164.573857161732
vertex 304.085240626557 808.770000705635 164.573857161732
endloop
endfacet
facet normal -1.24038036028831e-014 0.0 1.0
outer loop
vertex 304.085240626557 808.770000705635 164.573857161732
vertex 313.910888722583 807.878895983994 164.573857161732
vertex 314.456075501958 812.020000705634 164.573857161732
endloop
endfacet
facet normal -1.24038036028831e-014 0.0 1.0
outer loop
vertex 304.085240626557 808.770000705635 164.573857161732
vertex 314.456075501958 812.020000705634 164.573857161732
vertex 304.734593372837 810.337676912468 164.573857161732
endloop
endfacet
facet normal -1.24038036028831e-014 0.0 1.0
outer loop
vertex 304.734593372837 810.337676912468 164.573857161732
vertex 314.456075501958 812.020000705634 164.573857161732
vertex 304.956075501958 812.020000705634 164.573857161732
endloop
endfacet
facet normal -1.24038036028831e-014 0.0 1.0
outer loop
vertex 304.956075501958 812.020000705634 164.573857161732
vertex 314.456075501958 812.020000705634 164.573857161732
vertex 313.910888722583 816.161105427275 164.573857161732
endloop
endfacet
facet normal -1.24038036028831e-014 0.0 1.0
outer loop
vertex 304.956075501958 812.020000705634 164.573857161732
vertex 313.910888722583 816.161105427275 164.573857161732
vertex 304.734593372837 813.702324498801 164.573857161732
endloop
endfacet
facet normal -1.24038036028831e-014 0.0 1.0
outer loop
vertex 304.734593372837 813.702324498801 164.573857161732
vertex 313.910888722583 816.161105427275 164.573857161732
vertex 304.085240626557 815.270000705634 164.573857161732
endloop
endfacet
facet normal -1.24038036028831e-014 0.0 1.0
outer loop
vertex 304.085240626557 815.270000705634 164.573857161732
vertex 313.910888722583 816.161105427275 164.573857161732
vertex 303.05226957967 816.616194783347 164.573857161732
endloop
endfacet
facet normal -1.24038036028831e-014 0.0 1.0
outer loop
vertex 303.05226957967 816.616194783347 164.573857161732
vertex 313.910888722583 816.161105427275 164.573857161732
vertex 312.312481962509 820.020000705634 164.573857161732
endloop
endfacet
facet normal -1.24038036028831e-014 0.0 1.0
outer loop
vertex 303.05226957967 816.616194783347 164.573857161732
vertex 312.312481962509 820.020000705634 164.573857161732
vertex 301.706075501958 817.649165830233 164.573857161732
endloop
endfacet
facet normal -1.24038036028831e-014 0.0 1.0
outer loop
vertex 301.706075501958 817.649165830233 164.573857161732
vertex 312.312481962509 820.020000705634 164.573857161732
vertex 300.138399295124 818.298518576513 164.573857161732
endloop
endfacet
facet normal -1.24038036028831e-014 0.0 1.0
outer loop
vertex 300.138399295124 818.298518576513 164.573857161732
vertex 312.312481962509 820.020000705634 164.573857161732
vertex 298.456075501958 818.520000705634 164.573857161732
endloop
endfacet
facet normal -1.24038036028831e-014 0.0 1.0
outer loop
vertex 284.599669041407 804.020000705634 164.573857161732
vertex 296.773751708792 805.741482834755 164.573857161732
vertex 283.001262281333 807.878895983994 164.573857161732
endloop
endfacet
facet normal -1.24038036028831e-014 0.0 1.0
outer loop
vertex 296.773751708792 805.741482834755 164.573857161732
vertex 284.599669041407 804.020000705634 164.573857161732
vertex 298.456075501958 805.520000705634 164.573857161732
endloop
endfacet
facet normal -1.24038036028831e-014 0.0 1.0
outer loop
vertex 283.001262281333 807.878895983994 164.573857161732
vertex 296.773751708792 805.741482834755 164.573857161732
vertex 295.206075501958 806.390835581036 164.573857161732
endloop
endfacet
facet normal -1.24038036028831e-014 0.0 1.0
outer loop
vertex 283.001262281333 807.878895983994 164.573857161732
vertex 295.206075501958 806.390835581036 164.573857161732
vertex 293.859881424245 807.423806627922 164.573857161732
endloop
endfacet
facet normal -1.24038036028831e-014 0.0 1.0
outer loop
vertex 283.001262281333 807.878895983994 164.573857161732
vertex 293.859881424245 807.423806627922 164.573857161732
vertex 292.826910377359 808.770000705634 164.573857161732
endloop
endfacet
facet normal -1.24038036028831e-014 0.0 1.0
outer loop
vertex 283.001262281333 807.878895983994 164.573857161732
vertex 292.826910377359 808.770000705634 164.573857161732
vertex 282.456075501958 812.020000705634 164.573857161732
endloop
endfacet
facet normal -1.24038036028831e-014 0.0 1.0
outer loop
vertex 282.456075501958 812.020000705634 164.573857161732
vertex 292.826910377359 808.770000705634 164.573857161732
vertex 292.177557631079 810.337676912468 164.573857161732
endloop
endfacet
facet normal -1.24038036028831e-014 0.0 1.0
outer loop
vertex 282.456075501958 812.020000705634 164.573857161732
vertex 292.177557631079 810.337676912468 164.573857161732
vertex 291.956075501958 812.020000705634 164.573857161732
endloop
endfacet
facet normal -1.24038036028831e-014 0.0 1.0
outer loop
vertex 282.456075501958 812.020000705634 164.573857161732
vertex 291.956075501958 812.020000705634 164.573857161732
vertex 283.001262281333 816.161105427275 164.573857161732
endloop
endfacet
facet normal -1.24038036028831e-014 0.0 1.0
outer loop
vertex 283.001262281333 816.161105427275 164.573857161732
vertex 291.956075501958 812.020000705634 164.573857161732
vertex 292.177557631079 813.702324498801 164.573857161732
endloop
endfacet
facet normal -1.24038036028831e-014 0.0 1.0
outer loop
vertex 283.001262281333 816.161105427275 164.573857161732
vertex 292.177557631079 813.702324498801 164.573857161732
vertex 292.826910377359 815.270000705634 164.573857161732
endloop
endfacet
facet normal -1.24038036028831e-014 0.0 1.0
outer loop
vertex 283.001262281333 816.161105427275 164.573857161732
vertex 292.826910377359 815.270000705634 164.573857161732
vertex 293.859881424246 816.616194783347 164.573857161732
endloop
endfacet
facet normal -1.24038036028831e-014 0.0 1.0
outer loop
vertex 283.001262281333 816.161105427275 164.573857161732
vertex 293.859881424246 816.616194783347 164.573857161732
vertex 284.599669041407 820.020000705634 164.573857161732
endloop
endfacet
facet normal -1.24038036028831e-014 0.0 1.0
outer loop
vertex 284.599669041407 820.020000705634 164.573857161732
vertex 293.859881424246 816.616194783347 164.573857161732
vertex 295.206075501958 817.649165830233 164.573857161732
endloop
endfacet
facet normal -1.24038036028831e-014 0.0 1.0
outer loop
vertex 284.599669041407 820.020000705634 164.573857161732
vertex 295.206075501958 817.649165830233 164.573857161732
vertex 296.773751708792 818.298518576513 164.573857161732
endloop
endfacet
facet normal -1.24038036028831e-014 0.0 1.0
outer loop
vertex 284.599669041407 820.020000705634 164.573857161732
vertex 296.773751708792 818.298518576513 164.573857161732
vertex 298.456075501958 818.520000705634 164.573857161732
endloop
endfacet
facet normal -1.24038036028831e-014 0.0 1.0
outer loop
vertex 284.599669041407 820.020000705634 164.573857161732
vertex 298.456075501958 818.520000705634 164.573857161732
vertex 312.312481962509 820.020000705634 164.573857161732
endloop
endfacet
facet normal -1.24038036028831e-014 0.0 1.0
outer loop
vertex 284.599669041407 820.020000705634 164.573857161732
vertex 312.312481962509 820.020000705634 164.573857161732
vertex 309.769784000943 823.333709204619 164.573857161732
endloop
endfacet
facet normal -1.24038036028831e-014 0.0 1.0
outer loop
vertex 284.599669041407 820.020000705634 164.573857161732
vertex 309.769784000943 823.333709204619 164.573857161732
vertex 287.142367002973 823.333709204619 164.573857161732
endloop
endfacet
facet normal -1.24038036028831e-014 0.0 1.0
outer loop
vertex 287.142367002973 823.333709204619 164.573857161732
vertex 309.769784000943 823.333709204619 164.573857161732
vertex 306.456075501958 825.876407166185 164.573857161732
endloop
endfacet
facet normal -1.24038036028831e-014 0.0 1.0
outer loop
vertex 287.142367002973 823.333709204619 164.573857161732
vertex 306.456075501958 825.876407166185 164.573857161732
vertex 290.456075501958 825.876407166185 164.573857161732
endloop
endfacet
facet normal -1.24038036028831e-014 0.0 1.0
outer loop
vertex 290.456075501958 825.876407166185 164.573857161732
vertex 306.456075501958 825.876407166185 164.573857161732
vertex 302.597180223598 827.474813926259 164.573857161732
endloop
endfacet
facet normal -1.24038036028831e-014 0.0 1.0
outer loop
vertex 290.456075501958 825.876407166185 164.573857161732
vertex 302.597180223598 827.474813926259 164.573857161732
vertex 294.314970780318 827.474813926259 164.573857161732
endloop
endfacet
facet normal -1.24038036028831e-014 0.0 1.0
outer loop
vertex 294.314970780318 827.474813926259 164.573857161732
vertex 302.597180223598 827.474813926259 164.573857161732
vertex 298.456075501958 828.020000705634 164.573857161732
endloop
endfacet
facet normal -0.608761429008718 -0.793353340291237 -7.5509572064346e-015
outer loop
vertex 290.456075501958 798.163594245083 162.573857161732
vertex 287.142367002973 800.70629220665 164.573857161732
vertex 287.142367002973 800.70629220665 162.573857161732
endloop
endfacet
facet normal -0.608761429008718 -0.793353340291237 -7.5509572064346e-015
outer loop
vertex 287.142367002973 800.70629220665 164.573857161732
vertex 290.456075501958 798.163594245083 162.573857161732
vertex 290.456075501958 798.163594245083 164.573857161732
endloop
endfacet
facet normal -0.793353340291241 -0.608761429008713 -9.84059902066384e-015
outer loop
vertex 284.599669041407 804.020000705634 164.573857161732
vertex 287.142367002973 800.70629220665 162.573857161732
vertex 287.142367002973 800.70629220665 164.573857161732
endloop
endfacet
facet normal -0.793353340291241 -0.608761429008713 -9.84059902066384e-015
outer loop
vertex 287.142367002973 800.70629220665 162.573857161732
vertex 284.599669041407 804.020000705634 164.573857161732
vertex 284.599669041407 804.020000705634 162.573857161732
endloop
endfacet
facet normal -0.923879532511285 -0.382683432365095 -1.14596202739934e-014
outer loop
vertex 283.001262281333 807.878895983994 162.573857161732
vertex 284.599669041407 804.020000705634 164.573857161732
vertex 283.001262281333 807.878895983994 164.573857161732
endloop
endfacet
facet normal -0.923879532511285 -0.382683432365095 -1.14596202739934e-014
outer loop
vertex 284.599669041407 804.020000705634 164.573857161732
vertex 283.001262281333 807.878895983994 162.573857161732
vertex 284.599669041407 804.020000705634 162.573857161732
endloop
endfacet
facet normal -0.991444861373811 -0.130526192220051 -1.22976873435684e-014
outer loop
vertex 282.456075501958 812.020000705634 162.573857161732
vertex 283.001262281333 807.878895983994 164.573857161732
vertex 282.456075501958 812.020000705634 164.573857161732
endloop
endfacet
facet normal -0.991444861373811 -0.130526192220051 -1.22976873435684e-014
outer loop
vertex 283.001262281333 807.878895983994 164.573857161732
vertex 282.456075501958 812.020000705634 162.573857161732
vertex 283.001262281333 807.878895983994 162.573857161732
endloop
endfacet
facet normal -0.991444861373811 0.130526192220051 -1.22976873435684e-014
outer loop
vertex 283.001262281333 816.161105427275 162.573857161732
vertex 282.456075501958 812.020000705634 164.573857161732
vertex 283.001262281333 816.161105427275 164.573857161732
endloop
endfacet
facet normal -0.991444861373811 0.130526192220051 -1.22976873435684e-014
outer loop
vertex 282.456075501958 812.020000705634 164.573857161732
vertex 283.001262281333 816.161105427275 162.573857161732
vertex 282.456075501958 812.020000705634 162.573857161732
endloop
endfacet
facet normal -0.923879532511285 0.382683432365095 -1.14596202739934e-014
outer loop
vertex 284.599669041407 820.020000705634 164.573857161732
vertex 283.001262281333 816.161105427275 162.573857161732
vertex 283.001262281333 816.161105427275 164.573857161732
endloop
endfacet
facet normal -0.923879532511285 0.382683432365095 -1.14596202739934e-014
outer loop
vertex 283.001262281333 816.161105427275 162.573857161732
vertex 284.599669041407 820.020000705634 164.573857161732
vertex 284.599669041407 820.020000705634 162.573857161732
endloop
endfacet
facet normal -0.793353340291239 0.608761429008716 -9.84059902066381e-015
outer loop
vertex 287.142367002973 823.333709204619 162.573857161732
vertex 284.599669041407 820.020000705634 164.573857161732
vertex 287.142367002973 823.333709204619 164.573857161732
endloop
endfacet
facet normal -0.793353340291239 0.608761429008716 -9.84059902066381e-015
outer loop
vertex 284.599669041407 820.020000705634 164.573857161732
vertex 287.142367002973 823.333709204619 162.573857161732
vertex 284.599669041407 820.020000705634 162.573857161732
endloop
endfacet
facet normal -0.608761429008704 0.793353340291248 -7.55095720643443e-015
outer loop
vertex 290.456075501958 825.876407166185 164.573857161732
vertex 287.142367002973 823.333709204619 162.573857161732
vertex 287.142367002973 823.333709204619 164.573857161732
endloop
endfacet
facet normal -0.608761429008704 0.793353340291248 -7.55095720643443e-015
outer loop
vertex 287.142367002973 823.333709204619 162.573857161732
vertex 290.456075501958 825.876407166185 164.573857161732
vertex 290.456075501958 825.876407166185 162.573857161732
endloop
endfacet
facet normal -0.382683432365119 0.923879532511275 -4.74673013713413e-015
outer loop
vertex 294.314970780318 827.474813926259 164.573857161732
vertex 290.456075501958 825.876407166185 162.573857161732
vertex 290.456075501958 825.876407166185 164.573857161732
endloop
endfacet
facet normal -0.382683432365119 0.923879532511275 -4.74673013713413e-015
outer loop
vertex 290.456075501958 825.876407166185 162.573857161732
vertex 294.314970780318 827.474813926259 164.573857161732
vertex 294.314970780318 827.474813926259 162.573857161732
endloop
endfacet
facet normal -0.130526192220031 0.991444861373813 -1.61902125332943e-015
outer loop
vertex 298.456075501958 828.020000705634 164.573857161732
vertex 294.314970780318 827.474813926259 162.573857161732
vertex 294.314970780318 827.474813926259 164.573857161732
endloop
endfacet
facet normal -0.130526192220031 0.991444861373813 -1.61902125332943e-015
outer loop
vertex 294.314970780318 827.474813926259 162.573857161732
vertex 298.456075501958 828.020000705634 164.573857161732
vertex 298.456075501958 828.020000705634 162.573857161732
endloop
endfacet
facet normal 0.13052619222003 0.991444861373813 1.61902125332942e-015
outer loop
vertex 302.597180223598 827.474813926259 164.573857161732
vertex 298.456075501958 828.020000705634 162.573857161732
vertex 298.456075501958 828.020000705634 164.573857161732
endloop
endfacet
facet normal 0.13052619222003 0.991444861373813 1.61902125332942e-015
outer loop
vertex 298.456075501958 828.020000705634 162.573857161732
vertex 302.597180223598 827.474813926259 164.573857161732
vertex 302.597180223598 827.474813926259 162.573857161732
endloop
endfacet
facet normal 0.382683432365119 0.923879532511275 4.74673013713413e-015
outer loop
vertex 306.456075501958 825.876407166185 164.573857161732
vertex 302.597180223598 827.474813926259 162.573857161732
vertex 302.597180223598 827.474813926259 164.573857161732
endloop
endfacet
facet normal 0.382683432365119 0.923879532511275 4.74673013713413e-015
outer loop
vertex 302.597180223598 827.474813926259 162.573857161732
vertex 306.456075501958 825.876407166185 164.573857161732
vertex 306.456075501958 825.876407166185 162.573857161732
endloop
endfacet
facet normal 0.608761429008704 0.793353340291248 7.55095720643443e-015
outer loop
vertex 309.769784000943 823.333709204619 164.573857161732
vertex 306.456075501958 825.876407166185 162.573857161732
vertex 306.456075501958 825.876407166185 164.573857161732
endloop
endfacet
facet normal 0.608761429008704 0.793353340291248 7.55095720643443e-015
outer loop
vertex 306.456075501958 825.876407166185 162.573857161732
vertex 309.769784000943 823.333709204619 164.573857161732
vertex 309.769784000943 823.333709204619 162.573857161732
endloop
endfacet
facet normal 0.793353340291241 0.608761429008713 9.84059902066384e-015
outer loop
vertex 312.312481962509 820.020000705634 162.573857161732
vertex 309.769784000943 823.333709204619 164.573857161732
vertex 312.312481962509 820.020000705634 164.573857161732
endloop
endfacet
facet normal 0.793353340291241 0.608761429008713 9.84059902066384e-015
outer loop
vertex 309.769784000943 823.333709204619 164.573857161732
vertex 312.312481962509 820.020000705634 162.573857161732
vertex 309.769784000943 823.333709204619 162.573857161732
endloop
endfacet
facet normal 0.923879532511285 0.382683432365095 1.14596202739934e-014
outer loop
vertex 313.910888722583 816.161105427275 164.573857161732
vertex 312.312481962509 820.020000705634 162.573857161732
vertex 312.312481962509 820.020000705634 164.573857161732
endloop
endfacet
facet normal 0.923879532511285 0.382683432365095 1.14596202739934e-014
outer loop
vertex 312.312481962509 820.020000705634 162.573857161732
vertex 313.910888722583 816.161105427275 164.573857161732
vertex 313.910888722583 816.161105427275 162.573857161732
endloop
endfacet
facet normal 0.991444861373811 0.130526192220051 1.22976873435684e-014
outer loop
vertex 314.456075501958 812.020000705634 162.573857161732
vertex 313.910888722583 816.161105427275 164.573857161732
vertex 314.456075501958 812.020000705634 164.573857161732
endloop
endfacet
facet normal 0.991444861373811 0.130526192220051 1.22976873435684e-014
outer loop
vertex 313.910888722583 816.161105427275 164.573857161732
vertex 314.456075501958 812.020000705634 162.573857161732
vertex 313.910888722583 816.161105427275 162.573857161732
endloop
endfacet
facet normal 0.991444861373811 -0.130526192220051 1.22976873435684e-014
outer loop
vertex 313.910888722583 807.878895983994 162.573857161732
vertex 314.456075501958 812.020000705634 164.573857161732
vertex 313.910888722583 807.878895983994 164.573857161732
endloop
endfacet
facet normal 0.991444861373811 -0.130526192220051 1.22976873435684e-014
outer loop
vertex 314.456075501958 812.020000705634 164.573857161732
vertex 313.910888722583 807.878895983994 162.573857161732
vertex 314.456075501958 812.020000705634 162.573857161732
endloop
endfacet
facet normal 0.923879532511285 -0.382683432365095 1.14596202739934e-014
outer loop
vertex 312.312481962509 804.020000705634 162.573857161732
vertex 313.910888722583 807.878895983994 164.573857161732
vertex 312.312481962509 804.020000705634 164.573857161732
endloop
endfacet
facet normal 0.923879532511285 -0.382683432365095 1.14596202739934e-014
outer loop
vertex 313.910888722583 807.878895983994 164.573857161732
vertex 312.312481962509 804.020000705634 162.573857161732
vertex 313.910888722583 807.878895983994 162.573857161732
endloop
endfacet
facet normal 0.793353340291241 -0.608761429008713 9.84059902066384e-015
outer loop
vertex 309.769784000943 800.70629220665 164.573857161732
vertex 312.312481962509 804.020000705634 162.573857161732
vertex 312.312481962509 804.020000705634 164.573857161732
endloop
endfacet
facet normal 0.793353340291241 -0.608761429008713 9.84059902066384e-015
outer loop
vertex 312.312481962509 804.020000705634 162.573857161732
vertex 309.769784000943 800.70629220665 164.573857161732
vertex 309.769784000943 800.70629220665 162.573857161732
endloop
endfacet
facet normal 1.24038036028831e-014 0.0 -1.0
outer loop
vertex 294.314970780318 796.565187485009 162.573857161732
vertex 302.597180223598 796.565187485009 162.573857161732
vertex 298.456075501958 796.020000705634 162.573857161732
endloop
endfacet
facet normal 1.24038036028831e-014 0.0 -1.0
outer loop
vertex 302.597180223598 796.565187485009 162.573857161732
vertex 294.314970780318 796.565187485009 162.573857161732
vertex 290.456075501958 798.163594245083 162.573857161732
endloop
endfacet
facet normal 1.24038036028831e-014 0.0 -1.0
outer loop
vertex 302.597180223598 796.565187485009 162.573857161732
vertex 290.456075501958 798.163594245083 162.573857161732
vertex 306.456075501958 798.163594245083 162.573857161732
endloop
endfacet
facet normal 1.24038036028831e-014 0.0 -1.0
outer loop
vertex 306.456075501958 798.163594245083 162.573857161732
vertex 290.456075501958 798.163594245083 162.573857161732
vertex 287.142367002973 800.70629220665 162.573857161732
endloop
endfacet
facet normal 1.24038036028831e-014 0.0 -1.0
outer loop
vertex 306.456075501958 798.163594245083 162.573857161732
vertex 287.142367002973 800.70629220665 162.573857161732
vertex 309.769784000943 800.70629220665 162.573857161732
endloop
endfacet
facet normal 1.24038036028831e-014 0.0 -1.0
outer loop
vertex 309.769784000943 800.70629220665 162.573857161732
vertex 287.142367002973 800.70629220665 162.573857161732
vertex 284.599669041407 804.020000705634 162.573857161732
endloop
endfacet
facet normal 1.24038036028831e-014 0.0 -1.0
outer loop
vertex 309.769784000943 800.70629220665 162.573857161732
vertex 284.599669041407 804.020000705634 162.573857161732
vertex 312.312481962509 804.020000705634 162.573857161732
endloop
endfacet
facet normal 1.24038036028831e-014 0.0 -1.0
outer loop
vertex 312.312481962509 804.020000705634 162.573857161732
vertex 284.599669041407 804.020000705634 162.573857161732
vertex 283.001262281333 807.878895983994 162.573857161732
endloop
endfacet
facet normal 1.24038036028831e-014 0.0 -1.0
outer loop
vertex 312.312481962509 804.020000705634 162.573857161732
vertex 283.001262281333 807.878895983994 162.573857161732
vertex 298.456075501958 807.770000705634 162.573857161732
endloop
endfacet
facet normal 1.24038036028831e-014 0.0 -1.0
outer loop
vertex 298.456075501958 807.770000705634 162.573857161732
vertex 283.001262281333 807.878895983994 162.573857161732
vertex 297.356094560272 807.914815943906 162.573857161732
endloop
endfacet
facet normal 1.24038036028831e-014 0.0 -1.0
outer loop
vertex 297.356094560272 807.914815943906 162.573857161732
vertex 283.001262281333 807.878895983994 162.573857161732
vertex 282.456075501958 812.020000705634 162.573857161732
endloop
endfacet
facet normal 1.24038036028831e-014 0.0 -1.0
outer loop
vertex 297.356094560272 807.914815943906 162.573857161732
vertex 282.456075501958 812.020000705634 162.573857161732
vertex 296.331075501958 808.33939273955 162.573857161732
endloop
endfacet
facet normal 1.24038036028831e-014 0.0 -1.0
outer loop
vertex 296.331075501958 808.33939273955 162.573857161732
vertex 282.456075501958 812.020000705634 162.573857161732
vertex 295.450871681915 809.014796885592 162.573857161732
endloop
endfacet
facet normal 1.24038036028831e-014 0.0 -1.0
outer loop
vertex 295.450871681915 809.014796885592 162.573857161732
vertex 282.456075501958 812.020000705634 162.573857161732
vertex 294.775467535874 809.895000705634 162.573857161732
endloop
endfacet
facet normal 1.24038036028831e-014 0.0 -1.0
outer loop
vertex 294.775467535874 809.895000705634 162.573857161732
vertex 282.456075501958 812.020000705634 162.573857161732
vertex 294.350890740229 810.920019763949 162.573857161732
endloop
endfacet
facet normal 1.24038036028831e-014 0.0 -1.0
outer loop
vertex 294.350890740229 810.920019763949 162.573857161732
vertex 282.456075501958 812.020000705634 162.573857161732
vertex 294.206075501958 812.020000705634 162.573857161732
endloop
endfacet
facet normal 1.24038036028831e-014 0.0 -1.0
outer loop
vertex 294.206075501958 812.020000705634 162.573857161732
vertex 282.456075501958 812.020000705634 162.573857161732
vertex 283.001262281333 816.161105427275 162.573857161732
endloop
endfacet
facet normal 1.24038036028831e-014 0.0 -1.0
outer loop
vertex 294.206075501958 812.020000705634 162.573857161732
vertex 283.001262281333 816.161105427275 162.573857161732
vertex 294.350890740229 813.11998164732 162.573857161732
endloop
endfacet
facet normal 1.24038036028831e-014 0.0 -1.0
outer loop
vertex 294.350890740229 813.11998164732 162.573857161732
vertex 283.001262281333 816.161105427275 162.573857161732
vertex 294.775467535874 814.145000705634 162.573857161732
endloop
endfacet
facet normal 1.24038036028831e-014 0.0 -1.0
outer loop
vertex 294.775467535874 814.145000705634 162.573857161732
vertex 283.001262281333 816.161105427275 162.573857161732
vertex 295.450871681915 815.025204525677 162.573857161732
endloop
endfacet
facet normal 1.24038036028831e-014 0.0 -1.0
outer loop
vertex 295.450871681915 815.025204525677 162.573857161732
vertex 283.001262281333 816.161105427275 162.573857161732
vertex 296.331075501958 815.700608671718 162.573857161732
endloop
endfacet
facet normal 1.24038036028831e-014 0.0 -1.0
outer loop
vertex 296.331075501958 815.700608671718 162.573857161732
vertex 283.001262281333 816.161105427275 162.573857161732
vertex 297.356094560272 816.125185467363 162.573857161732
endloop
endfacet
facet normal 1.24038036028831e-014 0.0 -1.0
outer loop
vertex 297.356094560272 816.125185467363 162.573857161732
vertex 283.001262281333 816.161105427275 162.573857161732
vertex 298.456075501958 816.270000705634 162.573857161732
endloop
endfacet
facet normal 1.24038036028831e-014 0.0 -1.0
outer loop
vertex 298.456075501958 816.270000705634 162.573857161732
vertex 283.001262281333 816.161105427275 162.573857161732
vertex 284.599669041407 820.020000705634 162.573857161732
endloop
endfacet
facet normal 1.24038036028831e-014 0.0 -1.0
outer loop
vertex 298.456075501958 807.770000705634 162.573857161732
vertex 313.910888722583 807.878895983994 162.573857161732
vertex 312.312481962509 804.020000705634 162.573857161732
endloop
endfacet
facet normal 1.24038036028831e-014 0.0 -1.0
outer loop
vertex 313.910888722583 807.878895983994 162.573857161732
vertex 298.456075501958 807.770000705634 162.573857161732
vertex 299.556056443644 807.914815943906 162.573857161732
endloop
endfacet
facet normal 1.24038036028831e-014 0.0 -1.0
outer loop
vertex 313.910888722583 807.878895983994 162.573857161732
vertex 299.556056443644 807.914815943906 162.573857161732
vertex 314.456075501958 812.020000705634 162.573857161732
endloop
endfacet
facet normal 1.24038036028831e-014 0.0 -1.0
outer loop
vertex 314.456075501958 812.020000705634 162.573857161732
vertex 299.556056443644 807.914815943906 162.573857161732
vertex 300.581075501958 808.33939273955 162.573857161732
endloop
endfacet
facet normal 1.24038036028831e-014 0.0 -1.0
outer loop
vertex 314.456075501958 812.020000705634 162.573857161732
vertex 300.581075501958 808.33939273955 162.573857161732
vertex 301.461279322001 809.014796885592 162.573857161732
endloop
endfacet
facet normal 1.24038036028831e-014 0.0 -1.0
outer loop
vertex 314.456075501958 812.020000705634 162.573857161732
vertex 301.461279322001 809.014796885592 162.573857161732
vertex 302.136683468042 809.895000705634 162.573857161732
endloop
endfacet
facet normal 1.24038036028831e-014 0.0 -1.0
outer loop
vertex 314.456075501958 812.020000705634 162.573857161732
vertex 302.136683468042 809.895000705634 162.573857161732
vertex 302.561260263686 810.920019763949 162.573857161732
endloop
endfacet
facet normal 1.24038036028831e-014 0.0 -1.0
outer loop
vertex 314.456075501958 812.020000705634 162.573857161732
vertex 302.561260263686 810.920019763949 162.573857161732
vertex 302.706075501958 812.020000705634 162.573857161732
endloop
endfacet
facet normal 1.24038036028831e-014 0.0 -1.0
outer loop
vertex 314.456075501958 812.020000705634 162.573857161732
vertex 302.706075501958 812.020000705634 162.573857161732
vertex 302.561260263686 813.11998164732 162.573857161732
endloop
endfacet
facet normal 1.24038036028831e-014 0.0 -1.0
outer loop
vertex 314.456075501958 812.020000705634 162.573857161732
vertex 302.561260263686 813.11998164732 162.573857161732
vertex 313.910888722583 816.161105427275 162.573857161732
endloop
endfacet
facet normal 1.24038036028831e-014 0.0 -1.0
outer loop
vertex 313.910888722583 816.161105427275 162.573857161732
vertex 302.561260263686 813.11998164732 162.573857161732
vertex 302.136683468042 814.145000705634 162.573857161732
endloop
endfacet
facet normal 1.24038036028831e-014 0.0 -1.0
outer loop
vertex 313.910888722583 816.161105427275 162.573857161732
vertex 302.136683468042 814.145000705634 162.573857161732
vertex 301.461279322001 815.025204525677 162.573857161732
endloop
endfacet
facet normal 1.24038036028831e-014 0.0 -1.0
outer loop
vertex 313.910888722583 816.161105427275 162.573857161732
vertex 301.461279322001 815.025204525677 162.573857161732
vertex 300.581075501958 815.700608671718 162.573857161732
endloop
endfacet
facet normal 1.24038036028831e-014 0.0 -1.0
outer loop
vertex 313.910888722583 816.161105427275 162.573857161732
vertex 300.581075501958 815.700608671718 162.573857161732
vertex 299.556056443644 816.125185467363 162.573857161732
endloop
endfacet
facet normal 1.24038036028831e-014 0.0 -1.0
outer loop
vertex 313.910888722583 816.161105427275 162.573857161732
vertex 299.556056443644 816.125185467363 162.573857161732
vertex 298.456075501958 816.270000705634 162.573857161732
endloop
endfacet
facet normal 1.24038036028831e-014 0.0 -1.0
outer loop
vertex 313.910888722583 816.161105427275 162.573857161732
vertex 298.456075501958 816.270000705634 162.573857161732
vertex 312.312481962509 820.020000705634 162.573857161732
endloop
endfacet
facet normal 1.24038036028831e-014 0.0 -1.0
outer loop
vertex 312.312481962509 820.020000705634 162.573857161732
vertex 298.456075501958 816.270000705634 162.573857161732
vertex 284.599669041407 820.020000705634 162.573857161732
endloop
endfacet
facet normal 1.24038036028831e-014 0.0 -1.0
outer loop
vertex 312.312481962509 820.020000705634 162.573857161732
vertex 284.599669041407 820.020000705634 162.573857161732
vertex 287.142367002973 823.333709204619 162.573857161732
endloop
endfacet
facet normal 1.24038036028831e-014 0.0 -1.0
outer loop
vertex 312.312481962509 820.020000705634 162.573857161732
vertex 287.142367002973 823.333709204619 162.573857161732
vertex 309.769784000943 823.333709204619 162.573857161732
endloop
endfacet
facet normal 1.24038036028831e-014 0.0 -1.0
outer loop
vertex 309.769784000943 823.333709204619 162.573857161732
vertex 287.142367002973 823.333709204619 162.573857161732
vertex 290.456075501958 825.876407166185 162.573857161732
endloop
endfacet
facet normal 1.24038036028831e-014 0.0 -1.0
outer loop
vertex 309.769784000943 823.333709204619 162.573857161732
vertex 290.456075501958 825.876407166185 162.573857161732
vertex 306.456075501958 825.876407166185 162.573857161732
endloop
endfacet
facet normal 1.24038036028831e-014 0.0 -1.0
outer loop
vertex 306.456075501958 825.876407166185 162.573857161732
vertex 290.456075501958 825.876407166185 162.573857161732
vertex 294.314970780318 827.474813926259 162.573857161732
endloop
endfacet
facet normal 1.24038036028831e-014 0.0 -1.0
outer loop
vertex 306.456075501958 825.876407166185 162.573857161732
vertex 294.314970780318 827.474813926259 162.573857161732
vertex 302.597180223598 827.474813926259 162.573857161732
endloop
endfacet
facet normal 1.24038036028831e-014 0.0 -1.0
outer loop
vertex 302.597180223598 827.474813926259 162.573857161732
vertex 294.314970780318 827.474813926259 162.573857161732
vertex 298.456075501958 828.020000705634 162.573857161732
endloop
endfacet
facet normal 0.608761429008715 -0.793353340291239 7.55095720643457e-015
outer loop
vertex 309.769784000943 800.70629220665 162.573857161732
vertex 306.456075501958 798.163594245083 164.573857161732
vertex 306.456075501958 798.163594245083 162.573857161732
endloop
endfacet
facet normal 0.608761429008715 -0.793353340291239 7.55095720643457e-015
outer loop
vertex 306.456075501958 798.163594245083 164.573857161732
vertex 309.769784000943 800.70629220665 162.573857161732
vertex 309.769784000943 800.70629220665 164.573857161732
endloop
endfacet
facet normal 0.382683432365082 -0.92387953251129 4.74673013713368e-015
outer loop
vertex 306.456075501958 798.163594245083 162.573857161732
vertex 302.597180223598 796.565187485009 164.573857161732
vertex 302.597180223598 796.565187485009 162.573857161732
endloop
endfacet
facet normal 0.382683432365082 -0.92387953251129 4.74673013713368e-015
outer loop
vertex 302.597180223598 796.565187485009 164.573857161732
vertex 306.456075501958 798.163594245083 162.573857161732
vertex 306.456075501958 798.163594245083 164.573857161732
endloop
endfacet
facet normal -0.793353340291259 0.608761429008689 -3.54453315387001e-014
outer loop
vertex 293.859881424246 816.616194783347 164.573857161732
vertex 292.826910377359 815.270000705634 165.573857161732
vertex 293.859881424245 816.616194783347 165.573857161732
endloop
endfacet
facet normal -0.793353340291259 0.608761429008689 -3.54453315387001e-014
outer loop
vertex 292.826910377359 815.270000705634 165.573857161732
vertex 293.859881424246 816.616194783347 164.573857161732
vertex 292.826910377359 815.270000705634 164.573857161732
endloop
endfacet
facet normal 0.130526192220015 0.991444861373815 3.82393959528019e-015
outer loop
vertex 300.138399295124 818.298518576513 165.573857161732
vertex 298.456075501958 818.520000705634 164.573857161732
vertex 298.456075501958 818.520000705634 165.573857161732
endloop
endfacet
facet normal 0.130526192220015 0.991444861373815 3.82393959528019e-015
outer loop
vertex 298.456075501958 818.520000705634 164.573857161732
vertex 300.138399295124 818.298518576513 165.573857161732
vertex 300.138399295124 818.298518576513 164.573857161732
endloop
endfacet
facet normal 0.793353340291259 0.608761429008689 2.15390367288284e-015
outer loop
vertex 304.085240626557 815.270000705634 164.573857161732
vertex 303.05226957967 816.616194783347 165.573857161732
vertex 304.085240626557 815.270000705634 165.573857161732
endloop
endfacet
facet normal 0.793353340291259 0.608761429008689 2.15390367288284e-015
outer loop
vertex 303.05226957967 816.616194783347 165.573857161732
vertex 304.085240626557 815.270000705634 164.573857161732
vertex 303.05226957967 816.616194783347 164.573857161732
endloop
endfacet
facet normal 0.608761429008715 0.79335334029124 3.30745227750073e-014
outer loop
vertex 303.05226957967 816.616194783347 165.573857161732
vertex 301.706075501958 817.649165830233 164.573857161732
vertex 301.706075501958 817.649165830233 165.573857161732
endloop
endfacet
facet normal 0.608761429008715 0.79335334029124 3.30745227750073e-014
outer loop
vertex 301.706075501958 817.649165830233 164.573857161732
vertex 303.05226957967 816.616194783347 165.573857161732
vertex 303.05226957967 816.616194783347 164.573857161732
endloop
endfacet
facet normal 0.382683432365083 0.923879532511289 1.12379917107475e-014
outer loop
vertex 301.706075501958 817.649165830233 165.573857161732
vertex 300.138399295124 818.298518576513 164.573857161732
vertex 300.138399295124 818.298518576513 165.573857161732
endloop
endfacet
facet normal 0.382683432365083 0.923879532511289 1.12379917107475e-014
outer loop
vertex 300.138399295124 818.298518576513 164.573857161732
vertex 301.706075501958 817.649165830233 165.573857161732
vertex 301.706075501958 817.649165830233 164.573857161732
endloop
endfacet
facet normal -0.130526192220014 0.991444861373815 -4.55891237593048e-015
outer loop
vertex 298.456075501958 818.520000705634 165.573857161732
vertex 296.773751708792 818.298518576513 164.573857161732
vertex 296.773751708791 818.298518576513 165.573857161732
endloop
endfacet
facet normal -0.130526192220014 0.991444861373815 -4.55891237593048e-015
outer loop
vertex 296.773751708792 818.298518576513 164.573857161732
vertex 298.456075501958 818.520000705634 165.573857161732
vertex 298.456075501958 818.520000705634 164.573857161732
endloop
endfacet
facet normal -0.608761429008711 0.793353340291243 7.66779334256416e-015
outer loop
vertex 295.206075501958 817.649165830233 165.573857161732
vertex 293.859881424246 816.616194783347 164.573857161732
vertex 293.859881424245 816.616194783347 165.573857161732
endloop
endfacet
facet normal -0.608761429008711 0.793353340291243 7.66779334256416e-015
outer loop
vertex 293.859881424246 816.616194783347 164.573857161732
vertex 295.206075501958 817.649165830233 165.573857161732
vertex 295.206075501958 817.649165830233 164.573857161732
endloop
endfacet
facet normal -0.382683432365083 0.923879532511289 -6.91494534316552e-015
outer loop
vertex 296.773751708791 818.298518576513 165.573857161732
vertex 295.206075501958 817.649165830233 164.573857161732
vertex 295.206075501958 817.649165830233 165.573857161732
endloop
endfacet
facet normal -0.382683432365083 0.923879532511289 -6.91494534316552e-015
outer loop
vertex 295.206075501958 817.649165830233 164.573857161732
vertex 296.773751708791 818.298518576513 165.573857161732
vertex 296.773751708792 818.298518576513 164.573857161732
endloop
endfacet
facet normal 0.92387953251126 0.382683432365155 1.11566851144494e-014
outer loop
vertex 304.734593372837 813.702324498801 164.573857161732
vertex 304.085240626557 815.270000705634 165.573857161732
vertex 304.734593372837 813.702324498801 165.573857161732
endloop
endfacet
facet normal 0.92387953251126 0.382683432365155 1.11566851144494e-014
outer loop
vertex 304.085240626557 815.270000705634 165.573857161732
vertex 304.734593372837 813.702324498801 164.573857161732
vertex 304.085240626557 815.270000705634 164.573857161732
endloop
endfacet
facet normal 0.991444861373812 0.130526192220043 1.58372856631762e-014
outer loop
vertex 304.956075501958 812.020000705634 165.573857161732
vertex 304.734593372837 813.702324498801 164.573857161732
vertex 304.734593372837 813.702324498801 165.573857161732
endloop
endfacet
facet normal 0.991444861373812 0.130526192220043 1.58372856631762e-014
outer loop
vertex 304.734593372837 813.702324498801 164.573857161732
vertex 304.956075501958 812.020000705634 165.573857161732
vertex 304.956075501958 812.020000705634 164.573857161732
endloop
endfacet
facet normal 0.991444861373811 -0.130526192220044 3.76188990512102e-015
outer loop
vertex 304.734593372837 810.337676912468 164.573857161732
vertex 304.956075501958 812.020000705634 165.573857161732
vertex 304.734593372837 810.337676912468 165.573857161732
endloop
endfacet
facet normal 0.991444861373811 -0.130526192220044 3.76188990512102e-015
outer loop
vertex 304.956075501958 812.020000705634 165.573857161732
vertex 304.734593372837 810.337676912468 164.573857161732
vertex 304.956075501958 812.020000705634 164.573857161732
endloop
endfacet
facet normal 0.923879532511287 -0.38268343236509 1.16210751886999e-014
outer loop
vertex 304.085240626557 808.770000705635 164.573857161732
vertex 304.734593372837 810.337676912468 165.573857161732
vertex 304.085240626557 808.770000705634 165.573857161732
endloop
endfacet
facet normal 0.923879532511287 -0.38268343236509 1.16210751886999e-014
outer loop
vertex 304.734593372837 810.337676912468 165.573857161732
vertex 304.085240626557 808.770000705635 164.573857161732
vertex 304.734593372837 810.337676912468 164.573857161732
endloop
endfacet
facet normal 0.793353340291262 -0.608761429008685 -5.14013793825476e-015
outer loop
vertex 303.05226957967 807.423806627922 165.573857161732
vertex 304.085240626557 808.770000705635 164.573857161732
vertex 304.085240626557 808.770000705634 165.573857161732
endloop
endfacet
facet normal 0.793353340291262 -0.608761429008685 -5.14013793825476e-015
outer loop
vertex 304.085240626557 808.770000705635 164.573857161732
vertex 303.05226957967 807.423806627922 165.573857161732
vertex 303.052269579671 807.423806627922 164.573857161732
endloop
endfacet
facet normal 0.608761429008733 -0.793353340291226 -7.77498753978757e-016
outer loop
vertex 301.706075501958 806.390835581035 164.573857161732
vertex 303.05226957967 807.423806627922 165.573857161732
vertex 301.706075501958 806.390835581035 165.573857161732
endloop
endfacet
facet normal 0.608761429008733 -0.793353340291226 -7.77498753978757e-016
outer loop
vertex 303.05226957967 807.423806627922 165.573857161732
vertex 301.706075501958 806.390835581035 164.573857161732
vertex 303.052269579671 807.423806627922 164.573857161732
endloop
endfacet
facet normal 0.382683432365097 -0.923879532511284 1.55342699893667e-014
outer loop
vertex 300.138399295124 805.741482834755 164.573857161732
vertex 301.706075501958 806.390835581035 165.573857161732
vertex 300.138399295124 805.741482834755 165.573857161732
endloop
endfacet
facet normal 0.382683432365097 -0.923879532511284 1.55342699893667e-014
outer loop
vertex 301.706075501958 806.390835581035 165.573857161732
vertex 300.138399295124 805.741482834755 164.573857161732
vertex 301.706075501958 806.390835581035 164.573857161732
endloop
endfacet
facet normal 0.130526192220039 -0.991444861373812 2.84031224287087e-014
outer loop
vertex 298.456075501958 805.520000705634 164.573857161732
vertex 300.138399295124 805.741482834755 165.573857161732
vertex 298.456075501958 805.520000705634 165.573857161732
endloop
endfacet
facet normal 0.130526192220039 -0.991444861373812 2.84031224287087e-014
outer loop
vertex 300.138399295124 805.741482834755 165.573857161732
vertex 298.456075501958 805.520000705634 164.573857161732
vertex 300.138399295124 805.741482834755 164.573857161732
endloop
endfacet
facet normal -0.130526192220014 -0.991444861373815 4.09111249179433e-014
outer loop
vertex 296.773751708792 805.741482834755 164.573857161732
vertex 298.456075501958 805.520000705634 165.573857161732
vertex 296.773751708791 805.741482834755 165.573857161732
endloop
endfacet
facet normal -0.130526192220014 -0.991444861373815 4.09111249179433e-014
outer loop
vertex 298.456075501958 805.520000705634 165.573857161732
vertex 296.773751708792 805.741482834755 164.573857161732
vertex 298.456075501958 805.520000705634 164.573857161732
endloop
endfacet
facet normal -0.382683432365179 -0.92387953251125 -1.12246076662686e-014
outer loop
vertex 295.206075501958 806.390835581036 164.573857161732
vertex 296.773751708791 805.741482834755 165.573857161732
vertex 295.206075501958 806.390835581036 165.573857161732
endloop
endfacet
facet normal -0.382683432365179 -0.92387953251125 -1.12246076662686e-014
outer loop
vertex 296.773751708791 805.741482834755 165.573857161732
vertex 295.206075501958 806.390835581036 164.573857161732
vertex 296.773751708792 805.741482834755 164.573857161732
endloop
endfacet
facet normal -0.608761429008672 -0.793353340291272 -3.57312275160178e-014
outer loop
vertex 293.859881424245 807.423806627922 164.573857161732
vertex 295.206075501958 806.390835581036 165.573857161732
vertex 293.859881424245 807.423806627922 165.573857161732
endloop
endfacet
facet normal -0.608761429008672 -0.793353340291272 -3.57312275160178e-014
outer loop
vertex 295.206075501958 806.390835581036 165.573857161732
vertex 293.859881424245 807.423806627922 164.573857161732
vertex 295.206075501958 806.390835581036 164.573857161732
endloop
endfacet
facet normal -0.793353340291237 -0.608761429008718 -5.6762329109911e-015
outer loop
vertex 292.826910377359 808.770000705634 164.573857161732
vertex 293.859881424245 807.423806627922 165.573857161732
vertex 292.826910377359 808.770000705634 165.573857161732
endloop
endfacet
facet normal -0.793353340291237 -0.608761429008718 -5.6762329109911e-015
outer loop
vertex 293.859881424245 807.423806627922 165.573857161732
vertex 292.826910377359 808.770000705634 164.573857161732
vertex 293.859881424245 807.423806627922 164.573857161732
endloop
endfacet
facet normal -0.923879532511299 -0.38268343236506 -4.28807556473636e-015
outer loop
vertex 292.177557631079 810.337676912468 165.573857161732
vertex 292.826910377359 808.770000705634 164.573857161732
vertex 292.826910377359 808.770000705634 165.573857161732
endloop
endfacet
facet normal -0.923879532511299 -0.38268343236506 -4.28807556473636e-015
outer loop
vertex 292.826910377359 808.770000705634 164.573857161732
vertex 292.177557631079 810.337676912468 165.573857161732
vertex 292.177557631079 810.337676912468 164.573857161732
endloop
endfacet
facet normal -0.923879532511262 0.382683432365149 -3.78059804494382e-014
outer loop
vertex 292.826910377359 815.270000705634 164.573857161732
vertex 292.177557631079 813.702324498801 165.573857161732
vertex 292.826910377359 815.270000705634 165.573857161732
endloop
endfacet
facet normal -0.923879532511262 0.382683432365149 -3.78059804494382e-014
outer loop
vertex 292.177557631079 813.702324498801 165.573857161732
vertex 292.826910377359 815.270000705634 164.573857161732
vertex 292.177557631079 813.702324498801 164.573857161732
endloop
endfacet
facet normal -0.991444861373813 -0.130526192220034 -1.28884951191708e-014
outer loop
vertex 291.956075501958 812.020000705634 164.573857161732
vertex 292.177557631079 810.337676912468 165.573857161732
vertex 291.956075501958 812.020000705634 165.573857161732
endloop
endfacet
facet normal -0.991444861373813 -0.130526192220034 -1.28884951191708e-014
outer loop
vertex 292.177557631079 810.337676912468 165.573857161732
vertex 291.956075501958 812.020000705634 164.573857161732
vertex 292.177557631079 810.337676912468 164.573857161732
endloop
endfacet
facet normal -0.991444861373809 0.130526192220063 -2.55407815726649e-014
outer loop
vertex 292.177557631079 813.702324498801 165.573857161732
vertex 291.956075501958 812.020000705634 164.573857161732
vertex 291.956075501958 812.020000705634 165.573857161732
endloop
endfacet
facet normal -0.991444861373809 0.130526192220063 -2.55407815726649e-014
outer loop
vertex 291.956075501958 812.020000705634 164.573857161732
vertex 292.177557631079 813.702324498801 165.573857161732
vertex 292.177557631079 813.702324498801 164.573857161732
endloop
endfacet
facet normal -1.24038036028831e-014 0.0 1.0
outer loop
vertex 300.138399295124 805.741482834755 165.573857161732
vertex 296.773751708791 805.741482834755 165.573857161732
vertex 298.456075501958 805.520000705634 165.573857161732
endloop
endfacet
facet normal -1.24038036028831e-014 0.0 1.0
outer loop
vertex 296.773751708791 805.741482834755 165.573857161732
vertex 300.138399295124 805.741482834755 165.573857161732
vertex 301.706075501958 806.390835581035 165.573857161732
endloop
endfacet
facet normal -1.24038036028831e-014 0.0 1.0
outer loop
vertex 296.773751708791 805.741482834755 165.573857161732
vertex 301.706075501958 806.390835581035 165.573857161732
vertex 295.206075501958 806.390835581036 165.573857161732
endloop
endfacet
facet normal -1.24038036028831e-014 0.0 1.0
outer loop
vertex 295.206075501958 806.390835581036 165.573857161732
vertex 301.706075501958 806.390835581035 165.573857161732
vertex 303.05226957967 807.423806627922 165.573857161732
endloop
endfacet
facet normal -1.24038036028831e-014 0.0 1.0
outer loop
vertex 295.206075501958 806.390835581036 165.573857161732
vertex 303.05226957967 807.423806627922 165.573857161732
vertex 293.859881424245 807.423806627922 165.573857161732
endloop
endfacet
facet normal -1.24038036028831e-014 0.0 1.0
outer loop
vertex 293.859881424245 807.423806627922 165.573857161732
vertex 303.05226957967 807.423806627922 165.573857161732
vertex 298.456075501958 807.770000705634 165.573857161732
endloop
endfacet
facet normal -1.24038036028831e-014 0.0 1.0
outer loop
vertex 298.456075501958 807.770000705634 165.573857161732
vertex 303.05226957967 807.423806627922 165.573857161732
vertex 299.556056443643 807.914815943906 165.573857161732
endloop
endfacet
facet normal -1.24038036028831e-014 0.0 1.0
outer loop
vertex 299.556056443643 807.914815943906 165.573857161732
vertex 303.05226957967 807.423806627922 165.573857161732
vertex 304.085240626557 808.770000705634 165.573857161732
endloop
endfacet
facet normal -1.24038036028831e-014 0.0 1.0
outer loop
vertex 299.556056443643 807.914815943906 165.573857161732
vertex 304.085240626557 808.770000705634 165.573857161732
vertex 300.581075501958 808.33939273955 165.573857161732
endloop
endfacet
facet normal -1.24038036028831e-014 0.0 1.0
outer loop
vertex 300.581075501958 808.33939273955 165.573857161732
vertex 304.085240626557 808.770000705634 165.573857161732
vertex 301.461279322001 809.014796885592 165.573857161732
endloop
endfacet
facet normal -1.24038036028831e-014 0.0 1.0
outer loop
vertex 301.461279322001 809.014796885592 165.573857161732
vertex 304.085240626557 808.770000705634 165.573857161732
vertex 304.734593372837 810.337676912468 165.573857161732
endloop
endfacet
facet normal -1.24038036028831e-014 0.0 1.0
outer loop
vertex 301.461279322001 809.014796885592 165.573857161732
vertex 304.734593372837 810.337676912468 165.573857161732
vertex 302.136683468042 809.895000705634 165.573857161732
endloop
endfacet
facet normal -1.24038036028831e-014 0.0 1.0
outer loop
vertex 302.136683468042 809.895000705634 165.573857161732
vertex 304.734593372837 810.337676912468 165.573857161732
vertex 302.561260263686 810.920019763949 165.573857161732
endloop
endfacet
facet normal -1.24038036028831e-014 0.0 1.0
outer loop
vertex 302.561260263686 810.920019763949 165.573857161732
vertex 304.734593372837 810.337676912468 165.573857161732
vertex 304.956075501958 812.020000705634 165.573857161732
endloop
endfacet
facet normal -1.24038036028831e-014 0.0 1.0
outer loop
vertex 302.561260263686 810.920019763949 165.573857161732
vertex 304.956075501958 812.020000705634 165.573857161732
vertex 302.706075501958 812.020000705634 165.573857161732
endloop
endfacet
facet normal -1.24038036028831e-014 0.0 1.0
outer loop
vertex 302.706075501958 812.020000705634 165.573857161732
vertex 304.956075501958 812.020000705634 165.573857161732
vertex 304.734593372837 813.702324498801 165.573857161732
endloop
endfacet
facet normal -1.24038036028831e-014 0.0 1.0
outer loop
vertex 302.706075501958 812.020000705634 165.573857161732
vertex 304.734593372837 813.702324498801 165.573857161732
vertex 302.561260263686 813.11998164732 165.573857161732
endloop
endfacet
facet normal -1.24038036028831e-014 0.0 1.0
outer loop
vertex 302.561260263686 813.11998164732 165.573857161732
vertex 304.734593372837 813.702324498801 165.573857161732
vertex 302.136683468042 814.145000705634 165.573857161732
endloop
endfacet
facet normal -1.24038036028831e-014 0.0 1.0
outer loop
vertex 302.136683468042 814.145000705634 165.573857161732
vertex 304.734593372837 813.702324498801 165.573857161732
vertex 304.085240626557 815.270000705634 165.573857161732
endloop
endfacet
facet normal -1.24038036028831e-014 0.0 1.0
outer loop
vertex 302.136683468042 814.145000705634 165.573857161732
vertex 304.085240626557 815.270000705634 165.573857161732
vertex 301.461279322001 815.025204525677 165.573857161732
endloop
endfacet
facet normal -1.24038036028831e-014 0.0 1.0
outer loop
vertex 301.461279322001 815.025204525677 165.573857161732
vertex 304.085240626557 815.270000705634 165.573857161732
vertex 300.581075501958 815.700608671718 165.573857161732
endloop
endfacet
facet normal -1.24038036028831e-014 0.0 1.0
outer loop
vertex 300.581075501958 815.700608671718 165.573857161732
vertex 304.085240626557 815.270000705634 165.573857161732
vertex 303.05226957967 816.616194783347 165.573857161732
endloop
endfacet
facet normal -1.24038036028831e-014 0.0 1.0
outer loop
vertex 300.581075501958 815.700608671718 165.573857161732
vertex 303.05226957967 816.616194783347 165.573857161732
vertex 299.556056443643 816.125185467363 165.573857161732
endloop
endfacet
facet normal -1.24038036028831e-014 0.0 1.0
outer loop
vertex 299.556056443643 816.125185467363 165.573857161732
vertex 303.05226957967 816.616194783347 165.573857161732
vertex 298.456075501958 816.270000705634 165.573857161732
endloop
endfacet
facet normal -1.24038036028831e-014 0.0 1.0
outer loop
vertex 293.859881424245 807.423806627922 165.573857161732
vertex 297.356094560272 807.914815943906 165.573857161732
vertex 292.826910377359 808.770000705634 165.573857161732
endloop
endfacet
facet normal -1.24038036028831e-014 0.0 1.0
outer loop
vertex 297.356094560272 807.914815943906 165.573857161732
vertex 293.859881424245 807.423806627922 165.573857161732
vertex 298.456075501958 807.770000705634 165.573857161732
endloop
endfacet
facet normal -1.24038036028831e-014 0.0 1.0
outer loop
vertex 292.826910377359 808.770000705634 165.573857161732
vertex 297.356094560272 807.914815943906 165.573857161732
vertex 296.331075501958 808.33939273955 165.573857161732
endloop
endfacet
facet normal -1.24038036028831e-014 0.0 1.0
outer loop
vertex 292.826910377359 808.770000705634 165.573857161732
vertex 296.331075501958 808.33939273955 165.573857161732
vertex 295.450871681915 809.014796885592 165.573857161732
endloop
endfacet
facet normal -1.24038036028831e-014 0.0 1.0
outer loop
vertex 292.826910377359 808.770000705634 165.573857161732
vertex 295.450871681915 809.014796885592 165.573857161732
vertex 292.177557631079 810.337676912468 165.573857161732
endloop
endfacet
facet normal -1.24038036028831e-014 0.0 1.0
outer loop
vertex 292.177557631079 810.337676912468 165.573857161732
vertex 295.450871681915 809.014796885592 165.573857161732
vertex 294.775467535874 809.895000705634 165.573857161732
endloop
endfacet
facet normal -1.24038036028831e-014 0.0 1.0
outer loop
vertex 292.177557631079 810.337676912468 165.573857161732
vertex 294.775467535874 809.895000705634 165.573857161732
vertex 294.350890740229 810.920019763949 165.573857161732
endloop
endfacet
facet normal -1.24038036028831e-014 0.0 1.0
outer loop
vertex 292.177557631079 810.337676912468 165.573857161732
vertex 294.350890740229 810.920019763949 165.573857161732
vertex 291.956075501958 812.020000705634 165.573857161732
endloop
endfacet
facet normal -1.24038036028831e-014 0.0 1.0
outer loop
vertex 291.956075501958 812.020000705634 165.573857161732
vertex 294.350890740229 810.920019763949 165.573857161732
vertex 294.206075501958 812.020000705634 165.573857161732
endloop
endfacet
facet normal -1.24038036028831e-014 0.0 1.0
outer loop
vertex 291.956075501958 812.020000705634 165.573857161732
vertex 294.206075501958 812.020000705634 165.573857161732
vertex 294.350890740229 813.11998164732 165.573857161732
endloop
endfacet
facet normal -1.24038036028831e-014 0.0 1.0
outer loop
vertex 291.956075501958 812.020000705634 165.573857161732
vertex 294.350890740229 813.11998164732 165.573857161732
vertex 292.177557631079 813.702324498801 165.573857161732
endloop
endfacet
facet normal -1.24038036028831e-014 0.0 1.0
outer loop
vertex 292.177557631079 813.702324498801 165.573857161732
vertex 294.350890740229 813.11998164732 165.573857161732
vertex 294.775467535874 814.145000705634 165.573857161732
endloop
endfacet
facet normal -1.24038036028831e-014 0.0 1.0
outer loop
vertex 292.177557631079 813.702324498801 165.573857161732
vertex 294.775467535874 814.145000705634 165.573857161732
vertex 292.826910377359 815.270000705634 165.573857161732
endloop
endfacet
facet normal -1.24038036028831e-014 0.0 1.0
outer loop
vertex 292.826910377359 815.270000705634 165.573857161732
vertex 294.775467535874 814.145000705634 165.573857161732
vertex 295.450871681915 815.025204525677 165.573857161732
endloop
endfacet
facet normal -1.24038036028831e-014 0.0 1.0
outer loop
vertex 292.826910377359 815.270000705634 165.573857161732
vertex 295.450871681915 815.025204525677 165.573857161732
vertex 296.331075501958 815.700608671718 165.573857161732
endloop
endfacet
facet normal -1.24038036028831e-014 0.0 1.0
outer loop
vertex 292.826910377359 815.270000705634 165.573857161732
vertex 296.331075501958 815.700608671718 165.573857161732
vertex 293.859881424245 816.616194783347 165.573857161732
endloop
endfacet
facet normal -1.24038036028831e-014 0.0 1.0
outer loop
vertex 293.859881424245 816.616194783347 165.573857161732
vertex 296.331075501958 815.700608671718 165.573857161732
vertex 297.356094560272 816.125185467363 165.573857161732
endloop
endfacet
facet normal -1.24038036028831e-014 0.0 1.0
outer loop
vertex 293.859881424245 816.616194783347 165.573857161732
vertex 297.356094560272 816.125185467363 165.573857161732
vertex 298.456075501958 816.270000705634 165.573857161732
endloop
endfacet
facet normal -1.24038036028831e-014 0.0 1.0
outer loop
vertex 293.859881424245 816.616194783347 165.573857161732
vertex 298.456075501958 816.270000705634 165.573857161732
vertex 303.05226957967 816.616194783347 165.573857161732
endloop
endfacet
facet normal -1.24038036028831e-014 0.0 1.0
outer loop
vertex 293.859881424245 816.616194783347 165.573857161732
vertex 303.05226957967 816.616194783347 165.573857161732
vertex 301.706075501958 817.649165830233 165.573857161732
endloop
endfacet
facet normal -1.24038036028831e-014 0.0 1.0
outer loop
vertex 293.859881424245 816.616194783347 165.573857161732
vertex 301.706075501958 817.649165830233 165.573857161732
vertex 295.206075501958 817.649165830233 165.573857161732
endloop
endfacet
facet normal -1.24038036028831e-014 0.0 1.0
outer loop
vertex 295.206075501958 817.649165830233 165.573857161732
vertex 301.706075501958 817.649165830233 165.573857161732
vertex 300.138399295124 818.298518576513 165.573857161732
endloop
endfacet
facet normal -1.24038036028831e-014 0.0 1.0
outer loop
vertex 295.206075501958 817.649165830233 165.573857161732
vertex 300.138399295124 818.298518576513 165.573857161732
vertex 296.773751708791 818.298518576513 165.573857161732
endloop
endfacet
facet normal -1.24038036028831e-014 0.0 1.0
outer loop
vertex 296.773751708791 818.298518576513 165.573857161732
vertex 300.138399295124 818.298518576513 165.573857161732
vertex 298.456075501958 818.520000705634 165.573857161732
endloop
endfacet
facet normal 0.79335334029124 -0.608761429008714 9.84059902066342e-015
outer loop
vertex 294.775467535874 814.145000705634 165.573857161732
vertex 295.450871681915 815.025204525677 162.573857161732
vertex 295.450871681915 815.025204525677 165.573857161732
endloop
endfacet
facet normal 0.79335334029124 -0.608761429008714 9.84059902066342e-015
outer loop
vertex 295.450871681915 815.025204525677 162.573857161732
vertex 294.775467535874 814.145000705634 165.573857161732
vertex 294.775467535874 814.145000705634 162.573857161732
endloop
endfacet
facet normal 0.923879532511271 -0.382683432365129 1.14642844869411e-014
outer loop
vertex 294.350890740229 813.11998164732 162.573857161732
vertex 294.775467535874 814.145000705634 165.573857161732
vertex 294.350890740229 813.11998164732 165.573857161732
endloop
endfacet
facet normal 0.923879532511271 -0.382683432365129 1.14642844869411e-014
outer loop
vertex 294.775467535874 814.145000705634 165.573857161732
vertex 294.350890740229 813.11998164732 162.573857161732
vertex 294.775467535874 814.145000705634 162.573857161732
endloop
endfacet
facet normal 0.991444861373811 -0.130526192220047 1.22976873435683e-014
outer loop
vertex 294.206075501958 812.020000705634 162.573857161732
vertex 294.350890740229 813.11998164732 165.573857161732
vertex 294.206075501958 812.020000705634 165.573857161732
endloop
endfacet
facet normal 0.991444861373811 -0.130526192220047 1.22976873435683e-014
outer loop
vertex 294.350890740229 813.11998164732 165.573857161732
vertex 294.206075501958 812.020000705634 162.573857161732
vertex 294.350890740229 813.11998164732 162.573857161732
endloop
endfacet
facet normal 0.991444861373811 0.130526192220047 1.22976873435684e-014
outer loop
vertex 294.350890740229 810.920019763949 162.573857161732
vertex 294.206075501958 812.020000705634 165.573857161732
vertex 294.350890740229 810.920019763949 165.573857161732
endloop
endfacet
facet normal 0.991444861373811 0.130526192220047 1.22976873435684e-014
outer loop
vertex 294.206075501958 812.020000705634 165.573857161732
vertex 294.350890740229 810.920019763949 162.573857161732
vertex 294.206075501958 812.020000705634 162.573857161732
endloop
endfacet
facet normal 0.923879532511283 0.3826834323651 1.14642844869414e-014
outer loop
vertex 294.775467535874 809.895000705634 165.573857161732
vertex 294.350890740229 810.920019763949 162.573857161732
vertex 294.350890740229 810.920019763949 165.573857161732
endloop
endfacet
facet normal 0.923879532511283 0.3826834323651 1.14642844869414e-014
outer loop
vertex 294.350890740229 810.920019763949 162.573857161732
vertex 294.775467535874 809.895000705634 165.573857161732
vertex 294.775467535874 809.895000705634 162.573857161732
endloop
endfacet
facet normal 0.79335334029124 0.608761429008715 9.84059902066382e-015
outer loop
vertex 295.450871681915 809.014796885592 162.573857161732
vertex 294.775467535874 809.895000705634 165.573857161732
vertex 295.450871681915 809.014796885592 165.573857161732
endloop
endfacet
facet normal 0.79335334029124 0.608761429008715 9.84059902066382e-015
outer loop
vertex 294.775467535874 809.895000705634 165.573857161732
vertex 295.450871681915 809.014796885592 162.573857161732
vertex 294.775467535874 809.895000705634 162.573857161732
endloop
endfacet
facet normal 0.608761429008724 0.793353340291233 7.55431893382239e-015
outer loop
vertex 296.331075501958 808.33939273955 165.573857161732
vertex 295.450871681915 809.014796885592 162.573857161732
vertex 295.450871681915 809.014796885592 165.573857161732
endloop
endfacet
facet normal 0.608761429008724 0.793353340291233 7.55431893382239e-015
outer loop
vertex 295.450871681915 809.014796885592 162.573857161732
vertex 296.331075501958 808.33939273955 165.573857161732
vertex 296.331075501958 808.33939273955 162.573857161732
endloop
endfacet
facet normal 0.382683432365041 0.923879532511307 4.74673013713224e-015
outer loop
vertex 297.356094560272 807.914815943906 165.573857161732
vertex 296.331075501958 808.33939273955 162.573857161732
vertex 296.331075501958 808.33939273955 165.573857161732
endloop
endfacet
facet normal 0.382683432365041 0.923879532511307 4.74673013713224e-015
outer loop
vertex 296.331075501958 808.33939273955 162.573857161732
vertex 297.356094560272 807.914815943906 165.573857161732
vertex 297.356094560272 807.914815943906 162.573857161732
endloop
endfacet
facet normal 0.608761429008724 -0.793353340291232 7.55095720643524e-015
outer loop
vertex 295.450871681915 815.025204525677 162.573857161732
vertex 296.331075501958 815.700608671718 165.573857161732
vertex 295.450871681915 815.025204525677 165.573857161732
endloop
endfacet
facet normal 0.608761429008724 -0.793353340291232 7.55095720643524e-015
outer loop
vertex 296.331075501958 815.700608671718 165.573857161732
vertex 295.450871681915 815.025204525677 162.573857161732
vertex 296.331075501958 815.700608671718 162.573857161732
endloop
endfacet
facet normal 0.130526192220089 0.991444861373806 1.6204628475387e-015
outer loop
vertex 298.456075501958 807.770000705634 165.573857161732
vertex 297.356094560272 807.914815943906 162.573857161732
vertex 297.356094560272 807.914815943906 165.573857161732
endloop
endfacet
facet normal 0.130526192220089 0.991444861373806 1.6204628475387e-015
outer loop
vertex 297.356094560272 807.914815943906 162.573857161732
vertex 298.456075501958 807.770000705634 165.573857161732
vertex 298.456075501958 807.770000705634 162.573857161732
endloop
endfacet
facet normal -0.130526192220089 0.991444861373806 -1.61621090972996e-015
outer loop
vertex 299.556056443643 807.914815943906 165.573857161732
vertex 298.456075501958 807.770000705634 162.573857161732
vertex 298.456075501958 807.770000705634 165.573857161732
endloop
endfacet
facet normal -0.130526192220089 0.991444861373806 -1.61621090972996e-015
outer loop
vertex 298.456075501958 807.770000705634 162.573857161732
vertex 299.556056443643 807.914815943906 165.573857161732
vertex 299.556056443644 807.914815943906 162.573857161732
endloop
endfacet
facet normal -0.382683432365041 0.923879532511307 -4.74928107989919e-015
outer loop
vertex 300.581075501958 808.33939273955 165.573857161732
vertex 299.556056443644 807.914815943906 162.573857161732
vertex 299.556056443643 807.914815943906 165.573857161732
endloop
endfacet
facet normal -0.382683432365041 0.923879532511307 -4.74928107989919e-015
outer loop
vertex 299.556056443644 807.914815943906 162.573857161732
vertex 300.581075501958 808.33939273955 165.573857161732
vertex 300.581075501958 808.33939273955 162.573857161732
endloop
endfacet
facet normal -0.608761429008724 0.793353340291232 -7.55095720643463e-015
outer loop
vertex 301.461279322001 809.014796885592 165.573857161732
vertex 300.581075501958 808.33939273955 162.573857161732
vertex 300.581075501958 808.33939273955 165.573857161732
endloop
endfacet
facet normal -0.608761429008724 0.793353340291232 -7.55095720643463e-015
outer loop
vertex 300.581075501958 808.33939273955 162.573857161732
vertex 301.461279322001 809.014796885592 165.573857161732
vertex 301.461279322001 809.014796885592 162.573857161732
endloop
endfacet
facet normal -0.79335334029124 0.608761429008715 -9.84059902066382e-015
outer loop
vertex 302.136683468042 809.895000705634 162.573857161732
vertex 301.461279322001 809.014796885592 165.573857161732
vertex 302.136683468042 809.895000705634 165.573857161732
endloop
endfacet
facet normal -0.79335334029124 0.608761429008715 -9.84059902066382e-015
outer loop
vertex 301.461279322001 809.014796885592 165.573857161732
vertex 302.136683468042 809.895000705634 162.573857161732
vertex 301.461279322001 809.014796885592 162.573857161732
endloop
endfacet
facet normal -0.923879532511283 0.3826834323651 -1.14549560610459e-014
outer loop
vertex 302.561260263686 810.920019763949 162.573857161732
vertex 302.136683468042 809.895000705634 165.573857161732
vertex 302.561260263686 810.920019763949 165.573857161732
endloop
endfacet
facet normal -0.923879532511283 0.3826834323651 -1.14549560610459e-014
outer loop
vertex 302.136683468042 809.895000705634 165.573857161732
vertex 302.561260263686 810.920019763949 162.573857161732
vertex 302.136683468042 809.895000705634 162.573857161732
endloop
endfacet
facet normal -0.991444861373811 0.130526192220047 -1.22976873435684e-014
outer loop
vertex 302.706075501958 812.020000705634 162.573857161732
vertex 302.561260263686 810.920019763949 165.573857161732
vertex 302.706075501958 812.020000705634 165.573857161732
endloop
endfacet
facet normal -0.991444861373811 0.130526192220047 -1.22976873435684e-014
outer loop
vertex 302.561260263686 810.920019763949 165.573857161732
vertex 302.706075501958 812.020000705634 162.573857161732
vertex 302.561260263686 810.920019763949 162.573857161732
endloop
endfacet
facet normal -0.991444861373811 -0.130526192220047 -1.22976873435685e-014
outer loop
vertex 302.561260263686 813.11998164732 162.573857161732
vertex 302.706075501958 812.020000705634 165.573857161732
vertex 302.561260263686 813.11998164732 165.573857161732
endloop
endfacet
facet normal -0.991444861373811 -0.130526192220047 -1.22976873435685e-014
outer loop
vertex 302.706075501958 812.020000705634 165.573857161732
vertex 302.561260263686 813.11998164732 162.573857161732
vertex 302.706075501958 812.020000705634 162.573857161732
endloop
endfacet
facet normal -0.923879532511295 -0.382683432365071 -1.14642844869407e-014
outer loop
vertex 302.136683468042 814.145000705634 162.573857161732
vertex 302.561260263686 813.11998164732 165.573857161732
vertex 302.136683468042 814.145000705634 165.573857161732
endloop
endfacet
facet normal -0.923879532511295 -0.382683432365071 -1.14642844869407e-014
outer loop
vertex 302.561260263686 813.11998164732 165.573857161732
vertex 302.136683468042 814.145000705634 162.573857161732
vertex 302.561260263686 813.11998164732 162.573857161732
endloop
endfacet
facet normal -0.79335334029118 -0.608761429008793 -9.84059902066308e-015
outer loop
vertex 301.461279322001 815.025204525677 162.573857161732
vertex 302.136683468042 814.145000705634 165.573857161732
vertex 301.461279322001 815.025204525677 165.573857161732
endloop
endfacet
facet normal -0.79335334029118 -0.608761429008793 -9.84059902066308e-015
outer loop
vertex 302.136683468042 814.145000705634 165.573857161732
vertex 301.461279322001 815.025204525677 162.573857161732
vertex 302.136683468042 814.145000705634 162.573857161732
endloop
endfacet
facet normal -0.608761429008724 -0.793353340291233 -7.55095720643515e-015
outer loop
vertex 300.581075501958 815.700608671718 162.573857161732
vertex 301.461279322001 815.025204525677 165.573857161732
vertex 300.581075501958 815.700608671718 165.573857161732
endloop
endfacet
facet normal -0.608761429008724 -0.793353340291233 -7.55095720643515e-015
outer loop
vertex 301.461279322001 815.025204525677 165.573857161732
vertex 300.581075501958 815.700608671718 162.573857161732
vertex 301.461279322001 815.025204525677 162.573857161732
endloop
endfacet
facet normal -0.38268343236511 -0.923879532511278 -4.74673013713287e-015
outer loop
vertex 299.556056443644 816.125185467363 162.573857161732
vertex 300.581075501958 815.700608671718 165.573857161732
vertex 299.556056443643 816.125185467363 165.573857161732
endloop
endfacet
facet normal -0.38268343236511 -0.923879532511278 -4.74673013713287e-015
outer loop
vertex 300.581075501958 815.700608671718 165.573857161732
vertex 299.556056443644 816.125185467363 162.573857161732
vertex 300.581075501958 815.700608671718 162.573857161732
endloop
endfacet
facet normal -0.130526192220089 -0.991444861373806 -1.61621090972993e-015
outer loop
vertex 298.456075501958 816.270000705634 162.573857161732
vertex 299.556056443643 816.125185467363 165.573857161732
vertex 298.456075501958 816.270000705634 165.573857161732
endloop
endfacet
facet normal -0.130526192220089 -0.991444861373806 -1.61621090972993e-015
outer loop
vertex 299.556056443643 816.125185467363 165.573857161732
vertex 298.456075501958 816.270000705634 162.573857161732
vertex 299.556056443644 816.125185467363 162.573857161732
endloop
endfacet
facet normal 0.130526192220089 -0.991444861373806 1.61621090972993e-015
outer loop
vertex 297.356094560272 816.125185467363 162.573857161732
vertex 298.456075501958 816.270000705634 165.573857161732
vertex 297.356094560272 816.125185467363 165.573857161732
endloop
endfacet
facet normal 0.130526192220089 -0.991444861373806 1.61621090972993e-015
outer loop
vertex 298.456075501958 816.270000705634 165.573857161732
vertex 297.356094560272 816.125185467363 162.573857161732
vertex 298.456075501958 816.270000705634 162.573857161732
endloop
endfacet
facet normal 0.38268343236511 -0.923879532511278 4.746730137134e-015
outer loop
vertex 296.331075501958 815.700608671718 162.573857161732
vertex 297.356094560272 816.125185467363 165.573857161732
vertex 296.331075501958 815.700608671718 165.573857161732
endloop
endfacet
facet normal 0.38268343236511 -0.923879532511278 4.746730137134e-015
outer loop
vertex 297.356094560272 816.125185467363 165.573857161732
vertex 296.331075501958 815.700608671718 162.573857161732
vertex 297.356094560272 816.125185467363 162.573857161732
endloop
endfacet
endsolid Main Design
