solid Main Design
facet normal 0.499999999999904 0.866025403784494 6.14692736666253e-014
outer loop
vertex 214.456081097965 1984.44476580393 7.00000000000154
vertex 214.041867535592 1984.76260304912 2.00000000000162
vertex 214.041867535592 1984.76260304912 7.00000000000156
endloop
endfacet
facet normal 0.707106781186553 0.707106781186542 5.35244644282041e-014
outer loop
vertex 214.041867535592 1984.76260304912 2.00000000000162
vertex 214.456081097965 1984.44476580393 7.00000000000154
vertex 214.456081097965 1984.44476580393 2.0000000000016
endloop
endfacet
facet normal 0.866025403784389 0.500000000000086 4.4905940757174e-014
outer loop
vertex 213.724030290397 1985.17681661149 2.00000000000164
vertex 213.524229445387 1985.65917852129 7.0000000000009
vertex 213.724030290397 1985.17681661149 7.00000000000159
endloop
endfacet
facet normal 0.965925826289027 0.258819045102676 3.12659017423542e-014
outer loop
vertex 213.524229445387 1985.65917852129 7.0000000000009
vertex 213.724030290397 1985.17681661149 2.00000000000164
vertex 213.524229445387 1985.65917852129 2.00000000000059
endloop
endfacet
facet normal 0.2588190451026 -0.965925826289047 -5.47750858454515e-014
outer loop
vertex 227.938443007761 1988.10866826407 2.00000000000219
vertex 228.456081097965 1988.1768166115 7.00000000000214
vertex 227.93844300776 1988.10866826407 7.00000000000213
endloop
endfacet
facet normal 1.3150124873006e-013 -1.0 -6.21589613331342e-014
outer loop
vertex 228.456081097965 1988.1768166115 7.00000000000214
vertex 227.938443007761 1988.10866826407 2.00000000000219
vertex 228.456081097966 1988.1768166115 2.00000000000219
endloop
endfacet
facet normal -0.707106781186571 -0.707106781186524 -5.03332420608412e-014
outer loop
vertex 229.870294660339 1987.59103017387 2.00000000000216
vertex 230.188131905534 1987.1768166115 7.00000000000207
vertex 229.870294660339 1987.59103017387 7.0000000000021
endloop
endfacet
facet normal -0.866025403784354 -0.500000000000147 -4.30980690649995e-014
outer loop
vertex 230.188131905534 1987.1768166115 7.00000000000207
vertex 229.870294660339 1987.59103017387 2.00000000000216
vertex 230.188131905534 1987.1768166115 2.00000000000213
endloop
endfacet
facet normal -0.866025403784354 -0.500000000000147 -4.30980690649994e-014
outer loop
vertex 230.188131905534 1987.1768166115 2.00000000000213
vertex 230.387932750544 1986.6944547017 7.00000000000204
vertex 230.188131905534 1987.1768166115 7.00000000000207
endloop
endfacet
facet normal -0.965925826289023 -0.258819045102688 -3.35200521681482e-014
outer loop
vertex 230.387932750544 1986.6944547017 7.00000000000204
vertex 230.188131905534 1987.1768166115 2.00000000000213
vertex 230.387932750544 1986.6944547017 2.0000000000021
endloop
endfacet
facet normal -0.965925826289024 -0.258819045102687 -3.35200521681481e-014
outer loop
vertex 230.387932750544 1986.6944547017 2.0000000000021
vertex 230.456081097966 1986.1768166115 7.00000000000201
vertex 230.387932750544 1986.6944547017 7.00000000000204
endloop
endfacet
facet normal -1.0 -1.28524938024908e-013 -1.80477331647184e-014
outer loop
vertex 230.456081097966 1986.1768166115 7.00000000000201
vertex 230.387932750544 1986.6944547017 2.0000000000021
vertex 230.456081097966 1986.1768166115 2.00000000000207
endloop
endfacet
facet normal 1.31434959534404e-013 -1.0 -6.2158611591198e-014
outer loop
vertex 210.456081097966 1981.1768166115 2.00000000000031
vertex 233.456081097966 1981.1768166115 7.00000000000134
vertex 210.456081097966 1981.1768166115 7.00000000000062
endloop
endfacet
facet normal 1.31434959534404e-013 -1.0 -6.2158611591198e-014
outer loop
vertex 233.456081097966 1981.1768166115 7.00000000000134
vertex 210.456081097966 1981.1768166115 2.00000000000031
vertex 233.456081097966 1981.1768166115 2.00000000000139
endloop
endfacet
facet normal 1.0 1.24078525232109e-013 2.25597318603911e-014
outer loop
vertex 233.456081097966 1981.1768166115 2.00000000000139
vertex 233.456081097965 1991.1768166115 7.00000000000196
vertex 233.456081097966 1981.1768166115 7.00000000000134
endloop
endfacet
facet normal 1.0 1.24078525232109e-013 2.25597318603911e-014
outer loop
vertex 233.456081097965 1991.1768166115 7.00000000000196
vertex 233.456081097966 1981.1768166115 2.00000000000139
vertex 233.456081097965 1991.1768166115 2.00000000000202
endloop
endfacet
facet normal 0.499999999999904 0.866025403784494 6.00854466531594e-014
outer loop
vertex 227.456081097966 1984.44476580393 7.00000000000191
vertex 227.041867535593 1984.76260304912 2.00000000000198
vertex 227.041867535593 1984.76260304912 7.00000000000192
endloop
endfacet
facet normal 0.707106781186534 0.707106781186561 5.39432169039598e-014
outer loop
vertex 227.041867535593 1984.76260304912 2.00000000000198
vertex 227.456081097966 1984.44476580393 7.00000000000191
vertex 227.456081097966 1984.44476580393 2.00000000000196
endloop
endfacet
facet normal 0.258819045102366 0.96592582628911 6.53057809370315e-014
outer loop
vertex 227.938443007761 1984.24496495892 7.00000000000189
vertex 227.456081097966 1984.44476580393 2.00000000000196
vertex 227.456081097966 1984.44476580393 7.00000000000191
endloop
endfacet
facet normal 0.499999999999903 0.866025403784495 6.00854466531594e-014
outer loop
vertex 227.456081097966 1984.44476580393 2.00000000000196
vertex 227.938443007761 1984.24496495892 7.00000000000189
vertex 227.938443007761 1984.24496495892 2.00000000000195
endloop
endfacet
facet normal -1.25521893990081e-013 1.0 6.21582618492608e-014
outer loop
vertex 228.456081097966 1984.1768166115 7.00000000000189
vertex 227.938443007761 1984.24496495892 2.00000000000195
vertex 227.938443007761 1984.24496495892 7.00000000000189
endloop
endfacet
facet normal 0.258819045102361 0.965925826289111 6.53057809370315e-014
outer loop
vertex 227.938443007761 1984.24496495892 2.00000000000195
vertex 228.456081097966 1984.1768166115 7.00000000000189
vertex 228.456081097966 1984.1768166115 2.00000000000194
endloop
endfacet
facet normal 0.707106781186553 0.707106781186542 5.35244644282041e-014
outer loop
vertex 214.041867535592 1984.76260304912 2.00000000000162
vertex 213.724030290397 1985.17681661149 7.00000000000159
vertex 214.041867535592 1984.76260304912 7.00000000000156
endloop
endfacet
facet normal 0.866025403784317 0.500000000000211 4.49059407571785e-014
outer loop
vertex 213.724030290397 1985.17681661149 7.00000000000159
vertex 214.041867535592 1984.76260304912 2.00000000000162
vertex 213.724030290397 1985.17681661149 2.00000000000164
endloop
endfacet
facet normal 0.965925826289064 0.258819045102537 3.12659017423438e-014
outer loop
vertex 213.524229445387 1985.65917852129 2.00000000000059
vertex 213.456081097965 1986.17681661149 7.00000000000093
vertex 213.524229445387 1985.65917852129 7.0000000000009
endloop
endfacet
facet normal 1.0 1.28551671354594e-013 1.35357124380544e-014
outer loop
vertex 213.456081097965 1986.17681661149 7.00000000000093
vertex 213.524229445387 1985.65917852129 2.00000000000059
vertex 213.456081097965 1986.17681661149 2.00000000000062
endloop
endfacet
facet normal -0.866025403784342 -0.500000000000167 -4.09976244677024e-014
outer loop
vertex 217.188131905534 1987.1768166115 2.00000000000177
vertex 217.387932750543 1986.6944547017 7.00000000000168
vertex 217.188131905534 1987.17681661149 7.00000000000171
endloop
endfacet
facet normal -0.965925826289038 -0.258819045102635 -2.91630023676115e-014
outer loop
vertex 217.387932750543 1986.6944547017 7.00000000000168
vertex 217.188131905534 1987.1768166115 2.00000000000177
vertex 217.387932750543 1986.6944547017 2.00000000000174
endloop
endfacet
facet normal -0.965925826289094 0.258819045102424 9.11738267631515e-016
outer loop
vertex 217.387932750544 1985.65917852129 2.00000000000167
vertex 217.188131905534 1985.1768166115 7.00000000000159
vertex 217.387932750543 1985.65917852129 7.00000000000162
endloop
endfacet
facet normal -0.866025403784479 0.499999999999931 1.72555564502368e-014
outer loop
vertex 217.188131905534 1985.1768166115 7.00000000000159
vertex 217.387932750544 1985.65917852129 2.00000000000167
vertex 217.188131905534 1985.1768166115 2.00000000000164
endloop
endfacet
facet normal 0.965925826289086 -0.258819045102455 -3.01375856349168e-015
outer loop
vertex 213.524229445387 1986.6944547017 7.00000000000096
vertex 213.724030290396 1987.17681661149 2.00000000000177
vertex 213.724030290396 1987.17681661149 7.00000000000171
endloop
endfacet
facet normal 0.866025403784521 -0.499999999999857 -2.11627634961228e-014
outer loop
vertex 213.724030290396 1987.17681661149 2.00000000000177
vertex 213.524229445387 1986.6944547017 7.00000000000096
vertex 213.524229445387 1986.6944547017 2.00000000000065
endloop
endfacet
facet normal 1.0 1.28551671354594e-013 1.35357124380544e-014
outer loop
vertex 213.456081097965 1986.17681661149 2.00000000000062
vertex 213.524229445387 1986.6944547017 7.00000000000096
vertex 213.456081097965 1986.17681661149 7.00000000000093
endloop
endfacet
facet normal 0.965925826289086 -0.258819045102455 -3.01375856349168e-015
outer loop
vertex 213.524229445387 1986.6944547017 7.00000000000096
vertex 213.456081097965 1986.17681661149 2.00000000000062
vertex 213.524229445387 1986.6944547017 2.00000000000065
endloop
endfacet
facet normal -0.965925826289038 -0.258819045102634 -2.91630023676114e-014
outer loop
vertex 217.387932750543 1986.6944547017 2.00000000000174
vertex 217.456081097965 1986.17681661149 7.00000000000165
vertex 217.387932750543 1986.6944547017 7.00000000000168
endloop
endfacet
facet normal -1.0 -1.34174581698747e-013 -1.35353440828608e-014
outer loop
vertex 217.456081097965 1986.17681661149 7.00000000000165
vertex 217.387932750543 1986.6944547017 2.00000000000174
vertex 217.456081097965 1986.1768166115 2.00000000000171
endloop
endfacet
facet normal -0.707106781186559 -0.707106781186536 -5.03352205000033e-014
outer loop
vertex 216.870294660338 1987.59103017387 2.00000000000179
vertex 217.188131905534 1987.17681661149 7.00000000000171
vertex 216.870294660338 1987.59103017387 7.00000000000174
endloop
endfacet
facet normal -0.866025403784342 -0.500000000000168 -4.09976244677024e-014
outer loop
vertex 217.188131905534 1987.17681661149 7.00000000000171
vertex 216.870294660338 1987.59103017387 2.00000000000179
vertex 217.188131905534 1987.1768166115 2.00000000000177
endloop
endfacet
facet normal -1.25521893990081e-013 1.0 6.21589613331355e-014
outer loop
vertex 215.456081097965 1984.17681661149 7.00000000000153
vertex 214.93844300776 1984.24496495892 2.00000000000159
vertex 214.93844300776 1984.24496495892 7.00000000000153
endloop
endfacet
facet normal 0.258819045102364 0.96592582628911 6.47126918450726e-014
outer loop
vertex 214.93844300776 1984.24496495892 2.00000000000159
vertex 215.456081097965 1984.17681661149 7.00000000000153
vertex 215.456081097966 1984.17681661149 2.00000000000158
endloop
endfacet
facet normal 0.258819045102589 -0.96592582628905 -5.62402327665477e-014
outer loop
vertex 214.93844300776 1988.10866826407 2.00000000000183
vertex 215.456081097965 1988.17681661149 7.00000000000178
vertex 214.93844300776 1988.10866826407 7.00000000000177
endloop
endfacet
facet normal 1.3150124873006e-013 -1.0 -6.21582618492618e-014
outer loop
vertex 215.456081097965 1988.17681661149 7.00000000000178
vertex 214.93844300776 1988.10866826407 2.00000000000183
vertex 215.456081097965 1988.17681661149 2.00000000000183
endloop
endfacet
facet normal -1.0 -1.34165670588852e-013 -1.35353440828608e-014
outer loop
vertex 217.456081097965 1986.1768166115 2.00000000000171
vertex 217.387932750543 1985.65917852129 7.00000000000162
vertex 217.456081097965 1986.17681661149 7.00000000000165
endloop
endfacet
facet normal -0.965925826289094 0.258819045102425 9.11738267631588e-016
outer loop
vertex 217.387932750543 1985.65917852129 7.00000000000162
vertex 217.456081097965 1986.1768166115 2.00000000000171
vertex 217.387932750544 1985.65917852129 2.00000000000167
endloop
endfacet
facet normal 0.866025403784521 -0.499999999999857 -2.11627634961228e-014
outer loop
vertex 213.724030290396 1987.17681661149 2.00000000000177
vertex 214.041867535592 1987.59103017387 7.00000000000174
vertex 213.724030290396 1987.17681661149 7.00000000000171
endloop
endfacet
facet normal 0.707106781186771 -0.707106781186325 -3.75717109498044e-014
outer loop
vertex 214.041867535592 1987.59103017387 7.00000000000174
vertex 213.724030290396 1987.17681661149 2.00000000000177
vertex 214.041867535592 1987.59103017387 2.00000000000179
endloop
endfacet
facet normal -0.866025403784483 0.499999999999923 1.12450915346256e-014
outer loop
vertex 230.188131905535 1985.1768166115 2.00000000000201
vertex 229.870294660339 1984.76260304912 7.00000000000192
vertex 230.188131905535 1985.1768166115 7.00000000000195
endloop
endfacet
facet normal -0.707106781186785 0.70710678118631 3.39618136936666e-014
outer loop
vertex 229.870294660339 1984.76260304912 7.00000000000192
vertex 230.188131905535 1985.1768166115 2.00000000000201
vertex 229.870294660339 1984.76260304912 2.00000000000198
endloop
endfacet
facet normal -0.707106781186785 0.70710678118631 3.39618136936666e-014
outer loop
vertex 229.870294660339 1984.76260304912 7.00000000000192
vertex 229.456081097966 1984.44476580393 2.00000000000196
vertex 229.456081097966 1984.44476580393 7.00000000000191
endloop
endfacet
facet normal -0.50000000000011 0.866025403784375 4.75786847048367e-014
outer loop
vertex 229.456081097966 1984.44476580393 2.00000000000196
vertex 229.870294660339 1984.76260304912 7.00000000000192
vertex 229.870294660339 1984.76260304912 2.00000000000198
endloop
endfacet
facet normal -0.500000000000109 0.866025403784376 4.75786847048368e-014
outer loop
vertex 229.456081097966 1984.44476580393 7.00000000000191
vertex 228.973719188171 1984.24496495892 2.00000000000195
vertex 228.973719188171 1984.24496495892 7.00000000000189
endloop
endfacet
facet normal -0.258819045102587 0.965925826289051 5.47756258268473e-014
outer loop
vertex 228.973719188171 1984.24496495892 2.00000000000195
vertex 229.456081097966 1984.44476580393 7.00000000000191
vertex 229.456081097966 1984.44476580393 2.00000000000196
endloop
endfacet
facet normal -0.258819045102581 0.965925826289052 5.47756258268475e-014
outer loop
vertex 228.973719188171 1984.24496495892 7.00000000000189
vertex 228.456081097966 1984.1768166115 2.00000000000194
vertex 228.456081097966 1984.1768166115 7.00000000000189
endloop
endfacet
facet normal -1.31510159839956e-013 1.0 6.21582618492606e-014
outer loop
vertex 228.456081097966 1984.1768166115 2.00000000000194
vertex 228.973719188171 1984.24496495892 7.00000000000189
vertex 228.973719188171 1984.24496495892 2.00000000000195
endloop
endfacet
facet normal -0.258819045102385 -0.965925826289105 -6.53064804209054e-014
outer loop
vertex 228.973719188171 1988.10866826407 2.00000000000219
vertex 229.456081097966 1987.90886741907 7.00000000000212
vertex 228.97371918817 1988.10866826407 7.00000000000213
endloop
endfacet
facet normal -0.499999999999883 -0.866025403784506 -6.00845876668074e-014
outer loop
vertex 229.456081097966 1987.90886741907 7.00000000000212
vertex 228.973719188171 1988.10866826407 2.00000000000219
vertex 229.456081097966 1987.90886741907 2.00000000000217
endloop
endfacet
facet normal 0.500000000000116 -0.866025403784371 -4.84474167408029e-014
outer loop
vertex 214.456081097965 1987.90886741906 2.00000000000181
vertex 214.93844300776 1988.10866826407 7.00000000000177
vertex 214.456081097965 1987.90886741906 7.00000000000176
endloop
endfacet
facet normal 0.258819045102595 -0.965925826289049 -5.62402327665475e-014
outer loop
vertex 214.93844300776 1988.10866826407 7.00000000000177
vertex 214.456081097965 1987.90886741906 2.00000000000181
vertex 214.93844300776 1988.10866826407 2.00000000000183
endloop
endfacet
facet normal 0.70710678118677 -0.707106781186325 -3.75717109498044e-014
outer loop
vertex 214.041867535592 1987.59103017387 2.00000000000179
vertex 214.456081097965 1987.90886741906 7.00000000000176
vertex 214.041867535592 1987.59103017387 7.00000000000174
endloop
endfacet
facet normal 0.500000000000118 -0.866025403784371 -4.84474167408028e-014
outer loop
vertex 214.456081097965 1987.90886741906 7.00000000000176
vertex 214.041867535592 1987.59103017387 2.00000000000179
vertex 214.456081097965 1987.90886741906 2.00000000000181
endloop
endfacet
facet normal 0.500000000000135 -0.866025403784361 -4.75764267507368e-014
outer loop
vertex 227.456081097965 1987.90886741907 2.00000000000217
vertex 227.93844300776 1988.10866826407 7.00000000000213
vertex 227.456081097965 1987.90886741907 7.00000000000212
endloop
endfacet
facet normal 0.258819045102606 -0.965925826289046 -5.47750858454513e-014
outer loop
vertex 227.93844300776 1988.10866826407 7.00000000000213
vertex 227.456081097965 1987.90886741907 2.00000000000217
vertex 227.938443007761 1988.10866826407 2.00000000000219
endloop
endfacet
facet normal 0.707106781186761 -0.707106781186334 -3.75714504833482e-014
outer loop
vertex 227.041867535592 1987.59103017387 2.00000000000216
vertex 227.456081097965 1987.90886741907 7.00000000000212
vertex 227.041867535592 1987.59103017387 7.0000000000021
endloop
endfacet
facet normal 0.500000000000136 -0.86602540378436 -4.75764267507368e-014
outer loop
vertex 227.456081097965 1987.90886741907 7.00000000000212
vertex 227.041867535592 1987.59103017387 2.00000000000216
vertex 227.456081097965 1987.90886741907 2.00000000000217
endloop
endfacet
facet normal 1.25512982880186e-013 -1.0 -6.21589613331344e-014
outer loop
vertex 228.456081097966 1988.1768166115 2.00000000000219
vertex 228.97371918817 1988.10866826407 7.00000000000213
vertex 228.456081097965 1988.1768166115 7.00000000000214
endloop
endfacet
facet normal -0.25881904510238 -0.965925826289106 -6.53064804209054e-014
outer loop
vertex 228.97371918817 1988.10866826407 7.00000000000213
vertex 228.456081097966 1988.1768166115 2.00000000000219
vertex 228.973719188171 1988.10866826407 2.00000000000219
endloop
endfacet
facet normal 0.866025403784473 -0.49999999999994 -1.90601143786191e-014
outer loop
vertex 226.724030290397 1987.1768166115 2.00000000000213
vertex 227.041867535592 1987.59103017387 7.0000000000021
vertex 226.724030290397 1987.1768166115 7.00000000000207
endloop
endfacet
facet normal 0.707106781186762 -0.707106781186333 -3.75714504833482e-014
outer loop
vertex 227.041867535592 1987.59103017387 7.0000000000021
vertex 226.724030290397 1987.1768166115 2.00000000000213
vertex 227.041867535592 1987.59103017387 2.00000000000216
endloop
endfacet
facet normal 0.96592582628911 -0.258819045102366 1.34444696667302e-015
outer loop
vertex 226.524229445388 1986.6944547017 2.0000000000021
vertex 226.724030290397 1987.1768166115 7.00000000000207
vertex 226.524229445387 1986.6944547017 7.00000000000204
endloop
endfacet
facet normal 0.866025403784473 -0.49999999999994 -1.9060114378619e-014
outer loop
vertex 226.724030290397 1987.1768166115 7.00000000000207
vertex 226.524229445388 1986.6944547017 2.0000000000021
vertex 226.724030290397 1987.1768166115 2.00000000000213
endloop
endfacet
facet normal -3.13874530231413e-014 -6.21586115912048e-014 1.0
outer loop
vertex 226.456081097966 1982.4268166115 7.00000000000142
vertex 227.456081097966 1984.44476580393 7.00000000000191
vertex 226.456081097966 1984.9268166115 7.00000000000157
endloop
endfacet
facet normal -3.13874530231413e-014 -6.21586115912048e-014 1.0
outer loop
vertex 227.456081097966 1984.44476580393 7.00000000000191
vertex 226.456081097966 1982.4268166115 7.00000000000142
vertex 227.938443007761 1984.24496495892 7.00000000000189
endloop
endfacet
facet normal -3.13874530231413e-014 -6.21586115912048e-014 1.0
outer loop
vertex 227.938443007761 1984.24496495892 7.00000000000189
vertex 226.456081097966 1982.4268166115 7.00000000000142
vertex 228.456081097966 1984.1768166115 7.00000000000189
endloop
endfacet
facet normal -3.13874530231413e-014 -6.21586115912048e-014 1.0
outer loop
vertex 226.456081097966 1984.9268166115 7.00000000000157
vertex 227.456081097966 1984.44476580393 7.00000000000191
vertex 227.041867535593 1984.76260304912 7.00000000000192
endloop
endfacet
facet normal -3.13874530231413e-014 -6.21586115912048e-014 1.0
outer loop
vertex 226.456081097966 1984.9268166115 7.00000000000157
vertex 227.041867535593 1984.76260304912 7.00000000000192
vertex 226.724030290397 1985.1768166115 7.00000000000195
endloop
endfacet
facet normal -3.13874530231413e-014 -6.21586115912048e-014 1.0
outer loop
vertex 226.456081097966 1984.9268166115 7.00000000000157
vertex 226.724030290397 1985.1768166115 7.00000000000195
vertex 217.188131905534 1985.1768166115 7.00000000000159
endloop
endfacet
facet normal -3.13874530231413e-014 -6.21586115912048e-014 1.0
outer loop
vertex 217.188131905534 1985.1768166115 7.00000000000159
vertex 226.724030290397 1985.1768166115 7.00000000000195
vertex 217.387932750543 1985.65917852129 7.00000000000162
endloop
endfacet
facet normal -3.13874530231413e-014 -6.21586115912048e-014 1.0
outer loop
vertex 217.387932750543 1985.65917852129 7.00000000000162
vertex 226.724030290397 1985.1768166115 7.00000000000195
vertex 226.524229445387 1985.65917852129 7.00000000000198
endloop
endfacet
facet normal -3.13874530231413e-014 -6.21586115912048e-014 1.0
outer loop
vertex 217.387932750543 1985.65917852129 7.00000000000162
vertex 226.524229445387 1985.65917852129 7.00000000000198
vertex 217.456081097965 1986.17681661149 7.00000000000165
endloop
endfacet
facet normal -3.13874530231413e-014 -6.21586115912048e-014 1.0
outer loop
vertex 217.456081097965 1986.17681661149 7.00000000000165
vertex 226.524229445387 1985.65917852129 7.00000000000198
vertex 226.456081097966 1986.1768166115 7.00000000000201
endloop
endfacet
facet normal -3.13874530231413e-014 -6.21586115912048e-014 1.0
outer loop
vertex 217.456081097965 1986.17681661149 7.00000000000165
vertex 226.456081097966 1986.1768166115 7.00000000000201
vertex 217.387932750543 1986.6944547017 7.00000000000168
endloop
endfacet
facet normal -3.13874530231413e-014 -6.21586115912048e-014 1.0
outer loop
vertex 217.387932750543 1986.6944547017 7.00000000000168
vertex 226.456081097966 1986.1768166115 7.00000000000201
vertex 226.524229445387 1986.6944547017 7.00000000000204
endloop
endfacet
facet normal -3.13874530231413e-014 -6.21586115912048e-014 1.0
outer loop
vertex 217.387932750543 1986.6944547017 7.00000000000168
vertex 226.524229445387 1986.6944547017 7.00000000000204
vertex 217.188131905534 1987.17681661149 7.00000000000171
endloop
endfacet
facet normal -3.13874530231413e-014 -6.21586115912048e-014 1.0
outer loop
vertex 217.188131905534 1987.17681661149 7.00000000000171
vertex 226.524229445387 1986.6944547017 7.00000000000204
vertex 226.724030290397 1987.1768166115 7.00000000000207
endloop
endfacet
facet normal -3.13874530231413e-014 -6.21586115912048e-014 1.0
outer loop
vertex 217.188131905534 1987.17681661149 7.00000000000171
vertex 226.724030290397 1987.1768166115 7.00000000000207
vertex 217.456081097965 1987.4268166115 7.00000000000101
endloop
endfacet
facet normal -3.13874530231413e-014 -6.21586115912048e-014 1.0
outer loop
vertex 217.188131905534 1987.17681661149 7.00000000000171
vertex 217.456081097965 1987.4268166115 7.00000000000101
vertex 216.870294660338 1987.59103017387 7.00000000000174
endloop
endfacet
facet normal -3.13874530231413e-014 -6.21586115912048e-014 1.0
outer loop
vertex 216.870294660338 1987.59103017387 7.00000000000174
vertex 217.456081097965 1987.4268166115 7.00000000000101
vertex 217.456081097965 1989.9268166115 7.00000000000116
endloop
endfacet
facet normal -3.13874530231413e-014 -6.21586115912048e-014 1.0
outer loop
vertex 216.870294660338 1987.59103017387 7.00000000000174
vertex 217.456081097965 1989.9268166115 7.00000000000116
vertex 216.456081097965 1987.90886741906 7.00000000000176
endloop
endfacet
facet normal -3.13874530231413e-014 -6.21586115912048e-014 1.0
outer loop
vertex 216.456081097965 1987.90886741906 7.00000000000176
vertex 217.456081097965 1989.9268166115 7.00000000000116
vertex 215.97371918817 1988.10866826407 7.00000000000177
endloop
endfacet
facet normal -3.13874530231413e-014 -6.21586115912048e-014 1.0
outer loop
vertex 215.97371918817 1988.10866826407 7.00000000000177
vertex 217.456081097965 1989.9268166115 7.00000000000116
vertex 215.456081097965 1988.17681661149 7.00000000000178
endloop
endfacet
facet normal -3.13874530231413e-014 -6.21586115912048e-014 1.0
outer loop
vertex 233.456081097966 1981.1768166115 7.00000000000134
vertex 226.456081097966 1982.4268166115 7.00000000000142
vertex 217.456081097965 1982.4268166115 7.00000000000106
endloop
endfacet
facet normal -3.13874530231413e-014 -6.21586115912048e-014 1.0
outer loop
vertex 226.456081097966 1982.4268166115 7.00000000000142
vertex 233.456081097966 1981.1768166115 7.00000000000134
vertex 229.456081097966 1984.44476580393 7.00000000000191
endloop
endfacet
facet normal -3.13874530231413e-014 -6.21586115912048e-014 1.0
outer loop
vertex 229.456081097966 1984.44476580393 7.00000000000191
vertex 233.456081097966 1981.1768166115 7.00000000000134
vertex 229.870294660339 1984.76260304912 7.00000000000192
endloop
endfacet
facet normal -3.13874530231413e-014 -6.21586115912048e-014 1.0
outer loop
vertex 229.870294660339 1984.76260304912 7.00000000000192
vertex 233.456081097966 1981.1768166115 7.00000000000134
vertex 230.188131905535 1985.1768166115 7.00000000000195
endloop
endfacet
facet normal -3.13874530231413e-014 -6.21586115912048e-014 1.0
outer loop
vertex 230.188131905535 1985.1768166115 7.00000000000195
vertex 233.456081097966 1981.1768166115 7.00000000000134
vertex 233.456081097965 1991.1768166115 7.00000000000196
endloop
endfacet
facet normal -3.13874530231413e-014 -6.21586115912048e-014 1.0
outer loop
vertex 226.456081097966 1982.4268166115 7.00000000000142
vertex 229.456081097966 1984.44476580393 7.00000000000191
vertex 228.973719188171 1984.24496495892 7.00000000000189
endloop
endfacet
facet normal -3.13874530231413e-014 -6.21586115912048e-014 1.0
outer loop
vertex 226.456081097966 1982.4268166115 7.00000000000142
vertex 228.973719188171 1984.24496495892 7.00000000000189
vertex 228.456081097966 1984.1768166115 7.00000000000189
endloop
endfacet
facet normal -3.13874530231413e-014 -6.21586115912048e-014 1.0
outer loop
vertex 230.188131905535 1985.1768166115 7.00000000000195
vertex 233.456081097965 1991.1768166115 7.00000000000196
vertex 230.387932750544 1985.65917852129 7.00000000000198
endloop
endfacet
facet normal -3.13874530231413e-014 -6.21586115912048e-014 1.0
outer loop
vertex 230.387932750544 1985.65917852129 7.00000000000198
vertex 233.456081097965 1991.1768166115 7.00000000000196
vertex 230.456081097966 1986.1768166115 7.00000000000201
endloop
endfacet
facet normal -3.13874530231413e-014 -6.21586115912048e-014 1.0
outer loop
vertex 230.456081097966 1986.1768166115 7.00000000000201
vertex 233.456081097965 1991.1768166115 7.00000000000196
vertex 230.387932750544 1986.6944547017 7.00000000000204
endloop
endfacet
facet normal -3.13874530231413e-014 -6.21586115912048e-014 1.0
outer loop
vertex 230.387932750544 1986.6944547017 7.00000000000204
vertex 233.456081097965 1991.1768166115 7.00000000000196
vertex 230.188131905534 1987.1768166115 7.00000000000207
endloop
endfacet
facet normal -3.13874530231413e-014 -6.21586115912048e-014 1.0
outer loop
vertex 230.188131905534 1987.1768166115 7.00000000000207
vertex 233.456081097965 1991.1768166115 7.00000000000196
vertex 229.870294660339 1987.59103017387 7.0000000000021
endloop
endfacet
facet normal -3.13874530231413e-014 -6.21586115912048e-014 1.0
outer loop
vertex 229.870294660339 1987.59103017387 7.0000000000021
vertex 233.456081097965 1991.1768166115 7.00000000000196
vertex 229.456081097966 1987.90886741907 7.00000000000212
endloop
endfacet
facet normal -3.13874530231413e-014 -6.21586115912048e-014 1.0
outer loop
vertex 229.456081097966 1987.90886741907 7.00000000000212
vertex 233.456081097965 1991.1768166115 7.00000000000196
vertex 228.97371918817 1988.10866826407 7.00000000000213
endloop
endfacet
facet normal -3.13874530231413e-014 -6.21586115912048e-014 1.0
outer loop
vertex 228.97371918817 1988.10866826407 7.00000000000213
vertex 233.456081097965 1991.1768166115 7.00000000000196
vertex 228.456081097965 1988.1768166115 7.00000000000214
endloop
endfacet
facet normal -3.13874530231413e-014 -6.21586115912048e-014 1.0
outer loop
vertex 228.456081097965 1988.1768166115 7.00000000000214
vertex 233.456081097965 1991.1768166115 7.00000000000196
vertex 226.456081097966 1989.9268166115 7.00000000000152
endloop
endfacet
facet normal -3.13874530231413e-014 -6.21586115912048e-014 1.0
outer loop
vertex 226.456081097966 1989.9268166115 7.00000000000152
vertex 233.456081097965 1991.1768166115 7.00000000000196
vertex 210.456081097965 1991.1768166115 7.00000000000124
endloop
endfacet
facet normal -3.13874530231413e-014 -6.21586115912048e-014 1.0
outer loop
vertex 210.456081097966 1981.1768166115 7.00000000000062
vertex 213.724030290397 1985.17681661149 7.00000000000159
vertex 210.456081097965 1991.1768166115 7.00000000000124
endloop
endfacet
facet normal -3.13874530231413e-014 -6.21586115912048e-014 1.0
outer loop
vertex 213.724030290397 1985.17681661149 7.00000000000159
vertex 210.456081097966 1981.1768166115 7.00000000000062
vertex 214.041867535592 1984.76260304912 7.00000000000156
endloop
endfacet
facet normal -3.13874530231413e-014 -6.21586115912048e-014 1.0
outer loop
vertex 214.041867535592 1984.76260304912 7.00000000000156
vertex 210.456081097966 1981.1768166115 7.00000000000062
vertex 214.456081097965 1984.44476580393 7.00000000000154
endloop
endfacet
facet normal -3.13874530231413e-014 -6.21586115912048e-014 1.0
outer loop
vertex 214.456081097965 1984.44476580393 7.00000000000154
vertex 210.456081097966 1981.1768166115 7.00000000000062
vertex 217.456081097965 1982.4268166115 7.00000000000106
endloop
endfacet
facet normal -3.13874530231413e-014 -6.21586115912048e-014 1.0
outer loop
vertex 217.456081097965 1982.4268166115 7.00000000000106
vertex 210.456081097966 1981.1768166115 7.00000000000062
vertex 233.456081097966 1981.1768166115 7.00000000000134
endloop
endfacet
facet normal -3.13874530231413e-014 -6.21586115912048e-014 1.0
outer loop
vertex 214.456081097965 1984.44476580393 7.00000000000154
vertex 217.456081097965 1982.4268166115 7.00000000000106
vertex 214.93844300776 1984.24496495892 7.00000000000153
endloop
endfacet
facet normal -3.13874530231413e-014 -6.21586115912048e-014 1.0
outer loop
vertex 214.93844300776 1984.24496495892 7.00000000000153
vertex 217.456081097965 1982.4268166115 7.00000000000106
vertex 215.456081097965 1984.17681661149 7.00000000000153
endloop
endfacet
facet normal -3.13874530231413e-014 -6.21586115912048e-014 1.0
outer loop
vertex 210.456081097965 1991.1768166115 7.00000000000124
vertex 213.724030290397 1985.17681661149 7.00000000000159
vertex 213.524229445387 1985.65917852129 7.0000000000009
endloop
endfacet
facet normal -3.13874530231413e-014 -6.21586115912048e-014 1.0
outer loop
vertex 210.456081097965 1991.1768166115 7.00000000000124
vertex 213.524229445387 1985.65917852129 7.0000000000009
vertex 213.456081097965 1986.17681661149 7.00000000000093
endloop
endfacet
facet normal -3.13874530231413e-014 -6.21586115912048e-014 1.0
outer loop
vertex 210.456081097965 1991.1768166115 7.00000000000124
vertex 213.456081097965 1986.17681661149 7.00000000000093
vertex 213.524229445387 1986.6944547017 7.00000000000096
endloop
endfacet
facet normal -3.13874530231413e-014 -6.21586115912048e-014 1.0
outer loop
vertex 210.456081097965 1991.1768166115 7.00000000000124
vertex 213.524229445387 1986.6944547017 7.00000000000096
vertex 213.724030290396 1987.17681661149 7.00000000000171
endloop
endfacet
facet normal -3.13874530231413e-014 -6.21586115912048e-014 1.0
outer loop
vertex 210.456081097965 1991.1768166115 7.00000000000124
vertex 213.724030290396 1987.17681661149 7.00000000000171
vertex 214.041867535592 1987.59103017387 7.00000000000174
endloop
endfacet
facet normal -3.13874530231413e-014 -6.21586115912048e-014 1.0
outer loop
vertex 210.456081097965 1991.1768166115 7.00000000000124
vertex 214.041867535592 1987.59103017387 7.00000000000174
vertex 214.456081097965 1987.90886741906 7.00000000000176
endloop
endfacet
facet normal -3.13874530231413e-014 -6.21586115912048e-014 1.0
outer loop
vertex 210.456081097965 1991.1768166115 7.00000000000124
vertex 214.456081097965 1987.90886741906 7.00000000000176
vertex 214.93844300776 1988.10866826407 7.00000000000177
endloop
endfacet
facet normal -3.13874530231413e-014 -6.21586115912048e-014 1.0
outer loop
vertex 210.456081097965 1991.1768166115 7.00000000000124
vertex 214.93844300776 1988.10866826407 7.00000000000177
vertex 215.456081097965 1988.17681661149 7.00000000000178
endloop
endfacet
facet normal -3.13874530231413e-014 -6.21586115912048e-014 1.0
outer loop
vertex 210.456081097965 1991.1768166115 7.00000000000124
vertex 215.456081097965 1988.17681661149 7.00000000000178
vertex 217.456081097965 1989.9268166115 7.00000000000116
endloop
endfacet
facet normal -3.13874530231413e-014 -6.21586115912048e-014 1.0
outer loop
vertex 210.456081097965 1991.1768166115 7.00000000000124
vertex 217.456081097965 1989.9268166115 7.00000000000116
vertex 226.456081097966 1989.9268166115 7.00000000000152
endloop
endfacet
facet normal -3.13874530231413e-014 -6.21586115912048e-014 1.0
outer loop
vertex 226.724030290397 1987.1768166115 7.00000000000207
vertex 226.456081097966 1987.4268166115 7.00000000000137
vertex 217.456081097965 1987.4268166115 7.00000000000101
endloop
endfacet
facet normal -3.13874530231413e-014 -6.21586115912048e-014 1.0
outer loop
vertex 226.456081097966 1987.4268166115 7.00000000000137
vertex 226.724030290397 1987.1768166115 7.00000000000207
vertex 227.041867535592 1987.59103017387 7.0000000000021
endloop
endfacet
facet normal -3.13874530231413e-014 -6.21586115912048e-014 1.0
outer loop
vertex 226.456081097966 1987.4268166115 7.00000000000137
vertex 227.041867535592 1987.59103017387 7.0000000000021
vertex 226.456081097966 1989.9268166115 7.00000000000152
endloop
endfacet
facet normal -3.13874530231413e-014 -6.21586115912048e-014 1.0
outer loop
vertex 226.456081097966 1989.9268166115 7.00000000000152
vertex 227.041867535592 1987.59103017387 7.0000000000021
vertex 227.456081097965 1987.90886741907 7.00000000000212
endloop
endfacet
facet normal -3.13874530231413e-014 -6.21586115912048e-014 1.0
outer loop
vertex 226.456081097966 1989.9268166115 7.00000000000152
vertex 227.456081097965 1987.90886741907 7.00000000000212
vertex 227.93844300776 1988.10866826407 7.00000000000213
endloop
endfacet
facet normal -3.13874530231413e-014 -6.21586115912048e-014 1.0
outer loop
vertex 226.456081097966 1989.9268166115 7.00000000000152
vertex 227.93844300776 1988.10866826407 7.00000000000213
vertex 228.456081097965 1988.1768166115 7.00000000000214
endloop
endfacet
facet normal -3.13874530231413e-014 -6.21586115912048e-014 1.0
outer loop
vertex 217.456081097965 1982.4268166115 7.00000000000106
vertex 215.97371918817 1984.24496495892 7.00000000000153
vertex 215.456081097965 1984.17681661149 7.00000000000153
endloop
endfacet
facet normal -3.13874530231413e-014 -6.21586115912048e-014 1.0
outer loop
vertex 215.97371918817 1984.24496495892 7.00000000000153
vertex 217.456081097965 1982.4268166115 7.00000000000106
vertex 216.456081097966 1984.44476580393 7.00000000000154
endloop
endfacet
facet normal -3.13874530231413e-014 -6.21586115912048e-014 1.0
outer loop
vertex 216.456081097966 1984.44476580393 7.00000000000154
vertex 217.456081097965 1982.4268166115 7.00000000000106
vertex 217.456081097965 1984.9268166115 7.00000000000121
endloop
endfacet
facet normal -3.13874530231413e-014 -6.21586115912048e-014 1.0
outer loop
vertex 216.456081097966 1984.44476580393 7.00000000000154
vertex 217.456081097965 1984.9268166115 7.00000000000121
vertex 216.870294660339 1984.76260304912 7.00000000000156
endloop
endfacet
facet normal -3.13874530231413e-014 -6.21586115912048e-014 1.0
outer loop
vertex 216.870294660339 1984.76260304912 7.00000000000156
vertex 217.456081097965 1984.9268166115 7.00000000000121
vertex 217.188131905534 1985.1768166115 7.00000000000159
endloop
endfacet
facet normal -3.13874530231413e-014 -6.21586115912048e-014 1.0
outer loop
vertex 217.188131905534 1985.1768166115 7.00000000000159
vertex 217.456081097965 1984.9268166115 7.00000000000121
vertex 226.456081097966 1984.9268166115 7.00000000000157
endloop
endfacet
facet normal -0.499999999999897 -0.866025403784498 -5.92144566630947e-014
outer loop
vertex 216.456081097965 1987.90886741906 2.00000000000181
vertex 216.870294660338 1987.59103017387 7.00000000000174
vertex 216.456081097965 1987.90886741906 7.00000000000176
endloop
endfacet
facet normal -0.707106781186558 -0.707106781186537 -5.03352205000033e-014
outer loop
vertex 216.870294660338 1987.59103017387 7.00000000000174
vertex 216.456081097965 1987.90886741906 2.00000000000181
vertex 216.870294660338 1987.59103017387 2.00000000000179
endloop
endfacet
facet normal 1.25512982880186e-013 -1.0 -6.21582618492619e-014
outer loop
vertex 215.456081097965 1988.17681661149 2.00000000000183
vertex 215.97371918817 1988.10866826407 7.00000000000177
vertex 215.456081097965 1988.17681661149 7.00000000000178
endloop
endfacet
facet normal -0.258819045102353 -0.965925826289114 -6.3840634015938e-014
outer loop
vertex 215.97371918817 1988.10866826407 7.00000000000177
vertex 215.456081097965 1988.17681661149 2.00000000000183
vertex 215.97371918817 1988.10866826407 2.00000000000183
endloop
endfacet
facet normal -0.258819045102616 0.965925826289043 5.53688744212849e-014
outer loop
vertex 215.97371918817 1984.24496495892 7.00000000000153
vertex 215.456081097966 1984.17681661149 2.00000000000158
vertex 215.456081097965 1984.17681661149 7.00000000000153
endloop
endfacet
facet normal -1.31510159839956e-013 1.0 6.21589613331354e-014
outer loop
vertex 215.456081097966 1984.17681661149 2.00000000000158
vertex 215.97371918817 1984.24496495892 7.00000000000153
vertex 215.973719188171 1984.24496495892 2.00000000000159
endloop
endfacet
facet normal -0.500000000000114 0.866025403784373 4.61917407509182e-014
outer loop
vertex 216.456081097966 1984.44476580393 7.00000000000154
vertex 215.973719188171 1984.24496495892 2.00000000000159
vertex 215.97371918817 1984.24496495892 7.00000000000153
endloop
endfacet
facet normal -0.258819045102622 0.965925826289041 5.53688744212848e-014
outer loop
vertex 215.973719188171 1984.24496495892 2.00000000000159
vertex 216.456081097966 1984.44476580393 7.00000000000154
vertex 216.456081097966 1984.44476580393 2.0000000000016
endloop
endfacet
facet normal 4.70811795347118e-014 6.21586115912068e-014 -1.0
outer loop
vertex 210.456081097966 1981.1768166115 2.00000000000031
vertex 214.93844300776 1984.24496495892 2.00000000000159
vertex 233.456081097966 1981.1768166115 2.00000000000139
endloop
endfacet
facet normal 4.70811795347118e-014 6.21586115912068e-014 -1.0
outer loop
vertex 214.93844300776 1984.24496495892 2.00000000000159
vertex 210.456081097966 1981.1768166115 2.00000000000031
vertex 214.456081097965 1984.44476580393 2.0000000000016
endloop
endfacet
facet normal 4.70811795347118e-014 6.21586115912068e-014 -1.0
outer loop
vertex 214.456081097965 1984.44476580393 2.0000000000016
vertex 210.456081097966 1981.1768166115 2.00000000000031
vertex 214.041867535592 1984.76260304912 2.00000000000162
endloop
endfacet
facet normal 4.70811795347118e-014 6.21586115912068e-014 -1.0
outer loop
vertex 214.041867535592 1984.76260304912 2.00000000000162
vertex 210.456081097966 1981.1768166115 2.00000000000031
vertex 213.724030290397 1985.17681661149 2.00000000000164
endloop
endfacet
facet normal 4.70811795347118e-014 6.21586115912068e-014 -1.0
outer loop
vertex 213.724030290397 1985.17681661149 2.00000000000164
vertex 210.456081097966 1981.1768166115 2.00000000000031
vertex 210.456081097965 1991.1768166115 2.00000000000093
endloop
endfacet
facet normal 4.70811795347118e-014 6.21586115912068e-014 -1.0
outer loop
vertex 233.456081097966 1981.1768166115 2.00000000000139
vertex 214.93844300776 1984.24496495892 2.00000000000159
vertex 215.456081097966 1984.17681661149 2.00000000000158
endloop
endfacet
facet normal 4.70811795347118e-014 6.21586115912068e-014 -1.0
outer loop
vertex 213.724030290397 1985.17681661149 2.00000000000164
vertex 210.456081097965 1991.1768166115 2.00000000000093
vertex 213.524229445387 1985.65917852129 2.00000000000059
endloop
endfacet
facet normal 4.70811795347118e-014 6.21586115912068e-014 -1.0
outer loop
vertex 213.524229445387 1985.65917852129 2.00000000000059
vertex 210.456081097965 1991.1768166115 2.00000000000093
vertex 213.456081097965 1986.17681661149 2.00000000000062
endloop
endfacet
facet normal 4.70811795347118e-014 6.21586115912068e-014 -1.0
outer loop
vertex 213.456081097965 1986.17681661149 2.00000000000062
vertex 210.456081097965 1991.1768166115 2.00000000000093
vertex 213.524229445387 1986.6944547017 2.00000000000065
endloop
endfacet
facet normal 4.70811795347118e-014 6.21586115912068e-014 -1.0
outer loop
vertex 213.524229445387 1986.6944547017 2.00000000000065
vertex 210.456081097965 1991.1768166115 2.00000000000093
vertex 213.724030290396 1987.17681661149 2.00000000000177
endloop
endfacet
facet normal 4.70811795347118e-014 6.21586115912068e-014 -1.0
outer loop
vertex 213.724030290396 1987.17681661149 2.00000000000177
vertex 210.456081097965 1991.1768166115 2.00000000000093
vertex 214.041867535592 1987.59103017387 2.00000000000179
endloop
endfacet
facet normal 4.70811795347118e-014 6.21586115912068e-014 -1.0
outer loop
vertex 214.041867535592 1987.59103017387 2.00000000000179
vertex 210.456081097965 1991.1768166115 2.00000000000093
vertex 214.456081097965 1987.90886741906 2.00000000000181
endloop
endfacet
facet normal 4.70811795347118e-014 6.21586115912068e-014 -1.0
outer loop
vertex 214.456081097965 1987.90886741906 2.00000000000181
vertex 210.456081097965 1991.1768166115 2.00000000000093
vertex 214.93844300776 1988.10866826407 2.00000000000183
endloop
endfacet
facet normal 4.70811795347118e-014 6.21586115912068e-014 -1.0
outer loop
vertex 214.93844300776 1988.10866826407 2.00000000000183
vertex 210.456081097965 1991.1768166115 2.00000000000093
vertex 215.456081097965 1988.17681661149 2.00000000000183
endloop
endfacet
facet normal 4.70811795347118e-014 6.21586115912068e-014 -1.0
outer loop
vertex 215.456081097965 1988.17681661149 2.00000000000183
vertex 210.456081097965 1991.1768166115 2.00000000000093
vertex 228.456081097966 1988.1768166115 2.00000000000219
endloop
endfacet
facet normal 4.70811795347118e-014 6.21586115912068e-014 -1.0
outer loop
vertex 233.456081097966 1981.1768166115 2.00000000000139
vertex 230.188131905535 1985.1768166115 2.00000000000201
vertex 233.456081097965 1991.1768166115 2.00000000000202
endloop
endfacet
facet normal 4.70811795347118e-014 6.21586115912068e-014 -1.0
outer loop
vertex 230.188131905535 1985.1768166115 2.00000000000201
vertex 233.456081097966 1981.1768166115 2.00000000000139
vertex 229.870294660339 1984.76260304912 2.00000000000198
endloop
endfacet
facet normal 4.70811795347118e-014 6.21586115912068e-014 -1.0
outer loop
vertex 229.870294660339 1984.76260304912 2.00000000000198
vertex 233.456081097966 1981.1768166115 2.00000000000139
vertex 229.456081097966 1984.44476580393 2.00000000000196
endloop
endfacet
facet normal 4.70811795347118e-014 6.21586115912068e-014 -1.0
outer loop
vertex 229.456081097966 1984.44476580393 2.00000000000196
vertex 233.456081097966 1981.1768166115 2.00000000000139
vertex 228.973719188171 1984.24496495892 2.00000000000195
endloop
endfacet
facet normal 4.70811795347118e-014 6.21586115912068e-014 -1.0
outer loop
vertex 228.973719188171 1984.24496495892 2.00000000000195
vertex 233.456081097966 1981.1768166115 2.00000000000139
vertex 228.456081097966 1984.1768166115 2.00000000000194
endloop
endfacet
facet normal 4.70811795347118e-014 6.21586115912068e-014 -1.0
outer loop
vertex 228.456081097966 1984.1768166115 2.00000000000194
vertex 233.456081097966 1981.1768166115 2.00000000000139
vertex 215.456081097966 1984.17681661149 2.00000000000158
endloop
endfacet
facet normal 4.70811795347118e-014 6.21586115912068e-014 -1.0
outer loop
vertex 233.456081097965 1991.1768166115 2.00000000000202
vertex 230.188131905535 1985.1768166115 2.00000000000201
vertex 230.387932750544 1985.65917852129 2.00000000000203
endloop
endfacet
facet normal 4.70811795347118e-014 6.21586115912068e-014 -1.0
outer loop
vertex 233.456081097965 1991.1768166115 2.00000000000202
vertex 230.387932750544 1985.65917852129 2.00000000000203
vertex 230.456081097966 1986.1768166115 2.00000000000207
endloop
endfacet
facet normal 4.70811795347118e-014 6.21586115912068e-014 -1.0
outer loop
vertex 233.456081097965 1991.1768166115 2.00000000000202
vertex 230.456081097966 1986.1768166115 2.00000000000207
vertex 230.387932750544 1986.6944547017 2.0000000000021
endloop
endfacet
facet normal 4.70811795347118e-014 6.21586115912068e-014 -1.0
outer loop
vertex 233.456081097965 1991.1768166115 2.00000000000202
vertex 230.387932750544 1986.6944547017 2.0000000000021
vertex 230.188131905534 1987.1768166115 2.00000000000213
endloop
endfacet
facet normal 4.70811795347118e-014 6.21586115912068e-014 -1.0
outer loop
vertex 233.456081097965 1991.1768166115 2.00000000000202
vertex 230.188131905534 1987.1768166115 2.00000000000213
vertex 229.870294660339 1987.59103017387 2.00000000000216
endloop
endfacet
facet normal 4.70811795347118e-014 6.21586115912068e-014 -1.0
outer loop
vertex 233.456081097965 1991.1768166115 2.00000000000202
vertex 229.870294660339 1987.59103017387 2.00000000000216
vertex 229.456081097966 1987.90886741907 2.00000000000217
endloop
endfacet
facet normal 4.70811795347118e-014 6.21586115912068e-014 -1.0
outer loop
vertex 233.456081097965 1991.1768166115 2.00000000000202
vertex 229.456081097966 1987.90886741907 2.00000000000217
vertex 228.973719188171 1988.10866826407 2.00000000000219
endloop
endfacet
facet normal 4.70811795347118e-014 6.21586115912068e-014 -1.0
outer loop
vertex 233.456081097965 1991.1768166115 2.00000000000202
vertex 228.973719188171 1988.10866826407 2.00000000000219
vertex 228.456081097966 1988.1768166115 2.00000000000219
endloop
endfacet
facet normal 4.70811795347118e-014 6.21586115912068e-014 -1.0
outer loop
vertex 233.456081097965 1991.1768166115 2.00000000000202
vertex 228.456081097966 1988.1768166115 2.00000000000219
vertex 210.456081097965 1991.1768166115 2.00000000000093
endloop
endfacet
facet normal 4.70811795347118e-014 6.21586115912068e-014 -1.0
outer loop
vertex 215.973719188171 1984.24496495892 2.00000000000159
vertex 228.456081097966 1984.1768166115 2.00000000000194
vertex 215.456081097966 1984.17681661149 2.00000000000158
endloop
endfacet
facet normal 4.70811795347118e-014 6.21586115912068e-014 -1.0
outer loop
vertex 228.456081097966 1984.1768166115 2.00000000000194
vertex 215.973719188171 1984.24496495892 2.00000000000159
vertex 227.938443007761 1984.24496495892 2.00000000000195
endloop
endfacet
facet normal 4.70811795347118e-014 6.21586115912068e-014 -1.0
outer loop
vertex 227.938443007761 1984.24496495892 2.00000000000195
vertex 215.973719188171 1984.24496495892 2.00000000000159
vertex 216.456081097966 1984.44476580393 2.0000000000016
endloop
endfacet
facet normal 4.70811795347118e-014 6.21586115912068e-014 -1.0
outer loop
vertex 227.938443007761 1984.24496495892 2.00000000000195
vertex 216.456081097966 1984.44476580393 2.0000000000016
vertex 227.456081097966 1984.44476580393 2.00000000000196
endloop
endfacet
facet normal 4.70811795347118e-014 6.21586115912068e-014 -1.0
outer loop
vertex 227.456081097966 1984.44476580393 2.00000000000196
vertex 216.456081097966 1984.44476580393 2.0000000000016
vertex 216.870294660339 1984.76260304912 2.00000000000162
endloop
endfacet
facet normal 4.70811795347118e-014 6.21586115912068e-014 -1.0
outer loop
vertex 227.456081097966 1984.44476580393 2.00000000000196
vertex 216.870294660339 1984.76260304912 2.00000000000162
vertex 227.041867535593 1984.76260304912 2.00000000000198
endloop
endfacet
facet normal 4.70811795347118e-014 6.21586115912068e-014 -1.0
outer loop
vertex 227.041867535593 1984.76260304912 2.00000000000198
vertex 216.870294660339 1984.76260304912 2.00000000000162
vertex 217.188131905534 1985.1768166115 2.00000000000164
endloop
endfacet
facet normal 4.70811795347118e-014 6.21586115912068e-014 -1.0
outer loop
vertex 227.041867535593 1984.76260304912 2.00000000000198
vertex 217.188131905534 1985.1768166115 2.00000000000164
vertex 226.724030290397 1985.1768166115 2.00000000000201
endloop
endfacet
facet normal 4.70811795347118e-014 6.21586115912068e-014 -1.0
outer loop
vertex 226.724030290397 1985.1768166115 2.00000000000201
vertex 217.188131905534 1985.1768166115 2.00000000000164
vertex 217.387932750544 1985.65917852129 2.00000000000167
endloop
endfacet
facet normal 4.70811795347118e-014 6.21586115912068e-014 -1.0
outer loop
vertex 226.724030290397 1985.1768166115 2.00000000000201
vertex 217.387932750544 1985.65917852129 2.00000000000167
vertex 226.524229445388 1985.65917852129 2.00000000000203
endloop
endfacet
facet normal 4.70811795347118e-014 6.21586115912068e-014 -1.0
outer loop
vertex 226.524229445388 1985.65917852129 2.00000000000203
vertex 217.387932750544 1985.65917852129 2.00000000000167
vertex 217.456081097965 1986.1768166115 2.00000000000171
endloop
endfacet
facet normal 4.70811795347118e-014 6.21586115912068e-014 -1.0
outer loop
vertex 226.524229445388 1985.65917852129 2.00000000000203
vertex 217.456081097965 1986.1768166115 2.00000000000171
vertex 226.456081097966 1986.1768166115 2.00000000000207
endloop
endfacet
facet normal 4.70811795347118e-014 6.21586115912068e-014 -1.0
outer loop
vertex 226.456081097966 1986.1768166115 2.00000000000207
vertex 217.456081097965 1986.1768166115 2.00000000000171
vertex 217.387932750543 1986.6944547017 2.00000000000174
endloop
endfacet
facet normal 4.70811795347118e-014 6.21586115912068e-014 -1.0
outer loop
vertex 226.456081097966 1986.1768166115 2.00000000000207
vertex 217.387932750543 1986.6944547017 2.00000000000174
vertex 226.524229445388 1986.6944547017 2.0000000000021
endloop
endfacet
facet normal 4.70811795347118e-014 6.21586115912068e-014 -1.0
outer loop
vertex 226.524229445388 1986.6944547017 2.0000000000021
vertex 217.387932750543 1986.6944547017 2.00000000000174
vertex 217.188131905534 1987.1768166115 2.00000000000177
endloop
endfacet
facet normal 4.70811795347118e-014 6.21586115912068e-014 -1.0
outer loop
vertex 226.524229445388 1986.6944547017 2.0000000000021
vertex 217.188131905534 1987.1768166115 2.00000000000177
vertex 226.724030290397 1987.1768166115 2.00000000000213
endloop
endfacet
facet normal 4.70811795347118e-014 6.21586115912068e-014 -1.0
outer loop
vertex 226.724030290397 1987.1768166115 2.00000000000213
vertex 217.188131905534 1987.1768166115 2.00000000000177
vertex 216.870294660338 1987.59103017387 2.00000000000179
endloop
endfacet
facet normal 4.70811795347118e-014 6.21586115912068e-014 -1.0
outer loop
vertex 226.724030290397 1987.1768166115 2.00000000000213
vertex 216.870294660338 1987.59103017387 2.00000000000179
vertex 227.041867535592 1987.59103017387 2.00000000000216
endloop
endfacet
facet normal 4.70811795347118e-014 6.21586115912068e-014 -1.0
outer loop
vertex 227.041867535592 1987.59103017387 2.00000000000216
vertex 216.870294660338 1987.59103017387 2.00000000000179
vertex 216.456081097965 1987.90886741906 2.00000000000181
endloop
endfacet
facet normal 4.70811795347118e-014 6.21586115912068e-014 -1.0
outer loop
vertex 227.041867535592 1987.59103017387 2.00000000000216
vertex 216.456081097965 1987.90886741906 2.00000000000181
vertex 227.456081097965 1987.90886741907 2.00000000000217
endloop
endfacet
facet normal 4.70811795347118e-014 6.21586115912068e-014 -1.0
outer loop
vertex 227.456081097965 1987.90886741907 2.00000000000217
vertex 216.456081097965 1987.90886741906 2.00000000000181
vertex 215.97371918817 1988.10866826407 2.00000000000183
endloop
endfacet
facet normal 4.70811795347118e-014 6.21586115912068e-014 -1.0
outer loop
vertex 227.456081097965 1987.90886741907 2.00000000000217
vertex 215.97371918817 1988.10866826407 2.00000000000183
vertex 227.938443007761 1988.10866826407 2.00000000000219
endloop
endfacet
facet normal 4.70811795347118e-014 6.21586115912068e-014 -1.0
outer loop
vertex 227.938443007761 1988.10866826407 2.00000000000219
vertex 215.97371918817 1988.10866826407 2.00000000000183
vertex 215.456081097965 1988.17681661149 2.00000000000183
endloop
endfacet
facet normal 4.70811795347118e-014 6.21586115912068e-014 -1.0
outer loop
vertex 227.938443007761 1988.10866826407 2.00000000000219
vertex 215.456081097965 1988.17681661149 2.00000000000183
vertex 228.456081097966 1988.1768166115 2.00000000000219
endloop
endfacet
facet normal 0.258819045102369 0.965925826289109 6.47126918450726e-014
outer loop
vertex 214.93844300776 1984.24496495892 7.00000000000153
vertex 214.456081097965 1984.44476580393 2.0000000000016
vertex 214.456081097965 1984.44476580393 7.00000000000154
endloop
endfacet
facet normal 0.499999999999902 0.866025403784495 6.14692736666254e-014
outer loop
vertex 214.456081097965 1984.44476580393 2.0000000000016
vertex 214.93844300776 1984.24496495892 7.00000000000153
vertex 214.93844300776 1984.24496495892 2.00000000000159
endloop
endfacet
facet normal 0.965925826289048 0.258819045102595 3.77258017696817e-014
outer loop
vertex 226.524229445388 1985.65917852129 2.00000000000203
vertex 226.456081097966 1986.1768166115 7.00000000000201
vertex 226.524229445387 1985.65917852129 7.00000000000198
endloop
endfacet
facet normal 1.0 1.34147848369059e-013 1.80473648095228e-014
outer loop
vertex 226.456081097966 1986.1768166115 7.00000000000201
vertex 226.524229445388 1985.65917852129 2.00000000000203
vertex 226.456081097966 1986.1768166115 2.00000000000207
endloop
endfacet
facet normal 1.0 1.34156759478955e-013 1.80473648095228e-014
outer loop
vertex 226.456081097966 1986.1768166115 2.00000000000207
vertex 226.524229445387 1986.6944547017 7.00000000000204
vertex 226.456081097966 1986.1768166115 7.00000000000201
endloop
endfacet
facet normal 0.96592582628911 -0.258819045102365 1.34444696667312e-015
outer loop
vertex 226.524229445387 1986.6944547017 7.00000000000204
vertex 226.456081097966 1986.1768166115 2.00000000000207
vertex 226.524229445388 1986.6944547017 2.0000000000021
endloop
endfacet
facet normal -1.0 -1.27980959163664e-013 -1.47104550762913e-014
outer loop
vertex 210.456081097965 1991.1768166115 2.00000000000093
vertex 210.456081097966 1981.1768166115 7.00000000000062
vertex 210.456081097965 1991.1768166115 7.00000000000124
endloop
endfacet
facet normal -1.0 -1.27980959163664e-013 -1.47104550762913e-014
outer loop
vertex 210.456081097966 1981.1768166115 7.00000000000062
vertex 210.456081097965 1991.1768166115 2.00000000000093
vertex 210.456081097966 1981.1768166115 2.00000000000031
endloop
endfacet
facet normal -0.70710678118677 0.707106781186325 3.43822065551456e-014
outer loop
vertex 216.870294660339 1984.76260304912 7.00000000000156
vertex 216.456081097966 1984.44476580393 2.0000000000016
vertex 216.456081097966 1984.44476580393 7.00000000000154
endloop
endfacet
facet normal -0.500000000000116 0.866025403784372 4.61917407509181e-014
outer loop
vertex 216.456081097966 1984.44476580393 2.0000000000016
vertex 216.870294660339 1984.76260304912 7.00000000000156
vertex 216.870294660339 1984.76260304912 2.00000000000162
endloop
endfacet
facet normal 0.866025403784334 0.500000000000181 5.09125847813676e-014
outer loop
vertex 226.724030290397 1985.1768166115 2.00000000000201
vertex 226.524229445387 1985.65917852129 7.00000000000198
vertex 226.724030290397 1985.1768166115 7.00000000000195
endloop
endfacet
facet normal 0.965925826289049 0.258819045102594 3.77258017696815e-014
outer loop
vertex 226.524229445387 1985.65917852129 7.00000000000198
vertex 226.724030290397 1985.1768166115 2.00000000000201
vertex 226.524229445388 1985.65917852129 2.00000000000203
endloop
endfacet
facet normal -0.258819045102358 -0.965925826289112 -6.38406340159379e-014
outer loop
vertex 215.97371918817 1988.10866826407 2.00000000000183
vertex 216.456081097965 1987.90886741906 7.00000000000176
vertex 215.97371918817 1988.10866826407 7.00000000000177
endloop
endfacet
facet normal -0.499999999999896 -0.866025403784499 -5.92144566630947e-014
outer loop
vertex 216.456081097965 1987.90886741906 7.00000000000176
vertex 215.97371918817 1988.10866826407 2.00000000000183
vertex 216.456081097965 1987.90886741906 2.00000000000181
endloop
endfacet
facet normal 0.707106781186534 0.707106781186561 5.39432169039598e-014
outer loop
vertex 227.041867535593 1984.76260304912 2.00000000000198
vertex 226.724030290397 1985.1768166115 7.00000000000195
vertex 227.041867535593 1984.76260304912 7.00000000000192
endloop
endfacet
facet normal 0.866025403784335 0.500000000000179 5.09125847813676e-014
outer loop
vertex 226.724030290397 1985.1768166115 7.00000000000195
vertex 227.041867535593 1984.76260304912 2.00000000000198
vertex 226.724030290397 1985.1768166115 2.00000000000201
endloop
endfacet
facet normal -0.499999999999884 -0.866025403784506 -6.00845876668073e-014
outer loop
vertex 229.456081097966 1987.90886741907 2.00000000000217
vertex 229.870294660339 1987.59103017387 7.0000000000021
vertex 229.456081097966 1987.90886741907 7.00000000000212
endloop
endfacet
facet normal -0.707106781186571 -0.707106781186525 -5.03332420608412e-014
outer loop
vertex 229.870294660339 1987.59103017387 7.0000000000021
vertex 229.456081097966 1987.90886741907 2.00000000000217
vertex 229.870294660339 1987.59103017387 2.00000000000216
endloop
endfacet
facet normal -1.31434959534404e-013 1.0 6.2158611591198e-014
outer loop
vertex 233.456081097965 1991.1768166115 7.00000000000196
vertex 210.456081097965 1991.1768166115 2.00000000000093
vertex 210.456081097965 1991.1768166115 7.00000000000124
endloop
endfacet
facet normal -1.31434959534404e-013 1.0 6.2158611591198e-014
outer loop
vertex 210.456081097965 1991.1768166115 2.00000000000093
vertex 233.456081097965 1991.1768166115 7.00000000000196
vertex 233.456081097965 1991.1768166115 2.00000000000202
endloop
endfacet
facet normal -0.965925826289092 0.258819045102431 -5.5488331454103e-015
outer loop
vertex 230.387932750544 1985.65917852129 2.00000000000203
vertex 230.188131905535 1985.1768166115 7.00000000000195
vertex 230.387932750544 1985.65917852129 7.00000000000198
endloop
endfacet
facet normal -0.866025403784482 0.499999999999925 1.12450915346259e-014
outer loop
vertex 230.188131905535 1985.1768166115 7.00000000000195
vertex 230.387932750544 1985.65917852129 2.00000000000203
vertex 230.188131905535 1985.1768166115 2.00000000000201
endloop
endfacet
facet normal -1.0 -1.28524938024908e-013 -1.80477331647184e-014
outer loop
vertex 230.456081097966 1986.1768166115 2.00000000000207
vertex 230.387932750544 1985.65917852129 7.00000000000198
vertex 230.456081097966 1986.1768166115 7.00000000000201
endloop
endfacet
facet normal -0.965925826289092 0.258819045102433 -5.54883314541025e-015
outer loop
vertex 230.387932750544 1985.65917852129 7.00000000000198
vertex 230.456081097966 1986.1768166115 2.00000000000207
vertex 230.387932750544 1985.65917852129 2.00000000000203
endloop
endfacet
facet normal -0.866025403784479 0.49999999999993 1.72555564502366e-014
outer loop
vertex 217.188131905534 1985.1768166115 2.00000000000164
vertex 216.870294660339 1984.76260304912 7.00000000000156
vertex 217.188131905534 1985.1768166115 7.00000000000159
endloop
endfacet
facet normal -0.70710678118677 0.707106781186325 3.43822065551456e-014
outer loop
vertex 216.870294660339 1984.76260304912 7.00000000000156
vertex 217.188131905534 1985.1768166115 2.00000000000164
vertex 216.870294660339 1984.76260304912 2.00000000000162
endloop
endfacet
facet normal -1.0 -9.90427252407031e-014 4.51194637207468e-014
outer loop
vertex 217.456081097965 1984.9268166115 7.00000000000121
vertex 217.456081097965 1982.6768166115 8.00000000000157
vertex 217.456081097965 1984.6768166115 8.00000000000169
endloop
endfacet
facet normal -1.0 -9.90427252407031e-014 4.51194637207468e-014
outer loop
vertex 217.456081097965 1982.6768166115 8.00000000000157
vertex 217.456081097965 1984.9268166115 7.00000000000121
vertex 217.456081097965 1982.4268166115 7.00000000000106
endloop
endfacet
facet normal 1.0 9.90427252407031e-014 -4.51194637207468e-014
outer loop
vertex 226.456081097966 1982.4268166115 7.00000000000142
vertex 226.456081097966 1984.6768166115 8.00000000000205
vertex 226.456081097966 1982.6768166115 8.00000000000193
endloop
endfacet
facet normal 1.0 9.90427252407031e-014 -4.51194637207468e-014
outer loop
vertex 226.456081097966 1984.6768166115 8.00000000000205
vertex 226.456081097966 1982.4268166115 7.00000000000142
vertex 226.456081097966 1984.9268166115 7.00000000000157
endloop
endfacet
facet normal -1.04567084471604e-013 0.970142500145337 0.242535625036311
outer loop
vertex 217.456081097965 1984.6768166115 8.00000000000169
vertex 226.456081097966 1984.9268166115 7.00000000000157
vertex 217.456081097965 1984.9268166115 7.00000000000121
endloop
endfacet
facet normal -1.04567084471604e-013 0.970142500145337 0.242535625036311
outer loop
vertex 226.456081097966 1984.9268166115 7.00000000000157
vertex 217.456081097965 1984.6768166115 8.00000000000169
vertex 226.456081097966 1984.6768166115 8.00000000000205
endloop
endfacet
facet normal -2.01291513413894e-027 -5.31347188470477e-014 1.0
outer loop
vertex 226.456081097966 1982.6768166115 8.00000000000193
vertex 217.456081097965 1984.6768166115 8.00000000000169
vertex 217.456081097965 1982.6768166115 8.00000000000157
endloop
endfacet
facet normal -2.01291513413894e-027 -5.31347188470477e-014 1.0
outer loop
vertex 217.456081097965 1984.6768166115 8.00000000000169
vertex 226.456081097966 1982.6768166115 8.00000000000193
vertex 226.456081097966 1984.6768166115 8.00000000000205
endloop
endfacet
facet normal 8.51122366119709e-014 -0.970142500145326 0.242535625036355
outer loop
vertex 226.456081097966 1982.4268166115 7.00000000000142
vertex 217.456081097965 1982.6768166115 8.00000000000157
vertex 217.456081097965 1982.4268166115 7.00000000000106
endloop
endfacet
facet normal 8.51122366119709e-014 -0.970142500145326 0.242535625036355
outer loop
vertex 217.456081097965 1982.6768166115 8.00000000000157
vertex 226.456081097966 1982.4268166115 7.00000000000142
vertex 226.456081097966 1982.6768166115 8.00000000000193
endloop
endfacet
facet normal 8.63286882135362e-014 -0.970142500145216 0.242535625036798
outer loop
vertex 226.456081097966 1987.4268166115 7.00000000000137
vertex 217.456081097965 1987.6768166115 8.00000000000188
vertex 217.456081097965 1987.4268166115 7.00000000000101
endloop
endfacet
facet normal 8.63286882135362e-014 -0.970142500145216 0.242535625036798
outer loop
vertex 217.456081097965 1987.6768166115 8.00000000000188
vertex 226.456081097966 1987.4268166115 7.00000000000137
vertex 226.456081097966 1987.6768166115 8.00000000000224
endloop
endfacet
facet normal -1.0 -9.90427252406871e-014 4.51194637207607e-014
outer loop
vertex 217.456081097965 1989.9268166115 7.00000000000116
vertex 217.456081097965 1987.6768166115 8.00000000000188
vertex 217.456081097965 1989.6768166115 8.000000000002
endloop
endfacet
facet normal -1.0 -9.90427252406871e-014 4.51194637207607e-014
outer loop
vertex 217.456081097965 1987.6768166115 8.00000000000188
vertex 217.456081097965 1989.9268166115 7.00000000000116
vertex 217.456081097965 1987.4268166115 7.00000000000101
endloop
endfacet
facet normal 1.0 9.90427252406889e-014 -4.51194637207574e-014
outer loop
vertex 226.456081097966 1987.4268166115 7.00000000000137
vertex 226.456081097966 1989.6768166115 8.00000000000236
vertex 226.456081097966 1987.6768166115 8.00000000000224
endloop
endfacet
facet normal 1.0 9.90427252406889e-014 -4.51194637207574e-014
outer loop
vertex 226.456081097966 1989.6768166115 8.00000000000236
vertex 226.456081097966 1987.4268166115 7.00000000000137
vertex 226.456081097966 1989.9268166115 7.00000000000152
endloop
endfacet
facet normal -1.0213585682159e-013 0.970142500145358 0.242535625036229
outer loop
vertex 217.456081097965 1989.6768166115 8.000000000002
vertex 226.456081097966 1989.9268166115 7.00000000000152
vertex 217.456081097965 1989.9268166115 7.00000000000116
endloop
endfacet
facet normal -1.0213585682159e-013 0.970142500145358 0.242535625036229
outer loop
vertex 226.456081097966 1989.9268166115 7.00000000000152
vertex 217.456081097965 1989.6768166115 8.000000000002
vertex 226.456081097966 1989.6768166115 8.00000000000236
endloop
endfacet
facet normal -2.01291513413894e-027 -5.31347188470477e-014 1.0
outer loop
vertex 226.456081097966 1987.6768166115 8.00000000000224
vertex 217.456081097965 1989.6768166115 8.000000000002
vertex 217.456081097965 1987.6768166115 8.00000000000188
endloop
endfacet
facet normal -2.01291513413894e-027 -5.31347188470477e-014 1.0
outer loop
vertex 217.456081097965 1989.6768166115 8.000000000002
vertex 226.456081097966 1987.6768166115 8.00000000000224
vertex 226.456081097966 1989.6768166115 8.00000000000236
endloop
endfacet
endsolid Main Design
