solid Main Design
facet normal 0.0 1.0 0.0
outer loop
vertex 407.500000000076 732.000000000009 47.5000000000002
vertex 387.500000000076 732.000000000009 42.5000000000002
vertex 387.500000000076 732.000000000009 47.5000000000002
endloop
endfacet
facet normal 0.0 1.0 0.0
outer loop
vertex 387.500000000076 732.000000000009 42.5000000000002
vertex 407.500000000076 732.000000000009 47.5000000000002
vertex 407.500000000076 732.000000000009 42.5000000000002
endloop
endfacet
facet normal 0.0 -1.0 -0.0
outer loop
vertex 387.500000000076 688.000000000009 42.5000000000002
vertex 407.500000000076 688.000000000009 47.5000000000002
vertex 387.500000000076 688.000000000009 47.5000000000002
endloop
endfacet
facet normal 0.0 -1.0 -0.0
outer loop
vertex 407.500000000076 688.000000000009 47.5000000000002
vertex 387.500000000076 688.000000000009 42.5000000000002
vertex 407.500000000076 688.000000000009 42.5000000000002
endloop
endfacet
facet normal 8.43201452068329e-016 4.57326988417057e-017 1.0
outer loop
vertex 407.500000000076 700.000000000009 57.5000000000001
vertex 399.625000000076 706.319392033925 57.5000000000001
vertex 387.500000000076 700.000000000009 57.5000000000001
endloop
endfacet
facet normal 8.43201452068329e-016 4.57326988417057e-017 1.0
outer loop
vertex 399.625000000076 706.319392033925 57.5000000000001
vertex 407.500000000076 700.000000000009 57.5000000000001
vertex 400.505203820119 706.994796179966 57.5000000000001
endloop
endfacet
facet normal 8.43201452068329e-016 4.57326988417057e-017 1.0
outer loop
vertex 400.505203820119 706.994796179966 57.5000000000001
vertex 407.500000000076 700.000000000009 57.5000000000001
vertex 401.18060796616 707.875000000009 57.5000000000001
endloop
endfacet
facet normal 8.43201452068329e-016 4.57326988417057e-017 1.0
outer loop
vertex 401.18060796616 707.875000000009 57.5000000000001
vertex 407.500000000076 700.000000000009 57.5000000000001
vertex 407.500000000076 720.000000000009 57.5000000000001
endloop
endfacet
facet normal 8.43201452068329e-016 4.57326988417057e-017 1.0
outer loop
vertex 387.500000000076 700.000000000009 57.5000000000001
vertex 399.625000000076 706.319392033925 57.5000000000001
vertex 398.599980941762 705.89481523828 57.5000000000001
endloop
endfacet
facet normal 8.43201452068329e-016 4.57326988417057e-017 1.0
outer loop
vertex 387.500000000076 700.000000000009 57.5000000000001
vertex 398.599980941762 705.89481523828 57.5000000000001
vertex 397.500000000076 705.750000000009 57.5000000000001
endloop
endfacet
facet normal 8.43201452068329e-016 4.57326988417057e-017 1.0
outer loop
vertex 401.18060796616 707.875000000009 57.5000000000001
vertex 407.500000000076 720.000000000009 57.5000000000001
vertex 401.605184761804 708.900019058323 57.5000000000001
endloop
endfacet
facet normal 8.43201452068329e-016 4.57326988417057e-017 1.0
outer loop
vertex 401.605184761804 708.900019058323 57.5000000000001
vertex 407.500000000076 720.000000000009 57.5000000000001
vertex 401.750000000076 710.000000000009 57.5000000000001
endloop
endfacet
facet normal 8.43201452068329e-016 4.57326988417057e-017 1.0
outer loop
vertex 401.750000000076 710.000000000009 57.5000000000001
vertex 407.500000000076 720.000000000009 57.5000000000001
vertex 401.605184761804 711.099980941694 57.5000000000001
endloop
endfacet
facet normal 8.43201452068329e-016 4.57326988417057e-017 1.0
outer loop
vertex 401.605184761804 711.099980941694 57.5000000000001
vertex 407.500000000076 720.000000000009 57.5000000000001
vertex 401.18060796616 712.125000000009 57.5000000000001
endloop
endfacet
facet normal 8.43201452068329e-016 4.57326988417057e-017 1.0
outer loop
vertex 401.18060796616 712.125000000009 57.5000000000001
vertex 407.500000000076 720.000000000009 57.5000000000001
vertex 400.505203820119 713.005203820051 57.5000000000001
endloop
endfacet
facet normal 8.43201452068329e-016 4.57326988417057e-017 1.0
outer loop
vertex 400.505203820119 713.005203820051 57.5000000000001
vertex 407.500000000076 720.000000000009 57.5000000000001
vertex 399.625000000076 713.680607966092 57.5000000000001
endloop
endfacet
facet normal 8.43201452068329e-016 4.57326988417057e-017 1.0
outer loop
vertex 399.625000000076 713.680607966092 57.5000000000001
vertex 407.500000000076 720.000000000009 57.5000000000001
vertex 398.599980941762 714.105184761737 57.5000000000001
endloop
endfacet
facet normal 8.43201452068329e-016 4.57326988417057e-017 1.0
outer loop
vertex 398.599980941762 714.105184761737 57.5000000000001
vertex 407.500000000076 720.000000000009 57.5000000000001
vertex 397.500000000076 714.250000000009 57.5000000000001
endloop
endfacet
facet normal 8.43201452068329e-016 4.57326988417057e-017 1.0
outer loop
vertex 394.494796180033 713.005203820051 57.5000000000001
vertex 387.500000000076 712.828427124755 57.5000000000001
vertex 394.359150650886 712.828427124755 57.5000000000001
endloop
endfacet
facet normal 8.43201452068329e-016 4.57326988417057e-017 1.0
outer loop
vertex 387.500000000076 712.828427124755 57.5000000000001
vertex 394.494796180033 713.005203820051 57.5000000000001
vertex 387.500000000076 720.000000000009 57.5000000000001
endloop
endfacet
facet normal 8.43201452068329e-016 4.57326988417057e-017 1.0
outer loop
vertex 387.500000000076 720.000000000009 57.5000000000001
vertex 394.494796180033 713.005203820051 57.5000000000001
vertex 395.375000000076 713.680607966092 57.5000000000001
endloop
endfacet
facet normal 8.43201452068329e-016 4.57326988417057e-017 1.0
outer loop
vertex 387.500000000076 720.000000000009 57.5000000000001
vertex 395.375000000076 713.680607966092 57.5000000000001
vertex 396.40001905839 714.105184761737 57.5000000000001
endloop
endfacet
facet normal 8.43201452068329e-016 4.57326988417057e-017 1.0
outer loop
vertex 387.500000000076 720.000000000009 57.5000000000001
vertex 396.40001905839 714.105184761737 57.5000000000001
vertex 397.500000000076 714.250000000009 57.5000000000001
endloop
endfacet
facet normal 8.43201452068329e-016 4.57326988417057e-017 1.0
outer loop
vertex 387.500000000076 720.000000000009 57.5000000000001
vertex 397.500000000076 714.250000000009 57.5000000000001
vertex 407.500000000076 720.000000000009 57.5000000000001
endloop
endfacet
facet normal 8.43201452068329e-016 4.57326988417057e-017 1.0
outer loop
vertex 387.500000000076 700.000000000009 57.5000000000001
vertex 396.40001905839 705.89481523828 57.5000000000001
vertex 387.500000000076 707.171572875262 57.5000000000001
endloop
endfacet
facet normal 8.43201452068329e-016 4.57326988417057e-017 1.0
outer loop
vertex 396.40001905839 705.89481523828 57.5000000000001
vertex 387.500000000076 700.000000000009 57.5000000000001
vertex 397.500000000076 705.750000000009 57.5000000000001
endloop
endfacet
facet normal 8.43201452068329e-016 4.57326988417057e-017 1.0
outer loop
vertex 387.500000000076 707.171572875262 57.5000000000001
vertex 396.40001905839 705.89481523828 57.5000000000001
vertex 395.375000000076 706.319392033925 57.5000000000001
endloop
endfacet
facet normal 8.43201452068329e-016 4.57326988417057e-017 1.0
outer loop
vertex 387.500000000076 707.171572875262 57.5000000000001
vertex 395.375000000076 706.319392033925 57.5000000000001
vertex 394.494796180033 706.994796179966 57.5000000000001
endloop
endfacet
facet normal 8.43201452068329e-016 4.57326988417057e-017 1.0
outer loop
vertex 387.500000000076 707.171572875262 57.5000000000001
vertex 394.494796180033 706.994796179966 57.5000000000001
vertex 394.359150650886 707.171572875262 57.5000000000001
endloop
endfacet
facet normal -1.0 1.18287184670633e-017 7.59082263233625e-016
outer loop
vertex 387.500000000076 732.000000000009 42.5000000000002
vertex 387.500000000076 720.000000000009 47.5000000000002
vertex 387.500000000076 732.000000000009 47.5000000000002
endloop
endfacet
facet normal -1.0 1.18287184670633e-017 7.59082263233625e-016
outer loop
vertex 387.500000000076 720.000000000009 47.5000000000002
vertex 387.500000000076 732.000000000009 42.5000000000002
vertex 387.500000000076 712.828427124755 47.5000000000001
endloop
endfacet
facet normal -1.0 1.18287184670633e-017 7.59082263233625e-016
outer loop
vertex 387.500000000076 712.828427124755 47.5000000000001
vertex 387.500000000076 732.000000000009 42.5000000000002
vertex 387.500000000076 712.000000000009 47.5000000000001
endloop
endfacet
facet normal -1.0 1.18287184670633e-017 7.59082263233625e-016
outer loop
vertex 387.500000000076 712.000000000009 47.5000000000001
vertex 387.500000000076 732.000000000009 42.5000000000002
vertex 387.500000000076 708.000000000009 47.5000000000001
endloop
endfacet
facet normal -1.0 1.18287184670633e-017 7.59082263233625e-016
outer loop
vertex 387.500000000076 708.000000000009 47.5000000000001
vertex 387.500000000076 732.000000000009 42.5000000000002
vertex 387.500000000076 707.171572875262 47.5000000000001
endloop
endfacet
facet normal -1.0 1.18287184670633e-017 7.59082263233625e-016
outer loop
vertex 387.500000000076 707.171572875262 47.5000000000001
vertex 387.500000000076 700.000000000009 57.5000000000001
vertex 387.500000000076 707.171572875262 57.5000000000001
endloop
endfacet
facet normal -1.0 1.18287184670633e-017 7.59082263233625e-016
outer loop
vertex 387.500000000076 700.000000000009 57.5000000000001
vertex 387.500000000076 707.171572875262 47.5000000000001
vertex 387.500000000076 700.000000000009 47.5000000000002
endloop
endfacet
facet normal -1.0 1.18287184670633e-017 7.59082263233625e-016
outer loop
vertex 387.500000000076 700.000000000009 47.5000000000002
vertex 387.500000000076 707.171572875262 47.5000000000001
vertex 387.500000000076 688.000000000009 47.5000000000002
endloop
endfacet
facet normal -1.0 1.18287184670633e-017 7.59082263233625e-016
outer loop
vertex 387.500000000076 688.000000000009 47.5000000000002
vertex 387.500000000076 707.171572875262 47.5000000000001
vertex 387.500000000076 688.000000000009 42.5000000000002
endloop
endfacet
facet normal -1.0 1.18287184670633e-017 7.59082263233625e-016
outer loop
vertex 387.500000000076 688.000000000009 42.5000000000002
vertex 387.500000000076 707.171572875262 47.5000000000001
vertex 387.500000000076 732.000000000009 42.5000000000002
endloop
endfacet
facet normal -1.0 1.18287184670633e-017 7.59082263233625e-016
outer loop
vertex 387.500000000076 712.000000000009 47.5000000000001
vertex 387.500000000076 708.000000000009 53.9140000000002
vertex 387.500000000076 712.000000000009 53.9140000000002
endloop
endfacet
facet normal -1.0 1.18287184670633e-017 7.59082263233625e-016
outer loop
vertex 387.500000000076 708.000000000009 53.9140000000002
vertex 387.500000000076 712.000000000009 47.5000000000001
vertex 387.500000000076 708.000000000009 47.5000000000001
endloop
endfacet
facet normal -1.0 1.18287184670633e-017 7.59082263233625e-016
outer loop
vertex 387.500000000076 720.000000000009 47.5000000000002
vertex 387.500000000076 712.828427124755 57.5000000000001
vertex 387.500000000076 720.000000000009 57.5000000000001
endloop
endfacet
facet normal -1.0 1.18287184670633e-017 7.59082263233625e-016
outer loop
vertex 387.500000000076 712.828427124755 57.5000000000001
vertex 387.500000000076 720.000000000009 47.5000000000002
vertex 387.500000000076 712.828427124755 47.5000000000001
endloop
endfacet
facet normal 1.0 0.0 -7.77156117237609e-016
outer loop
vertex 407.500000000076 688.000000000009 42.5000000000002
vertex 407.500000000076 700.000000000009 47.5000000000002
vertex 407.500000000076 688.000000000009 47.5000000000002
endloop
endfacet
facet normal 1.0 0.0 -7.77156117237609e-016
outer loop
vertex 407.500000000076 700.000000000009 47.5000000000002
vertex 407.500000000076 688.000000000009 42.5000000000002
vertex 407.500000000076 720.000000000009 47.5000000000002
endloop
endfacet
facet normal 1.0 0.0 -7.77156117237609e-016
outer loop
vertex 407.500000000076 720.000000000009 47.5000000000002
vertex 407.500000000076 688.000000000009 42.5000000000002
vertex 407.500000000076 732.000000000009 47.5000000000002
endloop
endfacet
facet normal 1.0 0.0 -7.77156117237609e-016
outer loop
vertex 407.500000000076 732.000000000009 47.5000000000002
vertex 407.500000000076 688.000000000009 42.5000000000002
vertex 407.500000000076 732.000000000009 42.5000000000002
endloop
endfacet
facet normal 1.0 0.0 -7.77156117237609e-016
outer loop
vertex 407.500000000076 700.000000000009 47.5000000000002
vertex 407.500000000076 720.000000000009 57.5000000000001
vertex 407.500000000076 700.000000000009 57.5000000000001
endloop
endfacet
facet normal 1.0 0.0 -7.77156117237609e-016
outer loop
vertex 407.500000000076 720.000000000009 57.5000000000001
vertex 407.500000000076 700.000000000009 47.5000000000002
vertex 407.500000000076 720.000000000009 47.5000000000002
endloop
endfacet
facet normal 0.0 1.0 0.0
outer loop
vertex 407.500000000076 720.000000000009 57.5000000000001
vertex 387.500000000076 720.000000000009 47.5000000000002
vertex 387.500000000076 720.000000000009 57.5000000000001
endloop
endfacet
facet normal 0.0 1.0 0.0
outer loop
vertex 387.500000000076 720.000000000009 47.5000000000002
vertex 407.500000000076 720.000000000009 57.5000000000001
vertex 407.500000000076 720.000000000009 47.5000000000002
endloop
endfacet
facet normal 0.0 -1.0 -0.0
outer loop
vertex 407.500000000076 700.000000000009 47.5000000000002
vertex 387.500000000076 700.000000000009 57.5000000000001
vertex 387.500000000076 700.000000000009 47.5000000000002
endloop
endfacet
facet normal 0.0 -1.0 -0.0
outer loop
vertex 387.500000000076 700.000000000009 57.5000000000001
vertex 407.500000000076 700.000000000009 47.5000000000002
vertex 407.500000000076 700.000000000009 57.5000000000001
endloop
endfacet
facet normal -0.258819045102523 0.965925826289068 2.01142804159022e-016
outer loop
vertex 398.043519994791 722.971555764802 47.5000000000001
vertex 397.500000000076 722.900000000009 42.5000000000002
vertex 397.500000000076 722.900000000009 47.5000000000001
endloop
endfacet
facet normal -1.29211093486881e-015 1.0 1.0041719171829e-030
outer loop
vertex 397.500000000076 722.900000000009 42.5000000000002
vertex 398.043519994791 722.971555764802 47.5000000000001
vertex 398.043519994791 722.971555764802 42.5000000000002
endloop
endfacet
facet normal -0.49999999999997 0.866025403784456 3.88578058618782e-016
outer loop
vertex 398.550000000076 723.181346652061 47.5000000000001
vertex 398.043519994791 722.971555764802 42.5000000000002
vertex 398.043519994791 722.971555764802 47.5000000000001
endloop
endfacet
facet normal -0.258819045102527 0.965925826289067 2.01142804159026e-016
outer loop
vertex 398.043519994791 722.971555764802 42.5000000000002
vertex 398.550000000076 723.181346652061 47.5000000000001
vertex 398.550000000076 723.181346652061 42.5000000000002
endloop
endfacet
facet normal -0.707106781186543 0.707106781186552 5.49532360539318e-016
outer loop
vertex 398.984924240568 723.515075759517 47.5000000000001
vertex 398.550000000076 723.181346652061 42.5000000000002
vertex 398.550000000076 723.181346652061 47.5000000000001
endloop
endfacet
facet normal -0.499999999999972 0.866025403784455 3.88578058618783e-016
outer loop
vertex 398.550000000076 723.181346652061 42.5000000000002
vertex 398.984924240568 723.515075759517 47.5000000000001
vertex 398.984924240568 723.515075759517 42.5000000000002
endloop
endfacet
facet normal -0.86602540378444 0.499999999999998 6.73036940234248e-016
outer loop
vertex 399.318653348023 723.950000000009 42.5000000000002
vertex 398.984924240568 723.515075759517 47.5000000000001
vertex 399.318653348023 723.950000000009 47.5000000000001
endloop
endfacet
facet normal -0.707106781186543 0.707106781186552 5.49532360539318e-016
outer loop
vertex 398.984924240568 723.515075759517 47.5000000000001
vertex 399.318653348023 723.950000000009 42.5000000000002
vertex 398.984924240568 723.515075759517 42.5000000000002
endloop
endfacet
facet normal -0.965925826289067 0.258819045102525 7.50675164698341e-016
outer loop
vertex 399.528444235283 724.456480005293 47.5000000000001
vertex 399.318653348023 723.950000000009 42.5000000000002
vertex 399.318653348023 723.950000000009 47.5000000000001
endloop
endfacet
facet normal -0.86602540378444 0.499999999999998 6.73036940234248e-016
outer loop
vertex 399.318653348023 723.950000000009 42.5000000000002
vertex 399.528444235283 724.456480005293 47.5000000000001
vertex 399.528444235283 724.456480005293 42.5000000000002
endloop
endfacet
facet normal -1.0 -6.32688802590931e-016 7.77156117237609e-016
outer loop
vertex 399.600000000076 725.000000000009 42.5000000000002
vertex 399.528444235283 724.456480005293 47.5000000000001
vertex 399.600000000076 725.000000000009 47.5000000000001
endloop
endfacet
facet normal -0.965925826289067 0.258819045102525 7.50675164698341e-016
outer loop
vertex 399.528444235283 724.456480005293 47.5000000000001
vertex 399.600000000076 725.000000000009 42.5000000000002
vertex 399.528444235283 724.456480005293 42.5000000000002
endloop
endfacet
facet normal -0.965925826289067 -0.258819045102526 7.50675164698341e-016
outer loop
vertex 399.528444235283 725.543519994724 47.5000000000001
vertex 399.600000000076 725.000000000009 42.5000000000002
vertex 399.600000000076 725.000000000009 47.5000000000001
endloop
endfacet
facet normal -1.0 -6.32688802590931e-016 7.77156117237609e-016
outer loop
vertex 399.600000000076 725.000000000009 42.5000000000002
vertex 399.528444235283 725.543519994724 47.5000000000001
vertex 399.528444235283 725.543519994724 42.5000000000002
endloop
endfacet
facet normal -0.86602540378444 -0.499999999999998 6.73036940234248e-016
outer loop
vertex 399.318653348023 726.050000000008 42.5000000000002
vertex 399.528444235283 725.543519994724 47.5000000000001
vertex 399.318653348023 726.050000000008 47.5000000000001
endloop
endfacet
facet normal -0.965925826289067 -0.258819045102526 7.50675164698341e-016
outer loop
vertex 399.528444235283 725.543519994724 47.5000000000001
vertex 399.318653348023 726.050000000008 42.5000000000002
vertex 399.528444235283 725.543519994724 42.5000000000002
endloop
endfacet
facet normal -0.707106781186543 -0.707106781186552 5.49532360539318e-016
outer loop
vertex 398.984924240568 726.4849242405 47.5000000000001
vertex 399.318653348023 726.050000000008 42.5000000000002
vertex 399.318653348023 726.050000000008 47.5000000000001
endloop
endfacet
facet normal -0.86602540378444 -0.499999999999998 6.73036940234248e-016
outer loop
vertex 399.318653348023 726.050000000008 42.5000000000002
vertex 398.984924240568 726.4849242405 47.5000000000001
vertex 398.984924240568 726.4849242405 42.5000000000002
endloop
endfacet
facet normal -0.499999999999972 -0.866025403784455 3.88578058618783e-016
outer loop
vertex 398.550000000076 726.818653347956 42.5000000000002
vertex 398.984924240568 726.4849242405 47.5000000000001
vertex 398.550000000076 726.818653347956 47.5000000000001
endloop
endfacet
facet normal -0.707106781186543 -0.707106781186552 5.49532360539318e-016
outer loop
vertex 398.984924240568 726.4849242405 47.5000000000001
vertex 398.550000000076 726.818653347956 42.5000000000002
vertex 398.984924240568 726.4849242405 42.5000000000002
endloop
endfacet
facet normal -0.258819045102527 -0.965925826289067 2.01142804159026e-016
outer loop
vertex 398.043519994791 727.028444235216 42.5000000000002
vertex 398.550000000076 726.818653347956 47.5000000000001
vertex 398.043519994791 727.028444235216 47.5000000000001
endloop
endfacet
facet normal -0.499999999999969 -0.866025403784457 3.88578058618781e-016
outer loop
vertex 398.550000000076 726.818653347956 47.5000000000001
vertex 398.043519994791 727.028444235216 42.5000000000002
vertex 398.550000000076 726.818653347956 42.5000000000002
endloop
endfacet
facet normal -1.57726645152951e-015 -1.0 1.22578227131982e-030
outer loop
vertex 397.500000000076 727.100000000009 42.5000000000002
vertex 398.043519994791 727.028444235216 47.5000000000001
vertex 397.500000000076 727.100000000009 47.5000000000001
endloop
endfacet
facet normal -0.258819045102523 -0.965925826289068 2.01142804159022e-016
outer loop
vertex 398.043519994791 727.028444235216 47.5000000000001
vertex 397.500000000076 727.100000000009 42.5000000000002
vertex 398.043519994791 727.028444235216 42.5000000000002
endloop
endfacet
facet normal 0.258819045102523 -0.965925826289068 -2.01142804159022e-016
outer loop
vertex 396.956480005361 727.028444235216 42.5000000000002
vertex 397.500000000076 727.100000000009 47.5000000000001
vertex 396.956480005361 727.028444235216 47.5000000000001
endloop
endfacet
facet normal 1.52379979215563e-015 -1.0 -1.18423032991914e-030
outer loop
vertex 397.500000000076 727.100000000009 47.5000000000001
vertex 396.956480005361 727.028444235216 42.5000000000002
vertex 397.500000000076 727.100000000009 42.5000000000002
endloop
endfacet
facet normal 0.499999999999969 -0.866025403784457 -3.88578058618781e-016
outer loop
vertex 396.450000000076 726.818653347956 42.5000000000002
vertex 396.956480005361 727.028444235216 47.5000000000001
vertex 396.450000000076 726.818653347956 47.5000000000001
endloop
endfacet
facet normal 0.258819045102527 -0.965925826289067 -2.01142804159025e-016
outer loop
vertex 396.956480005361 727.028444235216 47.5000000000001
vertex 396.450000000076 726.818653347956 42.5000000000002
vertex 396.956480005361 727.028444235216 42.5000000000002
endloop
endfacet
facet normal 0.707106781186543 -0.707106781186552 -5.49532360539318e-016
outer loop
vertex 396.015075759584 726.4849242405 42.5000000000002
vertex 396.450000000076 726.818653347956 47.5000000000001
vertex 396.015075759584 726.4849242405 47.5000000000001
endloop
endfacet
facet normal 0.499999999999972 -0.866025403784455 -3.88578058618783e-016
outer loop
vertex 396.450000000076 726.818653347956 47.5000000000001
vertex 396.015075759584 726.4849242405 42.5000000000002
vertex 396.450000000076 726.818653347956 42.5000000000002
endloop
endfacet
facet normal 0.866025403784439 -0.5 -6.73036940234247e-016
outer loop
vertex 395.681346652129 726.050000000008 42.5000000000002
vertex 396.015075759584 726.4849242405 47.5000000000001
vertex 395.681346652128 726.050000000008 47.5000000000001
endloop
endfacet
facet normal 0.707106781186545 -0.70710678118655 -5.49532360539319e-016
outer loop
vertex 396.015075759584 726.4849242405 47.5000000000001
vertex 395.681346652129 726.050000000008 42.5000000000002
vertex 396.015075759584 726.4849242405 42.5000000000002
endloop
endfacet
facet normal 0.965925826289067 -0.258819045102526 -7.50675164698341e-016
outer loop
vertex 395.471555764869 725.543519994724 42.5000000000002
vertex 395.681346652128 726.050000000008 47.5000000000001
vertex 395.471555764869 725.543519994724 47.5000000000001
endloop
endfacet
facet normal 0.86602540378444 -0.499999999999998 -6.73036940234248e-016
outer loop
vertex 395.681346652128 726.050000000008 47.5000000000001
vertex 395.471555764869 725.543519994724 42.5000000000002
vertex 395.681346652129 726.050000000008 42.5000000000002
endloop
endfacet
facet normal 1.0 2.22777747391172e-016 -7.77156117237609e-016
outer loop
vertex 395.400000000076 725.000000000009 47.5000000000001
vertex 395.471555764869 725.543519994724 42.5000000000002
vertex 395.471555764869 725.543519994724 47.5000000000001
endloop
endfacet
facet normal 0.965925826289067 -0.258819045102526 -7.50675164698341e-016
outer loop
vertex 395.471555764869 725.543519994724 42.5000000000002
vertex 395.400000000076 725.000000000009 47.5000000000001
vertex 395.400000000076 725.000000000009 42.5000000000002
endloop
endfacet
facet normal 0.965925826289067 0.258819045102526 -7.50675164698341e-016
outer loop
vertex 395.471555764869 724.456480005293 42.5000000000002
vertex 395.400000000076 725.000000000009 47.5000000000001
vertex 395.471555764869 724.456480005293 47.5000000000001
endloop
endfacet
facet normal 1.0 2.22777747391172e-016 -7.77156117237609e-016
outer loop
vertex 395.400000000076 725.000000000009 47.5000000000001
vertex 395.471555764869 724.456480005293 42.5000000000002
vertex 395.400000000076 725.000000000009 42.5000000000002
endloop
endfacet
facet normal 0.86602540378444 0.499999999999998 -6.73036940234248e-016
outer loop
vertex 395.681346652128 723.950000000009 47.5000000000001
vertex 395.471555764869 724.456480005293 42.5000000000002
vertex 395.471555764869 724.456480005293 47.5000000000001
endloop
endfacet
facet normal 0.965925826289067 0.258819045102526 -7.50675164698341e-016
outer loop
vertex 395.471555764869 724.456480005293 42.5000000000002
vertex 395.681346652128 723.950000000009 47.5000000000001
vertex 395.681346652129 723.950000000009 42.5000000000002
endloop
endfacet
facet normal 0.707106781186543 0.707106781186552 -5.49532360539318e-016
outer loop
vertex 396.015075759584 723.515075759517 42.5000000000002
vertex 395.681346652128 723.950000000009 47.5000000000001
vertex 396.015075759584 723.515075759517 47.5000000000001
endloop
endfacet
facet normal 0.86602540378444 0.499999999999998 -6.73036940234248e-016
outer loop
vertex 395.681346652128 723.950000000009 47.5000000000001
vertex 396.015075759584 723.515075759517 42.5000000000002
vertex 395.681346652129 723.950000000009 42.5000000000002
endloop
endfacet
facet normal 0.499999999999972 0.866025403784455 -3.88578058618783e-016
outer loop
vertex 396.450000000076 723.181346652061 47.5000000000001
vertex 396.015075759584 723.515075759517 42.5000000000002
vertex 396.015075759584 723.515075759517 47.5000000000001
endloop
endfacet
facet normal 0.707106781186543 0.707106781186552 -5.49532360539318e-016
outer loop
vertex 396.015075759584 723.515075759517 42.5000000000002
vertex 396.450000000076 723.181346652061 47.5000000000001
vertex 396.450000000076 723.181346652061 42.5000000000002
endloop
endfacet
facet normal 0.258819045102527 0.965925826289067 -2.01142804159026e-016
outer loop
vertex 396.956480005361 722.971555764802 47.5000000000001
vertex 396.450000000076 723.181346652061 42.5000000000002
vertex 396.450000000076 723.181346652061 47.5000000000001
endloop
endfacet
facet normal 0.499999999999969 0.866025403784457 -3.8857805861878e-016
outer loop
vertex 396.450000000076 723.181346652061 42.5000000000002
vertex 396.956480005361 722.971555764802 47.5000000000001
vertex 396.956480005361 722.971555764802 42.5000000000002
endloop
endfacet
facet normal 1.80895530881633e-015 1.0 -1.40584068405606e-030
outer loop
vertex 397.500000000076 722.900000000009 47.5000000000001
vertex 396.956480005361 722.971555764802 42.5000000000002
vertex 396.956480005361 722.971555764802 47.5000000000001
endloop
endfacet
facet normal 0.258819045102523 0.965925826289068 -2.01142804159022e-016
outer loop
vertex 396.956480005361 722.971555764802 42.5000000000002
vertex 397.500000000076 722.900000000009 47.5000000000001
vertex 397.500000000076 722.900000000009 42.5000000000002
endloop
endfacet
facet normal -0.499999999999972 -0.866025403784455 3.88578058618783e-016
outer loop
vertex 398.550000000076 696.818653347956 42.5000000000002
vertex 398.984924240568 696.4849242405 47.5000000000001
vertex 398.550000000076 696.818653347956 47.5000000000001
endloop
endfacet
facet normal -0.707106781186543 -0.707106781186552 5.49532360539318e-016
outer loop
vertex 398.984924240568 696.4849242405 47.5000000000001
vertex 398.550000000076 696.818653347956 42.5000000000002
vertex 398.984924240568 696.4849242405 42.5000000000002
endloop
endfacet
facet normal -0.258819045102527 -0.965925826289067 2.01142804159026e-016
outer loop
vertex 398.043519994791 697.028444235216 42.5000000000002
vertex 398.550000000076 696.818653347956 47.5000000000001
vertex 398.043519994791 697.028444235216 47.5000000000001
endloop
endfacet
facet normal -0.49999999999997 -0.866025403784456 3.88578058618781e-016
outer loop
vertex 398.550000000076 696.818653347956 47.5000000000001
vertex 398.043519994791 697.028444235216 42.5000000000002
vertex 398.550000000076 696.818653347956 42.5000000000002
endloop
endfacet
facet normal -1.62182200100775e-015 -1.0 1.26040888915371e-030
outer loop
vertex 397.500000000076 697.100000000009 42.5000000000002
vertex 398.043519994791 697.028444235216 47.5000000000001
vertex 397.500000000076 697.100000000009 47.5000000000001
endloop
endfacet
facet normal -0.258819045102523 -0.965925826289068 2.01142804159022e-016
outer loop
vertex 398.043519994791 697.028444235216 47.5000000000001
vertex 397.500000000076 697.100000000009 42.5000000000002
vertex 398.043519994791 697.028444235216 42.5000000000002
endloop
endfacet
facet normal 0.258819045102523 -0.965925826289068 -2.01142804159023e-016
outer loop
vertex 396.956480005361 697.028444235216 42.5000000000002
vertex 397.500000000076 697.100000000009 47.5000000000001
vertex 396.956480005361 697.028444235216 47.5000000000001
endloop
endfacet
facet normal 1.47033313278175e-015 -1.0 -1.14267838851847e-030
outer loop
vertex 397.500000000076 697.100000000009 47.5000000000001
vertex 396.956480005361 697.028444235216 42.5000000000002
vertex 397.500000000076 697.100000000009 42.5000000000002
endloop
endfacet
facet normal 0.499999999999969 -0.866025403784456 -3.88578058618781e-016
outer loop
vertex 396.450000000076 696.818653347956 42.5000000000002
vertex 396.956480005361 697.028444235216 47.5000000000001
vertex 396.450000000076 696.818653347956 47.5000000000001
endloop
endfacet
facet normal 0.258819045102527 -0.965925826289067 -2.01142804159026e-016
outer loop
vertex 396.956480005361 697.028444235216 47.5000000000001
vertex 396.450000000076 696.818653347956 42.5000000000002
vertex 396.956480005361 697.028444235216 42.5000000000002
endloop
endfacet
facet normal 0.707106781186543 -0.707106781186552 -5.49532360539318e-016
outer loop
vertex 396.015075759584 696.4849242405 42.5000000000002
vertex 396.450000000076 696.818653347956 47.5000000000001
vertex 396.015075759584 696.4849242405 47.5000000000001
endloop
endfacet
facet normal 0.499999999999973 -0.866025403784454 -3.88578058618784e-016
outer loop
vertex 396.450000000076 696.818653347956 47.5000000000001
vertex 396.015075759584 696.4849242405 42.5000000000002
vertex 396.450000000076 696.818653347956 42.5000000000002
endloop
endfacet
facet normal 0.866025403784439 -0.499999999999999 -6.73036940234248e-016
outer loop
vertex 395.681346652129 696.050000000009 42.5000000000002
vertex 396.015075759584 696.4849242405 47.5000000000001
vertex 395.681346652128 696.050000000009 47.5000000000001
endloop
endfacet
facet normal 0.707106781186545 -0.70710678118655 -5.49532360539319e-016
outer loop
vertex 396.015075759584 696.4849242405 47.5000000000001
vertex 395.681346652129 696.050000000009 42.5000000000002
vertex 396.015075759584 696.4849242405 42.5000000000002
endloop
endfacet
facet normal 0.965925826289067 -0.258819045102525 -7.50675164698341e-016
outer loop
vertex 395.471555764869 695.543519994724 42.5000000000002
vertex 395.681346652128 696.050000000009 47.5000000000001
vertex 395.471555764869 695.543519994724 47.5000000000001
endloop
endfacet
facet normal 0.86602540378444 -0.499999999999997 -6.73036940234248e-016
outer loop
vertex 395.681346652128 696.050000000009 47.5000000000001
vertex 395.471555764869 695.543519994724 42.5000000000002
vertex 395.681346652129 696.050000000009 42.5000000000002
endloop
endfacet
facet normal 1.0 7.03977681756103e-016 -7.77156117237609e-016
outer loop
vertex 395.400000000076 695.000000000009 47.5000000000001
vertex 395.471555764869 695.543519994724 42.5000000000002
vertex 395.471555764869 695.543519994724 47.5000000000001
endloop
endfacet
facet normal 0.965925826289067 -0.258819045102525 -7.50675164698341e-016
outer loop
vertex 395.471555764869 695.543519994724 42.5000000000002
vertex 395.400000000076 695.000000000009 47.5000000000001
vertex 395.400000000076 695.000000000009 42.5000000000002
endloop
endfacet
facet normal 0.965925826289067 0.258819045102526 -7.50675164698341e-016
outer loop
vertex 395.471555764869 694.456480005293 42.5000000000002
vertex 395.400000000076 695.000000000009 47.5000000000001
vertex 395.471555764869 694.456480005293 47.5000000000001
endloop
endfacet
facet normal 1.0 7.03977681756103e-016 -7.77156117237609e-016
outer loop
vertex 395.400000000076 695.000000000009 47.5000000000001
vertex 395.471555764869 694.456480005293 42.5000000000002
vertex 395.400000000076 695.000000000009 42.5000000000002
endloop
endfacet
facet normal 0.86602540378444 0.499999999999998 -6.73036940234248e-016
outer loop
vertex 395.681346652128 693.950000000009 47.5000000000001
vertex 395.471555764869 694.456480005293 42.5000000000002
vertex 395.471555764869 694.456480005293 47.5000000000001
endloop
endfacet
facet normal 0.965925826289067 0.258819045102526 -7.50675164698341e-016
outer loop
vertex 395.471555764869 694.456480005293 42.5000000000002
vertex 395.681346652128 693.950000000009 47.5000000000001
vertex 395.681346652129 693.950000000009 42.5000000000002
endloop
endfacet
facet normal 0.707106781186543 0.707106781186552 -5.49532360539318e-016
outer loop
vertex 396.015075759584 693.515075759517 42.5000000000002
vertex 395.681346652128 693.950000000009 47.5000000000001
vertex 396.015075759584 693.515075759517 47.5000000000001
endloop
endfacet
facet normal 0.86602540378444 0.499999999999998 -6.73036940234248e-016
outer loop
vertex 395.681346652128 693.950000000009 47.5000000000001
vertex 396.015075759584 693.515075759517 42.5000000000002
vertex 395.681346652129 693.950000000009 42.5000000000002
endloop
endfacet
facet normal 0.499999999999972 0.866025403784455 -3.88578058618783e-016
outer loop
vertex 396.450000000076 693.181346652061 47.5000000000001
vertex 396.015075759584 693.515075759517 42.5000000000002
vertex 396.015075759584 693.515075759517 47.5000000000001
endloop
endfacet
facet normal 0.707106781186543 0.707106781186552 -5.49532360539318e-016
outer loop
vertex 396.015075759584 693.515075759517 42.5000000000002
vertex 396.450000000076 693.181346652061 47.5000000000001
vertex 396.450000000076 693.181346652061 42.5000000000002
endloop
endfacet
facet normal 0.258819045102527 0.965925826289067 -2.01142804159026e-016
outer loop
vertex 396.956480005361 692.971555764802 47.5000000000001
vertex 396.450000000076 693.181346652061 42.5000000000002
vertex 396.450000000076 693.181346652061 47.5000000000001
endloop
endfacet
facet normal 0.499999999999969 0.866025403784457 -3.88578058618781e-016
outer loop
vertex 396.450000000076 693.181346652061 42.5000000000002
vertex 396.956480005361 692.971555764802 47.5000000000001
vertex 396.956480005361 692.971555764802 42.5000000000002
endloop
endfacet
facet normal 1.7643997593381e-015 1.0 -1.37121406622217e-030
outer loop
vertex 397.500000000076 692.900000000009 47.5000000000001
vertex 396.956480005361 692.971555764802 42.5000000000002
vertex 396.956480005361 692.971555764802 47.5000000000001
endloop
endfacet
facet normal 0.258819045102523 0.965925826289068 -2.01142804159022e-016
outer loop
vertex 396.956480005361 692.971555764802 42.5000000000002
vertex 397.500000000076 692.900000000009 47.5000000000001
vertex 397.500000000076 692.900000000009 42.5000000000002
endloop
endfacet
facet normal -0.258819045102523 0.965925826289068 2.01142804159022e-016
outer loop
vertex 398.043519994791 692.971555764802 47.5000000000001
vertex 397.500000000076 692.900000000009 42.5000000000002
vertex 397.500000000076 692.900000000009 47.5000000000001
endloop
endfacet
facet normal -1.3277553744514e-015 1.0 1.03187321145002e-030
outer loop
vertex 397.500000000076 692.900000000009 42.5000000000002
vertex 398.043519994791 692.971555764802 47.5000000000001
vertex 398.043519994791 692.971555764802 42.5000000000002
endloop
endfacet
facet normal -0.49999999999997 0.866025403784456 3.88578058618781e-016
outer loop
vertex 398.550000000076 693.181346652061 47.5000000000001
vertex 398.043519994791 692.971555764802 42.5000000000002
vertex 398.043519994791 692.971555764802 47.5000000000001
endloop
endfacet
facet normal -0.258819045102527 0.965925826289067 2.01142804159026e-016
outer loop
vertex 398.043519994791 692.971555764802 42.5000000000002
vertex 398.550000000076 693.181346652061 47.5000000000001
vertex 398.550000000076 693.181346652061 42.5000000000002
endloop
endfacet
facet normal -0.707106781186543 0.707106781186552 5.49532360539318e-016
outer loop
vertex 398.984924240568 693.515075759517 47.5000000000001
vertex 398.550000000076 693.181346652061 42.5000000000002
vertex 398.550000000076 693.181346652061 47.5000000000001
endloop
endfacet
facet normal -0.499999999999972 0.866025403784455 3.88578058618783e-016
outer loop
vertex 398.550000000076 693.181346652061 42.5000000000002
vertex 398.984924240568 693.515075759517 47.5000000000001
vertex 398.984924240568 693.515075759517 42.5000000000002
endloop
endfacet
facet normal -0.86602540378444 0.499999999999998 6.73036940234248e-016
outer loop
vertex 399.318653348023 693.950000000009 42.5000000000002
vertex 398.984924240568 693.515075759517 47.5000000000001
vertex 399.318653348023 693.950000000009 47.5000000000001
endloop
endfacet
facet normal -0.707106781186543 0.707106781186552 5.49532360539318e-016
outer loop
vertex 398.984924240568 693.515075759517 47.5000000000001
vertex 399.318653348023 693.950000000009 42.5000000000002
vertex 398.984924240568 693.515075759517 42.5000000000002
endloop
endfacet
facet normal -0.965925826289067 0.258819045102526 7.50675164698341e-016
outer loop
vertex 399.528444235283 694.456480005293 47.5000000000001
vertex 399.318653348023 693.950000000009 42.5000000000002
vertex 399.318653348023 693.950000000009 47.5000000000001
endloop
endfacet
facet normal -0.86602540378444 0.499999999999998 6.73036940234248e-016
outer loop
vertex 399.318653348023 693.950000000009 42.5000000000002
vertex 399.528444235283 694.456480005293 47.5000000000001
vertex 399.528444235283 694.456480005293 42.5000000000002
endloop
endfacet
facet normal -1.0 -2.85155516660701e-016 7.77156117237609e-016
outer loop
vertex 399.600000000076 695.000000000009 42.5000000000002
vertex 399.528444235283 694.456480005293 47.5000000000001
vertex 399.600000000076 695.000000000009 47.5000000000001
endloop
endfacet
facet normal -0.965925826289067 0.258819045102526 7.50675164698341e-016
outer loop
vertex 399.528444235283 694.456480005293 47.5000000000001
vertex 399.600000000076 695.000000000009 42.5000000000002
vertex 399.528444235283 694.456480005293 42.5000000000002
endloop
endfacet
facet normal -0.965925826289067 -0.258819045102526 7.50675164698341e-016
outer loop
vertex 399.528444235283 695.543519994724 47.5000000000001
vertex 399.600000000076 695.000000000009 42.5000000000002
vertex 399.600000000076 695.000000000009 47.5000000000001
endloop
endfacet
facet normal -1.0 -2.85155516660701e-016 7.77156117237609e-016
outer loop
vertex 399.600000000076 695.000000000009 42.5000000000002
vertex 399.528444235283 695.543519994724 47.5000000000001
vertex 399.528444235283 695.543519994724 42.5000000000002
endloop
endfacet
facet normal -0.86602540378444 -0.499999999999998 6.73036940234248e-016
outer loop
vertex 399.318653348023 696.050000000009 42.5000000000002
vertex 399.528444235283 695.543519994724 47.5000000000001
vertex 399.318653348023 696.050000000009 47.5000000000001
endloop
endfacet
facet normal -0.965925826289067 -0.258819045102526 7.50675164698341e-016
outer loop
vertex 399.528444235283 695.543519994724 47.5000000000001
vertex 399.318653348023 696.050000000009 42.5000000000002
vertex 399.528444235283 695.543519994724 42.5000000000002
endloop
endfacet
facet normal -0.707106781186543 -0.707106781186552 5.49532360539318e-016
outer loop
vertex 398.984924240568 696.4849242405 47.5000000000001
vertex 399.318653348023 696.050000000009 42.5000000000002
vertex 399.318653348023 696.050000000009 47.5000000000001
endloop
endfacet
facet normal -0.86602540378444 -0.499999999999998 6.73036940234248e-016
outer loop
vertex 399.318653348023 696.050000000009 42.5000000000002
vertex 398.984924240568 696.4849242405 47.5000000000001
vertex 398.984924240568 696.4849242405 42.5000000000002
endloop
endfacet
facet normal 0.0 -1.0 0.0
outer loop
vertex 394.359150650886 712.828427124755 47.5000000000001
vertex 387.500000000076 712.828427124755 57.5000000000001
vertex 387.500000000076 712.828427124755 47.5000000000001
endloop
endfacet
facet normal 0.0 -1.0 0.0
outer loop
vertex 387.500000000076 712.828427124755 57.5000000000001
vertex 394.359150650886 712.828427124755 47.5000000000001
vertex 394.359150650886 712.828427124755 57.5000000000001
endloop
endfacet
facet normal -4.62567068526211e-016 -8.36954612346447e-029 1.0
outer loop
vertex 393.394815238347 708.900019058323 57.5000000000001
vertex 391.085786437703 708.000000000009 57.5000000000001
vertex 393.767615338695 708.000000000009 57.5000000000001
endloop
endfacet
facet normal -4.62567068526211e-016 -8.36954612346447e-029 1.0
outer loop
vertex 391.085786437703 708.000000000009 57.5000000000001
vertex 393.394815238347 708.900019058323 57.5000000000001
vertex 391.085786437703 712.000000000009 57.5000000000001
endloop
endfacet
facet normal -4.62567068526211e-016 -8.36954612346447e-029 1.0
outer loop
vertex 391.085786437703 712.000000000009 57.5000000000001
vertex 393.394815238347 708.900019058323 57.5000000000001
vertex 393.250000000076 710.000000000009 57.5000000000001
endloop
endfacet
facet normal -4.62567068526211e-016 -8.36954612346447e-029 1.0
outer loop
vertex 391.085786437703 712.000000000009 57.5000000000001
vertex 393.250000000076 710.000000000009 57.5000000000001
vertex 393.394815238347 711.099980941694 57.5000000000001
endloop
endfacet
facet normal -4.62567068526211e-016 -8.36954612346447e-029 1.0
outer loop
vertex 391.085786437703 712.000000000009 57.5000000000001
vertex 393.394815238347 711.099980941694 57.5000000000001
vertex 393.767615338695 712.000000000009 57.5000000000001
endloop
endfacet
facet normal 0.0 1.0 0.0
outer loop
vertex 394.359150650886 707.171572875262 57.5000000000001
vertex 387.500000000076 707.171572875262 47.5000000000001
vertex 387.500000000076 707.171572875262 57.5000000000001
endloop
endfacet
facet normal 0.0 1.0 0.0
outer loop
vertex 387.500000000076 707.171572875262 47.5000000000001
vertex 394.359150650886 707.171572875262 57.5000000000001
vertex 394.359150650886 707.171572875262 47.5000000000001
endloop
endfacet
facet normal 0.0 -1.0 0.0
outer loop
vertex 393.767615338695 708.000000000009 47.5000000000002
vertex 387.500000000076 708.000000000009 53.9140000000002
vertex 387.500000000076 708.000000000009 47.5000000000001
endloop
endfacet
facet normal 0.0 -1.0 0.0
outer loop
vertex 387.500000000076 708.000000000009 53.9140000000002
vertex 393.767615338695 708.000000000009 47.5000000000002
vertex 391.085786437703 708.000000000009 57.5000000000001
endloop
endfacet
facet normal 0.0 -1.0 0.0
outer loop
vertex 391.085786437703 708.000000000009 57.5000000000001
vertex 393.767615338695 708.000000000009 47.5000000000002
vertex 393.767615338695 708.000000000009 57.5000000000001
endloop
endfacet
facet normal 0.0 1.0 0.0
outer loop
vertex 391.085786437703 712.000000000009 57.5000000000001
vertex 387.500000000076 712.000000000009 47.5000000000001
vertex 387.500000000076 712.000000000009 53.9140000000002
endloop
endfacet
facet normal 0.0 1.0 0.0
outer loop
vertex 387.500000000076 712.000000000009 47.5000000000001
vertex 391.085786437703 712.000000000009 57.5000000000001
vertex 393.767615338695 712.000000000009 47.5000000000002
endloop
endfacet
facet normal 0.0 1.0 0.0
outer loop
vertex 393.767615338695 712.000000000009 47.5000000000002
vertex 391.085786437703 712.000000000009 57.5000000000001
vertex 393.767615338695 712.000000000009 57.5000000000001
endloop
endfacet
facet normal -0.707127837189128 5.62322973892094e-030 0.70708572455695
outer loop
vertex 387.500000000076 712.000000000009 53.9140000000002
vertex 391.085786437703 708.000000000009 57.5000000000001
vertex 391.085786437703 712.000000000009 57.5000000000001
endloop
endfacet
facet normal -0.707127837189128 5.62322973892094e-030 0.70708572455695
outer loop
vertex 391.085786437703 708.000000000009 57.5000000000001
vertex 387.500000000076 712.000000000009 53.9140000000002
vertex 387.500000000076 708.000000000009 53.9140000000002
endloop
endfacet
facet normal -5.25738955629073e-016 -1.24694694813641e-016 1.0
outer loop
vertex 407.500000000076 688.000000000009 47.5000000000002
vertex 398.550000000076 693.181346652061 47.5000000000001
vertex 387.500000000076 688.000000000009 47.5000000000002
endloop
endfacet
facet normal -5.25738955629073e-016 -1.24694694813641e-016 1.0
outer loop
vertex 398.550000000076 693.181346652061 47.5000000000001
vertex 407.500000000076 688.000000000009 47.5000000000002
vertex 407.500000000076 700.000000000009 47.5000000000002
endloop
endfacet
facet normal -5.25738955629073e-016 -1.24694694813641e-016 1.0
outer loop
vertex 387.500000000076 688.000000000009 47.5000000000002
vertex 398.550000000076 693.181346652061 47.5000000000001
vertex 398.043519994791 692.971555764802 47.5000000000001
endloop
endfacet
facet normal -5.25738955629073e-016 -1.24694694813641e-016 1.0
outer loop
vertex 387.500000000076 688.000000000009 47.5000000000002
vertex 398.043519994791 692.971555764802 47.5000000000001
vertex 397.500000000076 692.900000000009 47.5000000000001
endloop
endfacet
facet normal -5.25738955629073e-016 -1.24694694813641e-016 1.0
outer loop
vertex 398.550000000076 693.181346652061 47.5000000000001
vertex 407.500000000076 700.000000000009 47.5000000000002
vertex 398.984924240568 693.515075759517 47.5000000000001
endloop
endfacet
facet normal -5.25738955629073e-016 -1.24694694813641e-016 1.0
outer loop
vertex 398.984924240568 693.515075759517 47.5000000000001
vertex 407.500000000076 700.000000000009 47.5000000000002
vertex 399.318653348023 693.950000000009 47.5000000000001
endloop
endfacet
facet normal -5.25738955629073e-016 -1.24694694813641e-016 1.0
outer loop
vertex 399.318653348023 693.950000000009 47.5000000000001
vertex 407.500000000076 700.000000000009 47.5000000000002
vertex 399.528444235283 694.456480005293 47.5000000000001
endloop
endfacet
facet normal -5.25738955629073e-016 -1.24694694813641e-016 1.0
outer loop
vertex 399.528444235283 694.456480005293 47.5000000000001
vertex 407.500000000076 700.000000000009 47.5000000000002
vertex 399.600000000076 695.000000000009 47.5000000000001
endloop
endfacet
facet normal -5.25738955629073e-016 -1.24694694813641e-016 1.0
outer loop
vertex 399.600000000076 695.000000000009 47.5000000000001
vertex 407.500000000076 700.000000000009 47.5000000000002
vertex 399.528444235283 695.543519994724 47.5000000000001
endloop
endfacet
facet normal -5.25738955629073e-016 -1.24694694813641e-016 1.0
outer loop
vertex 399.528444235283 695.543519994724 47.5000000000001
vertex 407.500000000076 700.000000000009 47.5000000000002
vertex 399.318653348023 696.050000000009 47.5000000000001
endloop
endfacet
facet normal -5.25738955629073e-016 -1.24694694813641e-016 1.0
outer loop
vertex 399.318653348023 696.050000000009 47.5000000000001
vertex 407.500000000076 700.000000000009 47.5000000000002
vertex 398.984924240568 696.4849242405 47.5000000000001
endloop
endfacet
facet normal -5.25738955629073e-016 -1.24694694813641e-016 1.0
outer loop
vertex 398.984924240568 696.4849242405 47.5000000000001
vertex 407.500000000076 700.000000000009 47.5000000000002
vertex 398.550000000076 696.818653347956 47.5000000000001
endloop
endfacet
facet normal -5.25738955629073e-016 -1.24694694813641e-016 1.0
outer loop
vertex 398.550000000076 696.818653347956 47.5000000000001
vertex 407.500000000076 700.000000000009 47.5000000000002
vertex 398.043519994791 697.028444235216 47.5000000000001
endloop
endfacet
facet normal -5.25738955629073e-016 -1.24694694813641e-016 1.0
outer loop
vertex 398.043519994791 697.028444235216 47.5000000000001
vertex 407.500000000076 700.000000000009 47.5000000000002
vertex 397.500000000076 697.100000000009 47.5000000000001
endloop
endfacet
facet normal -5.25738955629073e-016 -1.24694694813641e-016 1.0
outer loop
vertex 387.500000000076 688.000000000009 47.5000000000002
vertex 396.450000000076 693.181346652061 47.5000000000001
vertex 387.500000000076 700.000000000009 47.5000000000002
endloop
endfacet
facet normal -5.25738955629073e-016 -1.24694694813641e-016 1.0
outer loop
vertex 396.450000000076 693.181346652061 47.5000000000001
vertex 387.500000000076 688.000000000009 47.5000000000002
vertex 396.956480005361 692.971555764802 47.5000000000001
endloop
endfacet
facet normal -5.25738955629073e-016 -1.24694694813641e-016 1.0
outer loop
vertex 396.956480005361 692.971555764802 47.5000000000001
vertex 387.500000000076 688.000000000009 47.5000000000002
vertex 397.500000000076 692.900000000009 47.5000000000001
endloop
endfacet
facet normal -5.25738955629073e-016 -1.24694694813641e-016 1.0
outer loop
vertex 387.500000000076 700.000000000009 47.5000000000002
vertex 396.450000000076 693.181346652061 47.5000000000001
vertex 396.015075759584 693.515075759517 47.5000000000001
endloop
endfacet
facet normal -5.25738955629073e-016 -1.24694694813641e-016 1.0
outer loop
vertex 387.500000000076 700.000000000009 47.5000000000002
vertex 396.015075759584 693.515075759517 47.5000000000001
vertex 395.681346652128 693.950000000009 47.5000000000001
endloop
endfacet
facet normal -5.25738955629073e-016 -1.24694694813641e-016 1.0
outer loop
vertex 387.500000000076 700.000000000009 47.5000000000002
vertex 395.681346652128 693.950000000009 47.5000000000001
vertex 395.471555764869 694.456480005293 47.5000000000001
endloop
endfacet
facet normal -5.25738955629073e-016 -1.24694694813641e-016 1.0
outer loop
vertex 387.500000000076 700.000000000009 47.5000000000002
vertex 395.471555764869 694.456480005293 47.5000000000001
vertex 395.400000000076 695.000000000009 47.5000000000001
endloop
endfacet
facet normal -5.25738955629073e-016 -1.24694694813641e-016 1.0
outer loop
vertex 387.500000000076 700.000000000009 47.5000000000002
vertex 395.400000000076 695.000000000009 47.5000000000001
vertex 395.471555764869 695.543519994724 47.5000000000001
endloop
endfacet
facet normal -5.25738955629073e-016 -1.24694694813641e-016 1.0
outer loop
vertex 387.500000000076 700.000000000009 47.5000000000002
vertex 395.471555764869 695.543519994724 47.5000000000001
vertex 395.681346652128 696.050000000009 47.5000000000001
endloop
endfacet
facet normal -5.25738955629073e-016 -1.24694694813641e-016 1.0
outer loop
vertex 387.500000000076 700.000000000009 47.5000000000002
vertex 395.681346652128 696.050000000009 47.5000000000001
vertex 396.015075759584 696.4849242405 47.5000000000001
endloop
endfacet
facet normal -5.25738955629073e-016 -1.24694694813641e-016 1.0
outer loop
vertex 387.500000000076 700.000000000009 47.5000000000002
vertex 396.015075759584 696.4849242405 47.5000000000001
vertex 396.450000000076 696.818653347956 47.5000000000001
endloop
endfacet
facet normal -5.25738955629073e-016 -1.24694694813641e-016 1.0
outer loop
vertex 387.500000000076 700.000000000009 47.5000000000002
vertex 396.450000000076 696.818653347956 47.5000000000001
vertex 396.956480005361 697.028444235216 47.5000000000001
endloop
endfacet
facet normal -5.25738955629073e-016 -1.24694694813641e-016 1.0
outer loop
vertex 387.500000000076 700.000000000009 47.5000000000002
vertex 396.956480005361 697.028444235216 47.5000000000001
vertex 397.500000000076 697.100000000009 47.5000000000001
endloop
endfacet
facet normal -5.25738955629073e-016 -1.24694694813641e-016 1.0
outer loop
vertex 387.500000000076 700.000000000009 47.5000000000002
vertex 397.500000000076 697.100000000009 47.5000000000001
vertex 407.500000000076 700.000000000009 47.5000000000002
endloop
endfacet
facet normal 2.10832533174342e-015 -6.73977050302191e-017 1.0
outer loop
vertex 407.500000000076 720.000000000009 47.5000000000002
vertex 398.043519994791 722.971555764802 47.5000000000001
vertex 387.500000000076 720.000000000009 47.5000000000002
endloop
endfacet
facet normal 2.10832533174342e-015 -6.73977050302191e-017 1.0
outer loop
vertex 398.043519994791 722.971555764802 47.5000000000001
vertex 407.500000000076 720.000000000009 47.5000000000002
vertex 398.550000000076 723.181346652061 47.5000000000001
endloop
endfacet
facet normal 2.10832533174342e-015 -6.73977050302191e-017 1.0
outer loop
vertex 398.550000000076 723.181346652061 47.5000000000001
vertex 407.500000000076 720.000000000009 47.5000000000002
vertex 398.984924240568 723.515075759517 47.5000000000001
endloop
endfacet
facet normal 2.10832533174342e-015 -6.73977050302191e-017 1.0
outer loop
vertex 398.984924240568 723.515075759517 47.5000000000001
vertex 407.500000000076 720.000000000009 47.5000000000002
vertex 407.500000000076 732.000000000009 47.5000000000002
endloop
endfacet
facet normal 2.10832533174342e-015 -6.73977050302191e-017 1.0
outer loop
vertex 387.500000000076 720.000000000009 47.5000000000002
vertex 398.043519994791 722.971555764802 47.5000000000001
vertex 397.500000000076 722.900000000009 47.5000000000001
endloop
endfacet
facet normal 2.10832533174342e-015 -6.73977050302191e-017 1.0
outer loop
vertex 398.984924240568 723.515075759517 47.5000000000001
vertex 407.500000000076 732.000000000009 47.5000000000002
vertex 399.318653348023 723.950000000009 47.5000000000001
endloop
endfacet
facet normal 2.10832533174342e-015 -6.73977050302191e-017 1.0
outer loop
vertex 399.318653348023 723.950000000009 47.5000000000001
vertex 407.500000000076 732.000000000009 47.5000000000002
vertex 399.528444235283 724.456480005293 47.5000000000001
endloop
endfacet
facet normal 2.10832533174342e-015 -6.73977050302191e-017 1.0
outer loop
vertex 399.528444235283 724.456480005293 47.5000000000001
vertex 407.500000000076 732.000000000009 47.5000000000002
vertex 399.600000000076 725.000000000009 47.5000000000001
endloop
endfacet
facet normal 2.10832533174342e-015 -6.73977050302191e-017 1.0
outer loop
vertex 399.600000000076 725.000000000009 47.5000000000001
vertex 407.500000000076 732.000000000009 47.5000000000002
vertex 399.528444235283 725.543519994724 47.5000000000001
endloop
endfacet
facet normal 2.10832533174342e-015 -6.73977050302191e-017 1.0
outer loop
vertex 399.528444235283 725.543519994724 47.5000000000001
vertex 407.500000000076 732.000000000009 47.5000000000002
vertex 399.318653348023 726.050000000008 47.5000000000001
endloop
endfacet
facet normal 2.10832533174342e-015 -6.73977050302191e-017 1.0
outer loop
vertex 399.318653348023 726.050000000008 47.5000000000001
vertex 407.500000000076 732.000000000009 47.5000000000002
vertex 398.984924240568 726.4849242405 47.5000000000001
endloop
endfacet
facet normal 2.10832533174342e-015 -6.73977050302191e-017 1.0
outer loop
vertex 398.984924240568 726.4849242405 47.5000000000001
vertex 407.500000000076 732.000000000009 47.5000000000002
vertex 398.550000000076 726.818653347956 47.5000000000001
endloop
endfacet
facet normal 2.10832533174342e-015 -6.73977050302191e-017 1.0
outer loop
vertex 398.550000000076 726.818653347956 47.5000000000001
vertex 407.500000000076 732.000000000009 47.5000000000002
vertex 398.043519994791 727.028444235216 47.5000000000001
endloop
endfacet
facet normal 2.10832533174342e-015 -6.73977050302191e-017 1.0
outer loop
vertex 398.043519994791 727.028444235216 47.5000000000001
vertex 407.500000000076 732.000000000009 47.5000000000002
vertex 397.500000000076 727.100000000009 47.5000000000001
endloop
endfacet
facet normal 2.10832533174342e-015 -6.73977050302191e-017 1.0
outer loop
vertex 387.500000000076 720.000000000009 47.5000000000002
vertex 396.015075759584 723.515075759517 47.5000000000001
vertex 387.500000000076 732.000000000009 47.5000000000002
endloop
endfacet
facet normal 2.10832533174342e-015 -6.73977050302191e-017 1.0
outer loop
vertex 396.015075759584 723.515075759517 47.5000000000001
vertex 387.500000000076 720.000000000009 47.5000000000002
vertex 396.450000000076 723.181346652061 47.5000000000001
endloop
endfacet
facet normal 2.10832533174342e-015 -6.73977050302191e-017 1.0
outer loop
vertex 396.450000000076 723.181346652061 47.5000000000001
vertex 387.500000000076 720.000000000009 47.5000000000002
vertex 396.956480005361 722.971555764802 47.5000000000001
endloop
endfacet
facet normal 2.10832533174342e-015 -6.73977050302191e-017 1.0
outer loop
vertex 396.956480005361 722.971555764802 47.5000000000001
vertex 387.500000000076 720.000000000009 47.5000000000002
vertex 397.500000000076 722.900000000009 47.5000000000001
endloop
endfacet
facet normal 2.10832533174342e-015 -6.73977050302191e-017 1.0
outer loop
vertex 387.500000000076 732.000000000009 47.5000000000002
vertex 396.015075759584 723.515075759517 47.5000000000001
vertex 395.681346652128 723.950000000009 47.5000000000001
endloop
endfacet
facet normal 2.10832533174342e-015 -6.73977050302191e-017 1.0
outer loop
vertex 387.500000000076 732.000000000009 47.5000000000002
vertex 395.681346652128 723.950000000009 47.5000000000001
vertex 395.471555764869 724.456480005293 47.5000000000001
endloop
endfacet
facet normal 2.10832533174342e-015 -6.73977050302191e-017 1.0
outer loop
vertex 387.500000000076 732.000000000009 47.5000000000002
vertex 395.471555764869 724.456480005293 47.5000000000001
vertex 395.400000000076 725.000000000009 47.5000000000001
endloop
endfacet
facet normal 2.10832533174342e-015 -6.73977050302191e-017 1.0
outer loop
vertex 387.500000000076 732.000000000009 47.5000000000002
vertex 395.400000000076 725.000000000009 47.5000000000001
vertex 395.471555764869 725.543519994724 47.5000000000001
endloop
endfacet
facet normal 2.10832533174342e-015 -6.73977050302191e-017 1.0
outer loop
vertex 387.500000000076 732.000000000009 47.5000000000002
vertex 395.471555764869 725.543519994724 47.5000000000001
vertex 395.681346652128 726.050000000008 47.5000000000001
endloop
endfacet
facet normal 2.10832533174342e-015 -6.73977050302191e-017 1.0
outer loop
vertex 387.500000000076 732.000000000009 47.5000000000002
vertex 395.681346652128 726.050000000008 47.5000000000001
vertex 396.015075759584 726.4849242405 47.5000000000001
endloop
endfacet
facet normal 2.10832533174342e-015 -6.73977050302191e-017 1.0
outer loop
vertex 387.500000000076 732.000000000009 47.5000000000002
vertex 396.015075759584 726.4849242405 47.5000000000001
vertex 396.450000000076 726.818653347956 47.5000000000001
endloop
endfacet
facet normal 2.10832533174342e-015 -6.73977050302191e-017 1.0
outer loop
vertex 387.500000000076 732.000000000009 47.5000000000002
vertex 396.450000000076 726.818653347956 47.5000000000001
vertex 396.956480005361 727.028444235216 47.5000000000001
endloop
endfacet
facet normal 2.10832533174342e-015 -6.73977050302191e-017 1.0
outer loop
vertex 387.500000000076 732.000000000009 47.5000000000002
vertex 396.956480005361 727.028444235216 47.5000000000001
vertex 397.500000000076 727.100000000009 47.5000000000001
endloop
endfacet
facet normal 2.10832533174342e-015 -6.73977050302191e-017 1.0
outer loop
vertex 387.500000000076 732.000000000009 47.5000000000002
vertex 397.500000000076 727.100000000009 47.5000000000001
vertex 407.500000000076 732.000000000009 47.5000000000002
endloop
endfacet
facet normal -7.77156117237619e-016 1.72885022829444e-031 -1.0
outer loop
vertex 387.500000000076 688.000000000009 42.5000000000002
vertex 396.450000000076 693.181346652061 42.5000000000002
vertex 407.500000000076 688.000000000009 42.5000000000002
endloop
endfacet
facet normal -7.77156117237619e-016 1.72885022829444e-031 -1.0
outer loop
vertex 396.450000000076 693.181346652061 42.5000000000002
vertex 387.500000000076 688.000000000009 42.5000000000002
vertex 396.015075759584 693.515075759517 42.5000000000002
endloop
endfacet
facet normal -7.77156117237619e-016 1.72885022829444e-031 -1.0
outer loop
vertex 396.015075759584 693.515075759517 42.5000000000002
vertex 387.500000000076 688.000000000009 42.5000000000002
vertex 395.681346652129 693.950000000009 42.5000000000002
endloop
endfacet
facet normal -7.77156117237619e-016 1.72885022829444e-031 -1.0
outer loop
vertex 395.681346652129 693.950000000009 42.5000000000002
vertex 387.500000000076 688.000000000009 42.5000000000002
vertex 395.471555764869 694.456480005293 42.5000000000002
endloop
endfacet
facet normal -7.77156117237619e-016 1.72885022829444e-031 -1.0
outer loop
vertex 395.471555764869 694.456480005293 42.5000000000002
vertex 387.500000000076 688.000000000009 42.5000000000002
vertex 387.500000000076 732.000000000009 42.5000000000002
endloop
endfacet
facet normal -7.77156117237619e-016 1.72885022829444e-031 -1.0
outer loop
vertex 407.500000000076 688.000000000009 42.5000000000002
vertex 396.450000000076 693.181346652061 42.5000000000002
vertex 396.956480005361 692.971555764802 42.5000000000002
endloop
endfacet
facet normal -7.77156117237619e-016 1.72885022829444e-031 -1.0
outer loop
vertex 407.500000000076 688.000000000009 42.5000000000002
vertex 396.956480005361 692.971555764802 42.5000000000002
vertex 397.500000000076 692.900000000009 42.5000000000002
endloop
endfacet
facet normal -7.77156117237619e-016 1.72885022829444e-031 -1.0
outer loop
vertex 395.471555764869 694.456480005293 42.5000000000002
vertex 387.500000000076 732.000000000009 42.5000000000002
vertex 395.400000000076 695.000000000009 42.5000000000002
endloop
endfacet
facet normal -7.77156117237619e-016 1.72885022829444e-031 -1.0
outer loop
vertex 395.400000000076 695.000000000009 42.5000000000002
vertex 387.500000000076 732.000000000009 42.5000000000002
vertex 395.471555764869 695.543519994724 42.5000000000002
endloop
endfacet
facet normal -7.77156117237619e-016 1.72885022829444e-031 -1.0
outer loop
vertex 395.471555764869 695.543519994724 42.5000000000002
vertex 387.500000000076 732.000000000009 42.5000000000002
vertex 395.681346652129 696.050000000009 42.5000000000002
endloop
endfacet
facet normal -7.77156117237619e-016 1.72885022829444e-031 -1.0
outer loop
vertex 395.681346652129 696.050000000009 42.5000000000002
vertex 387.500000000076 732.000000000009 42.5000000000002
vertex 396.015075759584 696.4849242405 42.5000000000002
endloop
endfacet
facet normal -7.77156117237619e-016 1.72885022829444e-031 -1.0
outer loop
vertex 396.015075759584 696.4849242405 42.5000000000002
vertex 387.500000000076 732.000000000009 42.5000000000002
vertex 396.450000000076 696.818653347956 42.5000000000002
endloop
endfacet
facet normal -7.77156117237619e-016 1.72885022829444e-031 -1.0
outer loop
vertex 396.450000000076 696.818653347956 42.5000000000002
vertex 387.500000000076 732.000000000009 42.5000000000002
vertex 396.956480005361 697.028444235216 42.5000000000002
endloop
endfacet
facet normal -7.77156117237619e-016 1.72885022829444e-031 -1.0
outer loop
vertex 396.956480005361 697.028444235216 42.5000000000002
vertex 387.500000000076 732.000000000009 42.5000000000002
vertex 397.500000000076 697.100000000009 42.5000000000002
endloop
endfacet
facet normal -7.77156117237619e-016 1.72885022829444e-031 -1.0
outer loop
vertex 397.500000000076 697.100000000009 42.5000000000002
vertex 387.500000000076 732.000000000009 42.5000000000002
vertex 396.015075759584 723.515075759517 42.5000000000002
endloop
endfacet
facet normal -7.77156117237619e-016 1.72885022829444e-031 -1.0
outer loop
vertex 397.500000000076 697.100000000009 42.5000000000002
vertex 396.015075759584 723.515075759517 42.5000000000002
vertex 396.450000000076 723.181346652061 42.5000000000002
endloop
endfacet
facet normal -7.77156117237619e-016 1.72885022829444e-031 -1.0
outer loop
vertex 397.500000000076 697.100000000009 42.5000000000002
vertex 396.450000000076 723.181346652061 42.5000000000002
vertex 396.956480005361 722.971555764802 42.5000000000002
endloop
endfacet
facet normal -7.77156117237619e-016 1.72885022829444e-031 -1.0
outer loop
vertex 397.500000000076 697.100000000009 42.5000000000002
vertex 396.956480005361 722.971555764802 42.5000000000002
vertex 397.500000000076 722.900000000009 42.5000000000002
endloop
endfacet
facet normal -7.77156117237619e-016 1.72885022829444e-031 -1.0
outer loop
vertex 396.015075759584 723.515075759517 42.5000000000002
vertex 387.500000000076 732.000000000009 42.5000000000002
vertex 395.681346652129 723.950000000009 42.5000000000002
endloop
endfacet
facet normal -7.77156117237619e-016 1.72885022829444e-031 -1.0
outer loop
vertex 395.681346652129 723.950000000009 42.5000000000002
vertex 387.500000000076 732.000000000009 42.5000000000002
vertex 395.471555764869 724.456480005293 42.5000000000002
endloop
endfacet
facet normal -7.77156117237619e-016 1.72885022829444e-031 -1.0
outer loop
vertex 395.471555764869 724.456480005293 42.5000000000002
vertex 387.500000000076 732.000000000009 42.5000000000002
vertex 395.400000000076 725.000000000009 42.5000000000002
endloop
endfacet
facet normal -7.77156117237619e-016 1.72885022829444e-031 -1.0
outer loop
vertex 395.400000000076 725.000000000009 42.5000000000002
vertex 387.500000000076 732.000000000009 42.5000000000002
vertex 395.471555764869 725.543519994724 42.5000000000002
endloop
endfacet
facet normal -7.77156117237619e-016 1.72885022829444e-031 -1.0
outer loop
vertex 395.471555764869 725.543519994724 42.5000000000002
vertex 387.500000000076 732.000000000009 42.5000000000002
vertex 395.681346652129 726.050000000008 42.5000000000002
endloop
endfacet
facet normal -7.77156117237619e-016 1.72885022829444e-031 -1.0
outer loop
vertex 395.681346652129 726.050000000008 42.5000000000002
vertex 387.500000000076 732.000000000009 42.5000000000002
vertex 396.015075759584 726.4849242405 42.5000000000002
endloop
endfacet
facet normal -7.77156117237619e-016 1.72885022829444e-031 -1.0
outer loop
vertex 396.015075759584 726.4849242405 42.5000000000002
vertex 387.500000000076 732.000000000009 42.5000000000002
vertex 396.450000000076 726.818653347956 42.5000000000002
endloop
endfacet
facet normal -7.77156117237619e-016 1.72885022829444e-031 -1.0
outer loop
vertex 396.450000000076 726.818653347956 42.5000000000002
vertex 387.500000000076 732.000000000009 42.5000000000002
vertex 396.956480005361 727.028444235216 42.5000000000002
endloop
endfacet
facet normal -7.77156117237619e-016 1.72885022829444e-031 -1.0
outer loop
vertex 396.956480005361 727.028444235216 42.5000000000002
vertex 387.500000000076 732.000000000009 42.5000000000002
vertex 397.500000000076 727.100000000009 42.5000000000002
endloop
endfacet
facet normal -7.77156117237619e-016 1.72885022829444e-031 -1.0
outer loop
vertex 407.500000000076 688.000000000009 42.5000000000002
vertex 399.528444235283 694.456480005293 42.5000000000002
vertex 407.500000000076 732.000000000009 42.5000000000002
endloop
endfacet
facet normal -7.77156117237619e-016 1.72885022829444e-031 -1.0
outer loop
vertex 399.528444235283 694.456480005293 42.5000000000002
vertex 407.500000000076 688.000000000009 42.5000000000002
vertex 399.318653348023 693.950000000009 42.5000000000002
endloop
endfacet
facet normal -7.77156117237619e-016 1.72885022829444e-031 -1.0
outer loop
vertex 399.318653348023 693.950000000009 42.5000000000002
vertex 407.500000000076 688.000000000009 42.5000000000002
vertex 398.984924240568 693.515075759517 42.5000000000002
endloop
endfacet
facet normal -7.77156117237619e-016 1.72885022829444e-031 -1.0
outer loop
vertex 398.984924240568 693.515075759517 42.5000000000002
vertex 407.500000000076 688.000000000009 42.5000000000002
vertex 398.550000000076 693.181346652061 42.5000000000002
endloop
endfacet
facet normal -7.77156117237619e-016 1.72885022829444e-031 -1.0
outer loop
vertex 398.550000000076 693.181346652061 42.5000000000002
vertex 407.500000000076 688.000000000009 42.5000000000002
vertex 398.043519994791 692.971555764802 42.5000000000002
endloop
endfacet
facet normal -7.77156117237619e-016 1.72885022829444e-031 -1.0
outer loop
vertex 398.043519994791 692.971555764802 42.5000000000002
vertex 407.500000000076 688.000000000009 42.5000000000002
vertex 397.500000000076 692.900000000009 42.5000000000002
endloop
endfacet
facet normal -7.77156117237619e-016 1.72885022829444e-031 -1.0
outer loop
vertex 407.500000000076 732.000000000009 42.5000000000002
vertex 399.528444235283 694.456480005293 42.5000000000002
vertex 399.600000000076 695.000000000009 42.5000000000002
endloop
endfacet
facet normal -7.77156117237619e-016 1.72885022829444e-031 -1.0
outer loop
vertex 407.500000000076 732.000000000009 42.5000000000002
vertex 399.600000000076 695.000000000009 42.5000000000002
vertex 399.528444235283 695.543519994724 42.5000000000002
endloop
endfacet
facet normal -7.77156117237619e-016 1.72885022829444e-031 -1.0
outer loop
vertex 407.500000000076 732.000000000009 42.5000000000002
vertex 399.528444235283 695.543519994724 42.5000000000002
vertex 399.318653348023 696.050000000009 42.5000000000002
endloop
endfacet
facet normal -7.77156117237619e-016 1.72885022829444e-031 -1.0
outer loop
vertex 407.500000000076 732.000000000009 42.5000000000002
vertex 399.318653348023 696.050000000009 42.5000000000002
vertex 398.984924240568 696.4849242405 42.5000000000002
endloop
endfacet
facet normal -7.77156117237619e-016 1.72885022829444e-031 -1.0
outer loop
vertex 407.500000000076 732.000000000009 42.5000000000002
vertex 398.984924240568 696.4849242405 42.5000000000002
vertex 398.550000000076 696.818653347956 42.5000000000002
endloop
endfacet
facet normal -7.77156117237619e-016 1.72885022829444e-031 -1.0
outer loop
vertex 407.500000000076 732.000000000009 42.5000000000002
vertex 398.550000000076 696.818653347956 42.5000000000002
vertex 398.043519994791 697.028444235216 42.5000000000002
endloop
endfacet
facet normal -7.77156117237619e-016 1.72885022829444e-031 -1.0
outer loop
vertex 407.500000000076 732.000000000009 42.5000000000002
vertex 398.043519994791 697.028444235216 42.5000000000002
vertex 397.500000000076 697.100000000009 42.5000000000002
endloop
endfacet
facet normal -7.77156117237619e-016 1.72885022829444e-031 -1.0
outer loop
vertex 407.500000000076 732.000000000009 42.5000000000002
vertex 397.500000000076 697.100000000009 42.5000000000002
vertex 398.984924240568 723.515075759517 42.5000000000002
endloop
endfacet
facet normal -7.77156117237619e-016 1.72885022829444e-031 -1.0
outer loop
vertex 398.984924240568 723.515075759517 42.5000000000002
vertex 397.500000000076 697.100000000009 42.5000000000002
vertex 398.550000000076 723.181346652061 42.5000000000002
endloop
endfacet
facet normal -7.77156117237619e-016 1.72885022829444e-031 -1.0
outer loop
vertex 398.550000000076 723.181346652061 42.5000000000002
vertex 397.500000000076 697.100000000009 42.5000000000002
vertex 398.043519994791 722.971555764802 42.5000000000002
endloop
endfacet
facet normal -7.77156117237619e-016 1.72885022829444e-031 -1.0
outer loop
vertex 398.043519994791 722.971555764802 42.5000000000002
vertex 397.500000000076 697.100000000009 42.5000000000002
vertex 397.500000000076 722.900000000009 42.5000000000002
endloop
endfacet
facet normal -7.77156117237619e-016 1.72885022829444e-031 -1.0
outer loop
vertex 407.500000000076 732.000000000009 42.5000000000002
vertex 398.984924240568 723.515075759517 42.5000000000002
vertex 399.318653348023 723.950000000009 42.5000000000002
endloop
endfacet
facet normal -7.77156117237619e-016 1.72885022829444e-031 -1.0
outer loop
vertex 407.500000000076 732.000000000009 42.5000000000002
vertex 399.318653348023 723.950000000009 42.5000000000002
vertex 399.528444235283 724.456480005293 42.5000000000002
endloop
endfacet
facet normal -7.77156117237619e-016 1.72885022829444e-031 -1.0
outer loop
vertex 407.500000000076 732.000000000009 42.5000000000002
vertex 399.528444235283 724.456480005293 42.5000000000002
vertex 399.600000000076 725.000000000009 42.5000000000002
endloop
endfacet
facet normal -7.77156117237619e-016 1.72885022829444e-031 -1.0
outer loop
vertex 407.500000000076 732.000000000009 42.5000000000002
vertex 399.600000000076 725.000000000009 42.5000000000002
vertex 399.528444235283 725.543519994724 42.5000000000002
endloop
endfacet
facet normal -7.77156117237619e-016 1.72885022829444e-031 -1.0
outer loop
vertex 407.500000000076 732.000000000009 42.5000000000002
vertex 399.528444235283 725.543519994724 42.5000000000002
vertex 399.318653348023 726.050000000008 42.5000000000002
endloop
endfacet
facet normal -7.77156117237619e-016 1.72885022829444e-031 -1.0
outer loop
vertex 407.500000000076 732.000000000009 42.5000000000002
vertex 399.318653348023 726.050000000008 42.5000000000002
vertex 398.984924240568 726.4849242405 42.5000000000002
endloop
endfacet
facet normal -7.77156117237619e-016 1.72885022829444e-031 -1.0
outer loop
vertex 407.500000000076 732.000000000009 42.5000000000002
vertex 398.984924240568 726.4849242405 42.5000000000002
vertex 398.550000000076 726.818653347956 42.5000000000002
endloop
endfacet
facet normal -7.77156117237619e-016 1.72885022829444e-031 -1.0
outer loop
vertex 407.500000000076 732.000000000009 42.5000000000002
vertex 398.550000000076 726.818653347956 42.5000000000002
vertex 398.043519994791 727.028444235216 42.5000000000002
endloop
endfacet
facet normal -7.77156117237619e-016 1.72885022829444e-031 -1.0
outer loop
vertex 407.500000000076 732.000000000009 42.5000000000002
vertex 398.043519994791 727.028444235216 42.5000000000002
vertex 397.500000000076 727.100000000009 42.5000000000002
endloop
endfacet
facet normal -7.77156117237619e-016 1.72885022829444e-031 -1.0
outer loop
vertex 407.500000000076 732.000000000009 42.5000000000002
vertex 397.500000000076 727.100000000009 42.5000000000002
vertex 387.500000000076 732.000000000009 42.5000000000002
endloop
endfacet
facet normal 0.793353340291257 -0.608761429008692 -8.0913822792564e-015
outer loop
vertex 394.359150650886 712.828427124755 57.5000000000001
vertex 394.494796180033 713.005203820051 47.5000000000001
vertex 394.494796180033 713.005203820051 57.5000000000001
endloop
endfacet
facet normal 0.707106781186558 -0.707106781186537 -4.38828359634073e-015
outer loop
vertex 394.494796180033 713.005203820051 47.5000000000001
vertex 394.359150650886 712.828427124755 57.5000000000001
vertex 394.359150650886 712.828427124755 47.5000000000001
endloop
endfacet
facet normal 0.500000000000002 -0.866025403784438 -4.85598968213307e-016
outer loop
vertex 395.375000000076 713.680607966092 47.5000000000001
vertex 394.494796180033 713.005203820051 57.5000000000001
vertex 394.494796180033 713.005203820051 47.5000000000001
endloop
endfacet
facet normal 0.707106781186556 -0.707106781186539 -4.38828359634066e-015
outer loop
vertex 394.494796180033 713.005203820051 57.5000000000001
vertex 395.375000000076 713.680607966092 47.5000000000001
vertex 395.375000000076 713.680607966092 57.5000000000001
endloop
endfacet
facet normal 0.258819045102524 -0.965925826289067 -2.13942791552489e-016
outer loop
vertex 396.40001905839 714.105184761737 47.5000000000001
vertex 395.375000000076 713.680607966092 57.5000000000001
vertex 395.375000000076 713.680607966092 47.5000000000001
endloop
endfacet
facet normal 0.500000000000001 -0.866025403784438 -4.85598968213306e-016
outer loop
vertex 395.375000000076 713.680607966092 57.5000000000001
vertex 396.40001905839 714.105184761737 47.5000000000001
vertex 396.40001905839 714.105184761737 57.5000000000001
endloop
endfacet
facet normal 9.08933209355984e-016 -1.0 7.22932327954543e-017
outer loop
vertex 397.500000000076 714.250000000009 47.5000000000001
vertex 396.40001905839 714.105184761737 57.5000000000001
vertex 396.40001905839 714.105184761737 47.5000000000001
endloop
endfacet
facet normal 0.258819045102523 -0.965925826289068 -2.13942791552488e-016
outer loop
vertex 396.40001905839 714.105184761737 57.5000000000001
vertex 397.500000000076 714.250000000009 47.5000000000001
vertex 397.500000000076 714.250000000009 57.5000000000001
endloop
endfacet
facet normal -0.258819045102516 -0.96592582628907 3.53602592798596e-016
outer loop
vertex 398.599980941761 714.105184761737 47.5000000000001
vertex 397.500000000076 714.250000000009 57.5000000000001
vertex 397.500000000076 714.250000000009 47.5000000000001
endloop
endfacet
facet normal -7.48533231234341e-016 -1.0 7.22932327954561e-017
outer loop
vertex 397.500000000076 714.250000000009 57.5000000000001
vertex 398.599980941761 714.105184761737 47.5000000000001
vertex 398.599980941762 714.105184761737 57.5000000000001
endloop
endfacet
facet normal -0.500000000000005 -0.866025403784436 6.10814520458443e-016
outer loop
vertex 399.625000000076 713.680607966092 47.5000000000001
vertex 398.599980941762 714.105184761737 57.5000000000001
vertex 398.599980941761 714.105184761737 47.5000000000001
endloop
endfacet
facet normal -0.258819045102517 -0.96592582628907 3.53602592798597e-016
outer loop
vertex 398.599980941762 714.105184761737 57.5000000000001
vertex 399.625000000076 713.680607966092 47.5000000000001
vertex 399.625000000076 713.680607966092 57.5000000000001
endloop
endfacet
facet normal -0.707106781186556 -0.707106781186539 8.26400447967761e-016
outer loop
vertex 400.505203820119 713.005203820051 47.5000000000001
vertex 399.625000000076 713.680607966092 57.5000000000001
vertex 399.625000000076 713.680607966092 47.5000000000001
endloop
endfacet
facet normal -0.500000000000006 -0.866025403784435 6.10814520458444e-016
outer loop
vertex 399.625000000076 713.680607966092 57.5000000000001
vertex 400.505203820119 713.005203820051 47.5000000000001
vertex 400.505203820119 713.005203820051 57.5000000000001
endloop
endfacet
facet normal -0.707106781186556 -0.707106781186539 8.26400447967761e-016
outer loop
vertex 400.505203820119 713.005203820051 47.5000000000001
vertex 401.18060796616 712.125000000009 57.5000000000001
vertex 400.505203820119 713.005203820051 57.5000000000001
endloop
endfacet
facet normal -0.866025403784437 -0.500000000000003 9.85668550639378e-016
outer loop
vertex 401.18060796616 712.125000000009 57.5000000000001
vertex 400.505203820119 713.005203820051 47.5000000000001
vertex 401.18060796616 712.125000000009 47.5000000000001
endloop
endfacet
facet normal -0.866025403784437 -0.500000000000003 9.85668550639377e-016
outer loop
vertex 401.18060796616 712.125000000009 47.5000000000001
vertex 401.605184761804 711.099980941694 57.5000000000001
vertex 401.18060796616 712.125000000009 57.5000000000001
endloop
endfacet
facet normal -0.965925826289067 -0.258819045102526 1.07776497047923e-015
outer loop
vertex 401.605184761804 711.099980941694 57.5000000000001
vertex 401.18060796616 712.125000000009 47.5000000000001
vertex 401.605184761804 711.099980941694 47.5000000000001
endloop
endfacet
facet normal -0.965925826289067 -0.258819045102526 1.07776497047923e-015
outer loop
vertex 401.605184761804 711.099980941694 57.5000000000001
vertex 401.750000000076 710.000000000009 47.5000000000001
vertex 401.750000000076 710.000000000009 57.5000000000001
endloop
endfacet
facet normal -1.0 0.0 1.09641348867174e-015
outer loop
vertex 401.750000000076 710.000000000009 47.5000000000001
vertex 401.605184761804 711.099980941694 57.5000000000001
vertex 401.605184761804 711.099980941694 47.5000000000001
endloop
endfacet
facet normal -1.0 0.0 1.09641348867174e-015
outer loop
vertex 401.750000000076 710.000000000009 47.5000000000001
vertex 401.605184761804 708.900019058323 57.5000000000001
vertex 401.750000000076 710.000000000009 57.5000000000001
endloop
endfacet
facet normal -0.965925826289067 0.258819045102527 1.04034323952024e-015
outer loop
vertex 401.605184761804 708.900019058323 57.5000000000001
vertex 401.750000000076 710.000000000009 47.5000000000001
vertex 401.605184761804 708.900019058323 47.5000000000001
endloop
endfacet
facet normal -0.965925826289067 0.258819045102527 1.04034323952024e-015
outer loop
vertex 401.605184761804 708.900019058323 57.5000000000001
vertex 401.18060796616 707.875000000009 47.5000000000001
vertex 401.18060796616 707.875000000009 57.5000000000001
endloop
endfacet
facet normal -0.866025403784437 0.500000000000003 9.1337531784392e-016
outer loop
vertex 401.18060796616 707.875000000009 47.5000000000001
vertex 401.605184761804 708.900019058323 57.5000000000001
vertex 401.605184761804 708.900019058323 47.5000000000001
endloop
endfacet
facet normal -0.866025403784437 0.500000000000003 9.1337531784392e-016
outer loop
vertex 401.18060796616 707.875000000009 47.5000000000001
vertex 400.505203820119 706.994796179966 57.5000000000001
vertex 401.18060796616 707.875000000009 57.5000000000001
endloop
endfacet
facet normal -0.707106781186548 0.707106781186547 7.24162377680626e-016
outer loop
vertex 400.505203820119 706.994796179966 57.5000000000001
vertex 401.18060796616 707.875000000009 47.5000000000001
vertex 400.505203820119 706.994796179966 47.5000000000001
endloop
endfacet
facet normal -0.500000000000002 0.866025403784438 4.85598968213307e-016
outer loop
vertex 399.625000000076 706.319392033925 57.5000000000001
vertex 400.505203820119 706.994796179966 47.5000000000001
vertex 399.625000000076 706.319392033925 47.5000000000001
endloop
endfacet
facet normal -0.707106781186547 0.707106781186548 7.24162377680625e-016
outer loop
vertex 400.505203820119 706.994796179966 47.5000000000001
vertex 399.625000000076 706.319392033925 57.5000000000001
vertex 400.505203820119 706.994796179966 57.5000000000001
endloop
endfacet
facet normal -0.258819045102524 0.965925826289067 2.13942791552489e-016
outer loop
vertex 398.599980941762 705.89481523828 57.5000000000001
vertex 399.625000000076 706.319392033925 47.5000000000001
vertex 398.599980941761 705.89481523828 47.5000000000001
endloop
endfacet
facet normal -0.500000000000001 0.866025403784438 4.85598968213306e-016
outer loop
vertex 399.625000000076 706.319392033925 47.5000000000001
vertex 398.599980941762 705.89481523828 57.5000000000001
vertex 399.625000000076 706.319392033925 57.5000000000001
endloop
endfacet
facet normal -7.4853323123434e-016 1.0 -7.22932327954545e-017
outer loop
vertex 397.500000000076 705.750000000009 57.5000000000001
vertex 398.599980941761 705.89481523828 47.5000000000001
vertex 397.500000000076 705.750000000009 47.5000000000001
endloop
endfacet
facet normal -0.258819045102523 0.965925826289068 2.13942791552488e-016
outer loop
vertex 398.599980941761 705.89481523828 47.5000000000001
vertex 397.500000000076 705.750000000009 57.5000000000001
vertex 398.599980941762 705.89481523828 57.5000000000001
endloop
endfacet
facet normal 0.258819045102516 0.96592582628907 -3.53602592798596e-016
outer loop
vertex 396.40001905839 705.89481523828 57.5000000000001
vertex 397.500000000076 705.750000000009 47.5000000000001
vertex 396.40001905839 705.89481523828 47.5000000000001
endloop
endfacet
facet normal 6.95066571860459e-016 1.0 -7.22932327954561e-017
outer loop
vertex 397.500000000076 705.750000000009 47.5000000000001
vertex 396.40001905839 705.89481523828 57.5000000000001
vertex 397.500000000076 705.750000000009 57.5000000000001
endloop
endfacet
facet normal 0.500000000000012 0.866025403784432 -6.10814520458451e-016
outer loop
vertex 395.375000000076 706.319392033925 57.5000000000001
vertex 396.40001905839 705.89481523828 47.5000000000001
vertex 395.375000000076 706.319392033925 47.5000000000001
endloop
endfacet
facet normal 0.258819045102517 0.965925826289069 -3.53602592798597e-016
outer loop
vertex 396.40001905839 705.89481523828 47.5000000000001
vertex 395.375000000076 706.319392033925 57.5000000000001
vertex 396.40001905839 705.89481523828 57.5000000000001
endloop
endfacet
facet normal 0.707106781186549 0.707106781186546 -4.44613258013493e-015
outer loop
vertex 394.494796180033 706.994796179966 57.5000000000001
vertex 395.375000000076 706.319392033925 47.5000000000001
vertex 394.494796180033 706.994796179966 47.5000000000001
endloop
endfacet
facet normal 0.500000000000013 0.866025403784431 -6.10814520458452e-016
outer loop
vertex 395.375000000076 706.319392033925 47.5000000000001
vertex 394.494796180033 706.994796179966 57.5000000000001
vertex 395.375000000076 706.319392033925 57.5000000000001
endloop
endfacet
facet normal 0.707106781186551 0.707106781186544 -4.446132580135e-015
outer loop
vertex 394.494796180033 706.994796179966 47.5000000000001
vertex 394.359150650886 707.171572875262 57.5000000000001
vertex 394.494796180033 706.994796179966 57.5000000000001
endloop
endfacet
facet normal 0.79335334029122 0.608761429008741 -8.09138227925602e-015
outer loop
vertex 394.359150650886 707.171572875262 57.5000000000001
vertex 394.494796180033 706.994796179966 47.5000000000001
vertex 394.359150650886 707.171572875262 47.5000000000001
endloop
endfacet
facet normal 0.923879532511277 0.382683432365114 -5.25380193725085e-015
outer loop
vertex 393.767615338695 708.000000000009 57.5000000000001
vertex 393.394815238347 708.900019058323 47.5000000000002
vertex 393.394815238347 708.900019058323 57.5000000000001
endloop
endfacet
facet normal 0.965925826289065 0.258819045102532 -7.13033655530316e-015
outer loop
vertex 393.394815238347 708.900019058323 47.5000000000002
vertex 393.767615338695 708.000000000009 57.5000000000001
vertex 393.767615338695 708.000000000009 47.5000000000002
endloop
endfacet
facet normal 0.965925826289065 0.258819045102532 -7.13033655530316e-015
outer loop
vertex 393.394815238347 708.900019058323 47.5000000000002
vertex 393.250000000076 710.000000000009 57.5000000000001
vertex 393.394815238347 708.900019058323 57.5000000000001
endloop
endfacet
facet normal 1.0 0.0 -8.96153632354297e-015
outer loop
vertex 393.250000000076 710.000000000009 57.5000000000001
vertex 393.394815238347 708.900019058323 47.5000000000002
vertex 393.250000000076 710.000000000009 47.5000000000002
endloop
endfacet
facet normal 1.0 0.0 -8.96153632354297e-015
outer loop
vertex 393.250000000076 710.000000000009 47.5000000000002
vertex 393.394815238347 711.099980941694 57.5000000000001
vertex 393.250000000076 710.000000000009 57.5000000000001
endloop
endfacet
facet normal 0.965925826289066 -0.258819045102529 -7.13044838911178e-015
outer loop
vertex 393.394815238347 711.099980941694 57.5000000000001
vertex 393.250000000076 710.000000000009 47.5000000000002
vertex 393.394815238347 711.099980941694 47.5000000000002
endloop
endfacet
facet normal 0.965925826289066 -0.258819045102529 -7.13044838911178e-015
outer loop
vertex 393.394815238347 711.099980941694 47.5000000000002
vertex 393.767615338695 712.000000000009 57.5000000000001
vertex 393.394815238347 711.099980941694 57.5000000000001
endloop
endfacet
facet normal 0.92387953251128 -0.382683432365107 -5.25402369136062e-015
outer loop
vertex 393.767615338695 712.000000000009 57.5000000000001
vertex 393.394815238347 711.099980941694 47.5000000000002
vertex 393.767615338695 712.000000000009 47.5000000000002
endloop
endfacet
facet normal 1.719196479622e-015 9.05407478547686e-017 1.0
outer loop
vertex 400.505203820119 713.005203820051 47.5000000000001
vertex 394.359150650886 712.828427124755 47.5000000000001
vertex 401.18060796616 712.125000000009 47.5000000000001
endloop
endfacet
facet normal 1.719196479622e-015 9.05407478547686e-017 1.0
outer loop
vertex 394.359150650886 712.828427124755 47.5000000000001
vertex 400.505203820119 713.005203820051 47.5000000000001
vertex 394.494796180033 713.005203820051 47.5000000000001
endloop
endfacet
facet normal 1.719196479622e-015 9.05407478547686e-017 1.0
outer loop
vertex 394.494796180033 713.005203820051 47.5000000000001
vertex 400.505203820119 713.005203820051 47.5000000000001
vertex 399.625000000076 713.680607966092 47.5000000000001
endloop
endfacet
facet normal 1.719196479622e-015 9.05407478547686e-017 1.0
outer loop
vertex 394.494796180033 713.005203820051 47.5000000000001
vertex 399.625000000076 713.680607966092 47.5000000000001
vertex 395.375000000076 713.680607966092 47.5000000000001
endloop
endfacet
facet normal 1.719196479622e-015 9.05407478547686e-017 1.0
outer loop
vertex 395.375000000076 713.680607966092 47.5000000000001
vertex 399.625000000076 713.680607966092 47.5000000000001
vertex 398.599980941761 714.105184761737 47.5000000000001
endloop
endfacet
facet normal 1.719196479622e-015 9.05407478547686e-017 1.0
outer loop
vertex 395.375000000076 713.680607966092 47.5000000000001
vertex 398.599980941761 714.105184761737 47.5000000000001
vertex 396.40001905839 714.105184761737 47.5000000000001
endloop
endfacet
facet normal 1.719196479622e-015 9.05407478547686e-017 1.0
outer loop
vertex 396.40001905839 714.105184761737 47.5000000000001
vertex 398.599980941761 714.105184761737 47.5000000000001
vertex 397.500000000076 714.250000000009 47.5000000000001
endloop
endfacet
facet normal 1.719196479622e-015 9.05407478547686e-017 1.0
outer loop
vertex 401.605184761804 708.900019058323 47.5000000000001
vertex 393.767615338695 708.000000000009 47.5000000000002
vertex 401.18060796616 707.875000000009 47.5000000000001
endloop
endfacet
facet normal 1.719196479622e-015 9.05407478547686e-017 1.0
outer loop
vertex 393.767615338695 708.000000000009 47.5000000000002
vertex 401.605184761804 708.900019058323 47.5000000000001
vertex 393.394815238347 708.900019058323 47.5000000000002
endloop
endfacet
facet normal 1.719196479622e-015 9.05407478547686e-017 1.0
outer loop
vertex 393.394815238347 708.900019058323 47.5000000000002
vertex 401.605184761804 708.900019058323 47.5000000000001
vertex 401.750000000076 710.000000000009 47.5000000000001
endloop
endfacet
facet normal 1.719196479622e-015 9.05407478547686e-017 1.0
outer loop
vertex 393.394815238347 708.900019058323 47.5000000000002
vertex 401.750000000076 710.000000000009 47.5000000000001
vertex 393.250000000076 710.000000000009 47.5000000000002
endloop
endfacet
facet normal 1.719196479622e-015 9.05407478547686e-017 1.0
outer loop
vertex 393.250000000076 710.000000000009 47.5000000000002
vertex 401.750000000076 710.000000000009 47.5000000000001
vertex 401.605184761804 711.099980941694 47.5000000000001
endloop
endfacet
facet normal 1.719196479622e-015 9.05407478547686e-017 1.0
outer loop
vertex 393.250000000076 710.000000000009 47.5000000000002
vertex 401.605184761804 711.099980941694 47.5000000000001
vertex 393.394815238347 711.099980941694 47.5000000000002
endloop
endfacet
facet normal 1.719196479622e-015 9.05407478547686e-017 1.0
outer loop
vertex 393.394815238347 711.099980941694 47.5000000000002
vertex 401.605184761804 711.099980941694 47.5000000000001
vertex 401.18060796616 712.125000000009 47.5000000000001
endloop
endfacet
facet normal 1.719196479622e-015 9.05407478547686e-017 1.0
outer loop
vertex 393.394815238347 711.099980941694 47.5000000000002
vertex 401.18060796616 712.125000000009 47.5000000000001
vertex 393.767615338695 712.000000000009 47.5000000000002
endloop
endfacet
facet normal 1.719196479622e-015 9.05407478547686e-017 1.0
outer loop
vertex 393.767615338695 712.000000000009 47.5000000000002
vertex 401.18060796616 712.125000000009 47.5000000000001
vertex 387.500000000076 712.000000000009 47.5000000000001
endloop
endfacet
facet normal 1.719196479622e-015 9.05407478547686e-017 1.0
outer loop
vertex 387.500000000076 712.000000000009 47.5000000000001
vertex 401.18060796616 712.125000000009 47.5000000000001
vertex 387.500000000076 712.828427124755 47.5000000000001
endloop
endfacet
facet normal 1.719196479622e-015 9.05407478547686e-017 1.0
outer loop
vertex 387.500000000076 712.828427124755 47.5000000000001
vertex 401.18060796616 712.125000000009 47.5000000000001
vertex 394.359150650886 712.828427124755 47.5000000000001
endloop
endfacet
facet normal 1.719196479622e-015 9.05407478547686e-017 1.0
outer loop
vertex 398.599980941761 705.89481523828 47.5000000000001
vertex 396.40001905839 705.89481523828 47.5000000000001
vertex 397.500000000076 705.750000000009 47.5000000000001
endloop
endfacet
facet normal 1.719196479622e-015 9.05407478547686e-017 1.0
outer loop
vertex 396.40001905839 705.89481523828 47.5000000000001
vertex 398.599980941761 705.89481523828 47.5000000000001
vertex 399.625000000076 706.319392033925 47.5000000000001
endloop
endfacet
facet normal 1.719196479622e-015 9.05407478547686e-017 1.0
outer loop
vertex 396.40001905839 705.89481523828 47.5000000000001
vertex 399.625000000076 706.319392033925 47.5000000000001
vertex 395.375000000076 706.319392033925 47.5000000000001
endloop
endfacet
facet normal 1.719196479622e-015 9.05407478547686e-017 1.0
outer loop
vertex 395.375000000076 706.319392033925 47.5000000000001
vertex 399.625000000076 706.319392033925 47.5000000000001
vertex 400.505203820119 706.994796179966 47.5000000000001
endloop
endfacet
facet normal 1.719196479622e-015 9.05407478547686e-017 1.0
outer loop
vertex 395.375000000076 706.319392033925 47.5000000000001
vertex 400.505203820119 706.994796179966 47.5000000000001
vertex 394.494796180033 706.994796179966 47.5000000000001
endloop
endfacet
facet normal 1.719196479622e-015 9.05407478547686e-017 1.0
outer loop
vertex 394.494796180033 706.994796179966 47.5000000000001
vertex 400.505203820119 706.994796179966 47.5000000000001
vertex 401.18060796616 707.875000000009 47.5000000000001
endloop
endfacet
facet normal 1.719196479622e-015 9.05407478547686e-017 1.0
outer loop
vertex 394.494796180033 706.994796179966 47.5000000000001
vertex 401.18060796616 707.875000000009 47.5000000000001
vertex 394.359150650886 707.171572875262 47.5000000000001
endloop
endfacet
facet normal 1.719196479622e-015 9.05407478547686e-017 1.0
outer loop
vertex 394.359150650886 707.171572875262 47.5000000000001
vertex 401.18060796616 707.875000000009 47.5000000000001
vertex 387.500000000076 707.171572875262 47.5000000000001
endloop
endfacet
facet normal 1.719196479622e-015 9.05407478547686e-017 1.0
outer loop
vertex 387.500000000076 707.171572875262 47.5000000000001
vertex 401.18060796616 707.875000000009 47.5000000000001
vertex 387.500000000076 708.000000000009 47.5000000000001
endloop
endfacet
facet normal 1.719196479622e-015 9.05407478547686e-017 1.0
outer loop
vertex 387.500000000076 708.000000000009 47.5000000000001
vertex 401.18060796616 707.875000000009 47.5000000000001
vertex 393.767615338695 708.000000000009 47.5000000000002
endloop
endfacet
endsolid Main Design
