solid Main Design
facet normal -1.0 -1.15874395407462e-016 8.99975354470859e-015
outer loop
vertex 575.16601729733 2191.84377954497 5.00000000000004
vertex 575.16601729733 2176.84377954497 4.51194637207664e-014
vertex 575.16601729733 2176.84377954497 5.00000000000004
endloop
endfacet
facet normal -1.0 -1.15874395407462e-016 8.99975354470859e-015
outer loop
vertex 575.16601729733 2176.84377954497 4.51194637207664e-014
vertex 575.16601729733 2191.84377954497 5.00000000000004
vertex 575.16601729733 2216.84377954497 4.51194637207664e-014
endloop
endfacet
facet normal -1.0 -1.15874395407462e-016 8.99975354470859e-015
outer loop
vertex 575.16601729733 2216.84377954497 4.51194637207664e-014
vertex 575.16601729733 2191.84377954497 5.00000000000004
vertex 575.16601729733 2201.84377954497 5.00000000000004
endloop
endfacet
facet normal -1.0 -1.15874395407462e-016 8.99975354470859e-015
outer loop
vertex 575.16601729733 2216.84377954497 4.51194637207664e-014
vertex 575.16601729733 2201.84377954497 5.00000000000004
vertex 575.16601729733 2216.84377954497 5.00000000000004
endloop
endfacet
facet normal 0.0 0.0 1.0
outer loop
vertex 579.484165644752 2182.36141763518 5.00000000000004
vertex 579.41601729733 2211.84377954497 5.00000000000004
vertex 579.41601729733 2181.84377954497 5.00000000000004
endloop
endfacet
facet normal 0.0 0.0 1.0
outer loop
vertex 579.41601729733 2211.84377954497 5.00000000000004
vertex 579.484165644752 2182.36141763518 5.00000000000004
vertex 579.484165644752 2211.32614145477 5.00000000000004
endloop
endfacet
facet normal 0.0 0.0 1.0
outer loop
vertex 579.484165644752 2211.32614145477 5.00000000000004
vertex 579.484165644752 2182.36141763518 5.00000000000004
vertex 579.683966489761 2182.84377954497 5.00000000000004
endloop
endfacet
facet normal 0.0 0.0 1.0
outer loop
vertex 579.484165644752 2211.32614145477 5.00000000000004
vertex 579.683966489761 2182.84377954497 5.00000000000004
vertex 579.683966489761 2210.84377954497 5.00000000000004
endloop
endfacet
facet normal 0.0 0.0 1.0
outer loop
vertex 579.683966489761 2210.84377954497 5.00000000000004
vertex 579.683966489761 2182.84377954497 5.00000000000004
vertex 580.001803734957 2183.25799310735 5.00000000000004
endloop
endfacet
facet normal 0.0 0.0 1.0
outer loop
vertex 579.683966489761 2210.84377954497 5.00000000000004
vertex 580.001803734957 2183.25799310735 5.00000000000004
vertex 580.001803734957 2210.4295659826 5.00000000000004
endloop
endfacet
facet normal 0.0 0.0 1.0
outer loop
vertex 580.001803734957 2210.4295659826 5.00000000000004
vertex 580.001803734957 2183.25799310735 5.00000000000004
vertex 580.16601729733 2191.84377954497 5.00000000000004
endloop
endfacet
facet normal 0.0 0.0 1.0
outer loop
vertex 580.16601729733 2191.84377954497 5.00000000000004
vertex 580.001803734957 2183.25799310735 5.00000000000004
vertex 580.41601729733 2183.57583035254 5.00000000000004
endloop
endfacet
facet normal 0.0 0.0 1.0
outer loop
vertex 580.16601729733 2191.84377954497 5.00000000000004
vertex 580.41601729733 2183.57583035254 5.00000000000004
vertex 582.66601729733 2191.84377954497 5.00000000000004
endloop
endfacet
facet normal 0.0 0.0 1.0
outer loop
vertex 582.66601729733 2191.84377954497 5.00000000000004
vertex 580.41601729733 2183.57583035254 5.00000000000004
vertex 580.898379207125 2183.77563119755 5.00000000000004
endloop
endfacet
facet normal 0.0 0.0 1.0
outer loop
vertex 582.66601729733 2191.84377954497 5.00000000000004
vertex 580.898379207125 2183.77563119755 5.00000000000004
vertex 581.41601729733 2183.84377954497 5.00000000000004
endloop
endfacet
facet normal 0.0 0.0 1.0
outer loop
vertex 582.66601729733 2191.84377954497 5.00000000000004
vertex 581.41601729733 2183.84377954497 5.00000000000004
vertex 581.933655387535 2183.77563119755 5.00000000000004
endloop
endfacet
facet normal 0.0 0.0 1.0
outer loop
vertex 582.66601729733 2191.84377954497 5.00000000000004
vertex 581.933655387535 2183.77563119755 5.00000000000004
vertex 582.41601729733 2183.57583035254 5.00000000000004
endloop
endfacet
facet normal 0.0 0.0 1.0
outer loop
vertex 582.66601729733 2191.84377954497 5.00000000000004
vertex 582.41601729733 2183.57583035254 5.00000000000004
vertex 582.830230859703 2183.25799310735 5.00000000000004
endloop
endfacet
facet normal 0.0 0.0 1.0
outer loop
vertex 582.66601729733 2191.84377954497 5.00000000000004
vertex 582.830230859703 2183.25799310735 5.00000000000004
vertex 582.66601729733 2201.84377954497 5.00000000000004
endloop
endfacet
facet normal 0.0 0.0 1.0
outer loop
vertex 575.16601729733 2176.84377954497 5.00000000000004
vertex 579.484165644752 2181.32614145477 5.00000000000004
vertex 575.16601729733 2191.84377954497 5.00000000000004
endloop
endfacet
facet normal 0.0 0.0 1.0
outer loop
vertex 579.484165644752 2181.32614145477 5.00000000000004
vertex 575.16601729733 2176.84377954497 5.00000000000004
vertex 579.683966489761 2180.84377954497 5.00000000000004
endloop
endfacet
facet normal 0.0 0.0 1.0
outer loop
vertex 579.683966489761 2180.84377954497 5.00000000000004
vertex 575.16601729733 2176.84377954497 5.00000000000004
vertex 580.001803734957 2180.4295659826 5.00000000000004
endloop
endfacet
facet normal 0.0 0.0 1.0
outer loop
vertex 580.001803734957 2180.4295659826 5.00000000000004
vertex 575.16601729733 2176.84377954497 5.00000000000004
vertex 580.41601729733 2180.11172873741 5.00000000000004
endloop
endfacet
facet normal 0.0 0.0 1.0
outer loop
vertex 580.41601729733 2180.11172873741 5.00000000000004
vertex 575.16601729733 2176.84377954497 5.00000000000004
vertex 587.66601729733 2176.84377954497 5.00000000000004
endloop
endfacet
facet normal 0.0 0.0 1.0
outer loop
vertex 575.16601729733 2191.84377954497 5.00000000000004
vertex 579.484165644752 2181.32614145477 5.00000000000004
vertex 577.66601729733 2191.84377954497 5.00000000000004
endloop
endfacet
facet normal 0.0 0.0 1.0
outer loop
vertex 577.66601729733 2191.84377954497 5.00000000000004
vertex 579.484165644752 2181.32614145477 5.00000000000004
vertex 579.41601729733 2181.84377954497 5.00000000000004
endloop
endfacet
facet normal 0.0 0.0 1.0
outer loop
vertex 577.66601729733 2191.84377954497 5.00000000000004
vertex 579.41601729733 2181.84377954497 5.00000000000004
vertex 577.66601729733 2201.84377954497 5.00000000000004
endloop
endfacet
facet normal 0.0 0.0 1.0
outer loop
vertex 580.41601729733 2180.11172873741 5.00000000000004
vertex 587.66601729733 2176.84377954497 5.00000000000004
vertex 580.898379207125 2179.9119278924 5.00000000000004
endloop
endfacet
facet normal 0.0 0.0 1.0
outer loop
vertex 580.898379207125 2179.9119278924 5.00000000000004
vertex 587.66601729733 2176.84377954497 5.00000000000004
vertex 581.41601729733 2179.84377954497 5.00000000000004
endloop
endfacet
facet normal 0.0 0.0 1.0
outer loop
vertex 581.41601729733 2179.84377954497 5.00000000000004
vertex 587.66601729733 2176.84377954497 5.00000000000004
vertex 581.933655387535 2179.9119278924 5.00000000000004
endloop
endfacet
facet normal 0.0 0.0 1.0
outer loop
vertex 581.933655387535 2179.9119278924 5.00000000000004
vertex 587.66601729733 2176.84377954497 5.00000000000004
vertex 582.41601729733 2180.11172873741 5.00000000000004
endloop
endfacet
facet normal 0.0 0.0 1.0
outer loop
vertex 582.41601729733 2180.11172873741 5.00000000000004
vertex 587.66601729733 2176.84377954497 5.00000000000004
vertex 582.830230859703 2180.4295659826 5.00000000000004
endloop
endfacet
facet normal 0.0 0.0 1.0
outer loop
vertex 582.830230859703 2180.4295659826 5.00000000000004
vertex 587.66601729733 2176.84377954497 5.00000000000004
vertex 583.148068104899 2180.84377954497 5.00000000000004
endloop
endfacet
facet normal 0.0 0.0 1.0
outer loop
vertex 583.148068104899 2180.84377954497 5.00000000000004
vertex 587.66601729733 2176.84377954497 5.00000000000004
vertex 583.347868949908 2181.32614145477 5.00000000000004
endloop
endfacet
facet normal 0.0 0.0 1.0
outer loop
vertex 583.347868949908 2181.32614145477 5.00000000000004
vertex 587.66601729733 2176.84377954497 5.00000000000004
vertex 583.41601729733 2181.84377954497 5.00000000000004
endloop
endfacet
facet normal 0.0 0.0 1.0
outer loop
vertex 583.41601729733 2181.84377954497 5.00000000000004
vertex 587.66601729733 2176.84377954497 5.00000000000004
vertex 585.16601729733 2191.84377954497 5.00000000000004
endloop
endfacet
facet normal 0.0 0.0 1.0
outer loop
vertex 583.41601729733 2181.84377954497 5.00000000000004
vertex 585.16601729733 2191.84377954497 5.00000000000004
vertex 583.41601729733 2211.84377954497 5.00000000000004
endloop
endfacet
facet normal 0.0 0.0 1.0
outer loop
vertex 585.16601729733 2191.84377954497 5.00000000000004
vertex 587.66601729733 2176.84377954497 5.00000000000004
vertex 587.66601729733 2191.84377954497 5.00000000000004
endloop
endfacet
facet normal 0.0 0.0 1.0
outer loop
vertex 575.16601729733 2216.84377954497 5.00000000000004
vertex 580.41601729733 2213.57583035254 5.00000000000004
vertex 587.66601729733 2216.84377954497 5.00000000000004
endloop
endfacet
facet normal 0.0 0.0 1.0
outer loop
vertex 580.41601729733 2213.57583035254 5.00000000000004
vertex 575.16601729733 2216.84377954497 5.00000000000004
vertex 580.001803734957 2213.25799310735 5.00000000000004
endloop
endfacet
facet normal 0.0 0.0 1.0
outer loop
vertex 580.001803734957 2213.25799310735 5.00000000000004
vertex 575.16601729733 2216.84377954497 5.00000000000004
vertex 579.683966489761 2212.84377954497 5.00000000000004
endloop
endfacet
facet normal 0.0 0.0 1.0
outer loop
vertex 579.683966489761 2212.84377954497 5.00000000000004
vertex 575.16601729733 2216.84377954497 5.00000000000004
vertex 579.484165644752 2212.36141763518 5.00000000000004
endloop
endfacet
facet normal 0.0 0.0 1.0
outer loop
vertex 579.484165644752 2212.36141763518 5.00000000000004
vertex 575.16601729733 2216.84377954497 5.00000000000004
vertex 575.16601729733 2201.84377954497 5.00000000000004
endloop
endfacet
facet normal 0.0 0.0 1.0
outer loop
vertex 579.484165644752 2212.36141763518 5.00000000000004
vertex 575.16601729733 2201.84377954497 5.00000000000004
vertex 577.66601729733 2201.84377954497 5.00000000000004
endloop
endfacet
facet normal 0.0 0.0 1.0
outer loop
vertex 579.484165644752 2212.36141763518 5.00000000000004
vertex 577.66601729733 2201.84377954497 5.00000000000004
vertex 579.41601729733 2211.84377954497 5.00000000000004
endloop
endfacet
facet normal 0.0 0.0 1.0
outer loop
vertex 579.41601729733 2211.84377954497 5.00000000000004
vertex 577.66601729733 2201.84377954497 5.00000000000004
vertex 579.41601729733 2181.84377954497 5.00000000000004
endloop
endfacet
facet normal 0.0 0.0 1.0
outer loop
vertex 587.66601729733 2216.84377954497 5.00000000000004
vertex 580.41601729733 2213.57583035254 5.00000000000004
vertex 580.898379207125 2213.77563119755 5.00000000000004
endloop
endfacet
facet normal 0.0 0.0 1.0
outer loop
vertex 587.66601729733 2216.84377954497 5.00000000000004
vertex 580.898379207125 2213.77563119755 5.00000000000004
vertex 581.41601729733 2213.84377954497 5.00000000000004
endloop
endfacet
facet normal 0.0 0.0 1.0
outer loop
vertex 587.66601729733 2216.84377954497 5.00000000000004
vertex 581.41601729733 2213.84377954497 5.00000000000004
vertex 581.933655387535 2213.77563119755 5.00000000000004
endloop
endfacet
facet normal 0.0 0.0 1.0
outer loop
vertex 587.66601729733 2216.84377954497 5.00000000000004
vertex 581.933655387535 2213.77563119755 5.00000000000004
vertex 582.41601729733 2213.57583035254 5.00000000000004
endloop
endfacet
facet normal 0.0 0.0 1.0
outer loop
vertex 587.66601729733 2216.84377954497 5.00000000000004
vertex 582.41601729733 2213.57583035254 5.00000000000004
vertex 582.830230859703 2213.25799310735 5.00000000000004
endloop
endfacet
facet normal 0.0 0.0 1.0
outer loop
vertex 587.66601729733 2216.84377954497 5.00000000000004
vertex 582.830230859703 2213.25799310735 5.00000000000004
vertex 583.148068104899 2212.84377954497 5.00000000000004
endloop
endfacet
facet normal 0.0 0.0 1.0
outer loop
vertex 587.66601729733 2216.84377954497 5.00000000000004
vertex 583.148068104899 2212.84377954497 5.00000000000004
vertex 583.347868949908 2212.36141763518 5.00000000000004
endloop
endfacet
facet normal 0.0 0.0 1.0
outer loop
vertex 587.66601729733 2216.84377954497 5.00000000000004
vertex 583.347868949908 2212.36141763518 5.00000000000004
vertex 583.41601729733 2211.84377954497 5.00000000000004
endloop
endfacet
facet normal 0.0 0.0 1.0
outer loop
vertex 587.66601729733 2216.84377954497 5.00000000000004
vertex 583.41601729733 2211.84377954497 5.00000000000004
vertex 585.16601729733 2201.84377954497 5.00000000000004
endloop
endfacet
facet normal 0.0 0.0 1.0
outer loop
vertex 585.16601729733 2201.84377954497 5.00000000000004
vertex 583.41601729733 2211.84377954497 5.00000000000004
vertex 585.16601729733 2191.84377954497 5.00000000000004
endloop
endfacet
facet normal 0.0 0.0 1.0
outer loop
vertex 587.66601729733 2216.84377954497 5.00000000000004
vertex 585.16601729733 2201.84377954497 5.00000000000004
vertex 587.66601729733 2201.84377954497 5.00000000000004
endloop
endfacet
facet normal 0.0 0.0 1.0
outer loop
vertex 580.001803734957 2210.4295659826 5.00000000000004
vertex 580.16601729733 2201.84377954497 5.00000000000004
vertex 580.41601729733 2210.11172873741 5.00000000000004
endloop
endfacet
facet normal 0.0 0.0 1.0
outer loop
vertex 580.16601729733 2201.84377954497 5.00000000000004
vertex 580.001803734957 2210.4295659826 5.00000000000004
vertex 580.16601729733 2191.84377954497 5.00000000000004
endloop
endfacet
facet normal 0.0 0.0 1.0
outer loop
vertex 580.41601729733 2210.11172873741 5.00000000000004
vertex 580.16601729733 2201.84377954497 5.00000000000004
vertex 582.66601729733 2201.84377954497 5.00000000000004
endloop
endfacet
facet normal 0.0 0.0 1.0
outer loop
vertex 580.41601729733 2210.11172873741 5.00000000000004
vertex 582.66601729733 2201.84377954497 5.00000000000004
vertex 580.898379207125 2209.9119278924 5.00000000000004
endloop
endfacet
facet normal 0.0 0.0 1.0
outer loop
vertex 580.898379207125 2209.9119278924 5.00000000000004
vertex 582.66601729733 2201.84377954497 5.00000000000004
vertex 581.41601729733 2209.84377954497 5.00000000000004
endloop
endfacet
facet normal 0.0 0.0 1.0
outer loop
vertex 581.41601729733 2209.84377954497 5.00000000000004
vertex 582.66601729733 2201.84377954497 5.00000000000004
vertex 581.933655387535 2209.9119278924 5.00000000000004
endloop
endfacet
facet normal 0.0 0.0 1.0
outer loop
vertex 581.933655387535 2209.9119278924 5.00000000000004
vertex 582.66601729733 2201.84377954497 5.00000000000004
vertex 582.41601729733 2210.11172873741 5.00000000000004
endloop
endfacet
facet normal 0.0 0.0 1.0
outer loop
vertex 582.41601729733 2210.11172873741 5.00000000000004
vertex 582.66601729733 2201.84377954497 5.00000000000004
vertex 582.830230859703 2210.4295659826 5.00000000000004
endloop
endfacet
facet normal 0.0 0.0 1.0
outer loop
vertex 582.830230859703 2210.4295659826 5.00000000000004
vertex 582.66601729733 2201.84377954497 5.00000000000004
vertex 582.830230859703 2183.25799310735 5.00000000000004
endloop
endfacet
facet normal 0.0 0.0 1.0
outer loop
vertex 582.830230859703 2210.4295659826 5.00000000000004
vertex 582.830230859703 2183.25799310735 5.00000000000004
vertex 583.148068104899 2182.84377954497 5.00000000000004
endloop
endfacet
facet normal 0.0 0.0 1.0
outer loop
vertex 582.830230859703 2210.4295659826 5.00000000000004
vertex 583.148068104899 2182.84377954497 5.00000000000004
vertex 583.148068104899 2210.84377954497 5.00000000000004
endloop
endfacet
facet normal 0.0 0.0 1.0
outer loop
vertex 583.148068104899 2210.84377954497 5.00000000000004
vertex 583.148068104899 2182.84377954497 5.00000000000004
vertex 583.347868949908 2182.36141763518 5.00000000000004
endloop
endfacet
facet normal 0.0 0.0 1.0
outer loop
vertex 583.148068104899 2210.84377954497 5.00000000000004
vertex 583.347868949908 2182.36141763518 5.00000000000004
vertex 583.347868949908 2211.32614145477 5.00000000000004
endloop
endfacet
facet normal 0.0 0.0 1.0
outer loop
vertex 583.347868949908 2211.32614145477 5.00000000000004
vertex 583.347868949908 2182.36141763518 5.00000000000004
vertex 583.41601729733 2181.84377954497 5.00000000000004
endloop
endfacet
facet normal 0.0 0.0 1.0
outer loop
vertex 583.347868949908 2211.32614145477 5.00000000000004
vertex 583.41601729733 2181.84377954497 5.00000000000004
vertex 583.41601729733 2211.84377954497 5.00000000000004
endloop
endfacet
facet normal 1.0 0.0 0.0
outer loop
vertex 587.66601729733 2216.84377954497 4.51194637207664e-014
vertex 587.66601729733 2176.84377954497 5.00000000000004
vertex 587.66601729733 2176.84377954497 4.51194637207664e-014
endloop
endfacet
facet normal 1.0 0.0 0.0
outer loop
vertex 587.66601729733 2176.84377954497 5.00000000000004
vertex 587.66601729733 2216.84377954497 4.51194637207664e-014
vertex 587.66601729733 2191.84377954497 5.00000000000004
endloop
endfacet
facet normal 1.0 0.0 0.0
outer loop
vertex 587.66601729733 2191.84377954497 5.00000000000004
vertex 587.66601729733 2216.84377954497 4.51194637207664e-014
vertex 587.66601729733 2201.84377954497 5.00000000000004
endloop
endfacet
facet normal 1.0 0.0 0.0
outer loop
vertex 587.66601729733 2201.84377954497 5.00000000000004
vertex 587.66601729733 2216.84377954497 4.51194637207664e-014
vertex 587.66601729733 2216.84377954497 5.00000000000004
endloop
endfacet
facet normal 0.258819045102504 -0.965925826289073 0.0
outer loop
vertex 580.898379207125 2213.77563119755 5.00000000000004
vertex 580.41601729733 2213.57583035254 4.51194637207664e-014
vertex 580.898379207125 2213.77563119755 4.51194637207664e-014
endloop
endfacet
facet normal 0.500000000000056 -0.866025403784406 0.0
outer loop
vertex 580.41601729733 2213.57583035254 4.51194637207664e-014
vertex 580.898379207125 2213.77563119755 5.00000000000004
vertex 580.41601729733 2213.57583035254 5.00000000000004
endloop
endfacet
facet normal -0.866025403784434 0.500000000000008 0.0
outer loop
vertex 583.148068104899 2210.84377954497 5.00000000000004
vertex 582.830230859703 2210.4295659826 4.51194637207664e-014
vertex 582.830230859703 2210.4295659826 5.00000000000004
endloop
endfacet
facet normal -0.707106781186451 0.707106781186645 0.0
outer loop
vertex 582.830230859703 2210.4295659826 4.51194637207664e-014
vertex 583.148068104899 2210.84377954497 5.00000000000004
vertex 583.148068104899 2210.84377954497 4.51194637207664e-014
endloop
endfacet
facet normal -0.965925826289078 0.258819045102483 0.0
outer loop
vertex 583.347868949908 2211.32614145477 5.00000000000004
vertex 583.148068104899 2210.84377954497 4.51194637207664e-014
vertex 583.148068104899 2210.84377954497 5.00000000000004
endloop
endfacet
facet normal -0.866025403784434 0.500000000000008 0.0
outer loop
vertex 583.148068104899 2210.84377954497 4.51194637207664e-014
vertex 583.347868949908 2211.32614145477 5.00000000000004
vertex 583.347868949908 2211.32614145477 4.51194637207664e-014
endloop
endfacet
facet normal 0.500000000000056 -0.866025403784406 0.0
outer loop
vertex 580.41601729733 2213.57583035254 5.00000000000004
vertex 580.001803734957 2213.25799310735 4.51194637207664e-014
vertex 580.41601729733 2213.57583035254 4.51194637207664e-014
endloop
endfacet
facet normal 0.707106781186451 -0.707106781186645 0.0
outer loop
vertex 580.001803734957 2213.25799310735 4.51194637207664e-014
vertex 580.41601729733 2213.57583035254 5.00000000000004
vertex 580.001803734957 2213.25799310735 5.00000000000004
endloop
endfacet
facet normal -1.0 0.0 0.0
outer loop
vertex 583.41601729733 2211.84377954497 5.00000000000004
vertex 583.347868949908 2211.32614145477 4.51194637207664e-014
vertex 583.347868949908 2211.32614145477 5.00000000000004
endloop
endfacet
facet normal -0.965925826289078 0.258819045102483 0.0
outer loop
vertex 583.347868949908 2211.32614145477 4.51194637207664e-014
vertex 583.41601729733 2211.84377954497 5.00000000000004
vertex 583.41601729733 2211.84377954497 4.51194637207664e-014
endloop
endfacet
facet normal -0.707106781186413 -0.707106781186682 0.0
outer loop
vertex 582.830230859703 2213.25799310735 5.00000000000004
vertex 582.41601729733 2213.57583035254 4.51194637207664e-014
vertex 582.830230859703 2213.25799310735 4.51194637207664e-014
endloop
endfacet
facet normal -0.500000000000039 -0.866025403784416 0.0
outer loop
vertex 582.41601729733 2213.57583035254 4.51194637207664e-014
vertex 582.830230859703 2213.25799310735 5.00000000000004
vertex 582.41601729733 2213.57583035254 5.00000000000004
endloop
endfacet
facet normal -0.707106781186413 -0.707106781186682 0.0
outer loop
vertex 582.830230859703 2213.25799310735 5.00000000000004
vertex 583.148068104899 2212.84377954497 4.51194637207664e-014
vertex 583.148068104899 2212.84377954497 5.00000000000004
endloop
endfacet
facet normal -0.866025403784434 -0.500000000000008 0.0
outer loop
vertex 583.148068104899 2212.84377954497 4.51194637207664e-014
vertex 582.830230859703 2213.25799310735 5.00000000000004
vertex 582.830230859703 2213.25799310735 4.51194637207664e-014
endloop
endfacet
facet normal -0.866025403784434 -0.500000000000008 0.0
outer loop
vertex 583.148068104899 2212.84377954497 5.00000000000004
vertex 583.347868949908 2212.36141763518 4.51194637207664e-014
vertex 583.347868949908 2212.36141763518 5.00000000000004
endloop
endfacet
facet normal -0.965925826289078 -0.258819045102483 0.0
outer loop
vertex 583.347868949908 2212.36141763518 4.51194637207664e-014
vertex 583.148068104899 2212.84377954497 5.00000000000004
vertex 583.148068104899 2212.84377954497 4.51194637207664e-014
endloop
endfacet
facet normal -0.965925826289078 -0.258819045102483 0.0
outer loop
vertex 583.347868949908 2212.36141763518 5.00000000000004
vertex 583.41601729733 2211.84377954497 4.51194637207664e-014
vertex 583.41601729733 2211.84377954497 5.00000000000004
endloop
endfacet
facet normal -1.0 0.0 0.0
outer loop
vertex 583.41601729733 2211.84377954497 4.51194637207664e-014
vertex 583.347868949908 2212.36141763518 5.00000000000004
vertex 583.347868949908 2212.36141763518 4.51194637207664e-014
endloop
endfacet
facet normal 0.258819045102536 0.965925826289064 0.0
outer loop
vertex 580.898379207125 2209.9119278924 5.00000000000004
vertex 581.41601729733 2209.84377954497 4.51194637207664e-014
vertex 580.898379207125 2209.9119278924 4.51194637207664e-014
endloop
endfacet
facet normal 0.0 1.0 0.0
outer loop
vertex 581.41601729733 2209.84377954497 4.51194637207664e-014
vertex 580.898379207125 2209.9119278924 5.00000000000004
vertex 581.41601729733 2209.84377954497 5.00000000000004
endloop
endfacet
facet normal -0.500000000000056 0.866025403784406 0.0
outer loop
vertex 582.41601729733 2210.11172873741 5.00000000000004
vertex 582.830230859703 2210.4295659826 4.51194637207664e-014
vertex 582.41601729733 2210.11172873741 4.51194637207664e-014
endloop
endfacet
facet normal -0.707106781186451 0.707106781186645 0.0
outer loop
vertex 582.830230859703 2210.4295659826 4.51194637207664e-014
vertex 582.41601729733 2210.11172873741 5.00000000000004
vertex 582.830230859703 2210.4295659826 5.00000000000004
endloop
endfacet
facet normal 0.0 1.0 0.0
outer loop
vertex 581.41601729733 2209.84377954497 5.00000000000004
vertex 581.933655387535 2209.9119278924 4.51194637207664e-014
vertex 581.41601729733 2209.84377954497 4.51194637207664e-014
endloop
endfacet
facet normal -0.258819045102504 0.965925826289073 0.0
outer loop
vertex 581.933655387535 2209.9119278924 4.51194637207664e-014
vertex 581.41601729733 2209.84377954497 5.00000000000004
vertex 581.933655387535 2209.9119278924 5.00000000000004
endloop
endfacet
facet normal -0.258819045102536 -0.965925826289064 0.0
outer loop
vertex 581.933655387535 2213.77563119755 5.00000000000004
vertex 581.41601729733 2213.84377954497 4.51194637207664e-014
vertex 581.933655387535 2213.77563119755 4.51194637207664e-014
endloop
endfacet
facet normal 0.0 -1.0 0.0
outer loop
vertex 581.41601729733 2213.84377954497 4.51194637207664e-014
vertex 581.933655387535 2213.77563119755 5.00000000000004
vertex 581.41601729733 2213.84377954497 5.00000000000004
endloop
endfacet
facet normal -0.500000000000039 -0.866025403784416 0.0
outer loop
vertex 582.41601729733 2213.57583035254 5.00000000000004
vertex 581.933655387535 2213.77563119755 4.51194637207664e-014
vertex 582.41601729733 2213.57583035254 4.51194637207664e-014
endloop
endfacet
facet normal -0.258819045102536 -0.965925826289064 0.0
outer loop
vertex 581.933655387535 2213.77563119755 4.51194637207664e-014
vertex 582.41601729733 2213.57583035254 5.00000000000004
vertex 581.933655387535 2213.77563119755 5.00000000000004
endloop
endfacet
facet normal 0.500000000000039 0.866025403784416 0.0
outer loop
vertex 580.41601729733 2210.11172873741 5.00000000000004
vertex 580.898379207125 2209.9119278924 4.51194637207664e-014
vertex 580.41601729733 2210.11172873741 4.51194637207664e-014
endloop
endfacet
facet normal 0.258819045102536 0.965925826289064 0.0
outer loop
vertex 580.898379207125 2209.9119278924 4.51194637207664e-014
vertex 580.41601729733 2210.11172873741 5.00000000000004
vertex 580.898379207125 2209.9119278924 5.00000000000004
endloop
endfacet
facet normal 0.0 -1.0 0.0
outer loop
vertex 587.66601729733 2176.84377954497 5.00000000000004
vertex 575.16601729733 2176.84377954497 4.51194637207664e-014
vertex 587.66601729733 2176.84377954497 4.51194637207664e-014
endloop
endfacet
facet normal 0.0 -1.0 0.0
outer loop
vertex 575.16601729733 2176.84377954497 4.51194637207664e-014
vertex 587.66601729733 2176.84377954497 5.00000000000004
vertex 575.16601729733 2176.84377954497 5.00000000000004
endloop
endfacet
facet normal 0.965925826289078 -0.258819045102483 0.0
outer loop
vertex 579.484165644752 2182.36141763518 4.51194637207664e-014
vertex 579.41601729733 2181.84377954497 5.00000000000004
vertex 579.41601729733 2181.84377954497 4.51194637207664e-014
endloop
endfacet
facet normal 1.0 0.0 0.0
outer loop
vertex 579.41601729733 2181.84377954497 5.00000000000004
vertex 579.484165644752 2182.36141763518 4.51194637207664e-014
vertex 579.484165644752 2182.36141763518 5.00000000000004
endloop
endfacet
facet normal 0.866025403784434 -0.500000000000008 0.0
outer loop
vertex 579.683966489761 2182.84377954497 4.51194637207664e-014
vertex 579.484165644752 2182.36141763518 5.00000000000004
vertex 579.484165644752 2182.36141763518 4.51194637207664e-014
endloop
endfacet
facet normal 0.965925826289078 -0.258819045102483 0.0
outer loop
vertex 579.484165644752 2182.36141763518 5.00000000000004
vertex 579.683966489761 2182.84377954497 4.51194637207664e-014
vertex 579.683966489761 2182.84377954497 5.00000000000004
endloop
endfacet
facet normal 0.707106781186451 -0.707106781186645 0.0
outer loop
vertex 580.001803734957 2183.25799310735 4.51194637207664e-014
vertex 579.683966489761 2182.84377954497 5.00000000000004
vertex 579.683966489761 2182.84377954497 4.51194637207664e-014
endloop
endfacet
facet normal 0.866025403784434 -0.500000000000008 0.0
outer loop
vertex 579.683966489761 2182.84377954497 5.00000000000004
vertex 580.001803734957 2183.25799310735 4.51194637207664e-014
vertex 580.001803734957 2183.25799310735 5.00000000000004
endloop
endfacet
facet normal 0.0 -1.0 0.0
outer loop
vertex 581.41601729733 2213.84377954497 5.00000000000004
vertex 580.898379207125 2213.77563119755 4.51194637207664e-014
vertex 581.41601729733 2213.84377954497 4.51194637207664e-014
endloop
endfacet
facet normal 0.258819045102504 -0.965925826289073 0.0
outer loop
vertex 580.898379207125 2213.77563119755 4.51194637207664e-014
vertex 581.41601729733 2213.84377954497 5.00000000000004
vertex 580.898379207125 2213.77563119755 5.00000000000004
endloop
endfacet
facet normal -0.258819045102504 0.965925826289073 0.0
outer loop
vertex 581.933655387535 2209.9119278924 5.00000000000004
vertex 582.41601729733 2210.11172873741 4.51194637207664e-014
vertex 581.933655387535 2209.9119278924 4.51194637207664e-014
endloop
endfacet
facet normal -0.500000000000056 0.866025403784406 0.0
outer loop
vertex 582.41601729733 2210.11172873741 4.51194637207664e-014
vertex 581.933655387535 2209.9119278924 5.00000000000004
vertex 582.41601729733 2210.11172873741 5.00000000000004
endloop
endfacet
facet normal 0.707106781186413 0.707106781186682 0.0
outer loop
vertex 580.001803734957 2210.4295659826 5.00000000000004
vertex 580.41601729733 2210.11172873741 4.51194637207664e-014
vertex 580.001803734957 2210.4295659826 4.51194637207664e-014
endloop
endfacet
facet normal 0.500000000000039 0.866025403784416 0.0
outer loop
vertex 580.41601729733 2210.11172873741 4.51194637207664e-014
vertex 580.001803734957 2210.4295659826 5.00000000000004
vertex 580.41601729733 2210.11172873741 5.00000000000004
endloop
endfacet
facet normal 0.866025403784434 0.500000000000008 0.0
outer loop
vertex 579.683966489761 2210.84377954497 4.51194637207664e-014
vertex 580.001803734957 2210.4295659826 5.00000000000004
vertex 580.001803734957 2210.4295659826 4.51194637207664e-014
endloop
endfacet
facet normal 0.707106781186413 0.707106781186682 0.0
outer loop
vertex 580.001803734957 2210.4295659826 5.00000000000004
vertex 579.683966489761 2210.84377954497 4.51194637207664e-014
vertex 579.683966489761 2210.84377954497 5.00000000000004
endloop
endfacet
facet normal 0.965925826289078 0.258819045102483 0.0
outer loop
vertex 579.484165644752 2211.32614145477 4.51194637207664e-014
vertex 579.683966489761 2210.84377954497 5.00000000000004
vertex 579.683966489761 2210.84377954497 4.51194637207664e-014
endloop
endfacet
facet normal 0.866025403784434 0.500000000000008 0.0
outer loop
vertex 579.683966489761 2210.84377954497 5.00000000000004
vertex 579.484165644752 2211.32614145477 4.51194637207664e-014
vertex 579.484165644752 2211.32614145477 5.00000000000004
endloop
endfacet
facet normal 1.0 0.0 0.0
outer loop
vertex 579.41601729733 2211.84377954497 4.51194637207664e-014
vertex 579.484165644752 2211.32614145477 5.00000000000004
vertex 579.484165644752 2211.32614145477 4.51194637207664e-014
endloop
endfacet
facet normal 0.965925826289078 0.258819045102483 0.0
outer loop
vertex 579.484165644752 2211.32614145477 5.00000000000004
vertex 579.41601729733 2211.84377954497 4.51194637207664e-014
vertex 579.41601729733 2211.84377954497 5.00000000000004
endloop
endfacet
facet normal 0.965925826289078 -0.258819045102483 0.0
outer loop
vertex 579.484165644752 2212.36141763518 4.51194637207664e-014
vertex 579.41601729733 2211.84377954497 5.00000000000004
vertex 579.41601729733 2211.84377954497 4.51194637207664e-014
endloop
endfacet
facet normal 1.0 0.0 0.0
outer loop
vertex 579.41601729733 2211.84377954497 5.00000000000004
vertex 579.484165644752 2212.36141763518 4.51194637207664e-014
vertex 579.484165644752 2212.36141763518 5.00000000000004
endloop
endfacet
facet normal 0.866025403784434 -0.500000000000008 0.0
outer loop
vertex 579.683966489761 2212.84377954497 4.51194637207664e-014
vertex 579.484165644752 2212.36141763518 5.00000000000004
vertex 579.484165644752 2212.36141763518 4.51194637207664e-014
endloop
endfacet
facet normal 0.965925826289078 -0.258819045102483 0.0
outer loop
vertex 579.484165644752 2212.36141763518 5.00000000000004
vertex 579.683966489761 2212.84377954497 4.51194637207664e-014
vertex 579.683966489761 2212.84377954497 5.00000000000004
endloop
endfacet
facet normal 0.707106781186451 -0.707106781186645 0.0
outer loop
vertex 580.001803734957 2213.25799310735 4.51194637207664e-014
vertex 579.683966489761 2212.84377954497 5.00000000000004
vertex 579.683966489761 2212.84377954497 4.51194637207664e-014
endloop
endfacet
facet normal 0.866025403784434 -0.500000000000008 0.0
outer loop
vertex 579.683966489761 2212.84377954497 5.00000000000004
vertex 580.001803734957 2213.25799310735 4.51194637207664e-014
vertex 580.001803734957 2213.25799310735 5.00000000000004
endloop
endfacet
facet normal -0.0 -0.0 -1.0
outer loop
vertex 575.16601729733 2216.84377954497 4.51194637207664e-014
vertex 579.41601729733 2211.84377954497 4.51194637207664e-014
vertex 575.16601729733 2176.84377954497 4.51194637207664e-014
endloop
endfacet
facet normal -0.0 -0.0 -1.0
outer loop
vertex 579.41601729733 2211.84377954497 4.51194637207664e-014
vertex 575.16601729733 2216.84377954497 4.51194637207664e-014
vertex 579.484165644752 2212.36141763518 4.51194637207664e-014
endloop
endfacet
facet normal -0.0 -0.0 -1.0
outer loop
vertex 579.484165644752 2212.36141763518 4.51194637207664e-014
vertex 575.16601729733 2216.84377954497 4.51194637207664e-014
vertex 579.683966489761 2212.84377954497 4.51194637207664e-014
endloop
endfacet
facet normal -0.0 -0.0 -1.0
outer loop
vertex 579.683966489761 2212.84377954497 4.51194637207664e-014
vertex 575.16601729733 2216.84377954497 4.51194637207664e-014
vertex 580.001803734957 2213.25799310735 4.51194637207664e-014
endloop
endfacet
facet normal -0.0 -0.0 -1.0
outer loop
vertex 580.001803734957 2213.25799310735 4.51194637207664e-014
vertex 575.16601729733 2216.84377954497 4.51194637207664e-014
vertex 580.41601729733 2213.57583035254 4.51194637207664e-014
endloop
endfacet
facet normal -0.0 -0.0 -1.0
outer loop
vertex 580.41601729733 2213.57583035254 4.51194637207664e-014
vertex 575.16601729733 2216.84377954497 4.51194637207664e-014
vertex 587.66601729733 2216.84377954497 4.51194637207664e-014
endloop
endfacet
facet normal -0.0 -0.0 -1.0
outer loop
vertex 580.41601729733 2213.57583035254 4.51194637207664e-014
vertex 587.66601729733 2216.84377954497 4.51194637207664e-014
vertex 580.898379207125 2213.77563119755 4.51194637207664e-014
endloop
endfacet
facet normal -0.0 -0.0 -1.0
outer loop
vertex 580.898379207125 2213.77563119755 4.51194637207664e-014
vertex 587.66601729733 2216.84377954497 4.51194637207664e-014
vertex 581.41601729733 2213.84377954497 4.51194637207664e-014
endloop
endfacet
facet normal -0.0 -0.0 -1.0
outer loop
vertex 581.41601729733 2213.84377954497 4.51194637207664e-014
vertex 587.66601729733 2216.84377954497 4.51194637207664e-014
vertex 581.933655387535 2213.77563119755 4.51194637207664e-014
endloop
endfacet
facet normal -0.0 -0.0 -1.0
outer loop
vertex 581.933655387535 2213.77563119755 4.51194637207664e-014
vertex 587.66601729733 2216.84377954497 4.51194637207664e-014
vertex 582.41601729733 2213.57583035254 4.51194637207664e-014
endloop
endfacet
facet normal -0.0 -0.0 -1.0
outer loop
vertex 582.41601729733 2213.57583035254 4.51194637207664e-014
vertex 587.66601729733 2216.84377954497 4.51194637207664e-014
vertex 582.830230859703 2213.25799310735 4.51194637207664e-014
endloop
endfacet
facet normal -0.0 -0.0 -1.0
outer loop
vertex 582.830230859703 2213.25799310735 4.51194637207664e-014
vertex 587.66601729733 2216.84377954497 4.51194637207664e-014
vertex 583.148068104899 2212.84377954497 4.51194637207664e-014
endloop
endfacet
facet normal -0.0 -0.0 -1.0
outer loop
vertex 583.148068104899 2212.84377954497 4.51194637207664e-014
vertex 587.66601729733 2216.84377954497 4.51194637207664e-014
vertex 583.347868949908 2212.36141763518 4.51194637207664e-014
endloop
endfacet
facet normal -0.0 -0.0 -1.0
outer loop
vertex 583.347868949908 2212.36141763518 4.51194637207664e-014
vertex 587.66601729733 2216.84377954497 4.51194637207664e-014
vertex 583.41601729733 2211.84377954497 4.51194637207664e-014
endloop
endfacet
facet normal -0.0 -0.0 -1.0
outer loop
vertex 583.41601729733 2211.84377954497 4.51194637207664e-014
vertex 587.66601729733 2216.84377954497 4.51194637207664e-014
vertex 583.41601729733 2181.84377954497 4.51194637207664e-014
endloop
endfacet
facet normal -0.0 -0.0 -1.0
outer loop
vertex 575.16601729733 2176.84377954497 4.51194637207664e-014
vertex 580.41601729733 2180.11172873741 4.51194637207664e-014
vertex 587.66601729733 2176.84377954497 4.51194637207664e-014
endloop
endfacet
facet normal -0.0 -0.0 -1.0
outer loop
vertex 580.41601729733 2180.11172873741 4.51194637207664e-014
vertex 575.16601729733 2176.84377954497 4.51194637207664e-014
vertex 580.001803734957 2180.4295659826 4.51194637207664e-014
endloop
endfacet
facet normal -0.0 -0.0 -1.0
outer loop
vertex 580.001803734957 2180.4295659826 4.51194637207664e-014
vertex 575.16601729733 2176.84377954497 4.51194637207664e-014
vertex 579.683966489761 2180.84377954497 4.51194637207664e-014
endloop
endfacet
facet normal -0.0 -0.0 -1.0
outer loop
vertex 579.683966489761 2180.84377954497 4.51194637207664e-014
vertex 575.16601729733 2176.84377954497 4.51194637207664e-014
vertex 579.484165644752 2181.32614145477 4.51194637207664e-014
endloop
endfacet
facet normal -0.0 -0.0 -1.0
outer loop
vertex 579.484165644752 2181.32614145477 4.51194637207664e-014
vertex 575.16601729733 2176.84377954497 4.51194637207664e-014
vertex 579.41601729733 2181.84377954497 4.51194637207664e-014
endloop
endfacet
facet normal -0.0 -0.0 -1.0
outer loop
vertex 579.41601729733 2181.84377954497 4.51194637207664e-014
vertex 575.16601729733 2176.84377954497 4.51194637207664e-014
vertex 579.41601729733 2211.84377954497 4.51194637207664e-014
endloop
endfacet
facet normal -0.0 -0.0 -1.0
outer loop
vertex 587.66601729733 2176.84377954497 4.51194637207664e-014
vertex 580.41601729733 2180.11172873741 4.51194637207664e-014
vertex 580.898379207125 2179.9119278924 4.51194637207664e-014
endloop
endfacet
facet normal -0.0 -0.0 -1.0
outer loop
vertex 587.66601729733 2176.84377954497 4.51194637207664e-014
vertex 580.898379207125 2179.9119278924 4.51194637207664e-014
vertex 581.41601729733 2179.84377954497 4.51194637207664e-014
endloop
endfacet
facet normal -0.0 -0.0 -1.0
outer loop
vertex 587.66601729733 2176.84377954497 4.51194637207664e-014
vertex 581.41601729733 2179.84377954497 4.51194637207664e-014
vertex 581.933655387535 2179.9119278924 4.51194637207664e-014
endloop
endfacet
facet normal -0.0 -0.0 -1.0
outer loop
vertex 587.66601729733 2176.84377954497 4.51194637207664e-014
vertex 581.933655387535 2179.9119278924 4.51194637207664e-014
vertex 582.41601729733 2180.11172873741 4.51194637207664e-014
endloop
endfacet
facet normal -0.0 -0.0 -1.0
outer loop
vertex 587.66601729733 2176.84377954497 4.51194637207664e-014
vertex 582.41601729733 2180.11172873741 4.51194637207664e-014
vertex 582.830230859703 2180.4295659826 4.51194637207664e-014
endloop
endfacet
facet normal -0.0 -0.0 -1.0
outer loop
vertex 587.66601729733 2176.84377954497 4.51194637207664e-014
vertex 582.830230859703 2180.4295659826 4.51194637207664e-014
vertex 583.148068104899 2180.84377954497 4.51194637207664e-014
endloop
endfacet
facet normal -0.0 -0.0 -1.0
outer loop
vertex 587.66601729733 2176.84377954497 4.51194637207664e-014
vertex 583.148068104899 2180.84377954497 4.51194637207664e-014
vertex 583.347868949908 2181.32614145477 4.51194637207664e-014
endloop
endfacet
facet normal -0.0 -0.0 -1.0
outer loop
vertex 587.66601729733 2176.84377954497 4.51194637207664e-014
vertex 583.347868949908 2181.32614145477 4.51194637207664e-014
vertex 583.41601729733 2181.84377954497 4.51194637207664e-014
endloop
endfacet
facet normal -0.0 -0.0 -1.0
outer loop
vertex 587.66601729733 2176.84377954497 4.51194637207664e-014
vertex 583.41601729733 2181.84377954497 4.51194637207664e-014
vertex 587.66601729733 2216.84377954497 4.51194637207664e-014
endloop
endfacet
facet normal -0.0 -0.0 -1.0
outer loop
vertex 579.484165644752 2211.32614145477 4.51194637207664e-014
vertex 579.41601729733 2181.84377954497 4.51194637207664e-014
vertex 579.41601729733 2211.84377954497 4.51194637207664e-014
endloop
endfacet
facet normal -0.0 -0.0 -1.0
outer loop
vertex 579.41601729733 2181.84377954497 4.51194637207664e-014
vertex 579.484165644752 2211.32614145477 4.51194637207664e-014
vertex 579.484165644752 2182.36141763518 4.51194637207664e-014
endloop
endfacet
facet normal -0.0 -0.0 -1.0
outer loop
vertex 579.484165644752 2182.36141763518 4.51194637207664e-014
vertex 579.484165644752 2211.32614145477 4.51194637207664e-014
vertex 579.683966489761 2210.84377954497 4.51194637207664e-014
endloop
endfacet
facet normal -0.0 -0.0 -1.0
outer loop
vertex 579.484165644752 2182.36141763518 4.51194637207664e-014
vertex 579.683966489761 2210.84377954497 4.51194637207664e-014
vertex 579.683966489761 2182.84377954497 4.51194637207664e-014
endloop
endfacet
facet normal -0.0 -0.0 -1.0
outer loop
vertex 579.683966489761 2182.84377954497 4.51194637207664e-014
vertex 579.683966489761 2210.84377954497 4.51194637207664e-014
vertex 580.001803734957 2210.4295659826 4.51194637207664e-014
endloop
endfacet
facet normal -0.0 -0.0 -1.0
outer loop
vertex 579.683966489761 2182.84377954497 4.51194637207664e-014
vertex 580.001803734957 2210.4295659826 4.51194637207664e-014
vertex 580.001803734957 2183.25799310735 4.51194637207664e-014
endloop
endfacet
facet normal -0.0 -0.0 -1.0
outer loop
vertex 580.001803734957 2183.25799310735 4.51194637207664e-014
vertex 580.001803734957 2210.4295659826 4.51194637207664e-014
vertex 580.41601729733 2210.11172873741 4.51194637207664e-014
endloop
endfacet
facet normal -0.0 -0.0 -1.0
outer loop
vertex 580.001803734957 2183.25799310735 4.51194637207664e-014
vertex 580.41601729733 2210.11172873741 4.51194637207664e-014
vertex 580.41601729733 2183.57583035254 4.51194637207664e-014
endloop
endfacet
facet normal -0.0 -0.0 -1.0
outer loop
vertex 580.41601729733 2183.57583035254 4.51194637207664e-014
vertex 580.41601729733 2210.11172873741 4.51194637207664e-014
vertex 580.898379207125 2183.77563119755 4.51194637207664e-014
endloop
endfacet
facet normal -0.0 -0.0 -1.0
outer loop
vertex 580.898379207125 2183.77563119755 4.51194637207664e-014
vertex 580.41601729733 2210.11172873741 4.51194637207664e-014
vertex 580.898379207125 2209.9119278924 4.51194637207664e-014
endloop
endfacet
facet normal -0.0 -0.0 -1.0
outer loop
vertex 580.898379207125 2183.77563119755 4.51194637207664e-014
vertex 580.898379207125 2209.9119278924 4.51194637207664e-014
vertex 581.41601729733 2209.84377954497 4.51194637207664e-014
endloop
endfacet
facet normal -0.0 -0.0 -1.0
outer loop
vertex 580.898379207125 2183.77563119755 4.51194637207664e-014
vertex 581.41601729733 2209.84377954497 4.51194637207664e-014
vertex 581.41601729733 2183.84377954497 4.51194637207664e-014
endloop
endfacet
facet normal -0.0 -0.0 -1.0
outer loop
vertex 581.41601729733 2183.84377954497 4.51194637207664e-014
vertex 581.41601729733 2209.84377954497 4.51194637207664e-014
vertex 581.933655387535 2209.9119278924 4.51194637207664e-014
endloop
endfacet
facet normal -0.0 -0.0 -1.0
outer loop
vertex 581.41601729733 2183.84377954497 4.51194637207664e-014
vertex 581.933655387535 2209.9119278924 4.51194637207664e-014
vertex 581.933655387535 2183.77563119755 4.51194637207664e-014
endloop
endfacet
facet normal -0.0 -0.0 -1.0
outer loop
vertex 581.933655387535 2183.77563119755 4.51194637207664e-014
vertex 581.933655387535 2209.9119278924 4.51194637207664e-014
vertex 582.41601729733 2210.11172873741 4.51194637207664e-014
endloop
endfacet
facet normal -0.0 -0.0 -1.0
outer loop
vertex 581.933655387535 2183.77563119755 4.51194637207664e-014
vertex 582.41601729733 2210.11172873741 4.51194637207664e-014
vertex 582.41601729733 2183.57583035254 4.51194637207664e-014
endloop
endfacet
facet normal -0.0 -0.0 -1.0
outer loop
vertex 582.41601729733 2183.57583035254 4.51194637207664e-014
vertex 582.41601729733 2210.11172873741 4.51194637207664e-014
vertex 582.830230859703 2183.25799310735 4.51194637207664e-014
endloop
endfacet
facet normal -0.0 -0.0 -1.0
outer loop
vertex 582.830230859703 2183.25799310735 4.51194637207664e-014
vertex 582.41601729733 2210.11172873741 4.51194637207664e-014
vertex 582.830230859703 2210.4295659826 4.51194637207664e-014
endloop
endfacet
facet normal -0.0 -0.0 -1.0
outer loop
vertex 582.830230859703 2183.25799310735 4.51194637207664e-014
vertex 582.830230859703 2210.4295659826 4.51194637207664e-014
vertex 583.148068104899 2210.84377954497 4.51194637207664e-014
endloop
endfacet
facet normal -0.0 -0.0 -1.0
outer loop
vertex 582.830230859703 2183.25799310735 4.51194637207664e-014
vertex 583.148068104899 2210.84377954497 4.51194637207664e-014
vertex 583.148068104899 2182.84377954497 4.51194637207664e-014
endloop
endfacet
facet normal -0.0 -0.0 -1.0
outer loop
vertex 583.148068104899 2182.84377954497 4.51194637207664e-014
vertex 583.148068104899 2210.84377954497 4.51194637207664e-014
vertex 583.347868949908 2211.32614145477 4.51194637207664e-014
endloop
endfacet
facet normal -0.0 -0.0 -1.0
outer loop
vertex 583.148068104899 2182.84377954497 4.51194637207664e-014
vertex 583.347868949908 2211.32614145477 4.51194637207664e-014
vertex 583.347868949908 2182.36141763518 4.51194637207664e-014
endloop
endfacet
facet normal -0.0 -0.0 -1.0
outer loop
vertex 583.347868949908 2182.36141763518 4.51194637207664e-014
vertex 583.347868949908 2211.32614145477 4.51194637207664e-014
vertex 583.41601729733 2211.84377954497 4.51194637207664e-014
endloop
endfacet
facet normal -0.0 -0.0 -1.0
outer loop
vertex 583.347868949908 2182.36141763518 4.51194637207664e-014
vertex 583.41601729733 2211.84377954497 4.51194637207664e-014
vertex 583.41601729733 2181.84377954497 4.51194637207664e-014
endloop
endfacet
facet normal 0.0 1.0 0.0
outer loop
vertex 575.16601729733 2216.84377954497 5.00000000000004
vertex 587.66601729733 2216.84377954497 4.51194637207664e-014
vertex 575.16601729733 2216.84377954497 4.51194637207664e-014
endloop
endfacet
facet normal 0.0 1.0 0.0
outer loop
vertex 587.66601729733 2216.84377954497 4.51194637207664e-014
vertex 575.16601729733 2216.84377954497 5.00000000000004
vertex 587.66601729733 2216.84377954497 5.00000000000004
endloop
endfacet
facet normal 0.500000000000056 -0.866025403784406 0.0
outer loop
vertex 580.41601729733 2183.57583035254 5.00000000000004
vertex 580.001803734957 2183.25799310735 4.51194637207664e-014
vertex 580.41601729733 2183.57583035254 4.51194637207664e-014
endloop
endfacet
facet normal 0.707106781186451 -0.707106781186645 0.0
outer loop
vertex 580.001803734957 2183.25799310735 4.51194637207664e-014
vertex 580.41601729733 2183.57583035254 5.00000000000004
vertex 580.001803734957 2183.25799310735 5.00000000000004
endloop
endfacet
facet normal 0.258819045102504 -0.965925826289073 0.0
outer loop
vertex 580.898379207125 2183.77563119755 5.00000000000004
vertex 580.41601729733 2183.57583035254 4.51194637207664e-014
vertex 580.898379207125 2183.77563119755 4.51194637207664e-014
endloop
endfacet
facet normal 0.500000000000056 -0.866025403784406 0.0
outer loop
vertex 580.41601729733 2183.57583035254 4.51194637207664e-014
vertex 580.898379207125 2183.77563119755 5.00000000000004
vertex 580.41601729733 2183.57583035254 5.00000000000004
endloop
endfacet
facet normal 0.0 -1.0 0.0
outer loop
vertex 581.41601729733 2183.84377954497 5.00000000000004
vertex 580.898379207125 2183.77563119755 4.51194637207664e-014
vertex 581.41601729733 2183.84377954497 4.51194637207664e-014
endloop
endfacet
facet normal 0.258819045102504 -0.965925826289073 0.0
outer loop
vertex 580.898379207125 2183.77563119755 4.51194637207664e-014
vertex 581.41601729733 2183.84377954497 5.00000000000004
vertex 580.898379207125 2183.77563119755 5.00000000000004
endloop
endfacet
facet normal -0.258819045102536 -0.965925826289064 0.0
outer loop
vertex 581.933655387535 2183.77563119755 5.00000000000004
vertex 581.41601729733 2183.84377954497 4.51194637207664e-014
vertex 581.933655387535 2183.77563119755 4.51194637207664e-014
endloop
endfacet
facet normal 0.0 -1.0 0.0
outer loop
vertex 581.41601729733 2183.84377954497 4.51194637207664e-014
vertex 581.933655387535 2183.77563119755 5.00000000000004
vertex 581.41601729733 2183.84377954497 5.00000000000004
endloop
endfacet
facet normal -0.500000000000039 -0.866025403784416 0.0
outer loop
vertex 582.41601729733 2183.57583035254 5.00000000000004
vertex 581.933655387535 2183.77563119755 4.51194637207664e-014
vertex 582.41601729733 2183.57583035254 4.51194637207664e-014
endloop
endfacet
facet normal -0.258819045102536 -0.965925826289064 0.0
outer loop
vertex 581.933655387535 2183.77563119755 4.51194637207664e-014
vertex 582.41601729733 2183.57583035254 5.00000000000004
vertex 581.933655387535 2183.77563119755 5.00000000000004
endloop
endfacet
facet normal -0.707106781186413 -0.707106781186682 0.0
outer loop
vertex 582.830230859703 2183.25799310735 5.00000000000004
vertex 582.41601729733 2183.57583035254 4.51194637207664e-014
vertex 582.830230859703 2183.25799310735 4.51194637207664e-014
endloop
endfacet
facet normal -0.500000000000039 -0.866025403784416 0.0
outer loop
vertex 582.41601729733 2183.57583035254 4.51194637207664e-014
vertex 582.830230859703 2183.25799310735 5.00000000000004
vertex 582.41601729733 2183.57583035254 5.00000000000004
endloop
endfacet
facet normal -1.0 0.0 0.0
outer loop
vertex 583.41601729733 2181.84377954497 5.00000000000004
vertex 583.347868949908 2181.32614145477 4.51194637207664e-014
vertex 583.347868949908 2181.32614145477 5.00000000000004
endloop
endfacet
facet normal -0.965925826289078 0.258819045102483 0.0
outer loop
vertex 583.347868949908 2181.32614145477 4.51194637207664e-014
vertex 583.41601729733 2181.84377954497 5.00000000000004
vertex 583.41601729733 2181.84377954497 4.51194637207664e-014
endloop
endfacet
facet normal -0.707106781186413 -0.707106781186682 0.0
outer loop
vertex 582.830230859703 2183.25799310735 5.00000000000004
vertex 583.148068104899 2182.84377954497 4.51194637207664e-014
vertex 583.148068104899 2182.84377954497 5.00000000000004
endloop
endfacet
facet normal -0.866025403784434 -0.500000000000008 0.0
outer loop
vertex 583.148068104899 2182.84377954497 4.51194637207664e-014
vertex 582.830230859703 2183.25799310735 5.00000000000004
vertex 582.830230859703 2183.25799310735 4.51194637207664e-014
endloop
endfacet
facet normal -0.866025403784434 -0.500000000000008 0.0
outer loop
vertex 583.148068104899 2182.84377954497 5.00000000000004
vertex 583.347868949908 2182.36141763518 4.51194637207664e-014
vertex 583.347868949908 2182.36141763518 5.00000000000004
endloop
endfacet
facet normal -0.965925826289078 -0.258819045102483 0.0
outer loop
vertex 583.347868949908 2182.36141763518 4.51194637207664e-014
vertex 583.148068104899 2182.84377954497 5.00000000000004
vertex 583.148068104899 2182.84377954497 4.51194637207664e-014
endloop
endfacet
facet normal -0.965925826289078 -0.258819045102483 0.0
outer loop
vertex 583.347868949908 2182.36141763518 5.00000000000004
vertex 583.41601729733 2181.84377954497 4.51194637207664e-014
vertex 583.41601729733 2181.84377954497 5.00000000000004
endloop
endfacet
facet normal -1.0 0.0 0.0
outer loop
vertex 583.41601729733 2181.84377954497 4.51194637207664e-014
vertex 583.347868949908 2182.36141763518 5.00000000000004
vertex 583.347868949908 2182.36141763518 4.51194637207664e-014
endloop
endfacet
facet normal -0.500000000000056 0.866025403784406 0.0
outer loop
vertex 582.41601729733 2180.11172873741 5.00000000000004
vertex 582.830230859703 2180.4295659826 4.51194637207664e-014
vertex 582.41601729733 2180.11172873741 4.51194637207664e-014
endloop
endfacet
facet normal -0.707106781186451 0.707106781186645 0.0
outer loop
vertex 582.830230859703 2180.4295659826 4.51194637207664e-014
vertex 582.41601729733 2180.11172873741 5.00000000000004
vertex 582.830230859703 2180.4295659826 5.00000000000004
endloop
endfacet
facet normal -0.258819045102504 0.965925826289073 0.0
outer loop
vertex 581.933655387535 2179.9119278924 5.00000000000004
vertex 582.41601729733 2180.11172873741 4.51194637207664e-014
vertex 581.933655387535 2179.9119278924 4.51194637207664e-014
endloop
endfacet
facet normal -0.500000000000056 0.866025403784406 0.0
outer loop
vertex 582.41601729733 2180.11172873741 4.51194637207664e-014
vertex 581.933655387535 2179.9119278924 5.00000000000004
vertex 582.41601729733 2180.11172873741 5.00000000000004
endloop
endfacet
facet normal 0.0 1.0 0.0
outer loop
vertex 581.41601729733 2179.84377954497 5.00000000000004
vertex 581.933655387535 2179.9119278924 4.51194637207664e-014
vertex 581.41601729733 2179.84377954497 4.51194637207664e-014
endloop
endfacet
facet normal -0.258819045102504 0.965925826289073 0.0
outer loop
vertex 581.933655387535 2179.9119278924 4.51194637207664e-014
vertex 581.41601729733 2179.84377954497 5.00000000000004
vertex 581.933655387535 2179.9119278924 5.00000000000004
endloop
endfacet
facet normal 0.258819045102536 0.965925826289064 0.0
outer loop
vertex 580.898379207125 2179.9119278924 5.00000000000004
vertex 581.41601729733 2179.84377954497 4.51194637207664e-014
vertex 580.898379207125 2179.9119278924 4.51194637207664e-014
endloop
endfacet
facet normal 0.0 1.0 0.0
outer loop
vertex 581.41601729733 2179.84377954497 4.51194637207664e-014
vertex 580.898379207125 2179.9119278924 5.00000000000004
vertex 581.41601729733 2179.84377954497 5.00000000000004
endloop
endfacet
facet normal 0.500000000000039 0.866025403784416 0.0
outer loop
vertex 580.41601729733 2180.11172873741 5.00000000000004
vertex 580.898379207125 2179.9119278924 4.51194637207664e-014
vertex 580.41601729733 2180.11172873741 4.51194637207664e-014
endloop
endfacet
facet normal 0.258819045102536 0.965925826289064 0.0
outer loop
vertex 580.898379207125 2179.9119278924 4.51194637207664e-014
vertex 580.41601729733 2180.11172873741 5.00000000000004
vertex 580.898379207125 2179.9119278924 5.00000000000004
endloop
endfacet
facet normal 0.707106781186413 0.707106781186682 0.0
outer loop
vertex 580.001803734957 2180.4295659826 5.00000000000004
vertex 580.41601729733 2180.11172873741 4.51194637207664e-014
vertex 580.001803734957 2180.4295659826 4.51194637207664e-014
endloop
endfacet
facet normal 0.500000000000039 0.866025403784416 0.0
outer loop
vertex 580.41601729733 2180.11172873741 4.51194637207664e-014
vertex 580.001803734957 2180.4295659826 5.00000000000004
vertex 580.41601729733 2180.11172873741 5.00000000000004
endloop
endfacet
facet normal 0.866025403784434 0.500000000000008 0.0
outer loop
vertex 579.683966489761 2180.84377954497 4.51194637207664e-014
vertex 580.001803734957 2180.4295659826 5.00000000000004
vertex 580.001803734957 2180.4295659826 4.51194637207664e-014
endloop
endfacet
facet normal 0.707106781186413 0.707106781186682 0.0
outer loop
vertex 580.001803734957 2180.4295659826 5.00000000000004
vertex 579.683966489761 2180.84377954497 4.51194637207664e-014
vertex 579.683966489761 2180.84377954497 5.00000000000004
endloop
endfacet
facet normal 0.965925826289078 0.258819045102483 0.0
outer loop
vertex 579.484165644752 2181.32614145477 4.51194637207664e-014
vertex 579.683966489761 2180.84377954497 5.00000000000004
vertex 579.683966489761 2180.84377954497 4.51194637207664e-014
endloop
endfacet
facet normal 0.866025403784434 0.500000000000008 0.0
outer loop
vertex 579.683966489761 2180.84377954497 5.00000000000004
vertex 579.484165644752 2181.32614145477 4.51194637207664e-014
vertex 579.484165644752 2181.32614145477 5.00000000000004
endloop
endfacet
facet normal 1.0 0.0 0.0
outer loop
vertex 579.41601729733 2181.84377954497 4.51194637207664e-014
vertex 579.484165644752 2181.32614145477 5.00000000000004
vertex 579.484165644752 2181.32614145477 4.51194637207664e-014
endloop
endfacet
facet normal 0.965925826289078 0.258819045102483 0.0
outer loop
vertex 579.484165644752 2181.32614145477 5.00000000000004
vertex 579.41601729733 2181.84377954497 4.51194637207664e-014
vertex 579.41601729733 2181.84377954497 5.00000000000004
endloop
endfacet
facet normal -0.965925826289078 0.258819045102483 0.0
outer loop
vertex 583.347868949908 2181.32614145477 5.00000000000004
vertex 583.148068104899 2180.84377954497 4.51194637207664e-014
vertex 583.148068104899 2180.84377954497 5.00000000000004
endloop
endfacet
facet normal -0.866025403784434 0.500000000000008 0.0
outer loop
vertex 583.148068104899 2180.84377954497 4.51194637207664e-014
vertex 583.347868949908 2181.32614145477 5.00000000000004
vertex 583.347868949908 2181.32614145477 4.51194637207664e-014
endloop
endfacet
facet normal -0.866025403784434 0.500000000000008 0.0
outer loop
vertex 583.148068104899 2180.84377954497 5.00000000000004
vertex 582.830230859703 2180.4295659826 4.51194637207664e-014
vertex 582.830230859703 2180.4295659826 5.00000000000004
endloop
endfacet
facet normal -0.707106781186451 0.707106781186645 0.0
outer loop
vertex 582.830230859703 2180.4295659826 4.51194637207664e-014
vertex 583.148068104899 2180.84377954497 5.00000000000004
vertex 583.148068104899 2180.84377954497 4.51194637207664e-014
endloop
endfacet
facet normal -0.970142500145345 0.0 0.242535625036281
outer loop
vertex 575.41601729733 2201.84377954497 6.00000000000004
vertex 575.16601729733 2191.84377954497 5.00000000000004
vertex 575.41601729733 2191.84377954497 6.00000000000004
endloop
endfacet
facet normal -0.970142500145345 0.0 0.242535625036281
outer loop
vertex 575.16601729733 2191.84377954497 5.00000000000004
vertex 575.41601729733 2201.84377954497 6.00000000000004
vertex 575.16601729733 2201.84377954497 5.00000000000004
endloop
endfacet
facet normal 0.970142500145304 0.0 0.242535625036446
outer loop
vertex 577.66601729733 2201.84377954497 5.00000000000004
vertex 577.41601729733 2191.84377954497 6.00000000000004
vertex 577.66601729733 2191.84377954497 5.00000000000004
endloop
endfacet
facet normal 0.970142500145304 0.0 0.242535625036446
outer loop
vertex 577.41601729733 2191.84377954497 6.00000000000004
vertex 577.66601729733 2201.84377954497 5.00000000000004
vertex 577.41601729733 2201.84377954497 6.00000000000004
endloop
endfacet
facet normal 0.0 0.0 1.0
outer loop
vertex 577.41601729733 2191.84377954497 6.00000000000004
vertex 575.41601729733 2201.84377954497 6.00000000000004
vertex 575.41601729733 2191.84377954497 6.00000000000004
endloop
endfacet
facet normal 0.0 0.0 1.0
outer loop
vertex 575.41601729733 2201.84377954497 6.00000000000004
vertex 577.41601729733 2191.84377954497 6.00000000000004
vertex 577.41601729733 2201.84377954497 6.00000000000004
endloop
endfacet
facet normal -0.970142500145324 0.0 0.242535625036364
outer loop
vertex 580.41601729733 2201.84377954497 6.00000000000004
vertex 580.16601729733 2191.84377954497 5.00000000000004
vertex 580.41601729733 2191.84377954497 6.00000000000004
endloop
endfacet
facet normal -0.970142500145324 0.0 0.242535625036364
outer loop
vertex 580.16601729733 2191.84377954497 5.00000000000004
vertex 580.41601729733 2201.84377954497 6.00000000000004
vertex 580.16601729733 2201.84377954497 5.00000000000004
endloop
endfacet
facet normal 0.970142500145283 0.0 0.242535625036528
outer loop
vertex 582.66601729733 2201.84377954497 5.00000000000004
vertex 582.41601729733 2191.84377954497 6.00000000000004
vertex 582.66601729733 2191.84377954497 5.00000000000004
endloop
endfacet
facet normal 0.970142500145283 0.0 0.242535625036528
outer loop
vertex 582.41601729733 2191.84377954497 6.00000000000004
vertex 582.66601729733 2201.84377954497 5.00000000000004
vertex 582.41601729733 2201.84377954497 6.00000000000004
endloop
endfacet
facet normal 0.0 0.0 1.0
outer loop
vertex 582.41601729733 2191.84377954497 6.00000000000004
vertex 580.41601729733 2201.84377954497 6.00000000000004
vertex 580.41601729733 2191.84377954497 6.00000000000004
endloop
endfacet
facet normal 0.0 0.0 1.0
outer loop
vertex 580.41601729733 2201.84377954497 6.00000000000004
vertex 582.41601729733 2191.84377954497 6.00000000000004
vertex 582.41601729733 2201.84377954497 6.00000000000004
endloop
endfacet
facet normal 0.0 1.0 0.0
outer loop
vertex 575.41601729733 2201.84377954497 6.00000000000004
vertex 577.66601729733 2201.84377954497 5.00000000000004
vertex 575.16601729733 2201.84377954497 5.00000000000004
endloop
endfacet
facet normal 0.0 1.0 0.0
outer loop
vertex 577.66601729733 2201.84377954497 5.00000000000004
vertex 575.41601729733 2201.84377954497 6.00000000000004
vertex 577.41601729733 2201.84377954497 6.00000000000004
endloop
endfacet
facet normal 0.0 -1.0 0.0
outer loop
vertex 577.41601729733 2191.84377954497 6.00000000000004
vertex 575.16601729733 2191.84377954497 5.00000000000004
vertex 577.66601729733 2191.84377954497 5.00000000000004
endloop
endfacet
facet normal 0.0 -1.0 0.0
outer loop
vertex 575.16601729733 2191.84377954497 5.00000000000004
vertex 577.41601729733 2191.84377954497 6.00000000000004
vertex 575.41601729733 2191.84377954497 6.00000000000004
endloop
endfacet
facet normal 0.970142500145324 0.0 0.242535625036364
outer loop
vertex 587.66601729733 2201.84377954497 5.00000000000004
vertex 587.41601729733 2191.84377954497 6.00000000000004
vertex 587.66601729733 2191.84377954497 5.00000000000004
endloop
endfacet
facet normal 0.970142500145324 0.0 0.242535625036364
outer loop
vertex 587.41601729733 2191.84377954497 6.00000000000004
vertex 587.66601729733 2201.84377954497 5.00000000000004
vertex 587.41601729733 2201.84377954497 6.00000000000004
endloop
endfacet
facet normal 0.0 0.0 1.0
outer loop
vertex 587.41601729733 2191.84377954497 6.00000000000004
vertex 585.41601729733 2201.84377954497 6.00000000000004
vertex 585.41601729733 2191.84377954497 6.00000000000004
endloop
endfacet
facet normal 0.0 0.0 1.0
outer loop
vertex 585.41601729733 2201.84377954497 6.00000000000004
vertex 587.41601729733 2191.84377954497 6.00000000000004
vertex 587.41601729733 2201.84377954497 6.00000000000004
endloop
endfacet
facet normal -0.970142500145324 0.0 0.242535625036364
outer loop
vertex 585.41601729733 2201.84377954497 6.00000000000004
vertex 585.16601729733 2191.84377954497 5.00000000000004
vertex 585.41601729733 2191.84377954497 6.00000000000004
endloop
endfacet
facet normal -0.970142500145324 0.0 0.242535625036364
outer loop
vertex 585.16601729733 2191.84377954497 5.00000000000004
vertex 585.41601729733 2201.84377954497 6.00000000000004
vertex 585.16601729733 2201.84377954497 5.00000000000004
endloop
endfacet
facet normal 0.0 -1.0 0.0
outer loop
vertex 582.41601729733 2191.84377954497 6.00000000000004
vertex 580.16601729733 2191.84377954497 5.00000000000004
vertex 582.66601729733 2191.84377954497 5.00000000000004
endloop
endfacet
facet normal 0.0 -1.0 0.0
outer loop
vertex 580.16601729733 2191.84377954497 5.00000000000004
vertex 582.41601729733 2191.84377954497 6.00000000000004
vertex 580.41601729733 2191.84377954497 6.00000000000004
endloop
endfacet
facet normal 0.0 1.0 0.0
outer loop
vertex 580.41601729733 2201.84377954497 6.00000000000004
vertex 582.66601729733 2201.84377954497 5.00000000000004
vertex 580.16601729733 2201.84377954497 5.00000000000004
endloop
endfacet
facet normal 0.0 1.0 0.0
outer loop
vertex 582.66601729733 2201.84377954497 5.00000000000004
vertex 580.41601729733 2201.84377954497 6.00000000000004
vertex 582.41601729733 2201.84377954497 6.00000000000004
endloop
endfacet
facet normal 0.0 -1.0 0.0
outer loop
vertex 587.41601729733 2191.84377954497 6.00000000000004
vertex 585.16601729733 2191.84377954497 5.00000000000004
vertex 587.66601729733 2191.84377954497 5.00000000000004
endloop
endfacet
facet normal 0.0 -1.0 0.0
outer loop
vertex 585.16601729733 2191.84377954497 5.00000000000004
vertex 587.41601729733 2191.84377954497 6.00000000000004
vertex 585.41601729733 2191.84377954497 6.00000000000004
endloop
endfacet
facet normal 0.0 1.0 0.0
outer loop
vertex 585.41601729733 2201.84377954497 6.00000000000004
vertex 587.66601729733 2201.84377954497 5.00000000000004
vertex 585.16601729733 2201.84377954497 5.00000000000004
endloop
endfacet
facet normal 0.0 1.0 0.0
outer loop
vertex 587.66601729733 2201.84377954497 5.00000000000004
vertex 585.41601729733 2201.84377954497 6.00000000000004
vertex 587.41601729733 2201.84377954497 6.00000000000004
endloop
endfacet
endsolid Main Design
