solid Main Design
facet normal -0.866025403784444 0.49999999999999 2.38182965742186e-013
outer loop
vertex 185.457175568325 13.8750000000003 115.397548508552
vertex 185.681951518959 14.4176571485196 110.397548755561
vertex 185.457175568324 13.8750000000003 110.397548755561
endloop
endfacet
facet normal -0.965925826289067 0.258819045102526 2.65658578821281e-013
outer loop
vertex 185.681951518959 14.4176571485196 110.397548755561
vertex 185.457175568325 13.8750000000003 115.397548508552
vertex 185.68195151896 14.4176571485196 115.397548508552
endloop
endfacet
facet normal 0.0 -1.0 0.0
outer loop
vertex 183.50861840981 17.2500000000003 115.397548508553
vertex 184.090961261289 17.1733331091507 110.397548755561
vertex 184.090961261291 17.1733331091507 115.397548508552
endloop
endfacet
facet normal -0.258819045102526 -0.965925826289067 7.11830016575635e-014
outer loop
vertex 184.090961261289 17.1733331091507 110.397548755561
vertex 183.50861840981 17.2500000000003 115.397548508553
vertex 183.508618409809 17.2500000000003 110.397548755561
endloop
endfacet
facet normal 0.965925826289067 -0.258819045102526 -2.65658578821281e-013
outer loop
vertex 181.33528530066 15.582342851481 115.397548508553
vertex 181.258618409809 15.0000000000003 110.397548755562
vertex 181.335285300658 15.582342851481 110.397548755562
endloop
endfacet
facet normal 1.0 -3.02977736451995e-016 -2.75029998775267e-013
outer loop
vertex 181.258618409809 15.0000000000003 110.397548755562
vertex 181.33528530066 15.582342851481 115.397548508553
vertex 181.25861840981 15.0000000000003 115.397548508553
endloop
endfacet
facet normal 0.38268343236509 0.923879532511287 -1.05249423934686e-013
outer loop
vertex 191.50861840981 25.0000000000003 115.39754850855
vertex 193.508618409809 23.0000000000003 110.39754850855
vertex 191.508618409809 25.0000000000003 110.39754850855
endloop
endfacet
facet normal 0.923879532511287 0.38268343236509 -2.54094586695073e-013
outer loop
vertex 193.508618409809 23.0000000000003 110.39754850855
vertex 191.50861840981 25.0000000000003 115.39754850855
vertex 193.50861840981 23.0000000000003 115.39754850855
endloop
endfacet
facet normal -0.499999999999995 -0.866025403784442 1.37514999387632e-013
outer loop
vertex 184.63361840981 16.9485571585153 115.397548508552
vertex 185.099608667478 16.59099025767 110.397548755561
vertex 185.09960866748 16.59099025767 115.397548508552
endloop
endfacet
facet normal -0.707106781186547 -0.707106781186548 1.94475577163719e-013
outer loop
vertex 185.099608667478 16.59099025767 110.397548755561
vertex 184.63361840981 16.9485571585153 115.397548508552
vertex 184.633618409809 16.9485571585153 110.397548755561
endloop
endfacet
facet normal 0.866025403784444 0.499999999999991 -2.38182965742186e-013
outer loop
vertex 181.560061251295 13.8750000000003 115.397548508553
vertex 181.917628152139 13.4090097423306 110.397548755562
vertex 181.560061251294 13.8750000000003 110.397548755562
endloop
endfacet
facet normal 0.707106781186549 0.707106781186546 -1.94475577163719e-013
outer loop
vertex 181.917628152139 13.4090097423306 110.397548755562
vertex 181.560061251295 13.8750000000003 115.397548508553
vertex 181.91762815214 13.4090097423306 115.397548508553
endloop
endfacet
facet normal 0.707106781186556 -0.707106781186539 -1.94475577163721e-013
outer loop
vertex 181.91762815214 16.59099025767 115.397548508553
vertex 182.383618409809 16.9485571585153 110.397548755562
vertex 182.38361840981 16.9485571585153 115.397548508553
endloop
endfacet
facet normal 0.499999999999999 -0.866025403784439 -1.37514999387633e-013
outer loop
vertex 182.383618409809 16.9485571585153 110.397548755562
vertex 181.91762815214 16.59099025767 115.397548508553
vertex 181.917628152139 16.59099025767 110.397548755562
endloop
endfacet
facet normal 0.258819045102519 -0.965925826289069 -7.11830016575616e-014
outer loop
vertex 182.926275558329 17.1733331091507 115.397548508553
vertex 183.508618409809 17.2500000000003 110.397548755561
vertex 183.50861840981 17.2500000000003 115.397548508553
endloop
endfacet
facet normal 0.0 -1.0 0.0
outer loop
vertex 183.508618409809 17.2500000000003 110.397548755561
vertex 182.926275558329 17.1733331091507 115.397548508553
vertex 182.926275558328 17.1733331091507 110.397548755562
endloop
endfacet
facet normal 0.707106781186549 0.707106781186546 -1.94475577163719e-013
outer loop
vertex 181.917628152139 13.4090097423306 110.397548755562
vertex 182.38361840981 13.0514428414853 115.397548508553
vertex 182.383618409809 13.0514428414853 110.397548755562
endloop
endfacet
facet normal 0.499999999999995 0.866025403784442 -1.37514999387632e-013
outer loop
vertex 182.38361840981 13.0514428414853 115.397548508553
vertex 181.917628152139 13.4090097423306 110.397548755562
vertex 181.91762815214 13.4090097423306 115.397548508553
endloop
endfacet
facet normal -0.965925826289067 0.258819045102526 2.65658578821281e-013
outer loop
vertex 185.68195151896 14.4176571485196 115.397548508552
vertex 185.758618409809 15.0000000000003 110.397548755561
vertex 185.681951518959 14.4176571485196 110.397548755561
endloop
endfacet
facet normal -1.0 0.0 2.75029998775267e-013
outer loop
vertex 185.758618409809 15.0000000000003 110.397548755561
vertex 185.68195151896 14.4176571485196 115.397548508552
vertex 185.75861840981 15.0000000000003 115.397548508552
endloop
endfacet
facet normal 0.923879532511287 -0.38268343236509 -2.54094586695073e-013
outer loop
vertex 193.50861840981 7.00000000000031 115.39754850855
vertex 191.508618409809 5.00000000000031 110.39754850855
vertex 193.508618409809 7.00000000000031 110.39754850855
endloop
endfacet
facet normal 0.382683432365091 -0.923879532511286 -1.07159942387423e-013
outer loop
vertex 191.508618409809 5.00000000000031 110.39754850855
vertex 193.50861840981 7.00000000000031 115.39754850855
vertex 191.50861840981 5.00000000000031 115.39754850855
endloop
endfacet
facet normal -0.499999999999999 0.866025403784439 1.37514999387633e-013
outer loop
vertex 184.633618409809 13.0514428414853 110.397548755561
vertex 185.09960866748 13.4090097423306 115.397548508552
vertex 185.099608667478 13.4090097423306 110.397548755561
endloop
endfacet
facet normal -0.707106781186556 0.707106781186539 1.94475577163721e-013
outer loop
vertex 185.09960866748 13.4090097423306 115.397548508552
vertex 184.633618409809 13.0514428414853 110.397548755561
vertex 184.63361840981 13.0514428414853 115.397548508552
endloop
endfacet
facet normal -0.866025403784444 -0.49999999999999 2.38182965742186e-013
outer loop
vertex 185.457175568325 16.1250000000003 115.397548508552
vertex 185.099608667478 16.59099025767 110.397548755561
vertex 185.457175568324 16.1250000000003 110.397548755561
endloop
endfacet
facet normal -0.707106781186547 -0.707106781186548 1.94475577163719e-013
outer loop
vertex 185.099608667478 16.59099025767 110.397548755561
vertex 185.457175568325 16.1250000000003 115.397548508552
vertex 185.09960866748 16.59099025767 115.397548508552
endloop
endfacet
facet normal 1.0 -3.02977736451995e-016 -2.75029998775267e-013
outer loop
vertex 181.25861840981 15.0000000000003 115.397548508553
vertex 181.335285300658 14.4176571485196 110.397548755562
vertex 181.258618409809 15.0000000000003 110.397548755562
endloop
endfacet
facet normal 0.965925826289067 0.258819045102527 -2.65658578821281e-013
outer loop
vertex 181.335285300658 14.4176571485196 110.397548755562
vertex 181.25861840981 15.0000000000003 115.397548508553
vertex 181.33528530066 14.4176571485196 115.397548508553
endloop
endfacet
facet normal 0.0 1.0 0.0
outer loop
vertex 183.508618409809 12.7500000000003 110.397548755561
vertex 184.090961261291 12.8266668908499 115.397548508552
vertex 184.090961261289 12.8266668908499 110.397548755561
endloop
endfacet
facet normal -0.258819045102519 0.965925826289069 7.11830016575616e-014
outer loop
vertex 184.090961261291 12.8266668908499 115.397548508552
vertex 183.508618409809 12.7500000000003 110.397548755561
vertex 183.50861840981 12.7500000000003 115.397548508553
endloop
endfacet
facet normal -0.258819045102526 -0.965925826289067 7.11830016575635e-014
outer loop
vertex 184.090961261291 17.1733331091507 115.397548508552
vertex 184.633618409809 16.9485571585153 110.397548755561
vertex 184.63361840981 16.9485571585153 115.397548508552
endloop
endfacet
facet normal -0.499999999999995 -0.866025403784442 1.37514999387632e-013
outer loop
vertex 184.633618409809 16.9485571585153 110.397548755561
vertex 184.090961261291 17.1733331091507 115.397548508552
vertex 184.090961261289 17.1733331091507 110.397548755561
endloop
endfacet
facet normal -0.707106781186556 0.707106781186539 1.94475577163721e-013
outer loop
vertex 185.09960866748 13.4090097423306 115.397548508552
vertex 185.457175568324 13.8750000000003 110.397548755561
vertex 185.099608667478 13.4090097423306 110.397548755561
endloop
endfacet
facet normal -0.866025403784444 0.49999999999999 2.38182965742186e-013
outer loop
vertex 185.457175568324 13.8750000000003 110.397548755561
vertex 185.09960866748 13.4090097423306 115.397548508552
vertex 185.457175568325 13.8750000000003 115.397548508552
endloop
endfacet
facet normal 0.499999999999995 0.866025403784442 -1.37514999387632e-013
outer loop
vertex 182.383618409809 13.0514428414853 110.397548755562
vertex 182.926275558329 12.8266668908499 115.397548508553
vertex 182.926275558328 12.8266668908499 110.397548755562
endloop
endfacet
facet normal 0.258819045102524 0.965925826289067 -7.11830016575629e-014
outer loop
vertex 182.926275558329 12.8266668908499 115.397548508553
vertex 182.383618409809 13.0514428414853 110.397548755562
vertex 182.38361840981 13.0514428414853 115.397548508553
endloop
endfacet
facet normal -1.0 0.0 2.75029998775267e-013
outer loop
vertex 185.75861840981 15.0000000000003 115.397548508552
vertex 185.681951518959 15.582342851481 110.397548755561
vertex 185.758618409809 15.0000000000003 110.397548755561
endloop
endfacet
facet normal -0.965925826289067 -0.258819045102526 2.65658578821281e-013
outer loop
vertex 185.681951518959 15.582342851481 110.397548755561
vertex 185.75861840981 15.0000000000003 115.397548508552
vertex 185.68195151896 15.582342851481 115.397548508552
endloop
endfacet
facet normal 0.866025403784444 -0.49999999999999 -2.38182965742186e-013
outer loop
vertex 181.560061251295 16.1250000000003 115.397548508553
vertex 181.335285300658 15.582342851481 110.397548755562
vertex 181.560061251294 16.1250000000003 110.397548755562
endloop
endfacet
facet normal 0.965925826289067 -0.258819045102526 -2.65658578821281e-013
outer loop
vertex 181.335285300658 15.582342851481 110.397548755562
vertex 181.560061251295 16.1250000000003 115.397548508553
vertex 181.33528530066 15.582342851481 115.397548508553
endloop
endfacet
facet normal -0.965925826289067 -0.258819045102526 2.65658578821281e-013
outer loop
vertex 185.68195151896 15.582342851481 115.397548508552
vertex 185.457175568324 16.1250000000003 110.397548755561
vertex 185.681951518959 15.582342851481 110.397548755561
endloop
endfacet
facet normal -0.866025403784444 -0.49999999999999 2.38182965742186e-013
outer loop
vertex 185.457175568324 16.1250000000003 110.397548755561
vertex 185.68195151896 15.582342851481 115.397548508552
vertex 185.457175568325 16.1250000000003 115.397548508552
endloop
endfacet
facet normal 0.258819045102524 0.965925826289067 -7.11830016575629e-014
outer loop
vertex 182.926275558328 12.8266668908499 110.397548755562
vertex 183.50861840981 12.7500000000003 115.397548508553
vertex 183.508618409809 12.7500000000003 110.397548755561
endloop
endfacet
facet normal 0.0 1.0 0.0
outer loop
vertex 183.50861840981 12.7500000000003 115.397548508553
vertex 182.926275558328 12.8266668908499 110.397548755562
vertex 182.926275558329 12.8266668908499 115.397548508553
endloop
endfacet
facet normal -0.258819045102519 0.965925826289069 7.11830016575616e-014
outer loop
vertex 184.090961261289 12.8266668908499 110.397548755561
vertex 184.63361840981 13.0514428414853 115.397548508552
vertex 184.633618409809 13.0514428414853 110.397548755561
endloop
endfacet
facet normal -0.499999999999999 0.866025403784439 1.37514999387633e-013
outer loop
vertex 184.63361840981 13.0514428414853 115.397548508552
vertex 184.090961261289 12.8266668908499 110.397548755561
vertex 184.090961261291 12.8266668908499 115.397548508552
endloop
endfacet
facet normal -0.923879532511287 0.38268343236509 2.25515504082394e-013
outer loop
vertex 173.50861840981 23.0000000000003 115.397548508555
vertex 175.508618409809 25.0000000000003 110.397548508555
vertex 173.508618409809 23.0000000000003 110.397548508555
endloop
endfacet
facet normal -0.38268343236509 0.923879532511287 1.05249423934686e-013
outer loop
vertex 175.508618409809 25.0000000000003 110.397548508555
vertex 173.50861840981 23.0000000000003 115.397548508555
vertex 175.50861840981 25.0000000000003 115.397548508555
endloop
endfacet
facet normal 2.75029998775267e-013 0.0 1.0
outer loop
vertex 193.50861840981 7.00000000000031 115.39754850855
vertex 188.50861840981 5.00000000000033 115.397548508551
vertex 191.50861840981 5.00000000000031 115.39754850855
endloop
endfacet
facet normal 2.75029998775267e-013 0.0 1.0
outer loop
vertex 188.50861840981 5.00000000000033 115.397548508551
vertex 193.50861840981 7.00000000000031 115.39754850855
vertex 188.50861840981 10.0000000000002 115.397548508551
endloop
endfacet
facet normal 2.75029998775267e-013 0.0 1.0
outer loop
vertex 188.50861840981 10.0000000000002 115.397548508551
vertex 193.50861840981 7.00000000000031 115.39754850855
vertex 193.50861840981 23.0000000000003 115.39754850855
endloop
endfacet
facet normal 2.75029998775267e-013 0.0 1.0
outer loop
vertex 188.50861840981 10.0000000000002 115.397548508551
vertex 193.50861840981 23.0000000000003 115.39754850855
vertex 185.09960866748 13.4090097423306 115.397548508552
endloop
endfacet
facet normal 2.75029998775267e-013 0.0 1.0
outer loop
vertex 188.50861840981 10.0000000000002 115.397548508551
vertex 185.09960866748 13.4090097423306 115.397548508552
vertex 184.63361840981 13.0514428414853 115.397548508552
endloop
endfacet
facet normal 2.75029998775267e-013 0.0 1.0
outer loop
vertex 188.50861840981 10.0000000000002 115.397548508551
vertex 184.63361840981 13.0514428414853 115.397548508552
vertex 184.090961261291 12.8266668908499 115.397548508552
endloop
endfacet
facet normal 2.75029998775267e-013 0.0 1.0
outer loop
vertex 188.50861840981 10.0000000000002 115.397548508551
vertex 184.090961261291 12.8266668908499 115.397548508552
vertex 183.50861840981 12.7500000000003 115.397548508553
endloop
endfacet
facet normal 2.75029998775267e-013 0.0 1.0
outer loop
vertex 185.09960866748 13.4090097423306 115.397548508552
vertex 193.50861840981 23.0000000000003 115.39754850855
vertex 185.457175568325 13.8750000000003 115.397548508552
endloop
endfacet
facet normal 2.75029998775267e-013 0.0 1.0
outer loop
vertex 185.457175568325 13.8750000000003 115.397548508552
vertex 193.50861840981 23.0000000000003 115.39754850855
vertex 185.68195151896 14.4176571485196 115.397548508552
endloop
endfacet
facet normal 2.75029998775267e-013 0.0 1.0
outer loop
vertex 185.68195151896 14.4176571485196 115.397548508552
vertex 193.50861840981 23.0000000000003 115.39754850855
vertex 185.75861840981 15.0000000000003 115.397548508552
endloop
endfacet
facet normal 2.75029998775267e-013 0.0 1.0
outer loop
vertex 185.75861840981 15.0000000000003 115.397548508552
vertex 193.50861840981 23.0000000000003 115.39754850855
vertex 185.68195151896 15.582342851481 115.397548508552
endloop
endfacet
facet normal 2.75029998775267e-013 0.0 1.0
outer loop
vertex 185.68195151896 15.582342851481 115.397548508552
vertex 193.50861840981 23.0000000000003 115.39754850855
vertex 185.457175568325 16.1250000000003 115.397548508552
endloop
endfacet
facet normal 2.75029998775267e-013 0.0 1.0
outer loop
vertex 185.457175568325 16.1250000000003 115.397548508552
vertex 193.50861840981 23.0000000000003 115.39754850855
vertex 185.09960866748 16.59099025767 115.397548508552
endloop
endfacet
facet normal 2.75029998775267e-013 0.0 1.0
outer loop
vertex 185.09960866748 16.59099025767 115.397548508552
vertex 193.50861840981 23.0000000000003 115.39754850855
vertex 184.63361840981 16.9485571585153 115.397548508552
endloop
endfacet
facet normal 2.75029998775267e-013 0.0 1.0
outer loop
vertex 184.63361840981 16.9485571585153 115.397548508552
vertex 193.50861840981 23.0000000000003 115.39754850855
vertex 184.090961261291 17.1733331091507 115.397548508552
endloop
endfacet
facet normal 2.75029998775267e-013 0.0 1.0
outer loop
vertex 184.090961261291 17.1733331091507 115.397548508552
vertex 193.50861840981 23.0000000000003 115.39754850855
vertex 183.50861840981 17.2500000000003 115.397548508553
endloop
endfacet
facet normal 2.75029998775267e-013 0.0 1.0
outer loop
vertex 181.61861840981 8.0000000000002 115.397548508553
vertex 173.50861840981 23.0000000000003 115.397548508555
vertex 173.50861840981 8.00000000000009 115.397548508555
endloop
endfacet
facet normal 2.75029998775267e-013 0.0 1.0
outer loop
vertex 173.50861840981 23.0000000000003 115.397548508555
vertex 181.61861840981 8.0000000000002 115.397548508553
vertex 183.61861840981 10.0000000000002 115.397548508553
endloop
endfacet
facet normal 2.75029998775267e-013 0.0 1.0
outer loop
vertex 173.50861840981 23.0000000000003 115.397548508555
vertex 183.61861840981 10.0000000000002 115.397548508553
vertex 181.91762815214 13.4090097423306 115.397548508553
endloop
endfacet
facet normal 2.75029998775267e-013 0.0 1.0
outer loop
vertex 181.91762815214 13.4090097423306 115.397548508553
vertex 183.61861840981 10.0000000000002 115.397548508553
vertex 182.38361840981 13.0514428414853 115.397548508553
endloop
endfacet
facet normal 2.75029998775267e-013 0.0 1.0
outer loop
vertex 182.38361840981 13.0514428414853 115.397548508553
vertex 183.61861840981 10.0000000000002 115.397548508553
vertex 188.50861840981 10.0000000000002 115.397548508551
endloop
endfacet
facet normal 2.75029998775267e-013 0.0 1.0
outer loop
vertex 182.38361840981 13.0514428414853 115.397548508553
vertex 188.50861840981 10.0000000000002 115.397548508551
vertex 182.926275558329 12.8266668908499 115.397548508553
endloop
endfacet
facet normal 2.75029998775267e-013 0.0 1.0
outer loop
vertex 182.926275558329 12.8266668908499 115.397548508553
vertex 188.50861840981 10.0000000000002 115.397548508551
vertex 183.50861840981 12.7500000000003 115.397548508553
endloop
endfacet
facet normal 2.75029998775267e-013 0.0 1.0
outer loop
vertex 173.50861840981 23.0000000000003 115.397548508555
vertex 181.91762815214 13.4090097423306 115.397548508553
vertex 181.560061251295 13.8750000000003 115.397548508553
endloop
endfacet
facet normal 2.75029998775267e-013 0.0 1.0
outer loop
vertex 173.50861840981 23.0000000000003 115.397548508555
vertex 181.560061251295 13.8750000000003 115.397548508553
vertex 181.33528530066 14.4176571485196 115.397548508553
endloop
endfacet
facet normal 2.75029998775267e-013 0.0 1.0
outer loop
vertex 173.50861840981 23.0000000000003 115.397548508555
vertex 181.33528530066 14.4176571485196 115.397548508553
vertex 181.25861840981 15.0000000000003 115.397548508553
endloop
endfacet
facet normal 2.75029998775267e-013 0.0 1.0
outer loop
vertex 173.50861840981 23.0000000000003 115.397548508555
vertex 181.25861840981 15.0000000000003 115.397548508553
vertex 181.33528530066 15.582342851481 115.397548508553
endloop
endfacet
facet normal 2.75029998775267e-013 0.0 1.0
outer loop
vertex 173.50861840981 23.0000000000003 115.397548508555
vertex 181.33528530066 15.582342851481 115.397548508553
vertex 181.560061251295 16.1250000000003 115.397548508553
endloop
endfacet
facet normal 2.75029998775267e-013 0.0 1.0
outer loop
vertex 173.50861840981 23.0000000000003 115.397548508555
vertex 181.560061251295 16.1250000000003 115.397548508553
vertex 181.91762815214 16.59099025767 115.397548508553
endloop
endfacet
facet normal 2.75029998775267e-013 0.0 1.0
outer loop
vertex 173.50861840981 23.0000000000003 115.397548508555
vertex 181.91762815214 16.59099025767 115.397548508553
vertex 182.38361840981 16.9485571585153 115.397548508553
endloop
endfacet
facet normal 2.75029998775267e-013 0.0 1.0
outer loop
vertex 173.50861840981 23.0000000000003 115.397548508555
vertex 182.38361840981 16.9485571585153 115.397548508553
vertex 182.926275558329 17.1733331091507 115.397548508553
endloop
endfacet
facet normal 2.75029998775267e-013 0.0 1.0
outer loop
vertex 173.50861840981 23.0000000000003 115.397548508555
vertex 182.926275558329 17.1733331091507 115.397548508553
vertex 183.50861840981 17.2500000000003 115.397548508553
endloop
endfacet
facet normal 2.75029998775267e-013 0.0 1.0
outer loop
vertex 173.50861840981 23.0000000000003 115.397548508555
vertex 183.50861840981 17.2500000000003 115.397548508553
vertex 193.50861840981 23.0000000000003 115.39754850855
endloop
endfacet
facet normal 2.75029998775267e-013 0.0 1.0
outer loop
vertex 173.50861840981 23.0000000000003 115.397548508555
vertex 193.50861840981 23.0000000000003 115.39754850855
vertex 191.50861840981 25.0000000000003 115.39754850855
endloop
endfacet
facet normal 2.75029998775267e-013 0.0 1.0
outer loop
vertex 173.50861840981 23.0000000000003 115.397548508555
vertex 191.50861840981 25.0000000000003 115.39754850855
vertex 175.50861840981 25.0000000000003 115.397548508555
endloop
endfacet
facet normal -2.75029998775267e-013 0.0 -1.0
outer loop
vertex 173.508618409809 5.00000000000031 110.397548508555
vertex 181.917628152139 13.4090097423306 110.397548755562
vertex 191.508618409809 5.00000000000031 110.39754850855
endloop
endfacet
facet normal -2.75029998775267e-013 0.0 -1.0
outer loop
vertex 181.917628152139 13.4090097423306 110.397548755562
vertex 173.508618409809 5.00000000000031 110.397548508555
vertex 173.508618409809 23.0000000000003 110.397548508555
endloop
endfacet
facet normal -2.75029998775267e-013 0.0 -1.0
outer loop
vertex 191.508618409809 5.00000000000031 110.39754850855
vertex 181.917628152139 13.4090097423306 110.397548755562
vertex 182.383618409809 13.0514428414853 110.397548755562
endloop
endfacet
facet normal -2.75029998775267e-013 0.0 -1.0
outer loop
vertex 191.508618409809 5.00000000000031 110.39754850855
vertex 182.383618409809 13.0514428414853 110.397548755562
vertex 193.508618409809 7.00000000000031 110.39754850855
endloop
endfacet
facet normal -2.75029998775267e-013 0.0 -1.0
outer loop
vertex 193.508618409809 7.00000000000031 110.39754850855
vertex 182.383618409809 13.0514428414853 110.397548755562
vertex 182.926275558328 12.8266668908499 110.397548755562
endloop
endfacet
facet normal -2.75029998775267e-013 0.0 -1.0
outer loop
vertex 193.508618409809 7.00000000000031 110.39754850855
vertex 182.926275558328 12.8266668908499 110.397548755562
vertex 183.508618409809 12.7500000000003 110.397548755561
endloop
endfacet
facet normal -2.75029998775267e-013 0.0 -1.0
outer loop
vertex 181.917628152139 13.4090097423306 110.397548755562
vertex 173.508618409809 23.0000000000003 110.397548508555
vertex 181.560061251294 13.8750000000003 110.397548755562
endloop
endfacet
facet normal -2.75029998775267e-013 0.0 -1.0
outer loop
vertex 181.560061251294 13.8750000000003 110.397548755562
vertex 173.508618409809 23.0000000000003 110.397548508555
vertex 181.335285300658 14.4176571485196 110.397548755562
endloop
endfacet
facet normal -2.75029998775267e-013 0.0 -1.0
outer loop
vertex 181.335285300658 14.4176571485196 110.397548755562
vertex 173.508618409809 23.0000000000003 110.397548508555
vertex 181.258618409809 15.0000000000003 110.397548755562
endloop
endfacet
facet normal -2.75029998775267e-013 0.0 -1.0
outer loop
vertex 181.258618409809 15.0000000000003 110.397548755562
vertex 173.508618409809 23.0000000000003 110.397548508555
vertex 181.335285300658 15.582342851481 110.397548755562
endloop
endfacet
facet normal -2.75029998775267e-013 0.0 -1.0
outer loop
vertex 181.335285300658 15.582342851481 110.397548755562
vertex 173.508618409809 23.0000000000003 110.397548508555
vertex 181.560061251294 16.1250000000003 110.397548755562
endloop
endfacet
facet normal -2.75029998775267e-013 0.0 -1.0
outer loop
vertex 181.560061251294 16.1250000000003 110.397548755562
vertex 173.508618409809 23.0000000000003 110.397548508555
vertex 181.917628152139 16.59099025767 110.397548755562
endloop
endfacet
facet normal -2.75029998775267e-013 0.0 -1.0
outer loop
vertex 181.917628152139 16.59099025767 110.397548755562
vertex 173.508618409809 23.0000000000003 110.397548508555
vertex 182.383618409809 16.9485571585153 110.397548755562
endloop
endfacet
facet normal -2.75029998775267e-013 0.0 -1.0
outer loop
vertex 182.383618409809 16.9485571585153 110.397548755562
vertex 173.508618409809 23.0000000000003 110.397548508555
vertex 182.926275558328 17.1733331091507 110.397548755562
endloop
endfacet
facet normal -2.75029998775267e-013 0.0 -1.0
outer loop
vertex 182.926275558328 17.1733331091507 110.397548755562
vertex 173.508618409809 23.0000000000003 110.397548508555
vertex 183.508618409809 17.2500000000003 110.397548755561
endloop
endfacet
facet normal -2.75029998775267e-013 0.0 -1.0
outer loop
vertex 193.508618409809 7.00000000000031 110.39754850855
vertex 185.099608667478 13.4090097423306 110.397548755561
vertex 193.508618409809 23.0000000000003 110.39754850855
endloop
endfacet
facet normal -2.75029998775267e-013 0.0 -1.0
outer loop
vertex 185.099608667478 13.4090097423306 110.397548755561
vertex 193.508618409809 7.00000000000031 110.39754850855
vertex 184.633618409809 13.0514428414853 110.397548755561
endloop
endfacet
facet normal -2.75029998775267e-013 0.0 -1.0
outer loop
vertex 184.633618409809 13.0514428414853 110.397548755561
vertex 193.508618409809 7.00000000000031 110.39754850855
vertex 184.090961261289 12.8266668908499 110.397548755561
endloop
endfacet
facet normal -2.75029998775267e-013 0.0 -1.0
outer loop
vertex 184.090961261289 12.8266668908499 110.397548755561
vertex 193.508618409809 7.00000000000031 110.39754850855
vertex 183.508618409809 12.7500000000003 110.397548755561
endloop
endfacet
facet normal -2.75029998775267e-013 0.0 -1.0
outer loop
vertex 193.508618409809 23.0000000000003 110.39754850855
vertex 185.099608667478 13.4090097423306 110.397548755561
vertex 185.457175568324 13.8750000000003 110.397548755561
endloop
endfacet
facet normal -2.75029998775267e-013 0.0 -1.0
outer loop
vertex 193.508618409809 23.0000000000003 110.39754850855
vertex 185.457175568324 13.8750000000003 110.397548755561
vertex 185.681951518959 14.4176571485196 110.397548755561
endloop
endfacet
facet normal -2.75029998775267e-013 0.0 -1.0
outer loop
vertex 193.508618409809 23.0000000000003 110.39754850855
vertex 185.681951518959 14.4176571485196 110.397548755561
vertex 185.758618409809 15.0000000000003 110.397548755561
endloop
endfacet
facet normal -2.75029998775267e-013 0.0 -1.0
outer loop
vertex 193.508618409809 23.0000000000003 110.39754850855
vertex 185.758618409809 15.0000000000003 110.397548755561
vertex 185.681951518959 15.582342851481 110.397548755561
endloop
endfacet
facet normal -2.75029998775267e-013 0.0 -1.0
outer loop
vertex 193.508618409809 23.0000000000003 110.39754850855
vertex 185.681951518959 15.582342851481 110.397548755561
vertex 185.457175568324 16.1250000000003 110.397548755561
endloop
endfacet
facet normal -2.75029998775267e-013 0.0 -1.0
outer loop
vertex 193.508618409809 23.0000000000003 110.39754850855
vertex 185.457175568324 16.1250000000003 110.397548755561
vertex 185.099608667478 16.59099025767 110.397548755561
endloop
endfacet
facet normal -2.75029998775267e-013 0.0 -1.0
outer loop
vertex 193.508618409809 23.0000000000003 110.39754850855
vertex 185.099608667478 16.59099025767 110.397548755561
vertex 184.633618409809 16.9485571585153 110.397548755561
endloop
endfacet
facet normal -2.75029998775267e-013 0.0 -1.0
outer loop
vertex 193.508618409809 23.0000000000003 110.39754850855
vertex 184.633618409809 16.9485571585153 110.397548755561
vertex 184.090961261289 17.1733331091507 110.397548755561
endloop
endfacet
facet normal -2.75029998775267e-013 0.0 -1.0
outer loop
vertex 193.508618409809 23.0000000000003 110.39754850855
vertex 184.090961261289 17.1733331091507 110.397548755561
vertex 183.508618409809 17.2500000000003 110.397548755561
endloop
endfacet
facet normal -2.75029998775267e-013 0.0 -1.0
outer loop
vertex 193.508618409809 23.0000000000003 110.39754850855
vertex 183.508618409809 17.2500000000003 110.397548755561
vertex 173.508618409809 23.0000000000003 110.397548508555
endloop
endfacet
facet normal -2.75029998775267e-013 0.0 -1.0
outer loop
vertex 193.508618409809 23.0000000000003 110.39754850855
vertex 173.508618409809 23.0000000000003 110.397548508555
vertex 175.508618409809 25.0000000000003 110.397548508555
endloop
endfacet
facet normal -2.75029998775267e-013 0.0 -1.0
outer loop
vertex 193.508618409809 23.0000000000003 110.39754850855
vertex 175.508618409809 25.0000000000003 110.397548508555
vertex 191.508618409809 25.0000000000003 110.39754850855
endloop
endfacet
facet normal -0.38268343236509 0.923879532511287 1.05249423934686e-013
outer loop
vertex 175.508618409809 25.0000000000003 110.397548508555
vertex 191.50861840981 25.0000000000003 115.39754850855
vertex 191.508618409809 25.0000000000003 110.39754850855
endloop
endfacet
facet normal 0.38268343236509 0.923879532511287 -1.05249423934686e-013
outer loop
vertex 191.50861840981 25.0000000000003 115.39754850855
vertex 175.508618409809 25.0000000000003 110.397548508555
vertex 175.50861840981 25.0000000000003 115.397548508555
endloop
endfacet
facet normal 0.923879532511287 0.38268343236509 -2.54094586695073e-013
outer loop
vertex 193.50861840981 23.0000000000003 115.39754850855
vertex 193.508618409809 7.00000000000031 110.39754850855
vertex 193.508618409809 23.0000000000003 110.39754850855
endloop
endfacet
facet normal 0.923879532511287 -0.38268343236509 -2.54094586695073e-013
outer loop
vertex 193.508618409809 7.00000000000031 110.39754850855
vertex 193.50861840981 23.0000000000003 115.39754850855
vertex 193.50861840981 7.00000000000031 115.39754850855
endloop
endfacet
facet normal 0.499999999999999 -0.866025403784439 -1.37514999387633e-013
outer loop
vertex 182.38361840981 16.9485571585153 115.397548508553
vertex 182.926275558328 17.1733331091507 110.397548755562
vertex 182.926275558329 17.1733331091507 115.397548508553
endloop
endfacet
facet normal 0.258819045102519 -0.965925826289069 -7.11830016575616e-014
outer loop
vertex 182.926275558328 17.1733331091507 110.397548755562
vertex 182.38361840981 16.9485571585153 115.397548508553
vertex 182.383618409809 16.9485571585153 110.397548755562
endloop
endfacet
facet normal 0.707106781186556 -0.707106781186539 -1.94475577163721e-013
outer loop
vertex 181.91762815214 16.59099025767 115.397548508553
vertex 181.560061251294 16.1250000000003 110.397548755562
vertex 181.917628152139 16.59099025767 110.397548755562
endloop
endfacet
facet normal 0.866025403784444 -0.49999999999999 -2.38182965742186e-013
outer loop
vertex 181.560061251294 16.1250000000003 110.397548755562
vertex 181.91762815214 16.59099025767 115.397548508553
vertex 181.560061251295 16.1250000000003 115.397548508553
endloop
endfacet
facet normal 0.965925826289067 0.258819045102527 -2.65658578821281e-013
outer loop
vertex 181.33528530066 14.4176571485196 115.397548508553
vertex 181.560061251294 13.8750000000003 110.397548755562
vertex 181.335285300658 14.4176571485196 110.397548755562
endloop
endfacet
facet normal 0.866025403784444 0.499999999999991 -2.38182965742186e-013
outer loop
vertex 181.560061251294 13.8750000000003 110.397548755562
vertex 181.33528530066 14.4176571485196 115.397548508553
vertex 181.560061251295 13.8750000000003 115.397548508553
endloop
endfacet
facet normal 0.866025403784093 -2.61424757596363e-015 -0.500000000000599
outer loop
vertex 177.652592970238 8.00000000000028 125.547548508554
vertex 177.552692547734 5.00000000000033 125.306367553656
vertex 177.552692547734 8.00000000000037 125.306367553656
endloop
endfacet
facet normal 0.965925826288928 -2.81086603401247e-015 -0.258819045103045
outer loop
vertex 177.552692547734 5.00000000000033 125.306367553656
vertex 177.652592970238 8.00000000000028 125.547548508554
vertex 177.652592970238 5.00000000000024 125.547548508554
endloop
endfacet
facet normal -0.707106781186228 2.38959102059034e-015 -0.707106781186867
outer loop
vertex 179.296435833326 5.00000000000032 119.325365967859
vertex 179.471246318184 8.00000000000028 119.097548508553
vertex 179.471246318184 5.00000000000023 119.097548508553
endloop
endfacet
facet normal -0.866025403784687 2.92464013804645e-015 -0.49999999999957
outer loop
vertex 179.471246318184 8.00000000000028 119.097548508553
vertex 179.296435833326 5.00000000000032 119.325365967859
vertex 179.296435833326 8.00000000000031 119.325365967859
endloop
endfacet
facet normal 0.500000000000011 -1.6925647633207e-015 -0.866025403784432
outer loop
vertex 178.018618374023 5.00000000000028 125.913573912338
vertex 178.259799328921 8.00000000000027 126.013474334843
vertex 178.259799328921 5.00000000000023 126.013474334843
endloop
endfacet
facet normal 0.258819045102206 -8.76442749655839e-016 -0.965925826289153
outer loop
vertex 178.259799328921 8.00000000000027 126.013474334843
vertex 178.018618374023 5.00000000000028 125.913573912338
vertex 178.018618374023 8.00000000000032 125.913573912338
endloop
endfacet
facet normal 0.258819045102163 -8.76442749655691e-016 -0.965925826289164
outer loop
vertex 178.259799328921 5.00000000000023 126.013474334843
vertex 178.518618374023 8.00000000000018 126.047548508553
vertex 178.518618374023 5.00000000000015 126.047548508553
endloop
endfacet
facet normal -5.27980764273009e-013 9.22057324830707e-020 -1.0
outer loop
vertex 178.518618374023 8.00000000000018 126.047548508553
vertex 178.259799328921 5.00000000000023 126.013474334843
vertex 178.259799328921 8.00000000000027 126.013474334843
endloop
endfacet
facet normal -1.04146638394259e-013 3.62348158904081e-019 1.0
outer loop
vertex 178.518618374023 8.00000000000018 124.047548508554
vertex 178.25979932892 5.00000000000028 124.081622682264
vertex 178.518618374023 5.00000000000019 124.047548508554
endloop
endfacet
facet normal 0.258819045102621 -8.75662310752172e-016 0.965925826289041
outer loop
vertex 178.25979932892 5.00000000000028 124.081622682264
vertex 178.518618374023 8.00000000000018 124.047548508554
vertex 178.25979932892 8.00000000000027 124.081622682264
endloop
endfacet
facet normal -0.965925826289213 3.2657302362773e-015 -0.25881904510198
outer loop
vertex 179.484544200312 5.00000000000023 125.306367553656
vertex 179.518618374023 8.00000000000022 125.047548508553
vertex 179.518618374023 5.00000000000014 125.047548508553
endloop
endfacet
facet normal -1.0 3.38095902950158e-015 -1.12790414993107e-013
outer loop
vertex 179.518618374023 8.00000000000022 125.047548508553
vertex 179.484544200312 5.00000000000023 125.306367553656
vertex 179.484544200312 8.00000000000028 125.306367553656
endloop
endfacet
facet normal -0.500000000000173 1.69082457715318e-015 -0.866025403784339
outer loop
vertex 179.018618374023 8.00000000000018 125.913573912338
vertex 179.225725155209 5.00000000000028 125.75465528974
vertex 179.018618374023 5.00000000000019 125.913573912338
endloop
endfacet
facet normal -0.707106781186692 2.39158461507032e-015 -0.707106781186403
outer loop
vertex 179.225725155209 5.00000000000028 125.75465528974
vertex 179.018618374023 8.00000000000018 125.913573912338
vertex 179.225725155209 8.00000000000031 125.75465528974
endloop
endfacet
facet normal 0.707106781186317 -2.12960928184454e-015 -0.707106781186779
outer loop
vertex 177.740800914716 8.00000000000019 119.325365967859
vertex 177.565990429858 5.00000000000037 119.097548508554
vertex 177.565990429858 8.00000000000032 119.097548508554
endloop
endfacet
facet normal 0.866025403784259 -2.51983626948748e-015 -0.500000000000312
outer loop
vertex 177.565990429858 5.00000000000037 119.097548508554
vertex 177.740800914716 8.00000000000019 119.325365967859
vertex 177.740800914716 5.00000000000015 119.325365967859
endloop
endfacet
facet normal -0.499999999999616 1.69171862955402e-015 0.866025403784661
outer loop
vertex 179.018618374023 8.00000000000018 124.181523104769
vertex 178.777437419125 5.00000000000032 124.081622682264
vertex 179.018618374023 5.00000000000014 124.181523104769
endloop
endfacet
facet normal -0.258819045102247 8.75812247309433e-016 0.965925826289142
outer loop
vertex 178.777437419125 5.00000000000032 124.081622682264
vertex 179.018618374023 8.00000000000018 124.181523104769
vertex 178.777437419125 8.00000000000036 124.081622682264
endloop
endfacet
facet normal -0.258819045102247 8.75812247309433e-016 0.965925826289142
outer loop
vertex 178.777437419125 5.00000000000032 124.081622682264
vertex 178.518618374023 8.00000000000018 124.047548508554
vertex 178.518618374023 5.00000000000019 124.047548508554
endloop
endfacet
facet normal -1.04146638394259e-013 3.62348158904081e-019 1.0
outer loop
vertex 178.518618374023 8.00000000000018 124.047548508554
vertex 178.777437419125 5.00000000000032 124.081622682264
vertex 178.777437419125 8.00000000000036 124.081622682264
endloop
endfacet
facet normal -0.965925826289232 3.26375612149554e-015 -0.258819045101911
outer loop
vertex 179.581136782939 5.00000000000018 118.832249458166
vertex 179.618618374021 8.00000000000022 118.547548508553
vertex 179.618618374021 5.00000000000018 118.547548508553
endloop
endfacet
facet normal -1.0 3.38071202355352e-015 2.88949152432268e-013
outer loop
vertex 179.618618374021 8.00000000000022 118.547548508553
vertex 179.581136782939 5.00000000000018 118.832249458166
vertex 179.581136782939 8.00000000000022 118.832249458166
endloop
endfacet
facet normal -2.81018264625141e-013 5.04025616500543e-020 -1.0
outer loop
vertex 178.518618374021 8.00000000000018 119.647548508553
vertex 178.803319323634 5.00000000000023 119.610066917471
vertex 178.518618374021 5.00000000000019 119.647548508553
endloop
endfacet
facet normal -0.258819045103128 8.75179381339741e-016 -0.965925826288906
outer loop
vertex 178.803319323634 5.00000000000023 119.610066917471
vertex 178.518618374021 8.00000000000018 119.647548508553
vertex 178.803319323634 8.00000000000027 119.610066917471
endloop
endfacet
facet normal 2.82221264461053e-013 -4.48276003390086e-019 1.0
outer loop
vertex 178.518618374021 8.00000000000018 117.447548508553
vertex 178.233917424408 5.00000000000023 117.485030099636
vertex 178.518618374021 5.00000000000019 117.447548508553
endloop
endfacet
facet normal 0.258819045102521 -8.7495865769663e-016 0.965925826289068
outer loop
vertex 178.233917424408 5.00000000000023 117.485030099636
vertex 178.518618374021 8.00000000000018 117.447548508553
vertex 178.233917424408 8.00000000000027 117.485030099636
endloop
endfacet
facet normal -0.258819045102118 8.74922922275581e-016 0.965925826289176
outer loop
vertex 178.803319323633 5.00000000000023 117.485030099635
vertex 178.518618374021 8.00000000000018 117.447548508553
vertex 178.518618374021 5.00000000000019 117.447548508553
endloop
endfacet
facet normal 2.82221264461053e-013 -4.48276003390086e-019 1.0
outer loop
vertex 178.518618374021 8.00000000000018 117.447548508553
vertex 178.803319323633 5.00000000000023 117.485030099635
vertex 178.803319323633 8.00000000000023 117.485030099635
endloop
endfacet
facet normal 0.707106781186317 -2.12960928184454e-015 -0.707106781186779
outer loop
vertex 177.740800914716 8.00000000000019 119.325365967859
vertex 177.968618374021 5.00000000000028 119.500176452717
vertex 177.740800914716 5.00000000000015 119.325365967859
endloop
endfacet
facet normal 0.499999999999772 -1.61875376216535e-015 -0.86602540378457
outer loop
vertex 177.968618374021 5.00000000000028 119.500176452717
vertex 177.740800914716 8.00000000000019 119.325365967859
vertex 177.968618374021 8.00000000000027 119.500176452717
endloop
endfacet
facet normal -1.0 3.38095902950158e-015 -1.12781503883355e-013
outer loop
vertex 179.518618374023 5.00000000000014 125.047548508553
vertex 179.484544200312 8.00000000000028 124.788729463451
vertex 179.484544200312 5.00000000000023 124.788729463451
endloop
endfacet
facet normal -0.965925826289065 3.26573023627751e-015 0.258819045102532
outer loop
vertex 179.484544200312 8.00000000000028 124.788729463451
vertex 179.518618374023 5.00000000000014 125.047548508553
vertex 179.518618374023 8.00000000000022 125.047548508553
endloop
endfacet
facet normal -0.258819045102876 8.74794769223262e-016 -0.965925826288973
outer loop
vertex 178.777437419126 5.00000000000032 126.013474334842
vertex 179.018618374023 8.00000000000018 125.913573912338
vertex 179.018618374023 5.00000000000019 125.913573912338
endloop
endfacet
facet normal -0.500000000000173 1.69082457715318e-015 -0.866025403784339
outer loop
vertex 179.018618374023 8.00000000000018 125.913573912338
vertex 178.777437419126 5.00000000000032 126.013474334842
vertex 178.777437419125 8.00000000000036 126.013474334842
endloop
endfacet
facet normal 0.500000000000159 -1.69083416415932e-015 0.866025403784347
outer loop
vertex 178.018618374023 5.00000000000028 124.181523104769
vertex 177.811511592836 8.00000000000023 124.340441727367
vertex 177.811511592836 5.00000000000014 124.340441727367
endloop
endfacet
facet normal 0.707106781186614 9.2065283154429e-016 0.707106781186481
outer loop
vertex 177.811511592836 8.00000000000023 124.340441727367
vertex 178.018618374023 5.00000000000028 124.181523104769
vertex 178.018618374023 8.00000000000032 124.181523104769
endloop
endfacet
facet normal -1.0 3.38071202355352e-015 2.9553446264515e-013
outer loop
vertex 179.618618374021 5.00000000000018 118.547548508553
vertex 179.581136782939 8.00000000000018 118.26284755894
vertex 179.581136782939 5.00000000000018 118.26284755894
endloop
endfacet
facet normal -0.965925826288996 3.2655104964101e-015 0.258819045102791
outer loop
vertex 179.581136782939 8.00000000000018 118.26284755894
vertex 179.618618374021 5.00000000000018 118.547548508553
vertex 179.618618374021 8.00000000000022 118.547548508553
endloop
endfacet
facet normal -0.258819045103128 8.75179381339741e-016 -0.965925826288906
outer loop
vertex 178.803319323634 5.00000000000023 119.610066917471
vertex 179.068618374021 8.00000000000018 119.500176452716
vertex 179.068618374021 5.00000000000019 119.500176452716
endloop
endfacet
facet normal -0.500000000000023 1.69118808090215e-015 -0.866025403784426
outer loop
vertex 179.068618374021 8.00000000000018 119.500176452716
vertex 178.803319323634 5.00000000000023 119.610066917471
vertex 178.803319323634 8.00000000000027 119.610066917471
endloop
endfacet
facet normal 1.0 -2.91045301707079e-015 -2.68444688562384e-013
outer loop
vertex 177.418618374021 8.00000000000032 118.547548508554
vertex 177.456099965103 5.00000000000028 118.262847558941
vertex 177.456099965103 8.00000000000032 118.262847558941
endloop
endfacet
facet normal 0.965925826289041 -2.81120947430096e-015 0.258819045102622
outer loop
vertex 177.456099965103 5.00000000000028 118.262847558941
vertex 177.418618374021 8.00000000000032 118.547548508554
vertex 177.418618374021 5.00000000000028 118.547548508554
endloop
endfacet
facet normal 0.866025403784383 -2.51979868683104e-015 0.500000000000096
outer loop
vertex 177.565990429858 8.00000000000032 117.997548508554
vertex 177.740800914716 5.00000000000019 117.769731049249
vertex 177.740800914716 8.00000000000019 117.769731049249
endloop
endfacet
facet normal 0.707106781187161 -2.12878564406243e-015 0.707106781185934
outer loop
vertex 177.740800914716 5.00000000000019 117.769731049249
vertex 177.565990429858 8.00000000000032 117.997548508554
vertex 177.565990429858 5.00000000000033 117.997548508554
endloop
endfacet
facet normal 0.500000000000553 -1.61706240814769e-015 0.86602540378412
outer loop
vertex 177.968618374021 5.00000000000033 117.59492056439
vertex 177.740800914716 8.00000000000019 117.769731049249
vertex 177.740800914716 5.00000000000019 117.769731049249
endloop
endfacet
facet normal 0.707106781187162 -2.12878564406243e-015 0.707106781185933
outer loop
vertex 177.740800914716 8.00000000000019 117.769731049249
vertex 177.968618374021 5.00000000000033 117.59492056439
vertex 177.968618374021 8.00000000000032 117.59492056439
endloop
endfacet
facet normal -1.0 1.15493464141718e-016 2.22222739807659e-013
outer loop
vertex 173.508618409809 5.00000000000031 110.397548508555
vertex 173.50861840981 8.00000000000009 115.397548508555
vertex 173.508618409809 23.0000000000003 110.397548508555
endloop
endfacet
facet normal -1.0 1.15493464141718e-016 2.22222739807659e-013
outer loop
vertex 173.50861840981 8.00000000000009 115.397548508555
vertex 173.508618409809 5.00000000000031 110.397548508555
vertex 173.508618409813 5.0000000000002 128.197548508555
endloop
endfacet
facet normal -1.0 1.15493464141718e-016 2.22222739807659e-013
outer loop
vertex 173.50861840981 8.00000000000009 115.397548508555
vertex 173.508618409813 5.0000000000002 128.197548508555
vertex 173.508618409813 8.0000000000002 128.197548508555
endloop
endfacet
facet normal -0.923879532511287 0.38268343236509 2.25515504082394e-013
outer loop
vertex 173.50861840981 23.0000000000003 115.397548508555
vertex 173.508618409809 23.0000000000003 110.397548508555
vertex 173.50861840981 8.00000000000009 115.397548508555
endloop
endfacet
facet normal 0.258819045102561 -8.74958657696765e-016 0.965925826289058
outer loop
vertex 178.233917424408 8.00000000000027 117.485030099636
vertex 177.968618374021 5.00000000000033 117.59492056439
vertex 178.233917424408 5.00000000000023 117.485030099636
endloop
endfacet
facet normal 0.500000000000553 -1.61706240814769e-015 0.86602540378412
outer loop
vertex 177.968618374021 5.00000000000033 117.59492056439
vertex 178.233917424408 8.00000000000027 117.485030099636
vertex 177.968618374021 8.00000000000032 117.59492056439
endloop
endfacet
facet normal -0.866025403784754 2.92816106234593e-015 -0.499999999999453
outer loop
vertex 179.384643777807 5.00000000000023 125.547548508553
vertex 179.484544200312 8.00000000000028 125.306367553656
vertex 179.484544200312 5.00000000000023 125.306367553656
endloop
endfacet
facet normal -0.965925826289207 3.26573023627728e-015 -0.258819045102003
outer loop
vertex 179.484544200312 8.00000000000028 125.306367553656
vertex 179.384643777807 5.00000000000023 125.547548508553
vertex 179.384643777807 8.00000000000027 125.547548508553
endloop
endfacet
facet normal -0.866025403784271 2.92875758064549e-015 0.500000000000291
outer loop
vertex 179.384643777807 5.00000000000023 124.547548508553
vertex 179.225725155209 8.00000000000031 124.340441727367
vertex 179.225725155209 5.00000000000028 124.340441727367
endloop
endfacet
facet normal -0.707106781186295 2.39208497376624e-015 0.7071067811868
outer loop
vertex 179.225725155209 8.00000000000031 124.340441727367
vertex 179.384643777807 5.00000000000023 124.547548508553
vertex 179.384643777807 8.00000000000027 124.547548508553
endloop
endfacet
facet normal 1.0 -1.04306332873147e-014 -2.11885874054713e-013
outer loop
vertex 177.518618374023 8.00000000000037 125.047548508554
vertex 177.552692547734 5.00000000000033 124.788729463451
vertex 177.552692547734 8.00000000000037 124.788729463451
endloop
endfacet
facet normal 0.965925826289113 -1.85409356077004e-014 0.258819045102356
outer loop
vertex 177.552692547734 5.00000000000033 124.788729463451
vertex 177.518618374023 8.00000000000037 125.047548508554
vertex 177.518618374023 5.00000000000033 125.047548508554
endloop
endfacet
facet normal -0.965925826289071 3.26573023627753e-015 0.258819045102509
outer loop
vertex 179.484544200312 5.00000000000023 124.788729463451
vertex 179.384643777807 8.00000000000027 124.547548508553
vertex 179.384643777807 5.00000000000023 124.547548508553
endloop
endfacet
facet normal -0.866025403784264 2.92875758064546e-015 0.500000000000303
outer loop
vertex 179.384643777807 8.00000000000027 124.547548508553
vertex 179.484544200312 5.00000000000023 124.788729463451
vertex 179.484544200312 8.00000000000028 124.788729463451
endloop
endfacet
facet normal -0.707106781186692 2.39158461507032e-015 -0.707106781186403
outer loop
vertex 179.225725155209 5.00000000000028 125.75465528974
vertex 179.384643777807 8.00000000000027 125.547548508553
vertex 179.384643777807 5.00000000000023 125.547548508553
endloop
endfacet
facet normal -0.866025403784747 2.92816106234591e-015 -0.499999999999465
outer loop
vertex 179.384643777807 8.00000000000027 125.547548508553
vertex 179.225725155209 5.00000000000028 125.75465528974
vertex 179.225725155209 8.00000000000031 125.75465528974
endloop
endfacet
facet normal 1.0 -9.02389274415331e-015 -2.98777084944091e-013
outer loop
vertex 185.618618409813 10.0000000000003 128.197548508552
vertex 185.618618409813 5.00000000000026 126.297548508552
vertex 185.618618409813 10.0000000000004 126.297548508552
endloop
endfacet
facet normal 1.0 -9.02389274415331e-015 -2.98777084944091e-013
outer loop
vertex 185.618618409813 5.00000000000026 126.297548508552
vertex 185.618618409813 10.0000000000003 128.197548508552
vertex 185.618618409813 5.0000000000003 128.197548508552
endloop
endfacet
facet normal -0.499999999999942 1.68905714474844e-015 0.866025403784472
outer loop
vertex 179.068618374021 8.00000000000018 117.59492056439
vertex 178.803319323633 5.00000000000023 117.485030099635
vertex 179.068618374021 5.00000000000019 117.59492056439
endloop
endfacet
facet normal -0.258819045102118 8.74922922275581e-016 0.965925826289176
outer loop
vertex 178.803319323633 5.00000000000023 117.485030099635
vertex 179.068618374021 8.00000000000018 117.59492056439
vertex 178.803319323633 8.00000000000023 117.485030099635
endloop
endfacet
facet normal 0.866025403784278 -2.51983626948753e-015 -0.500000000000278
outer loop
vertex 177.565990429858 8.00000000000032 119.097548508554
vertex 177.456099965103 5.00000000000033 118.832249458167
vertex 177.456099965103 8.00000000000028 118.832249458167
endloop
endfacet
facet normal 0.965925826289022 -2.81127345957672e-015 -0.258819045102692
outer loop
vertex 177.456099965103 5.00000000000033 118.832249458167
vertex 177.565990429858 8.00000000000032 119.097548508554
vertex 177.565990429858 5.00000000000037 119.097548508554
endloop
endfacet
facet normal 0.965925826288935 -2.81086603401249e-015 -0.258819045103017
outer loop
vertex 177.552692547734 8.00000000000037 125.306367553656
vertex 177.518618374023 5.00000000000033 125.047548508554
vertex 177.518618374023 8.00000000000037 125.047548508554
endloop
endfacet
facet normal 1.0 -1.04306332873147e-014 -2.11885874054713e-013
outer loop
vertex 177.518618374023 5.00000000000033 125.047548508554
vertex 177.552692547734 8.00000000000037 125.306367553656
vertex 177.552692547734 5.00000000000033 125.306367553656
endloop
endfacet
facet normal 0.965925826289019 -2.81127345957671e-015 -0.258819045102705
outer loop
vertex 177.456099965103 8.00000000000028 118.832249458167
vertex 177.418618374021 5.00000000000028 118.547548508554
vertex 177.418618374021 8.00000000000032 118.547548508554
endloop
endfacet
facet normal 1.0 -2.91045301707079e-015 -2.68444688562384e-013
outer loop
vertex 177.418618374021 5.00000000000028 118.547548508554
vertex 177.456099965103 8.00000000000028 118.832249458167
vertex 177.456099965103 5.00000000000033 118.832249458167
endloop
endfacet
facet normal -9.57082146385241e-015 1.0 -8.81331811718999e-015
outer loop
vertex 183.61861840981 10.0000000000002 115.397548508553
vertex 185.618618409813 10.0000000000004 126.297548508552
vertex 188.50861840981 10.0000000000002 115.397548508551
endloop
endfacet
facet normal -9.57082146385241e-015 1.0 -8.81331811718999e-015
outer loop
vertex 185.618618409813 10.0000000000004 126.297548508552
vertex 183.61861840981 10.0000000000002 115.397548508553
vertex 185.618618409813 10.0000000000003 128.197548508552
endloop
endfacet
facet normal -9.57082146385241e-015 1.0 -8.81331811718999e-015
outer loop
vertex 185.618618409813 10.0000000000003 128.197548508552
vertex 183.61861840981 10.0000000000002 115.397548508553
vertex 183.618618409813 10.0000000000003 128.197548508552
endloop
endfacet
facet normal -1.02575846159274e-014 1.0 -6.60929644346933e-015
outer loop
vertex 179.471246318184 8.00000000000028 119.097548508553
vertex 179.518618374023 8.00000000000022 125.047548508553
vertex 179.581136782939 8.00000000000022 118.832249458166
endloop
endfacet
facet normal -1.02575846159274e-014 1.0 -6.60929644346933e-015
outer loop
vertex 179.518618374023 8.00000000000022 125.047548508553
vertex 179.471246318184 8.00000000000028 119.097548508553
vertex 179.484544200312 8.00000000000028 124.788729463451
endloop
endfacet
facet normal -1.02575846159274e-014 1.0 -6.60929644346933e-015
outer loop
vertex 179.484544200312 8.00000000000028 124.788729463451
vertex 179.471246318184 8.00000000000028 119.097548508553
vertex 179.384643777807 8.00000000000027 124.547548508553
endloop
endfacet
facet normal -1.02575846159274e-014 1.0 -6.60929644346933e-015
outer loop
vertex 179.384643777807 8.00000000000027 124.547548508553
vertex 179.471246318184 8.00000000000028 119.097548508553
vertex 179.296435833326 8.00000000000031 119.325365967859
endloop
endfacet
facet normal -1.02575846159274e-014 1.0 -6.60929644346933e-015
outer loop
vertex 179.384643777807 8.00000000000027 124.547548508553
vertex 179.296435833326 8.00000000000031 119.325365967859
vertex 179.225725155209 8.00000000000031 124.340441727367
endloop
endfacet
facet normal -1.02575846159274e-014 1.0 -6.60929644346933e-015
outer loop
vertex 179.225725155209 8.00000000000031 124.340441727367
vertex 179.296435833326 8.00000000000031 119.325365967859
vertex 179.068618374021 8.00000000000018 119.500176452716
endloop
endfacet
facet normal -1.02575846159274e-014 1.0 -6.60929644346933e-015
outer loop
vertex 179.225725155209 8.00000000000031 124.340441727367
vertex 179.068618374021 8.00000000000018 119.500176452716
vertex 179.018618374023 8.00000000000018 124.181523104769
endloop
endfacet
facet normal -1.02575846159274e-014 1.0 -6.60929644346933e-015
outer loop
vertex 179.018618374023 8.00000000000018 124.181523104769
vertex 179.068618374021 8.00000000000018 119.500176452716
vertex 178.803319323634 8.00000000000027 119.610066917471
endloop
endfacet
facet normal -1.02575846159274e-014 1.0 -6.60929644346933e-015
outer loop
vertex 179.018618374023 8.00000000000018 124.181523104769
vertex 178.803319323634 8.00000000000027 119.610066917471
vertex 178.777437419125 8.00000000000036 124.081622682264
endloop
endfacet
facet normal -1.02575846159274e-014 1.0 -6.60929644346933e-015
outer loop
vertex 178.777437419125 8.00000000000036 124.081622682264
vertex 178.803319323634 8.00000000000027 119.610066917471
vertex 178.518618374021 8.00000000000018 119.647548508553
endloop
endfacet
facet normal -1.02575846159274e-014 1.0 -6.60929644346933e-015
outer loop
vertex 178.777437419125 8.00000000000036 124.081622682264
vertex 178.518618374021 8.00000000000018 119.647548508553
vertex 178.518618374023 8.00000000000018 124.047548508554
endloop
endfacet
facet normal -1.02575846159274e-014 1.0 -6.60929644346933e-015
outer loop
vertex 178.518618374023 8.00000000000018 124.047548508554
vertex 178.518618374021 8.00000000000018 119.647548508553
vertex 178.25979932892 8.00000000000027 124.081622682264
endloop
endfacet
facet normal -1.02575846159274e-014 1.0 -6.60929644346933e-015
outer loop
vertex 178.25979932892 8.00000000000027 124.081622682264
vertex 178.518618374021 8.00000000000018 119.647548508553
vertex 178.233917424408 8.00000000000023 119.610066917472
endloop
endfacet
facet normal -1.02575846159274e-014 1.0 -6.60929644346933e-015
outer loop
vertex 178.25979932892 8.00000000000027 124.081622682264
vertex 178.233917424408 8.00000000000023 119.610066917472
vertex 178.018618374023 8.00000000000032 124.181523104769
endloop
endfacet
facet normal -1.02575846159274e-014 1.0 -6.60929644346933e-015
outer loop
vertex 178.018618374023 8.00000000000032 124.181523104769
vertex 178.233917424408 8.00000000000023 119.610066917472
vertex 177.968618374021 8.00000000000027 119.500176452717
endloop
endfacet
facet normal -1.02575846159274e-014 1.0 -6.60929644346933e-015
outer loop
vertex 178.018618374023 8.00000000000032 124.181523104769
vertex 177.968618374021 8.00000000000027 119.500176452717
vertex 177.811511592836 8.00000000000023 124.340441727367
endloop
endfacet
facet normal -1.02575846159274e-014 1.0 -6.60929644346933e-015
outer loop
vertex 177.811511592836 8.00000000000023 124.340441727367
vertex 177.968618374021 8.00000000000027 119.500176452717
vertex 177.740800914716 8.00000000000019 119.325365967859
endloop
endfacet
facet normal -1.02575846159274e-014 1.0 -6.60929644346933e-015
outer loop
vertex 177.811511592836 8.00000000000023 124.340441727367
vertex 177.740800914716 8.00000000000019 119.325365967859
vertex 177.652592970238 8.00000000000028 124.547548508554
endloop
endfacet
facet normal -1.02575846159274e-014 1.0 -6.60929644346933e-015
outer loop
vertex 177.652592970238 8.00000000000028 124.547548508554
vertex 177.740800914716 8.00000000000019 119.325365967859
vertex 177.565990429858 8.00000000000032 119.097548508554
endloop
endfacet
facet normal -1.02575846159274e-014 1.0 -6.60929644346933e-015
outer loop
vertex 177.652592970238 8.00000000000028 124.547548508554
vertex 177.565990429858 8.00000000000032 119.097548508554
vertex 177.552692547734 8.00000000000037 124.788729463451
endloop
endfacet
facet normal -1.02575846159274e-014 1.0 -6.60929644346933e-015
outer loop
vertex 177.552692547734 8.00000000000037 124.788729463451
vertex 177.565990429858 8.00000000000032 119.097548508554
vertex 177.456099965103 8.00000000000028 118.832249458167
endloop
endfacet
facet normal -1.02575846159274e-014 1.0 -6.60929644346933e-015
outer loop
vertex 177.552692547734 8.00000000000037 124.788729463451
vertex 177.456099965103 8.00000000000028 118.832249458167
vertex 177.518618374023 8.00000000000037 125.047548508554
endloop
endfacet
facet normal -1.02575846159274e-014 1.0 -6.60929644346933e-015
outer loop
vertex 181.61861840981 8.0000000000002 115.397548508553
vertex 179.581136782939 8.00000000000018 118.26284755894
vertex 181.618618409814 8.00000000000026 128.197548508553
endloop
endfacet
facet normal -1.02575846159274e-014 1.0 -6.60929644346933e-015
outer loop
vertex 179.581136782939 8.00000000000018 118.26284755894
vertex 181.61861840981 8.0000000000002 115.397548508553
vertex 179.471246318184 8.00000000000028 117.997548508553
endloop
endfacet
facet normal -1.02575846159274e-014 1.0 -6.60929644346933e-015
outer loop
vertex 179.471246318184 8.00000000000028 117.997548508553
vertex 181.61861840981 8.0000000000002 115.397548508553
vertex 179.296435833326 8.00000000000036 117.769731049248
endloop
endfacet
facet normal -1.02575846159274e-014 1.0 -6.60929644346933e-015
outer loop
vertex 179.296435833326 8.00000000000036 117.769731049248
vertex 181.61861840981 8.0000000000002 115.397548508553
vertex 179.068618374021 8.00000000000018 117.59492056439
endloop
endfacet
facet normal -1.02575846159274e-014 1.0 -6.60929644346933e-015
outer loop
vertex 179.068618374021 8.00000000000018 117.59492056439
vertex 181.61861840981 8.0000000000002 115.397548508553
vertex 178.803319323633 8.00000000000023 117.485030099635
endloop
endfacet
facet normal -1.02575846159274e-014 1.0 -6.60929644346933e-015
outer loop
vertex 178.803319323633 8.00000000000023 117.485030099635
vertex 181.61861840981 8.0000000000002 115.397548508553
vertex 173.50861840981 8.00000000000009 115.397548508555
endloop
endfacet
facet normal -1.02575846159274e-014 1.0 -6.60929644346933e-015
outer loop
vertex 181.618618409814 8.00000000000026 128.197548508553
vertex 179.581136782939 8.00000000000018 118.26284755894
vertex 179.618618374021 8.00000000000022 118.547548508553
endloop
endfacet
facet normal -1.02575846159274e-014 1.0 -6.60929644346933e-015
outer loop
vertex 178.803319323633 8.00000000000023 117.485030099635
vertex 173.50861840981 8.00000000000009 115.397548508555
vertex 178.518618374021 8.00000000000018 117.447548508553
endloop
endfacet
facet normal -1.02575846159274e-014 1.0 -6.60929644346933e-015
outer loop
vertex 178.518618374021 8.00000000000018 117.447548508553
vertex 173.50861840981 8.00000000000009 115.397548508555
vertex 178.233917424408 8.00000000000027 117.485030099636
endloop
endfacet
facet normal -1.02575846159274e-014 1.0 -6.60929644346933e-015
outer loop
vertex 178.233917424408 8.00000000000027 117.485030099636
vertex 173.50861840981 8.00000000000009 115.397548508555
vertex 177.968618374021 8.00000000000032 117.59492056439
endloop
endfacet
facet normal -1.02575846159274e-014 1.0 -6.60929644346933e-015
outer loop
vertex 177.968618374021 8.00000000000032 117.59492056439
vertex 173.50861840981 8.00000000000009 115.397548508555
vertex 177.740800914716 8.00000000000019 117.769731049249
endloop
endfacet
facet normal -1.02575846159274e-014 1.0 -6.60929644346933e-015
outer loop
vertex 177.740800914716 8.00000000000019 117.769731049249
vertex 173.50861840981 8.00000000000009 115.397548508555
vertex 177.565990429858 8.00000000000032 117.997548508554
endloop
endfacet
facet normal -1.02575846159274e-014 1.0 -6.60929644346933e-015
outer loop
vertex 177.565990429858 8.00000000000032 117.997548508554
vertex 173.50861840981 8.00000000000009 115.397548508555
vertex 177.456099965103 8.00000000000032 118.262847558941
endloop
endfacet
facet normal -1.02575846159274e-014 1.0 -6.60929644346933e-015
outer loop
vertex 177.456099965103 8.00000000000032 118.262847558941
vertex 173.50861840981 8.00000000000009 115.397548508555
vertex 177.418618374021 8.00000000000032 118.547548508554
endloop
endfacet
facet normal -1.02575846159274e-014 1.0 -6.60929644346933e-015
outer loop
vertex 181.618618409814 8.00000000000026 128.197548508553
vertex 179.018618374023 8.00000000000018 125.913573912338
vertex 173.508618409813 8.0000000000002 128.197548508555
endloop
endfacet
facet normal -1.02575846159274e-014 1.0 -6.60929644346933e-015
outer loop
vertex 179.018618374023 8.00000000000018 125.913573912338
vertex 181.618618409814 8.00000000000026 128.197548508553
vertex 179.225725155209 8.00000000000031 125.75465528974
endloop
endfacet
facet normal -1.02575846159274e-014 1.0 -6.60929644346933e-015
outer loop
vertex 179.225725155209 8.00000000000031 125.75465528974
vertex 181.618618409814 8.00000000000026 128.197548508553
vertex 179.384643777807 8.00000000000027 125.547548508553
endloop
endfacet
facet normal -1.02575846159274e-014 1.0 -6.60929644346933e-015
outer loop
vertex 179.384643777807 8.00000000000027 125.547548508553
vertex 181.618618409814 8.00000000000026 128.197548508553
vertex 179.484544200312 8.00000000000028 125.306367553656
endloop
endfacet
facet normal -1.02575846159274e-014 1.0 -6.60929644346933e-015
outer loop
vertex 179.484544200312 8.00000000000028 125.306367553656
vertex 181.618618409814 8.00000000000026 128.197548508553
vertex 179.518618374023 8.00000000000022 125.047548508553
endloop
endfacet
facet normal -1.02575846159274e-014 1.0 -6.60929644346933e-015
outer loop
vertex 179.518618374023 8.00000000000022 125.047548508553
vertex 181.618618409814 8.00000000000026 128.197548508553
vertex 179.618618374021 8.00000000000022 118.547548508553
endloop
endfacet
facet normal -1.02575846159274e-014 1.0 -6.60929644346933e-015
outer loop
vertex 179.518618374023 8.00000000000022 125.047548508553
vertex 179.618618374021 8.00000000000022 118.547548508553
vertex 179.581136782939 8.00000000000022 118.832249458166
endloop
endfacet
facet normal -1.02575846159274e-014 1.0 -6.60929644346933e-015
outer loop
vertex 173.508618409813 8.0000000000002 128.197548508555
vertex 179.018618374023 8.00000000000018 125.913573912338
vertex 178.777437419125 8.00000000000036 126.013474334842
endloop
endfacet
facet normal -1.02575846159274e-014 1.0 -6.60929644346933e-015
outer loop
vertex 173.508618409813 8.0000000000002 128.197548508555
vertex 178.777437419125 8.00000000000036 126.013474334842
vertex 178.518618374023 8.00000000000018 126.047548508553
endloop
endfacet
facet normal -1.02575846159274e-014 1.0 -6.60929644346933e-015
outer loop
vertex 173.508618409813 8.0000000000002 128.197548508555
vertex 178.518618374023 8.00000000000018 126.047548508553
vertex 178.259799328921 8.00000000000027 126.013474334843
endloop
endfacet
facet normal -1.02575846159274e-014 1.0 -6.60929644346933e-015
outer loop
vertex 173.508618409813 8.0000000000002 128.197548508555
vertex 178.259799328921 8.00000000000027 126.013474334843
vertex 178.018618374023 8.00000000000032 125.913573912338
endloop
endfacet
facet normal -1.02575846159274e-014 1.0 -6.60929644346933e-015
outer loop
vertex 173.508618409813 8.0000000000002 128.197548508555
vertex 178.018618374023 8.00000000000032 125.913573912338
vertex 177.811511592836 8.00000000000023 125.75465528974
endloop
endfacet
facet normal -1.02575846159274e-014 1.0 -6.60929644346933e-015
outer loop
vertex 173.508618409813 8.0000000000002 128.197548508555
vertex 177.811511592836 8.00000000000023 125.75465528974
vertex 177.652592970238 8.00000000000028 125.547548508554
endloop
endfacet
facet normal -1.02575846159274e-014 1.0 -6.60929644346933e-015
outer loop
vertex 173.508618409813 8.0000000000002 128.197548508555
vertex 177.652592970238 8.00000000000028 125.547548508554
vertex 177.552692547734 8.00000000000037 125.306367553656
endloop
endfacet
facet normal -1.02575846159274e-014 1.0 -6.60929644346933e-015
outer loop
vertex 173.508618409813 8.0000000000002 128.197548508555
vertex 177.552692547734 8.00000000000037 125.306367553656
vertex 177.518618374023 8.00000000000037 125.047548508554
endloop
endfacet
facet normal -1.02575846159274e-014 1.0 -6.60929644346933e-015
outer loop
vertex 173.508618409813 8.0000000000002 128.197548508555
vertex 177.518618374023 8.00000000000037 125.047548508554
vertex 177.456099965103 8.00000000000028 118.832249458167
endloop
endfacet
facet normal -1.02575846159274e-014 1.0 -6.60929644346933e-015
outer loop
vertex 173.508618409813 8.0000000000002 128.197548508555
vertex 177.456099965103 8.00000000000028 118.832249458167
vertex 177.418618374021 8.00000000000032 118.547548508554
endloop
endfacet
facet normal -1.02575846159274e-014 1.0 -6.60929644346933e-015
outer loop
vertex 173.508618409813 8.0000000000002 128.197548508555
vertex 177.418618374021 8.00000000000032 118.547548508554
vertex 173.50861840981 8.00000000000009 115.397548508555
endloop
endfacet
facet normal 0.707106781186325 -2.29740376291334e-015 -0.70710678118677
outer loop
vertex 177.811511592836 8.00000000000023 125.75465528974
vertex 178.018618374023 5.00000000000028 125.913573912338
vertex 177.811511592837 5.00000000000014 125.75465528974
endloop
endfacet
facet normal 0.500000000000011 -1.6925647633207e-015 -0.866025403784432
outer loop
vertex 178.018618374023 5.00000000000028 125.913573912338
vertex 177.811511592836 8.00000000000023 125.75465528974
vertex 178.018618374023 8.00000000000032 125.913573912338
endloop
endfacet
facet normal 0.96592582628912 -1.85409356077003e-014 0.258819045102329
outer loop
vertex 177.552692547734 8.00000000000037 124.788729463451
vertex 177.652592970238 5.00000000000024 124.547548508554
vertex 177.652592970238 8.00000000000028 124.547548508554
endloop
endfacet
facet normal 0.866025403784613 -7.6075161978968e-015 0.499999999999699
outer loop
vertex 177.652592970238 5.00000000000024 124.547548508554
vertex 177.552692547734 8.00000000000037 124.788729463451
vertex 177.552692547734 5.00000000000033 124.788729463451
endloop
endfacet
facet normal -0.707106781186276 2.39208497376617e-015 0.70710678118682
outer loop
vertex 179.225725155209 5.00000000000028 124.340441727367
vertex 179.018618374023 8.00000000000018 124.181523104769
vertex 179.018618374023 5.00000000000014 124.181523104769
endloop
endfacet
facet normal -0.499999999999616 1.69171862955402e-015 0.866025403784661
outer loop
vertex 179.018618374023 8.00000000000018 124.181523104769
vertex 179.225725155209 5.00000000000028 124.340441727367
vertex 179.225725155209 8.00000000000031 124.340441727367
endloop
endfacet
facet normal -0.866025403784704 2.92464013804651e-015 -0.49999999999954
outer loop
vertex 179.471246318184 5.00000000000023 119.097548508553
vertex 179.581136782939 8.00000000000022 118.832249458166
vertex 179.581136782939 5.00000000000018 118.832249458166
endloop
endfacet
facet normal -0.965925826289228 3.26375612149552e-015 -0.258819045101925
outer loop
vertex 179.581136782939 8.00000000000022 118.832249458166
vertex 179.471246318184 5.00000000000023 119.097548508553
vertex 179.471246318184 8.00000000000028 119.097548508553
endloop
endfacet
facet normal 0.96592582628904 -2.81120947430096e-015 0.258819045102629
outer loop
vertex 177.456099965103 8.00000000000032 118.262847558941
vertex 177.565990429858 5.00000000000033 117.997548508554
vertex 177.565990429858 8.00000000000032 117.997548508554
endloop
endfacet
facet normal 0.866025403784367 -2.51979868683099e-015 0.500000000000124
outer loop
vertex 177.565990429858 5.00000000000033 117.997548508554
vertex 177.456099965103 8.00000000000032 118.262847558941
vertex 177.456099965103 5.00000000000028 118.262847558941
endloop
endfacet
facet normal 0.966601917291263 -5.96412950632484e-015 0.256282526694379
outer loop
vertex 185.618618409813 10.0000000000004 126.297548508552
vertex 188.50861840981 5.00000000000033 115.397548508551
vertex 188.50861840981 10.0000000000002 115.397548508551
endloop
endfacet
facet normal 0.966601917291263 -5.96412950632484e-015 0.256282526694379
outer loop
vertex 188.50861840981 5.00000000000033 115.397548508551
vertex 185.618618409813 10.0000000000004 126.297548508552
vertex 185.618618409813 5.00000000000026 126.297548508552
endloop
endfacet
facet normal 1.68451913944024e-015 -1.0 -3.53017778993788e-015
outer loop
vertex 173.508618409813 5.0000000000002 128.197548508555
vertex 185.618618409813 5.00000000000026 126.297548508552
vertex 185.618618409813 5.0000000000003 128.197548508552
endloop
endfacet
facet normal 1.68451913944024e-015 -1.0 -3.53017778993788e-015
outer loop
vertex 185.618618409813 5.00000000000026 126.297548508552
vertex 173.508618409813 5.0000000000002 128.197548508555
vertex 179.018618374023 5.00000000000019 125.913573912338
endloop
endfacet
facet normal 1.68451913944024e-015 -1.0 -3.53017778993788e-015
outer loop
vertex 185.618618409813 5.00000000000026 126.297548508552
vertex 179.018618374023 5.00000000000019 125.913573912338
vertex 179.225725155209 5.00000000000028 125.75465528974
endloop
endfacet
facet normal 1.68451913944024e-015 -1.0 -3.53017778993788e-015
outer loop
vertex 185.618618409813 5.00000000000026 126.297548508552
vertex 179.225725155209 5.00000000000028 125.75465528974
vertex 179.384643777807 5.00000000000023 125.547548508553
endloop
endfacet
facet normal 1.68451913944024e-015 -1.0 -3.53017778993788e-015
outer loop
vertex 185.618618409813 5.00000000000026 126.297548508552
vertex 179.384643777807 5.00000000000023 125.547548508553
vertex 179.484544200312 5.00000000000023 125.306367553656
endloop
endfacet
facet normal 1.68451913944024e-015 -1.0 -3.53017778993788e-015
outer loop
vertex 185.618618409813 5.00000000000026 126.297548508552
vertex 179.484544200312 5.00000000000023 125.306367553656
vertex 179.518618374023 5.00000000000014 125.047548508553
endloop
endfacet
facet normal 1.68451913944024e-015 -1.0 -3.53017778993788e-015
outer loop
vertex 185.618618409813 5.00000000000026 126.297548508552
vertex 179.518618374023 5.00000000000014 125.047548508553
vertex 179.618618374021 5.00000000000018 118.547548508553
endloop
endfacet
facet normal 1.68451913944024e-015 -1.0 -3.53017778993788e-015
outer loop
vertex 179.618618374021 5.00000000000018 118.547548508553
vertex 179.518618374023 5.00000000000014 125.047548508553
vertex 179.581136782939 5.00000000000018 118.832249458166
endloop
endfacet
facet normal 1.68451913944024e-015 -1.0 -3.53017778993788e-015
outer loop
vertex 179.018618374023 5.00000000000019 125.913573912338
vertex 173.508618409813 5.0000000000002 128.197548508555
vertex 178.777437419126 5.00000000000032 126.013474334842
endloop
endfacet
facet normal 1.68451913944024e-015 -1.0 -3.53017778993788e-015
outer loop
vertex 178.777437419126 5.00000000000032 126.013474334842
vertex 173.508618409813 5.0000000000002 128.197548508555
vertex 178.518618374023 5.00000000000015 126.047548508553
endloop
endfacet
facet normal 1.68451913944024e-015 -1.0 -3.53017778993788e-015
outer loop
vertex 178.518618374023 5.00000000000015 126.047548508553
vertex 173.508618409813 5.0000000000002 128.197548508555
vertex 178.259799328921 5.00000000000023 126.013474334843
endloop
endfacet
facet normal 1.68451913944024e-015 -1.0 -3.53017778993788e-015
outer loop
vertex 178.259799328921 5.00000000000023 126.013474334843
vertex 173.508618409813 5.0000000000002 128.197548508555
vertex 178.018618374023 5.00000000000028 125.913573912338
endloop
endfacet
facet normal 1.68451913944024e-015 -1.0 -3.53017778993788e-015
outer loop
vertex 178.018618374023 5.00000000000028 125.913573912338
vertex 173.508618409813 5.0000000000002 128.197548508555
vertex 177.811511592837 5.00000000000014 125.75465528974
endloop
endfacet
facet normal 1.68451913944024e-015 -1.0 -3.53017778993788e-015
outer loop
vertex 177.811511592837 5.00000000000014 125.75465528974
vertex 173.508618409813 5.0000000000002 128.197548508555
vertex 177.652592970238 5.00000000000024 125.547548508554
endloop
endfacet
facet normal 1.68451913944024e-015 -1.0 -3.53017778993788e-015
outer loop
vertex 177.652592970238 5.00000000000024 125.547548508554
vertex 173.508618409813 5.0000000000002 128.197548508555
vertex 177.552692547734 5.00000000000033 125.306367553656
endloop
endfacet
facet normal 1.68451913944024e-015 -1.0 -3.53017778993788e-015
outer loop
vertex 177.552692547734 5.00000000000033 125.306367553656
vertex 173.508618409813 5.0000000000002 128.197548508555
vertex 177.518618374023 5.00000000000033 125.047548508554
endloop
endfacet
facet normal 1.68451913944024e-015 -1.0 -3.53017778993788e-015
outer loop
vertex 177.518618374023 5.00000000000033 125.047548508554
vertex 173.508618409813 5.0000000000002 128.197548508555
vertex 177.456099965103 5.00000000000033 118.832249458167
endloop
endfacet
facet normal 1.68451913944024e-015 -1.0 -3.53017778993788e-015
outer loop
vertex 177.456099965103 5.00000000000033 118.832249458167
vertex 173.508618409813 5.0000000000002 128.197548508555
vertex 177.418618374021 5.00000000000028 118.547548508554
endloop
endfacet
facet normal 1.68451913944024e-015 -1.0 -3.53017778993788e-015
outer loop
vertex 177.418618374021 5.00000000000028 118.547548508554
vertex 173.508618409813 5.0000000000002 128.197548508555
vertex 173.508618409809 5.00000000000031 110.397548508555
endloop
endfacet
facet normal 1.68451913944024e-015 -1.0 -3.53017778993788e-015
outer loop
vertex 188.50861840981 5.00000000000033 115.397548508551
vertex 191.508618409809 5.00000000000031 110.39754850855
vertex 191.50861840981 5.00000000000031 115.39754850855
endloop
endfacet
facet normal 0.382683432365091 -0.923879532511286 -1.07159942387423e-013
outer loop
vertex 191.508618409809 5.00000000000031 110.39754850855
vertex 188.50861840981 5.00000000000033 115.397548508551
vertex 173.508618409809 5.00000000000031 110.397548508555
endloop
endfacet
facet normal 1.68451913944024e-015 -1.0 -3.53017778993788e-015
outer loop
vertex 173.508618409809 5.00000000000031 110.397548508555
vertex 188.50861840981 5.00000000000033 115.397548508551
vertex 179.296435833326 5.00000000000037 117.769731049248
endloop
endfacet
facet normal 1.68451913944024e-015 -1.0 -3.53017778993788e-015
outer loop
vertex 179.296435833326 5.00000000000037 117.769731049248
vertex 188.50861840981 5.00000000000033 115.397548508551
vertex 179.471246318184 5.00000000000028 117.997548508553
endloop
endfacet
facet normal 1.68451913944024e-015 -1.0 -3.53017778993788e-015
outer loop
vertex 179.471246318184 5.00000000000028 117.997548508553
vertex 188.50861840981 5.00000000000033 115.397548508551
vertex 185.618618409813 5.00000000000026 126.297548508552
endloop
endfacet
facet normal 1.68451913944024e-015 -1.0 -3.53017778993788e-015
outer loop
vertex 179.471246318184 5.00000000000028 117.997548508553
vertex 185.618618409813 5.00000000000026 126.297548508552
vertex 179.581136782939 5.00000000000018 118.26284755894
endloop
endfacet
facet normal 1.68451913944024e-015 -1.0 -3.53017778993788e-015
outer loop
vertex 179.581136782939 5.00000000000018 118.26284755894
vertex 185.618618409813 5.00000000000026 126.297548508552
vertex 179.618618374021 5.00000000000018 118.547548508553
endloop
endfacet
facet normal 1.68451913944024e-015 -1.0 -3.53017778993788e-015
outer loop
vertex 173.508618409809 5.00000000000031 110.397548508555
vertex 179.296435833326 5.00000000000037 117.769731049248
vertex 179.068618374021 5.00000000000019 117.59492056439
endloop
endfacet
facet normal 1.68451913944024e-015 -1.0 -3.53017778993788e-015
outer loop
vertex 173.508618409809 5.00000000000031 110.397548508555
vertex 179.068618374021 5.00000000000019 117.59492056439
vertex 178.803319323633 5.00000000000023 117.485030099635
endloop
endfacet
facet normal 1.68451913944024e-015 -1.0 -3.53017778993788e-015
outer loop
vertex 173.508618409809 5.00000000000031 110.397548508555
vertex 178.803319323633 5.00000000000023 117.485030099635
vertex 178.518618374021 5.00000000000019 117.447548508553
endloop
endfacet
facet normal 1.68451913944024e-015 -1.0 -3.53017778993788e-015
outer loop
vertex 173.508618409809 5.00000000000031 110.397548508555
vertex 178.518618374021 5.00000000000019 117.447548508553
vertex 178.233917424408 5.00000000000023 117.485030099636
endloop
endfacet
facet normal 1.68451913944024e-015 -1.0 -3.53017778993788e-015
outer loop
vertex 173.508618409809 5.00000000000031 110.397548508555
vertex 178.233917424408 5.00000000000023 117.485030099636
vertex 177.968618374021 5.00000000000033 117.59492056439
endloop
endfacet
facet normal 1.68451913944024e-015 -1.0 -3.53017778993788e-015
outer loop
vertex 173.508618409809 5.00000000000031 110.397548508555
vertex 177.968618374021 5.00000000000033 117.59492056439
vertex 177.740800914716 5.00000000000019 117.769731049249
endloop
endfacet
facet normal 1.68451913944024e-015 -1.0 -3.53017778993788e-015
outer loop
vertex 173.508618409809 5.00000000000031 110.397548508555
vertex 177.740800914716 5.00000000000019 117.769731049249
vertex 177.565990429858 5.00000000000033 117.997548508554
endloop
endfacet
facet normal 1.68451913944024e-015 -1.0 -3.53017778993788e-015
outer loop
vertex 173.508618409809 5.00000000000031 110.397548508555
vertex 177.565990429858 5.00000000000033 117.997548508554
vertex 177.456099965103 5.00000000000028 118.262847558941
endloop
endfacet
facet normal 1.68451913944024e-015 -1.0 -3.53017778993788e-015
outer loop
vertex 173.508618409809 5.00000000000031 110.397548508555
vertex 177.456099965103 5.00000000000028 118.262847558941
vertex 177.418618374021 5.00000000000028 118.547548508554
endloop
endfacet
facet normal 1.68451913944024e-015 -1.0 -3.53017778993788e-015
outer loop
vertex 179.518618374023 5.00000000000014 125.047548508553
vertex 179.471246318184 5.00000000000023 119.097548508553
vertex 179.581136782939 5.00000000000018 118.832249458166
endloop
endfacet
facet normal 1.68451913944024e-015 -1.0 -3.53017778993788e-015
outer loop
vertex 179.471246318184 5.00000000000023 119.097548508553
vertex 179.518618374023 5.00000000000014 125.047548508553
vertex 179.484544200312 5.00000000000023 124.788729463451
endloop
endfacet
facet normal 1.68451913944024e-015 -1.0 -3.53017778993788e-015
outer loop
vertex 179.471246318184 5.00000000000023 119.097548508553
vertex 179.484544200312 5.00000000000023 124.788729463451
vertex 179.384643777807 5.00000000000023 124.547548508553
endloop
endfacet
facet normal 1.68451913944024e-015 -1.0 -3.53017778993788e-015
outer loop
vertex 179.471246318184 5.00000000000023 119.097548508553
vertex 179.384643777807 5.00000000000023 124.547548508553
vertex 179.296435833326 5.00000000000032 119.325365967859
endloop
endfacet
facet normal 1.68451913944024e-015 -1.0 -3.53017778993788e-015
outer loop
vertex 179.296435833326 5.00000000000032 119.325365967859
vertex 179.384643777807 5.00000000000023 124.547548508553
vertex 179.225725155209 5.00000000000028 124.340441727367
endloop
endfacet
facet normal 1.68451913944024e-015 -1.0 -3.53017778993788e-015
outer loop
vertex 179.296435833326 5.00000000000032 119.325365967859
vertex 179.225725155209 5.00000000000028 124.340441727367
vertex 179.068618374021 5.00000000000019 119.500176452716
endloop
endfacet
facet normal 1.68451913944024e-015 -1.0 -3.53017778993788e-015
outer loop
vertex 179.068618374021 5.00000000000019 119.500176452716
vertex 179.225725155209 5.00000000000028 124.340441727367
vertex 179.018618374023 5.00000000000014 124.181523104769
endloop
endfacet
facet normal 1.68451913944024e-015 -1.0 -3.53017778993788e-015
outer loop
vertex 179.068618374021 5.00000000000019 119.500176452716
vertex 179.018618374023 5.00000000000014 124.181523104769
vertex 178.803319323634 5.00000000000023 119.610066917471
endloop
endfacet
facet normal 1.68451913944024e-015 -1.0 -3.53017778993788e-015
outer loop
vertex 178.803319323634 5.00000000000023 119.610066917471
vertex 179.018618374023 5.00000000000014 124.181523104769
vertex 178.777437419125 5.00000000000032 124.081622682264
endloop
endfacet
facet normal 1.68451913944024e-015 -1.0 -3.53017778993788e-015
outer loop
vertex 178.803319323634 5.00000000000023 119.610066917471
vertex 178.777437419125 5.00000000000032 124.081622682264
vertex 178.518618374021 5.00000000000019 119.647548508553
endloop
endfacet
facet normal 1.68451913944024e-015 -1.0 -3.53017778993788e-015
outer loop
vertex 178.518618374021 5.00000000000019 119.647548508553
vertex 178.777437419125 5.00000000000032 124.081622682264
vertex 178.518618374023 5.00000000000019 124.047548508554
endloop
endfacet
facet normal 1.68451913944024e-015 -1.0 -3.53017778993788e-015
outer loop
vertex 178.518618374021 5.00000000000019 119.647548508553
vertex 178.518618374023 5.00000000000019 124.047548508554
vertex 178.25979932892 5.00000000000028 124.081622682264
endloop
endfacet
facet normal 1.68451913944024e-015 -1.0 -3.53017778993788e-015
outer loop
vertex 178.518618374021 5.00000000000019 119.647548508553
vertex 178.25979932892 5.00000000000028 124.081622682264
vertex 178.233917424408 5.00000000000023 119.610066917472
endloop
endfacet
facet normal 1.68451913944024e-015 -1.0 -3.53017778993788e-015
outer loop
vertex 178.233917424408 5.00000000000023 119.610066917472
vertex 178.25979932892 5.00000000000028 124.081622682264
vertex 178.018618374023 5.00000000000028 124.181523104769
endloop
endfacet
facet normal 1.68451913944024e-015 -1.0 -3.53017778993788e-015
outer loop
vertex 178.233917424408 5.00000000000023 119.610066917472
vertex 178.018618374023 5.00000000000028 124.181523104769
vertex 177.968618374021 5.00000000000028 119.500176452717
endloop
endfacet
facet normal 1.68451913944024e-015 -1.0 -3.53017778993788e-015
outer loop
vertex 177.968618374021 5.00000000000028 119.500176452717
vertex 178.018618374023 5.00000000000028 124.181523104769
vertex 177.811511592836 5.00000000000014 124.340441727367
endloop
endfacet
facet normal 1.68451913944024e-015 -1.0 -3.53017778993788e-015
outer loop
vertex 177.968618374021 5.00000000000028 119.500176452717
vertex 177.811511592836 5.00000000000014 124.340441727367
vertex 177.740800914716 5.00000000000015 119.325365967859
endloop
endfacet
facet normal 1.68451913944024e-015 -1.0 -3.53017778993788e-015
outer loop
vertex 177.740800914716 5.00000000000015 119.325365967859
vertex 177.811511592836 5.00000000000014 124.340441727367
vertex 177.652592970238 5.00000000000024 124.547548508554
endloop
endfacet
facet normal 1.68451913944024e-015 -1.0 -3.53017778993788e-015
outer loop
vertex 177.740800914716 5.00000000000015 119.325365967859
vertex 177.652592970238 5.00000000000024 124.547548508554
vertex 177.565990429858 5.00000000000037 119.097548508554
endloop
endfacet
facet normal 1.68451913944024e-015 -1.0 -3.53017778993788e-015
outer loop
vertex 177.565990429858 5.00000000000037 119.097548508554
vertex 177.652592970238 5.00000000000024 124.547548508554
vertex 177.552692547734 5.00000000000033 124.788729463451
endloop
endfacet
facet normal 1.68451913944024e-015 -1.0 -3.53017778993788e-015
outer loop
vertex 177.565990429858 5.00000000000037 119.097548508554
vertex 177.552692547734 5.00000000000033 124.788729463451
vertex 177.456099965103 5.00000000000033 118.832249458167
endloop
endfacet
facet normal 1.68451913944024e-015 -1.0 -3.53017778993788e-015
outer loop
vertex 177.456099965103 5.00000000000033 118.832249458167
vertex 177.552692547734 5.00000000000033 124.788729463451
vertex 177.518618374023 5.00000000000033 125.047548508554
endloop
endfacet
facet normal 0.866025403784633 -7.60751619790039e-015 0.499999999999663
outer loop
vertex 177.652592970238 8.00000000000028 124.547548508554
vertex 177.811511592836 5.00000000000014 124.340441727367
vertex 177.811511592836 8.00000000000023 124.340441727367
endloop
endfacet
facet normal 0.707106781186623 9.2065283154459e-016 0.707106781186472
outer loop
vertex 177.811511592836 5.00000000000014 124.340441727367
vertex 177.652592970238 8.00000000000028 124.547548508554
vertex 177.652592970238 5.00000000000024 124.547548508554
endloop
endfacet
facet normal -0.707106781186566 2.38822882487839e-015 0.707106781186529
outer loop
vertex 179.296435833326 5.00000000000037 117.769731049248
vertex 179.068618374021 8.00000000000018 117.59492056439
vertex 179.068618374021 5.00000000000019 117.59492056439
endloop
endfacet
facet normal -0.499999999999942 1.68905714474844e-015 0.866025403784472
outer loop
vertex 179.068618374021 8.00000000000018 117.59492056439
vertex 179.296435833326 5.00000000000037 117.769731049248
vertex 179.296435833326 8.00000000000036 117.769731049248
endloop
endfacet
facet normal -0.866025403784317 2.92704886556155e-015 0.50000000000021
outer loop
vertex 179.471246318184 5.00000000000028 117.997548508553
vertex 179.296435833326 8.00000000000036 117.769731049248
vertex 179.296435833326 5.00000000000037 117.769731049248
endloop
endfacet
facet normal -0.707106781186585 2.38822882487845e-015 0.70710678118651
outer loop
vertex 179.296435833326 8.00000000000036 117.769731049248
vertex 179.471246318184 5.00000000000028 117.997548508553
vertex 179.471246318184 8.00000000000028 117.997548508553
endloop
endfacet
facet normal 2.31282539014306e-013 7.56323387841744e-015 1.0
outer loop
vertex 185.618618409813 5.0000000000003 128.197548508552
vertex 173.508618409813 8.0000000000002 128.197548508555
vertex 173.508618409813 5.0000000000002 128.197548508555
endloop
endfacet
facet normal 2.31282539014306e-013 7.56323387841744e-015 1.0
outer loop
vertex 173.508618409813 8.0000000000002 128.197548508555
vertex 185.618618409813 5.0000000000003 128.197548508552
vertex 181.618618409814 8.00000000000026 128.197548508553
endloop
endfacet
facet normal 2.31282539014306e-013 7.56323387841744e-015 1.0
outer loop
vertex 181.618618409814 8.00000000000026 128.197548508553
vertex 185.618618409813 5.0000000000003 128.197548508552
vertex 185.618618409813 10.0000000000003 128.197548508552
endloop
endfacet
facet normal 2.31282539014306e-013 7.56323387841744e-015 1.0
outer loop
vertex 181.618618409814 8.00000000000026 128.197548508553
vertex 185.618618409813 10.0000000000003 128.197548508552
vertex 183.618618409813 10.0000000000003 128.197548508552
endloop
endfacet
facet normal 0.258819045102161 -8.7500801384023e-016 -0.965925826289165
outer loop
vertex 178.233917424408 5.00000000000023 119.610066917472
vertex 178.518618374021 8.00000000000018 119.647548508553
vertex 178.518618374021 5.00000000000019 119.647548508553
endloop
endfacet
facet normal -2.81018264625141e-013 5.04025616500543e-020 -1.0
outer loop
vertex 178.518618374021 8.00000000000018 119.647548508553
vertex 178.233917424408 5.00000000000023 119.610066917472
vertex 178.233917424408 8.00000000000023 119.610066917472
endloop
endfacet
facet normal -5.27980764273009e-013 9.22057324830707e-020 -1.0
outer loop
vertex 178.518618374023 8.00000000000018 126.047548508553
vertex 178.777437419126 5.00000000000032 126.013474334842
vertex 178.518618374023 5.00000000000015 126.047548508553
endloop
endfacet
facet normal -0.258819045102876 8.74794769223262e-016 -0.965925826288973
outer loop
vertex 178.777437419126 5.00000000000032 126.013474334842
vertex 178.518618374023 8.00000000000018 126.047548508553
vertex 178.777437419125 8.00000000000036 126.013474334842
endloop
endfacet
facet normal 0.499999999999772 -1.61875376216535e-015 -0.86602540378457
outer loop
vertex 177.968618374021 5.00000000000028 119.500176452717
vertex 178.233917424408 8.00000000000023 119.610066917472
vertex 178.233917424408 5.00000000000023 119.610066917472
endloop
endfacet
facet normal 0.258819045102188 -8.75008013840321e-016 -0.965925826289158
outer loop
vertex 178.233917424408 8.00000000000023 119.610066917472
vertex 177.968618374021 5.00000000000028 119.500176452717
vertex 177.968618374021 8.00000000000027 119.500176452717
endloop
endfacet
facet normal -0.965925826289002 3.26551049641012e-015 0.25881904510277
outer loop
vertex 179.581136782939 5.00000000000018 118.26284755894
vertex 179.471246318184 8.00000000000028 117.997548508553
vertex 179.471246318184 5.00000000000028 117.997548508553
endloop
endfacet
facet normal -0.86602540378429 2.92704886556146e-015 0.500000000000257
outer loop
vertex 179.471246318184 8.00000000000028 117.997548508553
vertex 179.581136782939 5.00000000000018 118.26284755894
vertex 179.581136782939 8.00000000000018 118.26284755894
endloop
endfacet
facet normal 0.707106781186325 -2.29740376291334e-015 -0.70710678118677
outer loop
vertex 177.811511592836 8.00000000000023 125.75465528974
vertex 177.652592970238 5.00000000000024 125.547548508554
vertex 177.652592970238 8.00000000000028 125.547548508554
endloop
endfacet
facet normal 0.866025403784067 -2.61424757596359e-015 -0.500000000000645
outer loop
vertex 177.652592970238 5.00000000000024 125.547548508554
vertex 177.811511592836 8.00000000000023 125.75465528974
vertex 177.811511592837 5.00000000000014 125.75465528974
endloop
endfacet
facet normal 0.258819045102658 -8.75662310752297e-016 0.965925826289032
outer loop
vertex 178.25979932892 8.00000000000027 124.081622682264
vertex 178.018618374023 5.00000000000028 124.181523104769
vertex 178.25979932892 5.00000000000028 124.081622682264
endloop
endfacet
facet normal 0.500000000000159 -1.69083416415932e-015 0.866025403784347
outer loop
vertex 178.018618374023 5.00000000000028 124.181523104769
vertex 178.25979932892 8.00000000000027 124.081622682264
vertex 178.018618374023 8.00000000000032 124.181523104769
endloop
endfacet
facet normal -0.707106781186556 0.707106781186539 1.91355284931607e-013
outer loop
vertex 181.618618409814 8.00000000000026 128.197548508553
vertex 183.61861840981 10.0000000000002 115.397548508553
vertex 181.61861840981 8.0000000000002 115.397548508553
endloop
endfacet
facet normal -0.707106781186556 0.707106781186539 1.91355284931607e-013
outer loop
vertex 183.61861840981 10.0000000000002 115.397548508553
vertex 181.618618409814 8.00000000000026 128.197548508553
vertex 183.618618409813 10.0000000000003 128.197548508552
endloop
endfacet
facet normal -0.500000000000023 1.69118808090215e-015 -0.866025403784426
outer loop
vertex 179.068618374021 8.00000000000018 119.500176452716
vertex 179.296435833326 5.00000000000032 119.325365967859
vertex 179.068618374021 5.00000000000019 119.500176452716
endloop
endfacet
facet normal -0.707106781186228 2.38959102059034e-015 -0.707106781186867
outer loop
vertex 179.296435833326 5.00000000000032 119.325365967859
vertex 179.068618374021 8.00000000000018 119.500176452716
vertex 179.296435833326 8.00000000000031 119.325365967859
endloop
endfacet
endsolid Main Design
